<?xml version="1.0" standalone="no"?>
<!DOCTYPE svg PUBLIC "-//W3C//DTD SVG 20010904//EN"
 "http://www.w3.org/TR/2001/REC-SVG-20010904/DTD/svg10.dtd">
<svg version="1.0" xmlns="http://www.w3.org/2000/svg"
 width="795.000000pt" height="780.000000pt" viewBox="0 0 795.000000 780.000000"
 preserveAspectRatio="xMidYMid meet">
<metadata>
Created by potrace 1.10, written by Peter Selinger 2001-2011
</metadata>
<g transform="translate(0.000000,780.000000) scale(0.100000,-0.100000)"
fill="#000000" stroke="none">
<path d="M3804 7561 c-3 -3 -40 -7 -82 -8 -42 -2 -102 -10 -132 -19 -30 -9
-88 -16 -128 -16 -40 0 -75 -4 -78 -9 -3 -5 -22 -9 -42 -9 -37 0 -49 -3 -167
-35 -33 -9 -76 -20 -95 -25 -19 -4 -48 -13 -65 -19 -16 -6 -64 -20 -105 -31
-41 -12 -86 -27 -100 -34 -14 -8 -43 -19 -65 -26 -22 -7 -60 -21 -85 -32 -60
-28 -80 -35 -110 -44 -14 -3 -32 -12 -40 -19 -8 -7 -31 -15 -50 -19 -19 -3
-65 -24 -102 -46 -36 -22 -71 -40 -76 -40 -4 0 -19 -11 -32 -25 -13 -14 -29
-25 -36 -25 -7 0 -43 -20 -80 -45 -36 -25 -72 -45 -79 -45 -6 0 -24 -13 -38
-30 -15 -16 -33 -30 -41 -30 -7 0 -21 -9 -32 -21 -10 -12 -32 -28 -48 -36 -16
-8 -39 -24 -50 -35 -12 -11 -31 -24 -44 -29 -34 -13 -111 -72 -117 -90 -3 -9
-26 -30 -51 -48 -24 -18 -54 -46 -66 -62 -12 -16 -28 -29 -35 -29 -16 0 -123
-101 -156 -148 -44 -60 -130 -157 -147 -165 -9 -5 -25 -22 -35 -39 -9 -17 -37
-51 -61 -76 -24 -25 -44 -50 -44 -54 0 -5 -23 -44 -51 -86 -28 -42 -53 -89
-56 -104 -3 -16 -11 -28 -17 -28 -15 0 -52 -40 -60 -66 -4 -12 -15 -29 -26
-39 -11 -10 -20 -23 -20 -30 0 -7 -13 -30 -28 -51 -36 -50 -72 -120 -72 -140
0 -8 -7 -22 -15 -30 -8 -9 -15 -26 -15 -39 0 -12 -7 -26 -15 -29 -19 -7 -41
-58 -56 -128 -6 -29 -16 -58 -21 -65 -21 -27 -48 -89 -48 -113 -1 -14 -14 -50
-30 -80 -17 -30 -30 -67 -30 -81 0 -14 -9 -52 -20 -84 -11 -32 -20 -75 -20
-95 0 -20 -4 -40 -10 -46 -17 -17 -32 -117 -18 -125 9 -6 8 -13 -5 -27 -11
-12 -17 -32 -15 -55 1 -19 -4 -42 -11 -51 -8 -10 -11 -26 -7 -42 5 -17 1 -35
-9 -50 -9 -14 -13 -34 -9 -48 3 -13 -2 -41 -11 -62 -13 -31 -14 -48 -6 -85 8
-36 7 -56 -2 -81 -24 -61 -5 -600 26 -765 8 -39 11 -77 7 -83 -4 -7 -1 -24 6
-39 8 -14 14 -36 14 -48 0 -12 4 -24 9 -27 4 -3 11 -36 14 -74 4 -38 14 -82
22 -98 8 -16 15 -39 15 -52 0 -13 12 -39 26 -57 20 -26 23 -38 15 -52 -7 -13
-6 -22 3 -33 18 -21 46 -116 46 -156 0 -23 6 -37 20 -44 11 -6 20 -19 20 -30
0 -10 9 -35 21 -54 11 -19 18 -40 14 -45 -7 -12 8 -40 48 -92 15 -20 27 -43
27 -51 0 -7 14 -28 30 -47 17 -18 45 -61 62 -94 18 -34 35 -64 38 -67 3 -3 17
-23 30 -45 13 -22 27 -42 31 -45 3 -3 16 -24 28 -47 11 -23 32 -54 46 -69 14
-15 25 -33 25 -41 0 -7 9 -21 20 -30 11 -10 20 -21 20 -26 0 -12 89 -139 115
-163 13 -12 26 -35 29 -52 4 -17 13 -33 21 -36 7 -2 22 -24 33 -48 10 -24 31
-54 45 -68 15 -14 27 -28 27 -32 0 -9 106 -115 126 -126 8 -5 55 -47 103 -95
49 -48 105 -94 125 -102 23 -10 36 -22 36 -34 0 -12 15 -29 38 -42 20 -13 42
-28 47 -35 6 -6 26 -17 46 -23 20 -7 57 -32 82 -56 25 -25 52 -45 61 -45 8 0
20 -9 26 -20 6 -11 17 -20 24 -20 7 0 21 -9 31 -20 10 -11 24 -20 32 -20 8 0
35 -16 60 -35 25 -19 56 -35 69 -35 13 0 28 -9 34 -20 6 -11 19 -20 28 -20 10
0 27 -7 38 -15 10 -8 26 -15 35 -15 9 0 24 -9 34 -20 10 -11 28 -20 40 -20 12
0 39 -11 59 -25 20 -14 51 -25 67 -25 18 0 38 -8 47 -20 11 -12 33 -21 58 -23
23 -2 54 -13 69 -25 15 -12 41 -22 57 -22 16 0 42 -10 58 -21 22 -17 38 -21
69 -16 32 4 42 1 53 -14 10 -15 25 -20 61 -21 26 0 50 2 54 5 3 4 20 -5 39
-19 21 -16 40 -23 52 -20 10 4 33 -1 51 -10 22 -11 45 -14 69 -10 23 3 42 1
52 -8 26 -23 93 -28 120 -9 22 15 24 15 41 -9 19 -25 21 -26 166 -28 185 -3
198 -3 251 6 32 5 47 2 60 -9 11 -10 23 -13 31 -8 7 5 33 6 57 3 25 -2 50 0
57 7 8 6 42 10 83 8 80 -4 129 7 138 29 4 11 10 13 19 7 28 -23 78 -23 109 -2
27 20 30 20 47 5 20 -18 45 -15 178 25 34 11 75 19 91 19 15 0 37 7 48 15 10
8 38 15 60 15 26 0 51 8 67 20 14 11 38 20 54 18 15 -1 48 9 73 22 56 30 138
59 166 60 11 0 29 7 40 15 10 8 25 15 32 15 7 0 28 11 46 25 18 14 41 25 50
25 16 0 187 81 211 100 6 4 21 11 35 15 32 9 95 51 140 92 19 18 41 33 48 33
17 0 95 42 104 56 4 7 19 15 33 18 14 4 25 11 25 16 0 6 5 10 12 10 17 0 118
107 118 126 0 10 5 14 15 10 26 -10 58 10 133 82 39 38 88 80 107 93 19 13 35
30 35 36 0 7 23 29 50 50 28 20 50 42 50 48 0 5 32 41 70 79 39 38 70 73 70
78 0 5 25 35 57 68 65 69 93 108 93 132 0 9 17 31 38 48 35 27 82 101 82 127
0 5 15 24 34 42 19 18 51 67 71 108 34 69 71 131 93 159 5 5 17 28 27 50 10
21 40 86 67 144 27 57 52 118 55 135 3 16 11 37 18 45 7 8 16 26 19 40 4 14
11 34 16 45 21 48 53 152 55 180 2 17 10 50 18 75 45 134 60 194 73 275 7 50
18 113 23 140 27 130 35 224 22 260 -11 32 -10 38 9 62 19 24 20 35 15 132 -7
126 -7 211 1 306 4 49 1 81 -8 105 -8 19 -14 55 -13 80 1 25 -4 60 -11 79 -8
18 -11 37 -9 42 11 17 -31 265 -52 304 -6 11 -8 26 -6 33 3 7 0 18 -5 25 -5 7
-13 37 -17 67 -4 30 -19 91 -33 135 -15 44 -25 84 -23 90 1 5 -7 32 -19 60
-44 100 -49 114 -56 151 -4 22 -20 64 -37 94 -16 30 -39 74 -52 96 -12 23 -25
55 -28 72 -3 16 -19 50 -35 74 -67 100 -82 125 -82 134 0 6 -9 19 -20 29 -11
10 -23 36 -26 57 -5 31 -12 40 -33 45 -31 7 -41 20 -41 51 0 35 -27 80 -58 96
-15 8 -38 36 -52 63 -30 59 -77 120 -150 196 -30 32 -66 76 -79 98 -12 21 -29
39 -35 39 -7 0 -26 14 -42 31 -70 76 -146 149 -154 149 -4 0 -41 31 -80 70
-40 38 -81 72 -91 75 -11 4 -19 10 -19 14 0 4 -26 25 -57 47 -32 21 -83 57
-113 80 -30 22 -91 62 -135 89 -44 27 -96 61 -116 77 -20 15 -45 28 -54 28
-10 0 -42 16 -71 35 -60 40 -214 115 -236 115 -8 0 -19 5 -26 12 -12 12 -64
33 -117 48 -16 4 -49 17 -71 29 -23 11 -63 25 -89 31 -26 6 -57 17 -69 25 -11
8 -30 15 -41 15 -11 0 -58 11 -105 25 -156 47 -184 54 -295 69 -60 8 -126 18
-145 21 -91 15 -207 26 -330 30 -255 9 -352 10 -356 6z m-40 -92 c3 4 45 6 93
4 104 -5 94 -4 258 -4 194 0 266 -4 305 -17 19 -6 80 -16 135 -22 99 -12 289
-55 374 -84 24 -9 53 -16 65 -16 11 0 64 -16 116 -36 52 -19 116 -41 143 -49
26 -7 67 -25 91 -39 25 -14 52 -26 61 -26 21 0 219 -98 278 -138 25 -16 56
-33 69 -37 12 -4 37 -19 53 -33 17 -14 53 -35 80 -47 28 -13 59 -33 70 -45 11
-12 33 -29 50 -37 38 -20 142 -101 219 -171 32 -29 71 -56 87 -59 16 -3 29
-12 29 -20 0 -14 25 -39 209 -218 51 -49 97 -98 103 -108 5 -10 20 -22 34 -27
16 -6 24 -17 24 -33 0 -16 17 -40 50 -71 28 -26 50 -51 50 -56 0 -11 58 -97
71 -105 5 -4 25 -37 45 -73 19 -37 48 -85 63 -107 16 -22 50 -80 76 -130 26
-49 50 -92 54 -95 8 -6 80 -153 107 -220 10 -25 23 -52 30 -60 7 -8 17 -33 23
-55 5 -22 14 -56 19 -75 5 -19 16 -49 25 -67 10 -18 17 -41 17 -51 0 -10 13
-45 29 -78 20 -40 29 -75 29 -108 0 -27 5 -58 10 -70 11 -21 39 -149 53 -241
22 -140 31 -215 34 -265 2 -30 7 -75 12 -100 5 -25 8 -144 6 -265 -5 -297 -8
-346 -20 -375 -7 -16 -7 -34 -1 -50 6 -17 5 -35 -6 -60 -8 -19 -19 -69 -25
-110 -15 -96 -37 -195 -67 -295 -40 -134 -72 -248 -79 -282 -3 -17 -13 -37
-21 -44 -8 -6 -14 -29 -14 -50 0 -21 -5 -41 -10 -44 -6 -4 -33 -55 -61 -113
-27 -59 -59 -127 -71 -152 -11 -25 -25 -52 -30 -60 -4 -8 -13 -26 -20 -40 -6
-14 -31 -54 -54 -90 -23 -36 -46 -79 -50 -95 -4 -16 -21 -44 -38 -61 -56 -56
-86 -96 -92 -121 -4 -13 -28 -48 -55 -77 -27 -30 -49 -59 -49 -65 0 -6 -9 -16
-21 -23 -11 -7 -29 -29 -40 -50 -10 -20 -38 -56 -62 -80 -24 -23 -66 -70 -92
-103 -26 -33 -70 -77 -97 -97 -28 -21 -69 -58 -91 -82 -23 -24 -55 -50 -72
-59 -16 -8 -52 -38 -80 -66 -27 -28 -55 -51 -61 -51 -6 0 -19 -11 -28 -25 -9
-14 -20 -25 -25 -25 -10 0 -114 -68 -121 -80 -3 -4 -22 -15 -42 -23 -21 -9
-53 -30 -70 -46 -18 -17 -39 -31 -47 -31 -8 0 -37 -17 -65 -38 -28 -22 -68
-44 -88 -51 -20 -7 -53 -23 -73 -37 -20 -13 -40 -24 -46 -24 -17 0 -72 -31
-99 -55 -14 -12 -40 -25 -58 -28 -18 -4 -56 -18 -85 -31 -28 -14 -71 -28 -94
-32 -24 -4 -43 -10 -43 -15 0 -5 -18 -12 -40 -15 -22 -4 -45 -13 -51 -20 -6
-8 -20 -14 -31 -14 -17 0 -19 -5 -14 -27 4 -16 3 -23 -1 -17 -13 17 -55 24
-93 14 -19 -5 -52 -13 -73 -19 -21 -5 -47 -17 -57 -26 -15 -14 -21 -14 -38 -4
-25 15 -52 -2 -52 -32 0 -25 -20 -24 -27 1 -6 22 -23 26 -39 10 -10 -10 -61
-14 -114 -8 -17 2 -28 -3 -34 -17 -8 -19 -20 -20 -180 -23 l-171 -2 -22 -27
-22 -27 -24 22 c-24 23 -52 29 -62 12 -4 -6 -15 -6 -32 1 -15 5 -36 9 -47 8
-12 -2 -49 1 -84 5 -50 6 -67 5 -87 -8 -31 -20 -69 -21 -85 -1 -8 9 -30 15
-57 15 -24 0 -57 7 -73 15 -23 12 -34 13 -54 4 -19 -9 -29 -9 -40 0 -8 6 -29
16 -47 21 -26 8 -35 6 -45 -8 -11 -16 -13 -16 -31 1 -21 19 -58 23 -68 7 -9
-15 -25 -12 -25 5 0 8 -8 19 -19 24 -28 15 -149 42 -214 48 -43 4 -60 10 -67
24 -7 11 -21 19 -37 19 -15 0 -35 7 -45 17 -15 13 -24 14 -52 6 -31 -9 -37 -8
-56 12 -11 12 -40 28 -63 35 -23 8 -46 17 -51 21 -5 4 -14 5 -22 2 -7 -2 -22
4 -34 15 -11 10 -45 32 -76 47 -53 27 -55 27 -75 9 -23 -21 -52 -10 -58 22 -5
29 -32 54 -58 54 -32 0 -63 17 -63 34 0 17 -43 46 -68 46 -10 0 -29 11 -42 25
-13 14 -32 25 -41 25 -10 0 -23 9 -29 20 -6 11 -16 20 -23 20 -7 0 -27 14 -44
30 -44 43 -101 80 -123 80 -10 0 -21 9 -25 19 -3 11 -16 21 -28 23 -12 2 -33
20 -46 40 -13 21 -31 38 -39 38 -29 0 -81 42 -107 85 -14 26 -33 45 -43 45 -9
0 -30 16 -45 35 -22 28 -35 35 -62 35 -34 0 -35 1 -35 38 0 26 -7 45 -20 57
-11 10 -20 24 -20 32 0 7 -11 13 -25 13 -18 0 -29 9 -40 32 -17 37 -84 132
-106 151 -8 6 -27 30 -42 52 -15 22 -40 56 -57 75 -16 19 -33 40 -38 45 -15
20 -72 115 -72 123 -1 4 -14 23 -30 42 -17 19 -30 38 -30 43 0 5 -9 20 -20 34
-11 14 -20 36 -20 48 0 12 -9 32 -20 45 -11 12 -22 30 -25 39 -3 9 -19 24 -35
33 -26 15 -29 22 -24 43 5 19 1 32 -13 48 -11 12 -23 40 -26 61 -4 22 -20 57
-39 79 -24 30 -31 49 -30 74 2 24 -6 48 -28 79 -17 26 -30 58 -30 77 0 18 -7
41 -15 51 -8 11 -15 32 -15 47 0 14 -7 32 -15 39 -9 7 -15 29 -15 52 0 32 -6
46 -32 70 -29 27 -30 31 -15 39 21 12 22 35 1 43 -12 5 -14 15 -9 49 6 35 3
46 -14 61 -12 11 -21 27 -21 36 0 9 -5 21 -12 28 -9 9 -9 17 1 36 8 14 10 33
5 47 -4 13 -8 44 -8 69 -1 25 -4 50 -8 56 -4 5 -7 47 -7 92 0 45 -5 91 -11
103 -7 12 -9 37 -5 60 4 23 3 45 -3 52 -7 8 -8 27 -3 47 4 19 6 86 3 148 -2
79 0 118 9 128 8 10 10 36 5 84 -4 46 -3 70 4 70 7 0 8 23 4 65 -5 48 -3 69 7
81 8 10 15 33 16 53 6 81 11 107 26 135 11 20 14 45 11 87 -4 49 -1 63 17 89
19 25 21 33 11 55 -10 21 -9 27 8 37 11 7 20 21 20 30 0 17 18 66 46 121 8 16
14 45 14 64 0 22 7 41 18 49 14 10 15 16 5 32 -9 16 -6 26 18 63 16 24 29 52
29 61 0 9 4 19 9 23 5 3 17 27 27 53 9 26 25 56 33 67 31 39 51 83 45 100 -4
10 2 28 15 45 11 16 21 34 21 39 0 20 72 145 91 159 10 7 19 19 19 26 0 7 9
21 20 31 11 10 20 23 20 30 0 6 13 24 30 38 18 17 34 44 41 72 6 25 15 45 20
45 5 0 16 15 25 33 9 17 25 38 35 45 11 7 19 24 19 37 0 18 9 28 32 39 18 7
49 33 68 57 19 23 75 83 124 133 48 50 100 106 113 124 14 17 30 32 35 32 19
0 93 66 134 118 14 17 30 32 36 32 6 0 38 22 72 48 33 26 89 67 124 91 35 23
66 49 69 57 3 7 29 25 60 39 30 14 63 34 74 43 10 9 28 24 38 33 10 10 32 20
47 23 41 10 82 45 65 55 -11 7 -11 10 0 17 7 4 14 3 17 -4 6 -19 26 -14 70 18
23 17 50 30 61 30 10 0 24 7 31 15 7 8 17 15 23 15 6 0 18 6 26 13 9 7 45 22
80 33 35 10 66 25 68 32 3 6 16 12 29 12 14 0 42 9 63 19 21 11 75 32 122 46
46 15 98 31 114 37 17 5 46 13 65 17 19 4 45 13 57 19 12 7 35 12 50 12 16 0
34 5 41 12 6 6 42 13 79 15 37 3 84 9 103 15 43 12 113 26 200 38 36 5 83 13
105 18 22 5 48 5 57 0 9 -4 19 -4 22 1z"/>
<path d="M3734 7326 c-11 -8 -36 -16 -55 -18 l-34 -3 -1 -75 c-1 -50 3 -83 13
-100 12 -21 13 -37 5 -80 -7 -34 -7 -59 -1 -64 5 -6 9 -34 9 -62 0 -76 10 -83
117 -77 101 7 128 14 142 42 8 15 7 24 -7 41 -17 21 -21 22 -58 10 -21 -7 -51
-19 -67 -27 -33 -17 -45 -11 -63 34 -11 26 -12 43 -4 72 l10 39 70 4 c38 2 72
7 77 11 4 5 1 20 -8 35 -13 23 -21 27 -59 26 -25 0 -57 -4 -72 -8 -29 -8 -26
-12 -43 67 -9 44 15 59 92 62 78 2 93 8 93 35 0 12 -14 23 -40 34 -50 20 -89
20 -116 2z"/>
<path d="M4140 7319 c-9 -15 -8 -24 1 -35 9 -12 9 -25 -4 -67 -37 -120 -58
-317 -36 -343 18 -22 58 -17 68 9 9 23 7 37 -12 75 -8 17 -7 30 6 58 l17 35
78 -3 77 -3 0 35 0 35 -65 -3 c-55 -3 -68 0 -83 16 -12 13 -14 22 -8 26 6 4
13 29 17 56 3 27 12 51 18 53 6 3 37 0 69 -5 69 -12 87 -7 87 25 0 41 -25 51
-126 54 -86 3 -94 1 -104 -18z"/>
<path d="M4467 7292 c-26 -28 -37 -70 -37 -136 0 -44 -5 -67 -15 -76 -10 -9
-15 -32 -15 -77 0 -35 -5 -84 -11 -109 -17 -66 17 -98 60 -55 22 22 36 113 21
141 -8 14 -8 26 1 41 9 17 17 20 42 15 17 -4 41 -16 54 -28 19 -18 23 -32 23
-85 0 -88 11 -107 60 -99 28 4 39 2 44 -9 3 -8 12 -15 20 -15 22 0 76 33 76
47 0 7 8 28 18 47 17 35 35 45 47 26 3 -5 17 -10 31 -10 14 0 35 -5 46 -11 19
-10 20 -17 14 -79 -7 -64 -5 -70 14 -80 12 -7 32 -9 45 -6 l24 6 -4 163 c-8
295 -8 297 -29 313 -29 21 -53 17 -73 -11 -10 -14 -26 -35 -37 -48 -10 -12
-32 -49 -48 -81 -17 -33 -37 -66 -45 -75 -9 -8 -22 -29 -29 -46 -7 -16 -29
-48 -48 -70 l-34 -40 -16 40 c-10 22 -15 49 -12 59 3 11 -2 35 -10 54 -14 35
-14 36 25 74 59 59 63 133 8 179 -67 58 -176 79 -210 41z m146 -83 c33 -36 34
-57 5 -95 -12 -16 -23 -30 -24 -32 -1 -1 -21 2 -45 7 -35 8 -45 7 -54 -6 -7
-9 -17 -13 -23 -9 -16 10 -15 26 2 26 9 0 18 22 26 63 6 34 17 68 23 75 16 19
58 6 90 -29z m347 -171 l-5 -83 -50 0 c-56 0 -70 20 -37 52 11 10 30 38 42 63
22 44 38 62 50 55 3 -2 3 -41 0 -87z"/>
<path d="M3457 7282 c-16 -17 -15 -22 4 -78 37 -102 59 -227 47 -272 -10 -40
-48 -72 -85 -72 -30 0 -83 55 -83 87 0 15 -7 47 -15 69 -8 23 -17 64 -19 90
-16 143 -28 162 -82 134 -31 -17 -37 -37 -20 -68 15 -31 33 -93 47 -168 10
-60 33 -118 62 -158 25 -36 100 -71 124 -58 10 5 35 12 55 16 72 13 108 96 89
206 -6 36 -17 106 -26 155 -8 50 -19 100 -25 113 -12 27 -50 29 -73 4z"/>
<path d="M2976 7163 c-42 -5 -68 -18 -133 -71 -35 -27 -43 -40 -43 -66 0 -17
-5 -37 -12 -44 -9 -9 -9 -17 0 -34 6 -13 14 -41 17 -63 9 -53 81 -154 131
-183 35 -21 46 -22 119 -16 78 7 107 8 161 4 15 -2 35 6 46 18 17 16 18 23 8
42 -10 18 -17 21 -43 16 -43 -9 -106 -16 -87 -10 9 2 26 24 39 47 19 36 22 52
18 112 -3 39 -11 81 -19 95 -46 82 -76 121 -95 126 -12 3 -27 12 -34 20 -6 8
-17 13 -23 12 -6 -1 -29 -3 -50 -5z m64 -98 c35 -18 55 -36 69 -64 11 -21 18
-41 15 -44 -3 -3 0 -23 7 -45 10 -36 9 -45 -12 -87 -63 -126 -189 -86 -244 77
-21 63 -8 115 40 157 43 38 61 38 125 6z"/>
<path d="M5235 7105 c-14 -13 -25 -35 -25 -47 0 -13 -7 -33 -15 -45 -9 -12
-24 -48 -34 -80 -20 -59 -37 -100 -71 -163 -27 -49 -26 -90 1 -90 11 0 29 5
40 10 21 12 49 70 49 104 0 12 6 30 13 41 7 11 19 47 27 80 27 124 65 138 58
20 -3 -39 0 -82 5 -96 5 -13 11 -71 12 -128 2 -57 8 -108 13 -113 5 -5 22 -10
37 -11 32 -2 36 3 79 113 14 36 26 75 26 86 0 12 6 27 14 33 8 6 24 33 36 59
12 26 28 58 36 72 28 51 5 91 -43 74 -20 -7 -29 -20 -38 -54 -7 -25 -17 -55
-23 -67 -7 -12 -12 -30 -12 -40 0 -10 -9 -36 -20 -58 -11 -22 -20 -55 -20 -73
0 -29 -2 -33 -15 -22 -8 7 -15 22 -15 34 0 25 -6 117 -16 241 -10 135 -44 176
-99 120z"/>
<path d="M2623 7018 c-31 -15 -30 -51 2 -92 14 -18 25 -37 25 -43 0 -6 16 -31
35 -56 22 -29 35 -57 35 -76 0 -16 10 -47 23 -68 12 -21 27 -51 32 -67 15 -43
39 -55 64 -32 27 24 26 42 -2 80 -13 17 -29 46 -36 64 -8 18 -22 37 -31 42
-11 6 -16 17 -13 28 2 11 -6 46 -20 78 -13 32 -30 76 -37 97 -6 20 -20 42 -30
47 -22 12 -19 12 -47 -2z"/>
<path d="M5705 6880 c-3 -5 -21 -10 -39 -10 -18 0 -45 -9 -59 -20 -37 -29
-107 -138 -107 -167 0 -13 -7 -37 -15 -53 -13 -26 -13 -33 4 -72 10 -24 30
-52 45 -61 14 -10 26 -24 26 -32 0 -26 -33 -55 -62 -55 -23 0 -28 -4 -28 -25
0 -17 9 -29 31 -40 28 -15 32 -15 62 3 32 19 34 27 22 68 -10 31 22 40 50 14
12 -11 29 -20 38 -20 9 0 23 -13 32 -30 22 -43 55 -40 109 10 52 48 92 54 102
15 3 -14 12 -25 20 -25 7 0 18 -9 24 -21 9 -17 7 -31 -15 -74 -46 -90 -16
-137 47 -75 24 25 29 37 26 63 -4 25 1 37 22 59 15 15 31 43 34 62 4 19 13 40
22 47 8 7 13 18 10 26 -3 7 5 43 19 79 39 104 7 148 -71 97 -55 -36 -241 -159
-276 -184 -34 -24 -43 -24 -68 1 -11 11 -29 20 -40 20 -22 0 -87 66 -109 112
-13 27 -12 34 15 90 29 60 103 138 131 138 30 0 113 -43 128 -66 25 -39 85
-27 85 17 0 50 -191 147 -215 109z m365 -329 c0 -6 -4 -13 -10 -16 -5 -3 -10
-15 -10 -25 0 -11 -9 -37 -21 -59 -19 -37 -22 -39 -57 -34 -47 7 -56 16 -48
46 4 16 26 37 63 60 60 36 83 44 83 28z"/>
<path d="M2325 6864 c-19 -20 -12 -46 21 -79 13 -13 24 -31 24 -39 0 -8 11
-32 25 -52 14 -20 25 -42 25 -49 0 -6 13 -25 30 -41 16 -16 30 -39 30 -50 0
-12 7 -27 15 -34 8 -7 15 -25 15 -41 0 -54 63 -60 90 -9 6 11 18 20 28 20 23
0 111 57 119 75 7 20 -15 45 -39 45 -11 0 -42 -18 -68 -40 -67 -56 -92 -51
-106 21 -6 29 -60 138 -94 189 -6 8 -15 26 -21 40 -24 58 -62 75 -94 44z"/>
<path d="M2128 6737 c-118 -67 -135 -104 -73 -158 19 -17 35 -35 35 -40 0 -10
62 -103 73 -107 4 -2 7 -9 7 -16 0 -7 13 -31 29 -53 16 -22 32 -49 36 -62 13
-43 44 -42 106 3 70 51 99 91 99 139 0 45 -28 117 -45 117 -7 0 -18 7 -25 15
-7 8 -23 15 -35 15 -19 0 -24 7 -29 41 -7 43 -50 109 -71 109 -7 0 -18 7 -25
15 -16 20 -16 20 -82 -18z m82 -62 c40 -21 41 -67 4 -106 -30 -31 -27 -66 4
-54 9 4 35 9 57 12 38 5 43 2 68 -30 15 -20 27 -44 27 -54 -1 -23 -28 -57 -58
-73 -28 -14 -43 -4 -67 45 -9 19 -22 35 -30 35 -8 0 -17 11 -21 24 -3 13 -14
26 -24 29 -12 3 -21 18 -26 43 -4 21 -13 45 -21 52 -20 21 -16 44 15 69 33 27
35 27 72 8z"/>
<path d="M3930 6729 c-14 -6 -39 -8 -56 -4 -17 3 -82 0 -145 -6 -63 -6 -128
-12 -145 -13 -18 -1 -38 -7 -45 -13 -8 -6 -36 -14 -64 -17 -75 -8 -148 -25
-159 -36 -6 -6 -18 -10 -29 -10 -25 0 -336 -104 -384 -128 -21 -11 -60 -30
-88 -43 -27 -13 -57 -29 -65 -36 -21 -16 -134 -79 -188 -103 -23 -11 -45 -27
-48 -35 -4 -9 -30 -28 -58 -42 -28 -14 -67 -39 -86 -55 -79 -66 -135 -108
-146 -108 -6 0 -15 -9 -20 -19 -5 -11 -54 -62 -109 -112 -55 -51 -103 -101
-107 -110 -4 -9 -23 -30 -42 -46 -20 -15 -36 -32 -36 -37 0 -5 -7 -18 -17 -28
-9 -10 -21 -26 -27 -37 -23 -38 -88 -121 -96 -121 -4 0 -18 -19 -30 -42 -12
-24 -30 -52 -40 -63 -11 -11 -30 -45 -45 -77 -14 -31 -32 -61 -39 -67 -8 -7
-17 -23 -21 -38 -3 -14 -17 -42 -31 -62 -13 -19 -24 -44 -24 -54 0 -11 -11
-32 -25 -49 -14 -16 -25 -38 -25 -49 0 -10 -18 -63 -41 -116 -22 -54 -47 -127
-54 -163 -8 -36 -25 -96 -39 -135 -14 -38 -26 -88 -26 -111 0 -22 -3 -44 -7
-48 -8 -8 -25 -123 -43 -296 -15 -136 -3 -572 17 -620 5 -14 10 -50 11 -80 1
-31 8 -71 15 -90 8 -19 18 -57 22 -85 4 -27 11 -55 16 -61 4 -5 16 -48 25 -95
9 -48 27 -100 40 -122 14 -20 27 -52 30 -70 3 -17 16 -52 29 -77 12 -25 26
-62 29 -82 4 -21 17 -50 30 -65 12 -15 32 -48 43 -73 39 -85 44 -95 70 -140
14 -25 31 -54 37 -65 25 -45 80 -115 95 -120 9 -3 41 -44 71 -92 30 -47 72
-99 93 -116 20 -17 37 -34 37 -39 0 -4 8 -16 18 -26 9 -10 47 -51 85 -90 37
-40 74 -72 82 -72 7 0 21 -10 29 -21 17 -25 155 -139 167 -139 5 0 23 -13 41
-29 18 -16 52 -39 75 -50 23 -12 53 -33 68 -47 15 -14 52 -37 83 -53 32 -15
111 -55 177 -89 153 -77 182 -89 228 -97 20 -3 37 -10 37 -15 0 -6 5 -10 12
-10 6 0 34 -11 62 -24 68 -32 290 -78 375 -78 19 0 44 -6 55 -13 32 -20 282
-37 476 -32 170 5 273 15 375 37 28 6 74 13 104 16 29 3 62 9 72 14 10 6 27
10 39 10 21 0 127 32 165 50 31 15 155 60 205 75 51 15 303 142 368 186 24 16
57 36 75 46 32 16 202 141 267 196 214 180 351 325 478 505 116 164 156 226
192 297 17 33 42 78 55 100 28 44 45 81 45 96 0 5 15 42 33 82 37 79 82 212
102 297 7 30 19 73 25 95 7 22 17 63 23 90 7 28 15 55 18 60 7 9 16 116 25
265 2 36 7 89 12 118 13 78 -20 634 -38 657 -11 13 -48 159 -53 208 -2 20 -12
46 -22 57 -11 12 -15 28 -12 41 4 13 -4 47 -19 80 -13 32 -24 64 -24 72 0 7
-14 35 -30 61 -17 26 -28 52 -24 57 5 9 -79 186 -111 231 -8 13 -15 30 -15 38
0 9 -11 27 -25 40 -14 13 -25 31 -25 41 0 9 -18 39 -40 65 -22 27 -40 55 -40
62 0 8 -26 41 -58 75 -33 34 -82 94 -111 132 -29 39 -63 76 -77 83 -13 7 -24
19 -24 26 0 8 -10 20 -22 29 -13 8 -54 46 -93 84 -95 93 -278 239 -340 270
-27 14 -79 46 -113 70 -35 24 -71 47 -80 50 -10 4 -37 20 -62 37 -25 17 -65
39 -90 49 -25 10 -63 27 -85 36 -59 27 -115 48 -160 62 -22 6 -53 19 -70 27
-16 9 -48 19 -70 23 -22 5 -73 17 -114 28 -41 11 -78 18 -83 15 -5 -3 -14 -2
-21 3 -26 20 -130 37 -357 59 -113 11 -278 13 -300 3z m240 -80 c30 -5 105
-11 165 -13 81 -3 119 -9 145 -22 19 -10 60 -22 90 -26 30 -4 73 -12 95 -17
22 -5 67 -15 100 -21 33 -7 85 -23 115 -36 30 -13 66 -26 80 -30 14 -3 53 -19
87 -35 34 -16 80 -36 103 -44 23 -8 53 -23 68 -33 15 -10 38 -24 52 -30 14 -7
52 -31 85 -53 33 -21 74 -46 92 -54 18 -8 47 -28 65 -44 18 -15 42 -31 53 -35
11 -3 47 -31 79 -61 33 -30 62 -55 66 -55 10 0 349 -347 391 -400 32 -41 100
-138 124 -178 6 -9 22 -33 37 -53 15 -20 36 -56 47 -80 10 -24 31 -59 45 -78
14 -19 26 -39 26 -43 0 -5 10 -25 23 -46 13 -20 31 -62 41 -92 10 -30 24 -62
31 -70 7 -8 16 -31 20 -50 4 -19 11 -39 15 -45 5 -5 18 -46 30 -90 12 -44 25
-93 30 -110 4 -16 16 -64 25 -105 9 -41 23 -88 30 -105 7 -16 16 -79 20 -140
3 -60 10 -130 15 -155 12 -61 12 -337 0 -360 -5 -10 -11 -76 -13 -147 -2 -70
-9 -144 -15 -163 -6 -19 -16 -66 -22 -103 -6 -37 -19 -87 -29 -110 -10 -23
-26 -82 -36 -132 -9 -49 -23 -97 -30 -105 -7 -8 -17 -28 -21 -45 -4 -16 -10
-34 -14 -40 -3 -5 -15 -32 -25 -60 -9 -27 -32 -79 -50 -115 -18 -36 -48 -97
-66 -137 -19 -40 -41 -74 -50 -78 -9 -3 -26 -28 -40 -56 -13 -28 -30 -56 -39
-62 -8 -7 -24 -28 -34 -47 -61 -109 -302 -368 -472 -507 -21 -17 -61 -50 -88
-73 -27 -23 -61 -49 -75 -58 -14 -9 -28 -19 -31 -22 -3 -4 -34 -24 -70 -45
-36 -21 -81 -50 -100 -65 -38 -29 -218 -120 -238 -120 -7 0 -12 -4 -12 -10 0
-5 -7 -10 -15 -10 -8 0 -34 -9 -57 -19 -24 -11 -69 -31 -101 -45 -32 -14 -65
-26 -75 -26 -10 0 -27 -6 -38 -14 -11 -8 -38 -18 -60 -21 -21 -4 -43 -11 -49
-15 -5 -4 -28 -10 -50 -13 -22 -3 -83 -15 -135 -26 -52 -11 -137 -25 -189 -31
-52 -6 -99 -15 -105 -19 -25 -20 -578 6 -631 29 -11 5 -60 14 -110 19 -119 14
-181 27 -208 46 -12 8 -31 15 -43 15 -12 0 -43 9 -69 20 -26 11 -81 32 -123
46 -94 31 -162 63 -162 74 0 5 -10 12 -22 15 -48 15 -234 112 -261 137 -15 14
-45 34 -65 44 -20 9 -41 23 -45 30 -4 8 -13 14 -19 14 -6 0 -55 36 -109 80
-54 44 -105 80 -113 80 -9 0 -16 4 -16 8 0 5 -50 60 -111 123 -61 63 -136 147
-166 187 -30 39 -58 72 -61 72 -4 0 -23 29 -41 65 -19 36 -39 65 -43 65 -4 0
-8 7 -8 15 0 9 -11 21 -25 27 -14 6 -25 18 -25 27 0 9 -7 27 -15 41 -8 14 -26
49 -40 77 -15 29 -40 66 -56 82 -16 16 -29 39 -29 50 0 11 -4 23 -10 26 -5 3
-10 20 -10 37 0 16 -9 41 -20 55 -11 14 -25 44 -30 67 -6 22 -24 75 -40 116
-31 82 -75 221 -72 232 1 3 -5 29 -14 57 -8 27 -17 72 -20 98 -3 26 -7 59 -8
73 -2 14 -9 45 -16 68 -10 33 -11 48 -3 62 8 12 9 20 1 28 -7 7 -12 78 -14
188 -2 97 -6 185 -10 196 -3 10 0 26 6 34 8 8 10 28 7 50 -3 19 -1 47 5 62 5
15 16 72 24 127 23 164 30 199 42 222 7 12 12 34 12 48 0 14 5 36 12 48 6 12
15 38 19 57 8 38 26 94 40 122 5 10 9 28 9 41 0 13 9 32 20 42 11 10 20 30 20
45 0 15 7 33 15 40 9 7 13 21 9 35 -4 15 1 29 14 41 11 11 50 79 88 153 37 74
77 144 89 155 12 12 33 45 45 74 12 28 26 52 30 52 4 0 29 28 55 63 27 34 69
85 94 113 25 28 57 65 70 83 31 41 141 151 152 151 4 0 29 18 54 40 25 22 50
40 54 40 5 0 11 9 14 19 2 11 19 27 37 36 18 10 49 32 68 51 19 19 39 34 44
34 5 0 33 18 63 40 30 22 58 40 63 40 5 0 20 9 34 19 13 11 69 43 124 72 54
28 128 67 164 86 62 33 236 98 290 109 40 8 104 27 115 34 6 4 66 17 135 29
69 12 145 27 170 33 25 5 101 12 170 15 69 2 152 7 185 12 62 8 82 7 175 -10z"/>
<path d="M4331 6486 c-19 -20 -22 -34 -22 -92 0 -38 -1 -100 -2 -139 -2 -38 0
-75 4 -81 5 -5 3 -27 -3 -47 -12 -40 -7 -50 28 -61 17 -5 23 0 32 33 15 49 35
57 72 30 27 -20 30 -21 61 -5 51 26 81 16 44 -14 -18 -15 -11 -48 15 -70 24
-20 27 -58 8 -95 -17 -31 -12 -52 18 -83 10 -9 10 -20 2 -45 -16 -48 -26 -54
-44 -28 -20 28 -34 14 -34 -34 0 -17 -6 -39 -14 -50 -19 -29 -28 -73 -16 -80
6 -4 22 0 35 9 26 17 55 21 55 8 0 -12 56 -42 80 -42 13 0 27 -11 38 -30 27
-47 103 -66 121 -31 11 20 5 27 -97 115 -52 46 -87 57 -109 35 -19 -19 -43 -2
-43 31 0 27 2 29 19 18 28 -17 57 11 64 63 3 22 13 49 22 59 23 26 11 40 -35
40 -46 0 -58 13 -29 33 18 13 25 13 58 0 31 -12 37 -19 33 -38 -3 -17 3 -28
22 -40 25 -16 28 -16 45 -1 9 9 34 16 54 16 20 0 39 5 42 10 3 6 26 10 51 10
35 0 51 6 71 26 l26 26 -23 18 c-19 14 -38 17 -114 13 -50 -3 -104 -9 -119
-14 -34 -10 -57 0 -81 36 -9 14 -25 25 -36 25 -33 0 -36 44 -6 103 14 29 26
58 26 64 0 7 22 30 48 53 63 53 79 81 64 115 -16 34 -45 31 -77 -7 -14 -18
-44 -52 -66 -75 -21 -23 -39 -46 -39 -52 0 -6 -6 -11 -14 -11 -7 0 -24 -9 -38
-19 -27 -22 -82 -21 -116 0 -24 15 -34 82 -15 102 9 9 9 24 -3 67 -16 63 -18
110 -4 110 6 0 10 7 10 15 0 8 -4 15 -9 15 -5 0 -16 2 -23 5 -8 3 -24 -5 -37
-19z"/>
<path d="M3910 6391 c-5 -11 -10 -26 -10 -34 0 -8 47 -63 105 -122 73 -76 105
-115 105 -132 0 -38 24 -103 37 -103 7 0 13 6 13 14 0 22 33 29 47 10 14 -19
43 -12 43 11 0 8 -8 15 -18 15 -10 0 -25 8 -34 18 -9 9 -24 23 -32 30 -25 20
-8 41 37 44 39 3 42 5 42 33 0 29 -1 30 -50 30 -45 0 -54 4 -93 42 -24 23 -48
45 -53 50 -5 4 -31 32 -58 61 -54 57 -65 61 -81 33z"/>
<path d="M3162 6384 c-16 -11 -22 -25 -22 -54 0 -21 4 -41 9 -44 5 -3 7 -24 4
-46 -4 -26 0 -52 11 -75 22 -46 9 -66 -37 -58 -25 4 -37 -1 -56 -21 -26 -28
-37 -68 -53 -203 -12 -92 -11 -94 21 -195 51 -161 63 -192 77 -209 8 -8 14
-24 14 -35 0 -10 14 -39 30 -63 36 -53 64 -141 58 -183 -3 -16 1 -52 8 -80 7
-27 14 -82 15 -121 1 -40 5 -79 10 -87 4 -9 10 -47 13 -85 3 -39 13 -104 21
-145 8 -41 17 -86 19 -100 2 -14 8 -37 14 -52 6 -15 9 -35 6 -43 -8 -19 -47
-40 -91 -49 -17 -4 -37 -14 -44 -22 -6 -8 -17 -14 -23 -14 -10 0 -52 -18 -149
-66 -16 -8 -34 -14 -41 -14 -14 0 -56 41 -56 56 -1 24 -50 63 -100 79 -30 10
-60 22 -67 27 -6 5 -35 8 -65 6 -42 -2 -54 -7 -56 -21 -6 -31 28 -59 64 -53
19 4 42 1 60 -9 16 -8 32 -15 36 -15 22 0 99 -68 114 -101 11 -21 26 -39 34
-39 22 0 111 28 125 40 6 5 31 17 55 25 24 9 51 22 60 29 8 7 28 17 45 20 16
4 55 25 87 46 l56 39 11 -30 c6 -16 8 -43 4 -59 -4 -22 -1 -31 12 -36 20 -8
119 12 157 32 14 8 37 14 50 14 12 0 38 9 55 20 l33 20 -18 37 c-9 21 -21 41
-27 45 -13 10 -35 -11 -35 -33 0 -11 -5 -19 -10 -19 -19 0 -23 30 -6 49 18 20
21 47 6 56 -5 3 -9 41 -8 84 0 43 -5 87 -11 99 -6 11 -11 34 -11 50 0 61 -51
69 -81 12 -19 -35 -19 -35 3 -51 14 -11 19 -22 15 -33 -4 -10 -2 -26 3 -37 8
-14 7 -27 -4 -47 -17 -32 -7 -52 26 -52 22 0 22 -5 2 -39 -15 -25 -15 -30 -1
-57 19 -36 7 -64 -27 -64 -13 0 -26 -7 -30 -15 -8 -23 -46 -19 -46 4 0 11 5
23 10 26 20 12 10 45 -17 58 -45 20 -61 45 -56 91 3 28 -2 57 -16 89 -28 65
-28 117 -1 117 11 0 20 4 20 9 0 5 8 17 18 27 9 10 18 27 19 38 0 12 4 31 8
43 6 18 2 25 -19 34 -14 7 -26 17 -26 23 -1 26 -20 -22 -20 -50 0 -39 -20 -67
-43 -58 -21 8 -22 27 -2 44 19 16 19 50 1 76 -17 22 -10 75 11 87 26 16 -2
138 -38 167 -3 3 -9 29 -13 58 -6 43 -4 52 9 52 9 0 15 -9 15 -25 0 -38 17
-31 77 31 42 44 57 54 66 45 9 -9 9 -14 -1 -20 -8 -4 -16 -26 -19 -49 -5 -39
-4 -41 28 -50 l34 -9 -28 -12 c-34 -13 -31 -31 6 -49 31 -15 34 -29 12 -58 -8
-10 -15 -27 -15 -37 0 -9 -18 -33 -40 -53 -22 -20 -40 -45 -40 -55 0 -31 31
-20 44 16 7 19 8 19 17 3 6 -10 16 -18 23 -18 18 0 45 42 53 83 12 63 26 72
106 72 69 0 72 1 75 25 2 14 9 31 15 38 7 9 7 16 -1 24 -7 7 -12 22 -12 34 0
13 -5 26 -12 30 -15 10 -38 -24 -38 -57 0 -24 -4 -27 -47 -32 -43 -5 -51 -2
-75 22 -22 23 -26 36 -26 81 0 32 -7 68 -16 85 -9 17 -13 38 -10 48 3 9 -4 66
-15 126 -24 123 -48 273 -65 406 -15 122 -24 135 -86 135 -28 0 -50 -3 -50 -6
0 -4 16 -26 35 -49 29 -36 33 -48 29 -77 -4 -24 -1 -38 10 -47 20 -17 20 -41
2 -86 -12 -27 -20 -34 -38 -32 -15 1 -23 -3 -23 -13 0 -11 11 -15 40 -16 40 0
40 -1 43 -41 3 -39 1 -43 -37 -65 -38 -22 -58 -52 -41 -63 11 -7 56 11 65 24
3 6 13 11 20 11 20 0 26 -28 41 -172 5 -52 4 -57 -18 -69 -12 -6 -36 -24 -51
-39 -20 -19 -35 -26 -50 -22 -32 7 -47 22 -47 43 0 20 -37 85 -64 112 -9 8
-25 53 -37 99 -11 45 -28 96 -36 112 -28 51 -14 267 18 299 25 24 29 22 29
-18 0 -28 4 -35 20 -35 21 0 28 24 10 35 -14 9 -1 78 16 88 8 4 14 16 14 26 0
25 11 33 27 19 11 -9 21 -4 48 22 19 19 35 40 35 47 0 12 -22 56 -61 119 -10
17 -16 33 -13 37 10 10 -16 47 -34 47 -10 0 -28 -7 -40 -16z m66 -167 c2 -19
-1 -27 -12 -27 -11 0 -16 10 -16 31 0 38 24 35 28 -4z"/>
<path d="M4460 6037 c0 -7 -9 -18 -21 -25 -32 -20 -23 -66 14 -70 32 -4 52 9
60 39 4 15 0 23 -14 26 -10 3 -19 14 -19 24 0 11 -4 19 -10 19 -5 0 -10 -6
-10 -13z"/>
<path d="M4018 6029 c-10 -5 -18 -17 -18 -25 0 -23 -49 -38 -85 -26 -44 15
-158 24 -173 14 -21 -14 -10 -55 19 -69 14 -7 65 -17 113 -22 92 -11 112 -20
127 -58 13 -35 39 -29 39 9 0 25 -9 41 -41 70 l-42 38 29 0 c30 0 98 21 111
34 8 8 -35 46 -52 45 -5 0 -18 -4 -27 -10z"/>
<path d="M4356 6027 c-23 -17 -17 -51 10 -55 30 -4 48 21 34 47 -13 24 -20 26
-44 8z"/>
<path d="M3192 5953 c-36 -24 -42 -32 -42 -63 0 -19 -7 -48 -15 -64 -20 -38
-11 -86 15 -86 22 0 33 29 24 64 -4 16 0 33 10 48 9 12 16 34 16 49 0 23 5 27
40 33 44 7 51 19 21 36 -25 13 -21 14 -69 -17z"/>
<path d="M4098 5965 c-10 -11 4 -150 18 -172 21 -33 17 -62 -8 -72 -15 -6 -24
-5 -27 2 -2 6 1 13 8 15 19 6 12 40 -9 47 -28 9 -40 -2 -40 -36 0 -25 -6 -33
-34 -44 -34 -15 -116 -98 -116 -119 0 -18 22 -36 42 -36 17 0 148 126 148 143
0 13 48 8 63 -7 8 -8 17 -45 20 -88 6 -61 4 -75 -10 -86 -13 -9 -15 -18 -7
-40 13 -37 59 -44 70 -10 10 33 4 274 -8 282 -2 1 -15 10 -30 19 -37 23 -35
50 7 88 36 33 46 73 22 82 -8 3 -20 1 -28 -4 -24 -15 -39 -10 -51 16 -11 25
-20 30 -30 20z"/>
<path d="M4274 5890 c-24 -9 -41 -57 -26 -72 16 -16 87 -21 111 -9 27 15 27
42 -2 69 -24 23 -48 26 -83 12z"/>
<path d="M4467 5872 c-38 -3 -59 -25 -41 -42 5 -5 25 -11 46 -15 31 -6 38 -4
48 15 16 31 -4 46 -53 42z"/>
<path d="M3200 5770 c0 -15 5 -20 18 -18 9 2 17 10 17 18 0 8 -8 16 -17 18
-13 2 -18 -3 -18 -18z"/>
<path d="M4332 5697 c-29 -13 -25 -37 10 -57 30 -16 52 -9 72 23 19 30 -39 55
-82 34z"/>
<path d="M3165 5668 c-9 -39 8 -123 25 -123 11 0 14 9 12 36 -2 23 2 40 12 49
9 7 16 23 16 36 0 20 -5 24 -30 24 -23 0 -31 -5 -35 -22z"/>
<path d="M4273 5563 c-9 -23 32 -53 74 -53 47 0 73 -16 73 -44 0 -33 24 -50
60 -43 23 5 36 1 56 -18 31 -29 44 -31 44 -9 0 9 -9 18 -20 21 -24 6 -25 16
-5 33 18 15 4 47 -28 60 -17 6 -26 4 -39 -11 -9 -11 -23 -17 -32 -13 -21 8
-20 16 5 48 29 37 14 51 -39 37 -27 -8 -48 -8 -67 -1 -39 15 -75 12 -82 -7z"/>
<path d="M3246 5521 c-22 -24 -12 -44 17 -35 26 8 37 22 30 41 -7 19 -27 16
-47 -6z"/>
<path d="M3995 5466 c-16 -6 -37 -15 -45 -21 -13 -9 -44 -13 -105 -15 -11 0
-39 3 -63 6 -29 4 -57 1 -87 -10 -37 -15 -50 -15 -84 -5 -34 10 -44 9 -66 -5
-47 -31 -27 -71 32 -62 31 6 44 3 64 -13 26 -20 49 -13 49 15 0 18 22 23 48
11 18 -8 31 -7 57 7 38 21 56 15 48 -14 -3 -11 0 -20 6 -20 6 0 11 7 11 15 0
21 23 19 52 -5 l25 -19 12 25 c6 14 11 31 11 39 0 8 7 15 15 15 16 0 20 -12 8
-24 -8 -8 -5 -75 4 -90 10 -15 23 19 23 61 0 37 3 43 26 49 33 8 54 -12 59
-56 5 -35 18 -50 46 -50 9 0 19 -6 22 -14 7 -18 37 -25 64 -15 19 7 20 11 10
33 -7 14 -23 30 -37 35 -43 17 -59 36 -66 80 -4 25 -14 46 -25 51 -23 13 -76
11 -114 -4z"/>
<path d="M4765 5470 c-3 -5 0 -18 7 -29 14 -23 -3 -51 -33 -51 -40 0 -29 -53
13 -65 13 -3 33 -11 45 -17 12 -6 29 -8 38 -4 16 6 16 8 0 32 -24 37 -16 68
19 72 39 5 73 -15 81 -45 5 -20 11 -24 30 -20 22 4 25 1 25 -29 0 -65 22 -80
68 -48 21 14 25 14 47 0 14 -9 25 -22 25 -29 1 -21 34 -51 84 -77 26 -14 52
-35 57 -47 5 -14 17 -23 29 -23 22 0 120 -90 139 -127 6 -12 11 -39 11 -60 0
-21 7 -51 15 -67 9 -16 15 -56 15 -95 0 -46 7 -80 21 -111 15 -32 21 -62 19
-103 -1 -55 9 -107 32 -154 7 -15 7 -31 -1 -54 -15 -44 -14 -78 4 -95 8 -9 15
-30 15 -47 0 -18 9 -47 20 -65 26 -42 25 -42 -9 -42 -18 0 -31 6 -35 18 -15
45 -75 122 -103 133 -21 8 -23 12 -12 25 7 8 25 22 41 30 23 12 28 21 28 49 0
36 -13 47 -24 20 -3 -8 -17 -20 -30 -26 -14 -7 -29 -25 -35 -40 -12 -34 -25
-36 -49 -8 -9 11 -34 29 -54 40 -36 19 -38 22 -38 70 0 34 -4 51 -15 55 -13 5
-12 8 1 22 15 14 14 17 -5 31 -15 11 -18 20 -11 31 6 10 4 20 -7 32 -13 15
-14 20 -3 33 17 21 1 35 -27 24 -27 -10 -30 -41 -8 -83 8 -15 15 -37 15 -47 0
-11 5 -28 12 -39 9 -15 9 -30 -1 -69 -12 -47 -11 -52 10 -80 13 -17 26 -31 31
-31 5 0 31 -16 58 -35 27 -19 58 -35 68 -35 10 0 25 -9 35 -20 9 -11 22 -20
29 -20 22 -1 58 -37 58 -59 0 -12 4 -21 10 -21 5 0 18 -9 29 -21 19 -21 61
-20 61 2 0 5 11 14 25 19 20 8 25 16 25 43 0 18 -5 38 -12 45 -12 12 -16 36
-21 142 -2 30 -6 62 -9 70 -16 39 -28 132 -23 163 4 20 2 37 -3 41 -6 3 -13
25 -17 49 -4 23 -16 62 -27 87 -16 34 -18 48 -9 62 6 10 11 26 11 35 0 19 -42
129 -54 140 -3 3 -6 17 -6 31 0 41 -39 108 -74 125 -34 17 -47 26 -142 105
-35 29 -64 57 -64 61 0 4 -16 15 -35 24 -19 9 -35 21 -35 27 0 5 -6 10 -14 10
-8 0 -21 6 -28 13 -7 6 -33 26 -58 42 -25 17 -64 45 -88 63 -39 29 -50 32
-112 32 -38 0 -71 -4 -75 -10z"/>
<path d="M4580 5456 c0 -19 27 -46 46 -46 10 0 13 -7 8 -25 -5 -21 -3 -25 15
-25 16 0 21 6 21 25 0 15 6 25 15 25 14 0 35 29 35 49 0 7 -27 11 -70 11 -54
0 -70 -3 -70 -14z"/>
<path d="M4227 5388 c-8 -25 5 -47 27 -45 15 1 22 -4 24 -20 7 -45 62 -38 62
8 0 24 -4 29 -24 29 -15 0 -26 7 -29 20 -6 23 -52 28 -60 8z"/>
<path d="M4550 5363 c-13 -3 -33 -11 -44 -19 -11 -8 -29 -14 -38 -14 -10 0
-42 -25 -72 -55 -31 -32 -62 -55 -74 -55 -21 0 -52 -24 -52 -41 0 -12 -37 -12
-45 1 -15 24 -47 9 -73 -34 -15 -25 -46 -57 -69 -72 -24 -15 -43 -30 -43 -34
0 -13 -123 -130 -136 -130 -8 0 -14 17 -16 42 -3 45 -22 62 -31 27 -6 -22 -27
-18 -27 7 0 8 -4 14 -10 14 -5 0 -10 5 -10 11 0 6 9 9 20 6 25 -7 25 4 -1 37
-11 14 -19 36 -17 48 2 19 9 23 37 23 29 0 35 -4 45 -35 8 -25 18 -36 35 -38
33 -5 41 8 34 52 -4 28 -12 40 -30 47 -22 8 -24 13 -18 48 6 35 4 40 -16 46
-24 8 -39 -7 -39 -42 0 -15 -7 -23 -22 -25 -17 -2 -24 -11 -26 -30 -4 -31 -26
-37 -57 -15 -21 16 -13 34 21 47 23 9 33 43 16 54 -14 8 -84 -63 -78 -79 3 -8
11 -15 17 -15 7 0 9 -12 5 -36 -10 -49 1 -88 26 -99 24 -11 34 -27 43 -69 l6
-29 15 22 16 22 24 -26 c13 -14 24 -34 24 -44 0 -11 8 -29 18 -41 23 -29 46
-18 37 17 -3 14 -1 31 6 40 11 13 15 11 30 -9 23 -29 48 -13 30 20 -9 17 -5
23 29 47 22 15 40 31 40 36 0 4 12 22 27 39 18 22 32 30 46 26 24 -6 57 10 57
27 0 25 54 67 77 61 12 -3 36 1 54 10 18 9 44 16 59 16 27 0 60 26 60 47 0 17
59 63 80 63 26 0 83 57 76 76 -5 14 -19 15 -66 7z"/>
<path d="M3796 5295 c-3 -9 1 -18 10 -22 19 -7 28 2 21 22 -8 19 -23 19 -31 0z"/>
<path d="M3330 5250 c0 -19 3 -21 12 -12 9 9 9 15 0 24 -9 9 -12 7 -12 -12z"/>
<path d="M4034 5245 c-6 -26 -18 -32 -29 -15 -3 6 -17 10 -31 10 -33 0 -29
-34 4 -38 13 -2 28 -15 34 -28 14 -29 42 -27 90 7 36 26 35 50 -3 72 -42 23
-57 22 -65 -8z"/>
<path d="M4820 5183 c0 -53 -6 -66 -33 -76 -9 -4 -22 -18 -27 -32 -11 -28 -47
-34 -56 -10 -4 9 -1 29 6 46 10 22 10 36 2 54 -16 35 -39 31 -59 -10 -14 -29
-15 -40 -4 -76 13 -43 9 -55 -23 -61 -10 -1 -24 -11 -30 -21 -16 -26 18 -51
48 -35 11 6 35 11 53 10 18 -1 35 3 38 8 3 6 20 10 36 10 47 0 71 17 59 40 -5
10 -10 25 -10 33 0 19 78 97 96 97 8 0 14 5 14 11 0 6 -6 9 -12 6 -7 -2 -29 9
-49 24 -20 16 -40 29 -43 29 -3 0 -6 -21 -6 -47z"/>
<path d="M4938 5129 c-2 -19 -11 -36 -23 -43 -26 -14 -35 -27 -35 -48 0 -27
70 -24 106 4 24 19 39 22 91 20 35 -1 74 -7 88 -12 45 -17 40 11 -11 57 -43
40 -50 43 -71 32 -17 -9 -32 -10 -60 -1 -85 25 -81 26 -85 -9z"/>
<path d="M4324 5075 c-20 -31 -12 -55 19 -55 33 0 49 22 41 54 -8 34 -38 34
-60 1z"/>
<path d="M5236 5022 c-11 -10 -6 -49 7 -59 18 -14 97 -4 104 14 9 23 -21 45
-65 48 -22 2 -43 1 -46 -3z"/>
<path d="M3691 5001 c-8 -5 -15 -27 -15 -53 -1 -35 3 -45 21 -53 19 -8 21 -15
16 -51 -5 -39 -3 -42 33 -65 20 -13 51 -33 67 -43 23 -15 45 -19 92 -18 62 3
70 -1 113 -53 17 -20 42 -19 42 1 0 8 -5 35 -11 59 -8 31 -8 49 0 64 9 17 8
22 -8 31 -26 14 -28 13 -34 -10 -3 -11 -14 -20 -25 -20 -11 0 -25 -7 -32 -15
-18 -21 -47 -19 -60 5 -6 11 -21 20 -33 20 -13 0 -32 6 -43 14 -16 13 -17 18
-6 35 18 30 15 42 -10 40 -13 -1 -36 -1 -52 -1 -31 2 -30 -4 -9 95 4 22 2 27
-13 27 -11 0 -25 -4 -33 -9z"/>
<path d="M3485 4969 c-10 -19 -14 -41 -10 -60 6 -25 11 -29 41 -29 l34 0 -4
46 c-5 44 -19 74 -37 74 -5 0 -16 -14 -24 -31z"/>
<path d="M4166 4917 c-76 -133 -78 -139 -67 -163 21 -46 57 -26 77 41 8 29 21
59 29 65 26 21 44 67 32 79 -21 21 -52 12 -71 -22z"/>
<path d="M4407 4930 c-35 -22 -67 -72 -67 -103 0 -13 -15 -38 -35 -57 -34 -33
-42 -60 -29 -94 8 -20 38 -21 54 -1 7 8 26 22 43 30 29 15 35 14 71 -2 36 -16
39 -16 51 0 21 30 49 21 62 -20 13 -42 8 -55 -38 -114 -16 -20 -29 -46 -29
-57 0 -20 24 -52 38 -52 24 1 52 45 52 82 0 13 7 32 15 42 17 22 20 82 5 91
-5 3 -10 11 -10 18 0 8 3 8 12 -1 7 -7 18 -12 25 -12 19 0 16 37 -4 49 -14 8
-16 14 -7 27 6 10 17 21 25 24 8 4 24 12 36 18 27 14 58 15 81 3 20 -11 121 6
140 23 22 21 -8 47 -61 51 -63 5 -155 -10 -177 -30 -9 -8 -27 -15 -39 -15 -14
0 -37 -15 -55 -35 -35 -38 -65 -44 -111 -23 -19 9 -31 8 -49 -2 -14 -7 -33 -9
-43 -6 -16 7 -15 10 10 30 15 12 27 27 27 34 0 13 41 36 82 46 32 7 50 52 27
67 -22 14 -72 9 -102 -11z"/>
<path d="M5286 4913 c-18 -24 -18 -27 -2 -39 22 -16 3 -29 -23 -15 -12 7 -47
7 -107 0 -49 -5 -106 -7 -126 -4 -32 6 -39 3 -53 -19 -27 -41 -12 -49 74 -41
42 4 99 7 128 6 28 -1 54 3 58 9 9 15 46 12 65 -5 15 -14 18 -14 30 0 11 13
16 11 36 -17 13 -17 24 -44 24 -59 0 -15 5 -31 10 -34 19 -11 31 45 23 104
l-8 56 -45 0 c-33 0 -44 4 -42 14 4 19 -8 71 -16 71 -4 0 -16 -12 -26 -27z"/>
<path d="M4247 4844 c-4 -4 -7 -18 -7 -31 0 -18 5 -24 18 -21 10 2 17 12 17
27 0 24 -15 37 -28 25z"/>
<path d="M3406 4718 c-15 -21 -22 -78 -10 -78 29 0 82 69 69 90 -11 18 -43 11
-59 -12z"/>
<path d="M4923 4725 c-20 -15 -1 -55 26 -55 10 0 31 -2 47 -5 23 -5 37 1 64
24 19 17 31 34 27 38 -12 12 -147 10 -164 -2z"/>
<path d="M5233 4724 c-9 -24 14 -64 37 -64 22 0 45 43 36 67 -8 19 -65 17 -73
-3z"/>
<path d="M4685 4720 c-15 -24 33 -73 86 -88 49 -13 58 -5 50 43 -7 43 -23 50
-32 13 -5 -22 -6 -22 -22 10 -14 25 -24 32 -47 32 -16 0 -32 -4 -35 -10z"/>
<path d="M5140 4710 c0 -18 46 -70 62 -70 13 0 8 54 -6 73 -18 24 -56 23 -56
-3z"/>
<path d="M4150 4655 c-12 -32 2 -65 29 -65 26 0 43 24 39 57 -2 22 -9 29 -30
31 -22 3 -30 -2 -38 -23z"/>
<path d="M4456 4665 c-9 -24 -8 -25 15 -25 14 0 19 5 17 17 -4 23 -24 27 -32
8z"/>
<path d="M4844 4669 c-8 -14 11 -33 25 -25 11 7 4 36 -9 36 -5 0 -12 -5 -16
-11z"/>
<path d="M5382 4658 c-19 -19 -14 -38 11 -47 30 -12 40 1 26 32 -14 30 -20 32
-37 15z"/>
<path d="M4900 4620 c-6 -12 -10 -24 -7 -26 9 -9 58 17 54 29 -7 21 -35 19
-47 -3z"/>
<path d="M5092 4628 c-17 -17 -16 -169 2 -193 7 -10 11 -26 9 -36 -3 -10 3
-22 15 -28 18 -10 21 -7 27 19 4 16 3 34 0 40 -9 14 -15 50 -22 130 -6 71 -13
86 -31 68z"/>
<path d="M4646 4622 c-9 -14 8 -29 41 -36 45 -10 51 10 7 29 -43 18 -41 17
-48 7z"/>
<path d="M4070 4590 c0 -16 5 -21 23 -18 12 2 22 10 22 18 0 8 -10 16 -22 18
-18 3 -23 -2 -23 -18z"/>
<path d="M5007 4597 c-3 -9 -13 -17 -21 -17 -21 0 -30 -43 -16 -70 6 -12 14
-60 17 -108 5 -82 3 -89 -21 -121 -34 -46 -33 -61 4 -61 23 0 33 7 47 33 22
42 29 184 9 206 -7 9 -14 36 -15 59 0 24 -3 48 -6 52 -3 5 0 10 6 12 7 2 10
10 7 18 -3 11 -6 10 -11 -3z"/>
<path d="M3928 4577 c-7 -7 -25 -18 -40 -24 -15 -7 -32 -21 -38 -32 -9 -17 -6
-24 20 -42 16 -13 30 -31 30 -41 0 -20 28 -38 48 -31 7 3 23 -4 35 -15 26 -23
128 -55 151 -46 22 8 20 21 -8 49 -31 31 -93 47 -134 36 -28 -8 -34 -7 -51 17
-21 31 -14 63 21 91 13 11 19 24 15 34 -8 20 -30 22 -49 4z"/>
<path d="M5427 4583 c-12 -11 -8 -35 14 -80 11 -24 25 -41 30 -37 13 8 11 98
-3 112 -13 13 -31 16 -41 5z"/>
<path d="M3706 4558 c-8 -13 -16 -32 -18 -43 -3 -17 3 -20 42 -23 37 -2 47 1
58 18 10 17 10 24 -5 45 -23 31 -58 32 -77 3z"/>
<path d="M4765 4549 c-5 -14 -2 -25 6 -30 24 -15 44 -5 44 21 0 34 -40 41 -50
9z"/>
<path d="M4700 4530 c-8 -15 -17 -19 -34 -14 -20 5 -24 1 -28 -23 -5 -39 1
-63 17 -63 17 0 75 72 75 93 0 25 -18 29 -30 7z"/>
<path d="M4378 4523 c-37 -44 -32 -73 13 -73 36 0 68 43 52 69 -14 23 -46 25
-65 4z"/>
<path d="M4035 4519 c-4 -5 -4 -21 -1 -35 5 -18 13 -24 34 -24 43 0 54 12 43
43 -8 21 -17 27 -40 27 -16 0 -33 -5 -36 -11z"/>
<path d="M5311 4479 c-6 -18 -11 -43 -11 -56 0 -23 2 -24 40 -18 32 5 41 3 46
-9 8 -21 21 -20 34 3 14 27 -4 71 -29 71 -11 0 -25 9 -31 20 -16 29 -36 24
-49 -11z"/>
<path d="M4801 4466 c-18 -21 -10 -70 12 -74 21 -4 83 56 71 68 -19 19 -70 22
-83 6z"/>
<path d="M2503 4455 c-85 -37 -112 -51 -160 -83 -29 -20 -53 -40 -53 -46 0 -6
-14 -29 -30 -50 -34 -44 -39 -81 -12 -91 12 -5 27 5 55 37 21 24 43 54 50 68
11 21 19 25 55 23 38 -2 42 1 42 21 0 33 19 45 89 57 51 9 62 15 67 35 3 12 3
28 -1 33 -9 15 -64 13 -102 -4z"/>
<path d="M4174 4404 c-16 -24 -16 -26 5 -47 23 -23 44 -18 65 17 9 14 6 21
-13 37 -30 25 -37 24 -57 -7z"/>
<path d="M4693 4379 c-11 -72 -32 -83 -76 -41 -18 17 -42 32 -53 32 -27 0 -54
-30 -54 -59 0 -32 25 -36 61 -10 28 20 33 20 43 7 6 -8 21 -18 33 -22 28 -9
35 -43 22 -108 -16 -83 -41 -138 -62 -138 -10 0 -20 -7 -24 -16 -9 -24 10 -49
38 -49 20 0 24 5 22 27 -1 21 4 29 27 36 25 9 29 17 35 59 3 26 10 57 15 68
11 25 22 210 14 241 -11 42 -32 27 -41 -27z"/>
<path d="M3782 4413 c-17 -7 -44 -61 -37 -74 4 -5 1 -16 -5 -24 -16 -20 4 -45
34 -45 12 0 26 -4 31 -9 14 -13 65 -16 94 -7 19 7 28 3 42 -15 14 -19 21 -21
30 -12 19 19 3 43 -30 43 -23 0 -30 5 -33 25 -4 17 1 29 15 38 27 18 14 37
-27 37 -22 0 -40 8 -56 25 -23 25 -33 28 -58 18z m39 -96 c-13 -13 -26 -3 -16
12 3 6 11 8 17 5 6 -4 6 -10 -1 -17z"/>
<path d="M4813 4364 c-7 -18 4 -31 32 -36 12 -2 21 -13 23 -26 3 -17 10 -22
32 -22 57 0 49 37 -15 75 -51 29 -63 31 -72 9z"/>
<path d="M4037 4343 c-19 -18 0 -59 48 -105 119 -115 136 -127 166 -121 25 5
29 3 29 -18 0 -32 9 -43 45 -60 17 -8 34 -24 40 -37 6 -14 19 -22 35 -22 14 0
30 -4 36 -8 17 -10 54 -84 54 -105 0 -15 5 -17 29 -12 21 4 30 2 34 -9 8 -21
67 -22 67 -1 0 10 -10 15 -28 15 -49 0 -77 37 -73 96 1 11 -15 38 -36 62 -35
38 -39 40 -58 26 -11 -9 -28 -20 -39 -26 -17 -9 -18 -7 -12 15 6 27 -25 77
-50 77 -8 0 -14 9 -14 20 0 19 -32 60 -48 60 -11 0 -85 40 -102 56 -8 7 -32
28 -52 45 -21 17 -38 37 -38 45 0 14 -22 19 -33 7z"/>
<path d="M2650 4333 c-50 -19 -71 -83 -27 -83 13 0 28 -5 34 -11 8 -8 21 -8
48 1 40 13 85 6 85 -13 0 -6 -11 -30 -25 -52 -30 -49 -32 -81 -5 -95 12 -6 20
-21 20 -35 0 -18 5 -25 20 -25 19 0 40 -33 40 -61 0 -17 -27 -9 -51 17 -22 23
-24 24 -36 8 -20 -27 -15 -55 14 -86 23 -24 24 -28 9 -34 -10 -4 -22 -2 -29 5
-17 17 -47 13 -47 -6 0 -10 20 -30 45 -47 31 -19 43 -32 36 -40 -15 -19 -6
-91 13 -94 17 -4 23 -32 6 -32 -24 0 -32 -42 -19 -106 7 -35 15 -64 18 -64 3
0 14 7 25 15 15 11 17 22 12 62 -3 26 -6 62 -6 80 0 17 -4 35 -10 38 -8 5 -6
13 6 26 18 20 38 119 26 129 -42 31 -50 87 -11 75 13 -4 19 -1 19 9 0 8 8 28
17 44 14 25 15 33 3 61 -10 26 -17 31 -35 27 -31 -8 -51 37 -35 78 5 15 10 37
10 48 0 12 8 30 17 40 15 17 15 21 -1 55 -17 35 -18 36 -66 30 -42 -5 -52 -3
-75 19 -14 13 -27 24 -28 23 -1 0 -9 -3 -17 -6z"/>
<path d="M3647 4310 c-10 -40 42 -60 65 -26 12 17 10 22 -17 34 -35 16 -42 15
-48 -8z"/>
<path d="M2508 4279 c-16 -9 -17 -13 -3 -38 19 -37 46 -47 62 -25 36 49 -7 94
-59 63z"/>
<path d="M3237 4273 c-4 -3 -7 -15 -7 -26 0 -27 -28 -46 -67 -47 -46 0 -63 -9
-63 -35 0 -12 -7 -28 -15 -35 -8 -7 -15 -27 -15 -44 0 -17 -7 -40 -15 -50 -8
-11 -15 -31 -15 -44 0 -15 -7 -26 -20 -29 -11 -3 -21 -8 -21 -12 -7 -29 -6
-79 2 -93 8 -15 0 -31 -37 -79 -40 -52 -47 -68 -46 -103 1 -22 -3 -56 -9 -74
-9 -28 -8 -37 4 -49 20 -20 34 -10 42 30 4 17 11 37 15 42 4 6 11 26 15 45 4
19 14 48 23 65 8 16 15 42 14 58 0 16 9 38 24 54 14 15 24 38 24 54 0 16 9 38
20 49 11 11 20 27 20 35 0 8 4 24 9 37 5 13 12 34 15 48 4 17 21 34 54 52 63
35 79 53 63 72 -10 11 -9 21 3 44 14 27 13 42 -4 42 -4 0 -10 -3 -13 -7z"/>
<path d="M5071 4258 c-12 -33 2 -73 25 -73 16 0 19 8 20 48 2 40 -1 47 -17 47
-11 0 -23 -10 -28 -22z"/>
<path d="M2442 4259 c-13 -5 -40 -21 -60 -36 -20 -15 -39 -28 -41 -30 -2 -1
-6 -17 -10 -35 -6 -29 -10 -33 -35 -30 -16 2 -39 -2 -52 -9 -16 -8 -27 -9 -36
-2 -7 6 -28 14 -46 18 -27 6 -38 2 -66 -23 -20 -17 -52 -33 -75 -37 -35 -6
-56 -20 -96 -65 -5 -6 -18 -17 -28 -24 -13 -8 -19 -24 -19 -52 0 -59 -22 -103
-61 -119 -18 -8 -39 -20 -45 -28 -20 -24 -25 -75 -11 -108 12 -30 11 -33 -14
-53 -17 -14 -27 -31 -27 -49 0 -15 -6 -37 -12 -48 -12 -18 -9 -24 20 -48 26
-22 32 -35 32 -65 0 -33 3 -37 22 -34 34 5 39 52 12 114 l-22 51 25 49 c14 28
25 69 26 97 2 42 8 53 54 101 44 45 53 61 62 111 6 32 11 60 11 61 0 2 19 4
42 6 34 2 43 7 48 25 3 13 22 32 45 44 36 19 68 25 171 32 17 1 39 10 48 20
21 21 46 22 46 3 0 -24 55 -56 95 -56 32 0 36 3 33 23 -2 17 -9 21 -30 19 -15
-1 -39 5 -52 13 l-25 16 25 36 c13 20 38 45 54 55 17 10 30 25 30 33 0 8 0 18
1 22 1 12 -14 12 -39 2z"/>
<path d="M3305 4256 c-18 -13 -18 -15 -1 -40 25 -38 70 -33 74 8 5 43 -34 61
-73 32z"/>
<path d="M4822 4248 c-7 -7 -12 -26 -12 -43 0 -37 16 -55 47 -55 19 0 23 5 23
33 0 69 -25 98 -58 65z"/>
<path d="M4447 4212 c-39 -43 -2 -82 58 -62 37 12 53 43 35 65 -17 21 -74 19
-93 -3z"/>
<path d="M2880 4201 c0 -16 6 -20 22 -18 18 1 24 -4 26 -23 5 -35 16 -44 41
-31 44 24 11 74 -59 88 -26 5 -30 3 -30 -16z"/>
<path d="M5195 4212 c-5 -4 -10 -20 -10 -37 0 -24 -5 -31 -24 -33 -13 -2 -28
1 -34 7 -17 17 -37 13 -37 -6 1 -10 11 -31 24 -47 28 -34 51 -30 66 10 7 18
15 24 26 20 23 -9 44 12 44 43 0 40 -29 63 -55 43z"/>
<path d="M4977 4163 c-3 -5 -3 -28 0 -52 5 -37 8 -42 27 -37 12 3 24 6 27 6 3
0 5 19 5 43 -1 38 -4 42 -28 45 -14 2 -28 -1 -31 -5z"/>
<path d="M4764 4145 c-10 -25 4 -45 31 -45 30 0 33 20 7 43 -23 21 -31 21 -38
2z"/>
<path d="M5295 4133 c-5 -20 -2 -31 12 -41 13 -10 14 -16 6 -19 -16 -6 -17
-65 -1 -81 17 -17 48 -15 55 4 3 9 -3 23 -16 35 -26 24 -26 31 -1 47 26 16 25
34 -3 60 -31 29 -43 28 -52 -5z"/>
<path d="M2571 4131 c-8 -5 -11 -16 -7 -29 5 -16 2 -21 -16 -24 -51 -7 -55
-90 -4 -96 31 -4 49 29 35 65 -6 18 -4 25 11 33 23 12 25 20 8 43 -9 11 -18
14 -27 8z"/>
<path d="M2855 4098 c8 -39 19 -53 34 -44 17 11 13 41 -7 59 -27 25 -34 21
-27 -15z"/>
<path d="M4852 4105 c-10 -21 -9 -27 3 -31 8 -4 21 -4 28 -1 20 8 44 -15 51
-50 5 -19 15 -35 27 -38 16 -5 19 -12 13 -40 -4 -22 0 -45 10 -66 16 -32 16
-33 -11 -56 -16 -12 -31 -22 -36 -23 -4 0 -6 -15 -5 -32 3 -29 -1 -35 -37 -53
-32 -16 -36 -20 -20 -23 11 -3 32 -13 47 -24 18 -12 36 -17 48 -13 21 7 50 -9
50 -27 0 -5 -17 -8 -37 -6 -35 3 -38 1 -41 -24 -3 -24 0 -28 20 -28 24 0 48
-16 48 -33 0 -4 -16 -15 -35 -23 -38 -16 -43 -25 -20 -44 8 -7 15 -23 15 -35
0 -30 33 -71 49 -60 8 4 11 18 8 33 -3 14 -1 37 5 51 15 41 19 61 24 145 4 64
2 81 -12 97 -10 12 -18 41 -21 84 -3 56 -1 66 14 72 23 8 53 33 53 45 0 5 -11
14 -25 20 -14 6 -25 19 -25 29 0 10 -8 23 -19 28 -10 6 -21 24 -24 41 -4 19
-16 34 -32 42 -14 6 -25 17 -25 23 0 18 -34 45 -57 45 -11 0 -25 -10 -31 -25z"/>
<path d="M4076 4103 c-3 -4 -6 -19 -6 -35 0 -25 4 -28 31 -28 27 0 30 3 27 26
-3 26 -38 50 -52 37z"/>
<path d="M5423 4053 c-15 -6 -17 -39 -3 -48 17 -11 50 5 50 25 0 14 -23 34
-33 29 -1 0 -8 -3 -14 -6z"/>
<path d="M2285 4043 c-31 -6 -76 -46 -67 -60 9 -14 100 5 126 26 17 14 17 16
0 28 -18 13 -22 14 -59 6z"/>
<path d="M5080 4035 c-9 -11 -10 -19 -3 -26 17 -17 48 -6 48 16 0 25 -28 31
-45 10z"/>
<path d="M5207 4033 c-4 -3 -7 -15 -7 -25 0 -11 -7 -18 -20 -18 -15 0 -20 -7
-20 -27 0 -16 -3 -39 -7 -52 -6 -23 -4 -24 34 -19 22 3 48 1 57 -4 27 -15 88
-1 84 20 -2 9 -12 18 -24 20 -26 4 -56 53 -44 72 17 27 11 40 -18 40 -16 0
-32 -3 -35 -7z"/>
<path d="M5623 4013 c3 -18 0 -31 -11 -39 -10 -7 -13 -16 -9 -21 5 -4 14 0 21
10 25 33 52 21 82 -39 33 -65 47 -74 75 -48 15 14 24 16 37 8 28 -18 25 -41
-8 -83 -18 -22 -35 -54 -39 -72 -5 -26 -13 -35 -38 -41 -37 -10 -50 -25 -34
-41 16 -16 14 -62 -4 -77 -23 -19 -19 -42 8 -38 16 2 21 9 19 24 -2 15 4 23
18 27 13 3 20 13 20 29 0 17 13 35 40 57 32 26 40 38 40 65 0 51 48 84 78 54
19 -19 15 -82 -8 -103 -13 -12 -18 -25 -14 -41 5 -19 1 -26 -19 -33 -14 -5
-28 -14 -31 -20 -8 -13 4 -91 15 -91 4 0 21 11 37 25 17 14 42 25 56 25 25 0
26 -1 22 -55 -4 -61 -5 -63 -38 -79 -13 -6 -24 -21 -26 -33 -3 -17 4 -22 35
-30 44 -10 54 -34 24 -60 -12 -9 -21 -23 -21 -30 0 -15 -10 -16 -44 -4 -19 8
-30 6 -49 -10 -14 -10 -30 -19 -36 -19 -15 0 -14 27 2 33 6 2 18 20 25 40 12
33 11 37 -12 62 -26 28 -26 45 -1 45 17 0 38 36 30 50 -8 13 -55 13 -55 0 0
-16 -40 -51 -50 -45 -6 4 -10 17 -10 30 0 52 -38 39 -67 -22 -14 -30 -14 -36
-2 -44 8 -5 26 -7 40 -4 17 4 30 0 39 -10 7 -8 21 -15 31 -15 29 0 23 -26 -17
-78 -29 -38 -40 -46 -62 -44 -21 2 -31 -4 -45 -28 -12 -20 -26 -30 -43 -30
-13 0 -24 -4 -24 -9 0 -5 -3 -16 -6 -25 -12 -31 25 -29 53 3 22 25 35 31 67
31 27 0 47 7 63 21 l22 22 10 -27 c13 -31 20 -32 54 -6 14 11 34 20 45 20 12
0 23 8 26 18 7 19 91 62 123 62 26 0 83 -63 83 -91 0 -44 -36 -127 -80 -184
-25 -34 -52 -75 -59 -93 -15 -35 -32 -40 -51 -16 -10 11 -23 14 -51 9 -31 -5
-39 -3 -49 14 -13 26 -35 27 -57 2 -58 -62 -65 -72 -59 -87 5 -12 13 -14 38
-8 18 4 49 8 68 9 19 1 47 5 63 10 24 6 27 5 27 -18 0 -13 -9 -36 -20 -50 -11
-14 -20 -29 -20 -34 0 -4 -11 -20 -24 -34 -13 -14 -28 -34 -34 -46 -6 -11 -24
-23 -40 -26 -22 -4 -32 -15 -44 -44 -12 -32 -22 -41 -55 -51 -54 -16 -76 -15
-118 5 -26 12 -41 14 -53 7 -11 -6 -76 -8 -172 -4 -85 3 -184 2 -220 -2 -148
-18 -149 -18 -152 -41 -3 -20 -8 -22 -48 -19 -64 5 -77 10 -83 33 -4 16 -12
20 -39 17 -28 -3 -33 -7 -30 -27 2 -20 -1 -22 -20 -16 -13 4 -35 8 -50 8 -18
0 -30 6 -33 18 -5 15 -16 19 -48 19 -23 0 -58 3 -77 5 -47 8 -69 -7 -52 -35 6
-11 12 -22 12 -25 0 -12 -49 -3 -85 15 -47 24 -61 25 -99 5 -15 -8 -44 -15
-63 -15 -30 0 -34 3 -28 20 9 27 -35 48 -69 32 -17 -7 -27 -7 -35 1 -8 8 -16
6 -30 -7 -12 -11 -21 -14 -26 -7 -8 13 -95 15 -95 2 0 -19 -41 -23 -66 -6 -28
18 -94 11 -94 -10 0 -7 -6 -18 -14 -24 -12 -10 -28 -6 -77 19 -70 34 -110 33
-140 -4 l-17 -21 -11 28 c-10 26 -13 27 -81 27 -39 0 -80 -5 -91 -11 -15 -7
-24 -7 -34 1 -17 14 -136 10 -155 -6 -9 -7 -62 -14 -134 -17 -105 -4 -124 -2
-150 14 -17 11 -48 19 -68 19 -37 0 -38 -1 -38 -34 0 -42 8 -48 47 -37 23 7
35 5 45 -6 12 -11 50 -14 182 -15 157 -1 168 0 190 21 28 26 42 27 56 1 14
-27 47 -26 56 2 6 20 7 21 19 4 16 -21 87 -31 116 -16 16 9 28 8 55 -5 28 -13
55 -15 142 -11 59 3 249 6 422 6 173 0 346 5 385 10 47 6 74 5 82 -2 7 -6 20
-8 28 -4 8 3 26 1 39 -5 17 -8 41 -8 80 -2 44 8 62 7 84 -4 22 -12 38 -12 81
-4 30 6 84 11 120 12 77 1 115 10 117 27 3 26 6 26 13 2 7 -26 31 -36 58 -26
14 6 14 8 -2 26 -17 19 -15 19 106 16 106 -2 124 -5 127 -19 2 -11 -8 -21 -31
-31 -19 -7 -38 -19 -41 -25 -4 -6 -17 -11 -29 -11 -13 0 -33 -7 -46 -16 -18
-13 -22 -23 -17 -45 5 -28 -7 -48 -19 -29 -12 19 -26 10 -41 -27 -8 -21 -19
-46 -24 -55 -5 -9 -7 -31 -4 -48 l7 -30 -62 0 c-40 0 -70 6 -86 16 -21 14 -28
14 -41 3 -12 -10 -58 -14 -168 -16 -266 -4 -413 -10 -425 -17 -19 -12 -12 -26
13 -26 13 0 39 -6 57 -13 21 -8 59 -12 99 -9 70 5 143 5 230 0 30 -1 91 -2
135 0 44 1 91 1 105 0 14 0 43 0 65 1 22 0 58 -2 79 -5 33 -6 42 -3 57 17 10
13 19 33 19 44 0 11 7 33 15 49 8 15 15 41 15 57 0 22 6 32 25 39 15 6 25 17
25 29 0 12 9 21 24 25 14 3 37 16 53 29 15 13 43 29 61 36 36 15 37 18 17 45
-21 28 -19 36 13 36 17 0 42 -13 66 -35 60 -53 75 -55 111 -9 16 21 53 62 80
89 28 28 59 62 70 76 11 14 30 31 43 38 12 6 22 17 22 22 0 6 13 30 28 53 16
23 32 54 36 69 3 14 22 42 42 61 41 40 74 96 74 126 0 11 7 23 15 26 8 4 15
17 15 29 0 14 7 26 18 29 21 7 56 90 49 114 -29 90 -52 116 -151 167 -47 24
-52 35 -31 74 12 23 14 45 9 84 -10 76 -18 87 -64 87 -45 0 -49 8 -19 36 69
61 52 224 -23 224 -11 0 -27 13 -36 30 -19 34 -42 44 -93 41 -35 -2 -37 0 -44
36 -10 57 -30 73 -88 73 -48 0 -49 -1 -44 -27z m-1973 -1514 c0 -5 -7 -9 -15
-9 -15 0 -20 12 -9 23 8 8 24 -1 24 -14z"/>
<path d="M3918 4018 c-21 -6 -38 -16 -38 -23 0 -25 32 -38 104 -43 72 -4 74
-5 83 -35 7 -26 15 -33 48 -39 22 -5 54 -13 72 -19 39 -12 62 -2 93 41 18 26
20 33 9 46 -10 13 -10 20 0 36 7 11 10 22 7 25 -9 9 -26 -8 -45 -46 -34 -65
-42 -67 -106 -27 -30 20 -64 36 -75 36 -10 0 -21 8 -25 18 -4 15 -69 46 -86
41 -2 -1 -21 -6 -41 -11z"/>
<path d="M3707 4013 c-4 -3 -7 -17 -7 -29 0 -29 31 -50 88 -59 36 -6 48 -14
64 -40 19 -34 41 -38 52 -9 3 8 12 14 21 14 35 0 9 22 -89 74 -105 57 -117 61
-129 49z"/>
<path d="M3500 3990 c0 -12 10 -25 25 -32 14 -6 39 -33 55 -60 30 -49 35 -51
81 -48 22 1 29 -5 38 -31 16 -46 14 -53 -19 -72 -16 -10 -30 -23 -30 -28 0 -5
-20 -44 -45 -87 -25 -42 -45 -88 -45 -102 0 -15 -7 -35 -15 -46 -8 -10 -15
-26 -15 -35 0 -28 -110 -232 -143 -267 -29 -30 -198 -122 -224 -122 -19 0 -23
-29 -7 -45 18 -17 32 -15 109 17 115 47 167 83 195 136 25 45 40 70 63 101 9
13 17 34 17 46 0 12 7 28 15 35 8 7 15 18 15 25 0 7 7 18 15 25 8 7 15 23 15
36 0 23 10 49 56 152 13 29 24 59 24 67 0 25 52 129 74 147 42 35 63 15 25
-23 -22 -22 -21 -44 2 -44 8 0 15 10 17 23 2 12 14 30 28 38 29 19 31 34 5 34
-10 0 -24 7 -31 15 -7 8 -26 15 -42 15 -20 0 -46 14 -81 43 -63 52 -102 77
-121 77 -7 0 -16 7 -20 15 -8 22 -36 18 -36 -5z"/>
<path d="M5540 3994 c0 -17 22 -14 28 4 2 7 -3 12 -12 12 -9 0 -16 -7 -16 -16z"/>
<path d="M2066 3973 c5 -23 -1 -35 -31 -66 -39 -40 -43 -72 -10 -72 11 0 33
-9 48 -19 23 -16 33 -17 48 -8 15 10 20 8 29 -8 6 -11 17 -20 26 -20 12 0 13
3 2 21 -7 12 -18 30 -24 41 -6 10 -21 28 -33 39 l-21 20 22 30 c19 25 20 31 7
43 -7 8 -26 18 -41 21 -26 7 -28 6 -22 -22z"/>
<path d="M4686 3974 c-9 -8 -16 -26 -16 -38 0 -13 -7 -29 -15 -36 -16 -14 -20
-40 -6 -40 5 0 14 7 21 15 17 20 30 19 55 -5 19 -18 23 -18 43 -4 17 12 22 25
22 59 0 42 -1 44 -37 54 -49 14 -49 14 -67 -5z"/>
<path d="M3368 3969 c-27 -15 -22 -44 12 -72 l29 -25 -24 -16 c-13 -9 -35 -16
-49 -16 -49 0 -75 -17 -82 -55 -9 -48 5 -61 48 -49 25 7 38 19 52 52 11 23 26
42 35 42 8 0 25 10 38 21 18 18 25 20 38 9 17 -14 21 -60 5 -60 -10 0 -50 -58
-50 -73 0 -5 10 -7 22 -5 15 2 24 13 30 36 10 36 33 51 51 33 8 -8 5 -19 -11
-41 -12 -16 -22 -34 -22 -39 0 -6 -11 -16 -25 -23 -13 -7 -36 -29 -50 -48 -22
-30 -23 -36 -11 -49 13 -12 12 -18 -5 -43 -20 -27 -20 -58 -1 -58 19 0 54 50
49 70 -3 11 -1 23 5 26 5 3 7 17 4 29 -4 17 -1 25 13 30 10 3 40 32 66 65 27
33 54 60 62 60 7 0 13 4 13 8 0 12 -68 70 -90 77 -11 4 -20 12 -21 18 0 7 -15
32 -33 57 -34 47 -65 59 -98 39z"/>
<path d="M2419 3954 c-11 -13 -10 -19 0 -37 12 -18 11 -23 -11 -41 -28 -23
-27 -46 1 -46 10 0 26 -9 36 -20 14 -16 21 -17 38 -8 16 8 23 7 36 -10 9 -12
28 -25 42 -31 23 -8 28 -18 34 -61 4 -29 13 -54 21 -57 11 -4 11 -8 -1 -26
-23 -33 -19 -47 13 -41 20 4 33 0 45 -14 18 -20 18 -20 -5 -27 -29 -9 -58 -34
-58 -50 0 -16 35 -26 48 -13 6 6 17 6 29 -1 26 -13 63 -3 63 19 0 9 -9 25 -20
35 -11 10 -18 25 -15 34 2 9 -6 36 -19 61 -14 25 -34 64 -46 88 -11 24 -27 46
-35 49 -8 3 -15 12 -15 20 0 15 -83 133 -121 171 -26 26 -42 28 -60 6z"/>
<path d="M5424 3937 c-28 -24 -26 -47 3 -47 12 0 14 -7 9 -30 -3 -19 1 -43 10
-64 16 -32 18 -33 43 -20 21 11 25 19 23 46 -4 36 -27 68 -49 68 -19 0 -16 20
5 26 34 11 65 25 61 28 -2 2 -20 6 -41 10 -30 5 -41 2 -64 -17z"/>
<path d="M2210 3920 c-12 -8 -12 -11 2 -27 8 -10 19 -28 23 -41 3 -12 24 -31
46 -42 33 -17 38 -24 33 -44 -4 -17 0 -27 12 -34 9 -5 22 -25 28 -43 10 -31
15 -34 54 -37 37 -3 42 -1 42 18 0 28 -40 80 -62 80 -11 0 -17 6 -15 18 2 20
-119 162 -137 162 -6 0 -18 -4 -26 -10z"/>
<path d="M5591 3870 c1 -41 6 -60 14 -60 11 0 55 -69 55 -85 0 -3 -9 -5 -19
-5 -26 0 -51 -26 -58 -62 -3 -16 -14 -33 -24 -39 -27 -14 -24 -24 16 -49 54
-33 74 -7 34 44 l-20 26 20 0 c12 0 21 -4 21 -10 0 -5 5 -10 10 -10 14 0 12
27 -2 34 -10 3 -8 9 5 19 9 8 17 21 17 29 0 8 3 18 7 22 16 16 43 101 33 104
-14 5 -35 26 -66 68 -15 19 -30 34 -35 34 -5 0 -8 -27 -8 -60z"/>
<path d="M4346 3912 c-3 -6 -1 -14 5 -17 15 -10 25 3 12 16 -7 7 -13 7 -17 1z"/>
<path d="M4848 3895 c-11 -25 -10 -29 11 -47 13 -10 29 -17 35 -15 21 7 17 43
-8 66 l-25 24 -13 -28z"/>
<path d="M3973 3868 c-50 -24 -60 -58 -18 -58 14 0 25 5 25 10 0 6 11 10 25
10 17 0 25 -5 25 -18 0 -10 5 -23 11 -29 15 -15 49 -4 49 16 0 9 3 25 6 36 4
16 -3 24 -31 38 -43 21 -40 21 -92 -5z"/>
<path d="M4347 3853 c-4 -3 -7 -15 -7 -26 0 -16 5 -19 30 -14 16 4 32 2 35 -3
8 -13 52 -13 60 0 3 5 -6 12 -20 16 -14 3 -25 12 -25 20 0 14 -60 20 -73 7z"/>
<path d="M2610 3825 c0 -10 10 -15 26 -15 22 0 25 2 14 15 -7 8 -19 15 -26 15
-8 0 -14 -7 -14 -15z"/>
<path d="M4215 3801 c-9 -16 3 -31 26 -31 14 0 19 6 17 17 -4 20 -33 29 -43
14z"/>
<path d="M4762 3798 c-5 -7 -10 -57 -11 -112 0 -100 -5 -122 -21 -96 -15 24
-23 3 -13 -37 6 -28 14 -39 31 -41 18 -3 22 1 22 23 0 18 7 28 24 35 35 13 40
28 19 58 -13 20 -18 46 -18 101 0 73 -10 96 -33 69z"/>
<path d="M5166 3788 c-14 -13 -27 -34 -28 -48 -3 -22 1 -25 32 -26 19 -1 53
-7 75 -13 36 -9 42 -8 57 12 24 30 19 61 -10 65 -17 3 -25 -2 -29 -17 -3 -11
-10 -18 -15 -15 -5 3 -7 13 -4 21 8 20 -11 43 -35 43 -10 0 -29 -10 -43 -22z"/>
<path d="M4667 3778 c-13 -21 -18 -22 -45 -12 -53 20 -60 -13 -8 -41 l34 -18
41 32 c45 36 49 46 25 55 -25 10 -31 7 -47 -16z"/>
<path d="M3870 3771 c-5 -11 -7 -26 -4 -35 3 -8 -11 -49 -31 -91 -41 -86 -43
-120 -6 -120 21 0 27 9 48 75 13 41 33 95 44 118 15 34 17 47 8 58 -16 20 -47
17 -59 -5z"/>
<path d="M4450 3770 c-12 -7 -12 -12 0 -34 7 -14 21 -26 30 -26 18 0 44 46 35
61 -8 12 -46 11 -65 -1z"/>
<path d="M1928 3747 c-34 -28 -47 -67 -22 -67 10 0 25 6 33 14 14 12 24 11 79
-11 35 -14 65 -23 68 -20 10 9 -16 47 -32 47 -8 0 -17 7 -21 15 -4 12 -63 46
-77 45 0 0 -13 -10 -28 -23z"/>
<path d="M2686 3761 c-10 -15 18 -71 36 -71 26 0 30 15 11 49 -18 30 -37 39
-47 22z"/>
<path d="M4163 3753 c-3 -10 -8 -21 -9 -24 -2 -4 5 -18 17 -33 l20 -25 -21
-29 c-27 -37 -24 -87 5 -87 12 0 25 11 33 28 12 26 42 38 42 17 0 -5 7 -10 15
-10 29 0 12 48 -22 61 -13 5 -28 20 -33 33 -5 13 -13 27 -18 30 -6 3 -8 15 -5
25 6 25 -15 38 -24 14z"/>
<path d="M2217 3744 c-11 -11 -8 -44 3 -44 15 0 24 30 13 41 -5 5 -12 6 -16 3z"/>
<path d="M3346 3711 c-20 -22 -11 -51 15 -51 14 0 19 7 19 29 0 38 -13 46 -34
22z"/>
<path d="M4320 3710 c0 -23 26 -38 41 -23 14 14 0 43 -22 43 -12 0 -19 -7 -19
-20z"/>
<path d="M5330 3706 c0 -31 8 -36 39 -25 23 9 23 10 6 29 -25 27 -45 25 -45
-4z"/>
<path d="M5452 3718 c-16 -16 -15 -33 2 -51 8 -8 19 -29 23 -47 13 -49 27 -47
41 5 13 51 6 77 -28 95 -23 13 -23 13 -38 -2z"/>
<path d="M2170 3675 c-16 -19 -25 -170 -11 -179 36 -23 64 48 53 133 -7 58
-21 72 -42 46z"/>
<path d="M4477 3673 c-13 -12 -7 -23 13 -23 11 0 20 -3 20 -7 0 -5 4 -15 10
-23 7 -12 12 -11 30 5 21 19 21 19 51 -13 33 -35 50 -40 68 -18 21 25 -4 56
-43 56 -19 0 -39 7 -46 15 -13 15 -90 21 -103 8z"/>
<path d="M5145 3670 c-11 -17 5 -51 23 -48 23 4 23 52 0 56 -9 2 -19 -2 -23
-8z"/>
<path d="M1875 3634 c-30 -45 -34 -219 -7 -299 11 -33 25 -61 31 -63 6 -2 11
-12 11 -22 0 -31 11 -50 30 -50 28 0 32 15 10 35 -11 10 -20 24 -20 32 0 28
31 25 70 -6 42 -34 71 -39 90 -16 17 20 5 45 -21 45 -11 0 -29 10 -38 22 -15
18 -22 20 -48 10 -27 -9 -34 -7 -52 12 -14 15 -21 35 -21 63 0 22 -7 54 -15
69 -19 36 -19 74 -1 74 8 0 24 9 37 20 24 20 24 20 4 35 -10 8 -24 27 -30 42
l-11 26 -19 -29z"/>
<path d="M2288 3653 c-34 -9 -14 -63 23 -63 22 0 29 19 18 48 -8 22 -11 23
-41 15z"/>
<path d="M4367 3643 c-12 -12 -7 -22 19 -39 34 -23 56 -4 29 26 -18 20 -36 25
-48 13z"/>
<path d="M5239 3628 c-18 -40 2 -70 52 -82 38 -10 45 -15 49 -41 3 -18 14 -34
28 -40 17 -8 22 -18 22 -47 0 -27 4 -38 15 -38 8 0 15 6 15 13 0 7 -7 39 -15
70 -8 32 -15 68 -15 80 0 30 -18 47 -50 47 -14 0 -30 8 -37 20 -7 10 -22 24
-33 30 -17 9 -22 7 -31 -12z"/>
<path d="M2454 3595 c7 -42 6 -46 -20 -55 -15 -6 -27 -9 -28 -8 -1 2 -6 17
-12 33 -13 40 -25 38 -48 -8 -20 -41 -14 -58 20 -57 10 0 40 0 66 0 33 -1 49
4 56 16 7 12 11 13 17 5 8 -14 -22 -51 -42 -51 -7 0 -13 -9 -13 -21 0 -19 4
-20 39 -14 34 6 41 3 64 -24 14 -17 30 -31 36 -31 16 0 13 27 -3 33 -7 3 -17
26 -20 50 -4 25 -13 50 -21 57 -7 6 -16 29 -20 51 -7 39 -34 69 -63 69 -11 0
-13 -10 -8 -45z"/>
<path d="M1991 3619 c-34 -13 -24 -45 14 -41 53 4 60 4 82 -3 17 -5 25 -3 29
10 4 9 3 20 -2 24 -14 13 -97 19 -123 10z"/>
<path d="M3025 3600 c-25 -27 -7 -70 29 -70 28 0 41 27 32 66 -8 30 -36 32
-61 4z"/>
<path d="M4032 3575 c-19 -40 -15 -73 9 -80 26 -9 30 -4 39 44 11 60 -25 86
-48 36z"/>
<path d="M3291 3561 c-17 -16 -31 -39 -31 -50 0 -23 -16 -41 -92 -104 -37 -31
-49 -48 -58 -87 -6 -27 -9 -54 -5 -60 21 -34 95 24 95 75 0 23 7 37 26 51 15
10 34 28 43 39 9 10 32 36 51 56 68 72 78 109 31 109 -18 0 -40 -11 -60 -29z"/>
<path d="M3944 3582 c-18 -12 -36 -52 -30 -68 8 -21 44 -17 56 7 21 37 2 80
-26 61z"/>
<path d="M4420 3547 c-74 -59 -92 -81 -88 -109 5 -34 35 -35 55 0 9 16 29 38
45 48 30 20 52 62 46 88 -2 13 -16 6 -58 -27z"/>
<path d="M4877 3553 c-13 -12 -7 -44 8 -49 14 -6 54 30 55 49 0 9 -54 9 -63 0z"/>
<path d="M4584 3535 c-3 -8 -17 -15 -30 -15 -27 0 -32 -25 -11 -54 16 -22 101
-56 138 -56 29 0 65 33 54 50 -4 7 -18 9 -31 6 -14 -4 -24 -2 -24 4 0 5 -9 10
-20 10 -13 0 -20 7 -20 19 0 10 -11 26 -25 35 -23 15 -26 15 -31 1z m28 -50
c0 -5 -5 -11 -11 -13 -6 -2 -11 4 -11 13 0 9 5 15 11 13 6 -2 11 -8 11 -13z"/>
<path d="M5481 3537 c-18 -18 -13 -55 11 -71 19 -13 19 -16 5 -16 -14 0 -17
-8 -14 -47 2 -34 7 -48 17 -48 8 0 15 9 15 20 0 11 4 26 8 33 5 7 6 29 2 48
-3 21 -2 41 5 48 15 19 -32 50 -49 33z"/>
<path d="M2053 3533 c-7 -2 -13 -10 -13 -17 0 -15 52 -66 68 -66 20 0 13 52
-10 71 -22 20 -25 21 -45 12z"/>
<path d="M5748 3529 c-24 -13 -23 -29 2 -29 13 0 20 7 20 20 0 23 1 23 -22 9z"/>
<path d="M4188 3500 c-7 -11 -18 -20 -24 -20 -6 0 -23 -9 -37 -20 -14 -11 -37
-20 -52 -20 -35 0 -30 -30 7 -48 31 -15 52 -7 92 33 37 37 58 33 51 -8 -6 -29
-3 -36 20 -51 50 -33 75 6 35 57 -11 14 -20 33 -20 42 0 50 -48 73 -72 35z"/>
<path d="M2892 3503 c-7 -3 -17 -16 -23 -29 -7 -21 -12 -23 -28 -15 -27 15
-53 -24 -38 -56 7 -17 5 -34 -7 -66 -20 -53 -20 -81 -1 -97 22 -19 42 -5 48
32 9 65 52 161 75 169 22 8 27 24 16 53 -6 16 -18 19 -42 9z"/>
<path d="M5233 3494 c-3 -8 -1 -20 6 -27 14 -14 47 15 37 32 -10 16 -36 13
-43 -5z"/>
<path d="M2266 3484 c-3 -9 -6 -29 -6 -45 0 -22 -6 -32 -26 -39 -39 -15 -54
-12 -54 11 0 29 -22 19 -31 -15 -10 -37 -3 -52 32 -66 24 -10 33 -10 54 4 13
9 31 16 40 16 18 0 20 21 4 37 -9 9 -5 18 15 35 24 20 26 26 17 51 -12 30 -35
36 -45 11z"/>
<path d="M5575 3470 c-4 -6 -7 -46 -8 -90 -2 -84 3 -92 44 -70 14 8 19 21 19
53 0 83 -32 145 -55 107z"/>
<path d="M1976 3445 c-20 -31 -20 -35 2 -35 23 0 56 35 47 49 -11 18 -32 12
-49 -14z"/>
<path d="M3710 3451 c-5 -11 -10 -38 -10 -60 0 -22 -5 -41 -12 -43 -14 -5 -18
-91 -5 -104 16 -16 62 32 69 72 3 21 12 57 19 80 7 23 9 48 6 57 -9 23 -54 22
-67 -2z"/>
<path d="M3882 3446 c-13 -30 -2 -41 50 -49 31 -5 39 -2 52 18 28 42 24 48
-35 51 -51 4 -57 2 -67 -20z"/>
<path d="M4820 3455 c0 -9 5 -15 11 -13 6 2 11 8 11 13 0 5 -5 11 -11 13 -6 2
-11 -4 -11 -13z"/>
<path d="M4437 3453 c-2 -5 -7 -21 -11 -38 -4 -16 -13 -43 -20 -60 -8 -16 -22
-50 -32 -75 -10 -25 -28 -58 -41 -73 -28 -35 -29 -43 -4 -59 15 -9 18 -19 14
-45 -4 -24 -1 -39 12 -53 17 -19 17 -20 -8 -31 -18 -8 -34 -9 -55 -1 -16 5
-35 6 -42 2 -8 -5 -25 -3 -41 6 -16 8 -33 14 -39 14 -17 0 -11 -46 8 -63 22
-20 84 -22 112 -5 15 10 22 9 38 -5 27 -25 39 -22 80 24 34 36 40 39 51 25 8
-9 20 -16 27 -16 8 0 19 -11 24 -24 5 -15 22 -29 44 -36 37 -12 40 -18 30 -57
-4 -16 -14 -23 -30 -23 -13 0 -33 -5 -44 -12 -14 -9 -30 -9 -67 -1 -27 7 -102
10 -172 8 -82 -2 -131 1 -143 8 -35 22 -63 117 -38 132 18 11 11 29 -29 73
l-38 44 -7 -32 c-17 -88 3 -186 42 -206 34 -17 35 -20 18 -52 -14 -28 -17 -29
-58 -21 -101 19 -298 -45 -298 -97 0 -8 12 -17 26 -20 25 -6 41 -1 100 35 23
14 55 20 123 22 75 3 94 7 102 22 6 9 17 17 26 17 9 0 24 6 32 14 12 11 28 12
70 5 80 -12 241 -20 255 -11 6 4 40 7 76 7 63 0 65 1 68 28 2 15 8 27 14 27 5
0 23 11 39 25 23 18 35 22 52 16 19 -7 22 -15 19 -49 -3 -33 1 -43 17 -52 25
-13 26 -23 6 -44 -13 -13 -19 -13 -50 -1 -18 8 -41 12 -49 9 -19 -7 -21 -35
-4 -52 17 -17 57 -15 64 3 4 10 17 13 50 10 71 -7 127 24 69 39 -29 7 -34 36
-7 36 11 0 27 9 36 19 10 11 29 22 42 25 16 4 24 13 22 23 -5 25 -25 27 -45 4
-19 -23 -43 -27 -60 -10 -16 16 -33 2 -34 -29 -1 -20 -3 -16 -9 15 -17 86 -45
109 -121 99 -29 -4 -49 -3 -49 3 0 5 -9 13 -20 16 -11 3 -20 12 -20 19 0 6 -5
17 -12 24 -6 6 -12 22 -14 34 -9 80 -46 99 -98 51 l-29 -27 -19 23 c-10 13
-21 35 -25 49 -5 21 0 30 30 55 27 21 37 37 37 57 0 16 6 35 14 42 20 20 48
127 42 154 -6 23 -39 34 -49 17z"/>
<path d="M2673 3423 c-34 -17 -43 -30 -43 -63 0 -15 -4 -30 -9 -35 -15 -16
-24 -102 -12 -109 6 -4 11 -20 11 -35 0 -32 16 -51 43 -51 16 0 18 5 12 28 -3
15 -16 35 -28 45 -20 16 -21 18 -4 28 19 11 25 93 7 104 -6 4 -4 17 6 36 11
22 20 28 33 24 23 -7 51 4 51 20 0 20 -36 24 -67 8z"/>
<path d="M2335 3413 c22 -59 19 -67 -42 -109 -70 -48 -75 -69 -16 -70 38 -1
44 3 67 38 14 22 26 45 26 51 0 7 9 18 21 25 16 10 19 19 14 40 -8 31 -21 42
-54 42 -18 0 -22 -4 -16 -17z"/>
<path d="M5262 3418 c-20 -20 -15 -76 8 -88 32 -17 53 -58 52 -99 -2 -48 17
-76 46 -67 14 5 22 16 22 30 0 30 -19 87 -36 107 -8 8 -14 26 -14 39 0 23 -44
90 -59 90 -4 0 -12 -5 -19 -12z"/>
<path d="M2030 3395 c0 -8 7 -15 15 -15 8 0 15 7 15 15 0 8 -7 15 -15 15 -8 0
-15 -7 -15 -15z"/>
<path d="M5090 3352 c0 -31 23 -58 55 -64 10 -2 30 -18 42 -37 l23 -34 -21
-33 c-16 -26 -18 -37 -9 -54 6 -11 16 -20 23 -20 28 1 38 20 43 86 5 68 5 69
-28 97 -18 15 -49 41 -68 57 -44 37 -60 38 -60 2z"/>
<path d="M3934 3356 c-16 -13 -17 -18 -6 -36 15 -25 9 -38 -24 -50 -13 -5 -24
-16 -24 -24 0 -25 29 -27 53 -3 14 14 35 22 59 23 38 0 53 -18 23 -30 -19 -7
-19 -20 -1 -39 11 -10 12 -17 4 -25 -6 -6 -8 -18 -5 -26 7 -17 67 -46 80 -39
15 9 6 52 -14 66 -17 13 -20 23 -17 69 l3 53 -34 0 c-34 0 -52 17 -31 30 7 4
2 14 -14 26 -29 23 -27 23 -52 5z"/>
<path d="M4910 3346 c0 -9 7 -16 16 -16 17 0 14 22 -4 28 -7 2 -12 -3 -12 -12z"/>
<path d="M1742 3340 c-51 -21 -45 -76 15 -158 13 -17 22 -36 18 -41 -8 -14 90
-200 121 -228 16 -15 24 -30 20 -40 -4 -10 6 -28 30 -51 35 -34 104 -133 104
-149 0 -9 94 -109 107 -115 5 -1 23 -25 42 -53 19 -27 41 -56 49 -62 20 -16
94 -17 110 -1 9 9 17 9 34 0 13 -6 32 -13 43 -16 11 -3 35 -19 53 -36 18 -16
38 -30 43 -30 5 0 38 -29 74 -65 50 -51 70 -65 93 -65 47 0 54 19 29 69 -12
24 -32 48 -44 54 -13 6 -23 14 -23 19 0 5 -10 8 -22 6 -18 -2 -25 4 -34 27 -6
17 -7 37 -2 46 11 25 -14 42 -45 30 -19 -8 -24 -15 -20 -35 6 -31 -16 -36 -24
-6 -6 21 -60 50 -93 50 -10 0 -23 7 -30 15 -16 19 -56 19 -63 0 -9 -21 -106
43 -106 70 -1 12 -17 31 -39 45 -46 31 -68 56 -86 95 -7 17 -25 39 -40 48 -14
10 -26 24 -26 31 0 8 -5 16 -10 18 -6 2 -14 23 -18 48 -6 34 -12 46 -28 48
-19 3 -102 116 -111 152 -2 9 5 24 16 34 29 26 59 7 63 -41 3 -43 25 -54 53
-27 12 13 15 26 10 51 -5 29 -2 39 20 59 28 26 30 57 4 62 -9 2 -38 -11 -65
-28 -31 -19 -59 -30 -79 -28 -17 1 -35 -1 -41 -5 -12 -7 -54 82 -54 116 0 13
5 28 11 34 8 8 6 18 -6 37 -19 29 -20 29 -53 16z"/>
<path d="M2475 3340 c-10 -17 5 -49 26 -55 14 -5 18 -12 14 -23 -17 -41 -16
-55 4 -82 11 -16 21 -33 21 -39 0 -5 3 -11 8 -13 14 -6 42 -70 42 -98 0 -15
-7 -33 -15 -40 -18 -15 -20 -51 -4 -67 9 -9 19 -8 40 3 16 8 29 19 29 24 0 6
9 10 20 10 11 0 23 7 26 15 3 8 14 17 25 20 29 10 23 18 -29 41 -41 19 -52 31
-84 92 -21 38 -35 71 -33 74 3 2 1 18 -4 35 -7 23 -5 37 5 52 14 19 13 22 -18
41 -36 22 -63 26 -73 10z"/>
<path d="M4810 3330 c-14 -26 -5 -40 26 -40 24 0 30 13 18 44 -9 22 -31 20
-44 -4z"/>
<path d="M3226 3325 c-8 -21 1 -35 20 -35 10 0 14 8 12 22 -4 27 -23 34 -32
13z"/>
<path d="M4130 3315 c-17 -21 -3 -52 30 -63 27 -10 28 -12 18 -49 -19 -77 -20
-83 -10 -83 6 0 22 4 36 10 20 7 26 16 26 41 0 18 7 40 16 50 19 21 13 46 -13
56 -10 3 -31 17 -46 30 -33 27 -40 28 -57 8z"/>
<path d="M4492 3304 c1 -9 9 -19 16 -22 9 -3 13 2 10 14 -1 9 -9 19 -16 22 -9
3 -13 -2 -10 -14z"/>
<path d="M5510 3291 c-14 -27 -13 -53 5 -78 13 -18 13 -22 0 -33 -10 -9 -13
-29 -11 -78 4 -86 3 -82 21 -82 22 0 41 45 27 63 -17 20 -3 89 19 94 21 6 18
44 -7 101 -17 36 -38 41 -54 13z"/>
<path d="M4992 3288 c-14 -18 -10 -140 5 -145 17 -6 26 16 13 32 -10 12 -9 15
7 15 10 0 26 -9 36 -20 18 -21 57 -27 57 -9 0 7 -5 30 -12 51 -10 35 -10 41 5
50 9 5 17 13 17 18 0 14 -26 12 -50 -2 -15 -10 -22 -9 -38 5 -22 20 -26 21
-40 5z"/>
<path d="M4856 3274 c-9 -22 -7 -67 3 -82 13 -21 33 11 26 41 -4 14 -2 28 4
31 17 11 13 26 -8 26 -10 0 -22 -7 -25 -16z"/>
<path d="M2117 3263 c-15 -14 -6 -34 19 -44 33 -12 37 -8 25 25 -10 25 -30 34
-44 19z"/>
<path d="M4560 3247 c-30 -15 -35 -36 -16 -62 13 -19 15 -19 55 -1 44 20 52
41 24 62 -22 17 -32 17 -63 1z"/>
<path d="M3835 3220 c-3 -5 -22 -9 -42 -8 -26 1 -41 -5 -53 -19 -16 -20 -17
-20 -28 -2 -14 21 -41 26 -43 7 -2 -26 3 -53 13 -65 16 -19 39 -15 45 7 4 17
14 20 54 20 26 0 51 -4 54 -10 3 -5 12 -10 20 -10 7 0 27 -13 45 -30 18 -16
36 -27 41 -24 12 7 12 111 0 118 -4 3 -19 -3 -31 -14 -31 -27 -50 -25 -50 4 0
27 -15 42 -25 26z"/>
<path d="M4699 3189 c-19 -27 -26 -30 -54 -25 -24 5 -34 2 -39 -9 -3 -8 -12
-15 -21 -15 -8 0 -15 -6 -15 -14 0 -15 26 -46 38 -46 11 0 55 32 69 50 10 13
12 13 18 -2 4 -10 16 -18 26 -18 14 0 19 7 19 30 0 33 23 41 38 13 14 -24 44
-9 40 19 -2 16 -11 24 -28 26 -14 2 -29 8 -34 13 -17 16 -34 10 -57 -22z"/>
<path d="M5946 3184 c-19 -19 -21 -44 -3 -44 19 0 37 21 37 42 0 22 -13 23
-34 2z"/>
<path d="M2168 3179 c-22 -12 -23 -32 -3 -63 14 -21 13 -24 -14 -50 -19 -18
-37 -27 -49 -24 -23 6 -52 -8 -52 -26 0 -16 51 -28 65 -15 5 5 19 9 32 9 20 0
23 -5 23 -34 0 -44 9 -66 26 -66 16 0 19 32 15 151 -3 88 6 102 50 70 l29 -22
9 23 c5 14 5 31 -1 41 -10 19 -12 19 -70 0 -10 -3 -18 0 -18 6 0 14 -19 14
-42 0z"/>
<path d="M2355 3174 c-19 -19 -6 -48 31 -67 24 -12 24 -14 8 -28 -9 -8 -25
-14 -35 -14 -10 0 -19 -3 -19 -7 -1 -37 1 -38 48 -38 58 0 66 6 47 34 -20 28
-19 32 15 46 38 16 38 35 0 55 -61 32 -78 35 -95 19z"/>
<path d="M2744 3172 c-24 -16 -34 -49 -20 -68 12 -16 17 -17 41 -6 22 10 26
18 23 44 -3 33 -22 46 -44 30z"/>
<path d="M5990 3135 c0 -26 29 -51 65 -57 31 -5 33 41 3 64 -35 27 -68 24 -68
-7z"/>
<path d="M3490 3110 c-21 -41 -27 -100 -10 -100 16 0 82 110 76 126 -11 28
-45 15 -66 -26z"/>
<path d="M5337 3144 c-12 -12 -8 -41 7 -54 8 -6 16 -24 18 -38 2 -21 9 -28 31
-30 15 -2 27 -10 27 -17 0 -19 17 -27 41 -20 14 5 19 14 17 28 -2 17 -9 21
-29 19 -24 -3 -28 2 -45 55 -15 42 -25 59 -40 61 -11 2 -23 0 -27 -4z"/>
<path d="M5782 3108 c-20 -20 -14 -55 12 -71 39 -26 71 -30 86 -11 13 14 11
19 -11 38 -14 12 -28 30 -32 39 -7 20 -38 22 -55 5z"/>
<path d="M3675 3088 c-54 -29 -58 -66 -7 -70 l37 -3 0 -81 c0 -62 -5 -90 -20
-119 -20 -37 -59 -65 -91 -65 -10 0 -28 -10 -40 -21 -47 -44 15 -81 67 -40 13
10 37 22 54 28 23 8 31 17 36 44 3 19 10 43 17 55 16 30 11 246 -7 268 -16 19
-19 19 -46 4z"/>
<path d="M5081 3081 c-14 -25 1 -37 57 -46 40 -6 42 -6 42 19 0 29 -3 31 -52
40 -30 6 -39 3 -47 -13z"/>
<path d="M2242 3063 c5 -25 28 -28 28 -4 0 12 -6 21 -16 21 -9 0 -14 -7 -12
-17z"/>
<path d="M3791 3051 c-19 -26 -22 -39 -16 -69 8 -45 24 -56 47 -35 22 19 24
91 5 117 -13 18 -15 17 -36 -13z"/>
<path d="M5273 3072 c-6 -4 -15 -21 -19 -37 -4 -17 -11 -36 -16 -42 -6 -7 -7
-24 -4 -38 14 -56 76 -9 76 58 0 38 -20 70 -37 59z"/>
<path d="M5006 3063 c-3 -3 -6 -13 -6 -22 0 -9 -13 -22 -30 -29 -23 -11 -30
-20 -30 -42 0 -28 2 -28 38 -23 20 3 38 6 39 7 0 1 4 24 7 53 5 48 -2 71 -18
56z"/>
<path d="M4727 3053 c-23 -22 11 -63 53 -63 39 0 46 17 19 46 -21 23 -58 32
-72 17z"/>
<path d="M2768 3034 c-50 -27 -30 -44 52 -44 54 0 62 6 53 38 -4 18 -13 22
-42 22 -20 -1 -48 -8 -63 -16z"/>
<path d="M5914 3044 c-19 -8 14 -64 36 -64 10 0 21 9 25 19 3 11 12 22 20 25
30 11 14 26 -27 25 -24 0 -48 -3 -54 -5z"/>
<path d="M5673 3033 c-19 -7 -16 -68 5 -86 10 -9 29 -18 43 -19 22 -3 24 1 27
42 4 57 -26 83 -75 63z"/>
<path d="M2990 2980 c0 -48 -16 -58 -59 -36 -35 18 -102 21 -118 5 -8 -8 -16
-7 -29 1 -16 10 -25 6 -62 -28 -42 -39 -47 -64 -18 -84 19 -13 -9 -43 -35 -41
-13 2 -55 3 -94 4 -97 0 -105 4 -102 42 2 29 -1 32 -28 35 -60 7 -71 36 -25
67 37 25 34 39 -11 42 -19 1 -44 5 -56 9 -33 9 -41 -20 -15 -55 18 -24 18 -28
4 -37 -10 -7 -13 -17 -9 -28 6 -15 15 -17 42 -13 33 5 35 4 29 -19 -4 -15 0
-34 11 -50 13 -21 23 -25 47 -22 24 4 32 0 40 -17 11 -25 47 -45 81 -45 27 0
116 27 131 39 6 5 42 5 86 -1 41 -5 133 -12 203 -14 71 -2 137 -9 147 -14 10
-6 39 -10 63 -10 25 0 60 -6 79 -14 43 -19 184 -8 199 15 13 21 11 34 -10 60
l-18 23 -44 -32 c-23 -18 -51 -32 -61 -32 -9 0 -32 15 -50 34 l-32 33 -30 -18
c-36 -22 -63 -11 -68 28 -4 41 -32 40 -74 -2 -33 -33 -41 -36 -78 -32 -22 2
-69 12 -104 21 -35 10 -71 14 -80 11 -25 -10 -82 -13 -87 -5 -11 18 9 73 27
78 11 2 24 16 29 31 l10 26 18 -24 c15 -19 23 -22 49 -16 28 6 33 3 41 -18 5
-13 17 -27 27 -31 18 -7 47 11 38 25 -8 14 6 49 20 49 15 0 56 -42 56 -57 0
-10 22 -23 41 -23 4 0 6 14 3 30 -5 24 -3 30 11 30 10 0 27 -7 37 -16 14 -14
20 -14 33 -4 12 10 21 8 50 -8 l35 -21 28 24 c19 16 36 22 50 18 12 -3 22 -6
22 -7 0 -1 -4 -16 -9 -34 -8 -28 -7 -32 9 -32 10 0 22 5 25 10 9 15 58 12 83
-6 28 -20 76 -15 80 8 2 10 -8 29 -23 42 l-26 24 23 16 c32 23 57 20 68 -8 11
-31 25 -39 50 -31 28 9 25 22 -16 71 -39 48 -54 52 -99 25 -22 -13 -31 -26
-33 -50 -3 -32 -4 -32 -50 -29 -39 3 -48 7 -50 24 -2 12 -12 30 -22 39 -18 16
-22 16 -67 0 -26 -9 -55 -20 -63 -23 -36 -12 -91 -8 -107 10 -11 12 -30 18
-59 18 -57 0 -78 8 -63 26 14 17 3 34 -22 34 -16 0 -19 -7 -19 -40z"/>
<path d="M5564 2971 c-4 -25 -12 -41 -20 -41 -8 0 -23 -6 -35 -12 -17 -11 -22
-10 -30 5 -6 9 -17 17 -24 17 -8 0 -15 5 -15 12 0 9 -3 9 -12 0 -9 -9 -16 -8
-29 4 -22 20 -52 11 -47 -13 2 -12 13 -18 31 -18 15 -1 32 -6 39 -13 7 -7 18
-12 25 -12 8 0 16 -7 19 -15 4 -8 16 -15 28 -15 29 0 43 -11 48 -35 3 -19 -2
-20 -102 -18 -58 1 -109 2 -114 2 -5 1 -2 9 7 19 16 17 16 20 -3 39 -31 34
-80 9 -64 -32 4 -8 14 -16 23 -17 9 -1 -38 -4 -104 -8 -66 -3 -131 -2 -144 2
-18 7 -27 5 -33 -6 -4 -8 -31 -17 -60 -21 -73 -9 -88 -14 -88 -30 0 -17 53
-29 77 -17 37 19 93 23 114 9 14 -10 30 -12 52 -7 18 4 114 5 214 3 l181 -4
28 26 c25 23 30 24 40 11 14 -20 38 -20 53 -2 7 8 26 18 42 21 44 10 33 33
-30 67 -71 37 -70 36 -41 58 21 16 23 22 15 46 -16 43 -34 41 -41 -5z"/>
<path d="M3445 2990 c-9 -15 3 -30 24 -30 25 0 33 11 20 27 -13 15 -35 17 -44
3z"/>
<path d="M5070 2955 c-20 -24 -8 -50 26 -53 23 -2 33 2 43 22 7 13 10 29 7 35
-10 16 -61 13 -76 -4z"/>
<path d="M2035 2941 c-3 -6 -3 -20 0 -32 5 -15 14 -19 38 -17 32 3 42 15 29
35 -11 17 -59 27 -67 14z"/>
<path d="M2237 2916 c-11 -27 8 -71 31 -74 32 -5 37 22 11 57 -25 34 -34 38
-42 17z"/>
<path d="M4991 2896 c-9 -10 -8 -16 4 -26 19 -15 47 3 38 26 -7 18 -27 18 -42
0z"/>
<path d="M2150 2866 c-13 -42 -4 -105 18 -113 22 -9 43 24 32 50 -5 12 -11 39
-15 60 -7 46 -20 47 -35 3z"/>
<path d="M2038 2834 c-11 -11 1 -24 23 -24 10 0 19 -4 19 -10 0 -5 9 -10 20
-10 13 0 20 7 20 20 0 12 -7 20 -17 20 -10 0 -27 3 -38 6 -11 3 -24 2 -27 -2z"/>
<path d="M2300 2800 c-6 -12 -8 -30 -5 -41 6 -17 14 -20 48 -17 39 3 42 5 45
34 3 26 -1 33 -20 38 -40 10 -57 7 -68 -14z"/>
<path d="M4309 2617 c-21 -38 -5 -47 80 -47 71 0 82 2 92 21 17 32 0 40 -85
43 -67 2 -79 0 -87 -17z"/>
<path d="M4953 2634 c-22 -10 -14 -31 16 -44 40 -16 73 -5 69 23 -2 17 -10 22
-38 24 -19 1 -41 0 -47 -3z"/>
<path d="M2678 2623 c-39 -3 -48 -8 -48 -23 0 -11 8 -23 18 -28 23 -11 254 -7
276 5 15 8 15 11 0 32 -14 19 -22 22 -53 16 -46 -9 -112 -11 -131 -4 -8 3 -36
4 -62 2z"/>
<path d="M4674 2615 c-8 -20 4 -35 27 -35 23 0 26 35 3 44 -22 8 -24 8 -30 -9z"/>
<path d="M2361 2606 c-24 -29 -2 -46 59 -46 60 0 88 16 76 45 -7 20 -118 21
-135 1z"/>
<path d="M2683 2518 c-23 -52 41 -97 67 -47 9 16 8 26 -5 45 -19 30 -49 31
-62 2z"/>
<path d="M5084 2399 c-11 -6 -28 -31 -37 -56 -15 -40 -15 -47 -1 -74 13 -27
19 -30 56 -27 52 4 58 19 19 54 -39 35 -39 49 0 63 23 8 30 15 25 27 -3 8 -6
18 -6 20 0 7 -35 3 -56 -7z"/>
<path d="M4083 2393 c-15 -5 -18 -59 -4 -67 5 -4 3 -19 -5 -36 -18 -35 -5 -70
27 -70 25 0 36 27 21 51 -17 27 -15 39 6 39 11 0 24 11 30 25 12 26 52 34 81
16 19 -12 6 -41 -19 -41 -26 0 -46 -46 -29 -66 18 -22 35 -17 79 24 31 28 41
45 38 62 -4 32 -64 73 -92 63 -26 -9 -52 -9 -91 -1 -16 4 -36 4 -42 1z"/>
<path d="M2796 2377 c-27 -20 -18 -61 15 -65 30 -3 41 19 28 56 -10 25 -18 27
-43 9z"/>
<path d="M2926 2375 c-19 -50 4 -78 37 -48 12 11 30 23 40 27 31 10 13 31 -30
34 -30 2 -42 -1 -47 -13z"/>
<path d="M3430 2373 c-19 -14 -30 -14 -64 -5 -22 6 -44 8 -48 6 -15 -9 -8 -34
12 -46 28 -18 25 -43 -7 -57 -24 -11 -25 -13 -10 -28 13 -13 23 -14 49 -7 30
9 33 14 36 52 3 34 7 43 20 40 13 -2 17 -14 17 -43 0 -37 2 -39 39 -47 25 -5
43 -4 52 3 21 17 17 23 -17 36 -29 11 -31 15 -26 47 4 25 1 39 -12 50 -16 14
-19 14 -41 -1z"/>
<path d="M3545 2380 c-11 -17 7 -128 21 -134 7 -3 16 0 20 6 9 14 8 113 0 127
-9 14 -33 14 -41 1z"/>
<path d="M3904 2368 c-4 -15 -1 -25 10 -34 12 -8 15 -20 11 -36 -4 -16 0 -32
14 -49 18 -22 21 -23 36 -8 13 12 15 22 7 34 -5 11 -6 32 -1 54 14 58 12 61
-30 61 -32 0 -41 -4 -47 -22z"/>
<path d="M4345 2381 c-3 -6 -3 -26 0 -45 4 -20 2 -36 -4 -40 -6 -4 -11 -18
-11 -32 0 -30 25 -32 41 -2 11 20 13 20 24 5 8 -11 31 -18 67 -21 31 -2 61 -6
67 -10 19 -12 51 13 51 39 0 22 -4 25 -39 25 -43 0 -56 11 -56 50 0 33 -19 42
-23 10 -5 -35 -20 -50 -49 -50 -22 0 -24 3 -21 38 3 32 0 37 -19 40 -11 2 -24
-2 -28 -7z"/>
<path d="M4596 2361 c-18 -34 -21 -61 -6 -61 5 0 13 -12 16 -26 8 -29 41 -46
67 -32 22 12 22 25 -2 33 -31 9 -35 37 -10 58 28 23 16 50 -24 55 -20 3 -29
-3 -41 -27z"/>
<path d="M4754 2350 c6 -36 4 -40 -14 -40 -30 0 -36 -28 -12 -52 23 -23 42
-17 43 15 0 22 0 22 10 -1 8 -21 14 -23 61 -20 50 4 52 6 65 44 16 46 4 84
-26 84 -21 0 -31 -18 -31 -56 0 -36 -12 -29 -39 21 -16 30 -30 45 -44 45 -17
0 -19 -5 -13 -40z"/>
<path d="M3231 2361 c-6 -11 -12 -30 -12 -43 -1 -19 -3 -17 -8 7 -9 44 -38 45
-46 1 -10 -50 12 -90 51 -94 42 -4 63 21 34 41 -20 14 -20 15 -1 20 24 6 57
55 45 66 -22 21 -53 22 -63 2z"/>
<path d="M3763 2365 c-10 -10 -21 -11 -48 -4 -40 11 -75 -2 -75 -28 0 -11 6
-14 23 -8 67 21 83 18 105 -20 12 -20 22 -43 22 -51 0 -8 10 -14 25 -14 30 0
51 38 50 90 0 31 -3 35 -27 35 -15 1 -30 4 -34 8 -11 11 -28 8 -41 -8z"/>
<path d="M4940 2360 c-6 -12 -10 -38 -8 -58 3 -34 6 -37 32 -37 23 0 31 6 39
28 7 23 6 31 -8 41 -13 9 -15 15 -7 20 20 12 13 26 -13 26 -14 0 -29 -8 -35
-20z"/>
<path d="M3101 2338 c-5 -14 -10 -17 -15 -10 -4 7 -14 12 -22 12 -10 0 -14
-13 -14 -49 0 -80 30 -78 70 5 21 41 20 64 -1 64 -5 0 -13 -10 -18 -22z"/>
<path d="M2860 2303 c-23 -6 -51 -50 -44 -67 7 -19 33 -20 69 -4 20 9 25 17
21 32 -3 12 -6 27 -6 34 0 12 -11 14 -40 5z"/>
<path d="M2938 2276 c-6 -30 8 -46 39 -46 25 0 30 19 13 51 -15 27 -47 24 -52
-5z"/>
<path d="M3655 2280 c-8 -14 12 -48 36 -61 25 -13 43 0 37 27 -4 20 -64 49
-73 34z"/>
<path d="M2703 2205 c-5 -16 12 -94 29 -127 11 -22 46 -23 68 -3 14 13 67 16
301 20 298 6 299 6 393 2 67 -2 83 -19 45 -48 -19 -14 -42 -19 -105 -19 -66 0
-84 -3 -98 -19 -16 -17 -16 -21 0 -54 9 -19 26 -38 38 -41 12 -3 89 -6 172 -6
l152 0 60 45 c34 24 66 53 71 64 14 25 14 64 1 56 -22 -14 -30 7 -13 36 20 33
43 38 43 9 0 -11 4 -20 9 -20 17 0 20 29 5 59 -12 23 -22 31 -43 31 -22 0 -30
-7 -44 -38 -9 -21 -17 -49 -17 -61 0 -27 -43 -50 -63 -33 -17 15 -54 -21 -59
-58 -3 -25 -4 -25 -112 -28 -101 -2 -142 6 -123 24 4 4 44 8 89 9 80 1 83 2
86 25 2 14 10 32 17 40 44 52 57 123 26 140 -24 12 -43 6 -59 -21 -12 -18 -11
-24 8 -41 17 -16 19 -22 9 -35 -11 -13 -14 -13 -26 3 -7 10 -13 23 -13 29 0 8
-60 11 -198 11 -144 0 -210 3 -241 14 -33 11 -47 11 -62 2 -10 -7 -52 -12 -93
-12 -41 0 -86 -4 -101 -10 -32 -12 -74 7 -99 44 -18 29 -44 34 -53 11z m1004
-199 c-4 -9 -11 -16 -17 -16 -11 0 -14 33 -3 44 11 10 26 -11 20 -28z"/>
<path d="M4315 2171 c-9 -16 42 -98 65 -104 14 -4 20 -14 22 -36 0 -17 1 -37
2 -43 2 -21 -29 -20 -53 1 -18 15 -28 18 -42 11 -14 -8 -19 -6 -24 9 -3 11
-14 23 -23 26 -36 12 -72 54 -72 83 0 43 -20 56 -67 43 -21 -6 -53 -11 -71
-11 -42 0 -53 -28 -45 -112 4 -52 2 -66 -11 -77 -15 -12 -19 -12 -33 1 -18 19
-11 78 13 102 13 14 12 20 -6 56 -14 27 -27 40 -37 38 -25 -5 -26 -22 -3 -48
11 -13 20 -25 20 -28 0 -2 -13 -17 -30 -32 -39 -36 -41 -81 -4 -115 14 -13 29
-36 33 -52 11 -41 48 -42 88 -3 26 26 32 39 35 87 2 33 -2 67 -9 81 -27 51 -2
92 35 59 9 -8 29 -19 45 -22 23 -6 27 -12 27 -42 0 -28 8 -42 35 -67 19 -18
35 -37 35 -43 0 -22 48 -30 150 -25 76 3 110 9 123 20 17 15 22 14 61 -7 47
-26 73 -21 101 23 29 45 -12 79 -83 69 -33 -4 -54 1 -111 28 -59 29 -69 37
-64 56 3 13 -1 24 -10 30 -9 4 -15 17 -14 28 2 16 -5 21 -35 23 -20 2 -39 -2
-43 -7z m187 -161 c27 -25 13 -44 -26 -34 -29 7 -30 8 -16 35 13 24 16 24 42
-1z"/>
<path d="M1879 6564 c-19 -23 11 -74 96 -160 39 -40 81 -92 94 -116 22 -41 23
-46 8 -74 -8 -16 -27 -40 -41 -53 l-25 -24 -46 27 c-25 15 -62 50 -81 77 -20
27 -39 49 -44 49 -4 0 -27 29 -51 65 -45 69 -71 81 -103 49 -25 -24 -20 -35
44 -99 33 -32 60 -66 60 -74 0 -18 74 -99 120 -130 25 -18 49 -25 87 -25 60
-1 98 22 125 74 9 18 22 38 27 43 23 23 9 79 -34 142 -11 17 -25 37 -30 46
-19 32 -113 164 -129 182 -20 21 -59 22 -77 1z"/>
<path d="M6310 6462 c-26 -11 -284 -290 -295 -318 -7 -19 -6 -27 5 -34 31 -20
60 -11 81 24 11 19 40 51 65 71 24 20 44 42 44 50 0 7 34 45 75 83 54 51 75
77 75 95 0 19 -21 42 -33 36 -1 0 -9 -3 -17 -7z"/>
<path d="M6376 6310 c-17 -10 -40 -36 -52 -56 -19 -31 -22 -46 -17 -88 4 -28
15 -64 25 -81 10 -16 18 -35 18 -42 0 -15 -62 -53 -86 -53 -20 0 -55 37 -77
79 -15 31 -40 46 -61 38 -22 -9 -20 -56 4 -87 11 -14 20 -30 20 -36 0 -19 33
-42 82 -59 44 -14 50 -14 80 1 18 9 49 34 70 55 46 47 50 87 13 142 -21 30
-25 44 -19 73 7 40 27 64 54 64 17 0 28 -11 79 -79 14 -19 23 -23 44 -17 32 8
34 24 8 75 -25 48 -38 58 -97 76 -60 18 -53 19 -88 -5z"/>
<path d="M1518 6226 c-57 -59 -98 -113 -98 -128 0 -17 31 -48 47 -48 6 0 23
-18 38 -40 15 -22 31 -40 36 -40 11 0 155 -145 162 -164 3 -8 18 -18 33 -22
36 -9 70 27 54 57 -6 10 -17 19 -24 19 -7 0 -24 12 -38 28 -14 15 -35 35 -47
44 -28 24 -27 44 7 65 48 30 71 64 61 91 -5 13 -9 32 -9 42 0 29 -51 100 -72
100 -10 0 -21 7 -24 15 -4 10 -20 15 -49 15 -36 0 -49 -6 -77 -34z m106 -48
c51 -34 62 -70 33 -122 -12 -22 -29 -42 -38 -44 -19 -3 -109 74 -109 95 0 20
52 93 67 93 6 0 27 -10 47 -22z"/>
<path d="M6645 6097 c-54 -34 -122 -92 -137 -120 -10 -17 -31 -35 -50 -42 -44
-15 -148 -96 -148 -115 0 -8 11 -25 24 -37 13 -13 43 -57 67 -98 50 -87 77
-97 108 -37 15 28 4 50 -55 106 -24 24 -44 49 -44 58 0 8 20 28 45 44 25 15
45 32 45 36 0 23 21 2 45 -44 15 -29 32 -59 38 -66 16 -21 60 -10 74 18 12 23
9 28 -42 78 -30 30 -55 57 -55 62 0 5 15 17 33 29 17 11 38 29 45 40 14 25 42
28 42 6 0 -22 38 -95 63 -122 27 -30 50 -29 67 2 15 27 18 22 -62 116 -27 30
-48 65 -48 77 0 25 -23 28 -55 9z"/>
<path d="M1220 6044 c-13 -33 -13 -66 0 -100 9 -22 7 -30 -9 -45 -25 -23 -17
-52 17 -70 15 -8 63 -49 107 -91 55 -54 85 -76 97 -72 10 3 21 -2 27 -15 6
-11 21 -21 33 -23 13 -2 29 -15 36 -30 21 -44 46 -35 86 31 20 32 36 64 36 70
0 6 11 16 25 21 34 13 35 56 1 72 -30 13 -56 5 -56 -19 0 -10 -19 -40 -43 -66
l-42 -49 -30 31 c-16 17 -39 31 -50 31 -11 0 -27 5 -35 10 -12 8 -5 18 37 58
58 55 76 89 62 115 -15 26 -46 20 -66 -10 -25 -41 -75 -93 -89 -93 -22 0 -72
49 -79 77 -5 21 -1 31 17 45 13 10 30 18 38 18 24 0 56 67 43 88 -17 27 -38
25 -71 -8 -37 -36 -52 -38 -52 -6 0 56 -24 74 -40 30z"/>
<path d="M1115 5716 c-43 -26 -71 -60 -99 -119 -24 -53 -15 -81 33 -100 21 -9
54 -30 72 -46 18 -17 41 -31 49 -31 9 0 29 -14 46 -31 16 -17 45 -40 64 -52
19 -12 41 -27 48 -34 20 -19 49 -16 72 9 29 31 25 45 -17 68 -21 11 -45 24
-53 29 -8 5 -30 15 -47 21 -41 15 -42 39 -4 68 17 12 31 34 34 49 4 27 4 27
12 5 7 -22 51 -52 77 -52 7 0 24 -9 38 -20 44 -34 90 -21 90 26 0 24 -24 49
-38 40 -6 -3 -35 5 -66 19 -31 14 -69 25 -84 25 -22 0 -31 8 -46 43 -27 56
-44 76 -85 93 -44 18 -49 18 -96 -10z m111 -71 c9 -13 18 -41 20 -62 4 -31 -1
-44 -26 -73 l-30 -35 -17 22 c-10 12 -32 27 -49 33 -61 21 -47 85 27 122 45
24 56 23 75 -7z"/>
<path d="M7023 5160 c-25 -10 -53 -58 -53 -90 0 -12 -12 -37 -26 -56 -22 -28
-33 -34 -63 -34 -20 0 -51 4 -68 9 -40 12 -87 0 -91 -23 -5 -25 23 -62 67 -90
21 -13 44 -38 50 -55 14 -32 15 -26 -33 -158 -19 -51 -12 -73 22 -73 23 0 82
36 107 66 20 24 63 22 86 -2 13 -13 31 -24 42 -24 10 0 32 -13 47 -30 35 -37
67 -39 80 -5 18 48 -18 100 -75 108 -22 3 -60 10 -84 16 -38 10 -48 9 -83 -9
-60 -31 -90 -21 -54 19 17 19 6 96 -19 135 -23 35 2 75 50 80 18 2 55 40 55
58 0 24 40 45 51 27 5 -8 9 -20 9 -27 0 -9 10 -12 28 -10 22 2 28 8 30 35 2
18 -4 43 -13 56 -8 13 -13 32 -9 41 3 9 1 23 -6 31 -14 17 -16 17 -47 5z"/>
<path d="M7095 4960 c-11 -19 25 -50 59 -50 17 0 38 -4 46 -10 12 -7 9 -13
-13 -30 -32 -25 -34 -45 -8 -60 17 -8 30 -3 75 31 45 33 56 48 56 70 0 18 -6
30 -19 34 -72 23 -186 32 -196 15z"/>
<path d="M7070 4879 c0 -11 5 -17 10 -14 6 3 10 13 10 21 0 8 -4 14 -10 14 -5
0 -10 -9 -10 -21z"/>
<path d="M938 4878 c-9 -7 -31 -42 -48 -76 -39 -76 -74 -97 -155 -89 -67 7
-91 -12 -69 -54 8 -16 19 -29 25 -29 6 0 30 -21 54 -46 33 -37 46 -45 63 -39
31 9 27 31 -13 72 -40 41 -34 53 26 53 31 0 43 8 87 56 51 55 51 55 77 38 14
-9 28 -14 31 -11 7 7 -16 107 -29 125 -5 6 -15 12 -21 12 -7 0 -19 -6 -28 -12z"/>
<path d="M7076 4824 c-7 -18 8 -34 32 -34 18 0 15 14 -7 34 -17 16 -19 16 -25
0z"/>
<path d="M6946 4804 c-12 -30 -6 -44 17 -44 32 0 38 8 25 36 -13 27 -33 31
-42 8z"/>
<path d="M1012 4724 c-6 -11 -12 -33 -14 -50 -3 -28 -1 -29 37 -31 22 -1 46
-2 52 -2 7 -1 16 -13 19 -27 6 -22 1 -32 -31 -59 -27 -22 -37 -37 -32 -49 6
-15 9 -15 37 -1 17 9 36 27 42 40 8 18 19 25 38 25 32 0 55 24 64 66 7 29 6
30 -51 46 -32 9 -75 19 -95 23 -21 3 -42 13 -47 22 -8 14 -10 14 -19 -3z"/>
<path d="M943 4553 c-22 -8 -14 -21 17 -25 37 -6 48 7 21 21 -11 6 -21 11 -23
10 -2 0 -9 -3 -15 -6z"/>
<path d="M752 4445 c-7 -25 -12 -59 -12 -75 0 -27 3 -30 30 -30 17 0 30 4 30
10 0 5 17 17 37 25 42 18 54 31 46 52 -4 10 -14 12 -34 8 -26 -6 -31 -3 -40
24 -16 47 -42 40 -57 -14z"/>
<path d="M920 4437 c0 -22 46 -67 69 -67 6 0 14 -6 18 -14 4 -7 23 -21 41 -30
26 -14 37 -15 48 -5 27 22 12 129 -18 129 -6 0 -20 -8 -30 -17 -18 -16 -21
-16 -61 5 -53 28 -67 28 -67 -1z"/>
<path d="M7011 3906 c-8 -9 -11 -46 -9 -102 3 -85 4 -89 30 -102 31 -15 130
-23 148 -12 28 18 60 171 41 199 -6 9 -18 11 -34 7 -32 -8 -44 -55 -29 -110
l10 -36 -54 0 c-53 0 -53 0 -49 28 12 78 14 112 9 126 -8 20 -47 21 -63 2z"/>
<path d="M7352 3900 c-19 -18 -22 -32 -22 -90 l0 -70 -41 0 c-47 0 -79 -14
-79 -36 0 -22 65 -46 113 -42 34 2 44 8 54 29 19 39 35 200 22 216 -15 18 -21
17 -47 -7z"/>
<path d="M900 3713 c-90 -14 -180 -113 -180 -196 0 -40 20 -97 43 -119 22 -23
29 -23 45 3 10 16 11 28 1 56 -19 59 -7 108 40 151 40 37 45 39 93 34 79 -8
128 -61 128 -140 0 -48 31 -83 58 -65 23 14 18 102 -9 158 -48 101 -112 136
-219 118z"/>
<path d="M7001 3660 c-22 -16 -25 -29 -32 -111 -8 -100 -19 -151 -44 -211 -8
-21 -15 -56 -15 -78 0 -26 -8 -51 -22 -70 -18 -24 -20 -35 -12 -57 20 -57 81
-28 70 33 -4 20 -2 35 5 39 6 4 41 -4 77 -18 37 -14 104 -37 150 -52 l84 -28
21 21 c19 19 19 24 7 47 -7 14 -23 27 -34 29 -12 2 -52 9 -91 16 -38 6 -85 18
-103 26 -18 9 -41 12 -51 9 -30 -9 -33 9 -13 84 11 39 17 81 15 93 -2 13 2 31
10 42 13 18 16 18 133 -4 65 -12 132 -26 148 -30 40 -13 66 3 66 39 0 33 -14
41 -80 47 -74 7 -111 12 -183 26 l-68 12 6 46 c8 59 -8 78 -44 50z"/>
<path d="M956 3401 c-3 -4 -19 -11 -36 -14 -19 -4 -34 -16 -42 -32 -6 -14 -21
-28 -33 -31 -39 -10 -58 -58 -52 -131 6 -61 8 -66 59 -113 49 -46 57 -49 104
-50 35 0 76 10 125 30 41 16 75 30 77 30 1 0 2 6 2 14 0 7 7 19 15 26 43 36
36 152 -13 204 -50 53 -187 98 -206 67z m135 -92 c11 -5 27 -26 38 -47 19 -36
19 -38 0 -74 -24 -46 -64 -78 -100 -78 -15 0 -31 -5 -35 -11 -18 -30 -116 31
-138 86 l-16 39 50 47 c28 26 63 50 78 52 35 6 100 -1 123 -14z"/>
<path d="M6925 3061 c-44 -11 -58 -21 -99 -69 -49 -60 -50 -107 -1 -180 20
-28 40 -52 44 -52 5 0 23 -11 40 -25 16 -14 54 -31 83 -37 50 -11 56 -10 93
15 62 41 75 53 75 70 0 9 7 20 16 25 16 9 20 43 15 123 -2 25 -70 98 -112 119
-39 20 -98 24 -154 11z m122 -78 c48 -22 87 -83 78 -121 -6 -30 -43 -71 -81
-90 -28 -15 -104 14 -150 55 -29 26 -34 37 -34 76 0 43 3 49 38 71 44 29 99
33 149 9z"/>
<path d="M1172 3030 c-20 -19 -42 -30 -60 -30 -15 0 -45 -9 -67 -20 -22 -11
-51 -20 -64 -20 -14 0 -45 -7 -68 -16 -40 -16 -43 -19 -43 -55 0 -48 19 -51
74 -14 20 14 45 25 54 25 9 0 26 7 36 15 11 8 27 15 37 15 9 0 22 7 29 15 16
19 50 20 50 1 0 -8 -28 -43 -62 -79 -88 -91 -138 -161 -138 -191 0 -23 4 -26
38 -26 49 1 71 18 65 52 -3 18 2 36 16 54 12 15 21 37 21 50 0 13 4 24 8 24
33 0 144 129 157 183 5 19 2 28 -13 36 -30 16 -36 14 -70 -19z"/>
<path d="M1243 2822 c-17 -9 -51 -28 -75 -41 -62 -34 -109 -72 -102 -82 14
-23 137 10 157 42 8 13 18 17 34 13 38 -10 72 4 79 31 13 51 -34 70 -93 37z"/>
<path d="M6711 2806 c-16 -20 7 -70 54 -117 19 -19 35 -44 35 -57 0 -20 -4
-23 -27 -18 -57 12 -141 10 -157 -3 -36 -30 -7 -78 41 -67 16 4 44 8 63 10 19
2 58 7 85 11 41 6 53 4 64 -9 7 -9 17 -16 22 -16 5 0 29 -16 54 -35 48 -36 68
-37 86 -3 14 27 -11 53 -81 85 -62 28 -100 59 -100 81 0 8 -12 31 -27 51 -16
20 -35 49 -44 66 -18 34 -50 43 -68 21z"/>
<path d="M1275 2681 c-62 -38 -69 -53 -61 -140 8 -96 -2 -111 -64 -92 -39 11
-39 12 -46 71 -6 58 -8 60 -36 60 -22 0 -31 -6 -39 -27 -9 -24 -7 -36 18 -82
39 -73 74 -102 116 -94 54 10 84 31 105 73 16 32 18 48 11 78 -16 71 -12 89
22 96 39 7 69 -8 69 -37 0 -12 10 -35 23 -50 25 -32 54 -29 63 8 8 33 -47 117
-91 138 -45 21 -53 21 -90 -2z"/>
<path d="M1420 2444 c-30 -24 -56 -48 -58 -54 -2 -5 -14 -10 -26 -10 -22 0
-54 -18 -126 -72 -35 -26 -34 -50 3 -102 12 -17 31 -48 43 -71 24 -46 56 -58
74 -26 13 26 -8 73 -45 97 -14 9 -25 24 -25 34 0 17 71 90 88 90 4 0 21 -26
37 -58 25 -46 36 -57 55 -57 28 0 40 32 18 49 -21 17 -48 64 -48 84 0 23 62
73 77 64 6 -4 14 -18 18 -32 4 -14 16 -40 27 -57 22 -36 57 -44 78 -18 11 13
8 23 -18 58 -18 23 -42 61 -54 85 -28 54 -47 54 -118 -4z"/>
<path d="M6548 2483 c-21 -5 -32 -36 -22 -65 10 -32 90 -134 124 -159 15 -12
40 -45 55 -75 15 -29 32 -58 39 -63 19 -16 56 -1 62 26 5 19 -2 31 -35 62
l-41 38 17 44 c10 24 22 47 28 51 17 12 50 9 85 -8 47 -24 85 -10 85 31 0 32
10 28 -125 55 -25 5 -70 13 -101 19 -31 5 -78 18 -104 30 -26 12 -48 20 -49
20 0 -1 -9 -3 -18 -6z m134 -90 c18 -9 40 -19 48 -23 8 -4 15 -18 15 -31 0
-19 -6 -25 -31 -27 -23 -2 -39 5 -67 32 -61 57 -40 87 35 49z"/>
<path d="M6398 2276 c-30 -22 -22 -58 22 -100 22 -21 40 -47 40 -59 0 -11 6
-28 13 -36 7 -9 21 -35 29 -58 13 -34 14 -43 3 -43 -14 0 -141 52 -198 82 -49
25 -83 18 -90 -19 -6 -35 14 -75 50 -98 15 -10 57 -47 93 -81 117 -112 120
-113 143 -105 13 5 23 18 25 34 3 21 -6 31 -51 60 -90 58 -164 137 -127 137 6
0 37 -13 70 -30 33 -16 64 -30 71 -30 6 0 22 -9 36 -20 38 -29 103 -25 103 7
0 8 -12 29 -26 47 -31 37 -104 161 -104 175 0 6 -7 11 -15 11 -8 0 -15 7 -15
15 0 8 4 15 9 15 5 0 14 -7 21 -15 7 -8 19 -15 27 -15 7 0 31 -17 52 -37 110
-109 115 -112 136 -101 48 27 41 45 -38 99 -34 23 -66 48 -70 56 -4 7 -12 13
-18 13 -12 0 -62 35 -112 78 -41 35 -53 38 -79 18z"/>
<path d="M1570 2224 c-35 -24 -86 -64 -112 -89 -26 -24 -62 -48 -80 -53 -29
-7 -33 -13 -36 -44 -3 -29 1 -38 17 -43 26 -8 55 8 115 64 27 25 59 55 71 66
11 11 42 30 67 43 58 28 72 45 64 77 -9 35 -29 31 -106 -21z"/>
<path d="M1643 2099 c-32 -27 -82 -71 -112 -97 -119 -103 -119 -102 -62 -154
21 -19 46 -49 55 -67 20 -38 37 -46 65 -31 31 16 26 38 -19 91 -22 26 -40 56
-40 66 1 18 81 82 172 139 51 31 68 64 48 89 -21 26 -48 17 -107 -36z"/>
<path d="M6065 1888 c-31 -17 -144 -131 -145 -145 0 -7 13 -19 28 -27 16 -8
39 -30 51 -48 13 -18 38 -45 57 -59 18 -14 48 -48 66 -75 47 -69 71 -70 146
-5 32 28 64 51 70 51 18 0 26 48 11 66 -19 23 -54 9 -103 -42 -44 -45 -44 -45
-73 -30 -76 42 -79 62 -14 95 36 19 71 54 71 73 0 4 -11 15 -24 23 -29 19 -66
6 -66 -24 0 -20 -43 -61 -64 -61 -19 0 -56 47 -56 71 0 12 15 26 40 39 50 25
78 65 63 89 -13 20 -33 24 -58 9z"/>
<path d="M1913 1847 c-21 -22 -61 -69 -89 -104 -28 -35 -65 -75 -82 -89 -26
-22 -29 -29 -22 -54 21 -75 138 -152 215 -142 67 8 135 67 181 156 24 45 25
53 14 91 -14 52 -118 170 -154 177 -19 4 -34 -4 -63 -35z m87 -60 c0 -7 14
-26 30 -42 25 -24 30 -36 30 -78 0 -46 -4 -53 -41 -88 -59 -55 -94 -67 -131
-46 -16 9 -35 17 -42 17 -7 0 -23 11 -36 25 l-23 25 67 72 c110 118 120 128
134 128 6 0 12 -6 12 -13z"/>
<path d="M2328 1640 c-35 -18 -39 -19 -66 -3 -38 22 -59 12 -82 -41 -11 -24
-27 -49 -36 -56 -8 -8 -22 -27 -31 -44 -9 -17 -38 -52 -65 -79 -56 -53 -60
-83 -17 -104 15 -7 50 -34 78 -59 41 -37 56 -45 76 -40 49 13 15 76 -62 115
l-42 21 25 37 c44 65 63 68 107 18 35 -40 47 -43 71 -16 24 26 7 57 -36 66
-42 9 -58 22 -58 47 0 24 39 78 57 78 7 0 33 -18 57 -40 46 -43 86 -53 86 -22
0 10 -11 29 -25 42 -34 32 -32 40 10 40 42 0 58 25 30 46 -25 18 -34 18 -77
-6z"/>
<path d="M5737 1626 c-67 -38 -107 -74 -107 -94 0 -8 11 -30 25 -48 14 -18 25
-35 25 -37 0 -3 29 -44 65 -92 35 -47 67 -95 70 -106 21 -66 184 41 220 144
29 84 11 135 -79 215 -70 63 -131 68 -219 18z m143 -46 c44 -13 100 -84 100
-128 0 -20 -13 -47 -37 -79 -58 -77 -80 -82 -107 -25 -10 20 -24 44 -32 52 -8
8 -29 35 -47 59 -18 24 -36 50 -42 57 -14 19 4 33 67 55 63 22 55 21 98 9z"/>
<path d="M2443 1500 c-12 -5 -24 -19 -28 -31 -4 -13 -22 -44 -40 -70 -18 -25
-43 -66 -55 -90 -12 -24 -30 -53 -40 -64 -29 -33 -34 -78 -11 -99 26 -23 56
-8 64 34 8 37 35 80 51 80 6 0 29 -9 51 -20 64 -33 87 -27 139 34 25 29 46 62
46 73 0 28 -28 93 -40 93 -5 0 -30 16 -56 35 -49 38 -49 38 -81 25z m65 -86
c77 -54 21 -155 -66 -118 -38 16 -39 24 -10 87 24 50 40 57 76 31z"/>
<path d="M1455 1421 c-7 -12 12 -24 25 -16 11 7 4 25 -10 25 -5 0 -11 -4 -15
-9z"/>
<path d="M5327 1388 c-9 -5 -17 -16 -17 -24 0 -20 50 -114 61 -114 4 0 13 -17
19 -39 5 -21 16 -43 23 -49 7 -6 26 -38 42 -72 25 -52 32 -60 56 -60 16 0 49
14 75 32 25 17 60 34 78 37 40 9 49 51 15 74 -20 15 -25 14 -58 -3 -20 -10
-49 -30 -65 -44 -28 -25 -46 -26 -46 -4 0 12 -32 86 -53 123 -6 11 -25 47 -43
79 -33 62 -58 81 -87 64z"/>
<path d="M2697 1302 c-63 -71 -157 -164 -201 -199 -39 -29 -39 -31 -27 -62 17
-39 44 -40 68 -3 42 65 97 80 148 40 28 -22 30 -43 9 -130 -5 -23 -2 -29 20
-39 22 -10 29 -9 46 6 16 15 20 31 20 85 0 84 -15 106 -87 122 -29 7 -53 18
-53 24 0 17 80 104 96 104 18 0 18 -12 -3 -48 -16 -28 -16 -31 0 -56 31 -46
44 -32 67 75 14 65 1 106 -38 120 -20 8 -29 2 -65 -39z"/>
<path d="M5110 1275 c-8 -10 -10 -32 -6 -67 3 -29 2 -70 -3 -90 -6 -24 -5 -40
2 -47 6 -6 12 -53 13 -103 2 -116 -1 -108 28 -108 33 0 40 15 39 77 -1 49 1
55 31 78 49 38 75 36 103 -5 33 -47 48 -54 77 -35 l25 17 -20 31 c-10 18 -50
64 -89 103 -38 39 -70 75 -70 79 0 4 -14 25 -31 46 -33 42 -75 52 -99 24z
m104 -125 c47 -52 36 -89 -25 -90 -30 0 -39 19 -39 88 0 54 16 55 64 2z"/>
<path d="M2963 1257 c-5 -6 -15 -30 -22 -52 -16 -52 -38 -109 -80 -209 -29
-67 -27 -100 4 -114 22 -10 27 -9 39 11 8 12 18 41 22 64 3 24 12 50 18 59 12
15 15 15 45 0 l33 -17 -4 -89 c-3 -105 6 -124 50 -99 25 14 27 20 24 70 -1 30
-7 69 -12 86 -8 30 -5 35 28 63 23 19 41 45 48 71 11 36 10 45 -7 73 -19 32
-90 76 -123 76 -10 0 -26 4 -36 10 -12 7 -21 6 -27 -3z m124 -111 c11 -18 18
-37 15 -43 -28 -40 -124 -59 -136 -27 -8 21 32 102 53 107 29 6 46 -3 68 -37z"/>
<path d="M4978 1226 c-36 -19 -130 -46 -160 -46 -28 0 -58 -28 -58 -53 0 -22
45 -33 76 -18 45 20 39 28 81 -129 34 -133 46 -162 72 -171 18 -7 28 -6 39 5
12 12 7 34 -37 167 -29 84 -48 156 -44 160 5 5 26 12 48 17 31 6 42 14 50 36
7 21 6 29 -5 36 -20 13 -30 12 -62 -4z"/>
<path d="M3201 1166 c-7 -8 -11 -23 -9 -33 3 -14 13 -18 46 -17 57 1 60 -15
24 -128 -60 -189 -63 -227 -21 -236 33 -6 51 23 61 104 6 43 17 93 24 111 8
17 14 42 14 55 0 40 13 50 53 43 45 -9 87 1 87 19 0 18 -33 46 -56 46 -18 0
-144 29 -190 44 -13 4 -26 1 -33 -8z"/>
<path d="M4676 1131 c-8 -13 29 -170 43 -184 13 -13 15 -77 3 -77 -4 0 -26 21
-47 48 -22 26 -58 66 -80 89 -22 23 -48 54 -57 70 -19 32 -58 42 -78 18 -16
-20 -15 -80 4 -137 8 -24 17 -80 21 -126 6 -72 10 -85 33 -102 14 -12 33 -19
41 -18 24 5 25 54 2 99 -12 22 -21 52 -21 68 0 15 -3 31 -7 35 -10 10 -11 96
-1 96 4 0 8 -7 8 -15 0 -9 16 -29 35 -46 19 -17 35 -37 35 -43 0 -7 18 -33 41
-57 23 -24 53 -59 66 -76 30 -39 50 -41 81 -9 21 23 22 26 8 58 -13 30 -23 72
-58 248 -12 59 -16 65 -40 68 -14 2 -29 -1 -32 -7z"/>
<path d="M3495 1090 c-3 -5 -4 -14 -1 -19 3 -5 -3 -29 -14 -52 -11 -24 -20
-62 -20 -84 0 -22 -9 -73 -20 -114 -19 -67 -19 -75 -5 -97 14 -22 20 -23 75
-17 49 5 64 3 79 -11 27 -24 65 -17 69 12 2 13 -1 29 -8 37 -15 18 -78 29 -94
16 -9 -7 -19 -6 -35 6 -20 13 -22 22 -18 56 3 22 12 47 21 55 13 13 17 13 40
-1 46 -31 96 -14 96 32 0 14 -39 25 -87 22 -39 -2 -43 0 -43 21 0 13 -3 33 -6
45 -9 35 25 46 88 30 29 -7 61 -11 71 -9 21 4 22 30 1 60 -14 20 -24 22 -99
22 -46 0 -87 -4 -90 -10z"/>
<path d="M4285 1090 c-3 -5 -24 -10 -45 -10 -57 0 -91 -45 -59 -77 7 -7 13
-61 15 -130 2 -65 7 -134 11 -153 l9 -35 84 -2 c103 -3 127 1 135 27 17 54
-42 77 -111 44 -33 -16 -36 -16 -49 2 -16 22 -24 90 -21 194 l1 75 50 1 c75 1
97 10 93 42 -3 25 -7 27 -55 30 -28 2 -54 -2 -58 -8z"/>
<path d="M3765 1078 c-2 -7 -6 -35 -9 -63 -2 -27 -9 -79 -14 -115 -22 -150
-23 -187 -4 -211 16 -19 21 -20 42 -9 22 12 23 16 18 89 -6 90 3 188 17 182
12 -4 41 -106 50 -177 3 -30 14 -63 24 -75 15 -19 20 -20 39 -8 13 8 27 30 32
50 6 20 21 53 35 73 15 22 25 51 25 71 0 24 6 38 19 45 11 5 22 6 25 2 9 -14
-1 -97 -14 -121 -9 -18 -9 -30 -1 -48 6 -13 11 -37 11 -53 0 -35 12 -44 47
-35 24 6 25 8 18 53 -4 26 -8 72 -9 102 -1 30 -7 64 -13 75 -7 14 -8 39 -1 84
10 68 7 76 -34 86 -24 6 -28 3 -48 -42 -22 -50 -66 -184 -72 -218 -2 -12 -11
-20 -23 -20 -17 0 -21 9 -26 51 -4 29 -9 57 -13 62 -3 6 -10 33 -16 60 -13 69
-46 122 -76 122 -14 0 -26 -6 -29 -12z"/>
<path d="M4323 936 c-45 -16 -59 -31 -44 -50 17 -20 88 -31 106 -16 41 34 -7
85 -62 66z"/>
</g>
</svg>
