<?xml version="1.0" encoding="UTF-8" standalone="no"?>
<svg
   xmlns:dc="http://purl.org/dc/elements/1.1/"
   xmlns:cc="http://creativecommons.org/ns#"
   xmlns:rdf="http://www.w3.org/1999/02/22-rdf-syntax-ns#"
   xmlns:svg="http://www.w3.org/2000/svg"
   xmlns="http://www.w3.org/2000/svg"
   xmlns:xlink="http://www.w3.org/1999/xlink"
   xmlns:sodipodi="http://sodipodi.sourceforge.net/DTD/sodipodi-0.dtd"
   xmlns:inkscape="http://www.inkscape.org/namespaces/inkscape"
   width="599.99823"
   height="550.00153"
   viewBox="0 0 158.74952 145.52124"
   version="1.1"
   id="svg847"
   sodipodi:docname="drcongo.svg"
   inkscape:version="1.0.2 (e86c870879, 2021-01-15, custom)">
  <defs
     id="defs841">
    <linearGradient
       inkscape:collect="always"
       id="linearGradient1421">
      <stop
         style="stop-color:#f0d5a5;stop-opacity:1"
         offset="0"
         id="stop1417" />
      <stop
         style="stop-color:#fbf4e7;stop-opacity:1"
         offset="1"
         id="stop1419" />
    </linearGradient>
    <linearGradient
       inkscape:collect="always"
       xlink:href="#linearGradient1421"
       id="linearGradient1423"
       x1="49.173798"
       y1="121.36502"
       x2="44.635521"
       y2="85.117577"
       gradientUnits="userSpaceOnUse" />
  </defs>
  <sodipodi:namedview
     id="base"
     pagecolor="#ffffff"
     bordercolor="#666666"
     borderopacity="1.0"
     inkscape:pageopacity="0.0"
     inkscape:pageshadow="2"
     inkscape:zoom="0.7"
     inkscape:cx="238.66381"
     inkscape:cy="188.24677"
     inkscape:document-units="px"
     inkscape:current-layer="layer1"
     inkscape:document-rotation="0"
     showgrid="false"
     inkscape:snap-smooth-nodes="true"
     inkscape:showpageshadow="false"
     borderlayer="true"
     units="px"
     inkscape:window-width="1920"
     inkscape:window-height="1017"
     inkscape:window-x="-8"
     inkscape:window-y="-4"
     inkscape:window-maximized="1"
     inkscape:snap-global="true"
     showguides="false" />
  <metadata
     id="metadata844">
    <rdf:RDF>
      <cc:Work
         rdf:about="">
        <dc:format>image/svg+xml</dc:format>
        <dc:type
           rdf:resource="http://purl.org/dc/dcmitype/StillImage" />
        <dc:title />
      </cc:Work>
    </rdf:RDF>
  </metadata>
  <g
     inkscape:label="Layer 1"
     inkscape:groupmode="layer"
     id="layer1"
     transform="translate(-12.519101,-57.183257)">
    <g
       id="g1650"
       transform="matrix(0.97453184,0,0,0.97601621,0.32669476,1.3778215)"
       style="stroke-width:1.02535">
      <g
         id="g858"
         style="stroke-width:1.02535">
        <path
           style="font-variation-settings:normal;vector-effect:none;fill:#f7d618;fill-opacity:1;stroke:#000000;stroke-width:0.542583;stroke-linecap:butt;stroke-linejoin:miter;stroke-miterlimit:4;stroke-dasharray:none;stroke-dashoffset:0;stroke-opacity:1;stop-color:#000000"
           d="m 92.793157,90.572545 c -0.637836,-0.566964 -1.133929,-0.708705 -1.133929,-0.708705 -0.708705,0.496094 -1.054857,1.275069 -1.054857,1.275069 -0.50113,-0.300678 -1.102487,-0.601356 -1.102487,-0.601356 -0.801808,0.400904 -0.902034,1.102487 -0.902034,1.102487 -1.002259,-0.501131 -1.904299,-0.400905 -1.904299,-0.400905 l -0.20045,1.102487 c -1.90429,-0.400904 -4.30972,0.300678 -4.30972,0.300678 l 0.12467,0.776529 c -2.69309,0.992188 -5.91161,3.059593 -7.47077,4.193521 -1.55915,1.13393 -2.97656,1.13393 -4.81919,-0.14174 -1.84264,-1.27567 -3.07526,-0.81265 -4.53572,-2.834823 -1.46046,-2.022171 -4.61874,-2.228044 -4.61874,1.617863 0,3.84591 1.92566,6.60312 1.92566,6.60312 0,0 -0.23623,5.14993 2.59859,8.26823 0,0 -1.55915,7.37054 1.27567,12.7567 0,0 0.85045,3.82701 3.96875,4.96093 0,0 0.42522,1.55916 0.56697,2.55134 0,0 2.83482,0.85045 5.10267,2.4096 0,0 2.83483,5.95313 4.25224,9.63839 1.41741,3.68527 2.26785,4.25224 2.26785,4.25224 0,0 -0.28348,2.12611 1.27567,2.97656 0,0 0.83899,3.88572 5.811387,3.28437 0,0 1.522345,0.82734 4.049073,0.82734 2.526728,0 4.049073,-0.82734 4.049073,-0.82734 4.972406,0.60135 5.811386,-3.28437 5.811386,-3.28437 1.55915,-0.85045 1.27567,-2.97656 1.27567,-2.97656 0,0 0.85044,-0.56697 2.26785,-4.25224 1.41742,-3.68526 4.25224,-9.63839 4.25224,-9.63839 2.26785,-1.55915 5.10268,-2.4096 5.10268,-2.4096 0.14174,-0.99218 0.56696,-2.55134 0.56696,-2.55134 3.1183,-1.13392 3.96875,-4.96093 3.96875,-4.96093 2.83482,-5.38616 1.27567,-12.7567 1.27567,-12.7567 2.83482,-3.1183 2.59859,-8.26823 2.59859,-8.26823 0,0 1.92566,-2.75721 1.92566,-6.60312 0,-3.845907 -3.15828,-3.640034 -4.61874,-1.617863 -1.46046,2.022173 -2.69308,1.559153 -4.53572,2.834823 -1.84263,1.27567 -3.26004,1.27567 -4.81919,0.14174 -1.55916,-1.133928 -4.77768,-3.201333 -7.47077,-4.193521 l 0.12467,-0.776529 c 0,0 -2.40543,-0.701582 -4.30972,-0.300678 l -0.20045,-1.102487 c 0,0 -0.90204,-0.100226 -1.904298,0.400905 0,0 -0.100226,-0.701583 -0.902034,-1.102487 0,0 -0.601357,0.300678 -1.102487,0.601356 0,0 -0.346152,-0.778975 -1.054857,-1.275069 0,0 -0.496093,0.141741 -1.133929,0.708705 0,0 -0.425223,-0.850446 -1.167004,-1.133928 -0.741781,0.283482 -1.167004,1.133928 -1.167004,1.133928 z"
           id="path1045"
           sodipodi:nodetypes="sssscccccssssccccccscccccccsccccccsssscccccsssscs" />
        <path
           style="font-variation-settings:normal;opacity:1;vector-effect:none;fill:#e3ada5;fill-opacity:1;stroke:#000000;stroke-width:0.542583;stroke-linecap:butt;stroke-linejoin:miter;stroke-miterlimit:4;stroke-dasharray:none;stroke-dashoffset:0;stroke-opacity:1;stop-color:#000000;stop-opacity:1"
           d="m 90.359933,130.14193 -3.897879,1.58277 -0.377978,5.33892 c 0,0 0.452178,1.46515 0.344207,3.52015 l -0.03341,6.94901 7.565282,-0.0334 7.565285,0.0334 -0.0334,-6.94901 c -0.10797,-2.055 0.3442,-3.52015 0.3442,-3.52015 l -0.37797,-5.33892 -3.897883,-1.58277 c -2.078943,-0.063 -3.600227,-1.13393 -3.600227,-1.13393 0,0 -1.521284,1.07091 -3.600227,1.13393 z"
           id="path925"
           sodipodi:nodetypes="ccccccccccccc" />
        <path
           style="font-variation-settings:normal;vector-effect:none;fill:#e3ada5;fill-opacity:1;stroke:#000000;stroke-width:0.542583;stroke-linecap:butt;stroke-linejoin:miter;stroke-miterlimit:4;stroke-dasharray:none;stroke-dashoffset:0;stroke-opacity:1;stop-color:#000000"
           d="m 95.07992,126.14955 c 0.696437,-1.01457 1.384985,-1.53087 3.22515,-1.88138 1.84016,-0.35051 2.86974,-1.79059 2.79417,-3.41273 0,0 -1.945812,-1.38596 -3.449203,0.0172 -1.503391,1.40317 -2.351254,1.80407 -3.689877,1.80407 -1.338623,0 -2.186486,-0.4009 -3.689877,-1.80407 -1.503391,-1.40316 -3.449204,-0.0172 -3.449204,-0.0172 -0.07557,1.62214 0.954008,3.06222 2.794171,3.41273 1.840165,0.35051 2.528713,0.86681 3.22515,1.88138 0.765401,1.11503 1.11976,2.85845 1.11976,2.85845 0,0 0.354359,-1.74342 1.11976,-2.85845 z"
           id="path1061"
           sodipodi:nodetypes="sscscscsscs" />
        <path
           style="font-variation-settings:normal;opacity:1;vector-effect:none;fill:#000000;fill-opacity:1;stroke:none;stroke-width:0.271291;stroke-linecap:butt;stroke-linejoin:miter;stroke-miterlimit:4;stroke-dasharray:none;stroke-dashoffset:0;stroke-opacity:1;stop-color:#000000;stop-opacity:1"
           d="m 63.00879,95.548856 c 0,0 -1.302938,4.209495 1.904296,6.715144 0,0 -0.701582,3.60814 1.102488,6.21402 0,0 0.601356,-3.00678 2.605878,-3.10701 0,0 -2.104748,-2.10475 -1.503392,-5.31198 0,0 -1.904295,-0.801809 -2.505651,-2.605878 -0.601357,-1.804069 -1.603619,-1.904296 -1.603619,-1.904296 z"
           id="path873" />
        <path
           id="path875"
           style="color:#000000;font-style:normal;font-variant:normal;font-weight:normal;font-stretch:normal;font-size:medium;line-height:normal;font-family:sans-serif;font-variant-ligatures:normal;font-variant-position:normal;font-variant-caps:normal;font-variant-numeric:normal;font-variant-alternates:normal;font-variant-east-asian:normal;font-feature-settings:normal;font-variation-settings:normal;text-indent:0;text-align:start;text-decoration:none;text-decoration-line:none;text-decoration-style:solid;text-decoration-color:#000000;letter-spacing:normal;word-spacing:normal;text-transform:none;writing-mode:lr-tb;direction:ltr;text-orientation:mixed;dominant-baseline:auto;baseline-shift:baseline;text-anchor:start;white-space:normal;shape-padding:0;shape-margin:0;inline-size:0;clip-rule:nonzero;display:inline;overflow:visible;visibility:visible;opacity:1;isolation:auto;mix-blend-mode:normal;color-interpolation:sRGB;color-interpolation-filters:linearRGB;solid-color:#000000;solid-opacity:1;vector-effect:none;fill:#000000;fill-opacity:1;fill-rule:nonzero;stroke:none;stroke-width:3.87535;stroke-linecap:butt;stroke-linejoin:miter;stroke-miterlimit:4;stroke-dasharray:none;stroke-dashoffset:0;stroke-opacity:1;color-rendering:auto;image-rendering:auto;shape-rendering:auto;text-rendering:auto;enable-background:accumulate;stop-color:#000000;stop-opacity:1"
           d="m 320.72461,405.70117 c 0.46202,7.97473 8.97216,10.98013 11.71875,16.12891 -0.0155,13.76243 -10.58594,22.51172 -10.58594,22.51172 0,0 12.50079,-6.46383 12.07617,-22.90625 -4.26147,-6.18142 -10.98858,-10.06811 -13.20898,-15.73438 z m 68.80078,0 c -2.2204,5.66627 -8.94751,9.55296 -13.20898,15.73438 -0.42462,16.44242 12.07617,22.90625 12.07617,22.90625 0,0 -10.57044,-8.74929 -10.58594,-22.51172 2.7466,-5.14878 11.25674,-8.15418 11.71875,-16.12891 z m -99.10351,15.53125 c 0,0 5.64185,3.75393 11.0332,10.35352 5.39134,6.59954 12.05486,-0.95219 15.85937,-0.125 -3.67767,-2.21866 -9.72683,4.86765 -15.25976,-1.52735 -5.53294,-6.39503 -11.63282,-8.70117 -11.63281,-8.70117 z m 129.40624,0 c 0,0 -6.09988,2.30614 -11.63281,8.70117 -5.53292,6.395 -11.58209,-0.69131 -15.25976,1.52735 3.80451,-0.82719 10.46803,6.72454 15.85937,0.125 5.39135,-6.59959 11.0332,-10.35352 11.0332,-10.35352 z m -117.41406,29.42383 c -0.82953,6.29964 -12.58462,5.71326 -18.8457,9.04687 -6.26108,3.33362 -10.13649,10.12625 -9.93555,16.35547 0.38995,12.08844 9.46289,18.15821 9.46289,18.15821 0,0 -7.59718,-6.80558 -7.96484,-18.20313 -0.1872,-5.8032 2.92015,-10.77622 9.38867,-14.61523 6.46853,-3.83902 19.84755,-3.69348 17.89453,-10.74219 z m 105.42188,0 c -1.95304,7.04871 11.42602,6.90317 17.89453,10.74219 6.46855,3.83901 9.57576,8.81203 9.38867,14.61523 -0.36767,11.39755 -7.96484,18.20313 -7.96484,18.20313 0,0 9.07295,-6.06977 9.46289,-18.15821 0.20095,-6.22922 -3.6745,-13.02185 -9.93555,-16.35547 -6.26109,-3.33361 -18.01617,-2.74723 -18.8457,-9.04687 z m -148.22656,12.87891 c 4.19969,11.95207 6.61914,23.58007 6.61914,23.58007 l 2.13867,1.43946 c 0,0 -2.30494,-12.54808 -8.75781,-25.01953 z m 191.03124,0 c -6.45286,12.47145 -8.75781,25.01953 -8.75781,25.01953 l 2.13867,-1.43946 c 0,0 2.41949,-11.628 6.61914,-23.58007 z m -149.21289,37.35937 c 0,0 2.10955,2.50689 4.86133,6.76563 2.75179,4.25873 5.65054,10.82484 6.92774,20.01953 0.20575,-9.5554 -2.79281,-16.38542 -5.66602,-20.83203 -2.87321,-4.44666 -6.12305,-5.95313 -6.12305,-5.95313 z m 107.39454,0 c 0,0 -3.24982,1.50647 -6.12305,5.95313 -2.8732,4.44661 -5.87162,11.27663 -5.66602,20.83203 1.27722,-9.19469 4.17594,-15.7608 6.92774,-20.01953 2.75176,-4.25874 4.86133,-6.76563 4.86133,-6.76563 z m -95.13477,2.60156 c 0,0 2.62579,6.1745 3.43945,14.9043 0.81367,8.72976 0.62863,19.10773 -2.30859,25.88477 4.56278,-6.61584 4.62394,-17.17283 3.79883,-26.02539 -0.82511,-8.85256 -4.92969,-14.76368 -4.92969,-14.76368 z m 82.875,0 c 0,0 -4.10458,5.91112 -4.92969,14.76368 -0.82511,8.85256 -0.76393,19.40955 3.79883,26.02539 -2.93722,-6.77704 -3.1203,-17.15501 -2.30664,-25.88477 0.81366,-8.7298 3.4375,-14.9043 3.4375,-14.9043 z m -55.88867,63.83203 c -7.97595,-0.209 -14.5006,4.32951 -23.04883,1.02344 l -0.29492,1.46875 c 7.98374,3.49648 15.86331,-1.23651 23.34375,-2.49219 z m 28.90234,0 c 7.48044,1.25568 15.36003,5.98867 23.34375,2.49219 l -0.29492,-1.46875 c -8.54823,3.30607 -15.07288,-1.23244 -23.04883,-1.02344 z"
           transform="scale(0.26458333)" />
        <path
           id="path877"
           style="font-variation-settings:normal;opacity:1;vector-effect:none;fill:#ffffff;fill-opacity:1;stroke:#000000;stroke-width:2.0507;stroke-linecap:butt;stroke-linejoin:miter;stroke-miterlimit:4;stroke-dasharray:none;stroke-dashoffset:0;stroke-opacity:1;stop-color:#000000;stop-opacity:1"
           d="m 304.47656,407.86914 c -6.55218,0.10653 -11.02734,3.51563 -11.02734,3.51563 0,0 1.13685,9.092 9.0918,9.84961 7.95494,0.7576 12.87952,5.68064 22.72851,1.89257 0,0 -3.40892,-10.22755 -13.63672,-14.01562 -2.55695,-0.94702 -4.97219,-1.2777 -7.15625,-1.24219 z m 101.29688,0 c -2.18406,-0.0355 -4.59931,0.29517 -7.15625,1.24219 -10.22778,3.78807 -13.63672,14.01562 -13.63672,14.01562 9.84899,3.78807 14.77355,-1.13497 22.72851,-1.89257 7.95493,-0.75761 9.0918,-9.84961 9.0918,-9.84961 0,0 -4.47517,-3.4091 -11.02734,-3.51563 z"
           transform="scale(0.26458333)" />
        <path
           id="path879"
           style="font-variation-settings:normal;opacity:1;vector-effect:none;fill:#000000;fill-opacity:1;stroke:none;stroke-width:1.02535;stroke-linecap:butt;stroke-linejoin:miter;stroke-miterlimit:4;stroke-dasharray:none;stroke-dashoffset:0;stroke-opacity:1;stop-color:#000000;stop-opacity:1"
           d="m 308.39258,408.125 c 0,0 -6.16127,3.21345 -3.21485,13.92773 l 6.69727,1.33985 c 0,0 4.82171,-4.28626 3.48242,-12.58985 l -3.45703,-1.42382 c 0,0 0.77734,5.71096 -2.97266,9.46093 0,0 -1.875,-2.94616 1.875,-9.64257 z m 93.46484,0 -2.41015,1.07227 c 3.75001,6.69641 1.875,9.64257 1.875,9.64257 -3.75001,-3.74997 -2.97266,-9.46093 -2.97266,-9.46093 l -3.45703,1.42382 c -1.33932,8.30359 3.48242,12.58985 3.48242,12.58985 l 6.69727,-1.33985 c 2.9464,-10.71428 -3.21485,-13.92773 -3.21485,-13.92773 z"
           transform="scale(0.26458333)" />
        <path
           id="path938"
           style="font-variation-settings:normal;opacity:1;vector-effect:none;fill:#000000;fill-opacity:1;stroke:none;stroke-width:1.02535;stroke-linecap:butt;stroke-linejoin:miter;stroke-miterlimit:4;stroke-dasharray:none;stroke-dashoffset:0;stroke-opacity:1;stop-color:#000000;stop-opacity:1"
           d="m 314.38672,485.82812 c -2.74828,0.16698 -3.88803,8.60525 0.90625,16.59571 5.68211,9.47017 6.81991,19.31976 5.30469,32.19922 0,0 2.65019,-5.68226 1.89257,-15.53125 0,0 3.41036,5.93457 4.16797,12.24804 0,0 0.37822,-15.6562 -2.27343,-22.85351 -2.65165,-7.19736 -1.89454,-18.2461 -1.89454,-18.2461 0,0 -2.65138,0.18839 -6.43945,-3.59961 -0.59189,-0.59189 -1.15512,-0.84342 -1.66406,-0.8125 z m 81.47656,0 c -0.50894,-0.0309 -1.07218,0.22061 -1.66406,0.8125 -3.78811,3.788 -6.43945,3.59961 -6.43945,3.59961 0,0 0.75711,11.04874 -1.89454,18.2461 -2.65164,7.19731 -2.27343,22.85351 -2.27343,22.85351 0.7576,-6.31347 4.16797,-12.24804 4.16797,-12.24804 -0.75761,9.84899 1.89257,15.53125 1.89257,15.53125 -1.51521,-12.87946 -0.37741,-22.72905 5.30469,-32.19922 4.79428,-7.99046 3.65453,-16.42873 0.90625,-16.59571 z m -40.73828,8.09961 -15.71289,3.19336 0.50586,2.47266 c 0,0 2.14426,3.20957 8.58398,5.48242 6.43972,2.27282 3.97813,8.33449 6.62305,17.61524 2.64492,-9.28075 0.18332,-15.34242 6.62305,-17.61524 6.43972,-2.27285 8.58398,-5.48242 8.58398,-5.48242 l 0.50586,-2.47266 z"
           transform="scale(0.26458333)" />
        <path
           id="path999"
           style="font-variation-settings:normal;opacity:1;vector-effect:none;fill:#000000;fill-opacity:1;stroke:none;stroke-width:1.02535;stroke-linecap:butt;stroke-linejoin:miter;stroke-miterlimit:4;stroke-dasharray:none;stroke-dashoffset:0;stroke-opacity:1;stop-color:#000000;stop-opacity:1"
           d="m 335.26758,459.01758 c 0,0 -2.14286,4.01755 1.875,5.89258 4.01786,1.87498 4.55469,5.08984 4.55469,5.08984 l 8.03515,4.28516 c 0,0 -0.26758,-6.42775 -5.89258,-8.30274 -5.625,-1.87502 -7.50083,-5.08982 -8.57226,-6.96484 z m 39.71484,0 c -1.07143,1.87502 -2.94726,5.08982 -8.57226,6.96484 -5.625,1.87499 -5.89258,8.30274 -5.89258,8.30274 L 368.55273,470 c 0,0 0.53683,-3.21486 4.55469,-5.08984 4.01786,-1.87503 1.875,-5.89258 1.875,-5.89258 z"
           transform="scale(0.26458333)" />
        <path
           style="font-variation-settings:normal;vector-effect:none;fill:#000000;fill-opacity:1;stroke:none;stroke-width:0.271291;stroke-linecap:butt;stroke-linejoin:miter;stroke-miterlimit:4;stroke-dasharray:none;stroke-dashoffset:0;stroke-opacity:1;stop-color:#000000"
           d="m 124.91153,95.548856 c 0,0 1.30294,4.209495 -1.9043,6.715144 0,0 0.70159,3.60814 -1.10248,6.21402 0,0 -0.60136,-3.00678 -2.60588,-3.10701 0,0 2.10475,-2.10475 1.50339,-5.31198 0,0 1.9043,-0.801809 2.50565,-2.605878 0.60136,-1.804069 1.60362,-1.904296 1.60362,-1.904296 z"
           id="path1047" />
        <path
           style="font-variation-settings:normal;vector-effect:none;fill:#ffffff;fill-opacity:1;stroke:#000000;stroke-width:0.542583;stroke-linecap:butt;stroke-linejoin:miter;stroke-miterlimit:4;stroke-dasharray:none;stroke-dashoffset:0;stroke-opacity:1;stop-color:#000000"
           d="m 88.232353,148.50163 c -2.405426,0.30068 -4.009043,-0.60135 -3.708365,-2.7061 0.300679,-2.10475 1.904296,-5.21176 1.904296,-5.21176 0.989965,2.37592 1.152818,5.31251 1.703843,6.31425 1.091407,0 0.695956,-0.60136 1.703844,-1.20272 0,0 0.701582,0.40091 1.302939,1.10249 0,0 0.501129,-0.60136 1.403164,-0.90204 0,0 0.902035,0.70159 1.418086,1.20272 0.516051,-0.50113 1.418086,-1.20272 1.418086,-1.20272 0.902035,0.30068 1.403164,0.90204 1.403164,0.90204 0.601357,-0.70158 1.302939,-1.10249 1.302939,-1.10249 1.007888,0.60136 0.612437,1.20272 1.703844,1.20272 0.551027,-1.00174 0.713877,-3.93833 1.703847,-6.31425 0,0 1.60361,3.10701 1.90429,5.21176 0.30068,2.10475 -1.30294,3.00678 -3.708363,2.7061 -2.405426,-0.30068 -4.209495,-0.4009 -5.727807,-0.10022 -1.518312,-0.30068 -3.322381,-0.20046 -5.727807,0.10022 z"
           id="path892"
           sodipodi:nodetypes="sscccccccccccsscs" />
        <path
           style="font-variation-settings:normal;vector-effect:none;fill:#ffffff;fill-opacity:1;stroke:#000000;stroke-width:0.542583;stroke-linecap:butt;stroke-linejoin:miter;stroke-miterlimit:4;stroke-dasharray:none;stroke-dashoffset:0;stroke-opacity:1;stop-color:#000000"
           d="m 95.416379,133.1779 c 0.850446,-0.56697 1.742408,-1.3587 1.742408,-1.3587 0.266286,0.56696 0.874765,1.01651 0.874765,1.01651 1.092414,-0.38371 2.001568,-0.79174 2.001568,-0.79174 0.76742,3.26299 1.80112,5.01965 1.80112,5.01965 0,0 1.98438,-3.68528 1.84264,-7.51229 0,0 -1.82286,0.91089 -5.173553,0.63785 -3.350695,-0.27304 -4.545167,0.49608 -4.545167,0.49608 0,0 -1.194472,-0.76912 -4.545167,-0.49608 -3.350696,0.27304 -5.173551,-0.63785 -5.173551,-0.63785 -0.14174,3.82701 1.842634,7.51229 1.842634,7.51229 0,0 1.033704,-1.75666 1.801121,-5.01965 0,0 0.909157,0.40803 2.001571,0.79174 0,0 0.608479,-0.44955 0.874765,-1.01651 0,0 0.891962,0.79173 1.742408,1.3587 0,0 0.850447,-0.75023 1.456219,-1.71809 0.605772,0.96786 1.456219,1.71809 1.456219,1.71809 z"
           id="path1059"
           sodipodi:nodetypes="ccccsczczcscccccc" />
        <path
           style="fill:#000000;stroke:none;stroke-width:0.271291px;stroke-linecap:butt;stroke-linejoin:miter;stroke-opacity:1"
           d="m 69.690529,109.98141 c -1.08517,0.53718 -1.022215,0.86167 -1.30294,1.70384 -0.320469,0.96141 -1.80407,0.0542 -1.80407,1.40317 0,0.37793 1.051026,0.85057 1.302941,1.10249 0.486103,0.4861 0.374949,2.01317 1.603616,1.60361 1.0791,-0.3597 -0.125005,-1.32772 -0.400905,-1.60361 -0.310761,-0.31077 0.413047,-1.59148 0,-2.00453 -0.16283,-0.16283 1.720591,-1.64535 0.601358,-2.20497 z m -3.006782,7.71741 c -2.066674,-0.34476 -1.150247,2.75386 0.100226,1.50339 0.672168,-0.67217 0.241674,-0.81959 -0.100226,-1.50339 z m 2.104748,0.30068 c -0.745086,0.0294 -0.507066,0.61323 -0.701583,1.00226 -0.736545,1.47309 2.128826,1.45132 1.403165,0 -0.331246,-0.6625 -0.106634,-0.70479 -0.701582,-1.00226 z m -3.507913,-6.41447 c 0.353231,0.18129 0.5007,0.5007 0.701583,0.70158 0.270971,0.27097 -0.346126,2.0593 -0.801809,1.60362 -0.461976,-0.46198 0.404688,-1.69628 0.100226,-2.3052 z m 7.015826,2.90655 c -0.04032,-0.27209 -0.612558,-0.7794 -0.801809,-0.4009 -0.213415,0.42683 0.29993,1.30369 0.100226,1.50339 -0.120162,0.12016 -1.078302,1.82825 -0.801809,2.10475 0.987051,0.98705 1.374949,-1.07427 1.403165,-1.10249 0.195533,-0.19553 0.830875,0.89235 1.403165,0.70158 0.825534,-0.27517 -0.601356,-1.86881 -0.601356,-1.50339 0,0.68582 1.076148,-0.72792 0.801809,-1.00226 -0.465595,-0.46559 -1.161475,0.38316 -1.503391,-0.30068 z m -1.503392,3.70837 c -1.312483,1.22928 2.297549,1.14877 0,0 z m 2.104748,2.3052 c -0.982114,-2.71863 -1.870201,0.46806 -1.002261,0.90203 0.622232,0.31112 0.714817,-0.75831 1.002261,-0.90203 z m -2.906556,0.70158 c -1.958092,-0.16268 -1.804069,-0.0295 -1.804069,1.50339 0,0.35462 -0.282811,0.61923 -0.100227,0.80181 0.381557,0.38156 0.453834,-1.05519 0.501131,-1.10249 0.576632,-0.57663 0.48287,1.33946 1.302939,-0.30067 0.08147,-0.16295 0.765379,-0.43734 0.50113,-0.70159 -0.196247,-0.19624 -0.199189,0.20298 -0.400904,-0.20045 z m 5.913338,-2.40542 c -0.578565,0.0167 -1.806175,-0.60031 -2.204973,-0.40091 -0.315976,0.15799 0.298383,1.7027 0.50113,1.80407 0.839107,0.41955 0.711052,-0.41037 1.002261,-0.70158 0.5869,-0.5869 1.062001,0.97239 1.603617,0.70158 0.747372,-0.37369 -0.671639,-1.28797 -0.902035,-1.40316 z m 2.3052,-0.50113 c -1.403614,-0.33743 -1.3157,1.67894 -0.300678,1.00226 0.462513,-0.30835 0.205094,-0.8111 0.300678,-1.00226 z m -2.3052,-1.9043 c -1.615809,0.85117 0.888867,1.77773 0,0 z m 1.603617,-0.90203 c -0.524622,-0.31361 -0.412245,-1.01361 -0.801808,-1.40317 -0.100226,-0.10023 -0.501131,0.10023 -0.601357,0 -0.134657,-0.13466 -0.362508,-1.44156 -0.902034,-0.90203 -1.014494,1.01449 -0.189036,1.30674 0.701582,1.60361 0.283544,0.0945 -0.0015,0.79882 0.100226,1.00226 0.119825,0.23965 1.80704,0.30662 1.503391,-0.30067 z m 0.801809,0.90203 c -0.420204,-0.25376 -0.66443,0.0304 -1.002261,0.30068 -1.057574,0.84606 2.234517,0.31545 1.002261,-0.30068 z m 1.503391,0.70158 c -1.74847,0.44201 0.300678,1.92188 0.300678,0.50113 0,-0.39776 0.04014,-0.33072 -0.300678,-0.50113 z m 1.503391,0.70158 c -1.164694,0.0435 0.656858,1.31372 0,0 z m 1.904296,-0.20045 c -2.193201,1.37793 0.75475,1.5095 0,0 z m 0.100226,-2.40542 c -1.906327,0.40115 0.300678,2.04445 0.300678,0.50113 0,-0.254 -0.07815,-0.38987 -0.300678,-0.50113 z m 1.804069,-0.40091 c -1.448873,0.11365 -0.506246,1.40828 0.100226,0.80181 0.123459,-0.12346 -0.100226,-0.65623 -0.100226,-0.80181 z m -3.107008,1.70385 c -1.181407,-0.0617 0.796641,1.59328 0,0 z m -8.218538,-6.01357 c -0.483511,0.11137 -0.186501,0.98831 -0.400905,1.20271 -0.187224,0.18723 -0.59628,0.0901 -0.801808,0.50113 -0.622473,1.24495 1.223867,1.08134 1.703843,0.60136 0.338777,-0.33878 -0.507756,-2.29195 -0.50113,-2.3052 z m 1.403165,-0.4009 c -2.614846,2.51624 1.860117,0.93006 0,0 z m -1.503391,-2.60588 c -0.162749,1.40021 -1.601018,1.09989 -2.3052,1.80407 -0.43,0.43 -0.452178,3.79227 0.100226,3.60814 0.43914,-0.14638 0.777602,-2.78213 0.902035,-2.90656 0.0869,-0.0869 0.59033,-0.0261 0.701582,-0.10022 0.475195,-0.3168 0.967002,-1.67414 0.601357,-2.40543 z m 3.006782,-0.20045 c -0.751282,-0.15264 -2.811441,0.18512 -2.405426,1.40316 0.228341,0.68503 1.377911,-0.52638 1.703843,-0.20045 0.125344,0.12534 0.316951,1.88802 0.801809,1.40317 0.167043,-0.16705 0.03341,-0.63477 0.200452,-0.80181 0.90189,-0.90189 1.325017,-0.99123 -0.300678,-1.80407 z m -6.013565,-1.80407 c -2.516465,0.066 0.200453,2.5854 0.200453,0.50113 0,-0.27211 0.0672,-0.3673 -0.200453,-0.50113 z m -2.004521,-6.715149 c -0.955944,-0.730659 -1.264461,2.613639 -0.801809,2.305199 0.54597,-0.36398 1.755509,-1.828349 0.801809,-2.305199 z m 0.601356,3.608139 c -0.313859,0.0266 -0.827825,-0.0742 -1.00226,0.10023 -0.661187,0.66118 1.271555,1.95693 1.904295,1.70384 1.211175,-0.48447 0.04116,-2.11847 -0.902035,-1.80407 z m 3.207235,0.70158 c -0.558195,-0.20634 -0.590007,-0.20726 -1.102487,0.10023 -0.568568,0.34114 -0.559329,1.01627 0,1.20271 0.588642,0.19622 0.194177,-0.4009 0.601356,-0.4009 0.154391,0 0.888339,0.28589 1.002261,0.20045 0.536047,-0.40204 -0.118974,-1.10249 -0.50113,-1.10249 z m -7.41673,-7.416727 c -1.454597,1.532534 1.917383,0.958691 0,0 z m 10.623964,5.913337 c -1.426443,-0.13067 -1.577496,2.03064 -0.801809,2.80633 0.335775,0.33578 3.204511,-0.50658 2.505652,-1.90429 -0.332171,-0.66435 -1.21714,0.8876 -1.603617,0.50113 -0.08226,-0.0823 0.506858,-0.79609 -0.100226,-1.40317 z m 0.300678,3.50791 c -0.796254,-0.73674 -2.246837,1.06063 -1.703843,1.60362 0.749859,0.74986 2.1191,-0.7731 1.703843,-1.60362 z m 1.703843,-0.50113 c -1.891727,0.37562 0.400905,2.24023 0.400905,0.70159 0,-0.36324 -0.06226,-0.53226 -0.400905,-0.70159 z m 0.839562,-6.484378 c 0.14283,-0.7936 -0.36276,-1.125521 -0.921316,-0.566964 -0.122532,0.122531 0.01305,0.341303 -0.07087,0.425223 -0.110791,0.110791 -1.071475,0.52732 -1.27567,0.425223 -0.105137,-0.05257 -0.418084,-0.715844 -0.637834,-0.496094 -0.09242,0.09242 -0.158216,0.387302 -0.212612,0.496094 -0.994702,1.989406 1.657671,0.467279 1.913504,0.637835 0.203297,0.135531 0.281255,0.36719 0.496094,0.496094 0.958985,0.575387 0.895656,-1.04351 0.708704,-1.417411 z m -0.47247,2.598588 c -6.95e-4,-0.14772 -0.145317,-0.4961 -0.283482,-0.4961 -0.435022,0 -0.426583,0.003 -0.637835,0.42523 -0.728756,1.45751 1.773209,1.77465 0.921317,0.0709 z m 2.126116,-1.984377 c -0.279615,0.08998 -0.381932,0.132314 -0.566964,0.354353 -0.3252,0.390239 -0.750876,0.892617 -1.063058,1.204804 -0.294079,0.29407 0.666662,0.28035 0.779576,0.21261 0.399133,-0.23948 1.057117,-1.358425 0.850446,-1.771767 z m 0.496094,2.267857 c -0.922972,-0.35457 -2.546488,1.98923 -2.126116,2.4096 0.33324,0.33324 1.116488,0.19517 1.34654,0.42522 0.102706,0.10271 0.215543,1.8397 0.992188,1.06306 0.129388,-0.12939 0.184836,-0.39745 0.283482,-0.49609 0.817962,-0.81797 -2.038868,-1.50466 -1.27567,-2.26786 0.326939,-0.32694 1.975853,-0.53579 0.779576,-1.13393 z m 3.756139,-2.267857 c -0.333036,0.0063 -1.171753,0.21739 -1.346541,0.566965 -0.103351,0.206703 -0.04901,0.618612 -0.141741,0.850442 -0.137418,0.34355 -1.09423,0.85045 0.141741,0.85045 0.196633,0 0.200506,0.0317 0.354353,-0.0709 0.251159,-0.16744 0.430844,-1.230296 0.779576,-1.34654 0.250456,-0.08349 1.204799,-0.06924 1.204799,-0.566965 0,-0.417447 -0.779395,-0.354413 -0.992187,-0.283482 z m 1.559151,-3.330915 c -0.47565,0.01272 -1.181672,0.166358 -1.41741,0.637835 -0.04579,0.09159 0.05641,0.269741 0,0.354353 -0.252645,0.378966 -0.769867,0.264063 -1.133929,0.992187 -0.170066,0.340133 1.173162,0.540809 1.34654,0.425223 0.598943,-0.399295 0.561991,-0.873448 0.779576,-1.41741 0.202838,-0.507096 1.265982,-0.571809 0.425223,-0.992188 z m -2.126116,-0.566964 c -0.526376,-0.256174 -0.982664,0.34483 -1.275669,0.637835 -0.04225,0.04224 -0.211649,-0.176695 -0.283483,-0.212612 -0.19541,-0.09771 -0.440533,-0.04309 -0.637834,-0.141741 -0.267509,-0.133754 -0.883372,0.60491 -0.850447,0.637835 0.322025,0.322025 1.209105,0.07518 1.34654,0.212611 0.198712,0.198712 0.509712,0.510407 0.850447,0.425224 0.337052,-0.08426 0.110058,-0.464411 0.283482,-0.637835 0.285895,-0.285896 1.143266,-0.633166 0.566964,-0.921317 z m -1.559152,2.480469 c -2.090357,0.09904 -0.166586,2.349453 0.566965,0.637834 0.158879,-0.370718 -0.343063,-0.749785 -0.566965,-0.637834 z m 3.401786,2.409598 c -0.505732,-0.01167 -1.909533,1.992319 -1.842634,2.126119 0.172839,0.34567 1.50587,0.22166 1.700893,-0.0709 0.254667,-0.382 0.713913,-2.245973 0.141741,-2.055249 z m 0,3.472659 c -1.373406,-0.57349 -0.470054,1.58156 -1.133928,1.9135 -2.397852,1.19893 -0.04516,-2.53628 -1.913505,-1.9135 -0.278094,0.0927 -0.681225,3.21665 -0.566964,3.33091 0.525115,0.52512 1.016332,-0.54885 1.275669,-0.35435 0.266811,0.20011 0.450548,1.27567 0.779576,1.27567 0.07087,0 -0.0139,-0.14312 0,-0.21261 0.05202,-0.26011 0.169615,-0.4101 0.283483,-0.63784 0.141853,-0.2837 0.454071,-0.34118 0.566964,-0.56696 0.39126,-0.78252 -0.213452,-2.37374 0.708705,-2.83482 z m 1.700893,-0.35436 c -1.815097,0.25091 -0.675579,2.70874 -0.07087,1.7009 0.459322,-0.76554 -0.139934,-1.27929 0.07087,-1.7009 z m 2.196987,0.77958 c -1.56511,-0.49541 -1.925375,2.52774 -0.212612,1.84263 0.922453,-0.36898 0.856214,-1.6281 0.212612,-1.84263 z m 0.425223,-3.614397 c -1.038594,-1.210152 -1.755955,0.105037 -0.637835,0.850447 0.191029,0.12735 0.18663,0.82588 0.425223,0.92132 0.895032,0.35801 0.551208,-1.43317 0.212612,-1.771767 z m 1.559152,-1.630022 c -2.252026,0.352414 -0.377776,2.007199 -0.07087,0.779575 0.07367,-0.294673 0.224734,-0.471849 0.07087,-0.779575 z M 89.485864,95.226377 C 89.33767,95.088781 89.209789,95.08834 89.06064,95.013765 c -0.132291,-0.06615 -0.363802,0.06615 -0.496093,0 -0.536687,-0.268343 0.03674,-1.186428 -0.425224,-1.41741 -0.716537,-0.358269 -1.435679,0.228675 -1.133928,1.133928 0.06104,0.183123 0.398354,0.256614 0.496094,0.354353 0.554746,0.554746 -0.660583,1.597124 0.566964,1.842634 0.596966,0.119393 0.508715,0.06035 0.921317,-0.283482 0.141741,-0.118118 0.31452,-0.206749 0.425223,-0.354353 0.227623,-0.303497 -0.08731,-0.746696 0.07087,-1.063058 z M 83.74535,93.667225 c 0.598243,0.341853 2.221641,0.120179 1.700893,-0.779576 -0.515292,-0.846812 -2.476312,0.33648 -1.700893,0.779576 z m -3.96875,1.063058 c -0.210865,0.03364 -0.681474,0.11451 -0.850446,0.283482 -0.279447,0.279447 -0.447247,0.542541 -0.779576,0.708706 -0.363785,0.181892 0.490777,0.356125 0.708705,0.283482 0.376155,-0.125385 1.751681,-1.27567 0.921317,-1.27567 z m 10.134487,-2.338727 c 0.220773,-0.819415 -1.417411,-1.087418 -1.417411,-0.354353 0,0.145391 0.376642,0.27948 0.425223,0.425223 0.241126,0.723377 0.248463,1.736744 0.850447,2.338728 0.07087,0.07087 0.162885,-0.125591 0.212611,-0.212612 0.456955,-0.799671 0.3166,-1.422046 -0.07087,-2.196986 z m 2.196986,2.69308 c -0.417807,-0.02058 -0.850976,0.03075 -1.204799,0.283482 -0.265114,0.189367 -0.185953,0.42804 -0.354352,0.708705 -0.816415,1.360692 0.48321,0.251268 0.637834,0.212612 0.118425,-0.02961 1.16254,-0.0075 1.2048,-0.07087 0.362743,-0.544115 0.175478,-0.904448 -0.283483,-1.133929 z m 0.283483,-3.472656 c -0.05471,-0.259228 -0.38336,-0.199754 -0.496094,-0.425224 -0.492491,-0.984982 -1.551126,1.61175 -0.779576,2.126117 0.930654,0.620436 1.550199,-1.151835 1.27567,-1.700893 z m 1.771763,6.732701 c -1.559593,0.05538 -1.325597,0.128837 -1.630022,1.34654 -0.03086,0.123431 -0.186779,0.544449 0,0.637839 0.908008,0.454 1.819258,-1.41667 1.630022,-1.984379 z m -0.354353,3.118299 c -0.296427,-0.92161 -1.867554,0.0919 -1.559152,0.70871 0.05576,0.11153 0.255234,0.12522 0.354353,0.14174 1.660362,0.27673 1.770172,-1.13313 1.204799,-0.85045 z m -2.267857,0.77958 c -1.43963,0.0876 -0.409708,1.86643 0,1.55915 0.598031,-0.44852 0.919976,-1.55915 0,-1.55915 z m 1.063058,1.77176 c -0.110883,0.25689 -0.369459,0.38457 -0.496094,0.63784 -0.05723,0.11446 0.05604,0.42194 0.07087,0.49609 0.271863,1.35932 1.95886,-0.36711 0.425224,-1.13393 z m -1.417411,1.63003 c -0.09451,-0.0146 -0.391964,-0.24587 -0.496093,-0.14175 -0.276534,0.27654 -0.145246,1.7741 0.496093,1.34654 0.365401,-0.2436 0.506579,-1.20479 0,-1.20479 z m -1.630022,2.05524 c -0.358178,-0.02 -0.429444,0.0253 -0.496094,0.42522 -0.262728,1.57637 1.152861,-0.7536 0.496094,-0.42522 z m 2.480469,0.56697 c -2.700012,0.0242 0,2.7539 0,0 z m 1.771763,0.35435 c -0.258988,0.0323 -0.334257,0.036 -0.425223,0.35435 -0.288949,1.01132 1.659369,0.26272 0.425223,-0.35435 z m 1.771764,-0.21261 c -0.434582,0.0218 -0.507912,0.33664 -0.708706,0.63783 -0.467966,0.70195 1.227872,0.4005 0.708706,-0.63783 z m 1.41741,0.0709 c -1.74683,1.11089 1.277287,0.63864 0,0 z m 0.992188,-1.13396 c -0.955553,2.15273 1.163325,0.58166 0,0 z m 1.559152,-0.56697 c -1.884325,0.45914 0.212611,1.28352 0.212611,0.35436 0,-0.21163 -0.01973,-0.25791 -0.212611,-0.35436 z m -6.378349,-0.14174 c -0.46186,1.38559 2.098996,0.30536 0.779576,-0.35435 -0.153936,-0.077 -0.153717,-0.20662 -0.354353,-0.10632 -0.227845,-0.20177 -0.361993,0.27099 -0.425223,0.46067 z m 3.118304,-0.85044 c -1.00182,-0.14315 -0.90559,1.54342 -0.141741,0.77957 0.308266,-0.30826 0.269584,-0.39604 0.141741,-0.77957 z m -1.700893,-1.34654 c -0.05152,-0.0908 -0.383722,-0.25412 -0.496094,-0.14174 -0.07809,0.0781 -0.141741,0.38837 -0.141741,0.56696 0,1.08461 1.749898,0.13081 0.637835,-0.42522 z m 2.831201,-4.681198 c -0.547164,0.01986 -0.488769,-0.664054 -0.902034,-0.801809 -2.374777,-0.791592 1.102486,3.935597 1.102486,1.904297 0,-0.55223 0.05938,-0.58282 -0.200452,-1.102488 z m -1.904295,2.706108 c -1.213871,0.038 -0.517254,1.71996 0.400904,0.8018 0.179871,-0.17987 0.09209,-0.20858 0,-0.30067 -0.174454,-0.17446 -0.07912,-0.34024 -0.400904,-0.50113 z m 2.505652,1.60361 c -0.327943,-0.77162 -1.846412,0.27245 -1.202713,0.70159 0.215214,0.14347 2.505862,1.00268 2.305199,0.60135 -0.310067,-0.62013 -0.899261,-0.89649 -1.102486,-1.30294 z m 1.904295,-1.20271 c -2.682563,2.30793 2.054775,1.02739 0,0 z m 0.501135,-2.7061 c -0.23119,-0.1338 -1.079718,-0.0456 -1.202717,0.20045 -1.539456,3.07891 2.783817,-0.20045 1.202717,-0.20045 z m 1.00226,-3.006786 c -0.23117,-0.528606 -0.78954,-0.501131 -1.30294,-0.501131 -0.761372,0 0.55418,0.754639 0.80181,1.002261 0.66766,0.667665 -1.94961,0.155142 -0.90204,1.202713 0.87522,0.875217 2.96786,-0.921494 1.40317,-1.703843 z m 2.10474,0.400904 c -1.66693,0.866287 1.13868,2.277361 0,0 z m 3.30746,-1.904295 c -0.68489,-1.036642 -0.92144,0.591651 -1.50339,0.300678 -0.48201,-0.241006 -1.47846,-1.027191 -2.20497,-0.300678 -0.0576,0.0576 1.01892,0.545647 1.10249,0.601356 0.3955,0.26367 1.69832,0.807331 2.3052,0.200452 0.18,-0.180002 0.0339,-0.535061 0.30067,-0.801808 z m -5.31198,0.50113 c 0.0867,0 -0.13382,-1.082332 -0.10022,-1.102487 0.24476,-0.14686 0.5465,-0.428332 0.8018,-0.300678 0.0785,0.03925 0.26296,0.338402 0.40091,0.200452 0.54928,-0.549276 -0.77425,-1.981658 -1.83681,-1.490162 -1.062568,0.491497 -0.843817,2.692875 0.73432,2.692875 z m 3.00678,-3.808591 c -4.48704,-0.51563 -0.83485,2.18258 0,1.904296 0.17618,-0.05873 0.7314,-1.443772 0.60136,-1.703844 -0.0802,-0.160342 -0.50136,-0.150453 -0.60136,-0.200452 z m -4.911073,0.200452 c -0.220699,-0.08554 -0.60289,-0.0689 -0.718779,-0.300678 -0.135796,-0.271592 -0.01302,-0.932252 -0.183256,-1.102487 -0.31688,-0.31688 -0.690084,-0.03287 -0.400904,0.400905 0.08288,0.124315 -0.04825,0.330691 -0.153901,0.436339 -0.50421,0.50421 -0.751918,-0.228318 -1.149038,0.565921 -0.172578,0.345156 0.724081,0.809308 1.002261,0.902035 0.746096,0.248699 2.1527,0.196135 1.603617,-0.902035 z m -1.503391,2.004522 c -3.918853,0.04055 2.732744,2.732747 0,0 z m -1.904296,0 c -2.536098,-0.842093 0,2.715448 0,0 z m 1.403165,2.906556 c -0.441134,-0.324577 -1.318612,-1.086814 -1.804069,-0.601357 -0.69455,0.694551 -1.126836,-1.679494 -1.603617,-1.202712 -0.179948,0.179948 -0.156959,0.893209 0,1.102486 1.718693,2.291591 1.659995,0.629546 2.405426,1.002261 0.483735,0.241868 1.708893,1.112587 1.00226,-0.300678 z m -3.608138,-4.009043 c -0.296499,-0.0049 -0.601357,-0.06895 -0.601357,0.300678 0,3.523286 2.196816,-1.098408 0.601357,-0.300678 z m 1.503391,-2.104748 c -1.481872,-0.240427 -1.177519,2.38863 -0.300678,1.80407 0.318155,-0.212104 0.844486,-1.532166 0.300678,-1.80407 z m -1.603617,-1.102486 c -0.391458,0.225403 -0.43704,0.837944 -0.701583,1.102486 -0.837884,0.837884 2.321032,-0.292762 0.701583,-1.102486 z m 13.129619,8.92012 c -0.43224,0.648576 -1.50183,-0.602918 -1.9043,-0.200452 -0.57354,0.573538 1.76637,1.578787 1.9043,1.302937 0.34542,-0.690854 0.7825,-0.711232 0,-1.102485 z m -3.10701,0.300678 c -1.57975,-0.555972 -1.7606,0.243923 -0.70158,1.302937 0.32316,0.32316 0.90203,1.70515 0.90203,0.30068 0,-0.56263 -0.003,-1.209111 -0.20045,-1.603617 z m 2.3052,1.804067 c -2.49255,-0.91153 -0.576,1.96266 -0.10023,1.80407 0.47143,-0.15714 0.42958,-1.63939 0.10023,-1.80407 z m 0.60135,3.10701 c -0.23592,-0.28446 -0.44255,-0.47184 -0.70158,-0.60136 -2.18081,-1.0904 0.70158,2.36834 0.70158,1.10249 0,-0.30768 0.17994,-0.14126 0,-0.50113 z m 1.9043,-0.90203 c -2.7075,-2.67786 0,3.4345 0,0 z m 0.60136,-2.80633 c -0.0953,-0.23341 -0.76316,-1.141144 -1.10249,-0.801812 -0.78813,0.788132 0.52512,2.782342 1.00226,2.305202 0.0918,-0.0918 0.0304,-0.76243 0.10023,-0.90204 0.1288,-0.2576 0.37339,-0.41466 0,-0.60135 z m 2.40542,-2.405429 c -0.61675,-0.224459 -1.42522,0.579294 -1.80407,0.200452 -0.34331,-0.343315 -1.03126,0.3719 -0.70158,0.701582 0.40436,0.404363 4.74669,0.218482 2.50565,-0.902034 z m -4.51017,-4.209496 c -0.0501,0.443311 0.0103,0.812099 0.30068,1.102487 0.5291,0.529104 2.51278,0.90917 1.60361,0 -0.50638,-0.50638 -1.59426,-0.482428 -1.90429,-1.102487 z m -3.90882,8.418995 c -0.7585,-0.10724 -0.59339,0.39294 -0.90203,0.70158 -1.71097,1.71096 0.10492,1.69444 -0.50113,2.90655 -0.0875,0.17505 -0.71197,1.19234 -0.50113,1.40317 1.08284,1.08285 2.35389,-4.11211 1.90429,-5.0113 z m 0.70158,1.30293 c -0.25396,0.36692 -0.52445,2.11988 -0.20045,2.60588 0.3774,0.5661 1.53975,0.3282 1.80407,-0.20045 0.4006,-0.80119 -0.90477,-0.30341 -1.10249,-0.50113 -0.26971,-0.26971 -0.33408,-1.5702 -0.50113,-1.9043 z m 6.61492,0.90204 c -0.70314,-0.34466 -2.50118,0.60582 -1.90429,1.20271 0.10877,0.10877 1.29823,-0.2768 1.60362,-0.20045 0.32945,0.0824 1.83902,0.66663 2.10474,0.4009 0.1904,-0.1904 -1.71021,-1.35623 -1.80407,-1.40316 z m -0.30067,1.80407 c -0.47094,0.83158 0.20817,2.30674 1.20271,2.50565 0.28428,0.0569 0.76556,-0.33693 0.50113,-0.60136 -0.39387,-0.39387 -0.83898,-0.33785 -1.20271,-0.70158 -0.24288,-0.24287 -0.17359,-0.87516 -0.50113,-1.20271 z m 3.00678,-4.81085 c -0.4748,-0.0908 -0.85838,0.1568 -1.10249,0.4009 -0.42589,0.42589 -0.44684,2.87941 0.70158,2.3052 0.73799,-0.36899 1.01601,-3.01365 0.40091,-2.7061 z m 3.60814,0.70158 c -0.5133,0.003 -2.15353,0.9047 -1.80407,1.60362 0.25238,0.50476 2.26206,0.38696 2.50565,-0.10023 0.19352,-0.38704 -0.60133,-1.30289 -0.70158,-1.50339 z m 1.20271,0.20045 c -0.20336,0.38804 0.69588,1.1082 0.90204,0.90204 0.96804,-0.96805 -0.18925,-3.703884 -1.20272,-4.109273 -0.2051,-0.08204 -0.87116,-0.262196 -1.00226,0 -0.87425,1.748503 2.20741,1.398303 1.30294,3.207233 z m 3.60814,-5.412206 c -0.38103,-0.306351 -0.79201,-0.611156 -1.10249,-0.300679 -0.73621,0.736216 1.01863,1.988152 1.60362,1.403166 0.21224,-0.212246 -0.41467,-0.929565 -0.50113,-1.102487 z m -1.50339,9.621706 c -0.44754,-1.01171 -0.9959,-0.50749 -1.50339,0 -0.14174,0.14174 0.0329,0.40363 0,0.60135 -0.24183,1.45094 1.0585,0.0123 1.40316,0.70159 0.1145,0.229 0.75843,2.02621 1.20271,1.80407 0.53077,-0.26539 -0.75755,-2.99204 -1.10248,-3.10701 z m 4.30972,-1.40317 c -0.98325,-0.5468 -0.49977,0.29387 -0.60136,0.80181 -0.0289,0.14434 -0.56663,0.93676 -0.30068,1.20271 0.46378,0.46378 0.75869,-0.32863 0.80181,-0.50113 0.15122,-0.60485 0.10023,-0.97631 0.10023,-1.50339 z m -8.92012,0.70158 c -0.27614,0.27596 -0.77773,0.22846 -0.90204,0.60136 -0.39074,1.17222 0.66494,2.45177 1.00226,1.10249 0.0708,-0.28299 -0.0707,-0.61905 0,-0.90204 0.0993,-0.3971 0.22301,-0.64019 -0.10022,-0.80181 z m 0.20045,4.10927 c -0.32376,-0.29415 -0.99886,-0.93998 -1.40316,-0.4009 -0.99336,1.32447 0.92399,4.0873 1.70384,3.30746 0.71341,-0.71341 -0.68813,-1.63052 -0.60136,-1.80407 0.14003,-0.28006 0.93884,-0.78341 0.30068,-1.10249 z m 2.20497,0.40091 c -1.85288,-0.44633 -1.25517,3.18335 0.10023,2.50565 1.16421,-0.5821 0.4816,-2.21474 -0.10023,-2.50565 z m 3.90882,1.40316 c -2.76677,-0.92828 -1.0442,3.75031 -0.30068,3.00678 0.84799,-0.84798 1.91234,-2.20095 0.30068,-3.00678 z m -8.71967,-1.00226 c -0.70122,-0.36271 -0.74026,-0.22332 -1.00226,0.30068 -0.0771,0.15425 0.30068,0.77073 0.30068,1.00226 0,2.204 0.79873,1.20579 1.50339,0.50113 0.16402,-0.16402 -0.30068,-0.70501 -0.30068,-0.90203 0,-0.54137 0.1041,-0.90204 -0.50113,-0.90204 z m 2.20498,3.30746 c -0.83101,-0.19082 -0.41793,0.41792 -0.70159,0.70158 -0.39968,0.39969 -1.33992,0.13721 -1.70384,0.50114 -0.55463,0.55462 0.0317,1.92013 0.60136,2.20497 0.87107,0.43553 0.17912,-1.05983 0.30068,-1.30294 0.42524,-0.8505 1.50339,-0.17887 1.50339,-2.10475 z m 0.50113,2.20498 c -0.33051,-0.22445 -1.00226,-0.36984 -1.00226,0.20045 0,0.34948 -3.2e-4,0.60089 0.20045,0.90203 0.31012,0.46518 -0.35204,1.4276 0.20045,1.70385 0.47025,0.23512 1.65632,-2.27885 0.60136,-2.80633 z m 3.50791,-1.5034 c -0.3565,0.11477 -2.29615,-0.61945 -2.40543,-0.4009 -0.37631,0.75263 0.0828,1.94353 1.10249,1.60362 0.35853,-0.11951 2.1518,-0.77829 1.30294,-1.20272 z m 1.80407,3.00679 c -0.2915,0.0267 -0.65122,-0.0879 -0.90204,0.10022 -0.70013,0.5251 -0.52169,1.7835 -0.10022,2.20498 0.1753,0.1753 0.5721,-0.22971 0.70158,-0.10023 0.44341,0.44341 0.90204,0.23149 0.90204,-0.60136 0,-0.77251 -0.081,-1.08325 -0.60136,-1.60361 z m -2.50565,1.50339 c -0.54657,0.10209 -0.59795,0.63363 -1.10249,0.80181 -0.86413,0.28804 -1.9043,-0.74566 -1.9043,1.00226 0,0.0785 -0.05,0.45112 0,0.50113 0.27825,0.27824 1.66193,-0.75989 1.80407,-0.90204 0.11812,-0.11811 -0.0405,0.33908 0,0.50113 0.0841,0.33637 0.64597,0.15584 0.80181,0 0.24264,-0.24263 1.45003,-1.90429 0.40091,-1.90429 z m 2.40542,2.20497 c -0.22909,-0.76044 -2.34916,0.0563 -1.80407,0.60136 0.19513,0.19513 1.11875,0.28441 0.60136,0.80181 -0.0964,0.0964 -0.85485,0.8254 -0.50113,1.00226 1.51877,0.75938 2.09563,-1.62186 1.70384,-2.40543 z m -1.90429,4.91108 c 0.0775,-0.32797 0.48429,-0.50915 0.60135,-0.80181 0.3517,-0.87924 -0.61392,-0.8769 -0.90203,-0.30068 -0.36362,0.72725 -0.38505,2.47394 0.30068,1.10249 z m -7.65059,-12.06054 c -0.45804,-0.40474 0.6552,-1.29546 0.50113,-1.60362 -0.1413,-0.28259 -0.59248,-0.23978 -0.80181,-0.10022 -0.25206,0.16804 -0.41527,0.81617 -0.60136,1.00226 -0.67701,0.67701 -1.24626,0.47487 -1.50339,1.50339 -0.005,0.021 -0.19032,0.51127 -0.10022,0.60136 0.92363,0.92364 0.68994,-0.69771 1.30293,-0.90204 0.732,-0.244 0.70933,-0.008 1.20272,-0.50113 z m -0.20046,2.10475 c -3.03158,1.49477 0.85637,1.71274 0,0 z m 1.60362,2.7061 c -0.76345,-2.21214 -1.28949,0.92894 -0.90203,1.70385 0.31844,0.63687 1.0469,-1.41411 0.90203,-1.70385 z m -4.30972,-2.80633 c -2.2602,-0.99344 0.20045,3.25525 0.20045,0.60136 0,-0.29941 0.0825,-0.45988 -0.20045,-0.60136 z m 1.10249,2.40543 c -0.23133,0.009 -0.54768,-0.22729 -0.80181,-0.10023 -0.12321,0.0616 -0.0668,0.26727 -0.10023,0.40091 -0.39228,1.56913 2.05061,-0.30068 0.90204,-0.30068 z m -3.00678,-2.20497 c -1.86399,1.99591 2.48431,1.24215 0,0 z m -1.9043,-0.30068 c -2.13115,-0.0115 0.96142,1.92283 0,0 z m -1.9043,-0.80181 c -0.97713,0.65142 1.13043,1.19517 0.80181,0.30067 -0.32861,-0.8945 -0.5202,-0.48841 -0.80181,-0.30067 z m 1.80407,2.40542 c -1.87836,-0.31764 -0.73054,1.22203 0.20046,0.60136 0.23485,-0.15657 0.27554,-0.83935 -0.20046,-0.60136 z m 2.40543,0.90204 c -0.43921,-0.0491 -0.72209,0.0833 -1.10249,0.30068 -1.1099,0.63423 1.87567,1.24568 1.10249,-0.30068 z m -2.20497,-4.10927 c -1.26161,-0.0663 0.20045,1.3913 0.20045,0.30068 0,-0.21973 0.0401,-0.18038 -0.20045,-0.30068 z m 7.56251,8.99899 c 0.11528,-0.22031 0.45278,-0.62604 0.35436,-0.92131 -0.14979,-0.44937 -0.56206,-0.95921 -1.2048,-0.63784 -0.14878,0.0744 -0.26269,0.4753 -0.35435,0.56697 -0.48177,0.48176 0.76512,1.87153 1.20479,0.99218 z m -0.35435,0.92132 c -0.56406,-0.38728 -1.06735,0.77528 -0.77957,1.06306 0.33732,0.33732 1.4931,-0.7063 0.77957,-1.06306 z m 4.53572,2.33873 c -2.00353,1.21213 0.91197,1.82394 0,0 z m -2.48047,3.68527 c -0.521,-0.0659 -0.63493,0.13883 -0.99219,0.49609 -0.10923,0.10923 -0.42763,0.2883 -0.49609,0.42522 -0.0988,0.19762 1.48828,0.71304 1.48828,-0.92131 z m -2.90569,0 c -0.36729,-0.88682 -1.256,0.44489 -0.92132,0.77957 0.28219,0.28219 2.03917,0.48002 1.41741,-0.14174 -0.2321,-0.2321 -0.35669,-0.35902 -0.49609,-0.63783 z m -1.2048,-4.11049 c -0.0153,0.45216 -0.28278,0.35317 -0.4961,0.7087 -0.50414,0.84024 1.22533,1.49952 0.77958,-0.28348 -0.075,-0.29997 0.0956,-0.42522 -0.28348,-0.42522 z m -1.48828,1.06305 c -2.85773,-0.004 0,2.21401 0,0.4961 0,-0.29746 0.25701,-0.23909 0,-0.4961 z m -2.12612,0.0709 c -0.71182,0.56669 0.28348,1.68231 0.28348,0.21262 0,-0.25154 -0.0322,-0.21262 -0.28348,-0.21262 z m -2.48047,-3.33094 c -0.74313,-0.69532 -1.34486,0.85044 -0.28348,0.85044 0.43173,0 0.28348,-0.50769 0.28348,-0.85044 z m 2.05525,1.48828 c -0.20929,-0.14219 -0.35436,0.004 -0.35436,0.21261 0,1.59191 1.04712,0.48015 0.35436,-0.21261 z m 1.55915,-0.42522 c -1.00572,0.38583 0.19719,1.44825 0.56696,0.7087 0.23024,-0.46047 -0.0776,-0.95338 -0.56696,-0.7087 z m -1.55915,-1.48828 c -1.26563,1.21376 1.04604,1.32953 0.35435,0.63783 -0.0709,-0.0709 0.0709,-0.35435 0,-0.42522 -0.12172,-0.12172 -0.23892,0.0183 -0.35435,-0.21261 z m 2.26785,-1.98438 c -1.1575,0.0459 -0.65906,0.87168 -0.92131,1.13393 -0.25709,0.25709 -0.96819,0.68527 -0.35436,0.99219 0.0677,0.0338 0.27166,0.11221 0.35436,0.0709 0.0584,-0.0292 0.12067,-0.36203 0.14174,-0.42523 0.14422,-0.43267 1.69062,-1.31624 0.77957,-1.77176 z m 1.48828,0.49609 c -0.1397,-6.7e-4 -0.36527,-0.0381 -0.42522,0.14174 -0.0852,0.25553 0.21044,0.56914 0,0.77958 -0.44789,0.44789 -1.34654,0.13078 -1.34654,1.2048 0,0.0964 -0.0382,0.22896 0.0709,0.28348 0.1094,0.0547 0.75501,0.0477 0.85045,0 0.34723,-0.17361 -0.0553,-0.55372 0.0709,-0.63783 0.12467,-0.0831 0.5703,-0.12245 0.63783,-0.14174 1.21334,-0.34667 0.33331,-1.2469 0.14174,-1.63003 z m 0.0709,2.55134 c -0.18513,-0.009 -0.42981,0.0755 -0.56696,0.21261 -0.2306,0.23061 -0.17155,1.23461 0.21261,0.85045 0.17315,-0.17315 0.19374,-0.31661 0.28348,-0.49609 0.10985,-0.21969 0.6042,-0.0372 0.70871,-0.14174 0.33851,-0.33852 -0.49571,-0.42523 -0.63784,-0.42523 z m -3.40181,-3.75614 c -0.24374,0.0788 -0.54596,-0.18768 -0.77958,-0.0709 -0.47897,0.23949 0.47768,1.01675 0.92132,0.42523 0.22908,-0.30545 0.20295,-0.18201 -0.14174,-0.35436 z m -1.27567,0.99219 c -0.35487,-0.15942 -0.42088,-0.009 -0.56696,0.28348 -0.15995,0.31989 0.71785,0.6687 0.92131,0.56697 0.44095,-0.22048 0.0391,-0.85045 -0.35435,-0.85045 z m -1.13393,-1.06306 c -1.02762,-0.14322 -0.33439,1.25572 0,0.92132 0.28442,-0.28442 0.42732,-0.92132 0,-0.92132 z m -0.56696,-1.41741 c -1.99036,0.0376 0.90278,1.80557 0,0 z m -0.85045,-1.55915 c -0.17695,0.008 -0.43068,0.005 -0.56696,0.14174 -0.27804,0.27804 0.64673,0.62894 0.85044,0.42523 0.28514,-0.28514 0.29693,-0.85717 -0.28348,-0.56697 z m -19.861476,1.5068 c -2.576961,-0.76127 -0.56229,1.33352 0.100226,1.00227 0.152054,-0.076 -0.100226,-0.94155 -0.100226,-1.00227 z m -1.002261,1.10249 c -1.169761,-0.1065 -0.188766,1.98115 0.300678,1.00226 0.160392,-0.32078 -0.300678,-0.70813 -0.300678,-1.00226 z m -1.202713,0.90204 c -2.472464,1.43818 2.623746,1.31187 0,0 z m 1.703844,2.40542 c -0.260761,0.021 -0.747888,-0.10784 -0.902035,0.20045 -0.753952,1.50791 1.998342,1.34379 1.102487,0 -0.124943,-0.18741 0.230672,-0.41601 -0.200452,-0.20045 z m -2.3052,-1.00226 c -0.631541,-0.11945 -0.418927,0.21848 -0.701583,0.50113 -0.109984,0.10999 -0.569153,-0.23265 -0.601356,-0.20045 -0.487611,0.48761 1.703843,2.85681 1.703843,0.70158 0,-0.14196 0.07916,-0.62242 0,-0.70158 -0.137792,-0.13779 -0.26497,-0.0288 -0.400904,-0.30068 z m -2.104748,-1.40316 c -0.963294,0.0388 -0.462029,1.96542 0.200452,1.30294 0.316793,-0.3168 0.05655,-1.17444 -0.200452,-1.30294 z m -1.703843,0.50113 c -1.846627,0.85406 1.585242,3.17048 0,0 z m 0,2.10474 c -2.952847,1.43606 2.555129,1.27757 0,0 z m 1.703843,0.80181 c -1.725308,0.96529 2.176133,2.07591 0.601357,0.50113 -0.255514,-0.25551 -0.224185,-0.31254 -0.601357,-0.50113 z m 2.405426,0.40091 c -0.214666,-0.0148 -0.701582,0.009 -0.701582,0.30068 0,1.32377 1.883394,-0.30068 0.701582,-0.30068 z m 1.102487,0.20045 c -1.187523,0.67777 0.860931,1.72186 0,0 z m -4.109269,1.20271 c -2.660831,0.93415 2.926243,1.46312 0,0 z m 2.505652,0.90204 c -0.219458,0.0344 -1.002261,-0.1228 -1.002261,0.10022 0,0.12267 -0.306915,0.39467 -0.200452,0.50113 0.737889,0.73789 2.360768,-0.31184 1.202713,-0.60135 z m 1.202713,0.20045 c -0.964284,2.22383 1.249484,-0.62474 0,0 z m 0.601356,1.70384 c -2.046655,1.4783 2.22183,1.11092 0,0 z m -4.009043,0.10023 c -2.389329,-0.039 1.267957,2.83659 0.200452,0.70158 -0.156522,-0.31304 0.201597,-0.50056 -0.200452,-0.70158 z m -1.503391,0.50113 c -0.05987,-0.22626 -0.566099,-0.63662 -0.801809,-0.40091 -1.936305,1.93631 2.333727,1.93283 0.801809,0.40091 z m 1.703843,1.80407 c -0.768348,1.40778 1.235032,1.8687 0.501131,0.4009 -0.184759,-0.36951 -0.0047,-0.4009 -0.501131,-0.4009 z m 1.403165,1.60362 c -1.377023,3.34491 3.200923,0 0,0 z m 1.002261,2.00452 c -1.609325,0.0423 -1.105596,2.00763 0,0.90203 0.240415,-0.24041 0.144798,0.46764 0.400904,-0.30068 0.12316,-0.36948 -0.04117,-0.42149 -0.400904,-0.60135 z m 1.002261,3.00678 c -0.09347,-1.11057 -2.122734,-0.41889 -1.703844,0 0.494138,0.49414 2.418108,1.42853 1.703844,0 z m 2.004521,1.40316 c -3.326525,-0.11155 0.200452,2.62436 0.200452,0.50113 0,-0.38486 0.06696,-0.36742 -0.200452,-0.50113 z m -0.601356,2.80633 c -0.483343,-0.97741 -2.070007,-0.0327 -1.202713,0.40091 0.43247,0.21623 1.626043,0.44575 1.202713,-0.40091 z m 1.00226,1.30294 c -0.254341,-0.006 -0.50113,0.24195 -0.50113,0.50113 0,1.82793 1.491245,-0.99618 0.50113,-0.50113 z m 21.749058,-2.00452 c 0.15986,0.0799 1.21785,-1.41138 0.50113,-1.75396 -0.71672,-0.34257 -1.41467,1.29719 -0.50113,1.75396 z m 2.7061,-4.00904 c -0.15724,0.10483 -0.24365,0.29607 -0.4009,0.4009 -1.82342,1.21562 -0.38694,1.48943 -0.30068,1.40317 0.33062,-0.33063 0.1253,-0.75173 0.30068,-1.10249 0.10023,-0.20045 0.44289,-0.14221 0.60136,-0.30068 0.074,-0.074 -0.32002,-0.16177 -0.20046,-0.4009 z m 0.70159,-1.40317 c -0.064,-0.39112 -0.30637,-0.50113 -0.70159,-0.50113 -1.51695,0 1.7521,2.60216 0.70159,0.50113 z m 1.00226,-3.00678 c -2.83327,1.25102 -0.20045,2.68943 -0.20045,1.10249 0,-0.21702 0.78064,-0.62252 0.60135,-0.80181 -0.13779,-0.13779 -0.26497,-0.0288 -0.4009,-0.30068 z m 0.80181,-1.30294 c -0.9894,0.55475 0.20045,2.37695 0.20045,0.60136 0,-0.30789 0.0857,-0.45829 -0.20045,-0.60136 z m -2.60588,-2.40542 c -3.95201,-2.45383 1.22225,3.66676 0,0 z m -1.30294,12.62848 c -0.73666,-0.34858 -1.72914,1.70385 -1.00226,1.70385 0.052,0 0.20439,-0.40485 0.30068,-0.50114 0.19507,-0.19507 1.51637,-0.79531 0.70158,-1.20271 z m -1.80407,2.3052 c -0.16199,0.20713 -0.49279,-0.30902 -0.60136,-0.20045 -0.25304,0.25304 0.10142,2.6035 0.80181,1.20271 0.2895,-0.579 0.0757,-0.45 -0.20045,-1.00226 z M 71.093695,124.71464 c -0.21612,-0.0353 -0.537461,-0.66525 -0.801809,-0.4009 -0.07944,0.0794 0.806606,2.49606 1.002261,2.10475 0.202805,-0.40561 0.446979,-1.70385 -0.200452,-1.70385 z m 0.801808,2.60588 c -0.321572,0.0163 -0.400904,0.17439 -0.400904,0.50113 0,1.56368 1.188564,-0.1073 0.400904,-0.50113 z"
           id="path1012"
           sodipodi:nodetypes="cssssssccsccssccssccsssssssccccsccsssssccssssccsccccssssscccccsccccccsccsccccscsccccssscccssssccsccsccssccssssccccsscccsccsccssssssscsscsscsscccssscsccssscsscccsssssccsssssssccsccsscccssssssssccsccsccssccsccsssssssscscscsssccssssccssscccssccssccssccsccssccssccsccccsccsccccccscsccscsccssccssccssccsscccccccsssccccsssscscsszscssccssssssccccccssssccsccsccsccssccssccscccsccccsscccssccssccsscccsssccscscccssccssccssccsssccssccscssccsssccsccccsssccsccsccssssccssssccsssccssccssssccsscsssccsssccssccsssccsccccsccsccsccccccszscsccsccsccsscccsccccssccssccssccsccsccsccsccsccscccscssscssssscsccsccssccscscsccsccscccccsccsccsccccssccscssccsccccccsccsccccccssccccccsccsccsccccssccsccsccsccscszsccsssccsccssccsccccssccsscccsccsc" />
        <path
           id="path1164"
           style="color:#000000;font-style:normal;font-variant:normal;font-weight:normal;font-stretch:normal;font-size:medium;line-height:normal;font-family:sans-serif;font-variant-ligatures:normal;font-variant-position:normal;font-variant-caps:normal;font-variant-numeric:normal;font-variant-alternates:normal;font-variant-east-asian:normal;font-feature-settings:normal;font-variation-settings:normal;text-indent:0;text-align:start;text-decoration:none;text-decoration-line:none;text-decoration-style:solid;text-decoration-color:#000000;letter-spacing:normal;word-spacing:normal;text-transform:none;writing-mode:lr-tb;direction:ltr;text-orientation:mixed;dominant-baseline:auto;baseline-shift:baseline;text-anchor:start;white-space:normal;shape-padding:0;shape-margin:0;inline-size:0;clip-rule:nonzero;display:inline;overflow:visible;visibility:visible;isolation:auto;mix-blend-mode:normal;color-interpolation:sRGB;color-interpolation-filters:linearRGB;solid-color:#000000;solid-opacity:1;vector-effect:none;fill:#000000;fill-opacity:1;fill-rule:nonzero;stroke:none;stroke-width:1.02535;stroke-linecap:butt;stroke-linejoin:miter;stroke-miterlimit:4;stroke-dasharray:none;stroke-dashoffset:0;stroke-opacity:1;color-rendering:auto;image-rendering:auto;shape-rendering:auto;text-rendering:auto;enable-background:accumulate;stop-color:#000000"
           d="m 71.506746,123.53251 c -2.591644,-0.0134 -5.14123,0.14254 -8.030001,0.34727 0,0 11.433775,-0.13122 19.042766,0.80201 -4.279395,-0.83468 -7.680653,-1.1321 -11.012765,-1.14928 z m 44.906814,0 c -3.33211,0.0172 -6.73337,0.3146 -11.01276,1.14928 7.60899,-0.93323 19.04277,-0.80201 19.04277,-0.80201 -2.88878,-0.20473 -5.43836,-0.36063 -8.03001,-0.34727 z m -35.285696,2.3151 c -9.900116,0.0651 -18.65416,3.64474 -18.65416,3.64474 0,0 10.888218,-3.14463 20.647319,-3.60856 -0.667938,-0.029 -1.333151,-0.0405 -1.993159,-0.0362 z m 25.664586,0 c -0.66001,-0.004 -1.32522,0.007 -1.99316,0.0362 9.7591,0.46393 20.64732,3.60856 20.64732,3.60856 0,0 -8.75405,-3.5796 -18.65416,-3.64474 z m -24.674465,2.04122 c -9.017495,0.37322 -16.235185,6.81509 -16.235185,6.81509 0,0 8.355986,-5.76086 16.235185,-6.81509 z m 23.684345,0 c 7.8792,1.05423 16.23518,6.81509 16.23518,6.81509 0,0 -7.2177,-6.44187 -16.23518,-6.81509 z" />
      </g>
      <path
         style="font-variation-settings:normal;opacity:1;vector-effect:none;fill:url(#linearGradient1423);fill-opacity:1;stroke:#000000;stroke-width:0.542583;stroke-linecap:butt;stroke-linejoin:miter;stroke-miterlimit:4;stroke-dasharray:none;stroke-dashoffset:0;stroke-opacity:1;stop-color:#000000;stop-opacity:1"
         d="m 84.457169,159.96081 c 0,0 -18.690185,-15.51507 -28.464203,-38.88771 -9.774019,-23.372658 -8.060885,-48.273548 -4.307582,-56.992545 1.777823,-4.129917 1.975703,-5.928085 1.261065,-6.488567 -0.714637,-0.560482 -2.793227,0.520494 -4.591525,3.158104 -2.453292,3.598307 -13.141449,19.750217 -10.803557,44.687738 2.337892,24.93752 12.828938,40.49133 12.828938,40.49133 l 9.2208,12.42803 z"
         id="path1393"
         sodipodi:nodetypes="csszszccc" />
      <g
         id="g1404"
         style="stroke-width:1.02535">
        <path
           style="font-variation-settings:normal;opacity:1;vector-effect:none;fill:#b3b3b3;fill-opacity:1;stroke:#000000;stroke-width:0.542583;stroke-linecap:butt;stroke-linejoin:miter;stroke-miterlimit:4;stroke-dasharray:none;stroke-dashoffset:0;stroke-opacity:1;stop-color:#000000;stop-opacity:1"
           d="m 133.80181,98.388595 c 0,0 1.78901,1.530475 0.28348,5.263345 -1.32914,3.29553 -18.70806,56.043 -18.70806,56.043 l 3.96875,-1.13393 c 0,0 16.07941,-50.38706 17.29241,-53.8616 1.37402,-3.93579 3.26005,-4.53572 3.26005,-4.53572 z"
           id="path1399"
           sodipodi:nodetypes="csccscc" />
        <path
           style="font-variation-settings:normal;opacity:1;vector-effect:none;fill:#999999;fill-opacity:1;stroke:#000000;stroke-width:0.542583;stroke-linecap:butt;stroke-linejoin:miter;stroke-miterlimit:4;stroke-dasharray:none;stroke-dashoffset:0;stroke-opacity:1;stop-color:#000000;stop-opacity:1"
           d="m 134.1693,80.782214 c -5.81311,10.022607 -4.162,17.109279 2.60588,19.042954 7.01582,2.004522 12.94188,-1.912651 13.63075,-16.837979 0.68886,-14.925328 -0.40091,-23.051999 -0.40091,-23.051999 0,0 -10.02261,10.824417 -15.83572,20.847024 z"
           id="path1395"
           sodipodi:nodetypes="zszcz" />
        <path
           style="font-variation-settings:normal;opacity:1;vector-effect:none;fill:none;fill-opacity:1;stroke:#000000;stroke-width:0.542583;stroke-linecap:butt;stroke-linejoin:miter;stroke-miterlimit:4;stroke-dasharray:none;stroke-dashoffset:0;stroke-opacity:1;stop-color:#000000;stop-opacity:1"
           d="M 150.00502,59.935189 136.77518,99.825166 M 133,106.50691 c 1.00134,-0.0632 1.96852,0.0104 2.7061,1.00226"
           id="path1397"
           sodipodi:nodetypes="cccc" />
      </g>
      <g
         id="g1519"
         style="stroke-width:1.02535">
        <path
           style="font-variation-settings:normal;opacity:1;vector-effect:none;fill:#dfba8c;fill-opacity:1;stroke:none;stroke-width:0.542583;stroke-linecap:butt;stroke-linejoin:miter;stroke-miterlimit:4;stroke-dasharray:none;stroke-dashoffset:0;stroke-opacity:1;stop-color:#000000;stop-opacity:1"
           d="m 122.97383,172.65611 c 0,0 1.23612,1.23612 1.93771,1.83748 0.70158,0.60136 0.30067,1.80407 1.00226,2.00452 0.70158,0.20045 1.70384,1.9043 2.20497,2.40543 0.50113,0.50113 0.4009,2.10474 2.20497,3.20723 v 1.10249 c 0,0 1.30294,1.00226 2.40543,2.00452 l 0.50113,0.90204 0.90203,0.4009 c 0,0 1.00226,1.10249 1.10249,1.50339 0.10023,0.40091 -0.20045,1.20272 -0.20045,1.20272 0,0 1.00226,0.20045 0.90203,0.90203 -0.10022,0.70158 0.40091,2.00452 0.40091,2.00452 l 0.80181,1.20272 c 0,0 0,3.30746 0.10022,4.71062 0.10023,1.40317 -1.10249,1.60362 -1.10249,1.60362 0,0 -0.50113,0.70158 -0.70158,0.80181 -0.20045,0.10022 -2.20497,0.10022 -2.20497,0.10022 0,0 0.4009,0.60136 -0.10023,0.80181 -0.50113,0.20045 -2.60588,1.00226 -2.60588,1.00226 0,0 -0.90203,0.50113 -1.50339,1.40317 -0.60135,0.90203 -1.20271,1.60361 -1.90429,1.60361 -0.70158,0 -1.70385,-0.10022 -1.70385,-0.10022 0,0 -0.8018,0.80181 -2.10474,0.20045 0,0 -1.50339,0.70158 -2.70611,0.50113 -1.20271,-0.20045 -2.80633,-0.50113 -3.10701,-0.50113 -0.30067,0 -4.40994,0 -6.01356,-0.30068 -1.60362,-0.30068 -3.00678,-0.10022 -4.40995,0.20045 -1.40316,0.30068 -7.116049,0.10023 -8.318762,0 -1.202712,-0.10022 -2.204973,-1.00226 -3.207234,-1.10248 0,0 -2.168002,-0.10023 -3.170263,0 -1.002261,0.10022 -2.004522,1.00226 -3.207234,1.10248 -1.202713,0.10023 -6.9156,0.30068 -8.318765,0 -1.403165,-0.30067 -2.80633,-0.50113 -4.409947,-0.20045 -1.603617,0.30068 -5.712886,0.30068 -6.013564,0.30068 -0.300678,0 -1.904296,0.30068 -3.107008,0.50113 -1.202713,0.20045 -2.706104,-0.50113 -2.706104,-0.50113 -1.302939,0.60136 -2.104748,-0.20045 -2.104748,-0.20045 0,0 -1.002261,0.10022 -1.703843,0.10022 -0.701583,0 -1.302939,-0.70158 -1.904296,-1.60361 -0.601356,-0.90204 -1.503391,-1.40317 -1.503391,-1.40317 0,0 -2.104747,-0.80181 -2.605878,-1.00226 -0.50113,-0.20045 -0.100226,-0.80181 -0.100226,-0.80181 0,0 -2.004521,0 -2.204973,-0.10022 -0.200452,-0.10023 -0.701583,-0.80181 -0.701583,-0.80181 0,0 -1.202713,-0.20045 -1.102487,-1.60362 0.100226,-1.40316 0.100226,-4.71062 0.100226,-4.71062 l 0.801809,-1.20272 c 0,0 0.50113,-1.30294 0.400904,-2.00452 -0.100226,-0.70158 0.902035,-0.90203 0.902035,-0.90203 0,0 -0.300678,-0.80181 -0.200452,-1.20272 0.100226,-0.4009 1.102487,-1.50339 1.102487,-1.50339 l 0.902034,-0.4009 0.501131,-0.90204 c 1.102486,-1.00226 2.405425,-2.00452 2.405425,-2.00452 l -1e-6,-1.10249 c 1.804069,-1.10249 1.703845,-2.7061 2.204974,-3.20723 0.501131,-0.50113 1.503391,-2.20498 2.204973,-2.40543 0.701583,-0.20045 0.300678,-1.40316 1.002261,-2.00452 0.701582,-0.60136 1.937705,-1.83748 1.937705,-1.83748 z"
           id="path1512"
           sodipodi:nodetypes="cssscccccscsccscscscssccsssssccsssssccsscscscsccscscccccssscc" />
        <path
           id="path1507"
           style="font-variation-settings:normal;opacity:1;vector-effect:none;fill:#bb9260;fill-opacity:1;stroke:none;stroke-width:1.02535;stroke-linecap:butt;stroke-linejoin:miter;stroke-miterlimit:4;stroke-dasharray:none;stroke-dashoffset:0;stroke-opacity:1;stop-color:#000000;stop-opacity:1"
           d="m 501.93945,714.62109 c 0,0 3.38926,7.13381 5.66211,10.92188 2.27282,3.78807 -4.54509,15.90899 -5.30273,18.93945 -0.75761,3.03046 -7.57617,9.0918 -7.57617,9.0918 0,0 3.03046,2.27186 0,3.78711 -3.03047,1.51521 -12.12305,7.57617 -12.12305,7.57617 l -17.98438,2.09961 -13.60351,-2 c 0,0 9.98536,11.8439 17.95117,6.71875 3.94609,-2.53889 8.07049,0.6014 11.23047,4.41406 0.0786,6.2e-4 0.16926,0.006 0.24609,0.006 2.65164,0 4.92445,-2.6513 7.19727,-6.06055 2.27286,-3.40928 5.68359,-5.30273 5.68359,-5.30273 0,0 7.95362,-3.03146 9.84766,-3.78906 1.89403,-0.75761 0.37891,-3.0293 0.37891,-3.0293 0,0 7.57637,-1.2e-4 8.33398,-0.37891 0.75761,-0.37882 2.65234,-3.03125 2.65234,-3.03125 0,0 4.54484,-0.75722 4.16602,-6.06054 -0.37879,-5.30328 -0.37891,-17.80469 -0.37891,-17.80469 l -3.02929,-4.54492 c 0,0 -1.89441,-4.92453 -1.51563,-7.57617 0.37882,-2.65164 -3.41016,-3.41016 -3.41016,-3.41016 z m -302.05468,0.56641 c 0,0 -3.78897,0.75852 -3.41016,3.41016 0.37881,2.65164 -1.51563,7.57617 -1.51563,7.57617 l -3.02929,4.54492 c 0,0 -1e-4,12.50141 -0.37891,17.80469 -0.37881,5.30332 4.16602,6.06054 4.16602,6.06054 0,0 1.89473,2.65243 2.65234,3.03125 0.75761,0.37879 8.33398,0.37891 8.33398,0.37891 10e-6,0 -1.51512,2.27169 0.37891,3.0293 1.89404,0.7576 9.84766,3.78906 9.84766,3.78906 0,0 3.41075,1.89345 5.68359,5.30273 2.27285,3.40925 4.54561,6.06055 7.19727,6.06055 2.65165,0 6.43945,-0.3789 6.43945,-0.3789 0,0 3.03058,3.03066 7.95508,0.75781 0,0 5.68087,2.65214 10.22656,1.89453 4.54568,-0.75761 10.60772,-1.89453 11.74414,-1.89453 1.13642,0 16.6676,-2.9e-4 22.72852,-1.13672 0,0 -22.72816,1.13653 -31.31446,-2.14649 -8.5863,-3.28297 -9.09233,-4.54512 3.78711,-5.30273 12.87945,-0.75764 29.54688,-4.54687 29.54688,-4.54687 0,-10e-6 -28.03069,0.75781 -33.33399,0.75781 -5.3033,0 -13.6381,-3.78773 -18.9414,-6.06055 -5.3033,-2.27286 -6.81759,-4.54608 -11.36328,-9.0918 -4.54568,-4.54567 -9.09124,0.75765 -14.39454,0 -5.3033,-0.7576 -13.63827,-5.3018 -12.12304,-16.66601 1.51523,-11.36425 -0.88281,-17.17383 -0.88281,-17.17383 z M 213.75,706.60716 c 0,0 12.85715,-11.25001 21.42858,-15.00001 8.57142,-3.75 16.60714,-15.53571 20.35714,-20.35714 3.75,-4.82143 2.14286,-9.64286 2.14286,-9.64286 0,0 -4.28572,9.64286 -11.78572,16.60715 -7.5,6.96428 -14.46428,12.32143 -18.75,12.32143 -4.28571,0 -9.45499,-2.24305 -9.45499,-2.24305 l 1e-5,4.16689 -9.09137,7.57614 -1.89404,3.40929 -3.40927,1.51521 -4.16688,5.6821 0.75762,4.54572 10.4732,-2.50946 c 0,0 -1.42856,-3.92856 3.39286,-6.07141 z m 285.00001,2.14285 c 0,0 -5.89286,-2.67857 -11.78572,-5.35714 -5.89285,-2.67857 -10.71428,-8.57143 -17.67857,-16.07143 -6.96428,-7.5 -10.71428,-18.21429 -10.71428,-18.21429 0,0 5.35714,11.78572 12.32143,16.07143 6.96428,4.28572 12.32142,-0.53571 12.32142,-0.53571 0,0 -0.53571,2.67857 -1.07142,5.89286 -0.53572,3.21428 9.10714,15.53571 16.60714,18.21428 z m -170.70297,-11.4922 c 0,0 19.69798,1.51522 32.57742,0.75761 12.87945,-0.75761 21.97082,-3.03046 21.97082,-3.03046 0,0 -12.87944,-2.27284 -25.75889,-1.51523 -12.87944,0.75762 -29.54696,2.27285 -29.54696,2.27285 z m 5.52439,26.67075 c 0,0 -13.92857,-4.82143 -13.92857,-4.82143 l -19.62755,-1.39373 c 0,0 18.94036,-4.54569 25.75889,-2.27285 6.81853,2.27285 44.71609,8.32846 39.40437,7.9523 -5.31172,-0.37615 -31.60714,0.53571 -31.60714,0.53571 z m 15.56255,48.08055 c 0,0 -8.20749,-2.02032 -15.02602,-1.26271 -6.81853,0.75762 -23.48605,5.30331 -23.48605,5.30331 l 26.39024,0.12625 12.12183,-4.16685 v 0 c 0,0 0,0 0,0 z"
           transform="scale(0.26458333)" />
        <path
           style="font-variation-settings:normal;opacity:1;vector-effect:none;fill:none;fill-opacity:1;stroke:#000000;stroke-width:0.542583;stroke-linecap:butt;stroke-linejoin:miter;stroke-miterlimit:4;stroke-dasharray:none;stroke-dashoffset:0;stroke-opacity:1;stop-color:#000000;stop-opacity:1"
           d="m 122.97383,172.65611 c 0,0 1.23612,1.23612 1.93771,1.83748 0.70158,0.60136 0.30067,1.80407 1.00226,2.00452 0.70158,0.20045 1.70384,1.9043 2.20497,2.40543 0.50113,0.50113 0.4009,2.10474 2.20497,3.20723 v 1.10249 c 0,0 1.30294,1.00226 2.40543,2.00452 l 0.50113,0.90204 0.90203,0.4009 c 0,0 1.00226,1.10249 1.10249,1.50339 0.10023,0.40091 -0.20045,1.20272 -0.20045,1.20272 0,0 1.00226,0.20045 0.90203,0.90203 -0.10022,0.70158 0.40091,2.00452 0.40091,2.00452 l 0.80181,1.20272 c 0,0 0,3.30746 0.10022,4.71062 0.10023,1.40317 -1.10249,1.60362 -1.10249,1.60362 0,0 -0.50113,0.70158 -0.70158,0.80181 -0.20045,0.10022 -2.20497,0.10022 -2.20497,0.10022 0,0 0.4009,0.60136 -0.10023,0.80181 -0.50113,0.20045 -2.60588,1.00226 -2.60588,1.00226 0,0 -0.90203,0.50113 -1.50339,1.40317 -0.60135,0.90203 -1.20271,1.60361 -1.90429,1.60361 -0.70158,0 -1.70385,-0.10022 -1.70385,-0.10022 0,0 -0.8018,0.80181 -2.10474,0.20045 0,0 -1.50339,0.70158 -2.70611,0.50113 -1.20271,-0.20045 -2.80633,-0.50113 -3.10701,-0.50113 -0.30067,0 -4.40994,0 -6.01356,-0.30068 -1.60362,-0.30068 -3.00678,-0.10022 -4.40995,0.20045 -1.40316,0.30068 -7.116049,0.10023 -8.318762,0 -1.202712,-0.10022 -2.204973,-1.00226 -3.207234,-1.10248 0,0 -2.168002,-0.10023 -3.170263,0 -1.002261,0.10022 -2.004522,1.00226 -3.207234,1.10248 -1.202713,0.10023 -6.9156,0.30068 -8.318765,0 -1.403165,-0.30067 -2.80633,-0.50113 -4.409947,-0.20045 -1.603617,0.30068 -5.712886,0.30068 -6.013564,0.30068 -0.300678,0 -1.904296,0.30068 -3.107008,0.50113 -1.202713,0.20045 -2.706104,-0.50113 -2.706104,-0.50113 -1.302939,0.60136 -2.104748,-0.20045 -2.104748,-0.20045 0,0 -1.002261,0.10022 -1.703843,0.10022 -0.701583,0 -1.302939,-0.70158 -1.904296,-1.60361 -0.601356,-0.90204 -1.503391,-1.40317 -1.503391,-1.40317 0,0 -2.104747,-0.80181 -2.605878,-1.00226 -0.50113,-0.20045 -0.100226,-0.80181 -0.100226,-0.80181 0,0 -2.004521,0 -2.204973,-0.10022 -0.200452,-0.10023 -0.701583,-0.80181 -0.701583,-0.80181 0,0 -1.202713,-0.20045 -1.102487,-1.60362 0.100226,-1.40316 0.100226,-4.71062 0.100226,-4.71062 l 0.801809,-1.20272 c 0,0 0.50113,-1.30294 0.400904,-2.00452 -0.100226,-0.70158 0.902035,-0.90203 0.902035,-0.90203 0,0 -0.300678,-0.80181 -0.200452,-1.20272 0.100226,-0.4009 1.102487,-1.50339 1.102487,-1.50339 l 0.902034,-0.4009 0.501131,-0.90204 c 1.102486,-1.00226 2.405425,-2.00452 2.405425,-2.00452 l -1e-6,-1.10249 c 1.804069,-1.10249 1.703845,-2.7061 2.204974,-3.20723 0.501131,-0.50113 1.503391,-2.20498 2.204973,-2.40543 0.701583,-0.20045 0.300678,-1.40316 1.002261,-2.00452 0.701582,-0.60136 1.937705,-1.83748 1.937705,-1.83748 z"
           id="path1486"
           sodipodi:nodetypes="cssscccccscsccscscscssccsssssccsssssccsscscscsccscscccccssscc" />
        <path
           style="font-variation-settings:normal;opacity:1;vector-effect:none;fill:none;fill-opacity:1;stroke:#000000;stroke-width:0.542583;stroke-linecap:butt;stroke-linejoin:miter;stroke-miterlimit:4;stroke-dasharray:none;stroke-dashoffset:0;stroke-opacity:1;stop-color:#000000;stop-opacity:1"
           d="m 52.885958,189.22683 c 0,0 1.211885,-0.52222 2.771035,-0.66396 1.559152,-0.14174 4.677455,0.56696 7.654017,0.7087 2.976562,0.14175 7.512277,0.28349 11.055805,0.42523 3.543527,0.14174 9.21317,0.42522 10.205357,0.56696 0.992188,0.14174 3.685268,1.27567 3.685268,1.27567 0,0 4.960937,0 8.362722,-0.14174 3.401788,-0.14174 7.795758,0 10.347098,-0.14174 2.55134,-0.14174 6.09487,-1.70089 7.9375,-1.55915 1.84263,0.14174 9.04741,-0.52801 10.63058,-0.51972 1.58317,0.008 5.39476,-0.4358 9.49903,0.0498"
           id="path1488"
           sodipodi:nodetypes="csssscssszc" />
        <path
           style="color:#000000;font-style:normal;font-variant:normal;font-weight:normal;font-stretch:normal;font-size:medium;line-height:normal;font-family:sans-serif;font-variant-ligatures:normal;font-variant-position:normal;font-variant-caps:normal;font-variant-numeric:normal;font-variant-alternates:normal;font-variant-east-asian:normal;font-feature-settings:normal;font-variation-settings:normal;text-indent:0;text-align:start;text-decoration:none;text-decoration-line:none;text-decoration-style:solid;text-decoration-color:#000000;letter-spacing:normal;word-spacing:normal;text-transform:none;writing-mode:lr-tb;direction:ltr;text-orientation:mixed;dominant-baseline:auto;baseline-shift:baseline;text-anchor:start;white-space:normal;shape-padding:0;shape-margin:0;inline-size:0;clip-rule:nonzero;display:inline;overflow:visible;visibility:visible;opacity:1;isolation:auto;mix-blend-mode:normal;color-interpolation:sRGB;color-interpolation-filters:linearRGB;solid-color:#000000;solid-opacity:1;vector-effect:none;fill:#000000;fill-opacity:1;fill-rule:nonzero;stroke:none;stroke-width:1.02535;stroke-linecap:butt;stroke-linejoin:miter;stroke-miterlimit:4;stroke-dasharray:none;stroke-dashoffset:0;stroke-opacity:1;color-rendering:auto;image-rendering:auto;shape-rendering:auto;text-rendering:auto;enable-background:accumulate;stop-color:#000000;stop-opacity:1"
           d="m 58.759766,200.61719 c -1.167537,-0.5108 -2.203842,-0.5716 -2.949219,-0.50586 -0.745378,0.0657 -1.199219,0.25976 -1.199219,0.25976 l 0.158203,0.36329 c 0,0 1.631392,-0.71474 3.832031,0.24804 2.273818,0.9948 3.572423,1.42927 4.898438,1.37695 -1.225323,-0.33579 -2.478338,-0.7526 -4.740234,-1.74218 z m 60.570314,1.79883 c 1.75908,0.14072 2.70007,0.38537 3.59961,0.52929 0.89953,0.14393 1.75346,0.17913 3.25781,-0.10742 1.47676,-0.28128 2.55697,-0.35289 3.26562,-0.35351 0.70866,-6.3e-4 1.03125,0.0664 1.03126,0.0664 l 0.0781,-0.38867 c 0,0 -0.37485,-0.0749 -1.10938,-0.0742 -0.73452,6.5e-4 -1.84003,0.0737 -3.33984,0.35938 -1.47221,0.28042 -2.24887,0.24502 -3.12109,0.10546 -0.87223,-0.13955 -1.84641,-0.39044 -3.63086,-0.5332 -3.57183,-0.28574 -11.35449,0.0557 -11.35449,0.0557 0,0 7.80801,0.0596 11.32324,0.34083 z"
           id="path1490"
           sodipodi:nodetypes="ssccscsssssccsssscs" />
      </g>
      <path
         style="font-variation-settings:normal;opacity:1;vector-effect:none;fill:#ce1021;fill-opacity:1;stroke:#000000;stroke-width:0.542583;stroke-linecap:butt;stroke-linejoin:miter;stroke-miterlimit:4;stroke-dasharray:none;stroke-dashoffset:0;stroke-opacity:1;stop-color:#000000;stop-opacity:1"
         d="m 59.838375,171.22322 c -0.14175,-1.27567 0.0131,-7.65427 0.0131,-7.65427 -10.02261,-4.81085 -25.65787,-18.4416 -35.27958,-36.88319 -9.6217,-18.4416 -11.74432,-41.074154 -11.74432,-41.074154 l 7.65402,3.968751 7.37054,-5.291667 c 0,0 1.22842,21.73363 10.29985,36.19122 9.07143,14.45759 18.62589,21.23976 22.03358,23.44473 3.40769,2.20497 1.80407,5.41221 0.4009,7.41673 -1.40316,2.00452 -0.8018,3.20723 -0.8018,3.20723 0,0 4.92014,4.2014 34.175497,4.2014 29.255348,0 34.175508,-4.2014 34.175508,-4.2014 0,0 0.60136,-1.20271 -0.80181,-3.20723 -1.40316,-2.00452 -3.00678,-5.21176 0.4009,-7.41673 3.40769,-2.20497 12.96216,-8.98714 22.03359,-23.44473 9.07142,-14.45759 10.29985,-36.19122 10.29985,-36.19122 l 7.37053,5.291667 7.65402,-3.968751 c 0,0 -2.12262,22.632554 -11.74432,41.074154 -9.6217,18.44159 -25.25697,32.07234 -35.27958,36.88319 0,0 0.15485,6.3786 0.0131,7.65427 -0.14174,1.27566 -11.0558,4.53571 -34.121793,4.53571 -23.065992,0 -33.980052,-3.26005 -34.121792,-4.53571 z"
         id="path1245"
         sodipodi:nodetypes="scsccccscczccsccccscszs" />
      <path
         id="path1247"
         style="font-variation-settings:normal;opacity:1;vector-effect:none;fill:none;fill-opacity:1;stroke:#000000;stroke-width:0.542583;stroke-linecap:butt;stroke-linejoin:miter;stroke-miterlimit:4;stroke-dasharray:none;stroke-dashoffset:0;stroke-opacity:1;stop-color:#000000;stop-opacity:1"
         d="m 128.06886,163.56895 c 0,0 -0.16296,-5.99296 0.0668,-9.02035 m -68.284176,9.02035 c 0,0 0.162959,-5.99296 -0.06682,-9.02035" />
      <g
         aria-label="JUSTICE"
         id="text1252"
         style="font-style:normal;font-variant:normal;font-weight:normal;font-stretch:normal;font-size:14.1111px;line-height:1.25;font-family:Calibri;-inkscape-font-specification:'Calibri, Normal';font-variant-ligatures:normal;font-variant-caps:normal;font-variant-numeric:normal;font-variant-east-asian:normal;text-align:center;letter-spacing:1.32292px;text-anchor:middle;fill:#f7d618;fill-opacity:1;stroke-width:0.271291"
         transform="rotate(-0.99500101,32.641156,121.60789)">
        <path
           d="m 27.129669,100.42305 -6.381459,1.22217 c -0.347382,0.0665 -0.671488,0.0959 -0.972319,0.088 -0.30083,-0.008 -0.567442,-0.0691 -0.799837,-0.18354 -0.232395,-0.11451 -0.42918,-0.28728 -0.590356,-0.51832 -0.1558,-0.22739 -0.269128,-0.52606 -0.339984,-0.896 -0.02419,-0.12632 -0.03711,-0.254799 -0.03875,-0.38544 -0.0053,-0.125265 2e-4,-0.243236 0.0164,-0.353912 0.01171,-0.109813 0.02826,-0.206523 0.04966,-0.29013 0.02591,-0.08447 0.04981,-0.142834 0.0717,-0.175087 0.02275,-0.02774 0.04593,-0.05323 0.06954,-0.07646 l 0.980086,-0.04741 c 0.0069,0.03609 -0.0025,0.08466 -0.02821,0.145713 -0.02035,0.0647 -0.04348,0.139285 -0.06939,0.223754 -0.02505,0.08898 -0.04568,0.188812 -0.0619,0.299488 -0.01171,0.109813 -0.0042,0.234646 0.02262,0.374501 0.02938,0.153393 0.07249,0.280763 0.129314,0.382123 0.06134,0.1005 0.150805,0.1769 0.268395,0.22921 0.117589,0.0523 0.270069,0.0793 0.45744,0.0808 0.191883,6.7e-4 0.434446,-0.0271 0.727691,-0.0832 l 6.266409,-1.200231 z"
           style="font-style:normal;font-variant:normal;font-weight:normal;font-stretch:normal;font-size:14.1111px;font-family:Calibri;-inkscape-font-specification:'Calibri, Normal';font-variant-ligatures:normal;font-variant-caps:normal;font-variant-numeric:normal;font-variant-east-asian:normal;fill:#f7d618;fill-opacity:1;stroke-width:0.271291"
           id="path1334"
           sodipodi:nodetypes="ccsscscccccccccscccccc" />
        <path
           d="m 28.055428,104.22786 -5.154824,1.56835 c -0.395511,0.12034 -0.725776,0.27364 -0.990797,0.4599 -0.265021,0.18626 -0.469,0.39956 -0.611936,0.63991 -0.137205,0.2434 -0.217571,0.50792 -0.241097,0.79356 -0.01779,0.28869 0.02211,0.59344 0.119714,0.91424 0.100278,0.32959 0.237532,0.60713 0.411761,0.8326 0.175566,0.22986 0.38677,0.40327 0.633612,0.52022 0.24818,0.12135 0.529132,0.18471 0.842857,0.19009 0.315061,0.01 0.663756,-0.0435 1.046083,-0.15983 l 5.21415,-1.5864 0.342948,1.12684 -5.207551,1.58512 c -0.518558,0.15777 -1.005583,0.22193 -1.461074,0.19246 -0.449759,-0.0264 -0.85805,-0.13744 -1.224873,-0.33313 -0.366823,-0.19568 -0.684249,-0.47361 -0.952278,-0.83379 -0.268029,-0.36017 -0.48026,-0.79734 -0.636694,-1.31151 -0.143064,-0.47022 -0.20531,-0.91941 -0.186738,-1.34758 0.01857,-0.42817 0.117579,-0.8208 0.297017,-1.17788 0.183835,-0.35841 0.452975,-0.67316 0.807421,-0.94425 0.354446,-0.27109 0.793146,-0.48618 1.316099,-0.64529 l 5.293252,-1.61047 z"
           style="font-style:normal;font-variant:normal;font-weight:normal;font-stretch:normal;font-size:14.1111px;font-family:Calibri;-inkscape-font-specification:'Calibri, Normal';font-variant-ligatures:normal;font-variant-caps:normal;font-variant-numeric:normal;font-variant-east-asian:normal;fill:#f7d618;fill-opacity:1;stroke-width:0.271291"
           id="path1336"
           sodipodi:nodetypes="ccsccsccccccccsssscsscc" />
        <path
           d="m 23.930891,114.74498 c -0.02701,0.14012 -0.04821,0.3126 -0.0636,0.51745 -0.01539,0.20485 -0.01259,0.44196 0.0084,0.71134 0.02695,0.27189 0.104833,0.56512 0.23364,0.87969 0.09748,0.23805 0.218132,0.44179 0.361965,0.61122 0.145574,0.17368 0.304469,0.30716 0.476684,0.40044 0.178207,0.0958 0.367994,0.14714 0.569361,0.15403 0.201367,0.007 0.410448,-0.0341 0.627243,-0.12283 0.233799,-0.0957 0.411832,-0.23068 0.5341,-0.40484 0.122268,-0.17416 0.209357,-0.37362 0.261266,-0.59838 0.05616,-0.22651 0.08912,-0.4733 0.09889,-0.74037 0.01576,-0.26456 0.02891,-0.5355 0.03944,-0.81282 0.01479,-0.27905 0.04281,-0.55608 0.08408,-0.83109 0.04126,-0.27501 0.115477,-0.53621 0.222651,-0.7836 0.10717,-0.24739 0.257151,-0.47509 0.449944,-0.68309 0.198784,-0.20549 0.466086,-0.37699 0.801906,-0.5145 0.344321,-0.14099 0.675624,-0.20468 0.993909,-0.19107 0.324276,0.0161 0.623065,0.0973 0.896367,0.24349 0.275043,0.15045 0.521987,0.35955 0.740833,0.62732 0.224838,0.27028 0.410364,0.58396 0.556579,0.94103 0.07485,0.18279 0.132693,0.37255 0.173534,0.56926 0.04683,0.19922 0.07569,0.39091 0.08657,0.57507 0.01687,0.18667 0.01741,0.3577 0.0016,0.51308 -0.01155,0.15363 -0.03074,0.25828 -0.05758,0.31395 l -0.997106,0.11033 c 0.01948,-0.12214 0.03576,-0.27027 0.04884,-0.44439 0.01733,-0.17586 0.01487,-0.37587 -0.0074,-0.60003 -0.01631,-0.22165 -0.07494,-0.45575 -0.175897,-0.7023 -0.094,-0.22955 -0.207688,-0.41629 -0.341077,-0.56021 -0.129139,-0.14567 -0.267347,-0.25287 -0.414625,-0.32162 -0.147278,-0.0687 -0.302371,-0.10205 -0.465278,-0.0999 -0.162908,0.002 -0.323003,0.0353 -0.480286,0.0999 -0.229547,0.094 -0.405455,0.22807 -0.527724,0.40223 -0.122268,0.17416 -0.211482,0.37449 -0.267642,0.601 -0.05442,0.23075 -0.08864,0.48054 -0.102655,0.74935 -0.01402,0.26881 -0.02842,0.54275 -0.04321,0.8218 -0.01053,0.27732 -0.03556,0.55561 -0.07509,0.83486 -0.03527,0.27752 -0.106495,0.53998 -0.213664,0.78737 -0.101179,0.2499 -0.25116,0.4776 -0.449944,0.68309 -0.192793,0.20799 -0.452848,0.37901 -0.780166,0.51304 l -5e-5,1.8e-4 c -0.38683,0.1584 -0.760743,0.22713 -1.121738,0.20618 -0.359254,-0.0167 -0.697373,-0.10902 -1.014356,-0.27707 -0.310992,-0.16551 -0.59012,-0.39866 -0.837385,-0.69947 -0.245524,-0.29655 -0.449226,-0.6425 -0.611107,-1.03783 -0.113143,-0.27631 -0.195072,-0.54306 -0.245789,-0.80026 -0.04897,-0.25294 -0.07775,-0.48686 -0.08633,-0.70175 -0.0068,-0.21064 -2.27e-4,-0.39452 0.01982,-0.55163 0.02179,-0.15287 0.04774,-0.26525 0.07786,-0.33715 z"
           style="font-style:normal;font-variant:normal;font-weight:normal;font-stretch:normal;font-size:14.1111px;font-family:Calibri;-inkscape-font-specification:'Calibri, Normal';font-variant-ligatures:normal;font-variant-caps:normal;font-variant-numeric:normal;font-variant-east-asian:normal;fill:#f7d618;fill-opacity:1;stroke-width:0.271291"
           id="path1338"
           sodipodi:nodetypes="cscscccsscccsscscccscccccccscsccscscccccccccsccccc" />
        <path
           d="m 33.213816,117.78552 2.817907,5.52394 -0.896095,0.45716 -1.139687,-2.23413 -6.886514,3.51299 -0.53854,-1.05567 6.886514,-3.51299 -1.139687,-2.23413 z"
           style="font-style:normal;font-variant:normal;font-weight:normal;font-stretch:normal;font-size:14.1111px;font-family:Calibri;-inkscape-font-specification:'Calibri, Normal';font-variant-ligatures:normal;font-variant-caps:normal;font-variant-numeric:normal;font-variant-east-asian:normal;fill:#f7d618;fill-opacity:1;stroke-width:0.271291"
           id="path1340"
           sodipodi:nodetypes="ccccccccc" />
        <path
           d="m 29.703483,129.71338 7.322246,-4.42917 0.61341,1.01402 -7.322246,4.42924 z"
           style="font-style:normal;font-variant:normal;font-weight:normal;font-stretch:normal;font-size:14.1111px;font-family:Calibri;-inkscape-font-specification:'Calibri, Normal';font-variant-ligatures:normal;font-variant-caps:normal;font-variant-numeric:normal;font-variant-east-asian:normal;fill:#f7d618;fill-opacity:1;stroke-width:0.271291"
           id="path1342"
           sodipodi:nodetypes="ccccc" />
        <path
           d="m 41.201849,134.10049 c 0.0072,-0.14688 -1.67e-4,-0.32572 -0.02214,-0.53653 -0.01556,-0.20977 -0.06464,-0.44633 -0.147235,-0.70967 -0.07618,-0.26231 -0.220538,-0.54053 -0.433063,-0.83467 -0.231355,-0.3202 -0.507692,-0.5654 -0.829009,-0.7356 -0.314904,-0.16916 -0.66434,-0.2567 -1.048309,-0.26263 -0.383969,-0.006 -0.794195,0.0694 -1.230678,0.22616 -0.43007,0.15773 -0.875948,0.40339 -1.337635,0.73697 -0.457963,0.33089 -0.828828,0.67253 -1.112595,1.0249 -0.277353,0.35341 -0.469266,0.70741 -0.575737,1.06202 -0.100057,0.35565 -0.114674,0.7119 -0.04385,1.06875 0.07455,0.35416 0.234225,0.70065 0.479031,1.03947 0.207144,0.28669 0.422757,0.5106 0.64684,0.67171 0.226773,0.16483 0.43678,0.29078 0.630023,0.37784 l -0.09627,0.99621 c -0.06413,-0.0103 -0.178338,-0.0468 -0.342614,-0.10947 -0.160551,-0.0653 -0.342624,-0.16046 -0.546218,-0.28538 -0.197181,-0.12388 -0.403368,-0.28376 -0.618562,-0.47963 -0.216227,-0.18946 -0.422532,-0.42009 -0.618915,-0.69189 -0.338963,-0.46913 -0.567454,-0.95008 -0.685475,-1.44284 -0.115331,-0.48904 -0.117197,-0.97789 -0.0056,-1.46656 0.114307,-0.48495 0.342398,-0.96144 0.684274,-1.42947 0.34829,-0.46699 0.814713,-0.91167 1.399268,-1.33403 0.599448,-0.43312 1.188887,-0.74283 1.768318,-0.92914 0.582121,-0.18259 1.136025,-0.25128 1.661714,-0.20608 0.529412,0.0425 1.019643,0.19552 1.470693,0.45897 0.453739,0.2672 0.851436,0.63723 1.193089,1.11008 0.15065,0.20851 0.276787,0.42622 0.37841,0.65315 0.105347,0.22423 0.188763,0.44165 0.250248,0.65224 0.06149,0.21059 0.100213,0.40929 0.11618,0.5961 0.01597,0.18681 0.01537,0.32324 -0.0018,0.40931 z"
           style="font-style:normal;font-variant:normal;font-weight:normal;font-stretch:normal;font-size:14.1111px;font-family:Calibri;-inkscape-font-specification:'Calibri, Normal';font-variant-ligatures:normal;font-variant-caps:normal;font-variant-numeric:normal;font-variant-east-asian:normal;fill:#f7d618;fill-opacity:1;stroke-width:0.271291"
           id="path1344"
           sodipodi:nodetypes="cccscccscccsccccccscccscccscsscc" />
        <path
           d="m 44.071413,134.98455 3.15803,3.49405 -0.730838,0.66077 -2.338338,-2.58601 -2.074936,1.87622 2.005611,2.21803 -0.710388,0.64241 -2.005611,-2.21803 -2.366244,2.13962 2.370687,2.62178 -0.730812,0.66085 -3.262713,-3.57726 z"
           style="font-style:normal;font-variant:normal;font-weight:normal;font-stretch:normal;font-size:14.1111px;font-family:Calibri;-inkscape-font-specification:'Calibri, Normal';font-variant-ligatures:normal;font-variant-caps:normal;font-variant-numeric:normal;font-variant-east-asian:normal;fill:#f7d618;fill-opacity:1;stroke-width:0.271291"
           id="path1346"
           sodipodi:nodetypes="ccccccccccccc" />
      </g>
      <g
         aria-label="PAIX"
         id="text1256"
         style="font-style:normal;font-variant:normal;font-weight:normal;font-stretch:normal;font-size:14.1111px;line-height:1.25;font-family:Calibri;-inkscape-font-specification:'Calibri, Normal';font-variant-ligatures:normal;font-variant-caps:normal;font-variant-numeric:normal;font-variant-east-asian:normal;text-align:center;letter-spacing:1.32292px;text-anchor:middle;fill:#f7d618;fill-opacity:1;stroke-width:0.271291"
         transform="rotate(-0.73851191,93.31147,167.1169)">
        <path
           d="m 82.556849,162.51835 c 0.192291,0.0156 0.374682,0.0396 0.547171,0.0721 0.177439,0.0283 0.382964,0.0795 0.616574,0.1538 0.23856,0.0701 0.475502,0.18843 0.710825,0.35503 0.240275,0.1624 0.438842,0.35597 0.595702,0.58071 0.156861,0.22475 0.269725,0.48048 0.338593,0.76721 0.07382,0.28251 0.09714,0.59088 0.06998,0.9251 l -10e-7,-2.9e-4 c -0.03609,0.4441 -0.141907,0.83875 -0.317442,1.18396 -0.175533,0.34521 -0.410883,0.63255 -0.706051,0.86203 -0.29059,0.22985 -0.640626,0.39727 -1.050107,0.50225 -0.404903,0.10535 -0.882056,0.13568 -1.431459,0.091 l -1.009529,-0.0821 -0.26011,3.20027 -1.181216,-0.0956 0.637129,-8.68301 z m 1.628004,2.84866 c 0.0294,-0.36169 -0.01472,-0.66945 -0.132347,-0.92326 -0.11305,-0.25345 -0.265462,-0.44788 -0.457235,-0.58329 -0.187195,-0.13503 -0.387081,-0.22732 -0.599659,-0.27686 -0.208,-0.0491 -0.412724,-0.0819 -0.614172,-0.0983 l -1.091939,-0.0888 -0.289693,3.56426 1.064469,0.0865 c 0.357112,0.029 0.656138,0.007 0.897077,-0.0653 0.245517,-0.0722 0.454909,-0.18194 0.628176,-0.32916 0.173639,-0.15179 0.31078,-0.33651 0.411425,-0.55416 0.101016,-0.22222 0.162315,-0.4661 0.183898,-0.73164 z"
           style="font-style:normal;font-variant:normal;font-weight:normal;font-stretch:normal;font-size:14.1111px;font-family:Calibri;-inkscape-font-specification:'Calibri, Normal';font-variant-ligatures:normal;font-variant-caps:normal;font-variant-numeric:normal;font-variant-east-asian:normal;fill:#f7d618;fill-opacity:1;stroke-width:0.271291"
           id="path1325"
           sodipodi:nodetypes="ccccscccsccscccccsccccccccccss" />
        <path
           d="m 91.06942,163.23016 2.649496,8.39748 c 0.03259,0.10247 0.04757,0.18583 0.04494,0.25009 l -1.259851,-0.0515 -0.675502,-2.19984 -3.703827,-0.15144 -0.817296,2.11122 -1.212505,-0.0291 c 0.0072,-0.0641 0.03124,-0.14584 0.07209,-0.24531 l 3.326203,-8.15293 z m -0.886471,0.93633 -0.0069,-2.8e-4 -1.716794,4.37769 3.097997,0.12667 z"
           style="font-style:normal;font-variant:normal;font-weight:normal;font-stretch:normal;font-size:14.1111px;font-family:Calibri;-inkscape-font-specification:'Calibri, Normal';font-variant-ligatures:normal;font-variant-caps:normal;font-variant-numeric:normal;font-variant-east-asian:normal;fill:#f7d618;fill-opacity:1;stroke-width:0.271291"
           id="path1327"
           sodipodi:nodetypes="cccccccccccccccc" />
        <path
           d="m 97.668089,163.30241 0.03257,8.55756 -1.185099,0.005 -0.03258,-8.55756 z"
           style="font-style:normal;font-variant:normal;font-weight:normal;font-stretch:normal;font-size:14.1111px;font-family:Calibri;-inkscape-font-specification:'Calibri, Normal';font-variant-ligatures:normal;font-variant-caps:normal;font-variant-numeric:normal;font-variant-east-asian:normal;fill:#f7d618;fill-opacity:1;stroke-width:0.271291"
           id="path1329"
           sodipodi:nodetypes="ccccc" />
        <path
           d="m 105.81201,171.46366 -2.26832,-3.37401 -1.7077,3.70074 -1.29218,0.0926 c 0.009,-0.0607 0.0389,-0.14379 0.0901,-0.24938 l 2.08831,-4.28508 -2.63866,-3.75839 c -0.0632,-0.0962 -0.106423,-0.1733 -0.129628,-0.23131 l 1.331048,-0.12333 2.18216,3.16677 1.62218,-3.47939 1.25094,-0.0894 c -0.004,0.0603 -0.0295,0.14302 -0.0764,0.24825 l -1.98513,4.11068 2.74167,3.91617 c 0.0678,0.0958 0.10871,0.17312 0.12276,0.23188 z"
           style="font-style:normal;font-variant:normal;font-weight:normal;font-stretch:normal;font-size:14.1111px;font-family:Calibri;-inkscape-font-specification:'Calibri, Normal';font-variant-ligatures:normal;font-variant-caps:normal;font-variant-numeric:normal;font-variant-east-asian:normal;fill:#f7d618;fill-opacity:1;stroke-width:0.271291"
           id="path1331"
           sodipodi:nodetypes="ccccccccccccccccc" />
      </g>
      <g
         aria-label="TRAVAIL"
         id="text1260"
         style="font-style:normal;font-variant:normal;font-weight:normal;font-stretch:normal;font-size:14.1111px;line-height:1.25;font-family:Calibri;-inkscape-font-specification:'Calibri, Normal';font-variant-ligatures:normal;font-variant-caps:normal;font-variant-numeric:normal;font-variant-east-asian:normal;text-align:center;letter-spacing:1.32292px;text-anchor:middle;fill:#f7d618;fill-opacity:1;stroke-width:0.271291">
        <path
           d="m 142.51892,137.60132 -1.66679,1.87404 5.77656,5.13775 -0.78756,0.88556 -5.77657,-5.13776 -1.66679,1.87404 -0.75164,-0.66817 4.1212,-4.6336 z"
           style="font-style:normal;font-variant:normal;font-weight:normal;font-stretch:normal;font-size:14.1111px;font-family:Calibri;-inkscape-font-specification:'Calibri, Normal';font-variant-ligatures:normal;font-variant-caps:normal;font-variant-numeric:normal;font-variant-east-asian:normal;fill:#f7d618;fill-opacity:1;stroke-width:0.271291"
           id="path1310"
           sodipodi:nodetypes="ccccccccc" />
        <path
           d="m 144.26644,133.49569 c 0.13127,-0.18284 0.24488,-0.3303 0.34164,-0.44181 0.0957,-0.11792 0.1839,-0.22143 0.26461,-0.31053 0.24907,-0.24539 0.50209,-0.43712 0.75907,-0.57517 0.25965,-0.14179 0.52191,-0.22805 0.78679,-0.25877 0.26489,-0.0307 0.52732,-0.007 0.78729,0.072 0.25891,0.0723 0.51349,0.19806 0.76376,0.37718 0.2428,0.17377 0.43726,0.36379 0.58337,0.57004 0.14505,0.19985 0.24817,0.41487 0.30936,0.64508 0.0575,0.22753 0.0789,0.46597 0.0642,0.71532 -0.0147,0.24936 -0.0608,0.50723 -0.1385,0.77361 0.13784,-0.0821 0.2826,-0.1423 0.43429,-0.18061 0.14795,-0.041 0.30737,-0.0625 0.47824,-0.0644 0.17355,-0.006 0.35989,0.006 0.55904,0.0358 0.19915,0.0295 0.41697,0.0725 0.65347,0.12878 l 2.06203,0.49295 c 0.1719,0.0439 0.29121,0.0785 0.35793,0.10367 l -0.65705,1.07202 -2.18612,-0.55635 c -0.25037,-0.0606 -0.48662,-0.10541 -0.70873,-0.13443 -0.22317,-0.0355 -0.43409,-0.0368 -0.63276,-0.004 -0.20241,0.0303 -0.3915,0.10111 -0.56729,0.21252 -0.17952,0.10876 -0.34815,0.27333 -0.50588,0.49372 l -0.46117,0.64434 3.08724,2.2096 -0.68971,0.96374 -7.08081,-5.12383 z m 3.07407,-0.0449 c -0.28389,-0.20318 -0.5684,-0.31078 -0.85353,-0.3228 -0.28887,-0.0147 -0.5832,0.0967 -0.88299,0.33397 -0.093,0.0747 -0.18785,0.16776 -0.2846,0.27927 -0.0941,0.10777 -0.2093,0.25691 -0.34565,0.44741 l -0.58147,0.81243 2.44289,1.74843 0.67371,-0.94129 c 0.18179,-0.25401 0.30831,-0.49391 0.37954,-0.71971 0.0702,-0.23222 0.0952,-0.44873 0.0751,-0.64952 -0.0238,-0.20347 -0.0904,-0.38668 -0.19972,-0.54965 -0.10664,-0.16671 -0.24774,-0.31289 -0.42329,-0.43854 z"
           style="font-style:normal;font-variant:normal;font-weight:normal;font-stretch:normal;font-size:14.1111px;font-family:Calibri;-inkscape-font-specification:'Calibri, Normal';font-variant-ligatures:normal;font-variant-caps:normal;font-variant-numeric:normal;font-variant-east-asian:normal;fill:#f7d618;fill-opacity:1;stroke-width:0.271291"
           id="path1312"
           sodipodi:nodetypes="scccscsccsccccccccccccsccccsscccsccscccss" />
        <path
           d="m 149.65704,125.56179 8.64597,1.6676 c 0.10563,0.0201 0.18608,0.0466 0.24134,0.0795 l -0.64503,1.08293 -2.25619,-0.45298 -1.8961,3.1853 1.46773,1.72365 -0.60249,1.05255 c -0.0529,-0.0369 -0.11341,-0.0969 -0.18142,-0.18016 l -5.58702,-6.80581 z m 0.40113,1.22606 -0.004,0.006 3.03287,3.59349 1.58595,-2.66427 z"
           style="font-style:normal;font-variant:normal;font-weight:normal;font-stretch:normal;font-size:14.1111px;font-family:Calibri;-inkscape-font-specification:'Calibri, Normal';font-variant-ligatures:normal;font-variant-caps:normal;font-variant-numeric:normal;font-variant-east-asian:normal;fill:#f7d618;fill-opacity:1;stroke-width:0.271291"
           id="path1314"
           sodipodi:nodetypes="cccccccccccccccc" />
        <path
           d="m 151.9825,121.32686 7.85871,1.03753 0.003,-0.006 -5.609,-5.55164 0.51635,-1.08979 c 0.0515,0.0306 0.11434,0.0848 0.18862,0.16256 l 6.13244,6.28015 -0.60104,1.41679 c -0.0308,1.3e-4 -0.0657,-0.002 -0.10479,-0.006 l -8.71543,-1.06181 c -0.10687,-0.0119 -0.18809,-0.029 -0.24364,-0.0514 z"
           style="font-style:normal;font-variant:normal;font-weight:normal;font-stretch:normal;font-size:14.1111px;font-family:Calibri;-inkscape-font-specification:'Calibri, Normal';font-variant-ligatures:normal;font-variant-caps:normal;font-variant-numeric:normal;font-variant-east-asian:normal;fill:#f7d618;fill-opacity:1;stroke-width:0.271291"
           id="path1316"
           sodipodi:nodetypes="cccccccccccc" />
        <path
           d="m 156.68012,110.9982 8.80015,0.30251 c 0.10747,0.003 0.19106,0.017 0.25076,0.041 l -0.46874,1.17054 -2.29918,-0.0969 -1.37813,3.44123 1.71773,1.47466 -0.43175,1.13394 c -0.058,-0.0282 -0.12707,-0.0781 -0.20721,-0.14978 l -6.57665,-5.85504 z m 0.58684,1.14742 -0.003,0.006 3.5544,3.07861 1.15271,-2.87835 z"
           style="font-style:normal;font-variant:normal;font-weight:normal;font-stretch:normal;font-size:14.1111px;font-family:Calibri;-inkscape-font-specification:'Calibri, Normal';font-variant-ligatures:normal;font-variant-caps:normal;font-variant-numeric:normal;font-variant-east-asian:normal;fill:#f7d618;fill-opacity:1;stroke-width:0.271291"
           id="path1318"
           sodipodi:nodetypes="cccccccccccccccc" />
        <path
           d="m 158.81586,104.91759 8.12678,2.68145 -0.37139,1.12547 -8.12668,-2.68141 z"
           style="font-style:normal;font-variant:normal;font-weight:normal;font-stretch:normal;font-size:14.1111px;font-family:Calibri;-inkscape-font-specification:'Calibri, Normal';font-variant-ligatures:normal;font-variant-caps:normal;font-variant-numeric:normal;font-variant-east-asian:normal;fill:#f7d618;fill-opacity:1;stroke-width:0.271291"
           id="path1320"
           sodipodi:nodetypes="ccccc" />
        <path
           d="m 159.77766,101.83116 0.31151,-1.14328 7.4389,2.02702 0.84052,-3.08458 0.99058,0.269798 -1.12635,4.202422 z"
           style="font-style:normal;font-variant:normal;font-weight:normal;font-stretch:normal;font-size:14.1111px;font-family:Calibri;-inkscape-font-specification:'Calibri, Normal';font-variant-ligatures:normal;font-variant-caps:normal;font-variant-numeric:normal;font-variant-east-asian:normal;fill:#f7d618;fill-opacity:1;stroke-width:0.271291"
           id="path1322"
           sodipodi:nodetypes="ccccccc" />
      </g>
    </g>
  </g>
</svg>
