<svg xmlns="http://www.w3.org/2000/svg" width="610" height="610">
  <circle cx="305" cy="305" r="300" fill="#0f47af"/>
  <path fill="#fcdd09" d="M76.7468918 230.36874h174.37068l39.42383-121.33932 10.51595 32.36105-57.29575 176.33121-17.01192-12.36127 17.86792-54.99176h-140.343234l-27.527476-19.99991m87.18441 268.32547 53.88242-165.83393-103.21607-74.99166h34.02571l149.998 108.97818-17.01592 12.35994-46.7758-33.98385-43.37047 133.47141-27.52787 19.99991m282.1374 0-141.06737-102.49154-103.21954 74.99166 10.51462-32.35986 149.99666-108.97817 6.49998 19.99857-46.7798 33.98785 113.5395 82.49163 10.51595 32.35986m87.18361-268.32547-141.06737 102.49154 39.42382 121.34213-27.52787-19.99991-57.29175-176.33388h21.02791l17.86792 54.99175 113.53949-82.49163h34.02785m-228.25098-165.834858 53.87976 165.834858h127.58343l-27.52388 19.99991h-185.40717l6.49597-19.99991h57.82374l-43.3678-133.474736Z"/>
  <path fill="none" stroke="#fcdd09" stroke-width="10" d="M305.0013318 415.46658V545.466m-104.61686-206.00975-123.637314 40.17449m163.598464-163.15661-76.41299-105.17232m205.72441 105.17232 76.41166-105.17232m-36.45184 228.15444 123.63545 40.17449z"/>
</svg>