<?xml version="1.0"?>
<svg xmlns="http://www.w3.org/2000/svg" height="450" width="500" xmlns:xlink="http://www.w3.org/1999/xlink">
<use xlink:href="#b" transform="matrix(-1 0 0 1 500 0)"/>
<path stroke="#000" stroke-width="1.96" d="m6 381.6h488l-14.74 22.93c-29.97-6.594-57.93-4.431-83.52 8.189-24.49 11.82-46.79 27.3-86.81 13.1-36.05 26.2-83.52 26.2-117.9-0.6551-32.75 13.76-63.93-1.268-88.44-14.09-24.74-12.11-52.35-12.44-81.89-4.913z" fill="#fcdd09"/>
<g id="b" transform="matrix(2.551 0 0 2.551 -387.9 -156.9)">
<use xlink:href="#a" transform="matrix(.964 -.265 .265 .964 -17.33 69.79)"/>
<g stroke="#000">
<g stroke-linejoin="round">
<path d="m249.7 116.8h-12.6s-25.9 22.5-34.9 25.1c-28.65 9.167-44-15.41-27.81-27.2 1.952-1.421 4.247-3.109 7.265-3.623l18.24-0.5513c-0.1814-2.996-0.2574-4.585-1.541-8.438-2.82-8.093-2.152-12.9 6.421-10.27l5.329 0.5136c-1.284-2.568-1.484-9.464 4.302-4.366 8.263 4.723 15.94 9.373 25.47 9.848l9.848 1.709" fill="#fff"/>
<path d="m180.3 138.4c12.59 7.658 24.51 4.901 38.4-8.294l17.5-16.1 1.284 2.568c-11.02 9.075-26.32 24.4-39.17 26.97-7.893 1.985-17.98 0-22.47-3.852z" fill="#da121a"/>
<path d="m199.9 110.5-13.72 0.392c4.704 3.528 10.19 6.272 13.72-0.392z" fill="#da121a"/>
</g>
<path d="m204.7 91.8c10.1 10.84 28.42 8.48 44.94 7.7" fill="none"/>
<g fill="#da121a">
<path d="m250.5 136.4h-30.52v57.56c0 17 13.5 30.79 30.35 30.79"/>
<path stroke-linejoin="round" d="m210.1 92.47-5.44-0.64 3.85 3.21c0.84-0.36 1.93-1.28 1.58-2.57z"/>
<path d="m236 126.6c-6.66 1.57-10.98 0.78-10.98 9h10.98"/>
</g>
<path d="m186.9 111.3c9 9 26.9-1.6 62.8-11.86" fill="none"/>
</g>
<g id="a" stroke="#000" stroke-width=".5">
<g fill="#da121a">
<path d="m248.4 97.47-2.582-30.76-5.907 3.21-0.01214 5.829 0.2452 0.09452l6.2-2.97-0.5-6.73"/>
<path d="m246.9 80.47-2.757 1.205 3.564 14.72-1.326-13.58 0.7767-0.205z"/>
<g stroke-width="5" transform="matrix(.009767 -.004548 .003735 .008024 239.2 70.98)" fill="#fff">
<path d="m267 67s0.4-9.5-9.4-13.9v-15h15.7v-15.9h-15.8v-16.7h-15v16.7h-14.7v15.9h14.7v15c-8.4 6.3-7.9 13.9-7.9 13.9"/>
<path d="m289 103c0-21.8-19.6-39-39-39s-39 17.5-39 39"/>
<path d="m205 103v17.8l4.4 1.6h81l4.4-1.6v-17.8z"/>
<path d="m290 290v-168h-79v168"/>
<path d="m420 447c-2.4-9.3-4.9-18.7-7.5-30.7-13-60.9-12.4-121-12.4-121h-300s0.033 60-13 121c-2.4 11-4.7 22-6.9 30.7z"/>
<path d="m203 446v-79c0-9.7 12.8-44.8 47-44.8s47 35 47 44.8v79"/>
<g id="f" stroke="#000">
<path d="m123 100h11.3v-20.3h14.8v20.3h9.53v-20.3h15.3v20.3h10.1v-20.3h14.7l0.000104 39.9-5.43 2.2h-80.2l-6-2v-40.3h15z"/>
<path d="m113 290v-168h80v168"/>
<path d="m169 43 7.3 13h-14.6l-7.3 13-7.3-13h-14.6l7.3-13-7.3-13h14.6l7.3-13 7.3 13h14.6z"/>
<path d="m218 446v-80.4c0-9.67 12.7-28.6 32.4-28.6v109"/>
<path d="m218 376h9"/>
<path d="m227 376c0-4.6 1.7-4.6 3-4.6s-0.2 1.9-0.2 4.4 1.5 4.8 0.2 4.8-3-0.4-3-4.6z"/>
<path d="m218 429h9"/>
<path d="m227 429c0-4.6 1.7-4.6 3-4.6s-0.2 1.9-0.2 4.4 1.5 4.8 0.2 4.8-3-0.4-3-4.6z"/>
</g>
<use xlink:href="#f" transform="matrix(-1 0 0 1 500 0)"/>
<path d="m357 273v-23.8h-23.7v23.8h-23.7v-23.8h-23.7v23.8h-23.7v-23.8h-23.7v23.8h-23.7v-23.8h-23.7v23.8h-23.7v-23.8h-23.7v23.8h-23.7v-23.8h-23.7v45.1l5.18 1.71h298l5.18-1.71v-45.1h-23.7v23.8z"/>
</g>
<path stroke-width=".5" d="m242.7 74.63-2.7 1.33 1 3.15 5.9 0.92-0.2-2.54-4.1-1.08z"/>
</g>
<path stroke-width=".5" d="m245.5 63.84 0.7 1.11-0.4 1.44-0.8-1.24z" fill="#fcdd09"/>
</g>
<use xlink:href="#a" transform="matrix(.703 -.711 .711 .703 2.11 207)"/>
<use xlink:href="#e" transform="matrix(.279 -.276 .276 .279 152.6 141.5)"/>
</g>
<g id="e" transform="matrix(2.551 0 0 2.551 -387.7 -156.9)">
<g stroke="#000" stroke-width=".5">
<path d="m245.8 67.52c0-5.778 8.347-5.778 8.347 0l-4.174 47.88z" fill="#078930"/>
<path d="m250 70.7v25m-1.9-2.5 1.9 0.98 1.9-0.98m-3.93-2 2 1.37 2.1-1.37m-4.28-2 2.19 1.71 2.27-1.71m-4.63-2 2.36 1.92 2.45-1.92m-4.99-2 2.54 2.26 2.63-2.26m-5.34-2 2.71 2.37 2.8-2.37m-5.69-2 2.89 2.44 2.98-2.44m-6-2 3.06 2.63 3.15-2.63m-6.4-2 3.24 2.59 3.33-2.59m-6.75-2 3.42 2.48 3.51-2.48m-7.1-2 3.59 2.68 3.52-2.67m-3.52-6.23c1.52 1.43 1.03 2.56 0 3.84-1.21-1.39-1.31-2.63 0-3.84zm-3.845 4.223c2.25 2.94 5.38 2.94 7.63 0" fill="none"/>
</g>
<path id="d" d="m249.3 71.5a0.32 0.32 0 0 1 -0.64 0 0.32 0.32 0 1 1 0.64 0zm1-6.3a0.32 0.32 0 0 1 -0.64 0 0.32 0.32 0 1 1 0.64 0zm-1 0.52a0.32 0.32 0 0 1 -0.64 0 0.32 0.32 0 1 1 0.64 0zm-0.8 0.68a0.32 0.32 0 0 1 -0.64 0 0.32 0.32 0 1 1 0.64 0zm-0.1 4.1a0.32 0.32 0 0 1 -0.64 0 0.32 0.32 0 1 1 0.64 0zm-0.6-1.1a0.32 0.32 0 0 1 -0.64 0 0.32 0.32 0 1 1 0.64 0zm0.1-1.1a0.32 0.32 0 0 1 -0.64 0 0.32 0.32 0 1 1 0.64 0zm0.3-1a0.32 0.32 0 0 1 -0.64 0 0.32 0.32 0 1 1 0.64 0z"/>
<use xlink:href="#d" transform="matrix(-1 0 0 1 500 0)"/>
</g>
<g stroke="#000" transform="matrix(2.551 0 0 2.551 -387.9 -156.9)">
<g fill="#fff">
<path stroke-width=".78" d="m252.6 150.5s0.06287-1.467-1.446-2.13v-2.33h2.408v-2.44h-2.426v-2.568h-2.325v2.568h-2.256v2.44h2.256v2.33c-1.284 0.9653-1.221 2.13-1.221 2.13"/>
<path d="m256 156.5c0-3.36-3-6-5.99-6-2.97 0-5.99 2.69-5.99 6"/>
<g stroke-width="3.63" transform="matrix(.271 0 0 .28 219.8 138.2)">
<path d="m86.31 65.75v9.75l2.5 0.8h45.7l2.5-0.8v-9.75z"/>
<path d="m134.1 164.4v-88.06h-44.85v88.06"/>
</g>
<path d="m272.8 214.5c1.79-2.19 3.36-4.88 3.36-4.88-0.37-1.43-0.76-3.06-1.16-4.91-2-9.35-1.223-18.62-1.223-18.62h-47.4s0.6835 9.26-1.327 18.62c-0.36 1.69-0.72 3.2-1.06 4.53 0 0 1.42 2.66 3.35 5 1.74 2.16 4 4.09 4 4.09s7.46 6.98 19 6.98c10.9 0 18.66-6.98 18.66-6.98s2-1.68 3.8-3.88z"/>
</g>
<g transform="matrix(.271 0 0 .28 219.8 137.9)" fill="none">
<path stroke-width="3.8" d="m77.98 305.9v-78.7c0-6.687 9.094-30.81 33.65-30.81 24.55 0 33.65 24.12 33.65 30.81v78.41"/>
<path stroke-width="2.84" d="m111.6 206v106.1"/>
</g>
<g fill="#fff">
<path d="m226.3 186h47.14"/>
<path stroke-linejoin="round" d="m250.1 137.9 14.72 1.9c-0.357-3.85-1.866-11.59 6.324-11.59l-11.4-5.1 3.85-7.7c1.81-2.219 3.269-7.942 1.925-10.27-1.467-2.541-3.12-4.75-6.21-6.42-2.57-3.85-16.69-3.85-19.26 0-2.24 2-4.266 4.044-5.35 6.42-0.9128 2.001-0.9864 4.972 1.925 10.27l3.85 7.7-11.45 5.111c7.639 0 6.732 7.596 6.324 11.59z"/>
</g>
<g fill="none">
<path d="m236.1 114.7c9.26 4.27 18.34 4.46 27.88 0"/>
<path d="m250.1 118v19.95"/>
<path d="m238.4 100.5 9.089 2.08c1.414-0.8142 3.599-0.5942 5.14 0l9.1-2.1"/>
</g>
<path stroke-width=".5" d="m239.5 103.8c7.038 2.195 15.68 1.993 21.2 0 4.68 2.58 3.47 6.06 1.28 9.31-9.7 3.44-12.2 2.57-23.76 0-3.714-5.426-2.243-7.617 1.28-9.31z" fill="#da121a"/>
</g>
<use xlink:href="#c" transform="matrix(-1 0 0 1 500 0)"/>
<path stroke="#000" stroke-width="1.38" d="m248.2 137.1c-0.41 0.43-0.66 1.02-0.66 1.66 0 1.35 1.1 2.45 2.45 2.45s2.45-1.1 2.45-2.45c0-0.82-0.38-1.5-0.99-1.96 3.82-7.72 3.67-16.87 0.19-26.84 0.51-0.46 0.82-1.1 0.82-1.84 0-1.35-1.1-2.45-2.44-2.44-1.53 0-2.55 1.28-2.49 2.51 0.06 0.7 0.36 1.33 0.87 1.79-2.98 7.12-5.62 16.81-0.19 27.1z" fill="#fff"/>
<g id="c" transform="matrix(2.551 0 0 2.551 -387.9 -156.9)">
<g stroke="#000">
<g stroke-width=".5">
<path d="m185 128.8-0.1217 2.454c-0.9977-0.2602-1.398-1.294-1.548-2.744m4.392 1.006c-0.001 0.68-0.02 1.36-0.37 2.13-0.7-0.19-1.198-0.954-1.198-2.522m5.1 0.4c-0.03 0.58-0.2147 1.15-0.4437 1.73-1.02-0.29-1.096-0.98-1.176-1.7m1.9 5.1c-0.07-0.55 0.01833-1.14-0.3517-1.65-1.08 0.35-0.946 1.06-1.176 1.79m-0.784 0c0-0.54 0-1.09-0.195-1.93-1.114 0.3917-0.855 1.372-1.085 2.102m-0.877 0.1903c0-0.54 0-1.09-0.195-1.93 0 0-1.176 1.176-1.085 1.93" fill="#fff"/>
<path d="m193.2 131.5s-2.58 0.06-3.87 0.09c-1.46 0.03-2.65 0.69-3.85 0.85-2.47 0.34-3.94 0.66-4.49-0.54-0.16-0.36-0.51-1-0.45-2.25-1.16 0.58-1.85 1.43-2.12 2.15-0.81 2.17 1.28 3.85 4.07 3.21 0.11-0.03 3.42-0.8 4.27-1.28 0.9-0.51 1.83-0.87 2.8-0.87h3.64" fill="#da121a"/>
</g>
<g stroke-width=".77">
<path fill="#fcdd09" d="m187.1 129.1c0.39 0.35 3.34 0.65 3.34 0.65l1.5-0.1c0.78-0.05 1.31 0 1.31 2.27 0 2.2-0.9 2.9-1.3 2.9l-6.42 0.57c-1.06 2.62 1.76 4.57 4.11 2.21h3.92c2.4 1.1 4.27 0.41 4.16 0.72-8.96 5.88-11.83 12.75-11.52 22.45-1.59 4.28-4.94 9.24-8.35 13.48-5.41 6.74-11.99-0.4-9.34-5.78 2.34-4.75 6.282-9.799 9.34-14.77 2.072-3.369-0.01224-10.58-7.15-9.52-1.693 0.2512-3.106 0.9971-4.4 1.8-0.6213 0.3854-3.139-0.3665-3.85-0.96l-1.93-1.61c0.26 1.45-0.63 2.34 1.55 4.49-4.9-0.12-4.9 3-7.33 5.78l5.25-1.57c0.46-0.53 1.12-0.87 1.82-1.18-3.14 1.18-4.34 5.27-2.67 7.82 3.53-7.45 4.529-3.044 8.23-8.62 4.709-7.094 10.18-1.177 7.82 2.57l-7.85 12.44c-5.2 8.3 0.5 15.4 6.1 14.2l1.03-0.22c-1.93 0.64-1.03 3.16-2.32 5.36-0.8 1.29-1.73 2.47-3.85 2.57-0.98-0.11-1.96 0.45-2.95 1.18-1.58 1.24-2.98 0.65-4.12 1.07 0.76 1.43 2.99 1.6 4.49 1.6-1.52 1.49-5.09 2-4.49 4.49l2.84-0.93c-1.76 3-1.5 6.07-1.85 9.28l-2.91 0.64c-1.21 0.3-1.88 1.5-1.69 2.57 0.22 1.21 1.47 2.27 2.98 1.93 1.69-1.19 2.95-0.99 3.58 1.28 0.23 1.15 0.84 2.13 1.56 2.38 0.77 0.27 1.62-0.06 1.98-0.72 0.24-0.43 0.27-1-0.06-1.66l0.64 1.28c0.86 0.65 2.11 0.001 2.97-0.73-0.27-0.98-1-1.5-1.27-1.63 0.23-0.13 1.21 0.94 1.27 1.64 1.84-0.15 4.25-0.32 2.17-2.49-0.96-1-2.69-0.55-3.85-0.64-1.63-0.09-2.5-1.14-2.57-3.21 0-1.98 0.25-4.1 1.93-7.1 2.53-1.78 5.95-1.79 8.99-2.57 2.98-1 5.79-2.8 8.35-5.78-3.31-1.97-6.32-4.2-7.1-8.35 1.1 4.67 3.88 6.86 7.1 8.35 1.55 0.72 2.78 2.31 5.14 4.74 1.69 1.74 0.96 3.52-0.15 5-1.66 2.23-0.46 4-0.2 5.52 0.92-0.34 1.31-3.09 2.28-3.59-0.92 2.54 0.2 4 0.5 5.71 1.27-0.51 1.27-0.9 1.43-2.62 1.25 2.41 2.4 4.82 4.37 7.19 1.16 1.03 1.39 1.07 0 1.93l-1.16 1.16c-1.32 1.63 2.44 2.18 2.95 1.8 0.78-0.46 1.5-2.84 2.82-0.77 1.27 1.03 2.11 1.1 3.08 1.28 0.97-0.22 1.74 0.93 2.59 1.4 1.06 0.27 1.66-0.9 1.65-1.59-3.42-2.97-1.48-1.58 0.25-0.32 1.31-0.08 1.15-0.74 1.28-1.28-0.1-0.33-4.31-3.21 0.42-0.22 0.99 0.34 2.46-1.87 0.99-2.87-1.87-0.71-4.13-0.7-6.42-0.64-1.78-0.31-3.28-1.78-4.49-4.49-0.22-1.09-0.29-2.58-0.3-4.23 0-1.73-0.27-3.84 0.3-6.69 2.57-7.1-0.91-7.83-2.57-9.63l-4.49-4.86c-2.06-2.24-0.86-4.06 0.97-6 2.66-2.88 7.84-6.36 12.6-11.1 4.17-4.54 8.5-8.76 11.76-15.1l0.7-11.2-1.94-3.85c-2.23-4.49-4.27-9.57-11.86-13.1-4.89-1.89-6.1-1.48-6.87-3.6-0.96 0.97-1.81 1.48-3.29 1.93v-2.56c-2.87 4.53-10 2.74-11.44 6.89-0.46 0.41-2.7 1.16-3.28 1.34-1.57 0.39-1.57 1.1-1.57 1.74-1.18 2.74 1.5 3.12 2.18 2.64"/>
<path d="m220 138.4c-2.703-6.4-7.302-13.17-14.07-15.72" fill="none"/>
</g>
</g>
<path d="m188.8 122.3c-0.11 1.01 1.11 0.95 1.58 0.66 0.001 0.59 0.19 0.92 0.84 1.12 1.31-0.05 2.1-0.59 2.1-1.76 0-0.39 0.65-0.39 0.65-0.78-0.86 0.42-2.04 0.58-3.77 0.59-0.37 0.75-1.03 0.48-1.4 0.19z"/>
<path d="m192.8 122.5c-0.02 0.38-0.93 1.13-1.57 1.13 0.17-0.33 0.24-0.42 0-1.03z" fill="#fff"/>
<g stroke-linejoin="bevel" stroke="#000" stroke-width=".7" fill="none">
<path d="m182.4 125.8c0.48 2.39 2 0.54 1.67 1.23-0.73 1.98 1.96 2.94 3.6 1.67 0.98-0.68 1.96-0.74 4.48-0.66 1.89 0.06 2.96 0.84 3.08 3.64 0.15 3.43-1.48 3.95-2.36 4.33-1.96 0.32-3.46 0.32-4.49 0-1.14 0.83-2.04 0.57-3.12 0.57"/>
<path d="m198.2 120.9c3.15-0.4 5.84 0 7.84 1.57-0.78 2.74-1.18 3.53-2.74 4.7-0.15 1.64-0.6 3.61-2.44 4.4l-0.64 2.25-0.06005 2.37m-4.2-8.1c0.87 1.75 0.5687 4.704 0.5687 4.704m0.9-4.7c0.7717 2.062 0.392 4.312 0.392 4.312m-4.3-5.8c-1.428 0.784-1.96-1.176-2.744-0.784m3.1-1.5c-1.176 2.162-2.352 0-3.528 0.392m8.8-0.1c2.484-1.488 3.558-1.171 5.278-1.724m-4.2 3.4c1.74-1.3 3.408-2.379 4.168-3.469-2.03-0.32-4.561-0.9551-6.494-0.1982m21.5 17.2-3.279-0.6561 3.556 6.877c-1.9-0.97-4.766-3.087-6.766-2.857 1.32 1.93 2.23 3.85 3.21 5.78l-6.12-3.007c0.61 0.68 1.52 2.367 1.92 6.217-1.41-1.404-2.862-2.748-5.643-3.201 1.4 1.96 0.9546 4.57 1.015 6.48l-4.9-4.1c0.62 2.22 1.096 4.715 0.5257 6.385l-4.6-4.672-0.2313 6.437c-1.11-1.71-2.509-3.557-3.919-5.277l-1 6-3.713-5.368-0.7 5.9c-1.35-1-2.561-3.188-2.561-3.188m31.84-22.93c-1.6-1.03-4.484-2.772-6.384-2.212 1.88 2.2 3.747 4.554 4.637 6.654-2.29-0.85-3.032-2.031-7.375-2.948 2.27 2.81 3.242 5.437 3.112 7.377-1.96-1.16-4.445-1.736-6.055-4.056l2.135 7.584c-1.681-1.593-4.322-2.476-5.492-4.436l1.572 7.18c-1.951-0.955-4.181-2.633-5.291-4.663l0.4 6.9s-3.077-3.109-4.387-5.518c0.21 3.06-0.01351 6.394-1.294 7.584-0.4967-1.887-2.18-3.27-2.57-6.1l-1.795 6.917-1.934-3.842m26.33-22.85-7.761-1.19c3.59 2.3 4.224 4.171 4.864 5.881-2.11-0.77-4.065-2.647-6.485-2.347 2.49 2.41 3.914 4.807 3.894 6.217-1.83-1.85-3.921-2.27-6.111-3.21 1.37 1.99 2.276 3.637 3.126 6.477-3.06-2.44-3.883-2.364-5.933-3.424 1.49 2.34 1.933 4.334 2.083 6.314l-5.037-3.713c1.969 2.931 1.474 3.578 1.177 6.283-1.51-1.74-2.501-3.29-3.781-4.25 0.26 2.41 0.3784 4.179-0.6116 5.889l-2.495-2.85m22.07 16.64-0.7889-4.64m-2.725 8.206-0.7-4.9m2.559 3.091-0.8657-4.711m4.205 0.8914-0.8876-4.5m2.559 2.909-0.9343-4.634m2.517 2.86-0.9457-4.791m2.469 2.428-0.9403-4.529m-23.59 25.36v4.595m2-6.84v4.191m2-6.311v4.195m2-6.095v4.271m1.595-54.35c-0.66 0.65-2.072 1.966-2.532 3.036m4.611-1.874c-0.5 0.7-1.3 1.4-1.6 2.1m4.026-1.136c-0.5 0.52-1.518 1.592-1.808 2.212m4.3-1.2c-0.81 0.55-1.804 1.221-2.504 2.051m5.2-0.5c-1.04 0.43-2.231 1.11-2.991 1.71m5.382 0.1414c-1.03 0.09-2.223 0.8114-3.193 1.281m4.993 0.719c-1.02 0.14-2.238 0.7096-3.098 1.19m4.498 0.7099c-0.98 0.26-2.364 0.8041-3.104 1.314m4.404 0.986c-1.03 0.02-1.986 0.4357-2.846 0.6557m4.209 1.869c-0.77 0-2.148 0.1113-3.098 0.1913m3.989 2.34h-2.568"/>
<path d="m219.8 146.5c-3.8 5.5-8.4 10.3-12.5 14.5-4.13 3.76-13.18 13.44-13.18 13.44-2.17 2.17 0.97 4.5 1.74 5.31"/>
</g>
<g stroke="#000">
<path d="m223.9 136h-4.049l0.1 38.24h3.981" fill="#da121a"/>
<path stroke-linejoin="round" stroke-width=".77" d="m229.2 136.9l3.09-0.53 0.2 0.63c0.87-0.33 1.69-0.64 2.61-0.64 0.47-1.89-2.23-3.78-7.75-4.28-0.95-0.09-1.96-0.23-2.91-0.22-1.55 0.001-2.21 0.77-3.6 1.87l1.37 3.96 2.39-0.47 0.39-1.57 1.94 1.35z" fill="#fcdd09"/>
<g fill="#fff">
<g stroke-width=".98">
<path d="m228 153.1h2.358v3.136h1.743v-3.136h2.268v3.136h1.463v-3.136h2.352v3.136h1.55v-3.136h2.249v6.16l-0.7588 0.308h-12.3l-0.9106-0.308z"/>
<path d="m228.9 184.2v-24.63h12.3v24.63"/>
</g>
<path stroke-width=".79" d="m236.3 149.5l-1.12 1.99-1.11-1.99h-2.22l1.11-2-1.11-1.99h2.22l1.11-2 1.12 2h2.23l-1.12 1.99 1.12 2z"/>
<path stroke-width=".78" d="m245.6 202.9c0-0.88 0.32-0.88 0.57-0.88s-0.03 0.36-0.03 0.84c0 0.49 0.28 0.92 0.03 0.92s-0.57-0.08-0.57-0.88z"/>
</g>
<g stroke-width=".78">
<path d="m243.7 216.9h1.748m-1.748-14.06h1.748m-1.492 21.98v-23.35c0-1.861 2.454-5.513 6.228-5.513" fill="none"/>
<path d="m245.6 216.9c0-0.88 0.32-0.88 0.57-0.88s-0.03 0.36-0.03 0.84 0.28 0.92 0.03 0.92-0.57-0.08-0.57-0.88z" fill="#fff"/>
</g>
<g stroke-width=".77" fill="#fcdd09">
<path d="m194.5 160.7 7.791 8.397 0.8-0.3c-0.5 1.9 1 4.7 2.7 7.2l0.2227-3.78 2.748 3.773-0.1616-3.45 3.3 2c0.6831 0.414 1.129 0.951 0.89 1.78-0.3289 1.139-0.25 2.68 1.11 2.94l1.21 0.07c1.33-0.04 0.63-0.78 0.64-1.28-0.1-0.57-0.49-1.28 0.64-1.28 1.09-0.18 1.4 0.36 1.28 1.28-0.64 1.55 1.28 1.28 1.93 1.28 0.26-0.11 0.53-0.19 0.64-0.64 0.25-0.64 1.38-1.28 0.64-1.93-0.71-0.34-1.27-0.99-1.68-1.93l1.68 0.21c1.28 0.29 1-3.18 0.64-3.42-0.35-0.35-1.05-0.42-1.93 0-0.55 0.17-1.53-1.28-0.64-1.93 0.59-0.29 1.14-0.6 1.28-1.28 0.32-0.64-0.64-1.93-1.93-2.22-1.54-0.35-1.69 0.69-1.93 1.58-0.16 1.36-0.93 1.9-2.57 1.28-1.06-0.86-2-1.71-2.57-2.57-2.08-2.9-3.34-5.53-7.1-8.99"/>
<path d="m216 215.6-1.4-1.5c0.3089-0.43 0.5215-0.86 0.6428-1.276 1.317 0.355 0.9329 2.142 0.7572 2.776zm-3.774 0.387c0.57-0.49 0.99-0.93 1-1.28 1.385 0.6915 0.7802 2.99 0.7802 2.99zm-1.738 1.862c0.3-0.2 0.9398-0.6474 1.114-1.479 1.081 0.5714 0.6925 2.637 0.4011 3.049zm-10.1-1.9-1.93-0.64c-0.52 1.43 1.05 3 1.05 3zm-28.1-5.2c0.51 0.8 1.09 1.59 1.29 2.39 1.34-1.18 1.69-1.8 0.53-3.15zm-3.4 1c0.95 0.62 1.39 1.38 1.49 2.48 1.73-1.06 1.23-2.22 0.6-3.36-0.31 0.33-1.25 0.68-2.08 0.88zm-2.1 3.5c1.64-0.67 2.21-2.32 0.92-3.38-0.4 0.5-1.097 0.6179-1.782 0.6979 1.095 0.77 0.9721 1.592 0.8621 2.682zm-9.3-8.4-0.78 1.18c-0.55 0.82-0.35 2 0.52 2.84 0.51-0.86 0.78-2.18 1.47-2.5zm60.8-40.7c1-0.55 1.63-1.5 3.85-0.12l-1.925 1.3c-0.575-0.48-1.015-1.17-1.925-1.18zm3.5 6.1c1.17-0.37 2.138 1.874 2.054 2.385l-2.1-0.4zm-0.7 5.2-0.9 1.7 1.7 1c0.42-1.53 0.06768-2.271-0.8213-2.751zm-7.5 1.9 1.885-0.03434 0.285 2.57c-2.2-0.4-2.1-1.6-2.2-2.6zm18.9-42.4v2.57c1.33-0.56 1.909-1.966 2.301-3.142zm-2.8 0 1.059 2.73c1.18-1.18 1.761-2.16 1.531-3.33-0.83 0.17-1.17-0.06-2.59 0.6zm-0.5-0.1c-0.7-0.2-1.44-0.13-2.21 0.12l0.2072 2.73c1.2-0.4 1.8-1.5 2-2.8zm-4.5 3.1c-0.8 0-2.27-1.75-2.47-2.45l2.32-0.4z"/>
</g>
<g stroke-width=".5" fill="#fff">
<path d="m246.8 103.2c0.53 0.02 0.94 0.46 0.92 0.98-0.001 0.28-0.15 0.52-0.35 0.68-1.72 3.35-2.25 6.77-0.48 10.34 0.15 0.17 0.24 0.4 0.23 0.65-0.02 0.52-0.47 0.92-1 0.89-0.53-0.02-0.94-0.46-0.92-0.98 0.001-0.31 0.18-0.57 0.42-0.73-1.482-2.726-2.4-5.76 0.47-10.23-0.19-0.18-0.3-0.43-0.29-0.71 0.02-0.52 0.47-0.92 1-0.89z"/>
<path d="m243.7 102.8c0.53 0.06 0.9 0.51 0.84 1-0.03 0.26-0.19 0.48-0.41 0.62-1.98 3.04-2.78 6.25-1.3 9.77 0.14 0.18 0.21 0.4 0.17 0.63-0.07 0.49-0.55 0.83-1.07 0.77-0.53-0.06-0.9-0.51-0.84-1 0.04-0.29 0.22-0.53 0.48-0.66-1.18-2.7-1.51-5.68 1.29-9.66-0.17-0.19-0.27-0.44-0.23-0.7 0.07-0.49 0.55-0.83 1.07-0.77z"/>
<path d="m240.7 102.2c0.52 0.08 0.88 0.52 0.8 0.99-0.05 0.25-0.21 0.46-0.43 0.59-2.898 4.172-2.581 6.929-1.69 9.43 0.13 0.17 0.19 0.39 0.15 0.62-0.08 0.47-0.58 0.79-1.1 0.72-0.52-0.08-0.88-0.52-0.8-0.99 0.05-0.28 0.24-0.51 0.5-0.63-0.6968-2.492-1.512-4.884 1.67-9.33-0.17-0.18-0.25-0.43-0.2-0.68 0.08-0.47 0.58-0.79 1.1-0.72z"/>
</g>
<g fill="#da121a">
<path stroke-width=".5" d="m247.4 99-1.61-2.85-1.93 0.28 1.28 2.29"/>
<path stroke-linejoin="round" d="m249.5 99.2c-3.38 0.09-5.1-1.24-7.99-1.75-8.78-1.44-17.95-3.03-27.62-9.81 1.22 2.43 0.74 3.78-0.19 5.14 11.25 4.49 19.1 4.99 26.37 5.82 2.9 0.61 5.42 2.18 9.76 2.11"/>
</g>
<path stroke-width=".6" stroke-linecap="round" d="m227.9 135c0.68 0.59 1.55 1.14 1.28 1.93m0.92-2.53c0.77 0.42 2.55 1.35 2.5 2.37" fill="none"/>
<g stroke-width="0.2" fill="#da121a">
<circle cy="115.9" cx="250.1" r="0.4"/>
<circle cy="103.9" cx="250.1" r="0.4"/>
<circle cy="104.1" cx="246.8" r="0.4"/>
<circle cy="103.7" cx="243.6" r="0.4"/>
<circle cy="103.1" cx="240.6" r="0.4"/>
<circle cy="115.8" cx="246.2" r="0.4"/>
<circle cy="114.7" cx="242.1" r="0.4"/>
<circle cy="113.7" cx="238.6" r="0.4"/>
</g>
<path stroke-width=".77" d="m219.9 146c-9.951 8.978-19.42 15.77-33.51 14.91m32.53-24.9c-8.5 11.3-18.5 18.9-32.3 18.9m26.99-26.35c-4.64 9.99-11.96 17.58-25.29 19.93m18.62-25.44c-1.1 6.6-4.7 11.3-9.1 15.2" fill="none"/>
</g>
</g>
<g stroke="#000" transform="matrix(2.551 0 0 2.551 -387.9 -156.9)">
<path stroke-width=".5" d="m247.8 95.85 2.247 6.06 2.247-6.06z" fill="#da121a"/>
<path stroke-width=".98" d="m240.9 179.2-2e-7 3.64h-3.644l-1e-7 -3.64h-3.644v3.64h-3.644v-3.64h-3.644v6.916l0.7995 0.28h45.77l0.7994-0.28v-6.916h-3.644v3.64h-3.644v-3.64h-3.644v3.64h-3.644l-1e-7 -3.64h-3.644l1e-7 3.64h-3.644l-1e-7 -3.64h-3.644l2e-7 3.64h-3.644l-2e-7 -3.64z" fill="#fff"/>
</g>
</svg>