<svg xmlns="http://www.w3.org/2000/svg" xmlns:xlink="http://www.w3.org/1999/xlink" width="741" height="800" xmlns:v="https://vecta.io/nano"><style><![CDATA[.B{stroke:#fbce1d}.C{fill:#fbce1d}.D{fill:#ed1a23}.E{fill-rule:evenodd}]]></style><g stroke="#000" stroke-width="1.5"><path d="M324.643 137.5l46.071-30.357 46.429 31.786-17.857-51.071 46.071-31.071-56.786.357-18.214-51.786-17.143 51.429h-57.857l46.071 31.786z" class="C"/><path d="M338.214 120L370 97.857s33.214 23.571 32.857 22.143-12.5-34.286-12.5-34.286l31.786-21.429-38.929.714-12.857-37.5L358.214 65l-38.571-.714L351.429 85z" class="D"/></g><path d="M526.289 751.008s-44.952 54.548-92.429 40.406-50.508-34.345-108.591-12.122-88.388 25.759-129.3-37.881c0 0-34.345 6.566-50.508-47.477 0 0-41.416-1.515-45.457-28.789s2.525-23.739-9.091-41.416-5.556-45.962-5.556-45.962l-5.556-5.556s-31.82-2.525-35.86-27.274-2.02-23.991-14.142-39.901c-20.715-27.189-15.152-54.548-5.051-60.609l1.01-10.607S4.041 417.657 7.576 393.414s6.566-18.183 0-46.972c-2.879-12.622-1.515-43.437 17.678-54.548 0 0 6.061-2.02 3.03-17.678s17.173-54.548 27.779-59.094c0 0 29.294-46.972 49.497-55.053s40.911-33.84 40.911-33.84 7.576-29.799 20.708-34.345c0 0 7.576-9.596 17.173-10.607 0 0 44.952-27.779 59.599-32.83s51.518-24.749 51.518-24.749l-55.558 40.406 15.152-2.02-18.688 5.556s-43.437 39.901-46.467 46.972l27.274-12.627c2.02-1.01 6.061-6.061 6.061-6.061l-2.02 5.556 34.85-19.698-39.396 28.284s-10.102 12.122-9.596 15.657c0 0 47.477-34.85 60.609-38.386 0 0-83.843 53.538-98.49 81.822 0 0 69.701-56.569 100.51-65.155 0 0-66.67 38.386-91.419 64.65 0 0 16.668-2.02 20.708-7.071l-2.525 5.051s4.546-1.515 5.051-3.03 33.84-36.365 70.711-48.992c0 0-47.982 24.244-58.589 43.437 0 0 18.183-4.546 22.728-4.041l52.528-24.244c2.525-1.01-37.881 23.233-37.881 23.233l6.061 1.01-28.284 12.122h6.061l-11.617 4.041s-68.69 26.264-64.65 73.236l13.637-18.183 19.698 2.525s28.789-31.82 62.124-47.477l3.571-16.668 63.099-21.596 14.142 12.504s48.992-4.546 74.751 0l13.071-11.999 67.027 23.739.209 15.535s45.962 26.264 61.114 46.972l19.193-4.041 2.525 4.546v-7.576s-52.023-50.508-75.761-67.68l17.173 9.596s13.879.199 16.909.704-79.962-47.073-79.962-47.073l120.631 64.995-.242-11.619-115.081-68.316 116.838 63.773s2.02-3.979-3.03-10.04-5.26-12.096-5.26-12.096L464.803 77.313l98.357 60.027-.505-9.596s-41.416-22.223-46.972-24.244c0 0 36.366 12.122 47.982 19.698l-3.536-12.122c7.194 4.969-15.261-9.95-15.279-11.869l14.395 9.47-2.273-5.682s-5.43-7.071-17.046-12.627S497.5 63.599 497.5 63.599l37.881 16.162-65.66-39.901c-2.02-1.515 109.602 42.426 125.259 72.226s18.183 45.457 40.406 51.013 53.538 55.558 53.538 55.558 10.607 17.678 13.132 24.244 8.586 15.657 8.586 15.657 9.596 22.981 8.081 35.355c.061-.246 0 0 0 0s20.708 13.132 15.91 37.376-6.061 45.709-4.293 51.265 9.344 28.284-11.364 49.497c0 0-2.19 11.162-3.262 13.305 0 0 20.357 16.429 5.714 41.429s-21.786 32.5-23.929 47.857.357 33.929-40.357 37.143L653.214 575l3.571 1.071s5 16.429 1.071 28.214-13.571 25-14.286 41.786 3.929 42.857-48.214 47.857c0 0-2.778 44.872-69.068 57.079z"/><path d="M470.747 126.779a2.661 2.661 0 1 1-5.322 0 2.661 2.661 0 1 1 5.322 0zm13.305 7.257a2.903 2.903 0 1 1-5.806 0 2.903 2.903 0 1 1 5.806 0zm14.272 6.531a3.87 3.87 0 1 1-7.741 0 3.87 3.87 0 1 1 7.741 0zm12.095 7.741a3.87 3.87 0 1 1-7.741 0 3.87 3.87 0 1 1 7.741 0zm13.305 7.378a4.233 4.233 0 1 1-8.467 0 4.233 4.233 0 1 1 8.467 0zm15.24 8.83a4.354 4.354 0 1 1-8.709 0 4.354 4.354 0 1 1 8.709 0zm13.305 6.41a4.475 4.475 0 1 1-8.95 0 4.475 4.475 0 1 1 8.95 0zm-73.055-57.694a3.145 3.145 0 1 1-6.29 0 3.145 3.145 0 1 1 6.29 0zm14.042 7.983a3.39 3.39 0 0 1-3.387 3.387 3.39 3.39 0 0 1-3.387-3.387 3.39 3.39 0 0 1 3.387-3.387 3.39 3.39 0 0 1 3.387 3.387zm15.712 8.224c.002 1.557-.827 2.997-2.175 3.776s-3.01.779-4.358 0-2.178-2.219-2.175-3.776.827-2.997 2.175-3.776 3.01-.779 4.358 0 2.178 2.219 2.175 3.776zm13.305 7.137a4.233 4.233 0 1 1-8.467 0 4.233 4.233 0 1 1 8.467 0zm11.369 6.973a3.99 3.99 0 1 1-5.988-3.46 3.99 3.99 0 0 1 5.988 3.46zm14.273 7.057a4.475 4.475 0 1 1-8.95 0 4.475 4.475 0 1 1 8.95 0zm12.579 8.104a4.838 4.838 0 1 1-9.676 0 4.838 4.838 0 1 1 9.676 0zm-70.77-67.467a2.994 2.994 0 1 1-5.987 0 2.994 2.994 0 1 1 5.987 0zm13 8.04a3.51 3.51 0 0 1-3.507 3.507 3.51 3.51 0 0 1-3.507-3.507 3.51 3.51 0 0 1 3.507-3.507 3.51 3.51 0 0 1 3.507 3.507zm13.684 8.467a3.76 3.76 0 0 1-1.88 3.263c-1.165.673-2.601.673-3.766 0a3.76 3.76 0 0 1-1.88-3.263 3.77 3.77 0 0 1 1.88-3.263c1.165-.673 2.601-.673 3.766 0a3.76 3.76 0 0 1 1.88 3.263zm14.026 8.638a4.36 4.36 0 1 1-6.544-3.781 4.36 4.36 0 0 1 6.544 3.781zm13.342 8.553a4.362 4.362 0 1 1-8.724 0 4.362 4.362 0 1 1 8.724 0zm14.369 8.296a5.13 5.13 0 1 1-7.697-4.444 5.13 5.13 0 0 1 7.697 4.444z" stroke="#000" class="E"/><path d="M337.649 513.489l4.403-4.233s3.387.169 7.281-.847l3.387 3.387s-7.281 2.709-15.071 1.693zm-16.595 17.78l5.419-3.725s15.24 10.499 35.899-5.249c0 0 14.393 16.087 38.608 3.895l4.572 3.217s-20.828 15.579-43.519.169c0 0-16.933 16.425-40.979 1.693zm-113.961 5.249s7.789 1.355 14.055-1.693c0 0-7.451-1.185-14.055 1.693zm-4.233 16.764s13.885 3.387 27.771-7.789c0 0 19.304 17.103 42.503 1.016 0 0 24.723 17.611 45.212-1.355 0 0 22.521 19.643 43.519-.339 0 0 19.135 19.473 43.519 0 0 0 18.457 18.288 43.349 1.016 0 0 21.844 18.965 44.196-1.355 0 0 22.521 19.473 43.857.169l4.911 4.064s-22.86 23.876-48.598 3.725c0 0-22.691 17.611-44.196.677 0 0-18.627 16.256-43.349-.339 0 0-16.764 17.441-44.026 0 0 0-21.336 16.595-43.011 0 0 0-19.473 17.272-44.873 0 0 0-16.595 16.425-43.18 0 0 0-10.837 9.652-22.86 7.451 0 0-1.016-2.371-4.741-6.943zm354.583-45.72s6.604.339 14.055-3.048l-.169 7.112s-13.716 5.757-24.723.169c0 0 8.467-2.709 10.837-4.233zm2.032 23.199s-9.483 1.693-23.029-8.805c0 0-13.109 13.856-28.518 7.93l-7.947 3.556s19.023 10.528 36.295-3.866c0 0 5.08 5.927 18.119 7.281zm-75.353 67.225l15.071-2.032-6.773-5.08s-2.201 3.725-8.297 7.112zm-30.311 3.217l11.176-1.863s-7.451-1.355-15.409-7.959c0 0-21.167 18.965-43.519-.169 0 0-22.521 19.643-44.365-.339 0 0-19.981 20.997-43.349-.169 0 0-16.425 20.151-43.857.847 0 0-9.991 6.096-11.176 6.265s7.451 2.371 12.361 1.016h0s6.435 2.879 7.62 2.879 26.247 2.032 26.247 2.032l8.975-5.588s17.78 17.441 43.519.847c0 0 16.933 15.748 43.857-.169 0 0 10.668 6.265 12.869 6.265s25.739-2.371 25.739-2.371l4.572-3.895zm-223.858-5.249l7.112-.169-6.265-4.403-3.725 2.032zm262.974-20.489c-23.707 17.272-43.857.339-43.857.339-24.384 16.933-44.196-.508-44.196-.508-20.659 16.764-42.672.847-42.672.847-24.045 15.917-43.857-.677-43.857-.677-26.247 16.933-43.857 0-43.857 0-24.045 17.611-44.196-.169-44.196-.169-5.419 5.757-16.933 7.789-16.933 7.789l-.508-6.773s10.329-.847 17.949-8.297c0 0 22.352 19.812 43.688.169 0 0 17.78 18.627 43.857-.169 0 0 15.071 19.981 43.688 0 0 0 17.949 19.135 43.688.169 0 0 22.013 18.796 43.18 0 0 0 18.627 18.119 44.027 0 0 0 14.732 12.7 30.311 7.62l.169 6.265s-14.055 4.741-30.48-6.604z" fill="#fff"/><path d="M341.719 696.594c-1.823-.291-2.72 1.825-1.312 2.906 1.85 1.847 4.234 3.691 6.531 4.719 2.37-1.15 7.054-1.927 7.981-3.308-2.513-2.012-5.252-4.443-8.757-4.045-1.474-.147-2.958-.384-4.443-.272zm-68.406 1.219c-2.296-.174-4.372 2.504-2.594 4.469 5.692 6.689 14.351 10.282 22.077 14.307 2.672 1.196 5.322 2.707 8.079 3.537l15.406-5.219c-12.789-6.395-25.552-13.455-39.5-16.844-1.137-.215-2.311-.343-3.469-.25zm175.375.625c-4.45.564-7.968 3.982-12.122 5.599-47.409 24.074-98.401 41.125-149.816 54.183-19.087 4.65-38.421 9.066-57.875 12.281 13.458 6.001 28.795 3.935 42.938 1.875 32.711-5.735 64.139-17.028 95.105-28.833 32.057-12.503 63.572-26.378 94.52-41.354-3.87-2.139-8.224-3.977-12.75-3.75zm-131.094.781c-3.423-.274-6.727 3.878-4.344 6.813 1.761 1.786 4.774 1.107 6.781 1.406 1.776 1.334 2.8 4.083 4.438 5l15.469-5.844c-4.104-3.376-9.035-6.239-14.437-6.312-2.508-.749-5.245-1.228-7.906-1.062zm91.5 1.75c-51.26 20.13-103.545 38.509-157.64 49.15-13.253 2.348-26.639 4.809-40.141 4.663 7.072 7.917 18.777 8.714 28.812 8.628 25.405-.939 49.937-8.343 74.006-15.94 37.293-12.256 73.81-27.397 109.244-43.938-4.42-2.121-9.443-2.565-14.281-2.562zm-52.5 2.844c-45.39 20.097-94.264 32.382-143.875 35.11-4.425.185-8.853.266-13.282.234 9.76 9.803 24.728 10.466 37.81 9.914 28.068-1.853 55.099-10.38 81.549-19.477 20.228-7.139 40.121-15.259 59.609-24.218l-21.812-1.562zm107.813 2.906c-53.506 29.713-111.551 50.612-170.625 66.375-14.157 3.585-28.503 7.136-42.906 9.938 11.675 5.693 25.277 3.598 37.679 1.815 31.825-5.834 62.317-17.259 92.365-29.058 25.958-10.535 51.726-21.683 76.862-33.976 4.079-2.507 9.61-5.712 9.406-11.187-.247-1.493-1.269-3.787-2.781-3.906zm-192.375 4.844l-3.75 8.344c3.293 1.596 6.776 3.639 7.813 7.438 5.428-1.156 11.649-1.586 16-5.219.602-2.544-2.969-3.638-4.638-4.748-4.854-2.504-10.049-4.378-15.206-6.221l-.219.406zm188.719 18.5c-3.665.445-8.754 1.948-9.562 6.031.798 3.855 6.022 3.646 8.909 5.296 17.823 5.915 36.723 11.01 55.673 8.647 5.125-.76 10.165-2.389 14.511-5.287-21.59-4.416-43.48-8.386-64.719-13.875-1.523-.642-3.131-.995-4.812-.812zm-30 9.5c-3.531-.242-6.907 3.049-5.687 6.688.917 3.768 5.635 3.721 8.464 5.437 19.505 7.606 40.227 13.936 61.407 12.694 8.125-.565 16.121-2.837 22.691-7.663-22.781-.79-46.027-2.809-67.398-11.102-6.181-2.621-12.508-6.161-19.477-6.054zm-23.125 13.188c-3.163-.348-6.955 2.61-5.062 5.875 2.512 4.189 8.198 4.793 12.31 6.961 23.4 8.938 49.15 14.759 74.159 9.82 3.894-.823 7.657-2.032 11.406-3.406-25.58-4.239-51.47-7.865-76.348-15.131-5.375-1.803-10.659-4.363-16.465-4.119zm-21.719 9.969c-2.584.434-.6 3.433.594 4.313 8.87 8.412 21.435 11.183 32.954 14.082 17.145 3.575 34.749 6.064 52.293 5.017 4.964-.598-1.333-1.647-3.343-1.876-24.27-4.541-48.603-9.298-71.71-18.131-3.573-1.203-6.862-3.707-10.787-3.404z" fill="#fbca0a"/><path d="M23.234 298.964s-18.897 15.841-13.089 41.853 4.145 38.166 1.201 47.773c-1.127 3.678-5.538 28.562 16.433 42.199s78.034 26.517 103.036 30.305 22.223 11.112 25.254 24.496c-.317-.378 0 0 0 0s5.808-13.637.253-24.244-9.091-22.476-8.586-27.527 7.829-27.274-16.162-36.113-74.499-36.365-92.681-44.952-30.81-29.294-15.657-53.791zm-.019 151.393S10.761 471.172 32.143 500c15.288 20.613 15 39.286 15 39.286S44.076 573.352 90 567.143c46.324-6.263 92.767-4.532 99.069-4.077 8.092.584 15.931 5.505 14.145 20.505l6.429 7.143s8.214-26.071-15.714-40.357-31.071-43.571-31.071-43.571 1.346-8.347-13.214-10.714c-43.929-7.143-127.857 9.643-126.429-45.714zm70.714 134.286s-2.857 26.429 26.786 34.286 36.786 33.929 36.786 33.929S165 673.929 185.714 690 200 711.786 200 711.786s-.714-21.071-52.143-22.143-44.643-38.571-44.643-38.571 2.143-15.714-7.5-27.5-10-35-7.143-41.786zM236.071 707.5s-40.714-16.786-71.786-71.786c0 0-8.744-27.648 34.812-35.413 0 0 27.622-4.189 87.331 4.341 72.5 10.357 195.714-2.5 195.714-2.5s104.643-16.429 93.214 28.929-70 76.786-70 76.786 6.786-13.929-24.643-14.643-215.357-1.429-231.071 1.071-13.214 8.214-13.571 13.214zm306.334 4.135s-3.353-9.818 4.789-15.805 24.187-19.397 39.034-46.458 37.837-31.61 37.837-31.61 26.103-4.311 23.708-33.766c0 0 5.029-6.466 5.987-1.197s2.874 25.624-5.268 36.879-7.903 21.553-8.142 28.497 4.071 36.879-40.471 41.189-50.289 3.832-57.473 22.271zm-6.492-127.026s-3.193-25.061 26.609-22.691 97.714 8.953 112.776 3.387c15.579-5.757 17.949-16.933 17.949-23.029s1.355-21.336 12.869-37.592 21.675-39.285 9.821-55.202l-3.387 6.096s6.773 28.109-26.755 32.512-90.085 7.451-90.085 7.451-17.272.339-17.949 9.144-7.112 27.093-30.141 45.381-18.288 35.415-17.949 37.108zm50.316-95.842s0-25.739 13.208-27.093 91.101-14.901 111.76-27.771 18.627-35.56 18.627-35.56-7.112-18.288-.339-55.541-10.837-43.349-10.837-43.349 1.693 8.128 3.725 12.531 6.096 23.707-12.531 35.56-86.021 42.333-93.81 46.736-24.045 10.499-23.029 26.755.677 25.739-4.403 33.189-8.805 21.675-2.371 34.544z" class="D"/><path d="M252.781 49.625c-19.032 7.933-34.316 22.791-47.053 38.664-.929 1.154-5.398 6.532-1.991 4.399 14.902-13.903 29.604-28.255 46.137-40.094 1.562-1.266 3.644-1.729 5-3.219-.728-.045-1.423-.094-2.094.25zm-36.937 21.25c-9.834.906-19.576 5.327-26.156 12.719 9.282-3.423 17.919-8.641 27.375-11.812.246-.951-.472-1.026-1.219-.906zm-29.812 13.188c-10.772 1.796-17.527 11.678-22.594 20.563-11.609 21.205-16.511 45.397-22.812 68.563-5.675 19.565-11.361 39.194-18.525 58.265-2.857 8.086-10.282 12.939-16.693 17.891.375-.584 3.087-3.707 4.25-5.344 7.277-9.533 12.847-20.509 14.813-32.406 6.924-26.962 15.81-53.549 24.469-80.062-5.779.111-9.129 5.904-11.531 10.469-7.87 16.367-8.079 35.053-12.834 52.408-5.217 21.75-13.207 43.303-26.376 61.538.507 1.46 3.814-3.01 5.119-4.218.899-1.011-1.016 1.747-.91 2.459-1.2 5.272 2.254 10.147 6.031 13.406-2.074-7.184 3.874-13.324 7.621-18.831 6.311-8.062 12.913-16.208 15.697-26.244 10.801-32.267 17.769-65.691 28.456-97.985 5.813-15.42 14.527-30.522 27.601-40.659l-1.781.188zm13.281 4.313c-14.002 1.574-24.562 13.032-30.638 25.037-7.603 14.713-9.916 31.42-14.635 47.175-5.041 17.847-9.364 36.012-16.415 53.194-6.114 10.004-9.181 21.533-13.353 32.428-4.065 7.265-8.805 14.714-9.616 23.166-.374 3.145 2.637 4.975 5.531 4.531 3.291.521 6.674-1.481 6.776-5.039.755-5.638.625-11.885 1.804-17.664 1.457-8.567 3.854-17.757 10.514-23.765 8.044-11.372 11.615-25.181 15.579-38.385 4.045-14.65 6.5-29.659 11.944-43.933 7.543-20.903 17.799-41.773 34.477-56.775-.656.02-1.315-.039-1.969.031zm.594 27.063c-8.338 2.043-18.005 5.039-22.437 12.969-1.22 2.223-1.414 4.807-1.125 7.313 7.669-7.488 15.628-14.673 24.867-20.077.824-.405-1.119-.244-1.305-.205zm1.813 3.844c-9.072 7.366-18.127 15.335-28.562 20.469-1.865 3.67-.935 8.187-.531 12.156 10.635-8.338 21.756-16.968 28.531-28.875.424-1.11 3.596-7.249.563-3.75zM111.25 164c-10.22 3.631-19.332 10.64-27.328 18.004-8.691 8.156-15.828 18.211-19.359 29.684 15.818-14.559 31.898-28.954 46.665-44.539.531-.532 3.375-3.66.022-3.148zm10.813 2.156c-10.075 7.305-19.349 16.186-26.219 26.656-1.903 2.442-2.427 5.924.577 2.001l26.298-28.188c.101-.812.011-.768-.656-.469zm95.969.125c-27.64 8.851-50.423 28.739-67.916 51.391-.994 1.127-4.353 6.014-1.154 3.552 19.007-17.201 38.099-34.354 59.445-48.568 3.74-2.684 8.109-4.274 11.906-6.562-.818-.243-1.503-.126-2.281.188zm-25.781 3.875c-6 .256-10.405 5.487-11.281 11.156 4.766-4.099 9.619-9.063 16.032-10.046 1.821-.784-2.539-1.208-3.751-1.142-.333.009-.668-.019-1 .031zm-12.375 4.344c-5.366 2.138-10.832 4.489-16.594 4.688-2.873 2.579-1.588 7.283-1.469 10.75.351 3.028 4.013-2.673 5.808-3.457 4.522-4.148 9.507-7.85 13.724-12.293l-1.469.313zm-60.969 6.625c-25.095 18.444-44.874 42.968-63.892 67.417-4.546 5.52-8.385 11.827-13.358 16.802-4.049 3.138-5.826 8.676-9.312 12.406-2.415 9.915-2.251 20.406-3.016 30.59l-1.296 34.785 11.031 9.375c-2.941-20.071-5.017-41.204.875-60.875 1.83-6.264 5.516-11.742 10.555-15.848l67.757-66.309c-1.985-9.615.227-19.508 1.656-29.062l-1 .719zM87.188 200.75c-21.003 7.943-35.922 26.311-46.436 45.509-2.593 5.306-5.743 10.426-7.189 16.178 10.631-11.849 20.688-24.263 31.304-36.144 7.757-8.855 15.726-17.692 23.884-25.95l-1.562.406zm61.375 34.563c-11.768 20.852-18.44 44.246-23.062 67.625-4.316 22.586-6.089 45.614-6 68.594 2.633.422 5.296.592 5.093-2.717 4.175-20.023 7.232-40.408 14.215-59.654 2.218-5.625 7.561-11.013 5.38-17.503-1.187-3.527-5.027-5.688-5.25-9.656-1.236-4.046 1.576-7.251 4.25-9.812 6.573-9.081 6.252-21.131 6.425-31.937-.406-1.123.671-9.119-1.05-4.938zM80.469 252.25c-9.9 1.945-15.364 11.974-17.496 21.079-2.859 12.109-3.212 25.109-1.537 37.514 1.724-3.855 2.978-9.295 4.525-13.746 4.891-15.092 9.4-30.355 15.446-45.034l-.49.098zm8.75 8.281c5.277 11.446 17.116 19.832 30 19.281 1.412.05 5.046-.302 4.831-.946-6.221-1.326-11.174-6.002-15.174-10.46-7.574-.128-14.733-3.705-19.875-9.156l.219 1.281zm3.313 17.125c-1.201 18.157-6.141 35.728-12.126 52.795.685.57 2.366-2.354 3.188-3.607 8.433-14.804 10.547-32.351 9.938-49.187-.581-1.337-.33-1.399-1 0zm-42.906 10.281c-7.569 2.787-9.217 11.982-9.25 19.156.204 17.618 5.523 34.645 11.375 51.094l7.969 4.219c-6.247-24.316-7.967-49.677-9.437-74.719l-.467.178zm63.375 1.25c-9.209 13.719-14.832 30.282-13.844 46.938 1.193 2.947 1.47-4.191 2.125-5.719 2.979-13.427 5.65-27.11 11.844-39.469.594-.723 1.636-3.366-.125-1.75zm-24.219 48.375c-5.929 1.791-12.251 1.025-18.219-.156 7.644 6.226 16.408 11.908 26.313 13.313 1.83-1.496 5.356-2.634 5.125-5.375-2.138-1.389-5.38.056-7.656-1.312-2.802-1.023-4.453-3.852-5.062-6.656l-.468.176-.032.012zm-18.312 5.406c-4.097.808-3.234 6.073-2.301 9.051 1 5.533 1.438 11.148 2.083 16.73 2.427-5.682 1.696-12.154 2.434-18.187.035-2.624 3.539 2.024 5.222 2.187 5.647 3.164 11.989 5.266 18.531 5.281 1.448 5.51-2.056 10.77-5.187 14.969 6.721-2.418 10.537-10.652 9.031-17.437-1.105-4.137-6.181-3.009-9.183-4.811-6.618-2.378-12.59-6.929-19.692-7.846-.312.027-.632-.048-.937.063zm-40.437 92.969c1.417 18.185 7.199 36.641 19.781 50.125 4.256.624 1.057-2.689.303-4.801-6.004-13.105-12.549-26.635-13.897-41.199.617-3.183-4.028-3.159-5.916-4.817-.714-.667-.194.442-.272.692zm11 5.875c-1.176 1.034 1.169 4.555 1.301 6.523 4.343 13.224 8.189 27 15.73 38.758 1.647 2.771 5.913 2.961 8.5 1.344-7.043-14.957-14.557-29.714-20.344-45.25.148-2.884-3.304-.928-5.187-1.375zm21.156 6.438c-4.041-.272-1.776 3.376-1.406 5.75 3.457 12.616 6.969 25.678 14.313 36.688l9-.406c-8.278-13.469-15.641-27.468-21.469-42.125l-.437.094zm9.5 4.219l6.375 19.344c1.739-.998 7.598.432 6.017-2.57-2.099-5.424-3.497-11.288-6.08-16.43-2.025-.78-4.324-.843-6.531-1.062l.146.478zm18.094 2.906c-1.632-.1-3.263 1.181-2.046 2.855 1.559 4.443 2.431 9.302 4.89 13.333 2.009-.528 7.767 1.206 5.018-2.232-2.173-4.458-4.419-9.208-5.893-13.737-.614-.293-1.289-.306-1.969-.219zm14.75 2.844c-2.523-.423-2.471 1.357-1.699 3.322.859 3.348 1.298 7.104 3.387 9.897 1.781-.818 8.252.714 5.861-2.201-2.012-3.433-4.142-7.12-5.673-10.643-.482-.438-1.227-.449-1.875-.375zm14.188 2.531c-1.805.808-8.248-.807-6.005 2.092 2.246 4.092 4.123 8.49 4.692 13.064 2.731 4.897 3.709 10.685 3.531 16.344l10.219.813c-4.495-10.071-9.827-20.199-11.844-31.094-.265-.342.379-1.702-.594-1.219zm6.5 1.156c-2.979.83-.998 4.563-.717 6.538 2.04 8.843 4.661 18.081 10.248 25.275 1.815.261 5.899.88 5.563-2-4.754-9.332-8.804-19.247-12.531-29.031a3.27 3.27 0 0 0-2.562-.781zm13.281 4.844c-2.119 10.675 4.312 20.932 11.51 28.229 3.14 2.785-.305-2.84-.958-4.204-3.586-7.576-7.946-14.997-9.614-23.275-.322-1.149.627-4.258-.937-.75zm-60.094 7.156c7.892 4.382 17.734 4.758 26.438 2.656 2.148-.747 4.565-1.212 6.438-2.656-10.605.288-21.307.976-31.904-.083l-.498.042zm35.188 3.875c-1.337.209-3.684 2.783-1.281 2.906 1.245.49 4.869 1.4 4.375-1-.429-1.168-1.818-2.128-3.094-1.906zm-15.437.875c-2.377.112-4.072 1.893-5.5 3.625 2.917-.876 6.527-.988 9.156-1.906.268-1.512-2.549-1.811-3.656-1.719zm18.875 5.125c-3.113.937-4.337 6.102-.75 7.313 2.189 1.13 1.914.673 1.594-1.375-.286-1.798 1.216-4.824-.687-5.969l-.156.031zm-15.906 1.313c-2.517.74-1.865 4.922-.844 6.313 1.815-.168 5.08 1.169 6.125-.781-.755-2.22-2.227-6.375-5.281-5.531zm60 79.719c2.008 9.023 8.56 17.229 17.688 19.813-5.484-6.65-11.915-12.752-16.656-19.875-.552-.769-1.331-1.637-1.031.063zm23.781-.281c-.418 2.472 1.79 5.02 2.672 7.348 4.436 8.354 9.592 16.604 17.016 22.59-2.595-6.55-7.111-12.21-10.706-18.221-2.688-3.985-5.111-8.337-8.294-11.873-.214.077-.593-.165-.687.156zm-47.969 1.875c1.992 3.611 3.538 8.023 7 10.344 1.801-.469 8.544 1.264 5.018-1.587-2.966-3.1-5.697-6.696-8.799-9.507-.717.343-4.607-.76-3.219.75zm15.375 0c-.628 3.279 2.136 6.701 4.438 8.969 2.429 2.156 5.32 3.97 8.5 4.844-3.971-4.69-8.804-9.087-12.437-13.969-.176.032-.438-.114-.5.156zm-28.687 1.813c7.843 8.724 17.773 15.816 29.125 19.188 5.927 2.477 11.796 5.782 15.906 10.813 2.607-3.05-.551-7.098-3.312-8.719-6.56-4.216-14.775-5.199-21.341-9.614-5.959-3.363-11.263-7.858-16.222-12.48-.659.405-6.554-.87-4.156.813zm52.813.25c3.116 7.425 7.216 14.68 8.75 22.594 4.207 1.175 7.536 4.457 10.125 7.719 3.972-.461 4.987-1.857 1.721-4.658l-19.814-26.342c-.605.119-1.529-.419-.781.688zm-66.156-.031c-1.602.678-7.948-.02-6.281 1.625 10.662 9.106 21.328 18.418 32.313 27 3.914 5.393 7.613 13.123 15.031 13.594 3.357.221 7.108-1.717 7.063-5.406-.182-6.633-6.941-10.099-12.094-12.969-13.107-5.768-26.494-12.845-35.75-23.875l-.281.031zm-18.25 3.063c8.304 10.193 17.607 20.662 30.344 25.094 7.376 3.658 13.281 9.604 18.564 15.552 1.489-.335-2.04-3.999-2.868-5.449-6.266-8.277-14.025-16.027-23.884-19.603-8.2-4.272-15.097-10.335-21.853-16.474-1.06-.839-.454.289-.303.88zM183 596.031c-5.831 4.007-12.815 6.827-18.75 10.75-4.211 4.304-9.82 6.862-15.531 8.781.251 4.827 5.964 6.103 9.875 6.719 1.802-.09 5.23 1.617 5.009-1.208 2.073-8.987 10.865-14.174 18.671-17.954 2.224-.946 4.433-1.948 6.758-2.619-1.691-1.637-3.433-4.512-6.031-4.469zm400.233 26.894s55.154-32.173 65.314-48.139c0 0-40.882 33.141-65.314 48.139zm4.596-12.821s47.655-29.996 49.349-36.286h-19.352s-24.674 32.173-29.996 36.286zm5.564-15.24s17.901-10.644 18.869-24.432l-13.789-.726s-6.773 8.95-5.08 25.158zm-6.531 5.564c0-2.661 1.21-22.981 5.564-30.238l-8.467-.484s-10.402 17.175-25.4 29.27c0 0 7.983 17.659 28.303 1.451zm-31.206-4.354s20.32-19.11 22.013-26.851l-11.128-.968s-5.322 14.998-17.659 21.046c.484 2.177 6.773 6.773 6.773 6.773zm-19.594.242s8.225 3.87 8.225-6.773 1.693-17.417 6.773-23.707c0 0-11.611-.968-14.998 30.48zm15.482-14.756l12.821-15.724s-16.933 1.21-12.821 15.724z" fill="#088740"/><path d="M149.91 693.914s6.466 22.031 17.242 30.892c0 0 6.945-10.537 16.763-10.537s16.524-3.832 8.142-10.776-26.342-11.255-42.147-9.579zm19.637 33.766s6.466 9.818 20.595 9.579 34.005-2.395 41.668-1.197 37.837-6.466 32.568-18.679-21.074-7.424-21.074-7.424-7.184 3.113-23.947-7.663-33.287-31.371-42.626-45.021-17.482-26.581-31.131-34.724-46.697-34.724-46.697-34.724-3.832 17.242 16.524 25.624 36.4 21.553 40.471 29.695 12.453 31.371 33.047 47.655 13.889 26.342 4.55 26.342-21.313-.479-23.947 10.537zm405.338-2.355s-4.572-11.007-12.7-12.023-18.457 0-14.901-8.636 33.867-12.7 44.027-11.345c-1.355 14.901-16.425 32.004-16.425 32.004zm-1.693.847s-5.927 15.748-46.228 8.297c0 0-32.681 4.911-47.244-11.515s22.013-13.885 22.013-13.885 17.304 4.079 59.774-45.889c47.012-55.313 81.618-76.538 81.618-76.538s4.408 11.723-3.255 18.668-33.766 10.776-45.739 28.018-23.354 42.94-37.837 53.163c-16.284 11.495-23.947 24.187-10.776 28.976s16.311-6.609 27.673 10.705z" fill="#b70f15"/><path d="M180.17 532.116s-9.144-9.821-11.515-19.981-3.048-14.224-11.853-17.949h0s11.853-14.224 4.064-30.48-10.837-25.061-9.821-33.867 5.08-22.352-19.304-37.931c0 0-2.032-12.869-.677-13.547s3.725-1.016 3.725-1.016 4.064-48.768 22.691-80.264l-10.16-13.547 29.464-45.042 17.949 3.048s37.253-39.624 71.797-53.509l2.535-16.537 47.587-16.653 13.547 12.531s47.075-8.467 82.973.677l12.869-13.208 51.138 17.611v17.272s41.317 17.949 68.749 51.477l18.288-2.371 31.496 44.704-10.499 13.208s20.32 43.011 22.691 81.957l12.531 5.419.339 4.064s-32.173 10.16-31.496 30.48-2.371 29.803-6.096 37.931-4.741 22.352-4.741 22.352-25.061 7.112-28.448 10.16c0 0-8.467-13.208-26.755-19.643 0 0-4.064-9.483-14.563-10.837 0 0-2.709-16.256-26.077-20.659 0 0-7.112-10.837-19.304-14.901 0 0-5.419-37.592-7.789-40.301 0 0-38.269-14.224-90.762-.339 0 0-24.045-6.773-35.221-3.725S213.021 499.942 213.021 499.942l-29.125 11.853 7.789 17.272z" fill="#fbca0a"/><path d="M365.435 470.965l.239-85.492s38.076-11.974 77.589-2.155l5.029 80.702s-48.134-13.171-82.858 6.945zm97.465 7.903s-2.395-69.208-10.776-92.197l-5.268-2.155 4.071 80.942zm-94.592-5.987s25.624-17.242 79.744-6.466l13.65 14.608s-62.502.479-79.984 2.634zm-17.841 11.135l14.129-10.178 13.41 10.297s-10.657 6.466-15.685 5.508-11.854-5.628-11.854-5.628zm-4.67-.359l15.805-10.537s-24.905-17.242-81.421-6.705l-11.495 13.889s64.658.958 77.11 3.353zm-79.026-6.226l.479-32.568 12.692-9.579-1.197 29.455zm15.805-43.584l-1.197 30.174s48.852-12.932 81.66 7.424v-86.21s-73.997-27.539-80.463 48.613z" fill="#fff"/><path d="M350.827 488.207s-11.974-2.395-24.666-2.155-63.7-1.916-63.7-1.916l.479-33.047-48.373 50.529-27.779 11.255 6.945 14.847 18.2-5.508-2.874-5.987 26.821-4.311s37.118 17.96 56.037 19.397c0 0 7.663-13.171 17.242-14.368 0 0 4.071-6.466 9.339-7.424 0 0-.479-9.339 7.663-11.734s10.537-8.621 10.537-8.621 6.705.479 7.903 1.676c0 0 4.789-2.634 6.226-2.634zm16.524 5.508l3.832 3.832s9.1-4.789 19.637 3.592c0 0 13.41 2.155 17.481 8.382 0 0 15.566-.718 22.271 10.297 0 0 12.213-1.916 16.524 3.592s9.818 7.903 17.721 7.663 11.255-1.916 12.453-4.071 9.579-6.705 13.65-6.226 10.537-8.142 10.537-8.142 4.311-8.142 17.721-8.382 17.96-8.86 17.96-8.86 0-1.916 10.058-6.226c0 0-8.142-11.734-27.3-17.003 0 0 1.437-7.424-12.453-11.255 0 0-.718-14.368-26.581-20.834 0 0-6.226-10.058-16.524-14.129l2.395 58.192-87.408 3.353s-5.747 4.789-11.974 6.226z" fill="#09a04b"/><path d="M189.653 540.921s30.141-17.272 66.04-3.387 44.365 13.208 57.912.677l-5.419-5.757 5.419 5.757s-1.693-3.048-7.112-5.757c0 0 17.272 2.032 27.432-15.579s20.659-10.16 20.659-10.16 3.725 8.128 20.659 7.112c-.11.201 0 0 0 0s7.451 6.096 18.288 7.451 16.933 5.757 16.933 5.757 7.451 11.176 28.109 9.821c0 0 8.805 12.869 31.835 6.096 0 0 12.531-.339 27.771-11.176 0 0 25.4-9.483 29.125-9.483s7.451-14.224 48.429-19.981c0 0 1.355-5.08 8.467-7.451l-5.08-13.208s-38.947 12.869-40.979 15.24-10.499 8.805-12.531 8.805-17.272 0-22.691 8.128-7.451 7.789-12.192 8.467-9.483 3.387-14.224 8.467c-.265.037 0 0 0 0s-15.579 4.741-22.691 1.016-6.435-10.499-25.061-8.805c0 0-1.016-10.499-21.675-10.499 0 0-1.693-7.112-18.627-9.144 0 0-6.773-6.773-18.288-3.048 0 0-10.837-13.547-25.061-5.757-1.693-1.016-6.773-2.032-8.128.339 0 0-5.757 4.403-7.112 5.757s-6.435-3.387-8.805 10.499c0 0-8.805 4.403-9.483 7.451 0 0-11.176 5.08-12.869 9.821s-6.096 6.435-11.176 4.741-37.592-9.483-51.138-18.965l-24.045 4.064 3.725 5.08-33.867 10.499s3.387 4.064 7.451 7.112z" fill="#919191"/><path d="M536.107 518.23l5.249-3.895s12.192 8.467 25.569 3.556l-3.725 7.281s-14.224 2.201-27.093-6.943zm8.975 28.448l4.741-5.08s-9.821-4.572-13.377-7.959c-.339.508-15.071 17.611-40.471 2.201 0 0-23.876 12.023-34.036 10.668 0 0 14.055 6.435 30.988-5.419 0 0 23.029 17.441 43.857-.339 0 0 1.863 2.371 8.297 5.927zm-214.714-22.691l3.556-5.08s11.007 3.048 23.707-4.741c0 0 5.419 2.879 14.393 1.863 0 0 5.927 5.08 18.627 7.62 0 0-11.684 5.927-28.448-4.911 0 0-11.515 9.991-31.835 5.249zm-26.077 22.86s7.789-4.841 8.297-5.687 3.048-4.303 3.048-4.303l3.217-2.709s14.732 17.103 42.841 0c0 0 18.457 18.288 44.196-.508 0 0 15.24 12.531 32.173 6.943l4.741 4.403s-13.885 9.652-37.253-3.725c0 0-18.627 16.425-44.026 0 0 0-18.288 16.425-43.349-.339 0 0-5.249 4.233-13.885 5.927zm-114.3-3.895l6.435-3.217s16.933 8.467 34.205-6.096c0 0 13.377 11.515 29.803 7.789l8.805 3.387s-19.135 9.821-38.608-3.725c0 0-18.457 16.087-40.64 1.863zm20.659 22.183s9.821-.847 19.812-8.128c0 0 18.796 19.135 44.196 0 0 0 17.103 18.965 44.196-.339 0 0 17.611 17.949 42.841.339 0 0 16.933 17.441 44.027.169 0 0 20.32 18.288 43.349-.169 0 0 18.119 17.611 43.857-.169 0 0 13.716 13.039 34.036 5.927l-1.524 8.297s-15.24 4.064-33.02-6.943c0 0-14.563 17.78-43.688.339 0 0-16.256 16.425-43.519-.169 0 0-17.441 17.103-44.196.169 0 0-14.563 17.441-43.18-.169 0 0-19.304 16.256-43.857-.169 0 0-16.425 17.441-43.519.169 0 0-9.821 7.451-18.119 7.451zm304.799 23.537c-12.023-1.693-22.183-8.636-22.183-8.636-27.432 18.119-43.519-.169-43.519-.169-23.537 18.288-43.857.508-43.857.508-25.739 18.796-43.857-.339-43.857-.339-20.997 17.78-43.519.508-43.519.508-24.384 17.78-43.688-.508-43.688-.508-23.876 17.441-44.196 0-44.196 0-6.943 5.08-11.684 6.604-11.684 6.604l5.08 4.741s5.08-2.709 6.096-4.741c0 0 18.457 17.611 44.365.677 0 0 17.441 16.933 43.688-.508 0 0 18.796 16.256 44.027.508 0 0 19.812 17.611 43.349-.169 0 0 18.796 16.256 43.857 0 0 0 21.336 15.748 44.027 0 0 0 6.435 4.911 16.425 6.604z" fill="#117fcf"/><g class="C B"><g class="E"><path d="M647.031 250.358c1.776 3.011-1.237 8.078-6.73 11.317s-11.385 3.425-13.16.415 1.237-8.078 6.73-11.317 11.385-3.425 13.16-.415z"/><path d="M656.201 265.204c2.097 3.555-1.461 9.539-7.947 13.365s-13.445 4.045-15.542.49 1.461-9.539 7.947-13.365 13.445-4.045 15.542-.49z" stroke-width="1.181"/><use xlink:href="#B" transform="matrix(1.077542 -.609428 .635574 1.033214 -204.13684 410.16076)"/><use xlink:href="#B" transform="matrix(1.074354 -.570847 .546164 1.122909 -170.55643 380.19202)"/><use xlink:href="#B" transform="matrix(.807836 -.468696 .476492 .79462 -9.805881 336.213)"/><path d="M630.906 226.433a5.227 9.536 55.631 0 1-15.742 10.766 5.227 9.536 55.631 1 1 15.742-10.766z" stroke-width=".826"/><path d="M623.726 216.059a4.429 9.16 53.254 1 1-14.964 10.528 4.429 9.16 53.254 0 1 14.964-10.528z" stroke-width=".745"/><use xlink:href="#B" transform="matrix(.568072 -.433695 .370341 .478921 151.4209 363.88412)"/></g><path d="M660.434 335.592s3.592-14.539 13-18.645c0 0-16.934 0-21.553 10.434s8.553 8.211 8.553 8.211zm-9.921 37.118s2.224-10.263 1.197-10.605-5.303-.342-8.211 3.079-5.132 14.539.513 12.316 6.5-4.789 6.5-4.789zm-16.25 10.092l-1.539-10.776s-5.816 1.368-6.158 7.355 5.816 5.987 7.697 3.421zm-2.395-12.829l-2.395-12.658s-5.009 3.595-4.618 9.066c.171 2.395 1.711 6.329 3.763 5.645s3.25-2.053 3.25-2.053zm-3.079-16.763l-2.224-12.145s-6.158 7.355-5.132 11.632 5.132 5.303 7.355.513zm-3.421-15.908l-1.882-10.605s-6.671 4.789-3.934 9.75 5.816.855 5.816.855zm-3.079-15.395l-2.737-10.605s-5.816 4.447-4.618 9.921 7.355.684 7.355.684zm-4.276-13.171l-2.908-10.434s-5.132 5.816-3.592 10.263 6.5.171 6.5.171zm-4.276-14.539l-4.789-9.75s-5.987 7.013-2.737 11.632 7.526-1.882 7.526-1.882zm-6.5-14.882l-4.618-8.724s-4.276 5.987-1.368 9.921 5.987-1.197 5.987-1.197zm-5.987-12.658l-4.276-8.039s-3.592 7.184-1.711 10.605 5.987-2.566 5.987-2.566zm87.237 46.355l-3.421-9.408s-4.447 3.421-3.934 7.355 7.355 2.053 7.355 2.053zm-4.447-14.539l-5.645-9.75s-7.013 5.303-4.618 9.237 10.263.513 10.263.513zm-8.724-17.105l-2.908-4.105-.513-5.132s-7.013 5.132-4.105 7.697 7.526 1.539 7.526 1.539zm-3.592-15.566l.342-11.289s-12.658 5.303-10.434 9.579 10.092 1.711 10.092 1.711zm1.026-20.355l.171-6.671s-9.75-2.566-15.053 1.368-3.421 9.408 2.737 9.066 12.145-3.763 12.145-3.763z"/><g class="E"><use xlink:href="#C" transform="matrix(.554063 -.868525 .731255 .611832 30.471366 701.3614)"/><use xlink:href="#C" transform="matrix(.554063 -.868525 .731255 .611832 26.109526 685.36797)"/><use xlink:href="#C" transform="matrix(.534462 -.826463 .705384 .582202 42.772576 652.49329)"/><use xlink:href="#C" transform="matrix(.514664 -.792997 .679255 .558627 58.968606 622.9831)"/><use xlink:href="#C" transform="matrix(.434687 -.693519 .573702 .48855 141.89816 565.43956)"/><use xlink:href="#C" transform="matrix(.390654 -.523828 .515586 .369011 184.59301 482.11113)"/><use xlink:href="#C" transform="matrix(.468801 -.700592 .618726 .493532 92.399466 540.99521)"/><use xlink:href="#C" transform="matrix(.477541 -.623063 .630261 .438917 77.160616 496.45162)"/><use xlink:href="#C" transform="matrix(.457971 -.581041 .604432 .409314 91.735826 470.60598)"/><use xlink:href="#C" transform="matrix(.516787 -.450877 .682057 .31762 58.755486 383.21406)"/><use xlink:href="#C" transform="matrix(.865193 -.192652 .092655 .616404 46.272086 120.27021)"/><use xlink:href="#C" transform="matrix(.874477 -.114355 -.023547 .636043 88.498656 73.236253)"/><use xlink:href="#C" transform="matrix(1.011058 -.197235 -.008099 .646402 3.025156 133.67316)"/></g></g><path d="M532.219 72.406c3.151 2.651 7.508 3.789 10.938 6.219 26.12 15.063 44.284 41.362 52.923 70.117 2.969 9.636 4.944 19.816 5.89 29.914l20.156 21.25c-1.54-8.625-2.163-17.53-5.437-25.75-2.09-5.521-5.125-11.075-10.062-14.437 2.444.262 6.107 1.556 4.295-2.112-7.948-32.598-31.302-60.195-60.165-76.608-5.805-3.179-11.686-6.535-17.911-8.61l-.5.014-.125.004zM535.25 84.5c4.804 3.333 10.391 5.738 15.13 9.325 10.214 7.402 19.792 16.16 25.526 27.612 4.67 16.796 6.814 34.34 9.66 51.58l3.809 25.701 10.656 12c-1.113-12.536-1.981-25.484-6.844-37.187-2.248-1.826 1.588-3.125.144-5.246-3.747-16.625-7.229-33.398-11.628-49.818-4.917-12.559-16.964-20.436-28.392-26.655-5.588-2.798-11.31-5.711-17.344-7.331l-.5.013-.219.006zm27.406 27.844c1.257 5.728 1.91 11.812.476 17.468.688 9.633 5.714 18.307 10.243 26.594 2.016 5.447 3.352 12.125.156 17.406-2.283 10.578-1.4 21.673-1.342 32.468-.449 3.116.47 5.606 3.184 7.315l13.065 12.686-2.406-30.875c-2.455-2.908-4.793-5.942-7.5-8.594 1.844-.044 6.321 3.63 6.156.781-1.118-20.997-3.74-42.444-12.204-61.812-2.516-5.626-5.844-10.829-10.171-15.219l.344 1.781zm52.969 47.531c12.183 8.085 22.588 18.717 33.444 28.59l30.431 29.473c-.341 20.827-1.227 41.679-.562 62.5 1.624 5.174 6.399 8.701 9.916 12.666 2.251 2.054.45 5.782.981 8.552l-.459 46.25c7.106-10.379 7.975-23.233 9.45-35.404 1.587-18.254 1.571-36.613 1.925-54.908-1.845-13.312-9.178-25.115-16.142-36.34-4.324-5.674-6.619-12.417-11.064-18.044-8.453-11.54-18.067-22.537-29.638-31.022-5.416-3.371-11.844-4.848-17.363-7.907-3.897-1.485-7.528-4.396-11.606-5.374l.688.969zm-93.5 7.406c-4.526-.309-2.124 1.207.561 2.695 13.963 9.158 28.385 18.015 40.501 29.305 1.3.578 3.056 5.277 3.099 3.251.028-4.312.657-8.867.339-13.032-5.157-3.641-10.229-7.949-15.437-11.187-5.216 1.822-11.075-1.678-12.594-6.906-.812-2.598-4.493-2.366-6.693-3.256a36.52 36.52 0 0 0-9.776-.869zm8.063 12.125c12.348 10.225 25.05 20.24 35.563 32.313-.222-2.649 1.316-6.066 0-8.238-10.85-9.332-22.283-18.263-35.032-24.887-1.421-.243-1.539-.613-.531.813zm74.063 6.438l.781 19.625c3.988-1.763 8.199-3.731 12.656-3.094l-13.5-18.156.063 1.625zm-9.406 23.188c-2.086 2.425-1.121 6.314-1.203 9.31.264 2.936.889 5.794 2.203 8.44 1.205-3.534 3.361-6.843 4.531-10.219-1.602-2.531-2.559-6.116-5.281-7.562h-.125l-.125.031zm-22.719 3.25c-1.033 3.423-.682 7.442 2.153 9.979 4.577 5.755 8.964 11.862 14.378 16.802.343-3.151 1.29-6.534 1.219-9.562l-17.531-18.062-.125.484-.093.36zm1.406 15.844c.346 3.88-1.143 8.254 1.781 11.438 4.557 6.823 8.478 14.765 15.592 19.244.736-1.714-.128-6.009-.003-8.707.607-3.191-.957-5.51-3.275-7.519l-14.096-15.769v1.313zm134.75 40.625c-1.323 27.482-6.301 54.638-11.562 81.594 2.727-1.18 6.071-1.837 8.438-3.344 4.018-21.474 7.494-43.334 6.382-65.246-.442-4.928-.808-10.044-2.976-14.535l-.281 1.531zm-112.687 33.344c9.221 24.68 15.028 50.386 19.875 76.25 1.821-.349 7.817 1.275 6.914-.449-4.202-4.562-6.271-11.639-3.508-17.52-3.925-4.121-4.727-10.402-3.469-15.844-2.971-4.333-5.393-9.83-3.75-15.156 1.375-2.031-.262-3.083-1.219-4.812-1.877-3.245-1.08-7.389-.75-10.687-3.841-2.949-6.434-7.551-6.125-12.469-2.14.488-7.554-.958-7.969.688zM684.906 315c-12.153 4.267-18.865 16.532-23.344 27.875-3.573 9.625-6.093 19.609-7.312 29.813l29.906-14.094c-.866-13.423-2.276-27.153.469-40.437-.191-.957 2.715-4.622.281-3.156zm26.813 118.813c-3.899 2.102-8.334 3.822-11.906 6.156-2.283 16.895-8.292 33.262-17.906 47.375 4.444-.804 9.542-.532 13.5-2.75 8.81-15.815 13.686-33.575 17.219-51.25l-.906.469zm-19.781 7.938c-3.818 1.496-8.257 2.437-11.719 4.25-3.588 14.686-8.021 29.898-17.219 42.188-3.358 2.949 3.536.703 5.328 1.047 2.488-.832 6.623.84 7.982-1.713 7.247-14.567 14.142-29.808 16.378-46.053l-.468.176-.282.106zm-21.531 6.781c-3.728 1.395-8.059 2.277-11.437 3.969-3.869 13.85-9.765 27.173-18.5 38.656 4.639-.386 9.561-.308 14.031-.969 7.013-9.758 10.388-21.698 14.173-33.046.945-2.944 1.766-5.919 2.609-8.892l-.476.153-.399.128zm-23.875 6c-3.671 1.014-7.978 1.408-11.281 2.781-4.148 12.663-10.991 24.175-17.875 35.563 4.376-.451 8.993-.472 13.219-1.25 7.234-11.598 12.659-24.239 16.75-37.281l-.487.112-.325.075zm-20.594 4.156c-3.588 1.146-7.723 1.785-11 3.219-3.315 10.176-6.393 20.947-12.781 29.5-3.832 2.706-1.344 2.5 2.25 2.344 2.773-.349 6.447 1.232 7.859-2.049 7.605-9.544 12.901-21.07 14.422-33.232l-.48.14-.27.079zm-18.656 4.344c-2.166 1.233-6.323.406-6.625 3.537-3.335 9.159-6.045 18.853-11.75 26.869-3.913 2.571 2.724.685 4.388.879 2.993.447 4.785-.899 5.441-3.773 3.787-8.953 8.152-17.99 9.265-27.73l-.478.146-.24.073z" fill="#088740"/><g class="D"><path d="M427.867 376.922s19.467-37.667-6.635-69.517-69.147-27.181-88.605-13.171c-17.96 12.932-38.076 41.429-21.792 79.984s33.158 3.72 33.158 3.72 16.71 3.113 21.02 4.789c0 0 28.1-8.125 62.853-5.805z" stroke="#ed1a23"/><path d="M272.626 424.081l-54.864 39.624 53.848-42.672.677-10.499-28.109 17.611 30.141-19.981 2.371-5.08-.339-6.096-95.842 43.688 95.842-49.445 2.032 12.869zm25.4-50.122l-74.845 25.739 74.168-28.787zm-.677-5.419l-1.838-4.741-114.662 32.173zm-1.838-8.128l-1.548-4.741-69.572 14.901zm167.449 62.992l-.558-4.7 50.28 37.229zm-2.271-15.558l-.479-2.371 34.92 22.67zm-2.23-13.228l-1.355-5.935 98.309 52.332zm-21.577-20.128l1.935-4.838 71.846 27.819zm2.419-7.741l112.002 27.335-110.551-30.964zm1.935-7.015l.242-3.629 75.716 15.24zm.968-7.015l133.773 5.564-133.532-10.644zm.242-8.467l-.484-3.87 84.183-3.387zm-1.21-6.531l115.631-20.562-115.872 15.966zm-1.451-7.499l77.651-20.562-78.135 17.417zm-1.935-6.531l-.726-5.322 127.726-44.752zm1.935-11.611l62.17-33.383-62.17 28.787zm22.255-38.705l35.318-29.029-35.076 31.448zm12.337 5.806l51.768-32.657-51.526 35.318zm-52.251 13.305l87.811-81.038-84.425 84.425zm-2.661-.242l43.543-58.299-46.93 55.88zm-5.806-2.903l61.444-99.181-65.556 95.794zm-6.29-5.806c0-1.693 32.173-63.621 32.173-63.621l-35.076 62.411zm-5.806-3.387l-4.354-1.693 48.865-115.147zm-12.821-4.354l21.288-73.539-17.659 74.749zm-8.467-2.419l5.08 1.21 16.933-107.648zm-2.419-.242l3.629-70.394-7.983 69.911zm-7.983-.726l.242-107.164-5.08 107.164zm-11.37.242l3.629-.484-8.467-67.733zm-4.838 1.451c-.726-1.935-20.32-106.922-20.32-106.922l16.45 107.406zm-7.015 1.693l-20.804-70.878 17.659 71.846zm-11.853 5.564l4.112-2.903-49.107-113.695zm-10.644-12.095l-29.029-48.623 25.642 47.413zm-24.432-20.562c-.726-1.21-38.947-57.09-38.947-57.09l37.495 59.992zm19.594 41.366l-2.177 1.693-44.994-57.573zm-6.531 9.676l1.935-5.564-88.295-81.764zm-1.693 1.21l-60.718-43.543 58.057 46.446zm-6.531 8.467l2.903-3.629-99.665-59.992zm-3.87 7.257l2.419-3.87-72.571-35.802zm-5.322 36.528l-.726-5.08-133.773 10.16zm-.726-7.499l.484-3.87-52.977-2.661 13.305 2.419zm-1.21-6.773l2.903-4.838-120.469-17.901zm1.935-7.741l1.693-3.87-37.495-7.499.484 2.419zm2.661-6.773l1.693-5.08-132.322-45.72z"/></g><path d="M435.913 374.731s14.998-37.253-11.611-69.669-58.057-29.029-78.377-23.707-59.025 39.189-43.059 92.892" fill="none" stroke="#fbca0a" stroke-width="12"/><path d="M502.241 504.345s8.025-4.386-11.853-25.4c-21.564-22.796-108.373-131.402-108.373-131.402l38.608-32.851 7.789 9.144 37.592-32.851s-.339 4.741 57.234-54.186l-54.864 41.317s-6.773-1.016 0-7.112l-2.371-2.709s0 2.032-4.741 1.693c0 0-4.741 1.016-5.419 2.371 0 0-11.176-8.467-11.853-10.837s-3.048 3.048-3.048 3.048l3.048 10.16-22.352 18.965s.339 6.435-10.499 2.032c-2.032 1.016-26.077 20.659-26.077 20.659l-1.693-2.709-16.933 14.224-34.883-42.333s3.725-5.757-4.741-15.24-20.32-24.384-20.32-24.384-10.499-1.693-15.917 10.499-9.483 9.483-16.933 8.128-8.467-12.869-69.088 74.168l28.448 34.544 60.621-80.264s1.693-6.096 1.693-8.128 8.805-3.725 9.483-6.773 6.096-.677 13.547 10.837c0 0-2.371 2.371 4.064 9.144s33.189 39.624 33.189 39.624l-4.741 4.403-5.757-.339-14.563 11.853-.677 8.805-10.16 8.805-6.096-.677-7.451 6.435-1.693 4.741-6.435-5.08-35.56 16.595-.677 6.096 12.531-6.435-.677 11.853-6.773 7.112s-.677 3.725 2.371 5.08c0 0-4.741 5.419-.339 6.435 0 0 1.693 1.355.677 3.048s-13.547 13.547-20.32 23.707l-14.563 3.725c.026.172-5.757 5.757-5.757 5.757l-28.109 25.4 21.336 28.109s47.413-69.765 51.816-71.458c0 0 7.789-7.112 11.515-5.757s11.176 8.467 13.208 22.013 6.435 9.144 6.435 9.144 6.096-5.757 7.451-6.435-1.693-5.08-4.741-4.741c0 0-5.757-20.32-5.757-25.739 0 0 8.128 1.355 14.901-7.112s-.677-5.757.677-13.208c0 0 37.592 24.723 78.57 20.32.677-1.016.339-25.4.339-25.4s-32.512 1.355-57.234-14.224l14.901-13.885s7.112-6.435 9.144-11.853 8.805-8.805 8.805-8.805l117.856 144.271s6.876 8.405 12.192 4.064z"/><path d="M304.206 467.007s6.265-6.265 7.62-6.604c0 0 .75-3.145-3.81-3.81-2.23-.325-6.519-25.569-6.519-25.569s-.847-7.197-4.995-4.572c-4.763 3.014-11.007 8.467-11.007 8.467s11.43 4.318 14.309 24.638c0 0 .677 7.874 4.403 7.451zm-32.574-25.188l1.726-1.627-7.183-8.662-1.367 1.409zm-1.038 1.566s-27.771 36.068-48.598 67.902l-19.304-26.416 32.681-29.972 14.224-3.725 14.055-17.103zm74.367-78.507l46.817-38.316 5.508 7.184-29.695 24.905s-3.477 2.525-5.388 7.184c-1.916 4.67-8.022 10.178-8.022 10.178z" fill="#964a3c"/><g fill="#fff"><path d="M301.855 423.19s2.754 5.388 7.304 1.317 6.825-5.628 4.191-8.501-3.353-3.592-4.909-2.036-5.747 5.388.479 5.747c0 0 .239 2.993-7.064 3.472zm-32.149 2.934s-2.215-1.856-.778-3.053l140.93-117.94s1.078-.718 2.514.239-1.676 2.155-2.395 2.754l-140.271 118zm36.819-26.162s1.664-1.056-.73-4.887-2.205-9.368-5.496-11.157c-2.827-1.537 3.233 12.812 6.226 16.045zm-38.196 18.2l63.7-53.522-1.317-.838-62.383 52.564zm10.393-15.585l4.233-3.895v-6.265l-4.741 3.048zm9.821-8.297l8.297-7.281-2.032-1.016-6.265 4.233zm40.64 15.409s26.585 14.224 51.816 15.579c0 0-25.908 3.387-51.816-15.579zm1.355-5.08s22.86 11.515 51.985 14.732c0 0-27.94 1.524-51.985-14.732zm52.493 9.652s-27.601-3.387-50.8-15.24c0 0 22.521 16.764 50.8 15.24zm-48.768-19.643s26.247 12.531 49.106 14.224c0 0-19.643 4.064-49.106-14.224zm3.048-27.94c-1.016-.339-7.521-3.973-7.521-3.973l-.977.835 7.143 4.663zm3.217-.931l10.916 12.644 2.013-1.941-10.389-12.312zm14.732-13.293l-8.855-10.398 4.283.188 7.112 8.686zm36.915-31.665c-.508-.847-5.01-5.916-5.01-5.916l-1.933 1.603 13.208 16.844s2.579-1.644 1.902-1.982-8.167-10.548-8.167-10.548zm6.096 9.652l51.985-43.857c.47-.45-.339-.508-.339-.508l-53.001 43.18zm28.787-34.713l-1.524-.508 20.32-17.103 1.355.677zm33.528-13.039c0-1.185.677-6.265.677-6.265s6.773 6.604 6.604 8.128-2.032 4.572-3.895 2.032-3.387-3.895-3.387-3.895zm11.176-.847c.508-.677 15.071-11.345 19.812-17.949-7.112 4.233-19.812 17.949-19.812 17.949zm-37.084 24.553c.847-.508 16.764-13.377 19.981-18.288-7.959 4.403-19.981 18.288-19.981 18.288zm57.065 191.007s2.709-2.371 5.588 1.016 1.122 4.296.275 4.973-2.752.114-4.276-2.087-1.587-3.902-1.587-3.902zm-7.514-10.88s.571-1.989-.445-2.667-22.435-27.559-22.435-27.559-2.74-.835-1.989.254c5.807 8.43 16.865 21.118 16.865 21.118s1.27 2.37 8.004 8.853zm-57.002-71.077c-1.524-3.048-46.228-55.71-46.228-55.71l-.508.169-.339 1.863 46.228 54.525zm-69.934-81.28l2.709-2.371-35.052-44.535h-2.032l-.677 1.693zm-33.359-51.646l1.863-2.201-11.684-14.901-2.371 2.201zm-32.173-5.419s16.087.339 19.473-16.425c-6.265 11.853-19.473 16.425-19.473 16.425zm.169-11.515s10.499 2.201 13.377-11.345c-3.895 8.128-13.377 11.345-13.377 11.345zm0-4.233s9.144.847 8.975-10.499c-10.499 1.355-8.975 10.499-8.975 10.499zm-61.468 106.341l3.725-3.725-23.199-27.94-4.233 3.725z"/><path d="M302.873 395.231l.539-2.095 2.395.06.359 3.113-1.976.898zm31.91-26.342c0-.359.359-1.916.359-1.916l1.856-.778 6.765-2.814-1.051 2.219-.446 1.193-1.616-.479zm54.36-45.08l.718-2.694 3.293-1.497.157 4.222-1.25.171z"/></g><g stroke="#000" stroke-width=".424" class="C"><path d="M249.352 629.812l-.242 5.255c-.077 1.673.762 2.553 2.517 2.64l.991.049-.062 1.347-11.653-.576.062-1.347.536.027c1.008.05 1.73-.072 2.167-.365.515-.346.796-1.013.841-2.001l.628-13.625c.046-.999-.12-1.697-.498-2.093s-1.055-.618-2.03-.666l-.699-.035.062-1.347 4.303-.057 5.472.017c2.481.123 4.418.399 5.81.828s2.49 1.102 3.295 2.02a5.48 5.48 0 0 1 1.412 4.003c-.128 2.785-1.855 4.556-5.18 5.314.739.689 1.585 1.783 2.537 3.282l2.859 4.075c.629.729 1.272 1.256 1.931 1.581.563.275 1.356.5 2.38.675l-.061 1.331c-.489.01-1.178-.008-2.066-.052-2.59-.128-4.455-.53-5.597-1.205-.603-.345-1.168-.817-1.694-1.417-.578-.659-1.226-1.557-1.945-2.696l-1.791-2.84c-.458-.675-1.008-1.338-1.651-1.989zm.524-11.385l-.458 9.937 1.3.064c1.972.098 3.471-.143 4.497-.723 1.304-.723 2-2.034 2.087-3.931.153-3.312-1.743-5.066-5.687-5.261z"/><path d="M284.934 624.022c-.102-1.061-.249-1.787-.441-2.177-.324-.643-.903-.981-1.738-1.014l-7.3-.289-.286 7.767 5.398.213c.9.036 1.549-.124 1.947-.48s.615-.994.649-1.915l1.333.053-.253 6.874-1.333-.053c.046-1.236-.285-2.002-.99-2.3-.428-.174-1.07-.279-1.926-.312l-4.894-.193-.229 6.217c-.023.629.021 1.058.132 1.288.15.343.496.526 1.038.547l5.561.22c1.214.048 2.113-.198 2.698-.737.528-.474.951-1.352 1.269-2.633l1.252.05-.59 5.41-20.048-.793.05-1.348 1.366.054c1.734.069 2.632-.723 2.693-2.374l.507-13.766c.038-1.022-.181-1.723-.655-2.101-.401-.32-1.121-.5-2.162-.541l-.325-.013.05-1.348 18.34.725.157 5.018zm11.472 7.804l-.147 5.124c-.029 1.022.195 1.727.672 2.112.403.339 1.119.524 2.149.555l1.008.031-.039 1.348-11.336-.348.039-1.348.504.016c.867.027 1.456-.062 1.766-.266.387-.258.593-.803.616-1.634l.423-14.798c.029-1.022-.251-1.644-.842-1.865-.333-.123-.808-.194-1.426-.213l-.732-.022.039-1.348 5.41-.205 5.291-.023c3.036.093 5.337.833 6.904 2.22 1.439 1.281 2.131 2.894 2.075 4.838-.088 3.079-1.783 5.056-5.086 5.933-1.072.282-2.236.404-3.494.365a21.34 21.34 0 0 1-3.796-.471zm.321-11.208l-.28 9.792c.689.19 1.489.299 2.4.327 2.082.064 3.531-.696 4.346-2.279.391-.764.602-1.708.634-2.831.045-1.584-.348-2.833-1.179-3.747s-2.011-1.394-3.54-1.441c-.781-.024-1.575.036-2.382.18zm29.834.9l.026-1.349 8.638.182-.026 1.349-.244-.005c-1.074-.023-1.848.158-2.322.541-.508.428-.772 1.181-.793 2.26l-.169 8.598c-.06 3.057-.935 5.343-2.625 6.859-1.624 1.461-3.927 2.16-6.909 2.097-2.831-.06-5.086-.692-6.765-1.897-1.979-1.413-2.942-3.508-2.887-6.284l.202-10.3c.018-.91-.138-1.532-.468-1.865s-.934-.509-1.812-.527l-.569-.012.026-1.349 10.428.22-.026 1.349-.569-.012c-1.573-.033-2.374.731-2.405 2.294l-.202 10.3c-.05 2.562.93 4.281 2.942 5.155.893.39 1.887.596 2.982.619 2.006.042 3.595-.453 4.765-1.485 1.215-1.087 1.842-2.66 1.883-4.716l.165-8.395c.032-1.641-.316-2.711-1.044-3.209-.396-.256-.936-.391-1.619-.405zm-6.765-3.566l2.601-6.472 5.352.113-6.017 6.4zm19.572 19.674l.131-12.848c.017-1.652-.304-2.6-.964-2.843-.4-.139-1.034-.214-1.902-.223l-.83-.009.014-1.349 2.1-.078 2.101-.146 1.856-.081 3.548-.113c4.512.049 7.557.903 9.135 2.562a4.36 4.36 0 0 1 1.237 3.15c-.021 2.057-1.402 3.413-4.142 4.069 1.494.342 2.713 1.002 3.657 1.979 1.041 1.079 1.554 2.372 1.539 3.878-.026 2.552-1.368 4.409-4.027 5.571-1.308.57-2.851.846-4.63.826l-12.902-.141.014-1.349c2.017.022 3.258-.369 3.722-1.173.221-.402.335-.963.343-1.682zm4.677-7.099l-.069 6.744c-.016 1.551.398 2.5 1.24 2.846.432.185 1.017.281 1.754.289 3.113.034 4.686-1.551 4.718-4.754.017-1.675-.458-2.967-1.425-3.877-.924-.864-2.189-1.305-3.794-1.323-.607-.006-1.416.018-2.425.075zm.093-9.155l-.078 7.672 2.57.096c2.777.03 4.177-1.163 4.202-3.579.029-2.81-1.617-4.233-4.936-4.27-.597-.006-1.183.021-1.758.082zm34.845 14.735l-2.45 5.999-17.849-.03.002-1.349.553.001c1.345.002 2.186-.35 2.524-1.058.163-.348.245-.82.246-1.416l.022-13.826c.002-1.652-.869-2.48-2.616-2.483l-.635-.001.002-1.349 11.292.019-.002 1.349-.96-.002c-1.649-.003-2.474.8-2.477 2.407l-.022 14.231c-.001.63.12 1.051.364 1.265s.675.322 1.293.323l4.247.008c1.237.002 2.262-.48 3.078-1.445l2.054-2.644zm.024-14.148l-.006-1.349 10.592-.057.006 1.349-.553.003c-1.692.009-2.534.879-2.525 2.61l.068 13.674c.004.933.214 1.584.628 1.953s1.077.551 1.988.546l.488-.002.006 1.349-10.592.057-.006-1.349.472-.002c1.616-.009 2.42-.806 2.412-2.39l-.069-13.809c-.004-.933-.192-1.598-.563-1.995s-1.006-.593-1.907-.588zm33.471 13.607l1.334-.018c-.277 2.084-.874 4.188-1.791 6.314-.501-.151-1.158-.22-1.972-.209-.412.005-1.26.121-2.542.347s-2.342.344-3.177.356c-2.148.029-4.138-.404-5.972-1.301a11.3 11.3 0 0 1-4.625-4.068 10.39 10.39 0 0 1-1.683-5.626c-.04-3.158 1.159-5.853 3.599-8.085s5.449-3.371 9.028-3.421c1.475-.02 2.812.164 4.01.552l2.402.776c.26-.003.481-.119.663-.346l.83-.011.386 6.032-1.302.018c-.756-2.305-2.024-3.862-3.802-4.669-.895-.404-1.863-.598-2.904-.584-2.375.033-4.295.908-5.759 2.625-1.486 1.752-2.211 3.976-2.177 6.674.022 1.742.39 3.35 1.103 4.825.758 1.563 1.815 2.78 3.171 3.649 1.302.848 2.728 1.261 4.279 1.24a6.88 6.88 0 0 0 4.196-1.44c1.16-.893 2.061-2.102 2.704-3.629zm17.225-2.193l-7.287.185-1.303 4.081c-.314.964-.314 1.633-.001 2.007.302.375 1.201.543 2.697.505l.423-.011.032 1.349-8.833.224-.032-1.349.504-.013c.9-.023 1.614-.35 2.141-.982.369-.459.72-1.216 1.053-2.27l5.304-16.613-.382-1.002 4.929-.125 7.068 17.379c.415 1.024.822 1.739 1.223 2.145.534.537 1.262.828 2.185.872l.032 1.349-10.833.275-.032-1.349 1.171-.03c.976-.025 1.583-.259 1.823-.704.228-.433.159-1.089-.209-1.968zm-.81-1.885l-3.249-7.997-2.607 8.145zm18.899-10.797l-.054-1.348 2.353-.219 1.607-.136c.119-.005.584-.053 1.395-.144l4.545-.363c4.335-.185 7.502.14 9.5.977a9.32 9.32 0 0 1 5.103 5.047c.527 1.226.818 2.553.875 3.979.12 3.021-.807 5.643-2.781 7.865-2.172 2.444-5.891 3.779-11.158 4.004l-10.583.453-.054-1.348c1.062-.045 1.799-.206 2.212-.483.561-.373.821-1.059.781-2.059l-.531-13.326c-.063-1.572-.479-2.488-1.249-2.748-.44-.139-1.093-.189-1.96-.152zm7.69-.329l.642 16.106c.046 1.157.246 1.877.599 2.16s1.153.398 2.399.345c3.392-.145 5.844-1.279 7.355-3.403 1.233-1.752 1.799-3.891 1.698-6.418-.118-2.965-1.035-5.266-2.75-6.903-1.659-1.583-4.109-2.305-7.349-2.166-.932.04-1.797.133-2.594.28zm37.033 1.818c-.196-1.047-.407-1.756-.633-2.126-.38-.609-.986-.89-1.82-.843l-7.295.41.407 7.762 5.394-.304c.899-.051 1.531-.272 1.896-.664s.524-1.048.475-1.969l1.332-.075.36 6.869-1.332.075c-.065-1.235-.462-1.967-1.191-2.196-.441-.133-1.09-.175-1.946-.127l-4.89.275.326 6.213c.033.629.115 1.052.246 1.27.18.328.541.476 1.083.446l5.557-.313c1.213-.068 2.087-.399 2.62-.992.483-.523.826-1.437 1.03-2.743l1.251-.07-.106 5.443-20.033 1.127-.071-1.347 1.365-.077c1.733-.098 2.556-.971 2.47-2.621l-.721-13.756c-.054-1.021-.333-1.698-.84-2.03-.427-.28-1.161-.391-2.201-.332l-.325.018-.071-1.347 18.327-1.031.603 4.981zm-246.634 58.371l-9.172-18.921-.424 13.848c-.034.937-.022 1.569.036 1.897.107.73.408 1.234.904 1.509.447.252 1.195.368 2.244.348l.044 1.517-8.325.258-.044-1.517c1.694-.091 2.65-.626 2.865-1.607.096-.484.162-1.352.199-2.606l.418-14.075c.028-1.14-.122-1.9-.451-2.282s-1.042-.581-2.142-.598l-.044-1.517 7.904-.245 7.771 16.08 6.537-16.524 8.069-.25.044 1.517-1.534.142c-.655.147-1.025.437-1.11.869-.075.369-.067 1.046.022 2.03l1.31 14.287.221 1.929c.182.804.52 1.3 1.014 1.487.42.177 1.15.287 2.189.331l.044 1.517-11.82.367-.044-1.517.64-.02c1.086-.034 1.813-.195 2.184-.485.454-.356.665-1.064.634-2.126l-.126-1.818-1.331-13.755-7.831 19.904zm21.211-12.303c-.074-3.831 1.209-7.02 3.851-9.567s6.061-3.864 10.259-3.952c3.941-.082 7.178.998 9.712 3.241s3.836 5.185 3.906 8.826c.054 2.769-.649 5.256-2.107 7.462-1.423 2.155-3.382 3.745-5.876 4.771-1.743.732-3.695 1.121-5.854 1.166-2.501.052-4.786-.381-6.854-1.299-2.29-1.027-4.053-2.553-5.288-4.576-1.122-1.836-1.704-3.86-1.747-6.073zm5.564-1.994c.071 3.667.959 6.646 2.663 8.938 1.667 2.267 3.831 3.373 6.491 3.318 3.294-.069 5.531-1.779 6.711-5.13.532-1.542.779-3.229.744-5.062-.065-3.338-.87-6.135-2.415-8.393-1.633-2.394-3.804-3.563-6.513-3.507-3.245.068-5.509 1.645-6.792 4.733-.63 1.493-.927 3.194-.89 5.103zm49.128 5.768l1.501-.02c-.312 2.344-.984 4.712-2.016 7.103-.564-.169-1.303-.248-2.218-.236-.464.006-1.417.136-2.86.39s-2.634.387-3.574.399c-2.416.033-4.656-.455-6.719-1.464a12.71 12.71 0 0 1-5.202-4.577c-1.232-1.906-1.863-4.015-1.892-6.33-.045-3.553 1.305-6.585 4.05-9.094s6.131-3.792 10.157-3.847c1.659-.022 3.163.185 4.511.622l2.702.874c.293-.004.541-.134.746-.39l.933-.013.434 6.786-1.464.02c-.85-2.594-2.276-4.345-4.277-5.254-1.007-.454-2.095-.673-3.267-.658-2.672.036-4.832 1.02-6.48 2.952-1.672 1.97-2.488 4.473-2.45 7.508.025 1.96.438 3.769 1.24 5.428.852 1.759 2.041 3.128 3.567 4.106a8.42 8.42 0 0 0 4.814 1.395c1.769-.024 3.343-.564 4.721-1.62 1.305-1.004 2.319-2.365 3.042-4.082zm-12.373 10.355l2.318-3.446 1.281-.017-.805 1.491c1.53.384 2.306 1.392 2.326 3.023.018 1.442-.585 2.506-1.809 3.193-.57.311-1.214.472-1.934.482-1.22.017-2.31-.279-3.27-.885l.315-1.18c.626.282 1.329.418 2.11.408a1.67 1.67 0 0 0 1.147-.461 1.43 1.43 0 0 0 .48-1.116c-.011-.872-.731-1.369-2.161-1.488zm31.955-12.52l-8.2.056-1.545 4.563c-.371 1.077-.385 1.83-.041 2.258.332.428 1.34.636 3.024.624l.476-.003.009 1.517-9.939.068-.009-1.517.567-.004c1.013-.006 1.822-.36 2.428-1.06.424-.509.833-1.353 1.229-2.531l6.289-18.576-.41-1.135 5.546-.038 7.612 19.695c.447 1.16.891 1.973 1.333 2.438.59.616 1.403.958 2.441 1.027l.009 1.517-12.191.083-.009-1.517 1.318-.009c1.098-.008 1.786-.259 2.064-.754.265-.482.2-1.222-.197-2.218zm-.874-2.138l-3.499-9.062-3.091 9.108zm27.549 11.035l-8.601-19.207-.839 13.828c-.062.936-.069 1.568-.02 1.897.085.734.371 1.246.859 1.538.439.266 1.183.406 2.233.42l-.002 1.518-8.329-.01.002-1.518c1.696-.036 2.667-.541 2.912-1.514.11-.48.203-1.347.277-2.598l.839-14.055c.062-1.138-.065-1.903-.382-2.296s-1.024-.615-2.123-.666l.002-1.518 7.908.01 7.286 16.322 7.029-16.305 8.072.01-.002 1.518-1.538.093c-.659.126-1.038.403-1.136.833-.086.367-.099 1.043-.039 2.03l.881 14.323.163 1.935c.158.81.481 1.316.969 1.519.415.19 1.141.324 2.178.401l-.002 1.518-11.825-.014.002-1.518h.641c1.086.001 1.818-.137 2.197-.415.464-.341.697-1.042.698-2.105l-.071-1.821-.919-13.792-8.423 19.642zm24.3-4.695l.131-14.454c.017-1.859-.346-2.925-1.088-3.198-.45-.156-1.163-.239-2.14-.248l-.934-.009.014-1.517 2.362-.091 2.363-.167 2.088-.094 3.992-.132c5.076.049 8.503 1.006 10.28 2.869.943.996 1.408 2.176 1.396 3.542-.021 2.314-1.572 3.842-4.654 4.583 1.681.383 3.053 1.124 4.117 2.222a5.96 5.96 0 0 1 1.736 4.361c-.026 2.871-1.534 4.962-4.523 6.273-1.47.643-3.206.955-5.207.936l-14.515-.141.014-1.517c2.27.022 3.665-.42 4.186-1.325.248-.453.376-1.084.383-1.893zm5.253-7.992l-.069 7.587c-.016 1.745.451 2.812 1.399 3.201.486.207 1.144.315 1.974.323 3.502.034 5.27-1.751 5.302-5.355.017-1.884-.519-3.337-1.608-4.36-1.041-.971-2.464-1.466-4.27-1.483-.683-.006-1.593.022-2.728.087zm.093-10.3l-.078 8.631a63.62 63.62 0 0 0 2.891.104c3.124.03 4.698-1.314 4.723-4.033.029-3.161-1.824-4.76-5.558-4.796a16.96 16.96 0 0 0-1.978.095zm17.126.665l.022-1.517 11.915.189-.022 1.517-.622-.01c-1.903-.03-2.87.928-2.898 2.876l-.227 15.382c-.016 1.05.205 1.787.663 2.211s1.199.645 2.224.661l.549.009-.022 1.517-11.915-.189.022-1.517.531.009c1.818.029 2.74-.848 2.767-2.631l.229-15.534c.016-1.049-.181-1.802-.589-2.257s-1.119-.691-2.131-.707zm42.537 30.6l-.674 1.502c-.638.137-1.341.196-2.11.178-3.038-.072-6.067-1.383-9.086-3.934l-3.864-3.298c-1.33-1.119-2.42-1.816-3.268-2.089-1.891-.601-3.465-1.448-4.723-2.541-2.815-2.419-4.18-5.545-4.096-9.375.084-3.805 1.513-6.905 4.288-9.3s6.23-3.543 10.366-3.445c2.416.057 4.607.583 6.575 1.579 2.161 1.088 3.817 2.633 4.97 4.634 1.093 1.898 1.614 4.035 1.561 6.412-.07 3.186-1.132 5.925-3.184 8.216-1.952 2.18-4.357 3.559-7.214 4.136.902.603 2.076 1.637 3.52 3.1 1.504 1.528 2.659 2.58 3.464 3.156.937.667 2.095 1.024 3.474 1.069zm-22.182-21.169c-.112 5.082 1.217 8.751 3.987 11.005 1.319 1.081 2.857 1.643 4.614 1.684 3.416.081 5.754-1.597 7.014-5.033.559-1.543.858-3.199.897-4.969.066-2.996-.558-5.674-1.874-8.032-1.515-2.692-3.713-4.072-6.592-4.141-3.233-.077-5.554 1.399-6.964 4.427-.679 1.464-1.04 3.15-1.082 5.059zm43.555-7.827l.05-1.517 9.714.347-.05 1.517-.274-.01c-1.207-.043-2.081.147-2.62.571-.577.473-.886 1.316-.927 2.529l-.321 9.669c-.114 3.438-1.133 5.995-3.057 7.673-1.849 1.617-4.45 2.366-7.804 2.246-3.183-.114-5.71-.862-7.581-2.245-2.205-1.622-3.256-3.995-3.152-7.116l.385-11.583c.034-1.024-.132-1.726-.498-2.106s-1.043-.588-2.031-.623l-.64-.023.05-1.517 11.727.419-.05 1.517-.64-.023c-1.768-.063-2.682.784-2.74 2.54l-.385 11.583c-.096 2.882.981 4.831 3.231 5.847.998.453 2.113.702 3.345.746 2.256.081 4.051-.45 5.383-1.592 1.383-1.203 2.113-2.961 2.19-5.274l.314-9.441c.061-1.845-.314-3.054-1.125-3.627-.442-.294-1.047-.455-1.816-.482zm30.358 5.467c-.105-1.195-.264-2.013-.476-2.454-.358-.726-1.007-1.112-1.945-1.157l-8.21-.396-.392 8.735 6.071.293c1.012.049 1.743-.125 2.195-.521s.7-1.112.747-2.148l1.499.072-.347 7.731-1.499-.072c.062-1.39-.302-2.255-1.093-2.597-.48-.2-1.201-.324-2.164-.37l-5.504-.266-.314 6.992c-.032.707.014 1.191.136 1.45.166.388.553.596 1.163.626l6.254.302c1.365.066 2.379-.202 3.041-.803.598-.528 1.082-1.511 1.452-2.949l1.408.068-.713 6.08-22.546-1.088.068-1.516 1.536.074c1.95.094 2.967-.787 3.051-2.644l.696-15.481c.052-1.15-.188-1.94-.718-2.37-.448-.363-1.257-.573-2.427-.63l-.366-.018.068-1.516 20.626.995.131 5.646z"/></g><defs ><path id="B" d="m 651.02634,259.98685 a 11.546053,6.3289475 0 1 1 -23.09211,0 11.546053,6.3289475 0 1 1 23.09211,0 z"/><path id="C" d="m 655.64473,348.84869 a 8.5526314,6.4144735 0 1 1 -17.10526,0 8.5526314,6.4144735 0 1 1 17.10526,0 z"/></defs></svg>