<svg height="660" viewBox="-300 -300 600 660" width="600" xmlns="http://www.w3.org/2000/svg" xmlns:xlink="http://www.w3.org/1999/xlink"><radialGradient id="a" cx="-80" cy="-80" gradientTransform="matrix(1 0 0 .99983257 0 -.049961)" gradientUnits="userSpaceOnUse" r="405"><stop offset="0" stop-color="#fff" stop-opacity=".31"/><stop offset=".19" stop-color="#fff" stop-opacity=".25"/><stop offset=".6" stop-color="#6b6b6b" stop-opacity=".125"/><stop offset="1" stop-opacity=".125"/></radialGradient><path d="m-298.5-298.50003h597v258.5433c0 286.24794-298.5 398.45673-298.5 398.45673s-298.5-112.20879-298.5-398.45673z" fill="#2b5df2"/><path d="m241.5 1.5v223.88867h-240v34.61524c0 29.25961 3.1228368 56.69655 8.724609 82.38476h231.275391v287.47071c34.44114 19.48797 58.5 28.53906 58.5 28.53906s24.05886-9.05109 58.5-28.53906v-287.47071h231.27539c5.60177-25.68821 8.72461-53.12515 8.72461-82.38476v-34.61524h-240v-223.88867z" fill="#fff" stroke="#000" stroke-linecap="round" stroke-linejoin="round" stroke-width="3" transform="translate(-300 -300)"/><g id="b" stroke-width="1.019845" transform="matrix(.9805342 0 0 .98054737 391.41322 -304.64486)"><path d="m-623.02377 37.10577c-8.60758 3.07307-17.28087 3.04452-22.42977 1.77126-3.33713-1.46316-3.71239-1.00284-7.10529-2.74303l4.81042 4.80435c-1.93611 1.14097-1.3385 2.0828-4.76023 4.12129 2.85593-.75326 5.87969-1.31459 8.24291-2.63132 7.34857.32766 14.75648.34668 23.23618-2.73186" style="fill:#fff;fill-rule:evenodd;stroke:#000;stroke-width:2.039691;stroke-linecap:round;stroke-linejoin:round"/><path d="m-612.23472 24.89008c-6.17832 2.99251-11.06949 7.34523-11.06949 9.52159.24358 5.15352 3.3417 7.54672 7.49218 9.79363 14.32548 3.57385 38.5878.27204 49.39986-1.36023 9.01006-1.36022 12.35664-.81613 14.93094 2.44841 5.1486 6.25703-.25743 11.69794-14.93094 14.96248-18.0201 4.08068-25.48557 7.61727-32.43618 15.50658-16.73296 19.04317 2.83173 40.53474 39.38679 43.52724 21.3667 1.90431 35.26792 6.25703 31.92133 9.79363-1.28715 1.36022-15.4458 3.53658-31.6639 4.89681-35.26791 2.99249-50.97114 8.16136-64.35751 21.76362-7.46547 7.61726-10.03977 12.24203-10.03977 18.49907 0 8.70545 0 8.70545-13.64378 8.70545-7.20805 0-17.24782-1.08818-21.88156-2.72045-7.20805-1.90432-8.23776-1.90432-5.66346 1.36022 5.1486 6.52908 19.82211 12.24204 31.92132 12.24204 9.26748 0 14.41608 1.90431 22.65385 8.16136 16.47552 12.78611 35.26791 17.68293 66.41694 17.41089 40.93139-.27205 64.35752-11.69795 64.35752-31.01316 0-14.4184-15.4458-22.85179-47.62456-25.8443-16.21809-1.63227-48.13943 1.08818-62.04065 5.44091-2.5743.81614.25744-1.08818 6.43576-4.35273 7.46546-3.80863 19.82211-6.52908 36.55507-8.16135 37.06993-3.26454 53.80288-11.96999 53.80288-28.2927 0-15.77863-16.47553-24.75611-51.74345-28.29271-34.75305-3.26454-37.32735-9.79362-7.98033-19.3152 20.85183-6.52909 30.77246-20.79902 31.40647-29.65294.10953-1.52962-1.22082-15.74939-33.51889-23.59339-16.27553-9.14921-38.81896-6.05953-48.08644-1.43477zm92.93226 158.05828c4.89117 1.90431 6.69318 3.80863 5.1486 5.4409-4.37632 4.62477-32.69362 8.70545-49.94144 7.34522-19.04982-1.90431-39.64422-8.4334-33.4659-11.15385 17.24781-7.07317 62.55549-7.88932 78.25874-1.63227z" fill="#fff" stroke="#000" stroke-linecap="round" stroke-linejoin="round" stroke-width="2.039691"/><g fill="#fff" stroke="#000" stroke-linecap="round" stroke-linejoin="round" stroke-width="1.774049" transform="matrix(1.1192221 0 0 1.181085 -395.59721 -217.50785)"><ellipse cx="235.10832" cy="106.21926" rx="3.094765" ry="1.688053" style="fill:#fff;fill-rule:evenodd;stroke:#000;stroke-width:1.288846;stroke-linecap:round;stroke-linejoin:round" transform="matrix(1.700355 .1075663 -.1328272 1.1058643 -568.05048 65.536246)"/><path d="m-183.29999 206.0441c2.91555-2.1611 7.30071-.35333 12.64131 3.02055" fill="none" stroke="#000" stroke-linecap="round" stroke-linejoin="round" stroke-width="1.774049"/></g></g><use height="100%" transform="translate(360)" width="100%" xlink:href="#b"/><use id="c" height="100%" stroke-width="1.033461" transform="matrix(.81080998 0 0 .81093496 5.945722 279.26774)" width="100%" xlink:href="#b"/><use height="100%" transform="translate(280 .000001)" width="100%" xlink:href="#c"/><path d="m-298.5-298.5h597v258.5c0 286.2-298.5 398.39-298.5 398.39s-298.5-112.19-298.5-398.39z" fill="url(#a)" height="100%" stroke-width=".999916" transform="matrix(1 0 0 1.0001675 0 .04997)" width="100%"/><path d="m-298.5-298.50001h597v258.502973c0 286.203287-298.5 398.394577-298.5 398.394577s-298.5-112.19129-298.5-398.394577z" fill="none" stroke="#000" stroke-width="3"/></svg>