<?xml version="1.0" encoding="utf-8"?>
<!-- Generator: Adobe Illustrator 25.0.0, SVG Export Plug-In . SVG Version: 6.00 Build 0)  -->
<svg version="1.1" id="Foreground" xmlns="http://www.w3.org/2000/svg" xmlns:xlink="http://www.w3.org/1999/xlink" x="0px" y="0px"
	 viewBox="0 0 572 635" style="enable-background:new 0 0 572 635;" xml:space="preserve">
<style type="text/css">
	.st0{fill:#FF0000;stroke:#000000;stroke-miterlimit:3.8637;}
	.st1{fill:#0C419A;stroke:#000000;stroke-miterlimit:3.8637;}
	.st2{fill:#FFE600;stroke:#000000;stroke-miterlimit:3.8637;}
	.st3{fill:#008837;stroke:#000000;stroke-miterlimit:3.8637;}
	.st4{fill:#FFFFFF;stroke:#000000;stroke-miterlimit:3.8637;}
	.st5{stroke:#000000;stroke-miterlimit:3.8637;}
	.st6{fill:#CCA208;stroke:#000000;stroke-miterlimit:3.8637;}
	.st7{fill:#008837;stroke:#000000;}
	.st8{fill:#FFFFFF;}
	.st9{fill:#CCA208;stroke:#000000;}
	.st10{fill:#0C419A;stroke:#000000;}
	.st11{fill:#FF0000;}
	.st12{fill:none;stroke:#000000;}
	.st13{fill:#FFE600;stroke:#000000;}
	.st14{fill:#FFE600;}
</style>
<path class="st0" d="M514,124c18.16,29.91,11.57,27.09,12,41.58c0.5,17,26.5,39.5,27.5,54.5S550.67,326,564,362.67
	c13.33,36.67-25.33,102-27,127.33c-74-66.5-42.81-124.58-41.67-175.33c-4-58-10.33-73.17-36.83-105.67L514,124z"/>
<path class="st0" d="M59.1,124c-18.16,29.91-11.57,27.09-12,41.58c-0.5,17-26.5,39.5-27.5,54.5S22.44,326,9.1,362.67
	s25.33,102,27,127.33c74-66.5,42.81-124.58,41.67-175.33c4-58,10.33-73.17,36.83-105.67L59.1,124z"/>
<path class="st1" d="M286.55,372.91V594c-15.95-45-154.95-5.5-151.95-109.5c-57,41-89.18-13.58-69.5-60
	c9.12-21.51,36-32.5,52.5-51.59H286.55z"/>
<path class="st2" d="M286.55,372.91V594c15.95-45,154.95-5.5,151.95-109.5c57,41,89.18-13.58,69.5-60
	c-9.12-21.51-36-32.5-52.5-51.59H286.55z"/>
<path class="st0" d="M455.5,372.91H286.55V186.5c0,0,1.32,9.5,11.95,12.5C321,180.5,404,235.5,428,235.5
	c12.77-0.14,24.04-24.21,27-29.5c9.5,18.5,4.06,37.1,14,54c11.12,18.9,28.5,26.5,29.25,54.25C473,299.5,423.5,295.5,455.5,372.91z"
	/>
<path class="st2" d="M117.6,372.91h168.95V186.5c0,0-1.32,9.5-11.95,12.5c-22.5-18.5-105.5,36.5-129.5,36.5
	c-12.76-0.14-24.03-24.21-27-29.5c-9.5,18.5-4.06,37.1-14,54c-11.11,18.9-28.5,26.5-29.25,54.25
	C100.1,299.5,149.6,295.5,117.6,372.91z"/>
<g id="dove">
	<path class="st3" d="M151.25,457c0,0,1.9,3.2,3.88,2.88c2.25-0.38,6-1.38,9.88,0.88c-0.75,1.62-3.38,4.38-7.75,3
		c1.5,2.88,2.88,5.75,9.75,6.5c-0.5,2.12-3.88,1.12-5.5,3c3.88,0.62,7,0.62,7.75,5.5c-1.12,0.88-3.62,0.12-7-2.25
		c2,3.88,5.62,5.5,4,12.62c-3.12-5.5-4-2-4.75-8.12c-1,4.5,2.62,9-3.5,14.5c-4.38-9.62,3.75-9.62,1.75-17.5
		c-0.12,1.25-3,7.12-6,8.12c-0.5-7.75,8.25-8.62,4.75-16.12c-0.38,2-1.12,4.88-4.88,7c-1.5-5,6-8.38,0.62-12.5
		c0.62,1.88-0.5,5.25-2.88,7.12c-2.25-3.75,0.93-8.21,1.12-9.38c0.25-1.5-0.75-2.38-2.5-4.5C150.63,457.25,151.25,457,151.25,457z"
		/>
	<path class="st4" d="M220.75,472.5c0,0,33,0.75,31.75,4.25c-0.98,2.76-16.5-1-34-1.5c16,1.5,33,1.25,31.25,4.75
		c-1.5,3-32-3.5-32-3.5S250,480.25,247,483c-2.91,2.67-29.5-4.75-29.5-4.75s28.5,5.5,25.75,7.75c-2.88,2.35-26-6-26-6
		s24.5,6.25,21.25,8c-3.76,2.03-21.75-6.5-21.75-6.5s21,6.75,16.75,8.5c-3.83,1.58-17.5-7.25-17.5-7.25s16.5,7.5,12,9
		c-2.55,0.85-13.75-7.25-13.75-7.25c1.75,2,9.25,3.5,5.75,5.75c-2.27,1.46-10.75-1.25-10.75-1.25L220.75,472.5z"/>
	<path class="st4" d="M183.75,469.5c-0.75-12.25-5.75-15-4.75-20.25s8.64-11.99,27-17.5c5-1.5,12.3-5.17,13-2
		C219.5,432,189,478,189,478L183.75,469.5z"/>
	<path class="st4" d="M161.75,469.5L166,466c0,0,1.49-4.14,5.25-4c6.75,0.25,12.5,3.75,16.5,8.75c-0.75-12.25-5.75-15-4.75-20.25
		s8.25-13.5,27-17.5c18.17-3.88,18.8-6.67,19.5-3.5c0.5,2.25-30.75,14.25-30.75,14.25l8.5,28.5c8.75,1,19.25-2.75,19.25-2.75
		l-7,7.25c0,0,0,5.5-1.75,6.75s-2.75,4.75-7.75,5.75c4,0.5,7.75,2.25,7.75,2.25s-2,2.5-8,1.25c-2.94-0.61-15.79,6.25-22,3
		c-10.5-5.5-11-16.75-19-23.75C165,470,161.75,469.5,161.75,469.5z"/>
	<path class="st4" d="M191.5,472.5c-0.75-12.25-5.75-15-4.75-20.25s8.25-13.5,27-17.5c18.17-3.88,24.05-5.92,24.75-2.75
		c0.5,2.25-14.75,3-29.75,9.25c16.75-7.5,23.25-6,23.25-4s-21.25,7.25-21.25,7.25s17.75-4.5,17.5-2.25s-20,7.25-20,7.25
		s16.5-5.25,16.25-2.5c-0.29,3.24-17.75,6.75-17.75,6.75s13.29-4.7,12.75-1.75c-0.5,2.75-12,6.5-12,6.5s9.5-4.75,7-0.5
		c-1.3,2.22-8,3.5-8,3.5s3.75,0.75,4,2s-3,3.5-3,3.5s3.5-1,1.5,3s-4,5.75-4,5.75L191.5,472.5z"/>
	<ellipse class="st5" cx="171.5" cy="466.75" rx="2" ry="1"/>
</g>
<g id="swords">
	<polygon class="st4" points="419.19,499.57 412,487.13 403.95,494.57 400.27,489.32 408.67,484.24 351.17,400.56 350.47,395.83 
		354.68,398.11 413.65,480.76 421.29,474.6 424.97,479.85 415.23,484.88 424.45,495.89 	"/>
	<polygon class="st4" points="342.96,495.77 352.18,484.77 342.43,479.74 346.11,474.48 353.76,480.65 412.73,397.99 416.93,395.71 
		416.23,400.45 358.73,484.13 367.14,489.21 363.46,494.46 355.4,487.02 348.21,499.45 	"/>
	<polygon class="st4" points="380.94,507.56 382.18,493.25 371.31,494.73 371.31,488.31 381.11,488.97 382.01,387.45 384.15,383.17 
		386.29,387.45 387.18,488.97 396.98,488.31 396.98,494.73 386.11,493.25 387.36,507.56 	"/>
</g>
<g id="stars">
	<polygon class="st4" points="187.49,291.42 194.59,279.11 187.49,266.7 201.76,266.67 208.83,254.42 215.93,266.73 230.21,266.75 
		223.08,279.05 230.21,291.36 215.92,291.43 208.83,303.7 201.69,291.32 	"/>
	<polygon class="st4" points="152.97,339.34 160.07,327.03 152.97,314.62 167.25,314.59 174.31,302.34 181.41,314.66 195.69,314.68 
		188.57,326.97 195.69,339.28 181.41,339.36 174.31,351.62 167.17,339.24 	"/>
	<polygon class="st4" points="119.49,291.42 126.59,279.11 119.49,266.7 133.76,266.67 140.83,254.42 147.93,266.73 162.21,266.75 
		155.08,279.05 162.21,291.36 147.92,291.43 140.83,303.7 133.69,291.32 	"/>
</g>
<path class="st6" d="M480.5,312c-5,3-8.5,16.37,5.25,16.75c9,0.25,12.66-8.75,12.5-14.5C498,305.5,490.5,299.18,473,299.5
	c-27,0.5-38.51,22.96-37.75,43.5c0.5,13.5,11.55,36.72,24.75,51.5c16.75,18.75,25.99,31.09,27,56c4.5-4,11.75-9.75,10.75-19
	c3,3.5,11.2,17,10.75,29c-0.75,20-14,31.25-31,31.5c-30.25,0.44-32-11-29.5-17.25c4,7.25,15.5,6.01,15.5-3
	c0-7.5-5.23-12.5-12.25-12.5c-9.5,0-18.19,11.05-12.75,25.25c7,18.25,25.25,19.76,37.25,20.25c18.5,0.75,46.25-15.25,49.5-48.25
	c1.67-16.95-1.5-32.25-14.75-46c9.25,1,29.62-10.25,29.25-28c-0.25-12-8-19.5-15.75-19.25c-18.53,0.6-14.25,24,2,20.25
	c-4,7.5-15.5,14.5-20.5,14.5s-15.25-2.25-22.5-7.5c6-3.75,13.75-12.5,14.25-15.25c-10.5,2-21.75,0.5-30.25-3.25
	c7.25-3,14.5-11.5,14.5-11.5c-15.5,0.25-27.19-11.56-28.5-25C450,304.75,480.5,312,480.5,312z"/>
<path class="st6" d="M92.6,312c5,3,8.5,16.37-5.25,16.75c-9,0.25-12.66-8.75-12.5-14.5c0.25-8.75,7.75-15.07,25.25-14.75
	c27,0.5,38.51,22.96,37.75,43.5c-0.5,13.5-11.55,36.72-24.75,51.5c-16.75,18.75-25.99,31.09-27,56c-4.5-4-11.75-9.75-10.75-19
	c-3,3.5-11.2,17-10.75,29c0.75,20,14,31.25,31,31.5c30.25,0.44,32-11,29.5-17.25c-4,7.25-15.5,6.01-15.5-3
	c0-7.5,5.23-12.5,12.25-12.5c9.5,0,18.2,11.05,12.75,25.25c-7,18.25-25.25,19.76-37.25,20.25c-18.5,0.75-46.25-15.25-49.5-48.25
	c-1.67-16.95,1.5-32.25,14.75-46c-9.25,1-29.62-10.25-29.25-28c0.25-12,8-19.5,15.75-19.25c18.53,0.6,14.25,24-2,20.25
	c4,7.5,15.5,14.5,20.5,14.5s15.25-2.25,22.5-7.5c-6-3.75-13.75-12.5-14.25-15.25c10.5,2,21.75,0.5,30.25-3.25
	c-7.25-3-14.5-11.5-14.5-11.5c15.5,0.25,27.19-11.56,28.5-25C123.1,304.75,92.6,312,92.6,312z"/>
<path class="st6" d="M438.5,484.5C435.75,474.26,426,465,426,465c5.25,19.25,20.25,30-5.75,66.5c3-16.75-13.75-29.75-26.5-19
	C377.67,526.06,400,541.75,409,526c2.25,15.75-32.5,28.5-53,32s-69.45,3.23-69.45,36c0,22.5,12.7,25.5,23.45,23
	c26.12-6.07,2.25-43.5-5.5-13c-6.24,0.69-9.48-8.34-6.25-15.75c2.6-5.95,9.34-10.25,22.25-12.25
	C352.02,571.11,460.5,566.25,438.5,484.5z"/>
<path class="st6" d="M134.6,484.5c2.76-10.24,12.5-19.5,12.5-19.5c-5.25,19.25-20.25,30,5.75,66.5c-3-16.75,13.75-29.75,26.5-19
	c16.08,13.56-6.25,29.25-15.25,13.5c-2.25,15.75,32.5,28.5,53,32s69.45,3.23,69.45,36c0,22.5-12.7,25.5-23.45,23
	c-26.12-6.07-2.25-43.5,5.5-13c6.24,0.69,9.49-8.34,6.25-15.75c-2.6-5.95-9.34-10.25-22.25-12.25
	C221.09,571.11,112.6,566.25,134.6,484.5z"/>
<g id="banner">
	<path class="st4" d="M383,598c9.49,18.03,87.5-2.25,105.25-110.25c-10.5-0.25-29.25-1-29.25-1c-6.25,72.25-47,81-55.75,83.25
		C391.3,573.07,380.5,593.25,383,598z"/>
	<path class="st4" d="M190.1,598c-9.49,18.03-87.5-2.25-105.25-110.25c10.5-0.25,29.25-1,29.25-1c6.25,72.25,47,81,55.75,83.25
		C181.81,573.07,192.6,593.25,190.1,598z"/>
	<path class="st4" d="M398.5,594.25c-3.28,5.29-7.25-1.25-15.5,3.75c-3.5-9.75,0.75-16.5,6.5-21S402.5,587.8,398.5,594.25z"/>
	<path class="st4" d="M174.6,594.25c3.28,5.29,7.25-1.25,15.5,3.75c3.5-9.75-0.75-16.5-6.5-21S170.6,587.8,174.6,594.25z"/>
	<path class="st4" d="M354.75,538.75c8.25,10.75,46.25,15.5,52,26c-0.25,7.5-8.25,29.5-8.25,29.5c-0.25-12-37.25-12.25-61-33
		c-3.99-3.49-27.75-18.25-50.95-18.25s-46.96,14.76-50.95,18.25c-23.75,20.75-60.75,21-61,33c0,0-8-22-8.25-29.5
		c5.75-10.5,43.75-15.25,52-26c4.49-5.85,38.25-24.75,68.2-24.5S350.26,532.89,354.75,538.75z"/>
	<g id="text">
		<path class="st5" d="M465.72,526.3l-6.7-0.24l5.09,4.43L465.72,526.3z M456.68,526.25l0.78-2.05l15.26,0.28l-0.76,1.99l-4.53-0.18
			l-2.03,5.3l3.46,2.99l-0.71,1.86L456.68,526.25z"/>
		<path class="st5" d="M452.09,530.66c0,0,3.21,6.27,5.03,4.87c1.81-1.39,0.06-3.36-1.16-2.79
			C454.75,533.31,452.09,530.66,452.09,530.66z"/>
		
			<rect x="455.67" y="536.15" transform="matrix(0.4541 -0.8909 0.8909 0.4541 -234.797 703.4206)" class="st5" width="1.96" height="14.35"/>
		<polygon class="st5" points="442.98,551.98 448.4,543.63 449.88,544.59 445.52,551.3 449.17,553.67 453,547.77 454.44,548.7 
			450.6,554.61 456.07,558.16 455.02,559.79 		"/>
		<path class="st5" d="M441.97,556.58c1.58,0.09,3.12,0.77,4.65,2.04c1.64,1.37,2.65,2.93,3.04,4.68c0.46,2.04-0.08,3.96-1.59,5.79
			c-1.42,1.69-3.08,2.55-5.02,2.58c-1.8-0.04-3.52-0.76-5.17-2.13c-1.48-1.24-2.44-2.68-2.89-4.31c-0.56-2.08-0.06-4.04,1.49-5.91
			C438.11,557.38,439.94,556.47,441.97,556.58z M445.37,560.17c-1.29-1.08-2.61-1.62-3.97-1.6c-1.35,0.01-2.51,0.61-3.5,1.78
			c-0.95,1.14-1.34,2.39-1.16,3.77c0.18,1.37,1.02,2.69,2.54,3.97c1.21,1.02,2.49,1.57,3.85,1.67c1.35,0.08,2.59-0.57,3.77-1.95
			c1.1-1.31,1.43-2.64,0.98-4.02C447.42,562.4,446.59,561.2,445.37,560.17z"/>
		<polygon class="st5" points="431.76,565.12 432.86,566.43 429.15,569.54 437.28,579.22 435.77,580.49 427.64,570.81 
			423.94,573.91 422.84,572.6 		"/>
		<path class="st5" d="M386.22,560.91l-3.18,8.28c-0.37,0.97-0.5,1.84-0.39,2.64c0.17,1.17,0.89,2.01,2.18,2.51
			c1.53,0.59,2.77,0.47,3.74-0.37c0.51-0.45,0.95-1.16,1.33-2.14l3.18-8.28l1.84,0.71l-2.89,7.52c-0.63,1.64-1.34,2.82-2.12,3.55
			c-1.43,1.3-3.27,1.52-5.54,0.65c-2.26-0.87-3.48-2.26-3.67-4.19c-0.1-1.05,0.17-2.4,0.79-4.06l2.89-7.52L386.22,560.91z"/>
		<polygon class="st5" points="371.1,555.09 372.86,555.8 370.24,562.28 379.34,558.42 381.83,559.42 374.13,562.55 376.61,572.79 
			374.27,571.84 372.31,563.29 369.36,564.46 367.49,569.1 365.73,568.39 		"/>
		<path class="st5" d="M367.55,556.25c0.16,1.58-0.27,3.21-1.29,4.91c-1.1,1.83-2.48,3.08-4.15,3.74c-1.94,0.77-3.93,0.54-5.97-0.67
			c-1.89-1.14-3-2.65-3.34-4.56c-0.24-1.78,0.2-3.59,1.3-5.44c1-1.66,2.26-2.83,3.8-3.52c1.96-0.88,3.98-0.69,6.07,0.55
			C366.15,552.56,367.34,554.22,367.55,556.25z M364.54,560.16c0.87-1.44,1.19-2.83,0.96-4.17c-0.23-1.33-0.99-2.39-2.3-3.18
			c-1.27-0.76-2.57-0.95-3.9-0.56c-1.33,0.39-2.5,1.43-3.52,3.14c-0.82,1.36-1.16,2.71-1.04,4.07c0.13,1.34,0.96,2.47,2.52,3.41
			c1.46,0.88,2.83,1,4.13,0.34C362.66,562.53,363.71,561.52,364.54,560.16z"/>
		<polygon class="st5" points="345.54,540.07 347.22,541.08 344.17,546.16 350.57,550.01 353.62,544.93 355.3,545.94 347.91,558.23 
			346.23,557.22 349.68,551.47 343.29,547.63 339.83,553.38 338.15,552.37 		"/>
		<path class="st5" d="M331.04,535.01c0.38,1.54,0.17,3.21-0.59,5.04c-0.84,1.97-2.02,3.4-3.59,4.28c-1.82,1.03-3.81,1.09-6,0.17
			c-2.03-0.86-3.34-2.2-3.94-4.05c-0.48-1.73-0.3-3.59,0.53-5.57c0.76-1.78,1.85-3.12,3.28-4.02c1.82-1.15,3.85-1.24,6.09-0.3
			C329.14,531.55,330.55,533.03,331.04,535.01z M328.6,539.3c0.66-1.55,0.78-2.97,0.37-4.27c-0.41-1.29-1.31-2.22-2.72-2.83
			c-1.37-0.58-2.68-0.59-3.94-0.01c-1.26,0.57-2.27,1.76-3.05,3.59c-0.62,1.46-0.77,2.84-0.47,4.17c0.31,1.31,1.3,2.31,2.97,3.03
			c1.57,0.67,2.94,0.59,4.13-0.24C327.07,541.91,327.97,540.77,328.6,539.3z"/>
		<polygon class="st5" points="305.54,523.88 307.36,524.4 305.43,531.12 314.08,526.32 316.66,527.06 309.33,530.98 312.87,540.9 
			310.43,540.2 307.59,531.9 304.78,533.38 303.4,538.19 301.58,537.66 		"/>
		<path class="st5" d="M285.92,530.17l-2.4-6.26l-2.09,6.42L285.92,530.17z M282.43,521.82l2.2-0.08l5.7,14.15l-2.13,0.07l-1.6-4.24
			l-5.67,0.2l-1.4,4.35l-1.99,0.07L282.43,521.82z"/>
		<path class="st5" d="M268.62,524.05c1.56,0.38,2.72,1.44,3.49,3.19l-1.87,0.47c-0.48-0.96-1.13-1.58-1.96-1.87
			c-0.83-0.29-1.78-0.29-2.88-0.03c-1.29,0.32-2.25,1.07-2.9,2.26c-0.63,1.18-0.71,2.73-0.24,4.65c0.41,1.65,1.11,2.9,2.1,3.78
			c0.98,0.85,2.29,1.07,3.94,0.67c1.25-0.31,2.19-0.93,2.85-1.87c0.64-0.93,0.77-2.21,0.39-3.86l-4.36,1.09l-0.39-1.56l6.11-1.52
			l1.86,7.45l-1.21,0.3l-0.9-1.68c-0.46,0.86-0.9,1.48-1.33,1.88c-0.71,0.67-1.7,1.16-2.98,1.49c-1.65,0.41-3.19,0.23-4.65-0.54
			c-1.62-1.02-2.73-2.69-3.32-5.03c-0.58-2.33-0.42-4.34,0.51-6.03c0.87-1.61,2.26-2.65,4.17-3.13
			C266.34,523.81,267.53,523.78,268.62,524.05z"/>
		<polygon class="st5" points="242.83,532.28 244.96,531.42 256.03,539.48 251.68,528.7 253.39,528.01 258.76,541.31 256.74,542.13 
			245.57,534.12 249.92,544.88 248.2,545.58 		"/>
		<path class="st5" d="M237.94,536.87c1.44,0.65,2.64,1.84,3.61,3.57c1.04,1.87,1.43,3.69,1.16,5.46c-0.31,2.07-1.49,3.67-3.56,4.83
			c-1.93,1.07-3.79,1.27-5.61,0.61c-1.66-0.68-3.01-1.97-4.06-3.84c-0.94-1.69-1.32-3.38-1.15-5.06c0.22-2.14,1.39-3.8,3.51-4.98
			C234.05,536.23,236.09,536.03,237.94,536.87z M239.82,541.43c-0.81-1.47-1.86-2.44-3.14-2.92c-1.27-0.47-2.56-0.33-3.91,0.4
			c-1.3,0.72-2.11,1.75-2.43,3.1c-0.33,1.34-0.01,2.88,0.95,4.62c0.77,1.38,1.77,2.36,3,2.94c1.23,0.56,2.62,0.4,4.22-0.47
			c1.5-0.83,2.28-1.95,2.35-3.4C240.94,544.25,240.59,542.84,239.82,541.43z"/>
		<polygon class="st5" points="223.55,542.58 224.46,544.03 220.36,546.59 227.06,557.3 225.38,558.35 218.69,547.63 214.59,550.2 
			213.68,548.75 		"/>
		<path class="st5" d="M206.14,555.46c1.35,0.82,2.4,2.15,3.15,3.98c0.8,1.98,0.97,3.83,0.49,5.56c-0.56,2.02-1.93,3.46-4.12,4.36
			c-2.05,0.83-3.92,0.8-5.65-0.08c-1.57-0.88-2.75-2.32-3.56-4.31c-0.72-1.79-0.9-3.51-0.53-5.16c0.48-2.1,1.84-3.6,4.09-4.52
			C202.36,554.35,204.4,554.4,206.14,555.46z M207.45,560.21c-0.63-1.56-1.54-2.65-2.76-3.28c-1.2-0.62-2.5-0.64-3.93-0.08
			c-1.38,0.56-2.31,1.48-2.79,2.78c-0.49,1.29-0.36,2.85,0.38,4.7c0.59,1.47,1.46,2.56,2.62,3.28c1.15,0.71,2.55,0.72,4.24,0.05
			c1.58-0.64,2.5-1.66,2.75-3.09C208.22,563.15,208.05,561.7,207.45,560.21z"/>
		<path class="st5" d="M178.08,564.15l2.6-1l8.19,9.85l-0.53-12.79l2.57-0.99l5.14,13.39l-1.72,0.66l-3.04-7.9
			c-0.1-0.27-0.28-0.72-0.5-1.37c-0.23-0.63-0.49-1.31-0.76-2.04l0.52,12.76l-1.8,0.69l-8.18-9.82l0.16,0.41
			c0.13,0.33,0.32,0.82,0.6,1.48c0.27,0.67,0.46,1.16,0.59,1.48l3.03,7.9l-1.73,0.67L178.08,564.15z"/>
		<path class="st5" d="M160.47,586.61l0.59-6.68l-4.69,4.85L160.47,586.61z M160.99,577.57l2.01,0.89l-1.08,15.22l-1.95-0.87
			l0.42-4.52l-5.18-2.31l-3.17,3.29l-1.82-0.81L160.99,577.57z"/>
		<path class="st5" d="M148.72,569.91l-5.21,7.17c-0.61,0.84-0.96,1.65-1.05,2.45c-0.14,1.18,0.34,2.17,1.45,2.99
			c1.33,0.96,2.56,1.17,3.71,0.61c0.61-0.31,1.22-0.88,1.84-1.72l5.21-7.17l1.6,1.16l-4.73,6.52c-1.03,1.42-2.02,2.38-2.97,2.88
			c-1.72,0.89-3.55,0.62-5.52-0.8c-1.96-1.42-2.78-3.08-2.46-5c0.18-1.04,0.79-2.28,1.82-3.72l4.73-6.52L148.72,569.91z"/>
		<polygon class="st5" points="146.35,568.22 145.17,569.45 141.69,566.09 132.91,575.18 131.49,573.81 140.27,564.72 
			136.79,561.36 137.98,560.13 		"/>
		<path class="st5" d="M135.2,560.06c-0.39,1.53-1.35,2.92-2.89,4.18c-1.66,1.35-3.38,2.05-5.18,2.09
			c-2.09,0.06-3.88-0.83-5.38-2.67c-1.39-1.71-1.92-3.51-1.58-5.42c0.39-1.76,1.42-3.31,3.08-4.67c1.5-1.22,3.09-1.89,4.78-2.01
			c2.15-0.16,3.98,0.71,5.52,2.59C135.15,556.12,135.7,558.09,135.2,560.06z M131.03,562.71c1.31-1.06,2.08-2.25,2.33-3.59
			c0.24-1.33-0.12-2.58-1.08-3.78c-0.94-1.15-2.09-1.77-3.48-1.86c-1.38-0.09-2.83,0.49-4.38,1.74c-1.23,1-2.02,2.15-2.37,3.47
			c-0.34,1.3,0.06,2.65,1.2,4.07c1.08,1.33,2.32,1.9,3.76,1.73C128.45,564.3,129.78,563.71,131.03,562.71z"/>
		<path class="st5" d="M130.5,547.25c0,0-6.62-2.39-7-0.12c-0.38,2.25,2.25,2.5,2.75,1.25S130.5,547.25,130.5,547.25z"/>
		<polygon class="st5" points="117.19,527.87 121.78,537.27 120.2,538.04 116.44,530.34 112.53,532.25 116,539.37 114.51,540.1 
			111.04,532.98 106.66,535.11 110.48,542.94 108.95,543.69 104.3,534.16 		"/>
		<path class="st5" d="M111,518.04c-0.94,1.28-2.35,2.2-4.24,2.79c-2.04,0.62-3.9,0.63-5.58,0c-1.96-0.73-3.28-2.22-3.99-4.49
			c-0.64-2.11-0.46-3.98,0.57-5.62c1.02-1.49,2.55-2.54,4.6-3.18c1.85-0.56,3.58-0.59,5.19-0.07c2.05,0.66,3.42,2.15,4.14,4.47
			C112.43,514.37,112.21,516.4,111,518.04z M106.15,518.93c1.61-0.49,2.78-1.31,3.51-2.46c0.72-1.14,0.86-2.44,0.42-3.91
			c-0.43-1.42-1.27-2.43-2.53-3.03c-1.25-0.6-2.81-0.61-4.72-0.03c-1.51,0.46-2.67,1.24-3.5,2.33c-0.8,1.08-0.94,2.48-0.42,4.22
			c0.5,1.63,1.44,2.63,2.84,3.01C103.16,519.44,104.61,519.39,106.15,518.93z"/>
		<polygon class="st5" points="106.6,493.37 106.99,495.23 100.15,496.68 108.45,502.07 109.01,504.69 102.11,500.06 95.01,507.84 
			94.48,505.36 100.48,498.96 97.85,497.17 92.96,498.21 92.57,496.36 		"/>
	</g>
</g>
<g id="tail">
	<path class="st5" d="M286.55,622.8c1.63,0,2.95,1.32,2.95,2.95s-1.32,2.95-2.95,2.95c-1.63,0-2.95-1.32-2.95-2.95
		S284.92,622.8,286.55,622.8z"/>
	<path class="st5" d="M293.25,624c-3-2.5-5-6.75-5-6.75L292,618c-5.2-7.5-5.45-23.5-5.45-23.5s-0.25,16-5.45,23.5l3.75-0.75
		c0,0-2,4.25-5,6.75c3.25-1,6.7-1.5,6.7-1.5S290,623,293.25,624z"/>
</g>
<g id="lou__x02C7_olive">
	<path class="st3" d="M340,18c2.5,18,9.5,24,30.5,32.5C367,33.5,360.5,23,340,18z"/>
	<path class="st3" d="M344.5,43.5c8,20.5,17.36,16.92,34,25.5C373.36,48.42,358.5,51.5,344.5,43.5z"/>
	<path class="st3" d="M355.26,63.56c1.27,21.97,16.06,24.13,29.24,37.44C383.5,69.5,366.1,75.5,355.26,63.56z"/>
	<path class="st3" d="M359.29,85.97C355,116,369.08,117.77,377.5,134.5C384.5,107,365.92,100.67,359.29,85.97z"/>
	<path class="st3" d="M358.21,111.52c-11.88,18.52-3.55,22.47-0.71,40.98C376,131.5,359.97,127.55,358.21,111.52z"/>
	<path class="st3" d="M348.8,132.02c-17.02,13.94-13.28,15.5-16.3,33.98C354,155.5,349.5,148,348.8,132.02z"/>
	<path class="st3" d="M331.55,147.45c-20.5,8-18.46,12.91-27.05,29.55C325.08,171.86,323.55,161.45,331.55,147.45z"/>
	<path class="st3" d="M374,29.5c11.5,11,12.51,25.27,6.5,43C369.9,54.12,372.5,44,374,29.5z"/>
	<path class="st3" d="M396.5,51.5c8.02,13.74-0.83,32.11-11.5,47.5C379.88,78.41,388.5,64,396.5,51.5z"/>
	<path class="st7" d="M402.92,92.5c2.58,34-10.92,30.14-25.42,42C378.25,113.3,393.96,104,402.92,92.5z"/>
	<path class="st3" d="M399.92,133.85C390.5,160.5,373.5,153,357,155.5C368,137.5,388.15,142.43,399.92,133.85z"/>
	<path class="st3" d="M375.62,162.11C348.5,180,348.07,165.63,329.5,168C346,156.5,363,161,375.62,162.11z"/>
	<path class="st7" d="M343.37,176.72c-11.87,8.78-20.36,3.12-38.87,0.28C320.76,163.37,334,173.5,343.37,176.72z"/>
	<path class="st3" d="M363.5,39C432,149.5,333,170.5,293,179.5c-17.29,3.89-27.5,9-27.5,9l-2-4.5c0,0,12.3-3.71,26-7.5
		C322,167.5,426,151,363.5,39z"/>
</g>
<g id="lou__x02C7_olive_2_">
	<path class="st3" d="M233.1,18c-2.5,18-9.5,24-30.5,32.5C206.1,33.5,212.6,23,233.1,18z"/>
	<path class="st3" d="M228.6,43.5c-8,20.5-17.36,16.92-34,25.5C199.74,48.42,214.6,51.5,228.6,43.5z"/>
	<path class="st3" d="M217.84,63.56c-1.27,21.97-16.06,24.13-29.24,37.44C189.6,69.5,207,75.5,217.84,63.56z"/>
	<path class="st3" d="M213.81,85.97c4.29,30.03-9.79,31.81-18.21,48.53C188.6,107,207.18,100.67,213.81,85.97z"/>
	<path class="st3" d="M214.89,111.52c11.88,18.52,3.55,22.47,0.71,40.98C197.1,131.5,213.14,127.55,214.89,111.52z"/>
	<path class="st3" d="M224.3,132.02c17.02,13.94,13.28,15.5,16.3,33.98C219.1,155.5,223.6,148,224.3,132.02z"/>
	<path class="st3" d="M241.55,147.45c20.5,8,18.46,12.91,27.05,29.55C248.02,171.86,249.55,161.45,241.55,147.45z"/>
	<path class="st3" d="M199.1,29.5c-11.5,11-12.51,25.27-6.5,43C203.2,54.12,200.6,44,199.1,29.5z"/>
	<path class="st3" d="M176.6,51.5c-8.02,13.74,0.84,32.11,11.5,47.5C193.23,78.41,184.6,64,176.6,51.5z"/>
	<path class="st7" d="M170.19,92.5c-2.58,34,10.92,30.14,25.42,42C194.85,113.3,179.14,104,170.19,92.5z"/>
	<path class="st3" d="M173.18,133.85C182.6,160.5,199.6,153,216.1,155.5C205.1,137.5,184.96,142.43,173.18,133.85z"/>
	<path class="st3" d="M197.49,162.11c27.12,17.89,27.54,3.52,46.12,5.89C227.1,156.5,210.1,161,197.49,162.11z"/>
	<path class="st7" d="M229.73,176.72c11.87,8.78,20.36,3.12,38.87,0.28C252.35,163.37,239.1,173.5,229.73,176.72z"/>
	<path class="st3" d="M209.6,39c-68.5,110.5,30.5,131.5,70.5,140.5c17.29,3.89,27.5,9,27.5,9l2-4.5c0,0-12.3-3.71-26-7.5
		C251.1,167.5,147.1,151,209.6,39z"/>
</g>
<g>
	<path class="st8" d="M385.29,259.29c18.33,0,27.57,11.09,27.57,11.09l-55.75,2C357.11,272.38,366.97,259.29,385.29,259.29z"/>
	<path class="st9" d="M355.49,316.89c0,0-2.67-0.07-2.67,1.93c0,2,15.62,5.62,32.57,5.59c16.95-0.03,32.91-3.59,32.91-5.59
		c0-2-2.67-1.93-2.67-1.93"/>
	<g id="ermine_1_">
		<path class="st9" d="M352.96,312.19c0,0-0.03,4.63,0.37,5.26c0.4,0.63,9.06,5.06,32.11,5.08c23.06,0.01,31.88-4.45,32.28-5.08
			c0.4-0.63,0.37-5.26,0.37-5.26"/>
		<path d="M387.04,319.5c0,0.76-0.7,1.37-1.57,1.37c-0.87,0-1.57-0.61-1.57-1.37c0-0.76,0.7-1.37,1.57-1.37
			C386.34,318.13,387.04,318.75,387.04,319.5z"/>
		<path d="M400.16,318.82c0,0.76-0.59,1.37-1.31,1.37c-0.73,0-1.31-0.61-1.31-1.37c0-0.76,0.59-1.37,1.31-1.37
			C399.58,317.45,400.16,318.06,400.16,318.82z"/>
		<path d="M410.23,317.34c0,0.75-0.47,1.37-1.06,1.37c-0.58,0-1.05-0.61-1.05-1.37c0-0.76,0.47-1.37,1.05-1.37
			C409.76,315.97,410.23,316.58,410.23,317.34z"/>
		<path d="M416.65,315.68c0,0.76-0.36,1.37-0.8,1.37c-0.44,0-0.8-0.61-0.8-1.37c0-0.76,0.36-1.37,0.8-1.37
			C416.29,314.31,416.65,314.93,416.65,315.68z"/>
		<path d="M370.73,318.82c0,0.76,0.59,1.37,1.31,1.37c0.73,0,1.31-0.61,1.31-1.37c0-0.76-0.59-1.37-1.31-1.37
			C371.32,317.45,370.73,318.06,370.73,318.82z"/>
		<path d="M360.66,317.34c0,0.75,0.47,1.37,1.06,1.37c0.58,0,1.05-0.61,1.05-1.37c0-0.76-0.47-1.37-1.05-1.37
			C361.13,315.97,360.66,316.58,360.66,317.34z"/>
		<path d="M354.24,315.68c0,0.76,0.36,1.37,0.8,1.37c0.44,0,0.8-0.61,0.8-1.37c0-0.76-0.36-1.37-0.8-1.37
			C354.6,314.31,354.24,314.93,354.24,315.68z"/>
	</g>
	<path class="st10" d="M355.88,312.18l-9.26-37.72l9.39-5.39l29.46-0.77l29.46,0.77l9.39,5.39l-9.25,37.72c0,0-12.57,2.97-29.6,3.09
		C368.45,315.4,355.88,312.18,355.88,312.18z"/>
	<path class="st2" d="M352.79,312.19c-0.14-1.07,1-2,1-2s15.74,3.84,31.65,3.67c15.91-0.17,31.65-3.67,31.65-3.67s1.15,0.93,1,2
		c-0.94,0.69-16.57,4.86-32.65,4.8C369.36,316.94,353.73,312.89,352.79,312.19z"/>
	<g>
		<g>
			<polygon class="st11" points="387.45,286.74 387.45,283.09 383.51,283.09 383.51,286.74 379.86,286.74 379.86,290.68 
				383.51,290.68 383.51,295.7 387.45,295.7 387.45,290.79 387.45,290.68 391.1,290.68 391.1,286.74 			"/>
		</g>
		<g>
			<polygon class="st12" points="387.45,286.74 387.45,283.09 383.51,283.09 383.51,286.74 379.86,286.74 379.86,290.68 
				383.51,290.68 383.51,295.7 387.45,295.7 387.45,290.79 387.45,290.68 391.1,290.68 391.1,286.74 			"/>
		</g>
	</g>
	<g>
		<g>
			<polygon class="st11" points="357.1,286.74 357.1,283.09 354.29,283.09 354.29,286.74 352.28,286.74 352.28,290.68 
				354.29,290.68 354.29,295.01 357.1,295.01 357.1,290.79 357.1,290.68 360.3,290.68 360.3,286.74 			"/>
		</g>
		<g>
			<polygon class="st12" points="357.1,286.74 357.1,283.09 354.29,283.09 354.29,286.74 352.28,286.74 352.28,290.68 
				354.29,290.68 354.29,295.01 357.1,295.01 357.1,290.79 357.1,290.68 360.3,290.68 360.3,286.74 			"/>
		</g>
	</g>
	<g>
		<g>
			<polygon class="st11" points="416.67,286.74 416.67,283.09 413.86,283.09 413.86,286.74 410.66,286.74 410.66,290.68 
				413.86,290.68 413.86,290.79 413.86,295.01 416.67,295.01 416.67,290.68 418.68,290.68 418.68,286.74 			"/>
		</g>
		<g>
			<polygon class="st12" points="416.67,286.74 416.67,283.09 413.86,283.09 413.86,286.74 410.66,286.74 410.66,290.68 
				413.86,290.68 413.86,290.79 413.86,295.01 416.67,295.01 416.67,290.68 418.68,290.68 418.68,286.74 			"/>
		</g>
	</g>
	<path class="st13" d="M353.89,310.19l-7.95-33.96c0,0-1.23-2.08,1.69-4c2.93-1.92,28.25-15.02,37.84-15.02
		c9.59,0,34.91,13.09,37.84,15.02c2.93,1.92,1.69,4,1.69,4l-7.95,33.96c0,0-8.6,4.52-31.62,4.52
		C362.42,314.71,353.89,310.19,353.89,310.19z M412.23,277.93c0.77-2.08,0-3.08-2.77-7.39c-2.77-4.31-19.02-9.24-22.41-8.85
		c0,2.54,1.08,12.32,2.23,15.32c1.16,3,8.93,10.06,12.4,10.93C405.15,286.78,411.46,280.01,412.23,277.93z M369.28,287.94
		c3.47-0.87,11.24-7.93,12.4-10.93c1.16-3,2.23-12.78,2.23-15.32c-3.39-0.39-19.63,4.54-22.41,8.85c-2.77,4.31-3.54,5.31-2.77,7.39
		C359.5,280.01,365.81,286.78,369.28,287.94z M388.94,312.94c-1.54-0.51-3.49-3.7-3.49-3.7s-1.95,3.18-3.49,3.7H388.94z
		 M405.52,311.4c-1.54-0.51-3.76-2.16-3.76-2.16s-1.95,2.5-3.49,3.01L405.52,311.4z M372.79,312.25c-1.54-0.51-3.49-3.01-3.49-3.01
		s-2.22,1.65-3.76,2.16L372.79,312.25z M385.49,277.31c-0.18,2.06-8.27,11.59-10.44,12.11c2.17,0.6,10.25,6.18,10.44,8.07
		c0.72-2.06,8.85-8.25,11.2-8.16C394.25,288.64,385.85,279.37,385.49,277.31z M354.88,277.31c-0.18,2.06-2.91,11.07-5.08,11.59
		c2.17,0.6,4.52,6.7,4.7,8.58c0.72-2.06,7.82-8.02,10.16-7.93C362.22,288.87,355.24,279.37,354.88,277.31z M356.03,270.61l-6.7,4.23
		l0.92,5.7L356.03,270.61z M403.01,299.77c2.17-1.03,4.7-2.15,6.49-0.83c1.62,1.2,1.31,5.16,0.48,6.88
		c-0.83,1.72-3.57,2.12-3.57,2.12s1.66-4,0.37-4.86c-1.37-0.91-3.46,0.64-3.58,3.03c-0.15,3.1,2.5,3.66,5.83,3.46
		c2.5-0.15,5.26-2.81,5.36-8.54c0.12-6.91-12.98-10.53-12.98-10.53s-13.1,5.2-12.98,12.1c0.1,5.71,2.86,8.04,5.36,7.89
		c3.33-0.2,5.99-1.08,5.83-4.16c-0.12-2.38-1.67-3.71-3.34-2.56c-1.83,1.25,0.12,4.78,0.12,4.78s-2.74-0.07-3.57-1.69
		c-0.83-1.62-1.15-5.54,0.48-6.94c1.79-1.54,3.54-1.18,5.6-0.26c-0.91-3.31,2.5-8.03,2.5-8.03S404.04,296.92,403.01,299.77z
		 M369.65,291.63c0,0,3.41,4.72,2.5,8.03c2.05-0.91,3.81-1.27,5.59,0.26c1.62,1.4,1.31,5.32,0.48,6.94
		c-0.83,1.62-3.57,1.69-3.57,1.69s1.95-3.53,0.12-4.78c-1.67-1.15-3.22,0.19-3.34,2.56c-0.15,3.08,2.5,3.96,5.83,4.16
		c2.5,0.15,5.26-2.18,5.36-7.89c0.12-6.9-12.98-12.1-12.98-12.1s-13.1,3.61-12.98,10.53c0.1,5.73,2.86,8.39,5.36,8.54
		c3.34,0.2,5.99-0.36,5.83-3.46c-0.12-2.39-2.21-3.94-3.58-3.03c-1.29,0.86,0.37,4.86,0.37,4.86s-2.74-0.4-3.57-2.12
		c-0.83-1.72-1.15-5.68,0.48-6.88c1.79-1.32,4.32-0.2,6.49,0.83C367.02,296.92,369.65,291.63,369.65,291.63z M406.3,289.55
		c2.35-0.09,9.44,5.87,10.16,7.93c0.18-1.89,2.53-7.98,4.7-8.58c-2.17-0.52-4.9-9.53-5.08-11.59
		C415.72,279.37,408.74,288.87,406.3,289.55z M420.7,280.55l0.92-5.7l-6.7-4.23L420.7,280.55z"/>
	<g>
		<g>
			<path class="st14" d="M386.99,240.5"/>
		</g>
		<g>
			<path class="st12" d="M386.99,240.5"/>
		</g>
	</g>
	<g>
		<g>
			<polygon class="st14" points="386.99,242.97 386.99,238.89 383.97,238.89 383.97,242.97 381.24,242.97 381.24,245.9 
				383.97,245.9 383.97,253.03 386.99,253.03 386.99,245.9 389.45,245.9 389.45,242.97 			"/>
		</g>
		<g>
			<polygon class="st12" points="386.99,242.97 386.99,238.89 383.97,238.89 383.97,242.97 381.24,242.97 381.24,245.9 
				383.97,245.9 383.97,253.03 386.99,253.03 386.99,245.9 389.45,245.9 389.45,242.97 			"/>
		</g>
	</g>
	<path class="st13" d="M389.62,254.11c0,2.29-1.85,4.14-4.14,4.14c-2.29,0-4.14-1.86-4.14-4.14c0-2.29,1.86-4.14,4.14-4.14
		C387.77,249.96,389.62,251.82,389.62,254.11z"/>
	<g id="pearls_1_">
		<path class="st2" d="M381.8,258.1c0,0.86-0.69,1.55-1.55,1.55s-1.55-0.69-1.55-1.55c0-0.86,0.69-1.55,1.55-1.55
			S381.8,257.24,381.8,258.1z"/>
		<path class="st2" d="M427.62,274.24c0,1.03-0.83,1.86-1.86,1.86c-1.03,0-1.86-0.83-1.86-1.86c0-1.03,0.83-1.86,1.86-1.86
			C426.78,272.38,427.62,273.22,427.62,274.24z"/>
		<path class="st2" d="M423.91,271.68c0,0.86-0.69,1.55-1.55,1.55c-0.86,0-1.55-0.69-1.55-1.55c0-0.86,0.69-1.55,1.55-1.55
			C423.22,270.13,423.91,270.83,423.91,271.68z"/>
		<path class="st2" d="M343.39,274.24c0,1.03,0.83,1.86,1.86,1.86c1.03,0,1.86-0.83,1.86-1.86c0-1.03-0.83-1.86-1.86-1.86
			C344.22,272.38,343.39,273.22,343.39,274.24z"/>
		<path class="st2" d="M347.09,271.68c0,0.86,0.69,1.55,1.55,1.55c0.86,0,1.55-0.69,1.55-1.55c0-0.86-0.69-1.55-1.55-1.55
			C347.78,270.13,347.09,270.83,347.09,271.68z"/>
		<path class="st2" d="M356.97,267.92c0,0.86-0.69,1.55-1.55,1.55c-0.86,0-1.55-0.69-1.55-1.55c0-0.86,0.69-1.55,1.55-1.55
			C356.27,266.37,356.97,267.06,356.97,267.92z"/>
		<path class="st2" d="M360.05,266.38c0,0.86-0.69,1.55-1.55,1.55c-0.86,0-1.55-0.69-1.55-1.55c0-0.86,0.69-1.55,1.55-1.55
			C359.35,264.83,360.05,265.52,360.05,266.38z"/>
		<path class="st2" d="M413.64,266.22c0,0.86-0.69,1.55-1.55,1.55c-0.86,0-1.55-0.69-1.55-1.55c0-0.86,0.69-1.55,1.55-1.55
			C412.95,264.67,413.64,265.37,413.64,266.22z"/>
		<path class="st2" d="M363.59,264.68c0,0.86-0.69,1.55-1.55,1.55c-0.86,0-1.55-0.69-1.55-1.55s0.69-1.55,1.55-1.55
			C362.9,263.13,363.59,263.83,363.59,264.68z"/>
		<path class="st2" d="M410.29,264.72c0,0.86-0.69,1.55-1.55,1.55c-0.86,0-1.55-0.69-1.55-1.55c0-0.86,0.69-1.55,1.55-1.55
			C409.59,263.17,410.29,263.86,410.29,264.72z"/>
		<path class="st2" d="M406.71,263.3c0,0.86-0.69,1.55-1.55,1.55c-0.86,0-1.55-0.69-1.55-1.55c0-0.86,0.69-1.55,1.55-1.55
			C406.02,261.75,406.71,262.44,406.71,263.3z"/>
		<path class="st2" d="M367.32,263.18c0,0.86-0.69,1.55-1.55,1.55c-0.86,0-1.55-0.69-1.55-1.55s0.69-1.55,1.55-1.55
			C366.63,261.63,367.32,262.32,367.32,263.18z"/>
		<path class="st2" d="M403.36,261.79c0,0.86-0.69,1.55-1.55,1.55c-0.86,0-1.55-0.69-1.55-1.55c0-0.86,0.69-1.55,1.55-1.55
			C402.66,260.24,403.36,260.94,403.36,261.79z"/>
		<path class="st2" d="M370.71,261.64c0,0.86-0.69,1.55-1.55,1.55c-0.85,0-1.55-0.69-1.55-1.55c0-0.86,0.69-1.55,1.55-1.55
			C370.02,260.09,370.71,260.78,370.71,261.64z"/>
		<path class="st2" d="M399.78,260.22c0,0.86-0.69,1.55-1.55,1.55c-0.86,0-1.55-0.69-1.55-1.55c0-0.86,0.69-1.55,1.55-1.55
			C399.09,258.67,399.78,259.36,399.78,260.22z"/>
		<path class="st2" d="M396.08,258.99c0,0.86-0.69,1.55-1.55,1.55c-0.86,0-1.55-0.69-1.55-1.55c0-0.86,0.69-1.55,1.55-1.55
			C395.39,257.44,396.08,258.13,396.08,258.99z"/>
		<path class="st2" d="M392.42,257.94c0,0.86-0.69,1.55-1.55,1.55c-0.86,0-1.55-0.69-1.55-1.55c0-0.86,0.69-1.55,1.55-1.55
			C391.73,256.39,392.42,257.09,392.42,257.94z"/>
		<path class="st2" d="M374.21,260.37c0,0.86-0.69,1.55-1.55,1.55c-0.85,0-1.55-0.69-1.55-1.55c0-0.85,0.69-1.55,1.55-1.55
			C373.52,258.82,374.21,259.52,374.21,260.37z"/>
		<path class="st2" d="M378.1,258.87c0,0.86-0.69,1.55-1.55,1.55c-0.86,0-1.55-0.69-1.55-1.55c0-0.86,0.69-1.55,1.55-1.55
			C377.41,257.32,378.1,258.01,378.1,258.87z"/>
		<path class="st2" d="M386.88,258.25c0,0.86-0.69,1.55-1.55,1.55c-0.86,0-1.55-0.69-1.55-1.55c0-0.85,0.69-1.55,1.55-1.55
			C386.19,256.7,386.88,257.4,386.88,258.25z"/>
		<path class="st2" d="M353.61,269.49c0,0.86-0.69,1.55-1.55,1.55c-0.85,0-1.55-0.69-1.55-1.55c0-0.86,0.69-1.55,1.55-1.55
			C352.92,267.94,353.61,268.64,353.61,269.49z"/>
		<path class="st2" d="M420.61,269.8c0,0.86-0.69,1.55-1.55,1.55c-0.85,0-1.55-0.69-1.55-1.55c0-0.86,0.69-1.55,1.55-1.55
			C419.91,268.25,420.61,268.95,420.61,269.8z"/>
		<path class="st2" d="M417.18,267.92c0,0.86-0.69,1.55-1.55,1.55c-0.86,0-1.55-0.69-1.55-1.55c0-0.86,0.69-1.55,1.55-1.55
			C416.49,266.37,417.18,267.06,417.18,267.92z"/>
		<path class="st2" d="M386.84,260.52c0,0.86-0.69,1.55-1.55,1.55c-0.86,0-1.55-0.69-1.55-1.55c0-0.86,0.69-1.55,1.55-1.55
			C386.15,258.98,386.84,259.67,386.84,260.52z"/>
		<path class="st2" d="M386.84,262.68c0,0.86-0.69,1.55-1.55,1.55c-0.86,0-1.55-0.69-1.55-1.55c0-0.85,0.69-1.55,1.55-1.55
			C386.15,261.13,386.84,261.83,386.84,262.68z"/>
		<path class="st2" d="M387.03,264.87c0,0.86-0.69,1.55-1.55,1.55c-0.86,0-1.55-0.69-1.55-1.55c0-0.86,0.69-1.55,1.55-1.55
			C386.34,263.32,387.03,264.02,387.03,264.87z"/>
		<path class="st2" d="M387.03,267.18c0,0.86-0.69,1.55-1.55,1.55c-0.86,0-1.55-0.69-1.55-1.55s0.69-1.55,1.55-1.55
			C386.34,265.63,387.03,266.33,387.03,267.18z"/>
		<path class="st2" d="M387.03,269.34c0,0.86-0.69,1.55-1.55,1.55c-0.86,0-1.55-0.69-1.55-1.55c0-0.86,0.69-1.55,1.55-1.55
			C386.34,267.79,387.03,268.48,387.03,269.34z"/>
		<path class="st2" d="M386.88,271.34c0,0.86-0.69,1.55-1.55,1.55c-0.86,0-1.55-0.69-1.55-1.55c0-0.86,0.69-1.55,1.55-1.55
			C386.19,269.79,386.88,270.49,386.88,271.34z"/>
		<path class="st2" d="M387.15,273.62c0,0.86-0.69,1.55-1.55,1.55c-0.86,0-1.55-0.69-1.55-1.55c0-0.86,0.69-1.55,1.55-1.55
			C386.46,272.07,387.15,272.76,387.15,273.62z"/>
		<path class="st2" d="M387.29,275.78c0,1.03-0.83,1.86-1.86,1.86c-1.03,0-1.86-0.83-1.86-1.86c0-1.03,0.83-1.86,1.86-1.86
			C386.46,273.92,387.29,274.76,387.29,275.78z"/>
	</g>
</g>
<g>
	<polygon class="st4" points="196.5,425.07 226.46,373.12 196.5,320.75 256.74,320.64 286.55,268.95 316.5,320.92 376.75,321 
		346.69,372.88 376.75,424.82 316.49,425.13 286.55,476.88 256.43,424.65 	"/>
	<rect x="244.95" y="359.82" class="st11" width="83.21" height="26.18"/>
	<rect x="273.46" y="331.31" class="st11" width="26.18" height="83.21"/>
</g>
<path class="st4" d="M458.5,209c-3.93-32.21-55.5-62-55.5-62l41.06-77.55c0,0,52.94,26.55,69.94,54.55L458.5,209z"/>
<g>
	<path class="st11" d="M438.39,149.28c2.86,2.16,10.32,8.88,13.59,11.74c7.07-11.58,22.13-36.27,26.87-44.04
		c-3.04-2.85-10.6-9.95-13.91-12.46C459.02,114.51,443.72,140.29,438.39,149.28z"/>
	<path class="st11" d="M436.2,127.14c7.99,5.07,22.55,15.67,35.37,28.43c4.17-6.81,6.96-11.36,9.82-16.03
		c-6.43-6.74-20.87-20.89-35.13-29.81C442.71,115.88,439.73,121.03,436.2,127.14z"/>
</g>
<g id="flagmast">
	<path class="st4" d="M445.72,53.88c3.11-5.85,9.4-9.16,14.48-15.52c-2.9,8.65-1.66,14.83-4.77,20.68
		c-3.11,5.85-7.81,9.44-10.49,8.01C442.26,65.63,442.61,59.73,445.72,53.88z"/>
	
		<rect x="333.23" y="133.9" transform="matrix(0.4696 -0.8829 0.8829 0.4696 95.3241 432.9524)" class="st4" width="149.5" height="6.5"/>
	<path class="st4" d="M438.1,63.41c1.32-2.48,5.46-2.85,9.25-0.84c3.79,2.01,5.79,5.65,4.48,8.13c-1.32,2.48-5.46,2.85-9.25,0.84
		C438.79,69.52,436.78,65.88,438.1,63.41z"/>
</g>
<path class="st6" d="M301.75,211c-0.5-17.5,20.66-14.34,38-5L401,239c23.57,12.7,64.5-1.5,54-33c-6.87-20.62-22-21-30.5-21.5
	c-14.1-0.83-17,13.5-16.5,21.5c1.02,16.23,30,9,18.75-10.75c6.05,0.5,16,5.25,15.75,15.25c-0.32,12.91-11.25,17.25-18.5,17.5
	c-18,0.62-38-20.25-39.32-43.09c-1.68,5.09-3.18,19.34-3.18,19.34c-4.75-6.75-7-16-6.75-22.75c-4.25,2.75-6.75,16-6.75,16
	s-10-14-20.5-13.75c3,5.25,5,8,6.25,11.75c-6.75-2.75-16.05-8.15-33.25-7c-15,1-33.95,3-33.95,24.76c0,12.74,4.59,19.61,13.09,19.84
	C314,233.5,317.25,212,301.75,211z"/>
<path class="st4" d="M114.6,209c3.93-32.21,55.5-62,55.5-62l-41.06-77.55c0,0-52.94,26.55-69.94,54.55L114.6,209z"/>
<g>
	<path class="st11" d="M134.71,149.28c-2.87,2.16-10.32,8.88-13.6,11.74c-7.07-11.58-22.13-36.27-26.87-44.04
		c3.04-2.85,10.6-9.95,13.91-12.46C114.09,114.51,129.38,140.29,134.71,149.28z"/>
	<path class="st11" d="M136.91,127.14c-7.99,5.07-22.55,15.67-35.37,28.43c-4.17-6.81-6.96-11.36-9.82-16.03
		c6.43-6.74,20.87-20.89,35.13-29.81C130.4,115.88,133.38,121.03,136.91,127.14z"/>
</g>
<g id="flagmast_4_">
	<path class="st4" d="M127.38,53.88c-3.11-5.85-9.4-9.16-14.48-15.52c2.9,8.65,1.66,14.83,4.77,20.68
		c3.11,5.85,7.81,9.44,10.49,8.01C130.84,65.63,130.49,59.73,127.38,53.88z"/>
	
		<rect x="161.89" y="62.39" transform="matrix(0.8829 -0.4695 0.4695 0.8829 -45.0548 93.592)" class="st4" width="6.5" height="149.5"/>
	<path class="st4" d="M121.29,70.7c-1.32-2.48,0.69-6.12,4.48-8.13c3.79-2.01,7.93-1.64,9.24,0.84c1.32,2.48-0.69,6.12-4.48,8.13
		C126.75,73.55,122.61,73.17,121.29,70.7z"/>
</g>
<path class="st6" d="M271.35,211c0.5-17.5-20.66-14.34-38-5l-61.25,33c-23.56,12.7-64.5-1.5-54-33c6.87-20.62,22-21,30.5-21.5
	c14.1-0.83,17,13.5,16.5,21.5c-1.01,16.23-30,9-18.75-10.75c-6.05,0.5-16,5.25-15.75,15.25c0.32,12.91,11.25,17.25,18.5,17.5
	c18,0.62,38-20.25,39.32-43.09c1.68,5.09,3.18,19.34,3.18,19.34c4.75-6.75,7-16,6.75-22.75c4.25,2.75,6.75,16,6.75,16
	s10-14,20.5-13.75c-3,5.25-5,8-6.25,11.75c6.75-2.75,16.05-8.15,33.25-7c15,1,33.95,3,33.95,24.76c0,12.74-4.59,19.61-13.09,19.84
	C259.1,233.5,255.85,212,271.35,211z"/>
<g>
	<path class="st9" d="M242.73,127.18c0,0-3.9-0.11-3.9,2.82c0,2.92,22.82,8.21,47.59,8.17c24.77-0.04,48.08-5.24,48.08-8.17
		c0-2.93-3.9-2.82-3.9-2.82"/>
	<g id="ermine">
		<path class="st9" d="M239.04,120.32c0,0-0.04,6.76,0.54,7.68c0.59,0.92,13.23,7.4,46.92,7.42c33.69,0.02,46.58-6.5,47.16-7.42
			c0.58-0.92,0.54-7.68,0.54-7.68"/>
		<path d="M288.84,131c0,1.1-1.03,2-2.29,2c-1.27,0-2.29-0.9-2.29-2c0-1.1,1.03-2,2.29-2C287.81,129,288.84,129.9,288.84,131z"/>
		<path d="M308,130c0,1.1-0.86,2-1.92,2c-1.06,0-1.92-0.9-1.92-2c0-1.1,0.86-2,1.92-2C307.14,128,308,128.9,308,130z"/>
		<path d="M322.71,127.83c0,1.1-0.69,2-1.54,2c-0.85,0-1.54-0.9-1.54-2c0-1.1,0.69-2,1.54-2
			C322.02,125.83,322.71,126.73,322.71,127.83z"/>
		<ellipse cx="330.92" cy="125.42" rx="1.17" ry="2"/>
		<path d="M265,130c0,1.1,0.86,2,1.92,2c1.06,0,1.92-0.9,1.92-2c0-1.1-0.86-2-1.92-2C265.86,128,265,128.9,265,130z"/>
		<path d="M250.29,127.83c0,1.1,0.69,2,1.54,2c0.85,0,1.54-0.9,1.54-2c0-1.1-0.69-2-1.54-2
			C250.98,125.83,250.29,126.73,250.29,127.83z"/>
		<ellipse cx="242.08" cy="125.42" rx="1.17" ry="2"/>
	</g>
	<path class="st10" d="M243.31,120.3l-13.52-55.1l13.73-7.87l43.04-1.12l43.04,1.12l13.72,7.87l-13.52,55.1
		c0,0-18.36,4.34-43.24,4.52C261.67,125,243.31,120.3,243.31,120.3z"/>
	<path class="st2" d="M238.8,120.32c-0.21-1.57,1.46-2.92,1.46-2.92s23,5.61,46.24,5.35c23.25-0.25,46.24-5.35,46.24-5.35
		s1.67,1.35,1.46,2.92c-1.37,1.01-24.2,7.1-47.71,7.01C263,127.25,240.17,121.33,238.8,120.32z"/>
	<g>
		<g>
			<polygon class="st11" points="289.43,83.13 289.43,77.8 283.67,77.8 283.67,83.13 278.34,83.13 278.34,88.89 283.67,88.89 
				283.67,96.22 289.43,96.22 289.43,89.05 289.43,88.89 294.76,88.89 294.76,83.13 			"/>
		</g>
		<g>
			<polygon class="st12" points="289.43,83.13 289.43,77.8 283.67,77.8 283.67,83.13 278.34,83.13 278.34,88.89 283.67,88.89 
				283.67,96.22 289.43,96.22 289.43,89.05 289.43,88.89 294.76,88.89 294.76,83.13 			"/>
		</g>
	</g>
	<g>
		<g>
			<polygon class="st11" points="245.09,83.13 245.09,77.8 240.99,77.8 240.99,83.13 238.04,83.13 238.04,88.89 240.99,88.89 
				240.99,95.22 245.09,95.22 245.09,89.05 245.09,88.89 249.76,88.89 249.76,83.13 			"/>
		</g>
		<g>
			<polygon class="st12" points="245.09,83.13 245.09,77.8 240.99,77.8 240.99,83.13 238.04,83.13 238.04,88.89 240.99,88.89 
				240.99,95.22 245.09,95.22 245.09,89.05 245.09,88.89 249.76,88.89 249.76,83.13 			"/>
		</g>
	</g>
	<g>
		<g>
			<polygon class="st11" points="332.12,83.13 332.12,77.8 328.01,77.8 328.01,83.13 323.34,83.13 323.34,88.89 328.01,88.89 
				328.01,89.05 328.01,95.22 332.12,95.22 332.12,88.89 335.06,88.89 335.06,83.13 			"/>
		</g>
		<g>
			<polygon class="st12" points="332.12,83.13 332.12,77.8 328.01,77.8 328.01,83.13 323.34,83.13 323.34,88.89 328.01,88.89 
				328.01,89.05 328.01,95.22 332.12,95.22 332.12,88.89 335.06,88.89 335.06,83.13 			"/>
		</g>
	</g>
	<path class="st13" d="M240.4,117.4l-11.61-49.61c0,0-1.8-3.04,2.48-5.85C235.54,59.12,272.53,40,286.55,40
		c14.02,0,51.01,19.12,55.28,21.94c4.27,2.81,2.48,5.85,2.48,5.85L332.7,117.4c0,0-12.56,6.6-46.2,6.6
		C252.87,124,240.4,117.4,240.4,117.4z M325.63,70.26c1.12-3.04,0-4.5-4.05-10.8s-27.79-13.5-32.74-12.94c0,3.71,1.57,18,3.26,22.39
		c1.69,4.39,13.05,14.7,18.11,15.97C315.29,83.2,324.51,73.3,325.63,70.26z M262.88,84.88c5.06-1.28,16.42-11.59,18.11-15.97
		c1.69-4.39,3.26-18.68,3.26-22.39c-4.95-0.56-28.69,6.64-32.74,12.94c-4.05,6.3-5.17,7.76-4.05,10.8
		C248.59,73.3,257.82,83.2,262.88,84.88z M291.6,121.41c-2.25-0.75-5.1-5.4-5.1-5.4s-2.85,4.65-5.1,5.4H291.6z M315.83,119.17
		c-2.25-0.75-5.5-3.16-5.5-3.16s-2.85,3.65-5.1,4.4L315.83,119.17z M268.02,120.41c-2.25-0.75-5.1-4.4-5.1-4.4s-3.25,2.41-5.5,3.16
		L268.02,120.41z M286.56,69.36c-0.26,3.01-12.08,16.93-15.25,17.69c3.17,0.88,14.98,9.03,15.25,11.79
		c1.05-3.01,12.94-12.05,16.37-11.92C299.37,85.9,287.09,72.37,286.56,69.36z M241.84,69.36c-0.26,3.01-4.26,16.18-7.43,16.93
		c3.17,0.88,6.6,9.78,6.86,12.54c1.06-3.01,11.42-11.72,14.85-11.59C252.57,86.24,242.37,72.37,241.84,69.36z M243.53,59.57
		l-9.79,6.19l1.35,8.33L243.53,59.57z M312.17,102.17c3.17-1.5,6.87-3.14,9.48-1.21c2.37,1.75,1.91,7.54,0.7,10.05
		c-1.22,2.51-5.22,3.1-5.22,3.1s2.43-5.84,0.54-7.1c-2-1.33-5.06,0.94-5.24,4.43c-0.23,4.53,3.65,5.35,8.52,5.05
		c3.65-0.22,7.69-4.11,7.83-12.48c0.17-10.1-18.96-15.38-18.96-15.38s-19.14,7.59-18.96,17.67c0.14,8.35,4.17,11.75,7.83,11.53
		c4.87-0.29,8.75-1.57,8.52-6.08c-0.17-3.47-2.43-5.43-4.88-3.75c-2.67,1.83,0.18,6.99,0.18,6.99s-4-0.11-5.22-2.47
		c-1.22-2.36-1.68-8.09,0.7-10.13c2.61-2.25,5.18-1.72,8.18-0.39c-1.33-4.83,3.65-11.73,3.65-11.73S313.67,98,312.17,102.17z
		 M263.43,90.28c0,0,4.99,6.89,3.65,11.73c3-1.33,5.57-1.86,8.18,0.39c2.37,2.04,1.92,7.77,0.7,10.13
		c-1.22,2.36-5.22,2.47-5.22,2.47s2.85-5.15,0.18-6.99c-2.45-1.68-4.7,0.28-4.88,3.75c-0.23,4.51,3.65,5.79,8.52,6.08
		c3.65,0.22,7.68-3.18,7.83-11.53c0.17-10.08-18.96-17.67-18.96-17.67s-19.14,5.28-18.96,15.38c0.14,8.37,4.18,12.26,7.83,12.48
		c4.87,0.29,8.75-0.52,8.52-5.05c-0.17-3.49-3.24-5.76-5.24-4.43c-1.89,1.26,0.54,7.1,0.54,7.1s-4-0.59-5.22-3.1
		c-1.22-2.51-1.68-8.29,0.7-10.05c2.61-1.93,6.32-0.29,9.48,1.21C259.58,98,263.43,90.28,263.43,90.28z M316.97,87.24
		c3.43-0.12,13.79,8.58,14.85,11.59c0.26-2.76,3.7-11.66,6.86-12.54c-3.17-0.75-7.16-13.92-7.43-16.93
		C330.73,72.37,320.53,86.24,316.97,87.24z M338.01,74.08l1.35-8.33l-9.79-6.19L338.01,74.08z"/>
	<g>
		<g>
			<path class="st14" d="M288.75,15.58"/>
		</g>
		<g>
			<path class="st12" d="M288.75,15.58"/>
		</g>
	</g>
	<g>
		<g>
			<polygon class="st14" points="288.75,19.18 288.75,13.22 284.35,13.22 284.35,19.18 280.35,19.18 280.35,23.46 284.35,23.46 
				284.35,33.88 288.75,33.88 288.75,23.46 292.35,23.46 292.35,19.18 			"/>
		</g>
		<g>
			<polygon class="st12" points="288.75,19.18 288.75,13.22 284.35,13.22 284.35,19.18 280.35,19.18 280.35,23.46 284.35,23.46 
				284.35,33.88 288.75,33.88 288.75,23.46 292.35,23.46 292.35,19.18 			"/>
		</g>
	</g>
	<path class="st13" d="M292.6,35.46c0,3.34-2.71,6.05-6.05,6.05s-6.05-2.71-6.05-6.05c0-3.34,2.71-6.05,6.05-6.05
		S292.6,32.11,292.6,35.46z"/>
	<g id="pearls">
		<path class="st2" d="M281.17,41.28c0,1.25-1.01,2.26-2.26,2.26s-2.26-1.01-2.26-2.26s1.01-2.26,2.26-2.26
			S281.17,40.03,281.17,41.28z"/>
		<path class="st2" d="M348.11,64.87c0,1.5-1.22,2.72-2.72,2.72c-1.5,0-2.71-1.22-2.71-2.72s1.21-2.72,2.71-2.72
			C346.9,62.16,348.11,63.37,348.11,64.87z"/>
		<path class="st2" d="M342.7,61.13c0,1.25-1.01,2.26-2.26,2.26s-2.26-1.01-2.26-2.26c0-1.25,1.01-2.26,2.26-2.26
			S342.7,59.88,342.7,61.13z"/>
		<path class="st2" d="M225.05,64.87c0,1.5,1.22,2.72,2.72,2.72c1.5,0,2.71-1.22,2.71-2.72s-1.21-2.72-2.71-2.72
			C226.27,62.16,225.05,63.37,225.05,64.87z"/>
		<path class="st2" d="M230.46,61.13c0,1.25,1.01,2.26,2.26,2.26s2.26-1.01,2.26-2.26c0-1.25-1.01-2.26-2.26-2.26
			S230.46,59.88,230.46,61.13z"/>
		<path class="st2" d="M244.89,55.63c0,1.25-1.01,2.26-2.26,2.26c-1.25,0-2.26-1.01-2.26-2.26s1.01-2.26,2.26-2.26
			C243.88,53.37,244.89,54.38,244.89,55.63z"/>
		<path class="st2" d="M249.39,53.38c0,1.25-1.01,2.26-2.26,2.26c-1.25,0-2.26-1.01-2.26-2.26s1.01-2.26,2.26-2.26
			C248.38,51.12,249.39,52.13,249.39,53.38z"/>
		<path class="st2" d="M327.69,53.16c0,1.25-1.01,2.26-2.26,2.26c-1.25,0-2.26-1.01-2.26-2.26s1.01-2.26,2.26-2.26
			C326.68,50.89,327.69,51.91,327.69,53.16z"/>
		<path class="st2" d="M254.57,50.91c0,1.25-1.01,2.26-2.26,2.26c-1.25,0-2.26-1.01-2.26-2.26s1.01-2.26,2.26-2.26
			C253.55,48.64,254.57,49.66,254.57,50.91z"/>
		<path class="st2" d="M322.79,50.96c0,1.25-1.01,2.26-2.26,2.26c-1.25,0-2.26-1.01-2.26-2.26s1.01-2.26,2.26-2.26
			C321.78,48.7,322.79,49.71,322.79,50.96z"/>
		<path class="st2" d="M317.57,48.88c0,1.25-1.01,2.26-2.26,2.26c-1.25,0-2.26-1.01-2.26-2.26s1.01-2.26,2.26-2.26
			C316.55,46.62,317.57,47.63,317.57,48.88z"/>
		<path class="st2" d="M260.02,48.71c0,1.25-1.01,2.26-2.26,2.26c-1.25,0-2.26-1.01-2.26-2.26s1.01-2.26,2.26-2.26
			C259.01,46.45,260.02,47.46,260.02,48.71z"/>
		<path class="st2" d="M312.67,46.68c0,1.25-1.01,2.26-2.26,2.26c-1.25,0-2.26-1.01-2.26-2.26s1.01-2.26,2.26-2.26
			C311.66,44.42,312.67,45.43,312.67,46.68z"/>
		<path class="st2" d="M264.97,46.46c0,1.25-1.01,2.26-2.26,2.26c-1.25,0-2.26-1.01-2.26-2.26s1.01-2.26,2.26-2.26
			C263.96,44.2,264.97,45.21,264.97,46.46z"/>
		<path class="st2" d="M307.44,44.38c0,1.25-1.01,2.26-2.26,2.26c-1.25,0-2.26-1.01-2.26-2.26s1.01-2.26,2.26-2.26
			C306.43,42.12,307.44,43.13,307.44,44.38z"/>
		<path class="st2" d="M302.04,42.58c0,1.25-1.01,2.26-2.26,2.26c-1.25,0-2.26-1.01-2.26-2.26c0-1.25,1.01-2.26,2.26-2.26
			C301.03,40.32,302.04,41.33,302.04,42.58z"/>
		<path class="st2" d="M296.69,41.06c0,1.25-1.01,2.26-2.26,2.26c-1.25,0-2.26-1.01-2.26-2.26s1.01-2.26,2.26-2.26
			C295.68,38.8,296.69,39.81,296.69,41.06z"/>
		<path class="st2" d="M270.09,44.61c0,1.25-1.01,2.26-2.26,2.26c-1.25,0-2.26-1.01-2.26-2.26c0-1.25,1.01-2.26,2.26-2.26
			C269.08,42.34,270.09,43.36,270.09,44.61z"/>
		<path class="st2" d="M275.77,42.41c0,1.25-1.01,2.26-2.26,2.26c-1.25,0-2.26-1.01-2.26-2.26s1.01-2.26,2.26-2.26
			C274.76,40.15,275.77,41.16,275.77,42.41z"/>
		<path class="st2" d="M288.59,41.51c0,1.25-1.01,2.26-2.26,2.26c-1.25,0-2.26-1.01-2.26-2.26c0-1.25,1.01-2.26,2.26-2.26
			C287.58,39.25,288.59,40.26,288.59,41.51z"/>
		<path class="st2" d="M239.99,57.93c0,1.25-1.01,2.26-2.26,2.26c-1.25,0-2.26-1.01-2.26-2.26s1.01-2.26,2.26-2.26
			C238.98,55.67,239.99,56.68,239.99,57.93z"/>
		<path class="st2" d="M337.87,58.38c0,1.25-1.01,2.26-2.26,2.26s-2.26-1.01-2.26-2.26c0-1.25,1.01-2.26,2.26-2.26
			S337.87,57.13,337.87,58.38z"/>
		<path class="st2" d="M332.87,55.63c0,1.25-1.01,2.26-2.26,2.26s-2.26-1.01-2.26-2.26s1.01-2.26,2.26-2.26
			S332.87,54.38,332.87,55.63z"/>
		<path class="st2" d="M288.54,44.83c0,1.25-1.01,2.26-2.26,2.26c-1.25,0-2.26-1.01-2.26-2.26c0-1.25,1.01-2.26,2.26-2.26
			C287.53,42.57,288.54,43.58,288.54,44.83z"/>
		<path class="st2" d="M288.54,47.98c0,1.25-1.01,2.26-2.26,2.26c-1.25,0-2.26-1.01-2.26-2.26c0-1.25,1.01-2.26,2.26-2.26
			C287.53,45.72,288.54,46.73,288.54,47.98z"/>
		<path class="st2" d="M288.82,51.18c0,1.25-1.01,2.26-2.26,2.26c-1.25,0-2.26-1.01-2.26-2.26s1.01-2.26,2.26-2.26
			C287.81,48.92,288.82,49.93,288.82,51.18z"/>
		<path class="st2" d="M288.82,54.56c0,1.25-1.01,2.26-2.26,2.26c-1.25,0-2.26-1.01-2.26-2.26s1.01-2.26,2.26-2.26
			C287.81,52.3,288.82,53.31,288.82,54.56z"/>
		<path class="st2" d="M288.82,57.71c0,1.25-1.01,2.26-2.26,2.26c-1.25,0-2.26-1.01-2.26-2.26s1.01-2.26,2.26-2.26
			C287.81,55.45,288.82,56.46,288.82,57.71z"/>
		<path class="st2" d="M288.59,60.63c0,1.25-1.01,2.26-2.26,2.26c-1.25,0-2.26-1.01-2.26-2.26c0-1.25,1.01-2.26,2.26-2.26
			C287.58,58.37,288.59,59.38,288.59,60.63z"/>
		<path class="st2" d="M288.99,63.96c0,1.25-1.01,2.26-2.26,2.26s-2.26-1.01-2.26-2.26c0-1.25,1.01-2.26,2.26-2.26
			S288.99,62.71,288.99,63.96z"/>
		<path class="st2" d="M289.2,67.12c0,1.5-1.22,2.72-2.72,2.72c-1.5,0-2.71-1.22-2.71-2.72s1.21-2.72,2.71-2.72
			C287.98,64.41,289.2,65.62,289.2,67.12z"/>
	</g>
</g>
</svg>
