
<svg width="696" height="510" xmlns="http://www.w3.org/2000/svg" fill-rule="evenodd" xmlns:xlink="http://www.w3.org/1999/xlink">
<path d="m268 469.4c2.1 3.7 5.2 6.6 8.9 7.8 1.7 .6 4.3-.6 6.4 .6 3.3 2.1 2.9 4.5 1.7 8-.6 2.3-5.4 3.3-7.8 2.3-3.3-1-1.9-4.3-3.9-6.4-4.1-4.7-17-3-20.9-11.1l9.5-15.2c4.8 7.3 2.3 7.7 5.9 14z" fill="#006233" stroke="#1f1a17"/>
<use transform="matrix(-1 0 0 1 696.2 0)" xlink:href="#g"/>
<path d="m435.3 455.3c-4.1 4.3-4 11.9-6.1 15.1-2.1 3.5-5.2 6.4-8.7 7.6-1.7 .6-4.5-.6-6.4 .6-3.5 2.1-2.9 4.7-1.9 8 .8 2.5 5.4 3.3 8 2.5 3.3-1.2 1.9-4.5 3.7-6.4 4.3-4.9 19.3-3.9 20.5-11.6z" fill="#d7110e" stroke="#1f1a17"/>

<g id="g" stroke="#1f1a17">

<g fill="#fde805">
<path d="m119.9 236.9c-2.3 4.1 2.9 6.4 5.4 7.4 5.6 1.9 10.7-.4 16.3-1.2 1.2-.2 1.7 2.9 1.2 4.7-2.9 9.9-13.8 17.5-23.3 14.4-2.9-1-5.6-4.1-7.2-7-4.3-7.6 1.7-14.2 7-19.4 .2 .4 .6 1 .6 1.2z"/>
<path d="m114.6 189c-13.3 4.6-27.4 9-33 11.1-4.5 1.7-8.7 4.7-11.7 8.2-4.1 5.1-8.9 8.5-12.6 13.2 11.5 1.2 23.3 2.3 34.2-1.7 11.5-4.3 19-13.6 26.4-23.9 1.9-2.9 .2-4.9-1.6-7.2 0-.2-1.2 .2-1.7 .4z"/>
<path d="m83.4 188.1c-7.4 2.7-14 11-19.2 16.6-10.1 10.7-22.5 19.8-37.7 21.4-1.9 .2-3.3 2.5-4.7 4.5 2.1-13.8 11.7-24.9 22.5-33.4 5.2-4.1 10.1-8.5 16.7-10.3 3.9-1 7.8-2.1 12-1.4 3.9 .6 7.4 .3 10.3 2.6z"/>
<path d="m149.5 196.2c-4.9-3.5-12.2-4.1-17.5 .8-4.5 4.3-10.3 7.6-11.8 14-.2 .8-1.4 1.2-1.7 2.1-3.1 5.4-.2 11.1-.8 16.7 4.7-.8 8-4.1 11.8-6.4 7.4-4.9 12.6-11.5 18.8-17.5 2.3-2.5 3.3-8 1.2-9.7z"/>
<path d="m205.4 123c-1-.4-.2-1.9-1.4-1.9 .4-3.1 0-6.6-2.1-8.9-4.1-4.3-8-8.7-14-10.5-5.2-1.6-10.5-1.9-15.7-2.5-1.2-.2-2.3-.4-3.5-1 .6 .6 .6 1.6 .8 2.1 .4 1.4 .8 3.1 1.2 4.7 1.6 7.2 2.3 8.9 5.2 15.5 .6 1 3.3 4.1 3.9 5.1 .4 .8 2.3 1.2 2.9 1.9 2.5 3.5 7.8 4.1 11.1 2.5 5.4-2.7 8-1.2 12-5.8 .2-.4-.2-1.2-.4-1.2z"/>
<path id="branch" d="m69 192.7c6.6-2.5 13.4-4.1 20.2-6.2 4.7-1.6 9.3-2.1 14.2-1.6 5.8 .6 10.9 3.7 15.7 6.6 13 7.4 18.6 21.4 27.2 34 5.2 7.8 10.7 14.8 17.9 20.6-12.4-.4-21.8-8.2-31.9-13.2-5.1-2.5-10.7-3.3-16.1-2.7-4.3 .6-9.3 1.4-11.5-1-4.5-4.3-9.3-7.2-15-9.9-9.9-4.9-21.2-5.2-31.7-8.4 1.2 10.9 8.2 20.6 17.7 25.6-13.8-3.9-24.7 6.2-37.9 9.3-1.6 .4-3.1 .2-4.7 .2 3.3 2.9 7.2 5.2 11.1 7.8 5.8 3.7 12.4 4.9 19.2 3.9 12.4-1.6 24.5-3.9 36.5-7.8 8-2.7 11.8-11.8 20.2-13.4 6.8-1.4 14 1.2 19.8 4.5 8.7 5.1 16.9 9.9 25.1 15.7 8.2 22 13.8 41.4 25.4 62 3.1 5.2 14 19.2 19.6 23.7-5.6 2.5-12.2 4.7-18.1 6.8-5.1 1.9-8.2 5.8-11.5 10.5-7 9.7-16.3 16.9-18.8 28.8-2.3 10.1-.8 20 2.3 29.5 3.9-.4 7.6-.4 10.5-2.9 5.8-5.1 11.3-18.6 13-26-.4 3.5-1.4 14.4 .6 16.1 2.3 2.1 3.1 5.6 4.1 8.7 19.6-6.8 24.7-38.1 24.3-63.3 3.1 2.1 5.6 5.2 10.7 10.1 .2 2.9-.4 6.2-1.6 7.8-6 9.3-6.6 5.1-8.2 16.5-.8 4.3-1 7.8 .8 11.7 1.7 3.9 1 9.3 3.1 12.8 1 1.6 3.1-2.3 4.3-3.9 6-7.6 6.8-4.7 10.9-13.4 1.2-2.3 2.5-5.2 1.4-7.8-1.9-5.1-1.7-10.5-2.3-15.5 1.6 1.6 3.5 2.9 3.9 5.2 .4-.4 3.1-.6 2.1-1.4 13 8.4 24.1 17.3 37.5 23.5 8 3.9 15.4 8.5 24.5 10.3 6.4 1.2 12 3.3 18.3 3.3l1.4 1.4c3.7 1.4 9.5 1.7 13.6 2.5 8.4 1.7 16.3-.4 29 2.9 11.5 2.9 21.6 6.2 31.5 13 .6 .4 .4 1.9 1 2.3 13.2 10.5 28.8 15 38.9 29.3 6.8 9.7 9.1 20.8 17.7 28.8 4.5 4.1 9.5 7 15 9.1 7 2.9 14.6 2.7 22.2 2.5 8.5 3.9 18.5 3.1 27.6 .4 2.7-.8 5.6-1.9 7.2-4.1 1-1.6 1-4.7-.6-6.4-.2-.2-1-1.9-.2-1.7-25.6-4.1-62-29.7-66-31.1-36.3-32.4-63-56.9-167.3-71.5-83-34-145.7-132.1-108.6-212.8 27-67.6 93.8-73.2 93.8-73.2 10.7 0 18.8-8.2 18.8-8.2-32.4-1.4-63.5 13.6-63.5 13.6-1-6.6 4.5-19.4 10.7-21.4 9.5-2.9 17.9 6 27.4 2.5 3.5-1.2 6.4-3.1 9.3-5.4 5.1-3.9 10.3-6.6 13.8-11.8-5.2-.4-10.5-1.6-15.5-2.7 1.9-4.7 10.7-6.6 13.2-11.8 1.7-3.7-12-6-16.5-7 1.7-2.5 1.9-6.6 3.7-10.1 3.1-6.2 8.7-11.3 15.7-12.8-5.2-1.9-10.9-2.1-16.1-1-6.2 1.6-12.2 4.3-17.5 8.4 1.2-4.7 7-5.6 7.8-10.1 1.2-6.2 4.9-11.7 1.6-17.7-11.7 10.9-32.6 17.7-36.3 34.8-6-10.1-20.4-20.4-15.5-32.6-1.4 1.2-2.5 2.5-3.9 3.9-1 1.4-3.9-7.4-4.9-5.8-3.5 5.1-4.7 21-6.2 27-2.5 8.9-1.9 18.1 1.2 26.6 .8 2.3 2.5 4.9 4.5 6.8 5.1 4.5 12 3.3 18.1 5.6-2.9 2.7-6.2 4.9-9.3 7.6-.6 .6-.4 2.5 0 2.9 2.9 1.7 6.4 2.9 8.9 4.9 1 .8 2.3 4.1 1.4 6-1.9 4.9-3.1 9.9-3.7 15-1 6.4-6.2 9.1-12 9.5-2.1 6.2-8.7 7-11.3 11.7-1.6 2.5-3.9 4.1-5.6 6-6.8 8-15 14.4-20.8 23.5-5.4 8.9-5.8 18.8-8.4 28.2-.8-1.4-.8-3.1-1.6-4.5-1.2-2.7-3.5-4.9-4.1-7.6-2.5-10.5-2.7-20.6-2.5-31.1 .2-7.8 1-15.4 3.3-22.7 .6-2.3 1-4.9 1.9-7 1.2-2.9 .8-6.6 0-9.9-1.2-5.1-5.1-8.7-6.2-13.6-1-4.5 1.7-9.3 0-13.2-6.6-14.8-24.9-16.1-39.4-18.5 0 1.4 1.2 2.1 1.7 3.3 .8 1.9 3.7 2.9 4.9 4.9 2.1 3.5 4.1 7 5.8 10.5 1.4 2.3 4.1 3.5 5.6 5.6 1.2 1.4 1.6 3.1 2.3 4.7-13-6.2-27.4-1.4-40.6-6 3.5 2.3 4.7 6.2 7.2 9.1 5.4 6 13.6 8 20.8 12 6 3.5 13.6 .8 20 3.7-5.4 3.5-11.8 4.3-17.7 7.2-1.6 .8-3.5 .2-5.2 .2 1.9 2.5 2.3 6.6 4.9 7.8 5.8 2.5 11.8 5.4 18.6 4.3 2.7-.4 4.7-2.3 7.6-2.5-1.4 9.7 2.1 19.2 1.7 29.1-.8 11.7-.2 23.3 3.1 35 1 2.7 4.5 3.9 6.6 6-1.7 3.9-2.5 6.8-2.1 10.1-4.9-2.5-6.6-7.6-9.7-11.7-3.7-5.1-5.4-11.3-6-17.3-1.2-10.3 1.7-20 3.5-30.3 1.4-7.4-.4-16.5-9.3-16.3 2.1 6.2 6.2 12 3.5 18.1-.6 1.6-2.3-1.7-2.9-2.3-11.1-11.8-25.1-17.1-39-24.5-2.1-1.2-3.1-3.5-4.7-5.4 0 6.1 4.7 32.6 15 41.8 2.9 2.5 6.4 3.5 10.1 4.7 5.4 1.7 11.5 .4 16.5 2.5 .6 .2 1.7 1 1.9 1.7 5.6 16.5 3.5 37.5 19.2 48.6-3.5 7 .8 13.2 1.9 19.6-4.1-1.7-7.2-4.5-9.7-7.8-1.6 0-2.5-.8-2.9-1.7-3.3-6.8-6.4-13.2-9.3-20-2.7-6.6-7.8-11.5-13.4-16.1-9.3-7.8-19.8-12.6-32.1-15.2-1.9-.4-2.9-2.1-4.9-2.5-10.1-2.1-18.6-3.9-28.8-5.8-7-1.4-12.4-5.1-19-7-5.2-1.6-10.9-3.1-16.1-1.2-8.5 3.3-15.5 9.7-21.6 16.5 3.3 3.3 8 4.5 12.2 5.6 6.6 1.9 13.2-2.5 20-2.3-1.9-.4-2.9 1.4-3.7 2.3-5.8 5.6-12.4 9.5-19.2 13.2 3.5 .8 6.4 3.7 9.5 3.7 8.5-.4 17.1-2.3 25.6-2.7 1.4 0 2.7 1.2 5.2 2 7 .3 8 .7 13.6-1.6z"/>
<path d="m175.9 248.7c0.4 3.3 1.7 8.4 2.9 12 1 3.1-4.5 4.7-7.4 6-9.5 4.3-19.2 9.3-30.1 7.2-9.3-1.9-17.7-4.3-27-2.5-11.3 2.1-19 10.5-29.1 15.2 9.1 1.7 17.5 4.9 26.4 7 7.8 1.9 15.7 1.6 23.5 1.7-5.1 2.9-9.9 6.2-15.5 6.4-4.7 0-9.3-2.5-14-3.9-.6-.2-.4-2.1-.8-2.3-3.1-.8-6.4-.2-9.3 1.4-.8 .4-1 2.1-1.6 2.3-17.7 3.7-28.6 17.5-43.1 25.8 6 1.4 12.4 1.4 18.8 2.7-3.5 7.4-8 14.6-11.5 22.2 9.5-2.1 19.4-2.3 28.2-6.6 5.8-2.7 11.5-5.1 17.3-8.7 .8-.4 2.1-.2 3.1-.2-13.2 12.8-17.3 34.2-7.4 49.9 4.3-11.3 14.2-18.5 21.6-28.4 1.9-2.7 3.5-5.6 3.7-8.7 .6-6.4-2.5-13.2-.4-19.2 2.3-7 8.2-12.2 13-17.9 3.9-3.7 10.3-6.8 9.9-6-4.1 8.4-17.3 23.1-17.7 32.4 0 2.7-.4 7.8 0 10.5 .4 5.1 6.8 17.9 6.4 19.8 3.7-2.1 4.9-13.2 10.3-16.7 2.5-1.7 4.7-4.9 5.6-8.4 1.9-7.2-2.7-13.6-2.3-20.8 .2-2.3 1.2-4.7 2.1-6.6 1.4-3.3 4.3-5.4 6.2-8.7 3.3-5.2 9.5-7 13.4-12.6 31.5-28.8 10.7-44.1 4.1-51.3-.6 1.9 .4 5.1 .4 6.8z"/>
<path d="m209.9 134.6c-.6 8 .4 19.4-8.7 22.3-9.9 3.3-19.8-.8-27.6-6.2-4.3-2.9-8.4-6.8-11.1-11.5-2.1-3.9-2.1-9.3-.4-13 6.4-14.4 4.9-29.9 7.4-44.9 7.8 5.6 11.8 14 16.3 22 3.1 5.2 6.2 10.9 5.1 17.3-1 5.8 .2 7.8-2.7 13-1.2 1.9-7.4 11.7-5.1 13s1.9 3.5 12.4 5.8c3.1-5.1 5.4-8.4 9.3-12.8 1.4-1.4 2.7-3.9 5.1-5.1z"/>
<path d="m208.7 132.3c-.2-.6-1-.8-1.2-1.2-.6-4.9 2.7-8.9 4.3-13.2 1-2.3 1.9-5.2 1.6-8-.2-3.1-.6-6.2-1-9.3-.2-2.5-1.2-4.7-2.3-6.8-.2-.6-1-1-1.2-1.4-2.1-5.6-5.4-10.7-7.8-16.3-.8-1.9-1.4-4.1-2.3-6 .2 1.4-.4 2.5-.6 3.7 0 .2-1 .2-1 .4-.2 2.5-.4 4.9-1 7.4-2.7 11.1-5.4 21.4-3.1 32.6 1.7 8.4 5.2 16.3 13.4 19.6 1.2 .4 2.9 0 2.1-1.6z"/>
<path d="m170.8 293.7c-.6 1-6.6 11.3-3.5 17.3 3.5 7.2 14.4 4.7 21.8 2.7 9.5-2.5 20-4.5 28.2 1.9 4.1 3.3 6.2 8 8.4 12.2 1.4 2.3 1.4 5.8 2.9 8.4 .8 1.4 2.3 2.5 3.7 3.5-2.1-.2-4.5 0-6.8-.2-13-1.7-41.6-.8-47-10.3 3.5 5.1 12 11.5 14.6 17.3 .4 .6 .8 1.6 .8 2.1-1.4-.2-3.3 1.4-4.1 1.9-4.9 3.5-7.8 7.2-11.3 11.8-8.4-3.3-15-11.7-17.7-20-.2-.6-1.6-2.1-1.7-2.7-3.1-10.1 2.3-19.8 2.7-29.7 .2-2.5-3.7-6-1.6-7.4 2.7-1.9 6.2-4.9 10.3-8.7z"/>
</g>

<g fill="none" stroke-width=".7">
<path d="m260.8 34.4c-5.1 7-11.5 12.4-18.1 18.1-1.4 1.4-3.5 1.7-4.9 3.3"/>
<path d="m133.5 205.2c-5.6 2.8-10 12.3-12 18m25.3-23.5c-.9 .2-4.6 1.3-5.4 1.7m14.2-92.9c-.6 12-14.8 12.8-23.5 9.5m40-26.6c12.2 20.7 1.2 35.2 1 44.6 .3 3.5 1.8 6.8 3.8 9.6m53.2 220.3c5.2 14.1-.3 26.2-6.8 38.5m-14.2-48c-.9 25.8-14.8 28.1-13 50.7m7.8-57.7c-13.6 8.2-18.5 21.6-32.8 33.9-6 7.4-10 16.9-6.1 26.3m0-85.9c2.8 11.9 8.1 22 19.8 27.2m-9.1-30.3c14.3 6.6 34.5-1.6 46 10.9m-68.2-28.8c-15.2 13.9-12.8 31.3-15.9 49.5m-19.2-22c-1.8 16.4-9.4 27.6-18.1 41m-36.5-25.4c13.1-5.3 29-17.3 37.9-20.3 14.3-5.4 29.4-10.2 39.9-22.1 3-2.7 6.2-5.3 9.8-7.2m-93.6 27.6c26.3-6.2 30.1-12.4 42.2-15.2 4.3-1.5 8.8-2.5 13.4-2.7m-13.4-20.4c18-3.8 37.6 1.8 55-4.1m-38.1-33c2.4 8.8 12.9 11 19.4 8.9m-90.7-9.3c16.8 2.4 42.1-2.5 49.4-5.1 4.2-.8 8.5-2.2 11.8-5m-44.9-22.3c4.7 13.8 23.7 9.4 31.3 17.9m24.3-38.7c-11.5 5.1-23.9 8.9-32.6 18.5m-23.3-15.5c-14.4 .4-17.7 17.2-30.1 21.6m63.1-37.3c-13.8-2.2-24.2 .2-35.8 8.4m9.1-15.5c-15.3-.7-27 11.6-41.6 13.8m33.8-19.8c-15.6-7-30.4-8.3-45.5 1m88.2-46.8c9.2 13 34.5 28.3 35.2 34m-33.8-70.1c14.1 6.4 28.9 12.4 44.7 11.1m-24.3-34.4c13.4 4 23 13.7 28.2 26.6m47.2-8.4c5.9 15.6 3.1 30.6 4.1 46.6m6.4-115.4c1.4 15.5 4.8 36.6 12.2 45.3 1.9 2.3 3.4 6.9 3.8 8.9m60.4 6.2c-17.4 1.7-34.4 3.4-50.3 9.7m44.1-50.3c-15 5.4-24.5 20.4-39.4 25.6" stroke-width=".4"/>
<path d="m347.2 411.7c51.1 .5 101.9 50.9 79.6 32.8 9.4 8.5 17.5 18.5 23 30m18.6-1.7c-5.2-.6-10.3-2.5-14.2-6m30.3 13.4c-9-4.2-19-6.2-29-5.2m60 20.3c-14.1-2.8-28.4-22.7-52.9-5.7 15.5 7.4 57.4 14.9 52.9 5.7zm-338.8-167.7c-2.5-4.2-5.6-7.8-9.9-10.4m35.2 36.5c1.2-.8 6.4-3.4 7.8-3.9m-21.4 37.9c5.2-10.1 15.7-20.3 13.2-32.4m-94.4-21.2c7.6-2.4 18.5-7.6 19.8-15.9m-56.9 9.5c16-4.1 34.4-3.4 45.8-17.5m22.8-15.2c9.4-1.7 21.1-4.6 25.4-13.9m-87.2-43.5c10.7-.7 23.6 2.4 32.6-4.7m-58.7-41.2c8.6-14.9 32.2-24 47.2-12.4m-59-3.3c12.6 1 24.7-4.2 36.9-5.4m68.4-21.6c2.4 4.4 .7 9.5-1 13.8m12.3-40.1c4.6-5 6.6-14.4 3.5-20.4m-19.4-12.8c-.1 7.1 17 2 14.4 10.1m123.6-30.7c-13.4 5.4-21 6-42.6 7.9-7.4 1.8-1.4 3.1 8.1 .3m-8.8-34.5c-1.5 3.6 2 7 .1 11.1m-20.6-40.3c-2.2 20 23.3 32.8 18 51.8m42.2-14.6c-12.6 9.3-29.5 9.8-42.2 18.3m-85.9 38.5c3.5-.6 6.8-1.9 8-5.6"/>
</g>
</g>
<path d="m239.4 353.4c7.4-.6 15.2 1.9 22.2 4.3 2.5 1 6.6 2.3 6.6 5.2 0 7 6.6 11.3 8.9 17.5 1.4 3.9 1.2 8.4 2.9 11.8 1.4 2.7 1.1 4.4 3.7 6.4l7.8 4.1c-6.4 3.1-12 11.9-21.7 8.4-5.1-1.9-5.4-8.7-5.4-14-13-1.6-16.7-12.6-20-24.9-1.7-6.4-5.6-12.6-4.9-18.8z" fill="#006233" stroke="#1f1a17"/>
<path d="m337 413.8c-1.4 4.7-1.4 11.3-3.1 15.7-1.7 4.7-1.6 9.7-4.5 14-3.5 5.4-10.7 4.3-15.9 2.1-8.5-3.5-14.4-9.7-19.8-17.1-1.9-2.3-2.9-5.2-4.7-7.6-3.3-3.9-8.4-5.6-13.4-6-21.8-2.1-42.9-6-64.7-5.2-6.2 .2-12.4 2.9-18.1 6-2.9 1.6-5.8 3.7-8.4 6.2-5.2 4.7-13 5.1-18.5 9.3-2.7 2.5-3.5 6.8-5.4 10.5-2.5 4.9-3.5 10.5-1.2 15.2 3.7 6.8 10.7 10.3 17.9 12.8 13.8 4.7 27-1.7 39.8-7.2 3.9-1.6 6.6 1.6 10.3 .4 12.4-3.9 15.2-10.9 22.3-16.1-5.6-2.3-10.7-6.2-16.7-7.6-8.4-2.1-15 3.1-22.3 6-3.3 1.4-7.4 1.7-11.3 1-3.1-.8-6-2.1-8.5-4.1-.4-.4-.8-2.1 .6-2.3 4.3-1.2 8.5-.4 12.6-.6 10.5-.8 20.4-4.9 31.1-3.1 6.2 1 11.8 3.9 17.1 7 4.5 2.5 8.7 5.2 13 8.2 1.2 .8 2.7 6.6 3.9 7.4 10.7 7.2 20.6 9.7 32.4 15.5 5.2 2.5 15.7 3.5 21-.4 12.2-9.1 11.8-6.2 17.9-12.2 6.2-6.4 6.3-10.4 10.8-18.4l-5.9-28.8z" fill="#006233" stroke="#1f1a17"/>

<g fill="#d7110e" stroke="#1f1a17">
<path d="m457 353.4c-7.2-.6-15.2 1.9-22.2 4.3-2.5 1-6.6 2.3-6.6 5.2 0 7-6.6 11.3-8.9 17.5-1.4 3.9-1.2 8.4-2.9 11.8-1.4 2.7-1.9 5.2-4.5 7.2l-6.8 3.5c7 3.5 13.1 11.3 21.6 8.2 5.1-1.9 5.6-8.7 5.4-14 13-1.6 16.7-12.6 20-24.9 1.7-6.4 5.6-12.6 4.9-18.8z"/>
<path d="m363.2 416.1c1.2 4.7-.6 9 1.2 13.4 1.7 4.7 1.6 9.7 4.5 14 3.5 5.4 10.7 4.3 15.9 2.1 8.4-3.5 14.4-9.7 19.8-17.1 1.7-2.3 2.7-5.2 4.7-7.6 3.3-3.9 8.4-5.6 13.4-6 21.8-2.1 42.9-6 64.7-5.2 6.2 .2 12.4 2.9 18.1 6 2.9 1.6 5.8 3.7 8.4 6.2 5.2 4.7 13 5.1 18.3 9.3 2.9 2.5 3.7 6.8 5.6 10.5 2.5 4.9 3.5 10.5 1.2 15.2-3.7 6.8-10.7 10.3-17.9 12.8-13.8 4.7-27-1.7-39.8-7.2-3.9-1.6-8.5 3.1-12 1.6-10.7-5.1-14.8-11.3-21.8-16.5 5.6-2.1 11.8-7 17.7-8.4 8.5-2.1 15 3.1 22.5 6 3.3 1.4 7.4 1.7 11.3 1 3.1-.8 6-2.1 8.5-4.1 .4-.4 .8-2.1-.6-2.3-4.3-1.2-8.5-.4-12.6-.6-10.5-.8-20.4-4.9-31.1-3.1-6.2 1-11.8 3.9-17.1 7-4.5 2.5-8.9 5.2-13 8.2-1.2 .8-2.7 6.6-3.9 7.4-10.7 7.2-20.6 9.7-32.4 15.5-5.2 2.5-14.8 1.9-21-.4-7.2-2.7-11.3-2.1-17.1-8.2-6.2-6.6-3.5-7.4-8-15.4-4.9-8.5-3.7-12.4-4.1-22.3-.4-8.9-3.1-12.8-4.3-13.6 8-.4 17.6 1.4 21 1.7z"/>
<path d="m342.2 414.4s-7.6 2.7-10.9-6.8c-3.3-9.3-9.5-15.5-9.5-15.5s6.2-1.9 10.1-.6c0 0 12.2 1.9 13.6 5.4 1.4 3.3 6 11.5 2.7 16.7-3.5 5.4-6 .8-6 .8z"/>
</g>
<path d="m356.8 414.6s11.7 2.5 12.4-10.1c0.8-9.9-3.9-12-3.9-12s-7.8-1.7-11.3 .8c0 0-10.7 .6-8.5 3.7 2.7 3.9 .6 13 5.4 17.3 4.7 4.3 5.8 .4 5.8 .4z" fill="#006233" stroke="#1f1a17"/>
<path d="m358.9 400.2c2.2 4.3 2.2 9.9-1.2 13.6m-21-10.9c2.9 2.8 4.7 6.7 4.7 10.7m31.5 33.5c-8.7-.8-17.7 2.6-24.2-4m82.4 7.2c1-12.9-6.1-23.3-13.2-32.8m70.3 29.1c11.1 4.5 10.5 22.1 24 23.3l1.6 .1 1.6 .1m-6.2-29c9.1 2 20.3-7.5 27.6 .6m-106.3-44.1c-5.3 2-11 2.3-16.5 2.7m-88.5 46.4c10.4-2.2 11.6 0 20.7-6.5m-79.2 10c-1.1-13 5.9-23.3 13.2-32.8m-70.5 29.1c-11.1 4.5-10.5 22.2-24.1 23.3l-1.6 .1-1.6 .1m6.8-29c-9.1 2-20.3-7.5-27.6 .6m104.3-44.1c5.3 2 11 2.3 16.5 2.7" fill="none" stroke="#1f1a17"/>

<g stroke-linecap="round" stroke="none" stroke-linejoin="round" fill="#ffe805">
<path d="m466.5 322c-45.6-1.4-254.9-131.5-256.4-152.2l11.6-19.2c20.8 30 234.7 156.6 255.7 152.1l-10.9 19.3"/>
<path d="m219.2 148c-4.1 11 54.6 47.1 125.3 89.9 70.6 42.8 131.5 69.2 136.1 65.4 .3-.5 2.2-3.8 2-3.8-.8 1.3-2.9 1.7-6.1 .7-19.1-5.5-68.9-28.2-130.5-65.5s-115.3-71.6-123.6-86.1c-.6-1-1-2.9-.9-4.3l-.2-0-1.8 3.1-.2 .5h-0zm248.3 174.6c-.8 1.4-2.2 1.4-5 1.1-17.1-1.9-68.9-27-130.2-63.5-71.3-42.5-130.2-81.3-123.8-91.4l1.7-3.1 .3 .1c-5.7 17.2 116.3 86.6 123.4 91.1 70.6 43.6 130.1 69 135.4 62.4l-1.9 3.3v-0z" stroke="#1f1a17"/>
<path d="m348.5 182.3c45.7-.4 102.1-6.2 134.5-19.1l-7-11.3c-19.2 10.6-75.9 17.5-127.9 18.6-61.6-.6-105-6.3-126.8-20.8l-6.6 12c40 16.9 81 20.4 133.7 20.6"/>
<path d="m484.9 163.5c-1.1 1.8-22.3 9-53.4 14.4-21.1 3.2-48.7 6-83.1 6-32.7 0-59.4-2.3-79.6-5-32.7-5.1-49.6-12.2-55.8-14.7 .6-1.2 1-2 1.6-3.1 18 7.1 34.9 11.4 54.8 14.5 20.1 2.7 46.5 5.1 79 5 34.2-0 61.5-3 82.5-6.1 32-5.1 49.4-11.7 51.9-14.8l2.3 3.9h-0zm-6.1-11.5c-3.5 2.8-20.7 8.9-51.1 13.7-20.3 2.9-46 5.5-79 5.5-31.3 0-56.8-2.1-76.3-4.9-30.8-4-47.3-11.2-53.2-13.4 .6-1 1.2-2 1.8-3 4.6 2.3 20.4 8.7 51.7 13.1 19.2 2.7 44.8 4.7 75.9 4.7 32.8-0 58.2-2.7 78.4-5.6 30.5-4.2 47-12 49.4-13.9l2.2 3.7v0z" stroke="#1f1a17"/>
<path d="m198.5 237.1c28.1 15 90.5 22.6 149.6 23.2 53.8 .1 123.8-8.3 150-22.1l-.7-15.1c-8.2 12.8-83.3 25-149.9 24.5-66.6-.5-128.5-10.8-149.1-24l0.1 13.5"/>
<path d="m499.5 235 0 3.6c-3.9 4.7-28.6 11.8-59.6 16.8-23.6 3.6-54.3 6.3-92.6 6.3-36.4 0-65.4-2.6-87.8-6-35.6-5.2-58.3-14.2-62.8-16.9l0-4.2c13.7 9.1 50.9 15.7 63.3 17.8 22.3 3.4 51.2 6 87.4 6 38.1 0 68.6-2.7 92.1-6.3 22.2-3.2 53.8-11.5 60.1-17h0zm0-12.8 0 3.6c-3.9 4.7-28.6 11.8-59.6 16.8-23.6 3.6-54.3 6.3-92.6 6.3-36.4 0-65.4-2.6-87.8-6-35.6-5.2-58.3-14.2-62.8-16.9l0-4.2c13.7 9.1 50.9 15.7 63.3 17.8 22.3 3.4 51.2 6 87.4 6 38.1 0 68.6-2.7 92.1-6.3 22.2-3.2 53.8-11.5 60.1-17l0 0z" stroke="#1f1a17"/>
<path d="m348 319.4c-64.6-.4-120-17.6-131.7-20.4l8.5 13.3c20.6 8.7 74.7 21.6 123.8 20.1 49.1-1.4 92-5.2 122.3-19.9l8.7-13.8c-20.6 9.7-90.8 20.5-131.6 20.6"/>
<path d="m474.1 309.5c-1.3 2-2.6 3.9-3.9 5.8-14.3 5-36.7 10.3-46.2 11.8-19.4 4-49.4 6.9-76 6.9-57.2-.8-104.1-12-126.2-21.5l-1.8-3 .3-.5 3 1.2c39.2 14 83.2 19.5 124.9 20.6 26.5 .1 53-3 74.5-6.8 32.9-6.6 46.2-11.5 50.3-13.8l1-.6zm7.6-12.4c0 0 .1 .1 .1 .1-1 1.6-2 3.3-3 4.9-7.6 2.7-28.3 8.7-58.4 12.9-19.9 2.7-32.2 5.3-71.7 6.1-74.1-1.9-122-16.3-133.4-19.9l-1.7-3.2c42.9 11.2 86.8 19 135.1 19.8 36.2-.8 51.5-3.4 71.2-6.1 35.2-5.4 52.9-11.2 58.2-12.9-.1-.1-.1-.2-.2-.3l3.8-1.4-0 0z" stroke="#1f1a17" stroke-width=".8"/>
<path d="m348 94.8c74.2 0 134.1 60.1 134.1 134 0 73.9-59.9 133.6-134.1 133.6-74.2 0-134.3-59.9-134.3-133.8 0-73.9 60.1-133.8 134.3-133.8v-0zm0-13.2c81.3 0 147.6 66.1 147.6 147.1 0 81-66.3 147.1-147.6 147.1-81.3 0-147.6-66.1-147.6-147.1 0-81 66.3-147.1 147.6-147.1"/>

<g stroke="#1f1a17">
<path d="m348.1 79.8c82.4 0 149.6 66.9 149.6 149 0 82.1-67.2 149-149.6 149-82.4 0-149.6-66.9-149.6-149s67.2-149 149.6-149zm0 3.3c80.2 0 146.3 65.6 146.3 145.7 0 80.2-66.1 145.7-146.3 145.7s-146.3-65.6-146.3-145.7c0-80.2 66.1-145.7 146.3-145.7z"/>
<path d="m348.3 92.1c75.1 0 137 61.4 137 136.5s-61.9 136.5-137 136.5c-75.1 0-137-61.4-137-136.5s61.9-136.5 137-136.5zm0 3.3c73.3 0 133.7 60 133.7 133.2 0 73.3-60.4 133.2-133.7 133.2-73.3 0-133.7-60-133.7-133.2 0-73.3 60.4-133.2 133.7-133.2z"/>
<path d="m342.1 378.9h13v-299.8h-13z"/>
<path d="m353 77.4h3.3l0 302.9h-3.3l-0-302.9h-0zm-12.7 0h3.3l0 302.9h-3.3v-302.9h-0z"/>
<path d="m198 222.4c18.8-17.2 88-28.4 149.4-28.1 61.4 .3 134.1 12.9 150 27.7l0.2 12.8c-13.2-12.4-69.8-27.2-150-27.4-80.2-.2-138.5 15-149.5 27.7l0-12.8"/>
<path d="m348.2 205.7c35.3-.1 69.6 3.3 96.8 8.6 28.1 5.6 47.8 12.6 54.6 20.4l-0 3.9c-8.1-9.8-34.7-16.9-55.2-21-27-5.2-61-8.6-96.2-8.5-37.1 .1-71.6 3.6-98.2 8.7-21.3 4.2-49.8 12.6-53.3 20.9v-4c2-5.7 23.1-14.3 52.9-20.2 26.8-5.2 61.4-8.6 98.7-8.7zm0-12.8c35.3-.1 69.6 3.3 96.8 8.6 28.1 5.6 47.8 12.6 54.6 20.4l-0 3.9c-8.1-9.8-34.7-16.9-55.2-21-27-5.2-61-8.6-96.2-8.5-37.1 .1-71.4 3.6-98 8.7-20.6 3.9-50.2 12.6-53.5 20.9v-4c2-5.7 23.6-14.5 52.9-20.2 26.8-5.2 61.4-8.6 98.7-8.7z"/>
<path d="m347.5 127.7c55.7-.3 104.2 7.8 126.5 19.1l8.1 14c-19.3-10.4-71.7-21.2-134.5-19.5-51.2 .3-105.8 5.6-133.2 20.2l9.7-16.1c22.5-11.6 75.6-17.5 123.5-17.6"/>
<path d="m348.2 139.3c31.8-.1 62.4 1.7 86.8 6.1 22.7 4.2 44.4 10.5 47.5 13.9l2.4 4.2c-7.5-4.9-26.3-10.4-50.4-14.9-24.2-4.5-54.8-6-86.4-5.9-35.8-.1-63.7 1.8-87.6 5.9-25.3 4.7-42.8 11.4-47.1 14.6l2.4-4.5c8.4-4.3 21.7-9.4 44.2-13.4 24.7-4.5 52.8-5.8 88.3-6zm-0-12.8c30.4-.1 60.4 1.6 83.8 5.8 18.4 3.6 36.7 9.2 43.4 14.1l3.5 5.6c-6-6.6-28.5-12.9-48.3-16.4-23.2-4-52-5.6-82.4-5.8-31.9 .1-61.4 2-84.2 6.2-21.8 4.1-35.9 9-41.9 12.9l3.1-4.6c8.2-4.3 21.5-8.3 38.2-11.5 23-4.2 52.7-6.1 84.8-6.2z"/>
<path d="m422.5 290.7c-27.5-5.1-55.1-5.9-74.4-5.6-92.8 1.1-122.7 19-126.4 24.4l-6.9-11.3c23.6-17 74.1-26.6 133.8-25.6 31 .5 57.8 2.6 80.2 6.9l-6.4 11.2"/>
<path d="m347.6 283.5c25.8 .4 51.1 1.4 75.6 6l-1.8 3.1c-22.7-4.2-46.9-5.8-73.7-5.6-34.2-.3-68.9 2.9-99 11.5-9.5 2.6-25.3 8.7-26.9 13.8l-1.8-2.9c0.5-3 10-9.2 27.8-14.1 34.5-9.9 66.8-11.5 99.7-11.7v0zm1.2-12.9c26.7 .5 54.4 1.7 81.2 7l-1.8 3.2c-24.2-4.8-47.4-6.4-79.2-6.9-34.4 .1-70.8 2.5-103.9 12.1-10.7 3.1-29.2 9.8-29.8 15.1l-1.8-3.1c0.4-4.8 16.4-11.1 30.8-15.3 33.4-9.7 69.9-12.2 104.5-12.2z" stroke-width=".8"/>
<path d="m222.7 145.1c46-.6 258.2 129.2 258.8 153.1l-13.2 20.1c-5.9-27.8-221.3-154.1-256.8-151.7l11.2-21.5"/>
<path d="m210.3 165.9c8.5-5.8 71.2 22.1 136.8 61.4 65.4 39.5 127.9 84.2 122.3 92.5l-1.9 2.9-.9 .7c0.2-.1 1.1-1.3-.1-4.4-2.8-9.1-47.1-44.4-120.7-88.6-71.7-42.6-131.5-68.3-137.5-60.9l1.9-3.6zm272.6 133.8c5.4-10.6-52.8-54.2-124.8-96.7-73.8-41.6-126.9-66.1-136.6-58.8l-2.2 3.9c-0 .2 .1-.3 .5-.6 1.8-1.5 4.7-1.4 6-1.5 16.7 .2 64.5 22.1 131.5 60.4 29.4 17 124 77.5 123.6 94.5 0 1.5 .1 1.8-.4 2.5l2.4-3.6v-0z"/>
</g>
</g>
<path d="m258.7 243.9c0 24.5 10 46.7 26.3 62.9 16.3 16.2 38.5 26.5 63 26.5 24.7 0 47.1-10 63.3-26.2 16.2-16.2 26.3-38.5 26.3-63.1h-0v-119.4l-179-.2 0 119.5z" fill="#fff" stroke="#1f1a17"/>
<path d="m262 244.1v0.1c0 23.4 9.7 44.8 25.3 60.3 15.6 15.5 37.1 25.2 60.6 25.2 23.6 0 45.1-9.6 60.6-25.1 15.5-15.5 25.2-36.8 25.2-60.4h-0v-115.8l-171.6-0-.1 115.7m137.2-81 0 73.7c-.1 4.7 .1 9.8-.4 14.2-1.4 11.6-6.8 21.8-14.7 29.7-9.3 9.2-22.1 15-36.2 15-14.1 0-26.6-5.9-35.9-15.2-9.6-9.5-15.1-22.6-15.1-36.1l-0-81.4 102.4 .2 0 0z" fill="#d7110e" stroke="#1f1a17" stroke-width=".8"/>
<use transform="translate(0 39.2)" width="600" height="400" xlink:href="#a"/>
<use transform="translate(-.1 78.1)" width="600" height="400" xlink:href="#a"/>
<use transform="translate(31.4 39.2)" width="600" height="400" xlink:href="#a"/>
<path id="a" d="m337.1 175.5-0 16.2v0c0 3.3 1.3 6.4 3.3 8.6 2.1 2.2 4.9 3.6 8 3.6 3.1 0 5.9-1.4 8-3.6 2-2.2 3.3-5.2 3.3-8.6v-16.2zm5.3 8.4c-1.2 0-2.2-1-2.2-2.2 0-1.2 1-2.2 2.2-2.2 1.2 0 2.2 1 2.2 2.2s-1 2.2-2.2 2.2zm12.3-4.5c1.2 0 2.2 1 2.2 2.2 0 1.2-1 2.2-2.2 2.2-1.2 0-2.2-1-2.2-2.2 0-1.2 1-2.2 2.2-2.2zm-4 8.3c0 1.2-1 2.2-2.2 2.2-1.2 0-2.2-1-2.2-2.2 0-1.2 1-2.2 2.2-2.2s2.2 1 2.2 2.2zm4 8.5c-1.2 0-2.2-1-2.2-2.2 0-1.2 1-2.2 2.2-2.2 1.2 0 2.2 1 2.2 2.2s-1 2.2-2.2 2.2zm-12.2 0c-1.2-0-2.2-1-2.2-2.2 0-1.2 1-2.2 2.2-2.2s2.2 1 2.2 2.2-1 2.2-2.2 2.2z" fill="#002c77" stroke-width="1.5"/>
<use transform="translate(-31.4,39.2)" width="600" height="400" xlink:href="#a"/>

<g id="f">

<g id="e">
<path d="m273.1 158.5c0.2-8.3 6.1-10.3 6.2-10.3 0-0 6.4 2.1 6.4 10.4l-12.5-.1" fill="#ffe805" stroke-width="1.5"/>
<path d="m267.9 148.4-1 9.6 6.2 0c0.1-7.9 6-9.2 6.1-9.2 .1-0 6 1.7 6.2 9.2h6.3l-1.1-9.6-22.6 .1v0z" fill="#ffe805" stroke="#1f1a17" stroke-width=".8"/>
<path d="m292 158.1c0.5 0 1 .5 1 1.2 0 .6-.4 1.2-1 1.2h-25.5c-.5 0-1-.5-1-1.2 0-.6 .4-1.2 1-1.2z" fill="#ffe805" stroke="#1f1a17" stroke-width=".8"/>
<path d="m275.8 157.9c0-5 3.4-6.4 3.4-6.4 0 0 3.5 1.5 3.6 6.4h-7" fill="none" stroke="#1f1a17" stroke-width=".7"/>
<path d="m267 144.5h24.5c0.5 0 .9 .5 .9 1.1 0 .6-.4 1.1-.9 1.1h-24.5c-.5 0-.9-.5-.9-1.1 0-.6 .4-1.1 .9-1.1z" fill="#ffe805" stroke="#1f1a17" stroke-width=".8"/>
<path d="m291 146.6c0.5 0 .9 .5 .9 1.1 0 .6-.4 1.1-.9 1.1h-23.4c-.5 0-.9-.5-.9-1.1 0-.6 .4-1.1 .9-1.1z" fill="#ffe805" stroke="#1f1a17" stroke-width=".8"/>
<path d="m275.2 130.6 1.8 0v1.3h1.3v-1.3l1.9 0v1.3h1.4v-1.3h1.9l-0 3c0 .5-.4 .8-.8 .8h-6.6c-.4 0-.9-.4-.9-.8l-0-3h0z" fill="#ffe805" stroke="#1f1a17" stroke-width=".8"/>
<path d="m282.5 144.4-6.5-0 .4-9.7 5.6 0z" fill="#ffe805" stroke="#1f1a17" stroke-width=".8"/>
<use transform="translate(16)" width="600" height="400" xlink:href="#b"/>
<use transform="translate(16-0)" width="600" height="400" xlink:href="#c"/>
<path id="c" d="m267.2 135.3 1.8 0v1.3h1.3v-1.3l1.9 0v1.3h1.3v-1.3l1.9 0-0 3c0 .5-.4 .8-.8 .8h-6.5c-.4 0-.8-.4-.8-.8l-0-3z" fill="#ffe805" stroke="#1f1a17" stroke-width=".8"/>
<path id="b" d="m274.4 144.4-6.2 0 .2-5.2 5.8 0z" fill="#ffe805" stroke="#1f1a17" stroke-width=".8"/>
<path d="m278.6 137.7c-0-.9 1.3-1 1.3 0v2.3h-1.3v-2.3" fill="#1f1a17" stroke-width="1.5"/>
<use transform="translate(16)" width="600" height="400" xlink:href="#d"/>
<path id="d" d="m270.6 141c-0-.9 1.3-.9 1.2 0v1.8h-1.2v-1.8" fill="#1f1a17" stroke-width="1.5"/>
</g>
<use transform="translate(0,69.8)" xlink:href="#e"/>
<use transform="rotate(-45 458.7 197.1)" xlink:href="#e"/>
</g>
<use transform="translate(68.5,-0)" xlink:href="#e"/>
<use transform="matrix(-1 0 0 1 695.6 0)" xlink:href="#f"/>
</svg>
