<?xml version="1.0" encoding="UTF-8"?>
<!-- Created with Inkscape (http://www.inkscape.org/) -->
<svg id="svg3124" width="299.9936" height="299.9936" version="1.1" xmlns="http://www.w3.org/2000/svg" xmlns:cc="http://creativecommons.org/ns#" xmlns:dc="http://purl.org/dc/elements/1.1/" xmlns:rdf="http://www.w3.org/1999/02/22-rdf-syntax-ns#">
 <metadata id="metadata3129">
  <rdf:RDF>
   <cc:Work rdf:about="">
    <dc:format>image/svg+xml</dc:format>
    <dc:type rdf:resource="http://purl.org/dc/dcmitype/StillImage"/>
   </cc:Work>
  </rdf:RDF>
 </metadata>
 <g id="layer1" transform="translate(-237.8122 -339.6841)">
  <circle id="path25631" transform="matrix(1.764105 1.757812 -1.757812 1.764106 386.8908 277.7262)" cx="60.33506" cy="60.02875" r="60.0311" fill="#ffff00" stroke="#000000" stroke-linecap="round" stroke-linejoin="round" stroke-width=".401546"/>
  <circle id="path5473" transform="matrix(1.588305 0 0 1.588305 128.507 -285.5602)" cx="163.2571" cy="488.0934" r="33.0541" fill="#ffffff"/>
  <g id="g24635" transform="matrix(1.494774 0 0 1.488827 238.3316 341.393)" fill="none" stroke="#de2919" stroke-width=".986036px">
   <path id="path23611" d="m160.1148 154.8353-24.02286-7.13909"/>
   <g id="g23641">
    <path id="path23589" d="m65.03952 174.7933c-15.87089-4.04552-35.7873-29.87462-37.03207-35.16491 7.157459 0 142.838 0.31119 142.838 0.31119-7.15746 17.11567-30.18581 32.98655-35.47611 34.23133"/>
    <path id="path23591" d="m29.87461 143.3627h139.1037"/>
    <path id="path23593" d="m32.98655 147.7194h133.5022"/>
    <path id="path23595" d="m38.58804 154.8769h121.988"/>
    <g id="g23631">
     <path id="path23599" d="m55.89356 170.4366h86.32204"/>
     <path id="path23601" d="m54.81789 169.7545h88.78176"/>
    </g>
    <g id="g23635">
     <path id="path23597" d="m45.08529 161.7232h108.7888"/>
     <path id="path23603" d="m44.53825 161.1045h109.8605"/>
    </g>
    <path id="path23605" d="m37.96726 143.4165 11.35456-3.81795"/>
    <path id="path23607" d="m160.8446 143.4089-11.67004-3.66664"/>
    <path id="path23609" d="m38.95214 154.6834 23.72353-6.93614"/>
    <path id="path23613" d="m141.6103 143.3734 14.11064 4.37229"/>
    <path id="path23615" d="m51.87202 161.4316 11.35082-6.46874"/>
    <path id="path23617" d="m147.3165 161.4316-11.96107-6.5908"/>
    <path id="path23619" d="m58.09666 169.6091 10.3744-8.05542"/>
    <path id="path23621" d="m140.9698 170.2194-10.49645-8.54363"/>
    <path id="path23623" d="m107.5276 143.49-5.24823-3.66156"/>
    <path id="path23625" d="m85.80242 143.49 5.736434-3.78361"/>
    <path id="path23627" d="m111.4333 169.9753-3.41746-8.42158"/>
    <path id="path23629" d="m87.02294 170.0973 3.661554-8.42158"/>
    <path id="path23639" d="m44.07347 147.7198 12.35155-4.33724"/>
   </g>
  </g>
  <path id="path3180" d="m330.0858 610.9062c27.42447 13.30276 70.98316 21.23827 115.9812-0.1235" fill="none" stroke="#ffffff" stroke-width="29.3886"/>
  <g id="g9485" transform="matrix(1.494774 0 0 1.506309 238.3316 339.6664)">
   <g id="g20487" transform="rotate(11.12082 117.2637 -4.729133)" fill="none" stroke="#ef8410" stroke-width=".986924px">
    <path id="path16986" d="m120.4914 64.81278-2e-3 -38.41717"/>
    <path id="path20480" d="m118.477 64.81278-0.0129-19.40733"/>
    <path id="path20482" d="m122.5162 64.81278-0.0129-19.40733"/>
   </g>
   <g id="g20653">
    <g id="g20504">
     <g id="g20466" transform="translate(.02894978)" fill="#00943a" fill-rule="evenodd" stroke="#00943a" stroke-width=".980297px">
      <path id="path17044" d="m98.91949 22.4779h-5.30505l4.28048 40.53404 1.076127-0.0391-0.05156-40.49494z"/>
      <path id="path20464" d="m101.0226 22.4779h5.30505l-4.28048 40.53404-1.07613-0.0391 0.0516-40.49494z"/>
     </g>
     <g id="g20492" transform="matrix(-.9812226 .1928785 .1928785 .9812226 198.7187 -22.70645)" fill="none" stroke="#ef8410" stroke-width=".986924px">
      <path id="path20494" d="m120.4914 64.81278-2e-3 -38.41717"/>
      <path id="path20496" d="m118.477 64.81278-0.0129-19.40733"/>
      <path id="path20498" d="m122.5162 64.81278-0.0129-19.40733"/>
     </g>
    </g>
    <g id="g20577" transform="translate(0 .0476392)">
     <g id="g20529" transform="rotate(-24.34078 100.4332 101.4631)">
      <g id="g20531" transform="translate(.02894978)" fill="#00943a" fill-rule="evenodd" stroke="#00943a" stroke-width=".980297px">
       <path id="path20533" d="m98.91949 22.4779h-5.30505l4.28048 40.53404 1.076127-0.0391-0.05156-40.49494z"/>
       <path id="path20535" d="m101.0226 22.4779h5.30505l-4.28048 40.53404-1.07613-0.0391 0.0516-40.49494z"/>
      </g>
      <g id="g20537" transform="matrix(-.9812226 .1928785 .1928785 .9812226 198.7187 -22.70645)" fill="none" stroke="#ef8410" stroke-width=".986924px">
       <path id="path20539" d="m120.4914 64.81278-2e-3 -38.41717"/>
       <path id="path20541" d="m118.477 64.81278-0.0129-19.40733"/>
       <path id="path20543" d="m122.5162 64.81278-0.0129-19.40733"/>
      </g>
     </g>
     <g id="g20545" transform="rotate(-49.09801 99.81541 99.68198)">
      <g id="g20547" transform="translate(.02894978)" fill="#00943a" fill-rule="evenodd" stroke="#00943a" stroke-width=".980297px">
       <path id="path20549" d="m98.91949 22.4779h-5.30505l4.28048 40.53404 1.076127-0.0391-0.05156-40.49494z"/>
       <path id="path20551" d="m101.0226 22.4779h5.30505l-4.28048 40.53404-1.07613-0.0391 0.0516-40.49494z"/>
      </g>
      <g id="g20553" transform="matrix(-.9812226 .1928785 .1928785 .9812226 198.7187 -22.70645)" fill="none" stroke="#ef8410" stroke-width=".986924px">
       <path id="path20555" d="m120.4914 64.81278-2e-3 -38.41717"/>
       <path id="path20557" d="m118.477 64.81278-0.0129-19.40733"/>
       <path id="path20559" d="m122.5162 64.81278-0.0129-19.40733"/>
      </g>
     </g>
     <g id="g20561" transform="rotate(-72.93796 100.0121 100.0262)">
      <g id="g20563" transform="translate(.02894978)" fill="#00943a" fill-rule="evenodd" stroke="#00943a" stroke-width=".980297px">
       <path id="path20565" d="m98.91949 22.4779h-5.30505l4.28048 40.53404 1.076127-0.0391-0.05156-40.49494z"/>
       <path id="path20567" d="m101.0226 22.4779h5.30505l-4.28048 40.53404-1.07613-0.0391 0.0516-40.49494z"/>
      </g>
      <g id="g20569" transform="matrix(-.9812226 .1928785 .1928785 .9812226 198.7187 -22.70645)" fill="none" stroke="#ef8410" stroke-width=".986924px">
       <path id="path20571" d="m120.4914 64.81278-2e-3 -38.41717"/>
       <path id="path20573" d="m118.477 64.81278-0.0129-19.40733"/>
       <path id="path20575" d="m122.5162 64.81278-0.0129-19.40733"/>
      </g>
     </g>
    </g>
    <g id="g20603" transform="matrix(-1 0 0 1 199.9946 .0476392)">
     <g id="g20605" transform="rotate(-24.34078 100.4332 101.4631)">
      <g id="g20607" transform="translate(.02894978)" fill="#00943a" fill-rule="evenodd" stroke="#00943a" stroke-width=".980297px">
       <path id="path20609" d="m98.91949 22.4779h-5.30505l4.28048 40.53404 1.076127-0.0391-0.05156-40.49494z"/>
       <path id="path20611" d="m101.0226 22.4779h5.30505l-4.28048 40.53404-1.07613-0.0391 0.0516-40.49494z"/>
      </g>
      <g id="g20613" transform="matrix(-.9812226 .1928785 .1928785 .9812226 198.7187 -22.70645)" fill="none" stroke="#ef8410" stroke-width=".986924px">
       <path id="path20615" d="m120.4914 64.81278-2e-3 -38.41717"/>
       <path id="path20617" d="m118.477 64.81278-0.0129-19.40733"/>
       <path id="path20619" d="m122.5162 64.81278-0.0129-19.40733"/>
      </g>
     </g>
     <g id="g20621" transform="rotate(-49.09801 99.81541 99.68198)">
      <g id="g20623" transform="translate(.02894978)" fill="#00943a" fill-rule="evenodd" stroke="#00943a" stroke-width=".980297px">
       <path id="path20625" d="m98.91949 22.4779h-5.30505l4.28048 40.53404 1.076127-0.0391-0.05156-40.49494z"/>
       <path id="path20627" d="m101.0226 22.4779h5.30505l-4.28048 40.53404-1.07613-0.0391 0.0516-40.49494z"/>
      </g>
      <g id="g20629" transform="matrix(-.9812226 .1928785 .1928785 .9812226 198.7187 -22.70645)" fill="none" stroke="#ef8410" stroke-width=".986924px">
       <path id="path20631" d="m120.4914 64.81278-2e-3 -38.41717"/>
       <path id="path20633" d="m118.477 64.81278-0.0129-19.40733"/>
       <path id="path20635" d="m122.5162 64.81278-0.0129-19.40733"/>
      </g>
     </g>
     <g id="g20637" transform="rotate(-72.93796 100.0121 100.0262)">
      <g id="g20639" transform="translate(.02894978)" fill="#00943a" fill-rule="evenodd" stroke="#00943a" stroke-width=".980297px">
       <path id="path20641" d="m98.91949 22.4779h-5.30505l4.28048 40.53404 1.076127-0.0391-0.05156-40.49494z"/>
       <path id="path20643" d="m101.0226 22.4779h5.30505l-4.28048 40.53404-1.07613-0.0391 0.0516-40.49494z"/>
      </g>
      <g id="g20645" transform="matrix(-.9812226 .1928785 .1928785 .9812226 198.7187 -22.70645)" fill="none" stroke="#ef8410" stroke-width=".986924px">
       <path id="path20647" d="m120.4914 64.81278-2e-3 -38.41717"/>
       <path id="path20649" d="m118.477 64.81278-0.0129-19.40733"/>
       <path id="path20651" d="m122.5162 64.81278-0.0129-19.40733"/>
      </g>
     </g>
    </g>
   </g>
  </g>
  <g id="g5474" transform="matrix(1.494774 0 0 1.488827 238.0215 341.393)" fill="#60bc24" fill-rule="evenodd" stroke="#60bc24" stroke-width=".493018">
   <g id="g4284" transform="rotate(-1.098844 34.28059 143.0327)">
    <g id="g4194">
     <path id="path3221" d="m60.42487 179.2603c1.155584-1.30763-1.702966-4.40946-3.071421-5.47382-0.669022 1.67256 0.912303 5.96038 3.071421 5.47382z"/>
     <path id="path4192" d="m58.69597 181.1184c-0.660744 1.61515-4.707682 0.42562-6.267966-0.33005 1.2034-1.34047 5.748154-1.8213 6.267966 0.33005z"/>
    </g>
    <g id="g4198" transform="translate(-5.228673 -3.338656)">
     <path id="path4200" d="m60.42487 179.2603c1.155584-1.30763-1.702966-4.40946-3.071421-5.47382-0.669022 1.67256 0.912303 5.96038 3.071421 5.47382z"/>
     <path id="path4202" d="m58.69597 181.1184c-0.660744 1.61515-4.707682 0.42562-6.267966-0.33005 1.2034-1.34047 5.748154-1.8213 6.267966 0.33005z"/>
    </g>
    <g id="g4204" transform="translate(-11.37151 -7.139919)">
     <path id="path4206" d="m60.42487 179.2603c1.155584-1.30763-1.702966-4.40946-3.071421-5.47382-0.669022 1.67256 0.912303 5.96038 3.071421 5.47382z"/>
     <path id="path4208" d="m58.69597 181.1184c-0.660744 1.61515-4.707682 0.42562-6.267966-0.33005 1.2034-1.34047 5.748154-1.8213 6.267966 0.33005z"/>
    </g>
    <g id="g4210" transform="rotate(11.43778 103.5844 90.3455)">
     <path id="path4212" d="m60.42487 179.2603c1.155584-1.30763-1.702966-4.40946-3.071421-5.47382-0.669022 1.67256 0.912303 5.96038 3.071421 5.47382z"/>
     <path id="path4214" d="m58.69597 181.1184c-0.660744 1.61515-4.707682 0.42562-6.267966-0.33005 1.2034-1.34047 5.748154-1.8213 6.267966 0.33005z"/>
    </g>
    <g id="g4216" transform="rotate(17.06823 97.09868 99.51572)">
     <path id="path4218" d="m60.42487 179.2603c1.155584-1.30763-1.702966-4.40946-3.071421-5.47382-0.669022 1.67256 0.912303 5.96038 3.071421 5.47382z"/>
     <path id="path4220" d="m58.69597 181.1184c-0.660744 1.61515-4.707682 0.42562-6.267966-0.33005 1.2034-1.34047 5.748154-1.8213 6.267966 0.33005z"/>
    </g>
    <g id="g4222" transform="rotate(23.21328 93.33039 105.8615)">
     <path id="path4224" d="m60.42487 179.2603c1.155584-1.30763-1.702966-4.40946-3.071421-5.47382-0.669022 1.67256 0.912303 5.96038 3.071421 5.47382z"/>
     <path id="path4226" d="m58.69597 181.1184c-0.660744 1.61515-4.707682 0.42562-6.267966-0.33005 1.2034-1.34047 5.748154-1.8213 6.267966 0.33005z"/>
    </g>
    <g id="g4228" transform="rotate(26.86244 96.19585 103.3856)">
     <path id="path4230" d="m60.42487 179.2603c1.155584-1.30763-1.702966-4.40946-3.071421-5.47382-0.669022 1.67256 0.912303 5.96038 3.071421 5.47382z"/>
     <path id="path4232" d="m58.69597 181.1184c-0.660744 1.61515-4.707682 0.42562-6.267966-0.33005 1.2034-1.34047 5.748154-1.8213 6.267966 0.33005z"/>
    </g>
    <g id="g4234" transform="rotate(26.86244 106.3203 93.40102)">
     <path id="path4236" d="m60.42487 179.2603c1.155584-1.30763-1.702966-4.40946-3.071421-5.47382-0.669022 1.67256 0.912303 5.96038 3.071421 5.47382z"/>
     <path id="path4238" d="m58.69597 181.1184c-0.660744 1.61515-4.707682 0.42562-6.267966-0.33005 1.2034-1.34047 5.748154-1.8213 6.267966 0.33005z"/>
    </g>
    <g id="g4240" transform="rotate(36.54876 94.85386 104.3787)">
     <path id="path4242" d="m60.42487 179.2603c1.155584-1.30763-1.702966-4.40946-3.071421-5.47382-0.669022 1.67256 0.912303 5.96038 3.071421 5.47382z"/>
     <path id="path4244" d="m58.69597 181.1184c-0.660744 1.61515-4.707682 0.42562-6.267966-0.33005 1.2034-1.34047 5.748154-1.8213 6.267966 0.33005z"/>
    </g>
    <g id="g4246" transform="rotate(40.81023 94.81317 104.2784)">
     <path id="path4248" d="m60.42487 179.2603c1.155584-1.30763-1.702966-4.40946-3.071421-5.47382-0.669022 1.67256 0.912303 5.96038 3.071421 5.47382z"/>
     <path id="path4250" d="m58.69597 181.1184c-0.660744 1.61515-4.707682 0.42562-6.267966-0.33005 1.2034-1.34047 5.748154-1.8213 6.267966 0.33005z"/>
    </g>
    <g id="g4252" transform="rotate(43.4559 97.26005 101.594)">
     <path id="path4254" d="m60.42487 179.2603c1.155584-1.30763-1.702966-4.40946-3.071421-5.47382-0.669022 1.67256 0.912303 5.96038 3.071421 5.47382z"/>
     <path id="path4256" d="m58.69597 181.1184c-0.660744 1.61515-4.707682 0.42562-6.267966-0.33005 1.2034-1.34047 5.748154-1.8213 6.267966 0.33005z"/>
    </g>
    <g id="g4258" transform="rotate(50.82412 93.03144 105.3976)">
     <path id="path4260" d="m60.42487 179.2603c1.155584-1.30763-1.702966-4.40946-3.071421-5.47382-0.669022 1.67256 0.912303 5.96038 3.071421 5.47382z"/>
     <path id="path4262" d="m58.69597 181.1184c-0.660744 1.61515-4.707682 0.42562-6.267966-0.33005 1.2034-1.34047 5.748154-1.8213 6.267966 0.33005z"/>
    </g>
    <g id="g4264" transform="rotate(50.82412 98.97574 101.5394)">
     <path id="path4266" d="m60.42487 179.2603c1.155584-1.30763-1.702966-4.40946-3.071421-5.47382-0.669022 1.67256 0.912303 5.96038 3.071421 5.47382z"/>
     <path id="path4268" d="m58.69597 181.1184c-0.660744 1.61515-4.707682 0.42562-6.267966-0.33005 1.2034-1.34047 5.748154-1.8213 6.267966 0.33005z"/>
    </g>
    <g id="g4270" transform="rotate(57.08531 96.09908 103.9535)">
     <path id="path4272" d="m60.42487 179.2603c1.155584-1.30763-1.702966-4.40946-3.071421-5.47382-0.669022 1.67256 0.912303 5.96038 3.071421 5.47382z"/>
     <path id="path4274" d="m58.69597 181.1184c-0.660744 1.61515-4.707682 0.42562-6.267966-0.33005 1.2034-1.34047 5.748154-1.8213 6.267966 0.33005z"/>
    </g>
    <path id="path4280" d="m12.44774 109.9015c-1.644409-0.58413-0.889585-4.16552-0.208048-5.75958 1.39552 1.13911 2.332603 5.13928 0.208048 5.75958z"/>
   </g>
   <g id="g5386" transform="matrix(-.9998161 -.01917727 -.01917727 .9998161 203.1516 .6837118)">
    <g id="g5388">
     <path id="path5390" d="m60.42487 179.2603c1.155584-1.30763-1.702966-4.40946-3.071421-5.47382-0.669022 1.67256 0.912303 5.96038 3.071421 5.47382z"/>
     <path id="path5392" d="m58.69597 181.1184c-0.660744 1.61515-4.707682 0.42562-6.267966-0.33005 1.2034-1.34047 5.748154-1.8213 6.267966 0.33005z"/>
    </g>
    <g id="g5394" transform="translate(-5.228673 -3.338656)">
     <path id="path5396" d="m60.42487 179.2603c1.155584-1.30763-1.702966-4.40946-3.071421-5.47382-0.669022 1.67256 0.912303 5.96038 3.071421 5.47382z"/>
     <path id="path5398" d="m58.69597 181.1184c-0.660744 1.61515-4.707682 0.42562-6.267966-0.33005 1.2034-1.34047 5.748154-1.8213 6.267966 0.33005z"/>
    </g>
    <g id="g5400" transform="translate(-11.37151 -7.139919)">
     <path id="path5402" d="m60.42487 179.2603c1.155584-1.30763-1.702966-4.40946-3.071421-5.47382-0.669022 1.67256 0.912303 5.96038 3.071421 5.47382z"/>
     <path id="path5404" d="m58.69597 181.1184c-0.660744 1.61515-4.707682 0.42562-6.267966-0.33005 1.2034-1.34047 5.748154-1.8213 6.267966 0.33005z"/>
    </g>
    <g id="g5406" transform="rotate(11.43778 103.5844 90.3455)">
     <path id="path5408" d="m60.42487 179.2603c1.155584-1.30763-1.702966-4.40946-3.071421-5.47382-0.669022 1.67256 0.912303 5.96038 3.071421 5.47382z"/>
     <path id="path5410" d="m58.69597 181.1184c-0.660744 1.61515-4.707682 0.42562-6.267966-0.33005 1.2034-1.34047 5.748154-1.8213 6.267966 0.33005z"/>
    </g>
    <g id="g5412" transform="rotate(17.06823 97.09868 99.51572)">
     <path id="path5414" d="m60.42487 179.2603c1.155584-1.30763-1.702966-4.40946-3.071421-5.47382-0.669022 1.67256 0.912303 5.96038 3.071421 5.47382z"/>
     <path id="path5416" d="m58.69597 181.1184c-0.660744 1.61515-4.707682 0.42562-6.267966-0.33005 1.2034-1.34047 5.748154-1.8213 6.267966 0.33005z"/>
    </g>
    <g id="g5418" transform="rotate(23.21328 93.33039 105.8615)">
     <path id="path5420" d="m60.42487 179.2603c1.155584-1.30763-1.702966-4.40946-3.071421-5.47382-0.669022 1.67256 0.912303 5.96038 3.071421 5.47382z"/>
     <path id="path5422" d="m58.69597 181.1184c-0.660744 1.61515-4.707682 0.42562-6.267966-0.33005 1.2034-1.34047 5.748154-1.8213 6.267966 0.33005z"/>
    </g>
    <g id="g5424" transform="rotate(26.86244 96.19585 103.3856)">
     <path id="path5426" d="m60.42487 179.2603c1.155584-1.30763-1.702966-4.40946-3.071421-5.47382-0.669022 1.67256 0.912303 5.96038 3.071421 5.47382z"/>
     <path id="path5428" d="m58.69597 181.1184c-0.660744 1.61515-4.707682 0.42562-6.267966-0.33005 1.2034-1.34047 5.748154-1.8213 6.267966 0.33005z"/>
    </g>
    <g id="g5430" transform="rotate(26.86244 106.3203 93.40102)">
     <path id="path5432" d="m60.42487 179.2603c1.155584-1.30763-1.702966-4.40946-3.071421-5.47382-0.669022 1.67256 0.912303 5.96038 3.071421 5.47382z"/>
     <path id="path5434" d="m58.69597 181.1184c-0.660744 1.61515-4.707682 0.42562-6.267966-0.33005 1.2034-1.34047 5.748154-1.8213 6.267966 0.33005z"/>
    </g>
    <g id="g5436" transform="rotate(36.54876 94.85386 104.3787)">
     <path id="path5438" d="m60.42487 179.2603c1.155584-1.30763-1.702966-4.40946-3.071421-5.47382-0.669022 1.67256 0.912303 5.96038 3.071421 5.47382z"/>
     <path id="path5440" d="m58.69597 181.1184c-0.660744 1.61515-4.707682 0.42562-6.267966-0.33005 1.2034-1.34047 5.748154-1.8213 6.267966 0.33005z"/>
    </g>
    <g id="g5442" transform="rotate(40.81023 94.81317 104.2784)">
     <path id="path5444" d="m60.42487 179.2603c1.155584-1.30763-1.702966-4.40946-3.071421-5.47382-0.669022 1.67256 0.912303 5.96038 3.071421 5.47382z"/>
     <path id="path5446" d="m58.69597 181.1184c-0.660744 1.61515-4.707682 0.42562-6.267966-0.33005 1.2034-1.34047 5.748154-1.8213 6.267966 0.33005z"/>
    </g>
    <g id="g5448" transform="rotate(43.4559 97.26005 101.594)">
     <path id="path5450" d="m60.42487 179.2603c1.155584-1.30763-1.702966-4.40946-3.071421-5.47382-0.669022 1.67256 0.912303 5.96038 3.071421 5.47382z"/>
     <path id="path5452" d="m58.69597 181.1184c-0.660744 1.61515-4.707682 0.42562-6.267966-0.33005 1.2034-1.34047 5.748154-1.8213 6.267966 0.33005z"/>
    </g>
    <g id="g5454" transform="rotate(50.82412 93.03144 105.3976)">
     <path id="path5456" d="m60.42487 179.2603c1.155584-1.30763-1.702966-4.40946-3.071421-5.47382-0.669022 1.67256 0.912303 5.96038 3.071421 5.47382z"/>
     <path id="path5458" d="m58.69597 181.1184c-0.660744 1.61515-4.707682 0.42562-6.267966-0.33005 1.2034-1.34047 5.748154-1.8213 6.267966 0.33005z"/>
    </g>
    <g id="g5460" transform="rotate(50.82412 98.97574 101.5394)">
     <path id="path5462" d="m60.42487 179.2603c1.155584-1.30763-1.702966-4.40946-3.071421-5.47382-0.669022 1.67256 0.912303 5.96038 3.071421 5.47382z"/>
     <path id="path5464" d="m58.69597 181.1184c-0.660744 1.61515-4.707682 0.42562-6.267966-0.33005 1.2034-1.34047 5.748154-1.8213 6.267966 0.33005z"/>
    </g>
    <g id="g5466" transform="rotate(57.08531 96.09908 103.9535)">
     <path id="path5468" d="m60.42487 179.2603c1.155584-1.30763-1.702966-4.40946-3.071421-5.47382-0.669022 1.67256 0.912303 5.96038 3.071421 5.47382z"/>
     <path id="path5470" d="m58.69597 181.1184c-0.660744 1.61515-4.707682 0.42562-6.267966-0.33005 1.2034-1.34047 5.748154-1.8213 6.267966 0.33005z"/>
    </g>
    <path id="path5472" d="m12.44774 109.9015c-1.644409-0.58413-0.889585-4.16552-0.208048-5.75958 1.39552 1.13911 2.332603 5.13928 0.208048 5.75958z"/>
   </g>
  </g>
  <path id="path27572" d="m321.6508 496.1836c-1.73243 35.61932 25.5453 61.97766 43.73573 65.6036v-9.91977c-21.5005-7.29146-36.58949-25.39674-43.73573-55.68383zm132.3164 0c-7.14624 30.28709-22.26693 48.39237-43.76742 55.68383v9.91977c18.19043-3.62594 45.49985-29.98428 43.76742-65.6036zm-86.99608 56.06414v9.72962c6.33469 1.77887 10.34767 5.56441 13.12072 11.25086 2.43138 4.9858 3.10101 10.60324 3.96157 14.38842 0.11669 0.51327-0.0557 0.87592-0.25354 0.88739-0.28626 0.0166-0.42054-0.48186-0.47539-0.69724-1.67626-6.58268-4.44042-12.40667-7.03575-16.6069-1.446-2.34019-3.11238-4.64542-5.19758-6.30682-0.71422-0.56907-1.44541-0.65794-2.28186-0.38031 0.32517 2.94182 0.90335 5.77594 2.21848 8.43022 1.36837 2.76175 2.93795 4.28482 4.2468 6.30682 1.30885 2.02201 2.50961 4.51838 3.51788 9.25423 0.7835 3.68013 0.73822 8.55807 1.48955 12.51856 0.79515 4.19149 3.21106 6.78221 7.51113 6.78221 4.30008 0 6.71599-2.59072 7.51114-6.78221 0.75133-3.96049 0.70605-8.83843 1.48955-12.51856 1.00827-4.73585 2.20903-7.23222 3.51788-9.25423 1.30884-2.022 2.87843-3.54507 4.2468-6.30682 1.31512-2.65428 1.89331-5.4884 2.21848-8.43022-0.83645-0.27763-1.56764-0.18876-2.28187 0.38031-2.08519 1.6614-3.75157 3.96663-5.19758 6.30682-2.59532 4.20023-5.35948 10.02422-7.03574 16.6069-0.0549 0.21538-0.18914 0.71387-0.47539 0.69724-0.19786-0.0115-0.37023-0.37412-0.25354-0.88739 0.86055-3.78518 1.53018-9.40262 3.96157-14.38842 2.77305-5.68645 6.78603-9.47199 13.12072-11.25086v-9.72962c-6.48501 2.5486-13.88786 3.51787-20.82202 3.51787s-14.337-0.96927-20.82201-3.51787zm-6.65544 10.80716c-6.97332 0.24552-14.21962 2.1961-15.94136 7.32098 5.35308 1.93463 15.84885 0.0388 20.66355-7.2259-1.5074-0.10517-3.11296-0.15179-4.72219-0.095zm51.78565 0c-0.51908 0.0185-1.01878 0.0601-1.52124 0.095 4.8147 7.26464 15.31048 9.16053 20.66355 7.2259-1.98662-5.91332-11.35612-7.59754-19.14231-7.32098z" fill="#de2919" fill-rule="evenodd"/>
  <g id="g35349" transform="matrix(1.494774 0 0 1.488827 238.3316 341.393)" stroke="#de2919">
   <path id="path30498" d="m111.4911 70.10982c-3.66093 4.792256-9.76167 16.26134-22.05452 18.76462-0.365544 2.436963-3.094351 4.51275-3.289901 7.189044-0.300255 4.1093 2.462455 7.05598 2.071419 9.74785-0.573641 2.6209-3.529418 4.87581-4.264687 6.70166-1.777055 4.41284-1.944191 6.12111 1.827723 10.84448 3.093034 5.67109 5.387119 5.6845 5.605018 5.97056 9.223923-3.653 9.769943-6.64606 9.869703-6.70165 1.21849-2.55881 9.38231-31.07128 9.38231-31.07128-0.73109-1.949571-1.21848-7.920133-1.21848-7.920133 1.15449 2.129982 0.99961 1.795685 2.92436 6.214259 2.79451-4.273148 1.58433-6.946214 1.58402-6.945348-2.59401-10.61091-2.31539-12.55168-2.43696-12.79406z" fill="#de2919" fill-rule="evenodd" stroke-width=".986036px"/>
   <path id="path32438" d="m101.8651 77.90811c0.48739-1.949571 0.73109-2.193268 0.73109-2.193268" fill="none" stroke-width="1.08464"/>
   <path id="path32440" d="m112.8314 94.47946 1.21848-2.436964" fill="none" stroke-width="1.38045"/>
  </g>
  <g id="g4083" transform="matrix(1.064458 0 0 1.076737 235.1106 335.6403)">
   <path id="path1445" d="m23.40945 112.615q0.369461-0.5591 1.201141-0.95603 0.834168-0.40638 2.178281-0.67841l4.362912-0.92091-0.539842 2.04923-4.091996 0.85089q-1.60061 0.32565-2.23748 0.86479-0.634384 0.5297-0.932913 1.66291l-0.547305 2.07756 5.958809 1.56977-0.502526 1.90757-14.09905-3.71421 1.134415-4.30621q0.636864-2.41752 1.960769-3.34121 1.323902-0.92367 3.363685-0.38632 1.331525 0.35078 2.045573 1.2054 0.716538 0.84518 0.745531 2.11518zm-7.179836 3.21855 5.005023 1.31851 0.631888-2.39864q0.363212-1.37874-0.08541-2.24422-0.45557-0.87744-1.692661-1.20333-1.23709-0.3259-2.04694 0.21818-0.816803 0.53213-1.180014 1.91087z"/>
   <path id="path1448" d="m18.52836 102 3.255008-8.624981 1.553227 0.586177-2.558492 6.779384 4.038391 1.52406 2.451601-6.496147 1.553227 0.586177-2.451601 6.49614 4.942917 1.86543 2.620558-6.943842 1.553228 0.586178-3.317074 8.789434z"/>
   <path id="path1451" d="m26.40708 86.99548 4.876638 2.496504 1.130325-2.207961q0.627463-1.225679 0.33555-2.219878-0.291914-0.9942-1.465437-1.594963-1.16483-0.596313-2.142059-0.251828-0.977228 0.344486-1.604692 1.570165zm-2.341917 1.017221 2.029244-3.963898q1.116975-2.181883 2.677561-2.787245 1.556345-0.618505 3.460059 0.356067 1.9211 0.983471 2.32932 2.607698 0.412669 1.615534-0.704306 3.797416l-1.130325 2.207962 5.215656 2.670058-0.89892 1.755937z"/>
   <path id="path1454" d="m35.57443 70.59934q-1.180296 1.795184-0.539515 3.735832 0.646145 1.932487 2.955405 3.450776 2.3011 1.512924 4.331411 1.34015 2.035675-0.180934 3.215971-1.976118 1.180295-1.795184 0.528784-3.719511-0.646146-1.932488-2.947245-3.445412-2.30926-1.51829-4.33957-1.345515-2.024946 0.164614-3.205241 1.959798zm-1.338228-0.879857q1.684603-2.562217 4.414964-2.964272 2.722201-0.407422 5.610816 1.491781 2.880454 1.893838 3.593583 4.559916 0.704969 2.660711-0.979635 5.222929-1.689969 2.570377-4.417534 2.985958-2.722202 0.40742-5.610817-1.491782-2.888614-1.899203-3.593582-4.559915-0.707764-2.674237 0.982205-5.244615z"/>
   <path id="path1457" d="m48.23797 64.06423 4.03614 3.499195 2.07265-2.390694q1.042721-1.202725 1.04732-2.206866 0.0036-1.017917-1.022019-1.907109-1.033016-0.895589-2.025377-0.734879-0.993344 0.146934-2.036065 1.349659zm-4.530513-3.927798 3.320408 2.878679 1.912723-2.206226q0.946765-1.092045 1.001526-1.975149 0.05378-0.89688-0.78739-1.626145-0.833791-0.722869-1.713984-0.54246-0.873795 0.173029-1.82056 1.265074zm-2.517069 0.428581 3.300886-3.807401q1.477722-1.704476 2.985709-2.012694 1.507987-0.308217 2.814014 0.824064 1.01088 0.876398 1.199141 1.866796 0.188262 0.990398-0.457401 2.033297 1.189281-0.894719 2.466466-0.84727 1.276203 0.03367 2.397763 1.006027 1.475737 1.279413 1.410013 2.980194-0.06572 1.700781-1.671388 3.552831l-3.428827 3.954975z"/>
   <path id="path1460" d="m51.22196 49.50366 1.44514-1.342737 8.794261 9.464953 5.201074-4.832523 1.130026 1.216208-6.646214 6.17526z"/>
   <path id="path1463" d="m60.31124 41.46244 1.537843-1.235482 9.131555 11.36633-1.537843 1.235482z"/>
   <path id="path1466" d="m65.68196 37.183 1.640093-1.096117 3.424005 5.123258 2.015904-8.758889 2.11101-1.410843-2.239661 9.671911 10.77147 2.162562-2.159725 1.4434-9.723037-1.947085 3.901521 5.837754-1.640093 1.096116z"/>
   <path id="path1469" d="m83.61061 28.6267 0.924143 7.678102 4.772472-2.442815zm-1.876471-1.222662 1.990704-1.018952 11.58954 10.44688-1.825536 0.93441-2.886438-2.724287-5.850407 2.994563 0.521935 3.934571-1.851616 0.947759z"/>
   <path id="path1472" d="m91.99544 22.49478 2.493707-0.914926 10.2705 9.224114-4.20126-11.45088 1.79694-0.659285 5.022 13.68788-2.4937 0.914926-10.27051-9.224113 4.20126 11.45088-1.796936 0.659285z"/>
   <path id="path1475" d="m114.3877 15.58655 1.2097 5.283197-1.61827 0.370538-1.2097-5.283197z"/>
   <path id="path1478" d="m117.0861 15.02881 1.9364-0.376434 2.78227 14.31215-1.9364 0.376434z"/>
   <path id="path1481" d="m148.5956 12.35622 2.92901 0.247466 2.8722 10.19989 4.56225-9.571769 2.92902 0.247467-1.22747 14.52832-1.91699-0.161963 1.07784-12.75728-4.58831 9.647972-1.97538-0.166896-2.90454-10.28103-1.07784 12.75728-1.90726-0.161141z"/>
   <path id="path1484" d="m171.4957 17.30648-4.18577 6.502825 5.23372 1.162774zm-0.66532-2.138556 2.18311 0.485019 2.26223 15.43818-2.00197-0.444776-0.48532-3.939254-6.41584-1.425404-2.10769 3.363164-2.03057-0.451132z"/>
   <path id="path1487" d="m183.0964 20.10574-3.69322 10.71951 2.25285 0.776179q2.853 0.98295 4.61866 0.145221 1.7749-0.834546 2.73558-3.622911 0.95432-2.7699 0.0669-4.51136-0.87497-1.747511-3.72796-2.730461zm-1.33702-2.175255 3.8317 1.320145q4.00712 1.380582 5.30565 3.69751 1.3017 2.307696 0.0802 5.853167-1.22789 3.563937-3.6872 4.586172-2.45929 1.022237-6.44795-0.351984l-3.8317-1.320144z"/>
   <path id="path1490" d="m200.4525 27.48676-5.59129 5.342734 4.81629 2.355255zm-0.14638-2.234863 2.00898 0.98243-1.41335 15.5389-1.84229-0.900916 0.44999-3.94345-5.90411-2.887222-2.83621 2.776543-1.86862-0.913788z"/>
   <path id="path1493" d="m211.9514 46.35622 2.14044-3.279286-2.69867-1.761458 0.88607-1.35751 4.33422 2.829005-3.4215 5.24195q-1.39983 0.05424-2.78242-0.346739-1.37725-0.409154-2.68569-1.263194-2.86222-1.868212-3.39252-4.593348-0.51678-2.72798 1.4315-5.712865 1.95361-2.993063 4.65354-3.609791 2.71343-0.619571 5.57565 1.248641 1.19395 0.77931 2.07308 1.772956 0.88731 0.998981 1.42139 2.163912l-1.14761 1.75822q-0.40883-1.374715-1.18301-2.439804-0.77418-1.065085-1.9109-1.807036-2.24071-1.462541-4.18591-0.947949-1.93703 0.519928-3.55437 2.997792-1.612 2.469686-1.30832 4.452156 0.31186 1.987803 2.55256 3.450345 0.87503 0.571143 1.65804 0.872313 0.78835 0.292992 1.54443 0.33169z"/>
   <path id="path1496" d="m227.1678 44.85403-6.68564 3.887082 4.13196 3.416227zm0.38031-2.207127 1.72353 1.424981-5.00792 14.77754-1.58053-1.306755 1.35969-3.728871-5.06525-4.187844-3.40685 2.036318-1.60312-1.325425z"/>
   <path id="path1499" d="m241.7478 56.69824-1.38994 1.330102q-0.3884-1.18274-0.88658-2.084701-0.49819-0.901968-1.13961-1.572242-1.11404-1.164169-2.17325-1.36705-1.05247-0.19583-1.88502 0.600877-0.6985 0.668429-0.65999 1.429048 0.0523 0.760916 0.95441 2.141446l0.64732 1.029567q1.22253 1.884887 1.1759 3.37578-0.0328 1.491196-1.31691 2.720017-1.53106 1.465136-3.30705 1.191218-1.76922-0.266852-3.66647-2.249463-0.71569-0.747892-1.35657-1.756601-0.63413-1.001651-1.16675-2.222093l1.46756-1.40437q0.34364 1.333699 0.8934 2.402566 0.54976 1.068875 1.31947 1.873208 1.16805 1.220609 2.2825 1.424706 1.11445 0.204104 2.00345-0.646622 0.77611-0.742697 0.75443-1.641077-0.0149-0.891336-0.83598-2.187203l-0.66113-1.029872q-1.2084-1.89839-1.213-3.259173-5e-3 -1.360784 1.2019-2.515337 1.397-1.33685 3.13984-1.125824 1.74957 0.21807 3.40376 1.946683 0.70894 0.740833 1.31083 1.638165 0.60189 0.897347 1.10348 1.958245z"/>
   <path id="path1502" d="m245.8276 60.73355 1.24365 1.531248-11.31757 9.191917-1.24365-1.531248z"/>
   <path id="path1505" d="m250.0418 66.0152 1.12536 1.620175-5.06103 3.515332 8.79363 1.858505 1.44847 2.085368-9.71052-2.065852-1.96905 10.80852-1.4819-2.133496 1.77241-9.756386-5.76685 4.005582-1.12535-1.620175z"/>
   <path id="path1508" d="m258.9246 83.67917-7.65777 1.079741 2.53914 4.721919zm1.18434-1.900891 1.05913 1.969612-10.20958 11.79913-0.97126-1.806208 2.66516-2.941113-3.11265-5.788448-3.92317 0.601661-0.98513-1.832005z"/>
   <path id="path1511" d="m260.5045 101.2425q0.0323 0.66936-0.40421 1.48099-0.43289 0.82072-1.35658 1.83435l-2.97585 3.32075-0.77522-1.97225 2.79864-3.10421q1.09895-1.20842 1.29422-2.01969 0.19885-0.802165-0.22985-1.892817l-0.78594-1.999522-5.73499 2.254223-0.72163-1.835916 13.56947-5.333687 1.62904 4.144455q0.91455 2.326714 0.39219 3.854147-0.52236 1.527437-2.48553 2.299087-1.28151 0.50372-2.36255 0.2361-1.07746-0.25853-1.85121-1.26601zm3.89097-6.838834-4.81704 1.893408 0.90741 2.308537q0.52158 1.326953 1.39489 1.760169 0.88596 0.43872 2.07659-0.0293 1.19063-0.467994 1.52255-1.385428 0.34458-0.911926-0.177-2.238879z"/>
   <path id="path1514" d="m270.022 112.4612-7.69077-0.81199 1.31661 5.19716zm1.61046-1.55643 0.54919 2.16784-12.76904 8.96699-0.50362-1.98799 3.29955-2.20596-1.61398-6.37101-3.95186-0.36894-0.51082-2.01638z"/>
  </g>
  <path id="path1313" d="m341.7929 608.8218 3.68062 1.40231-0.18876 0.49541-1.54451-0.58846-1.46893 3.85547-0.59158-0.22539 1.46893-3.85547-1.54452-0.58845z"/>
  <path id="path1316" d="m347.2253 611.4974-1.58263 1.89585 1.61275 0.57466zm-0.12659-0.70391 0.67271 0.2397 0.10873 4.98145-0.6169-0.21981 1e-3 -1.26747-1.97702-0.70445-0.80041 0.98276-0.62571-0.22295z"/>
  <path id="path1319" d="m349.892 611.7461 0.80665 0.26237 0.75847 4.34259 1.20475-3.70404 0.58127 0.18905-1.44011 4.42766-0.80665-0.26236-0.75847-4.3426-1.20476 3.70405-0.58126-0.18906z"/>
  <path id="path1322" d="m354.205 613.0941 0.60434 0.17779-1.31408 4.46669-0.60434-0.1778z"/>
  <path id="path1325" d="m355.8043 613.575 0.81968 0.21825 0.99277 4.29508 1.00219-3.7639 0.59066 0.15727-1.19797 4.49921-0.81968-0.21825-0.99278-4.29509-1.00219 3.7639-0.59065-0.15726z"/>
  <path id="path1328" d="m360.6415 615.3513-0.81537 3.5276 0.74138 0.17136q0.93887 0.21701 1.47169-0.10793 0.53585-0.32426 0.74795-1.24185 0.21069-0.91153-0.12923-1.43501-0.33617-0.5258-1.27504-0.74281zm-0.49718-0.64625 1.26095 0.29146q1.31867 0.30479 1.80836 0.99732 0.49039 0.68948 0.2207 1.85624-0.27108 1.17283-1.01804 1.57951-0.74695 0.40669-2.05956 0.10329l-1.26094-0.29145z"/>
  <path id="path1331" d="m366.2167 618.5218q0.1863 0.10528 0.33121 0.36142 0.14797 0.25672 0.26445 0.67888l0.39018 1.36944-0.66479-0.12651-0.36186-1.28469q-0.13926-0.50267-0.32515-0.69359-0.18282-0.19034-0.55044-0.2603l-0.67399-0.12825-0.36785 1.9331-0.61883-0.11776 0.87037-4.57389 1.39698 0.26583q0.78427 0.14924 1.10789 0.5505 0.32364 0.40126 0.19772 1.06298-0.0822 0.43196-0.33861 0.6784-0.25335 0.24702-0.65728 0.28444zm-1.18464-2.21584-0.30897 1.62369 0.77814 0.14807q0.44728 0.0851 0.71304-0.077 0.26941-0.1646 0.34578-0.56593 0.0764-0.40133-0.11493-0.64724-0.18764-0.2484-0.63491-0.33351z"/>
  <path id="path1334" d="m370.3418 617.3431-1.19392 2.16183 1.69251 0.25803zm-0.25792-0.66708 0.706 0.10763 1.05245 4.87022-0.64741-0.0987-0.23926-1.24468-2.0748-0.31631-0.59928 1.11684-0.65667-0.10011z"/>
  <path id="path1337" d="m372.7217 617.0639 3.63284 0.4287-0.0563 0.47694-3.35085 3.27544 2.99484 0.35342-0.0621 0.52649-3.77529-0.44551 0.0563-0.47695 3.35085-3.27543-2.85238-0.3366z"/>
  <path id="path1340" d="m378.2511 618.2771-1.04517 2.23754 1.70608 0.14311zm-0.30241-0.64813 0.71165 0.0597 1.37906 4.788-0.6526-0.0547-0.3228-1.22567-2.09142-0.17543-0.52247 1.15477-0.66193-0.0555z"/>
  <path id="path1343" d="m380.8388 617.8614 0.84734 0.0392 1.88224 3.98629 0.18002-3.89088 0.61058 0.0282-0.21519 4.65098-0.84733-0.0392-1.88225-3.98629-0.18001 3.89088-0.61058-0.0282z"/>
  <path id="path1346" d="m386.8716 618.6809-0.87607 2.30899 1.712 0.016zm-0.3497-0.62389 0.7141 7e-3 1.73091 4.67233-0.65486-6e-3 -0.41295-1.19831-2.09868-0.0196-0.43525 1.19039-0.66422-6e-3z"/>
  <path id="path1349" d="m364.649 624.2109 2.63205 0.48131-0.0954 0.5215-2.01239-0.36799-0.24683 1.34977 1.81606 0.3321-0.0954 0.5215-1.81605-0.33209-0.39997 2.18724-0.61966-0.11332z"/>
  <path id="path1352" d="m369.7402 625.6516-1.13964 2.19093 1.69843 0.21573zm-0.27449-0.66045 0.70846 0.09 1.17361 4.84245-0.64967-0.0825-0.27024-1.23832-2.08204-0.26446-0.57124 1.13144-0.65896-0.0837z"/>
  <path id="path1355" d="m372.3482 625.334 0.84523 0.0714 1.72911 4.05507 0.32801-3.88121 0.60907 0.0515-0.39209 4.63943-0.84522-0.0714-1.72913-4.05507-0.32801 3.88122-0.60906-0.0515z"/>
  <path id="path1358" d="m377.4392 626.2389-0.18264 3.616 0.75995 0.0384q0.9624 0.0486 1.42981-0.36493 0.47051-0.41339 0.51802-1.35398 0.0472-0.93437-0.37943-1.38995-0.42336-0.45853-1.38576-0.50714zm-0.60303-0.5488 1.29255 0.0653q1.35171 0.0683 1.95549 0.66395 0.60394 0.59255 0.54353 1.78855-0.0607 1.20221-0.72456 1.73385-0.66385 0.53165-2.00933 0.46369l-1.29255-0.0653z"/>
  <path id="path1361" d="m383.4917 628.4208q0.20122 0.0728 0.38674 0.30125 0.18864 0.22851 0.37377 0.62538l0.61269 1.28539-0.67657-0.0141-0.57066-1.20654q-0.22099-0.47248-0.43607-0.62979-0.21195-0.15725-0.58609-0.16504l-0.68593-0.0143-0.0409 1.96736-0.62981-0.0131 0.0969-4.65496 1.42174 0.0296q0.79817 0.0166 1.18408 0.35839 0.3859 0.34179 0.37189 1.01524-9e-3 0.43963-0.22096 0.7253-0.2087 0.28574-0.60076 0.38988zm-1.53696-1.98773-0.0344 1.65246 0.79194 0.0165q0.4552 9e-3 0.69028-0.19462 0.23825-0.20715 0.24675-0.61559 8e-3 -0.40843-0.22106-0.61908-0.22638-0.2137-0.68158-0.22317z"/>
  <path id="path1364" d="m387.7475 626.3891q-0.68608 0-1.09149 0.51144-0.40229 0.51144-0.40229 1.39398 0 0.87943 0.40229 1.39087 0.40541 0.51144 1.09149 0.51144t1.08525-0.51144q0.40229-0.51144 0.40229-1.39087 0-0.88254-0.40229-1.39398-0.39917-0.51144-1.08525-0.51144zm0-0.51144q0.97922 0 1.5655 0.65801 0.58628 0.65489 0.58628 1.75885 0 1.10084-0.58628 1.75885-0.58628 0.6549-1.5655 0.6549-0.98234 0-1.57174-0.6549-0.58628-0.65489-0.58628-1.75885t0.58628-1.75885q0.5894-0.65801 1.57174-0.65801z"/>
  <path id="path1367" d="m393.5115 625.9859 0.0223 0.61395q-0.36461-0.15841-0.68554-0.23102-0.32093-0.0726-0.61701-0.0619-0.51421 0.0186-0.78746 0.22829-0.27013 0.20951-0.25679 0.57725 0.0112 0.30853 0.20082 0.46081 0.19265 0.14904 0.71349 0.22688l0.38304 0.0642q0.70918 0.10846 1.05497 0.43606 0.34878 0.32437 0.36936 0.89156 0.0245 0.67629-0.41781 1.04184-0.43923 0.36544-1.31496 0.39721-0.33034 0.012-0.70703-0.0493-0.37358-0.0613-0.7778-0.19335l-0.0235-0.64823q0.39113 0.20113 0.76284 0.29687 0.37169 0.0957 0.72697 0.0829 0.53915-0.0196 0.82441-0.2421 0.28526-0.22255 0.27102-0.61523-0.0124-0.34282-0.23137-0.52835-0.21581-0.18564-0.69925-0.26485l-0.38604-0.0608q-0.70941-0.1147-1.03503-0.40247-0.32562-0.28775-0.34495-0.82067-0.0224-0.61706 0.39792-0.98806 0.42342-0.37111 1.18696-0.39881 0.32722-0.0119 0.66907 0.0351 0.34185 0.0469 0.70143 0.15243z"/>
  <path id="path1370" d="m396.7205 626.0845q-0.68344 0.0602-1.04242 0.60522-0.35587 0.54476-0.27845 1.4239 0.0771 0.87604 0.52275 1.35021 0.44872 0.4739 1.13215 0.41371 0.68343-0.0602 1.03619-0.60467 0.35587-0.54475 0.27873-1.42079-0.0774-0.87913-0.52303-1.35331-0.4425-0.47445-1.12592-0.41427zm-0.0449-0.50947q0.97544-0.0859 1.61719 0.51814 0.64147 0.60094 0.73832 1.70064 0.0966 1.0966-0.42973 1.8035-0.52658 0.7038-1.50201 0.7897-0.97855 0.0862-1.62313-0.51448-0.64148-0.60093-0.73833-1.70064-0.0968-1.0997 0.42973-1.8035 0.52941-0.70718 1.50796-0.79336z"/>
  <path id="path1373" d="m401.2509 625.8836-0.60066 2.39544 1.70217-0.18389zm-0.42011-0.57881 0.71001-0.0767 2.26427 4.43844-0.65111 0.0703-0.54995-1.14193-2.08663 0.22543-0.29338 1.23303-0.66039 0.0713z"/>
  <path id="path1376" d="m403.6519 625.0065 0.83661-0.13996 2.67883 3.50104-0.64265-3.84166 0.60285-0.10085 0.7682 4.59215-0.83661 0.13995-2.67883-3.50103 0.64265 3.84166-0.60285 0.10085z"/>
  <path id="path1379" d="m409.4448 624.4977-0.22517 2.45931 1.65365-0.44345zm-0.50411-0.50733 0.68977-0.18497 2.91983 4.03747-0.63254 0.16963-0.71901-1.04378-2.02715 0.54361-0.10028 1.26348-0.64159 0.17205z"/>
  <path id="path1382" d="m394.6106 617.8833 2.6707-0.16358 0.0324 0.52915-2.04193 0.12508 0.0839 1.36958 1.84271-0.11287 0.0324 0.52916-1.84271 0.11287 0.13594 2.21935-0.62876 0.0385z"/>
  <path id="path1385" d="m399.9878 618.0835-0.62728 2.38861 1.70411-0.16493zm-0.41365-0.58345 0.71082-0.0688 2.21474 4.46337-0.65185 0.0631-0.53721-1.14799-2.08901 0.20219-0.30708 1.22971-0.66115 0.064z"/>
  <path id="path1388" d="m402.4821 617.2251 0.62447-0.0828 0.25086 1.89198 2.26915-0.30087-0.25086-1.89198 0.62448-0.0828 0.61198 4.61558-0.62448 0.0828-0.29144-2.19805-2.26915 0.30087 0.29144 2.19804-0.62447 0.0828z"/>
  <path id="path1391" d="m408.5848 616.9774-0.47262 2.42396 1.69001-0.27402zm-0.45026-0.55568 0.70494-0.1143 2.49676 4.31193-0.64645 0.10482-0.60982-1.11111-2.07171 0.33591-0.22749 1.24687-0.65568 0.10632z"/>
  <path id="path1394" d="m411.0504 615.9081 2.62872-0.49916 0.0989 0.52084-2.00984 0.38165 0.25598 1.34806 1.81376-0.34441 0.0989 0.52084-1.81376 0.34441 0.41481 2.18448-0.61888 0.11752z"/>
  <path id="path1397" d="m416.4236 615.4635-0.32495 2.44813 1.6703-0.37585zm-0.48307-0.5274 0.69671-0.15678 2.7533 4.15284-0.63891 0.14377-0.67599-1.07216-2.04757 0.46076-0.15156 1.25837-0.64804 0.14582z"/>
  <path id="path1400" d="m418.8149 614.2866 0.61039-0.15572 0.47179 1.84931 2.21796-0.56584-0.47179-1.8493 0.6104-0.15573 1.15095 4.51146-0.6104 0.15573-0.54811-2.14846-2.21796 0.56584 0.54811 2.14845-0.61039 0.15573z"/>
  <path id="path1403" d="m424.8524 613.3124-0.18993 2.46229 1.64712-0.46708zm-0.51134-0.50006 0.68706-0.19483 2.97735 3.99526-0.63005 0.17867-0.73388-1.03339-2.01916 0.57257-0.0822 1.2648-0.63905 0.18122z"/>
  <path id="path1406" d="m427.1971 611.9834 0.80938-0.25378 3.13525 3.09898-1.16534-3.71664 0.58323-0.18287 1.393 4.44271-0.80939 0.25378-3.13524-3.09898 1.16534 3.71664-0.58324 0.18287z"/>
  <path id="path1409" d="m433.1817 610.7105-0.0581 2.46892 1.61982-0.55442zm-0.53732-0.47203 0.67566-0.23126 3.18655 3.83048-0.6196 0.21207-0.78804-0.9927-1.98569 0.67964-0.0145 1.26738-0.62845 0.2151z"/>
 </g>
</svg>
