<?xml version="1.0" encoding="UTF-8" standalone="no"?>
<!-- Created with Inkscape (http://www.inkscape.org/) -->

<svg
   width="841.04724"
   height="595.89569"
   id="svg2"
   version="1.1"
   inkscape:version="1.2 (dc2aedaf03, 2022-05-15)"
   sodipodi:docname="Bremen_greater_coat_of_arms.svg"
   xmlns:inkscape="http://www.inkscape.org/namespaces/inkscape"
   xmlns:sodipodi="http://sodipodi.sourceforge.net/DTD/sodipodi-0.dtd"
   xmlns="http://www.w3.org/2000/svg"
   xmlns:svg="http://www.w3.org/2000/svg"
   xmlns:rdf="http://www.w3.org/1999/02/22-rdf-syntax-ns#"
   xmlns:cc="http://creativecommons.org/ns#"
   xmlns:dc="http://purl.org/dc/elements/1.1/">
  <defs
     id="defs4" />
  <sodipodi:namedview
     id="base"
     pagecolor="#f6f3f1"
     bordercolor="#666666"
     borderopacity="1.0"
     inkscape:pageopacity="0"
     inkscape:pageshadow="2"
     inkscape:zoom="2"
     inkscape:cx="422.5"
     inkscape:cy="141.75"
     inkscape:document-units="px"
     inkscape:current-layer="layer2"
     showgrid="false"
     showborder="true"
     inkscape:window-width="1680"
     inkscape:window-height="988"
     inkscape:window-x="-8"
     inkscape:window-y="-8"
     inkscape:window-maximized="1"
     showguides="true"
     inkscape:guide-bbox="true"
     fit-margin-right="-0.2"
     fit-margin-top="0"
     fit-margin-left="0"
     fit-margin-bottom="0"
     inkscape:showpageshadow="2"
     inkscape:pagecheckerboard="0"
     inkscape:deskcolor="#f6f3f1">
    <inkscape:grid
       type="xygrid"
       id="grid4043"
       empspacing="5"
       visible="true"
       enabled="true"
       snapvisiblegridlinesonly="true"
       originx="102.07143"
       originy="-370.92858"
       spacingx="1"
       spacingy="1" />
  </sodipodi:namedview>
  <metadata
     id="metadata7">
    <rdf:RDF>
      <cc:Work
         rdf:about="">
        <dc:format>image/svg+xml</dc:format>
        <dc:type
           rdf:resource="http://purl.org/dc/dcmitype/StillImage" />
        <dc:title />
      </cc:Work>
    </rdf:RDF>
  </metadata>
  <g
     inkscape:groupmode="layer"
     id="layer2"
     inkscape:label="f"
     style="display:inline"
     transform="translate(102.07143,-85.537913)">
    <g
       id="g4005"
       transform="translate(1.6168549,0)">
      <g
         id="g4042"
         transform="translate(4.751367,2)">
        <g
           id="g4029">
          <path
             style="color:#000000;fill:#fcdd09;fill-opacity:1;stroke:#000000;stroke-width:2;stroke-linecap:butt;stroke-linejoin:miter;stroke-miterlimit:4;stroke-opacity:1;stroke-dasharray:none;stroke-dashoffset:0;marker:none;visibility:visible;display:inline;overflow:visible;enable-background:accumulate"
             d="m 263.75,650.93361 c 14.82143,-6.60714 22.5,-18.75 25.35714,-36.78572 2.85715,-18.03571 -13.03571,-30 -27.85714,-28.21428 -14.82143,1.78571 -19.10714,21.96428 -3.75,29.46428 15.35714,7.5 20.71429,-8.92857 20.71429,-8.92857 19.46428,13.75 2.48146,34.28572 -12.5,34.28572 -14.98146,0 -37.85714,-4.82144 -42.32143,-32.67858 -4.46428,-27.85714 16.96428,-50.17857 40.71428,-47.85714 23.75,2.32143 44.57239,14.49797 48.92858,42.32144 5,31.93556 -15.41108,75.89285 -70.53571,75.89285 -55.12463,0 -91.08296,-56.69064 -115.8215,-79.51263 -24.73853,-22.82199 -53.553514,-25.48737 -53.553514,-25.48737 8.126653,12.05275 3.6877,25.47758 0.08929,28.30357 -8.75,-2.23214 -13.75,-11.33929 -13.75,-11.33929 -1.428571,9.91072 -9.553571,15 -9.553571,15 C 37.5,600.13004 39.553572,583.70147 39.553572,583.70147 c -1.517858,1.07142 -5.089286,1.78571 -5.982143,1.60714 0,0 -3.840839,-7.125 -0.535715,-16.33929 3.305125,-9.21428 17.410715,-9.91071 17.410715,-9.91071 0,0 49.811211,-6.09059 69.887991,15.50142 0,0 0,-7.82869 0.63135,-11.61676 0,0 9.34391,0.75762 15.53109,15.40483 0,0 0.88388,-7.95495 2.65165,-13.38452 0,0 9.59645,4.54569 14.39467,18.18274 0,0 1.38897,-3.6618 3.03047,-6.56599 0,0 14.77348,7.95495 3.53553,21.97082 0,0 5.80838,-0.75761 8.20749,-0.75761 0,0 2.39911,4.67195 2.27284,14.52094 0,0 4.54569,-2.27285 4.9245,-8.9651 0.33606,-5.93723 -2.02031,-8.71257 -2.02031,-8.71257 0,0 5.42957,-1.13642 7.57614,3.53553 0,0 1.2627,-8.46003 -3.03045,-15.53109 0,0 15.02602,-2.39912 19.31916,14.01586 0,0 3.40927,-5.93464 4.29315,-11.36421 0,0 7.44988,3.53553 9.34392,14.2684 1.89403,10.73287 -0.88389,17.93021 -0.88389,17.93021 0,0 5.68211,-3.91434 6.43972,-9.21764 0,0 6.06092,7.57614 5.93465,15.27856 -0.12627,7.70241 -3.78807,11.99556 -3.78807,11.99556 0,0 5.05076,21.08693 25.00127,22.22335 0,0 -5.05076,-4.54568 -6.9448,-9.84898 0,0 13.07982,-6.47813 26.9955,3.01125 z"
             id="path4021"
             inkscape:connector-curvature="0"
             transform="translate(-1.6168549,0)"
             sodipodi:nodetypes="cscccccczzssszcsssccccccccccscccccscc" />
          <path
             style="color:#000000;fill:none;stroke:#000000;stroke-width:1.5;stroke-linecap:butt;stroke-linejoin:miter;stroke-miterlimit:4;stroke-opacity:1;stroke-dasharray:none;stroke-dashoffset:0;marker:none;visibility:visible;display:inline;overflow:visible;enable-background:accumulate"
             d="m 262.85715,650.48718 c 0,0 9.10714,7.58929 18.21428,9.46429 9.10714,1.875 13.39286,-0.89286 13.39286,-0.89286 m -50.625,-1.42857 c 0,0 7.04092,6.83437 21.07143,9.73214 14.0305,2.89777 22.58928,-1.875 22.58928,-1.875"
             id="path4023"
             inkscape:connector-curvature="0"
             transform="translate(-1.6168549,0)"
             sodipodi:nodetypes="cscczc" />
          <path
             style="font-size:medium;font-style:normal;font-variant:normal;font-weight:normal;font-stretch:normal;text-indent:0;text-align:start;text-decoration:none;line-height:normal;letter-spacing:normal;word-spacing:normal;text-transform:none;direction:ltr;block-progression:tb;writing-mode:lr-tb;text-anchor:start;baseline-shift:baseline;color:#000000;fill:#000000;fill-opacity:1;stroke:none;stroke-width:1.5;marker:none;visibility:visible;display:inline;overflow:visible;enable-background:accumulate;font-family:Sans;-inkscape-font-specification:Sans"
             d="m 37.445645,584.53125 1.5,0.125 c 0,0 0.456219,-6.61857 3.90625,-12.5625 -4.942827,5.48465 -5.40625,12.4375 -5.40625,12.4375 z m 19.96875,6.3125 1.40625,-0.53125 c 0,0 -2.324423,-6.16869 -0.359375,-13.57813 -3.570666,7.41199 -1.046875,14.10938 -1.046875,14.10938 z m 94.874905,-8.8125 -1.49995,0.25 c 0.48624,3.28821 0.92615,6.94523 1.17183,10.17187 1.21015,-3.59591 0.86992,-6.91204 0.32812,-10.42187 z m 27.90635,23.125 c 0.47309,-3.40455 0.61226,-6.59741 0.375,-9.9375 l -1.5,0 c 0.24115,3.14232 0.065,6.87956 -0.34375,9.71875 -0.74282,5.30708 -1.1296,11.80891 4.57808,13.9375 -3.57156,-4.04326 -3.75636,-9.17451 -3.10933,-13.71875 z m 16.15625,-9.25 -1.46875,0.25 c 0,0 2.32524,13.93654 -0.51563,23.79687 5.86954,-8.25647 1.98438,-24.04687 1.98438,-24.04687 z m 13,20.96875 -1.34375,-0.65625 c -1.72827,2.89638 -3.57612,6.31681 -6.14063,8.85937 3.81193,-0.9449 5.61704,-4.72836 7.48438,-8.20312 z"
             id="path4025"
             inkscape:connector-curvature="0"
             sodipodi:nodetypes="cccccccccccccccccccccccccc" />
        </g>
        <g
           transform="matrix(-1,0,0,1,624.36797,0)"
           id="g4034">
          <path
             sodipodi:nodetypes="cscccccczzssszcsssccccccccccscccccscc"
             transform="translate(-1.6168549,0)"
             inkscape:connector-curvature="0"
             id="path4036"
             d="m 263.75,650.93361 c 14.82143,-6.60714 22.5,-18.75 25.35714,-36.78572 2.85715,-18.03571 -13.03571,-30 -27.85714,-28.21428 -14.82143,1.78571 -19.10714,21.96428 -3.75,29.46428 15.35714,7.5 20.71429,-8.92857 20.71429,-8.92857 19.46428,13.75 2.48146,34.28572 -12.5,34.28572 -14.98146,0 -37.85714,-4.82144 -42.32143,-32.67858 -4.46428,-27.85714 16.96428,-50.17857 40.71428,-47.85714 23.75,2.32143 44.57239,14.49797 48.92858,42.32144 5,31.93556 -15.41108,75.89285 -70.53571,75.89285 -55.12463,0 -91.08296,-56.69064 -115.8215,-79.51263 -24.73853,-22.82199 -53.553514,-25.48737 -53.553514,-25.48737 8.126653,12.05275 3.6877,25.47758 0.08929,28.30357 -8.75,-2.23214 -13.75,-11.33929 -13.75,-11.33929 -1.428571,9.91072 -9.553571,15 -9.553571,15 C 37.5,600.13004 39.553572,583.70147 39.553572,583.70147 c -1.517858,1.07142 -5.089286,1.78571 -5.982143,1.60714 0,0 -3.840839,-7.125 -0.535715,-16.33929 3.305125,-9.21428 17.410715,-9.91071 17.410715,-9.91071 0,0 49.811211,-6.09059 69.887991,15.50142 0,0 0,-7.82869 0.63135,-11.61676 0,0 9.34391,0.75762 15.53109,15.40483 0,0 0.88388,-7.95495 2.65165,-13.38452 0,0 9.59645,4.54569 14.39467,18.18274 0,0 1.38897,-3.6618 3.03047,-6.56599 0,0 14.77348,7.95495 3.53553,21.97082 0,0 5.80838,-0.75761 8.20749,-0.75761 0,0 2.39911,4.67195 2.27284,14.52094 0,0 4.54569,-2.27285 4.9245,-8.9651 0.33606,-5.93723 -2.02031,-8.71257 -2.02031,-8.71257 0,0 5.42957,-1.13642 7.57614,3.53553 0,0 1.2627,-8.46003 -3.03045,-15.53109 0,0 15.02602,-2.39912 19.31916,14.01586 0,0 3.40927,-5.93464 4.29315,-11.36421 0,0 7.44988,3.53553 9.34392,14.2684 1.89403,10.73287 -0.88389,17.93021 -0.88389,17.93021 0,0 5.68211,-3.91434 6.43972,-9.21764 0,0 6.06092,7.57614 5.93465,15.27856 -0.12627,7.70241 -3.78807,11.99556 -3.78807,11.99556 0,0 5.05076,21.08693 25.00127,22.22335 0,0 -5.05076,-4.54568 -6.9448,-9.84898 0,0 13.07982,-6.47813 26.9955,3.01125 z"
             style="color:#000000;fill:#fcdd09;fill-opacity:1;stroke:#000000;stroke-width:2;stroke-linecap:butt;stroke-linejoin:miter;stroke-miterlimit:4;stroke-opacity:1;stroke-dasharray:none;stroke-dashoffset:0;marker:none;visibility:visible;display:inline;overflow:visible;enable-background:accumulate" />
          <path
             sodipodi:nodetypes="cscczc"
             transform="translate(-1.6168549,0)"
             inkscape:connector-curvature="0"
             id="path4038"
             d="m 262.85715,650.48718 c 0,0 9.10714,7.58929 18.21428,9.46429 9.10714,1.875 13.39286,-0.89286 13.39286,-0.89286 m -50.625,-1.42857 c 0,0 7.04092,6.83437 21.07143,9.73214 14.0305,2.89777 22.58928,-1.875 22.58928,-1.875"
             style="color:#000000;fill:none;stroke:#000000;stroke-width:1.5;stroke-linecap:butt;stroke-linejoin:miter;stroke-miterlimit:4;stroke-opacity:1;stroke-dasharray:none;stroke-dashoffset:0;marker:none;visibility:visible;display:inline;overflow:visible;enable-background:accumulate" />
          <path
             sodipodi:nodetypes="cccccccccccccccccccccccccc"
             inkscape:connector-curvature="0"
             id="path4040"
             d="m 37.445645,584.53125 1.5,0.125 c 0,0 0.456219,-6.61857 3.90625,-12.5625 -4.942827,5.48465 -5.40625,12.4375 -5.40625,12.4375 z m 19.96875,6.3125 1.40625,-0.53125 c 0,0 -2.324423,-6.16869 -0.359375,-13.57813 -3.570666,7.41199 -1.046875,14.10938 -1.046875,14.10938 z m 94.874905,-8.8125 -1.49995,0.25 c 0.48624,3.28821 0.92615,6.94523 1.17183,10.17187 1.21015,-3.59591 0.86992,-6.91204 0.32812,-10.42187 z m 27.90635,23.125 c 0.47309,-3.40455 0.61226,-6.59741 0.375,-9.9375 l -1.5,0 c 0.24115,3.14232 0.065,6.87956 -0.34375,9.71875 -0.74282,5.30708 -1.1296,11.80891 4.57808,13.9375 -3.57156,-4.04326 -3.75636,-9.17451 -3.10933,-13.71875 z m 16.15625,-9.25 -1.46875,0.25 c 0,0 2.32524,13.93654 -0.51563,23.79687 5.86954,-8.25647 1.98438,-24.04687 1.98438,-24.04687 z m 13,20.96875 -1.34375,-0.65625 c -1.72827,2.89638 -3.57612,6.31681 -6.14063,8.85937 3.81193,-0.9449 5.61704,-4.72836 7.48438,-8.20312 z"
             style="font-size:medium;font-style:normal;font-variant:normal;font-weight:normal;font-stretch:normal;text-indent:0;text-align:start;text-decoration:none;line-height:normal;letter-spacing:normal;word-spacing:normal;text-transform:none;direction:ltr;block-progression:tb;writing-mode:lr-tb;text-anchor:start;baseline-shift:baseline;color:#000000;fill:#000000;fill-opacity:1;stroke:none;stroke-width:1.5;marker:none;visibility:visible;display:inline;overflow:visible;enable-background:accumulate;font-family:Sans;-inkscape-font-specification:Sans" />
        </g>
      </g>
      <path
         style="fill:#fcdd09;fill-opacity:1;fill-rule:evenodd;stroke:#000000;stroke-width:2;stroke-linecap:butt;stroke-linejoin:miter;stroke-miterlimit:4;stroke-opacity:1;stroke-dasharray:none;stroke-dashoffset:0"
         d="m -8.0812206,474.10587 650.0331406,0 0,16.16244 -650.0331406,0 z"
         id="rect4003"
         inkscape:connector-curvature="0" />
      <path
         inkscape:connector-curvature="0"
         id="path4009"
         d="m -31.081221,505.19955 696.033141,0 -23,-16.71691 -650.0331406,0 z"
         style="fill:#fcdd09;fill-opacity:1;fill-rule:evenodd;stroke:#000000;stroke-width:2;stroke-linecap:butt;stroke-linejoin:miter;stroke-miterlimit:4;stroke-opacity:1;stroke-dasharray:none;stroke-dashoffset:0"
         sodipodi:nodetypes="ccccc" />
      <path
         inkscape:connector-curvature="0"
         id="path4017"
         d="m 10.354064,545.32162 613.162576,0 0,16.16244 -613.162576,0 z"
         style="fill:#fcdd09;fill-opacity:1;fill-rule:evenodd;stroke:#000000;stroke-width:1.99999988;stroke-linecap:butt;stroke-linejoin:miter;stroke-miterlimit:4;stroke-opacity:1;stroke-dasharray:none;stroke-dashoffset:0" />
      <path
         style="color:#000000;fill:#fcdd09;fill-opacity:1;stroke:#000000;stroke-width:2;stroke-linecap:butt;stroke-linejoin:miter;stroke-miterlimit:4;stroke-opacity:1;stroke-dasharray:none;stroke-dashoffset:0;marker:none;visibility:visible;display:inline;overflow:visible;enable-background:accumulate"
         d="m -80.787561,519.12791 c 40.747744,12.45458 36.547665,26.46033 82.7454086,26.46033 l 612.9688824,0 c 46.19774,0 41.99766,-14.00575 82.74541,-26.46033 z"
         id="path4013"
         inkscape:connector-curvature="0"
         sodipodi:nodetypes="ccccc" />
      <path
         inkscape:connector-curvature="0"
         id="path4011"
         d="m -93.743872,501.11024 821.358472,0 0,18.93938 -821.358472,0 z"
         style="fill:#fcdd09;fill-opacity:1;fill-rule:evenodd;stroke:#000000;stroke-width:1.99999952;stroke-linecap:butt;stroke-linejoin:miter;stroke-miterlimit:4;stroke-opacity:1;stroke-dasharray:none;stroke-dashoffset:0" />
    </g>
    <g
       id="g3"
       transform="matrix(0.61656949,0,0,0.67105684,176.6734,87.09863)">
      <g
         id="Wappenkrone">
        <path
           sodipodi:nodetypes="ccccccccccccccccccccccccccccccccccccccccccccccccccccccccccccccccccccccccccccccccccccccccccccccccccccccccccccc"
           style="fill:#fcdd09;fill-opacity:1;stroke:#000000;stroke-width:2.7662;stroke-miterlimit:2.4142"
           inkscape:connector-curvature="0"
           d="m 243.09875,19.969909 c 0,0 9.25006,-3.075542 17.28241,0.347086 2.27394,6.633315 0.12993,16.042848 0.12993,16.042848 0,0 9.91433,-1.025086 14.21732,2.382772 2.29865,8.524676 -2.82204,16.070747 -2.82204,16.070747 0,0 7.66378,1.344143 10.8193,5.982034 -0.86886,10.0931 -7.21993,15.074439 -7.21993,15.074439 0,0 5.98914,6.291028 6.17714,12.312028 C 277.79125,94.794234 270.777,98.594 261.584,97.685 c 0,2.919 -0.376,6.382 -3.375,9.487 -2.812,2.549 -6.937,4.009 -11.439,2.912 -1.502,12.044 9.187,21.712 23.443,23.534 13.132,1.094 28.513,-4.375 32.453,-16.601 -4.504,0.731 -9.195,-1.822 -10.692,-5.836 -1.877,-5.839 2.436,-12.222 2.436,-12.222 -0.24936,-0.307168 -3.8959,-2.568509 -6.74346,-10.202847 1.24386,-7.983629 9.58324,-14.021996 9.58324,-14.021996 0,0 -3.95624,-9.424323 -2.46024,-14.709323 4.76667,-7.273572 12.42719,-7.273572 12.42719,-7.273572 0,0 1.70524,-12.721052 5.45424,-15.640052 6.567,-2.188 11.81046,-0.705996 11.81046,-0.705996 0,0 0.99643,-12.092585 7.28352,-16.376266 6.35759,0.05152 11.78905,3.725528 11.78905,3.725528 0,0 7.35135,-8.893701 13.65033,-8.308206 5.32793,3.327481 5.57552,14.492994 5.57552,14.492994 0,0 6.74455,-0.03381 11.9178,3.361979 2.33968,6.862782 -4.59961,17.178665 -4.59961,17.178665 0,0 5.18864,1.636818 9.09686,6.956538 1.16162,4.387102 -5.6071,15.594356 -5.6071,15.594356 0,0 6.1937,4.141922 5.38916,12.600031 -2.17533,5.081903 -11.41003,10.562604 -11.41003,10.562604 0,0 2.87519,9.391123 -1.23239,16.518603 -7.19187,4.63289 -12.09725,4.69656 -12.41269,4.81904 0,0 -2.83554,9.57044 -13.17985,7.87792 -2.252,4.014 -4.125,17.873 8.253,20.789 16.41945,1.52974 21.571,-13.493 21.571,-13.493 0,0 -3.65908,-8.58979 -1.76884,-18.60136 4.83164,-4.54621 9.7041,-5.02196 9.7041,-5.02196 0,0 -0.80409,-8.39706 2.25234,-14.037423 2.065,-1.648 9.99943,-1.529737 9.99943,-1.529737 0,0 1.71141,-8.78152 6.45114,-12.041515 6.6278,0.207004 11.09414,2.793586 11.09414,2.793586 0,0 4.4792,-6.257072 12.89125,-9.408958 6.47628,2.667686 11.27144,6.770367 11.27144,6.770367 0,0 11.257,-3.098 16.699,-2.004 6.749,0.733 10.875,5.474 12.002,10.578 -7.504,-0.91 -13.129,1.825 -17.077,6.387 -3.561,4.013 -5.441,10.399 -10.692,14.775 -6.752,6.93 -8.44,6.749 -15.195,9.299 -0.745,3.833 -2.061,8.759 -5.814,12.041 -3.563,3.281 -9.938,4.922 -15.57,5.292 -5.813,8.932 -10.69,17.33 -15.565,27.356 0,0.185 -21.192,49.066 -21.192,48.888 -36.764,-18.057 -88.9855,-27.541 -129.947,-27.178 -40.9615,-0.363 -93.183,9.121 -129.947,27.178 0,0.178 -21.192,-48.703 -21.192,-48.888 -4.875,-10.026 -9.752,-18.424 -15.565,-27.356 -5.632,-0.37 -12.007,-2.011 -15.57,-5.292 -3.753,-3.282 -5.069,-8.208 -5.814,-12.041 -6.755,-2.55 -8.443,-2.369 -15.195,-9.299 C 21.576,106.988 19.696,100.602 16.135,96.589 12.187,92.027 6.562,89.292 -0.942,90.202 0.185,85.098 4.311,80.357 11.06,79.624 c 5.442,-1.094 16.699,2.004 16.699,2.004 0,0 4.795157,-4.102681 11.271438,-6.770367 8.412053,3.151886 12.891248,9.408958 12.891248,9.408958 0,0 4.466346,-2.586582 11.094144,-2.793586 4.739726,3.259995 6.451137,12.041515 6.451137,12.041515 0,0 7.934432,-0.118263 9.999432,1.529737 3.056431,5.640363 2.252339,14.037423 2.252339,14.037423 0,0 4.872464,0.47575 9.704105,5.02196 C 93.313085,124.11521 89.654,132.705 89.654,132.705 c 0,0 5.151549,15.02274 21.571,13.493 12.378,-2.916 10.505,-16.775 8.253,-20.789 -10.34431,1.69252 -13.17985,-7.87792 -13.17985,-7.87792 -0.31544,-0.12248 -5.22082,-0.18615 -12.412691,-4.81904 -4.107581,-7.12748 -1.232392,-16.518603 -1.232392,-16.518603 0,0 -9.234698,-5.480701 -11.410027,-10.562604 -0.80454,-8.458109 5.389161,-12.600031 5.389161,-12.600031 0,0 -6.768718,-11.207254 -5.607097,-15.594356 3.908221,-5.31972 9.096857,-6.956538 9.096857,-6.956538 0,0 -6.939295,-10.315883 -4.599606,-17.178665 5.173245,-3.395789 11.917795,-3.361979 11.917795,-3.361979 0,0 0.247591,-11.165513 5.57552,-14.492994 6.29898,-0.585495 13.65033,8.308206 13.65033,8.308206 0,0 5.43146,-3.674008 11.78905,-3.725528 6.28709,4.283681 7.28352,16.376266 7.28352,16.376266 0,0 5.24346,-1.482004 11.81046,0.705996 3.749,2.919 5.45424,15.640052 5.45424,15.640052 0,0 7.66052,0 12.42719,7.273572 1.496,5.285 -2.46024,14.709323 -2.46024,14.709323 0,0 8.33938,6.038367 9.58324,14.021996 -2.84756,7.634338 -6.31925,9.699273 -6.74346,10.202847 0,0 4.313,6.383 2.436,12.222 -1.497,4.014 -6.188,6.567 -10.692,5.836 3.94,12.226 19.321,17.695 32.453,16.601 14.256,-1.822 24.945,-11.49 23.443,-23.534 -4.502,1.097 -8.627,-0.363 -11.439,-2.912 -2.999,-3.105 -3.375,-6.568 -3.375,-9.487 -9.193,0.909 -16.20725,-2.890766 -20.09888,-9.503137 0.188,-6.021 6.17714,-12.312028 6.17714,-12.312028 0,0 -6.35107,-4.981339 -7.21993,-15.074439 3.15552,-4.637891 10.8193,-5.982034 10.8193,-5.982034 0,0 -5.12069,-7.546071 -2.82204,-16.070747 4.30299,-3.407858 14.21732,-2.382772 14.21732,-2.382772 0,0 -2.14401,-9.409533 0.12993,-16.042848 8.03235,-3.422628 17.35409,-0.347086 17.35409,-0.347086 0,0 -0.68474,-14.1618089 12.91707,-20.969909 13.60181,6.8081001 12.98875,20.969909 12.98875,20.969909 z"
           stroke-miterlimit="2.4142"
           id="path3986" />
        <path
           id="Reif"
           stroke-miterlimit="2.4142"
           d="m 90.201981,223.937 c -3.185,1.271 -6.381,-0.551 -7.506,-3.104 -1.125,-2.739 -0.372,-6.021 3.002,-7.48 41.457999,-18.059 97.635509,-28.459 144.412019,-28.459 46.77651,0 102.95402,10.4 144.41202,28.459 3.374,1.459 4.127,4.741 3.002,7.48 -1.125,2.553 -4.321,4.375 -7.506,3.104 -41.074,-17.514 -90.70414,-27.551 -139.90802,-27.551 -49.20388,0 -98.83402,10.037 -139.908019,27.551 z"
           inkscape:connector-curvature="0"
           style="fill:#fcdd09;fill-opacity:1;stroke:#000000;stroke-width:2.76620007;stroke-miterlimit:2.41420007"
           sodipodi:nodetypes="ccczccczc" />
        <path
           style="fill:#078930;fill-opacity:1;stroke:#000000;stroke-width:1.5;stroke-miterlimit:2.41420007;stroke-dasharray:none"
           d="m 251.9375,132.375 c -0.43637,0.0428 -0.84522,0.14495 -1.25,0.34375 -3.58227,1.59175 -3.94408,7.10751 -2.09375,12.125 2.19499,4.77658 6.03056,7.72382 9.5,6.375 3.24069,-1.83937 3.70254,-6.85665 1.96875,-11.75 -1.42104,-4.07558 -5.07039,-7.39331 -8.125,-7.09375 z m 131.15625,0 c -2.89953,0.1882 -6.11796,3.30928 -7.4375,7.09375 -1.73379,4.89335 -1.27194,9.91063 1.96875,11.75 3.46944,1.34882 7.27376,-1.59842 9.46875,-6.375 1.85033,-5.01749 1.51977,-10.53325 -2.0625,-12.125 -0.60717,-0.2982 -1.26838,-0.38718 -1.9375,-0.34375 z"
           transform="matrix(1.6218772,0,0,1.4901867,-285.40621,-129.79322)"
           id="Smaragde"
           inkscape:connector-curvature="0" />
        <path
           style="fill:#da121a;fill-opacity:1;stroke:#000000;stroke-width:1.5;stroke-miterlimit:2.4142;stroke-dasharray:none"
           d="m 317.84375,123.71875 c -4.66466,0.36438 -6.85345,5.88388 -6.96875,10.78125 0.11592,4.7692 3.22895,9.9071 6.96875,10.03125 3.7398,-0.12415 6.88408,-5.26205 7,-10.03125 -0.1153,-4.89737 -2.33534,-10.41687 -7,-10.78125 z m -109.75,41.5 c -2.08208,-0.0149 -4.41158,0.77549 -6.20487,1.93877 0.2306,2.56948 1.2234,6.24261 3.76737,8.93623 2.6605,2.3232 6.5895,2.94458 9.25,3.1875 1.84909,-1.71119 2.54378,-7.95584 -1.15625,-11.75 -1.56115,-1.59007 -3.57417,-2.29757 -5.65625,-2.3125 z m 219.53125,0 c -2.08208,0.0149 -4.12635,0.72243 -5.6875,2.3125 -3.70003,3.79416 -3.00534,10.03881 -1.15625,11.75 2.6605,-0.24292 6.62075,-0.8643 9.28125,-3.1875 2.54397,-2.69362 3.49652,-6.09067 3.72712,-8.66015 -1.79329,-1.16328 -4.08254,-2.22978 -6.16462,-2.21485 z"
           transform="matrix(1.6218772,0,0,1.4901867,-285.40621,-129.79322)"
           id="Rubine"
           inkscape:connector-curvature="0"
           sodipodi:nodetypes="cccccsccccssccccs" />
        <path
           style="font-size:medium;font-style:normal;font-variant:normal;font-weight:normal;font-stretch:normal;text-indent:0;text-align:start;text-decoration:none;line-height:normal;letter-spacing:normal;word-spacing:normal;text-transform:none;direction:ltr;block-progression:tb;writing-mode:lr-tb;text-anchor:start;baseline-shift:baseline;color:#000000;fill:#000000;fill-opacity:1;stroke:none;stroke-width:2.76620007;marker:none;visibility:visible;display:inline;overflow:visible;enable-background:accumulate;font-family:Sans;-inkscape-font-specification:Sans"
           d="m 317.21875,152.71875 0.65625,0.78125 0.625,-0.78125 3.67188,-6 -4.29688,3.96875 -4.34375,-3.96875 z m -58.3125,7.09375 0.90625,0.71875 0.40625,-1.15625 1.26563,-6.79688 -2.51563,5.01563 -5,-2.84375 z m 117.8125,-2.21875 -2.51562,-5.01563 1.29687,6.79688 0.375,1.15625 0.9375,-0.71875 4.92188,-5.0625 z"
           transform="matrix(1.6218772,0,0,1.4901867,-285.40621,-129.79322)"
           id="path4010"
           inkscape:connector-curvature="0"
           sodipodi:nodetypes="ccccccccccccccccccccc" />
        <path
           style="fill:none;stroke:#000000;stroke-width:2.33196;stroke-miterlimit:2.4142;stroke-dasharray:none"
           d="m 131.36583,140.03332 23.22459,-5.17107 c -7.00079,-4.83673 -16.89425,-15.42161 -16.89425,-15.42161 0,0 -2.96911,13.22899 -6.33034,20.59268 z"
           id="path1377"
           inkscape:connector-curvature="0"
           sodipodi:nodetypes="cccc" />
        <path
           style="fill:#078930;fill-opacity:1;stroke:#000000;stroke-width:1.5;stroke-miterlimit:2.4142;stroke-dasharray:none"
           d="m 317.84375,187.90625 -11.4375,11.5 11.4375,11.625 11.4375,-11.625 z m -45.78125,3.97517 -9.125,13.84375 12.59375,9.53125 9.15625,-13.9375 z m 91.5625,0 -12.59375,9.4375 9.125,13.9375 12.625,-9.53125 z m -135.96875,13.55608 -5.125,15.3125 13.3125,5.625 7.03125,-14.4375 z m 180.40625,0 -15.25,6.5 7.03125,14.4375 13.3125,-5.625 z"
           transform="matrix(1.6218772,0,0,1.4901867,-285.40621,-129.79322)"
           id="Smaragde__x28_Kronreif_x29_"
           inkscape:connector-curvature="0"
           inkscape:label="Smaragde__x28_Kronreif_x29_"
           sodipodi:nodetypes="ccccccccccccccccccccccccc" />
        <path
           style="fill:#da121a;fill-opacity:1;stroke:#000000;stroke-width:1.5;stroke-miterlimit:2.41420007;stroke-dasharray:none"
           d="m 294.875,195.3125 c -2.80971,0 -5.0625,2.4328 -5.0625,5.40625 0,2.97345 2.25279,5.375 5.0625,5.375 2.81032,0 5.09375,-2.40155 5.09375,-5.375 0,-2.97345 -2.28343,-5.40625 -5.09375,-5.40625 z m 45.9375,0 c -2.81032,0 -5.09375,2.4328 -5.09375,5.40625 0,2.97345 2.28343,5.375 5.09375,5.375 2.80971,0 5.09375,-2.40155 5.09375,-5.375 0,-2.97345 -2.28404,-5.40625 -5.09375,-5.40625 z m -88.75,8.53125 c -2.80971,0 -5.09375,2.40088 -5.09375,5.375 0,2.97412 2.28343,5.375 5.09375,5.375 2.81094,0 5.09375,-2.40088 5.09375,-5.375 0,-2.97412 -2.28281,-5.375 -5.09375,-5.375 z m 131.5625,0 c -2.81094,0 -5.09375,2.40088 -5.09375,5.375 0,2.97412 2.28281,5.375 5.09375,5.375 2.81032,0 5.09375,-2.40088 5.09375,-5.375 0,-2.97412 -2.28404,-5.375 -5.09375,-5.375 z"
           transform="matrix(1.6218772,0,0,1.4901867,-285.40621,-129.79322)"
           id="Rubine__x28_Kronreif_x29_"
           inkscape:connector-curvature="0" />
        <path
           sodipodi:nodetypes="ccczccczc"
           style="fill:#fcdd09;fill-opacity:1;stroke:#000000;stroke-width:2.76620007;stroke-miterlimit:2.41420007"
           inkscape:connector-curvature="0"
           d="m 389.05902,167.716 c 3.189,1.094 4.129,4.561 2.818,7.296 -0.749,2.373 -3.566,4.014 -6.381,3.098 -52.707,-19.145 -104.30099,-27.908 -155.38602,-27.908 -51.08503,0 -102.67902,8.763 -155.386019,27.908 -2.815,0.916 -5.632,-0.725 -6.381,-3.098 -1.311,-2.735 -0.371,-6.202 2.818,-7.296 C 123.86598,147.833 176.21816,138.35 230.11,138.35 c 53.89184,0 106.24402,9.483 158.94902,29.366 z"
           stroke-miterlimit="2.4142"
           id="path3988" />
        <path
           style="fill:none;stroke:#000000;stroke-width:2.33196;stroke-miterlimit:2.4142;stroke-dasharray:none"
           d="m 328.85417,140.03332 -23.22459,-5.19435 c 6.92476,-4.6039 16.89425,-15.39833 16.89425,-15.39833 0,0 2.96911,13.22899 6.33034,20.59268 z"
           id="path3994"
           inkscape:connector-curvature="0"
           sodipodi:nodetypes="cccc" />
        <path
           style="fill:none;stroke:#000000;stroke-width:2.33196;stroke-miterlimit:2.4142;stroke-dasharray:none"
           d="M 243.92279,128.06856 C 238.40761,121.68072 230.11,109.367 230.11,109.367 c 0,0 -7.53735,12.45342 -13.35663,18.70156 z"
           id="path3996"
           inkscape:connector-curvature="0"
           sodipodi:nodetypes="cccc" />
        <path
           id="path4002"
           style="fill:none;stroke:#000000;stroke-width:2.33195734;stroke-linecap:round;stroke-linejoin:round;stroke-miterlimit:2.41420007;stroke-dasharray:none"
           d="m 343.164,114.837 c -4.505,-1.463 -8.256,7.296 -2.063,9.846 5.25,1.826 9.754,-0.909 11.629,-6.748 1.312,-4.561 -1.689,-11.309 -9.377,-11.309 -6.755,0.184 -11.631,6.017 -11.631,14.414 0,6.563 1.877,10.762 6.19,17.145 2.812,3.467 4.125,4.927 11.067,8.393 12.378,4.919 28.507,-3.835 31.698,-16.601 -3.19,2.554 -6.39443,3.283 -9.95643,2.735 M 299.384,106.881 c 2.627,-2.55 7.313,-1.456 7.878,2.92 0.563,5.292 -7.316,9.668 -12.946,4.564 -6,-6.021 -1.5,-13.5 2.253,-15.873 3.939,-2.003 9.004,-2.917 13.879,1.093 4.502,4.561 5.441,13.32 -1.311,22.075 -7.692,9.483 -20.449,13.494 -37.89,12.403 -10.13,-0.913 -16.507,-5.473 -22.321,-11.309 -5.25,-5.84 -10.316,-16.051 -9.194,-23.169 1.503,-8.57 10.507,-11.305 16.698,-7.658 5.813,3.83 5.254,11.488 1.31,15.323 -2.999,2.551 -8.253,3.648 -11.25,0.91 -3.571,-3.645 -2.256,-10.762 5.064,-8.937 m -134.498,15.614 c 4.505,-1.463 8.256,7.296 2.063,9.846 -5.25,1.826 -9.754,-0.909 -11.629,-6.748 -1.312,-4.561 1.689,-11.309 9.377,-11.309 6.755,0.184 11.631,6.017 11.631,14.414 0,6.563 -1.877,10.762 -6.19,17.145 -2.812,3.467 -4.125,4.927 -11.067,8.393 -12.378,4.919 -28.507,-3.835 -31.698,-16.601 3.19,2.554 6.701621,3.37708 10.263621,2.82908 M 160.836,106.881 c -2.627,-2.55 -7.313,-1.456 -7.878,2.92 -0.563,5.292 7.316,9.668 12.946,4.564 6,-6.021 1.5,-13.5 -2.253,-15.873 -3.939,-2.003 -9.004,-2.917 -13.879,1.093 -4.502,4.561 -5.441,13.32 1.311,22.075 7.692,9.483 20.449,13.494 37.89,12.403 10.13,-0.913 16.507,-5.473 22.321,-11.309 5.25,-5.84 10.316,-16.051 9.194,-23.169 -1.503,-8.57 -10.507,-11.305 -16.698,-7.658 -5.813,3.83 -5.254,11.488 -1.31,15.323 2.999,2.551 8.253,3.648 11.25,0.91 3.571,-3.645 2.256,-10.762 -5.064,-8.937"
           inkscape:connector-curvature="0"
           sodipodi:nodetypes="ccccscccccccccccccccccccccsccccccccccccccccc" />
        <path
           id="path4004"
           style="fill:none;stroke:#000000;stroke-width:1.86557;stroke-linecap:round;stroke-miterlimit:2.4142;stroke-dasharray:none"
           d="m 422.564,100.573 -6.563,17.145 m -2.755,-18.914 -3.93906,17.73051 m -6.82094,-9.65351 1.127,10.215 m -9.206,-4.298 4.878,6.748 m -9.746,2.928 6.75,1.456 m -12.201,7.875 10.51,-1.823 m -80.113,-74.507 10.318,19.702 m -14.161,-4.51 12.565,9.305 m -0.884,2.963 -15.566,0.362 m 15.265,5.185 -13.883,4.383 m 29.592,-0.241 8.629,8.39 m 6.108,-7.317 -10.502,-6.749 m 12.43,-2.017 -11.069,-1.094 m 16.238,-7.85 -15.569,3.829 m 0.114,-5.165 16.881,-12.95 m -19.141,7.871 15.757,-19.513 m -19.243,17.564 9.943,-31.559 m -12.162,7.146 -2.44,24.835328 M 326.888,50.403 l 2.063,20.064 m -82.85621,13.725121 -6.66231,-4.982645 M 257.90217,81.963125 240.392,75.834 m 0.929,-5.481367 21.26717,-2.976672 m -23.19858,-6.472662 17.34413,-9.002135 m -19.38115,5.438365 12.67781,-12.212062 m -1.59687,-13.515428 -13.52083,24.005004 m -3.07401,-1.071982 3.90989,-14.635763 m 5.06837,25.546058 13.75699,-3.32631 m -13.32256,10.910296 14.77067,2.261891 M 37.656,100.573 l 6.563,17.145 m 2.755,-18.914 3.939,17.73051 m 6.821,-9.65351 -1.127,10.215 m 9.206,-4.298 -4.878,6.748 m 9.746,2.928 -6.75,1.456 m 12.201,7.875 -10.51,-1.823 m 80.113,-74.507 -10.318,19.702 m 14.161,-4.51 -12.565,9.305 m 0.884,2.963 15.566,0.362 m -15.265,5.185 13.883,4.383 m -29.592,-0.241 -8.629,8.39 m -6.108,-7.317 10.502,-6.749 m -12.43,-2.017 11.069,-1.094 m -16.238,-7.85 15.569,3.829 M 116.11,74.651 99.229,61.701 m 19.141,7.871 -15.757,-19.513 m 19.243,17.564 -9.943,-31.559 m 12.162,7.146 2.44,24.835328 M 133.332,50.403 131.269,70.467 m 98.7755,-48.038225 v 32.246598 m -15.91929,29.516748 6.66231,-4.982645 M 202.31783,81.963125 219.828,75.834 m -0.929,-5.481367 -21.26717,-2.976672 m 23.19858,-6.472662 -17.34413,-9.002135 m 19.38115,5.438365 -12.67781,-12.212062 m 1.59687,-13.515428 13.52083,24.005004 m 3.07401,-1.071982 -3.90989,-14.635763 m -5.06837,25.546058 -13.75699,-3.32631 m 13.32256,10.910296 -14.77067,2.261891"
           inkscape:connector-curvature="0"
           sodipodi:nodetypes="cccccccccccccccccccccccccccccccccccccccccccccccccccccccccccccccccccccccccccccccccccccccccccccccccccccccccccccccccc" />
      </g>
      <g
         id="g17"
         transform="translate(-1.288,0)">
        <path
           id="Schildrand_1_"
           d="m 57.163,226.007 v 229.407 c 0,86.636 77.284,161.24 174.377,161.24 97.089,0 174.093,-74.604 174.093,-161.24 V 226.007 H 57.163 z"
           inkscape:connector-curvature="0"
           style="fill:#da121a;fill-opacity:1;stroke:#000000;stroke-width:3.84209991" />
        <g
           id="g20">
          <path
             id="Schildkörper_1_"
             d="m 67.087,234.432 v 218.286 c 0,82.439 72.85,153.425 164.37,153.425 91.52,0 164.103,-70.982 164.103,-153.425 V 234.432 H 67.087 z"
             inkscape:connector-curvature="0"
             style="fill:#da121a;fill-opacity:1;stroke:#000000;stroke-width:3.20160007" />
          <g
             id="g4047"
             transform="matrix(1.0174155,0,0,1.0174155,-6.1894069,0.95264768)">
            <path
               style="fill:#f3f2f2;stroke:#000000;stroke-width:2.07480001"
               inkscape:connector-curvature="0"
               d="m 184.868,381.645 c 7.529,-7.244 15.604,-14.271 23.279,-21.328 -4.447,-4.678 -14.619,-13.313 -14.619,-13.313 l -7.659,6.825 8.09,8.006 -6.454,5.938 -14.511,-12.832 21.749,-19.447 27.232,24.458 c 0,0 -20.303,18.415 -30.139,27.791 m -43.896,-39.43 c 22.011,-20.482 44.822,-40.649 67.261,-60.68 -9.211,-8.91 -29.051,-26.168 -29.051,-26.168 l -21.106,19.096 14.784,13.154 7.133,-6.355 -8.162,-8.166 5.584,-5.099 15.979,14.126 -19.722,17.711 -29.124,-26.015 33.281,-30 0.403,-0.059 79.43,71.613 -33.286,30.166 -27.305,-24.574 19.684,-17.719 14.491,12.891 -5.767,5.201 -9.127,-7.314 -7.102,6.472 14.721,13.212 c 0,0 14.313,-12.781 21.222,-19.103 -9.345,-8.938 -29.112,-26.088 -29.112,-26.088 l -67.533,60.462 m -43.94,-39.657 30.815,-27.086 28.975,26.039 -21.748,19.441 -15.878,-14.14 6.503,-5.927 9.246,7.338 7.632,-6.689 -15.017,-13.461 -23.372,20.911"
               id="Schlüsselbart" />
            <path
               style="fill:#f3f2f2;stroke:#000000;stroke-width:2.6407001"
               inkscape:connector-curvature="0"
               d="m 329.333,520.067 c -0.518,-0.313 -0.295,-0.022 -0.554,-0.224 3.939,-5.44 -1.436,-12.358 -8.397,-10.881 0.808,-3.228 -3.296,-5.073 -6.161,-3.731 l -1.021,0.768 c -9.697,-12.507 -6.534,-40.088 2.598,-53.579 l 0.545,0.191 c 2.816,1.572 6.317,-0.648 5.911,-3.566 7.438,2.327 12.85,-5.279 8.546,-10.875 l -0.11,-0.323 c 5.646,-2.615 7.758,-2.874 11.529,-5.401 7.993,-5.354 7.859,-13.428 1.985,-18.916 -8.2,-7.657 -22.241,-3.122 -25.639,7.851 -0.146,0.46 -0.358,2.12 -1.278,2.339 l -1.39,-0.567 c -5.622,-2.763 -12.219,1.811 -11.296,7.448 -3.221,-0.924 -5.724,2.244 -4.646,4.887 l 0.451,1.093 c -18.47,9.303 -42.47,7.466 -59.925,-2.953 l 0.531,-0.753 c 1.774,-2.926 -1.082,-5.803 -4.318,-5.999 1.764,-5.804 -4.398,-10.829 -10.561,-10.274 0.14,-1.809 -1.031,-3.605 -2.738,-4.646 -2.042,-1.45 -6.006,0.64 -6.006,0.64 L 94.849,301.302 80.135,313.281 200.401,427.302 c -0.698,1.154 -1.018,1.684 -1.018,1.684 -1.354,2.979 1.39,5.381 4.46,5.8 l -0.363,3.51 c 0.53,4.805 6.01,7.653 10.923,7.075 -0.782,3.126 2.633,5.54 5.858,4.691 l 0.874,-0.279 c 11.656,14.783 13.69,35.529 5.503,51.88 l -0.742,-0.383 c -2.83,-1.677 -6.352,0.409 -6.264,3.358 -7.447,-1.848 -12.881,5.814 -8.367,11.362 -4.872,2.429 -8.74,3.215 -12.29,5.931 -15.005,11.474 4.418,28.406 18.257,19.546 3.746,-2.396 6.053,-7.872 7.611,-11.443 l 2.027,0.934 c 5.518,2.653 11.655,-2.702 10.547,-7.879 3.306,0.919 5.797,-2.358 4.61,-5.03 l 0.025,-1.487 c 17.551,-6.673 39.639,-5.425 55.596,3.991 l -0.274,0.45 c -1.683,2.687 0.756,5.981 4.148,5.363 -1.899,7.383 7.075,10.786 13.098,6.731 2.986,8.494 13.899,19.755 24.757,12.69 10.49,-6.825 6.813,-24.764 -10.044,-25.73 z m -44.586,-30.98 c -3.492,5.078 -11.813,-0.271 -15.104,-3.905 -3.528,3.674 -12.14,9.077 -15.863,2.837 -1.059,-4.246 2.563,-7.794 5.673,-10.393 -3.334,-2.896 -10.53,-12.298 -4.289,-14.701 5.34,-2.052 9.782,4.708 13.888,6.756 3.288,-3.401 9.338,-7.974 14.004,-5.263 6.055,3.516 0.319,11.127 -4.656,13.813 3.655,2.473 9.096,6.856 6.347,10.856 z"
               id="Schlüsselkörper_1_" />
            <path
               style="fill:none;stroke:#000000;stroke-width:1.88619995;stroke-linecap:round"
               inkscape:connector-curvature="0"
               d="m 312.433,448.462 c -13.067,18.164 -15.075,42.663 -3.536,61.77 m -72.159,-73.24 c 20.068,12.287 46.424,13.581 67.934,3.312 M 230.3,505.823 c 10.152,-18.906 8.687,-42.062 -4.811,-59.377 m 75.895,70.862 c -18.729,-11.566 -43.804,-13.793 -64.136,-4.379"
               id="Rand" />
            <path
               style="fill:none;stroke:#000000;stroke-width:2.26340008;stroke-linecap:round"
               inkscape:connector-curvature="0"
               d="m 297.343,504.397 c -1.416,-0.647 -2.791,-1.229 -4.129,-1.757 -1.337,-0.525 -2.639,-0.998 -3.903,-1.422 -1.271,-0.425 -2.504,-0.801 -3.713,-1.138 -1.212,-0.338 -2.394,-0.633 -3.557,-0.897 -1.162,-0.259 -2.302,-0.487 -3.427,-0.686 -1.125,-0.194 -2.234,-0.36 -3.333,-0.499 -1.1,-0.138 -2.188,-0.249 -3.271,-0.334 -1.085,-0.083 -2.164,-0.141 -3.244,-0.174 -1.082,-0.033 -2.162,-0.042 -3.25,-0.023 -1.088,0.018 -2.182,0.063 -3.287,0.133 -1.106,0.071 -2.226,0.17 -3.36,0.3 -1.138,0.128 -2.291,0.285 -3.47,0.479 -1.18,0.191 -2.381,0.414 -3.612,0.677 -1.231,0.267 -2.491,0.567 -3.787,0.915 -1.296,0.347 -2.628,0.737 -4.001,1.184 -1.373,0.447 -2.786,0.942 -4.248,1.503 0.715,-1.282 1.357,-2.522 1.939,-3.73 0.58,-1.211 1.104,-2.384 1.572,-3.529 0.469,-1.146 0.885,-2.266 1.258,-3.357 0.373,-1.091 0.701,-2.163 0.989,-3.211 0.29,-1.05 0.541,-2.081 0.759,-3.097 0.217,-1.021 0.399,-2.023 0.551,-3.016 0.152,-0.995 0.273,-1.979 0.365,-2.959 0.092,-0.979 0.155,-1.958 0.191,-2.937 0.034,-0.977 0.04,-1.954 0.02,-2.939 -0.022,-0.982 -0.071,-1.972 -0.15,-2.973 -0.079,-1.001 -0.189,-2.015 -0.333,-3.04 -0.144,-1.028 -0.315,-2.073 -0.527,-3.137 -0.211,-1.066 -0.461,-2.153 -0.754,-3.267 -0.291,-1.11 -0.624,-2.251 -1.008,-3.424 -0.386,-1.172 -0.815,-2.376 -1.308,-3.617 -0.494,-1.24 -1.045,-2.518 -1.664,-3.839 1.418,0.646 2.793,1.229 4.132,1.755 1.336,0.524 2.64,0.996 3.907,1.42 1.269,0.428 2.502,0.804 3.713,1.141 1.211,0.339 2.393,0.635 3.555,0.896 1.161,0.262 2.302,0.488 3.426,0.685 1.125,0.195 2.233,0.361 3.332,0.5 1.1,0.139 2.188,0.25 3.27,0.336 1.084,0.083 2.162,0.142 3.242,0.175 1.078,0.033 2.158,0.041 3.246,0.021 1.088,-0.019 2.18,-0.063 3.286,-0.135 1.104,-0.071 2.224,-0.168 3.361,-0.298 1.138,-0.128 2.291,-0.285 3.47,-0.477 1.18,-0.192 2.379,-0.415 3.612,-0.68 1.231,-0.265 2.491,-0.564 3.791,-0.912 1.296,-0.348 2.627,-0.738 3.999,-1.185 1.374,-0.447 2.787,-0.943 4.249,-1.502 -0.714,1.281 -1.356,2.521 -1.938,3.73 -0.58,1.209 -1.104,2.383 -1.572,3.526 -0.471,1.147 -0.887,2.266 -1.258,3.357 -0.373,1.095 -0.701,2.16 -0.99,3.213 -0.289,1.05 -0.541,2.079 -0.758,3.097 -0.219,1.018 -0.4,2.02 -0.552,3.013 -0.151,0.994 -0.274,1.979 -0.364,2.959 -0.094,0.98 -0.158,1.958 -0.191,2.937 -0.034,0.979 -0.04,1.957 -0.02,2.938 0.021,0.985 0.069,1.975 0.148,2.978 0.08,1 0.189,2.012 0.332,3.04 0.143,1.027 0.318,2.072 0.531,3.139 0.214,1.063 0.461,2.15 0.752,3.262 0.293,1.115 0.628,2.255 1.012,3.427 0.383,1.17 0.816,2.376 1.307,3.617 0.493,1.24 1.044,2.518 1.662,3.838 z"
               id="_x34_" />
            <path
               style="fill:none;stroke:#000000;stroke-width:2.26340008;stroke-linecap:round"
               inkscape:connector-curvature="0"
               d="m 226.031,501.829 16.101,16.425 m 55.04,3.611 17.716,-17.107 m -90.27,24.803 -13.355,-13.563 m 8.369,-11.36 17.784,18.449 m 94.009,-84.022 -13.979,-15.127 m -12.846,6.655 17.651,18.451 m -20.728,77.331 18.858,-17.411 m -6.345,24.301 14.894,-13.798 m -114.531,-74.099 22.292,-18.497 m -32.611,7.767 22.054,-18.046 m 90.082,35.661 -16.019,-16.81 m -79.948,14.432 20.271,-17.101 m -40.437,-4.777 17.638,-15.535"
               id="Kreuzpunkte_1_" />
          </g>
        </g>
      </g>
    </g>
    <g
       id="g3927">
      <g
         id="g3831">
        <path
           style="color:#000000;fill:#fcdd09;fill-opacity:1;stroke:#000000;stroke-width:2;stroke-linecap:butt;stroke-linejoin:miter;stroke-miterlimit:4;stroke-opacity:1;stroke-dasharray:none;stroke-dashoffset:0;marker:none;visibility:visible;display:inline;overflow:visible;enable-background:accumulate"
           d="m 164.02352,256.48824 c 0,0 5.68211,4.33911 8.46003,11.15764 0,0 5.4322,3.97671 13.89223,-4.9884 8.46002,-8.9651 20.95803,-24.85706 20.95803,-24.85706 0,0 0.63135,-9.97525 10.35407,-12.87944 9.72272,-2.90419 9.905,2.3991 18.49129,-0.12627 7.91117,-2.32681 12.69004,5.55583 10.2278,11.36421 0,0 2.34303,5.57826 -2.56769,9.59612 0,0 -1.69643,-5.08929 -4.64285,-6.875 0,0 -0.75313,0.68179 -1.96429,0.98214 0,0 0.89286,5.17857 -1.33929,8.30357 0,0 -4.01785,-5.35714 -6.07142,-6.25 0,0 -0.98214,1.25 -2.94643,1.60714 0,0 -0.17857,4.55357 0.17857,7.32143 0,0 -4.6875,0.35714 -7.8125,-3.92857 0,0 -5.66964,2.14286 -8.16964,-1.51786 l 0,27.5 c 0,0 -2.58929,4.28572 -7.58929,5.80357 0,0 5.35715,7.58929 0.53572,17.58929 0,0 -3.03572,-6.33929 -8.03572,-7.58929 0,0 6.96429,13.125 -2.14285,21.42858 0,0 -1.69643,-8.92858 -7.05357,-13.48215 0,0 3.48213,13.03572 -3.92858,20.08929 0,0 -0.625,-8.03572 -2.32142,-10.44643 -2.84904,3.825 -6.17057,6.15974 -13.03572,6.25 -3.75,-1.16071 -11.96428,-15.44643 -11.96428,-15.44643 0,0 -4.45297,-29.51573 8.4878,-40.60608 z"
           id="path3823"
           inkscape:connector-curvature="0"
           sodipodi:nodetypes="ccscssccccccccccccccccccccc" />
        <path
           style="color:#000000;fill:none;stroke:#000000;stroke-width:1.5;stroke-linecap:butt;stroke-linejoin:miter;stroke-miterlimit:4;stroke-opacity:1;stroke-dasharray:none;stroke-dashoffset:0;marker:none;visibility:visible;display:inline;overflow:visible;enable-background:accumulate"
           d="m 219.32434,246.77187 c 0,0 -2.14154,-5.56219 4.55072,-6.38293 0,0 2.25435,0.66067 2.77251,4.69493 m 3.2884,-3.55851 c 0,0 -0.3788,-4.7351 4.23002,-5.99778 0,0 2.43068,0.94702 3.03046,4.79822 m 2.07632,-1.89403 c 0,0 0.0631,-2.36755 1.26268,-4.38785 0,0 4.98764,-0.94702 6.06092,2.96732"
           id="path3825"
           inkscape:connector-curvature="0"
           sodipodi:nodetypes="ccccccccc" />
        <path
           style="font-size:medium;font-style:normal;font-variant:normal;font-weight:normal;font-stretch:normal;text-indent:0;text-align:start;text-decoration:none;line-height:normal;letter-spacing:normal;word-spacing:normal;text-transform:none;direction:ltr;block-progression:tb;writing-mode:lr-tb;text-anchor:start;baseline-shift:baseline;color:#000000;fill:#000000;fill-opacity:1;stroke:none;stroke-width:1;marker:none;visibility:visible;display:inline;overflow:visible;enable-background:accumulate;font-family:Sans;-inkscape-font-specification:Sans"
           d="m 234.30799,235.99361 1.54655,0.39027 c -0.65043,-5.9329 -5.40677,-8.3068 -10.01079,-5.91513 4.41364,-1.13295 7.75303,1.14034 8.46424,5.52486 z m -10.95978,4.50639 1.53123,0.35141 c -0.6217,-6.13438 -4.79947,-7.89743 -9.20757,-6.71081 4.35626,0.0563 6.80915,2.4415 7.67634,6.3594 z m -13.05357,5.29464 2.04911,-0.39732 c 0,0 -2.37667,-3.05711 -2.9375,-6.58482 -1.0596,4.06377 0.88839,6.98214 0.88839,6.98214 z"
           id="path3827"
           inkscape:connector-curvature="0"
           sodipodi:nodetypes="cccccccccccc" />
      </g>
      <g
         id="g3922">
        <path
           style="color:#000000;fill:#fcdd09;fill-opacity:1;stroke:#000000;stroke-width:2;stroke-linecap:butt;stroke-linejoin:miter;stroke-miterlimit:4;stroke-opacity:1;stroke-dasharray:none;stroke-dashoffset:0;marker:none;visibility:visible;display:inline;overflow:visible;enable-background:accumulate"
           d="m 37.123106,367.35248 c 0,0 5.42957,17.04633 20.708127,18.56156 15.278558,1.51523 29.92577,2.65165 40.532372,17.17259 0,0 10.297105,-0.0102 11.011395,-5.90302 0.71429,-5.89286 -3.66071,-7.32143 -5.53571,-6.875 -1.875,0.44643 -0.71429,3.30357 -0.71429,3.30357 0,0 -6.607142,0.26786 -5.803571,-5.80357 0.803572,-6.07143 9.642861,-6.69643 14.553571,-1.51786 4.91071,5.17857 6.07143,19.28571 -11.42857,22.23214 0,0 9.55357,4.82143 16.25,-3.83928 0.68493,0.5137 4.49361,10.62467 -11.78572,11.25 0,0 6.16072,4.19643 13.21429,-0.89286 0,0 1.16071,10.26786 -14.19643,9.10715 0,0 3.75,3.92857 12.41072,2.49999 0,0 -3.125,8.39286 -12.00894,5.71428 0,0 -5.937492,26.16072 24.24108,27.14287 0,0 1.78571,-2.58929 6.07143,-1.07143 0,0 3.03571,-5.98214 10.625,-1.51786 0,0 6.78571,-1.875 9.64286,3.30357 2.85714,5.17857 -1.69643,9.375 -1.69643,9.375 0,0 -1.07143,-7.76785 -7.41072,-5.71428 0,0 0.625,3.30357 -1.69643,4.375 0,0 3.66072,10 -3.92857,13.39285 0,0 -0.26785,-4.64285 -4.28571,-7.67857 0,0 -8.30357,4.19643 -16.69643,-0.625 0,0 -1.69643,1.78572 -3.66072,1.78572 0,0 -0.89285,6.51785 -4.55357,8.75 0,0 -1.07143,-5.625 -4.55357,-8.48215 0,0 -5.71428,2.5 -8.571427,-0.89285 -2.857142,-3.39286 -1.428571,-8.48215 -1.428571,-8.48215 l -3.571429,-0.625 c 0,0 -4.464285,4.55358 -4.642857,10.26786 0,0 -7.678571,-3.92857 -3.660714,-13.57143 0,0 -1.875,-2.58928 0.357143,-5.71428 0,0 -4.732143,-6.25 -8.571429,-9.375 0,0 -9.464286,7.76785 -10,18.30357 0,0 -10.803571,-7.14286 -0.267857,-22.58929 0,0 -10.535714,1.78572 -11.785714,14.73215 0,0 -11.696429,-10.00001 5.803571,-24.46429 0,0 -13.392857,0.625 -15.535714,14.55357 0,0 -4.821429,-10.53571 2.321428,-19.28571 2.638502,-3.23217 6.604949,-5.3435 10.558258,-6.72102 0,0 1.138171,-6.76113 -6.451115,-8.1897 -7.589286,-1.42857 -24.732143,-5.89286 -30.178571,-13.03571 -5.446429,-7.14286 0.674783,-30.19797 16.319534,-32.95613 z"
           id="path3912"
           inkscape:connector-curvature="0"
           sodipodi:nodetypes="cscsscssccccccccccscccccccccscccccccccccsc" />
        <path
           style="color:#000000;fill:none;stroke:#000000;stroke-width:1.5;stroke-linecap:butt;stroke-linejoin:miter;stroke-miterlimit:4;stroke-opacity:1;stroke-dasharray:none;stroke-dashoffset:0;marker:none;visibility:visible;display:inline;overflow:visible;enable-background:accumulate"
           d="m 106.44483,474.99687 c 0,0 -1.19957,-2.58852 0.31567,-6.25032 0,0 7.44987,-1.8309 8.58629,6.12405 m 20.89753,-0.75761 c 0,0 -5.17703,-4.9245 -1.64149,-10.79601 0,0 8.08122,-0.18941 9.40704,5.36643 m 1.8309,-5.05076 c 0,0 -2.96732,-2.90419 -1.19955,-6.7554 m -59.788406,5.36644 c 0,0 5.808377,-2.08344 7.765548,2.96732 m 41.163718,-6.94479 c 0,0 4.98763,1.70462 5.4927,5.80837"
           id="path3916"
           inkscape:connector-curvature="0"
           sodipodi:nodetypes="cccccccccccc" />
        <path
           style="font-size:medium;font-style:normal;font-variant:normal;font-weight:normal;font-stretch:normal;text-indent:0;text-align:start;text-decoration:none;line-height:normal;letter-spacing:normal;word-spacing:normal;text-transform:none;direction:ltr;block-progression:tb;writing-mode:lr-tb;text-anchor:start;baseline-shift:baseline;color:#000000;fill:#000000;fill-opacity:1;stroke:none;stroke-width:1.5;marker:none;visibility:visible;display:inline;overflow:visible;enable-background:accumulate;font-family:Sans;-inkscape-font-specification:Sans"
           d="m 112.5,463.40625 c 4.53493,1.49297 5.85254,5.55878 6,9.875 l 1.5,0.0312 c 1.06722,-6.193 -2.89752,-10.41298 -7.21875,-11.375 -5.64117,-0.9222 -9.12523,-4.49024 -11.51562,-8.84373 1.24649,6.20692 6.03256,9.25826 11.23437,10.31253 z"
           id="path3918"
           inkscape:connector-curvature="0"
           sodipodi:nodetypes="cccccc" />
      </g>
      <g
         id="g3900">
        <path
           style="color:#000000;display:inline;overflow:visible;visibility:visible;fill:#fcdd09;fill-opacity:1;stroke:#000000;stroke-width:2;stroke-linecap:butt;stroke-linejoin:miter;stroke-miterlimit:4;stroke-dasharray:none;stroke-dashoffset:0;stroke-opacity:1;marker:none;enable-background:accumulate"
           d="m 48.86613,308.38483 c 0,0 -34.044701,30.40592 -70.294702,40.04878 -36.25,9.64285 -51.545867,0.66569 -51.724439,-15.22716 -0.178571,-15.89286 18.904289,-20.0991 36.903011,-16.9157 19.825145,3.50644 53.43182,-8.72314 57.918419,-35.14421 4.821428,-28.39286 -6.516131,-39.81059 -6.516131,-39.81059 0,0 3.535534,-4.67195 7.954951,-5.6821 -0.442178,-3.36438 -5.89575,-5.2562 -9.975256,-3.66181 0,0 5.808377,-9.21764 -1.515229,-15.27855 0,0 -1.7677666,10.85914 -10.2277942,9.84898 0,0 7.323606,-5.3033 2.0203051,-14.01586 -5.3033009,-8.71257 -0.2525382,-15.65737 4.6719555,-13.25826 4.9244936,2.39912 3.3506176,6.57234 -1.5395215,7.55448 1.3697901,4.46874 8.2328991,4.98945 10.4179671,-0.93509 2.615906,-7.09271 -5.047225,-18.229 -15.3054774,-13.9303 -10.2582526,4.2987 -5.1129924,13.63062 -5.8057489,21.02566 -0.6146164,6.56091 -6.5723367,8.1821 -6.5723367,8.1821 0.506758,-0.88388 2.718509,-8.42481 0.45604,-16.68017 -2.517461,-9.18577 -10.501465,-10.45553 -13.839286,-9.01785 0,0 4.107143,5 3.482143,9.46428 0,0 -8.214286,-13.39285 -22.946429,-4.55357 0,0 15.625,4.19643 13.482143,20.80357 0,0 -7.946428,-0.71428 -11.339286,4.82143 -3.392857,5.53572 -10.803571,2.58929 -8.571428,-3.125 2.232143,-5.71428 1.428571,-11.875 -4.910715,-12.85714 -6.339285,-0.98214 -6.160714,5.35714 -9.821428,7.5 -3.660715,2.14286 -7.142857,-1.16071 -5.178572,-6.07143 0,0 -7.142857,2.58929 -6.160714,9.55357 0.982143,6.96429 10.535714,7.94643 13.303572,3.21429 2.767857,-4.73214 5.625,-0.98214 4.285714,1.33928 -1.339286,2.32143 -7.232143,5.08929 -4.285714,10.26786 2.946428,5.17857 10.648149,6.67857 13.125,2.85715 2.476851,-3.82143 6.982776,-3.00777 7.589285,0.17856 0.589183,3.09531 -1.498639,5.41175 -6.696429,3.39286 0,0 -1.098831,7.36569 8.660715,4.73215 5.625001,-1.51787 6.785714,-9.01786 12.321429,-12.5 5.535714,-3.48215 8.303571,2.32142 7.5,5.08928 -0.803572,2.76786 -4.954395,3.22353 -9.017857,3.75 -7.841887,1.01602 -13.375529,8.30757 -13.303572,15.98214 0.07199,7.67824 4.196429,15.53572 13.571429,13.83929 9.375,-1.69643 9.464285,-12.23214 2.946428,-15.26786 0,0 -0.357143,8.03572 -5.357143,6.07143 -5,-1.96428 -2.767857,-11.96428 2.946429,-12.94643 5.714286,-0.98214 17.678572,0.53572 22.232143,-4.28571 4.5535714,-4.82143 1.154369,-9.63651 1.154369,-9.63651 7.0555151,-0.95421 16.627251,12.49482 16.176034,29.96936 -0.451748,17.49508 -16.2589745,42.79215 -46.437546,36.18501 0,0 6.062719,-8.00219 1.643302,-17.3461 0,0 -3.282996,4.16687 -6.81853,5.55583 0,0 3.030458,-12.12183 -5.050763,-15.78363 0,0 -0.378807,9.09137 -2.65165,12.37437 0,0 -0.757615,-15.40483 -8.333759,-15.9099 0.200436,3.55055 0.993352,10.06359 -2.777919,14.14214 0,0 1.136421,-8.96511 -7.702413,-11.8693 -8.838835,-2.90419 -10.606602,-3.15673 -14.773482,-8.46003 0,0 -3.030457,7.07107 0.505077,11.23795 3.535534,4.16688 16.920055,3.40927 13.131983,17.5514 0,0 -2.525381,-8.33376 -11.364216,-9.34391 -8.838835,-1.01015 -10.606602,7.07107 -10.606602,7.07107 0,0 10.85914,-3.40927 13.258252,7.82868 0,0 -10.85914,-6.06092 -16.414979,4.67195 0,0 11.616755,1.13643 14.015867,9.34392 0,0 -11.278351,7.08485 -9.810168,22.32841 1.379931,14.32727 11.607143,21.25 17.678571,23.21429 0,0 -0.292259,7.23776 -9.257363,11.53091 0,0 8.20749,5.42957 15.026019,-0.88388 0,0 -0.857942,4.71011 -4.072227,7.47797 0,0 10,2.76786 14.107143,-7.85714 0,0 0.178571,4.73214 -2.142857,8.92857 0,0 9.285714,0.80357 12.946429,-11.16072 0,0 0.892856,6.42858 -2.142858,12.85715 3.118304,0.36686 15.469649,-0.8271 15,-17.32143 0,0 2.589286,7.85714 0,12.76785 2.502791,0.38505 13.174964,-4.22928 13.571429,-17.41071 0,0 6.160242,1.08211 -0.988489,18.00879 -7.14873,16.92667 -12.827419,26.52416 -24.434021,34.74712 -9.399245,6.6591 -16.288709,4.54568 -21.086934,1.01015 0,0 -3.156727,9.21764 3.788072,11.36422 0,0 -17.189343,9.51258 -26.921486,-1.82671 0,0 -6.071428,14.55357 10.714286,16.78572 0,0 -13.125,4.28571 -19.642857,-2.67858 0,0 -3.839284,16.25001 14.732143,13.83929 0,0 -5.535714,6.78572 -18.839287,7.58929 0,0 1.339287,6.51785 12.589287,5.35714 11.25,-1.16072 16.785714,-10.53571 16.785714,-10.53571 0,0 -1.875,19.01785 -6.160714,24.73214 -4.285715,5.71428 -12.857143,8.30357 -12.767858,15.625 0.08929,7.32143 6.250001,6.875 6.250001,6.875 0,0 1.428571,3.66071 7.321428,3.39286 l 0.446429,5.17857 c 0,0 7.053571,-0.53572 8.035714,-5.98215 0,0 4.553572,0.98215 5.535714,-1.60714 0,0 10.892858,2.41072 15,-0.625 0,0 3.125,4.10714 3.125,8.125 0,0 5.892858,-2.58928 5.178572,-8.48214 -0.714286,-5.89286 -3.839286,-8.125 -3.839286,-8.125 0,0 5.803572,-0.98214 7.5,5.71428 0,0 2.946429,-3.48214 1.428572,-9.19642 -1.517857,-5.71429 -10,-5.44643 -10,-5.44643 0,0 -2.232143,-6.16072 -9.107143,-2.5 0,0 -5.714286,-0.98215 -4.732143,-10.44643 0.982143,-9.46429 14.821428,-16.51786 21.428571,-17.94643 0,0 -5.246566,17.00937 12.557373,15.36787 0,0 -9.848988,-8.9651 -0.126269,-18.94036 0,0 -3.788072,18.56155 13.51079,17.67767 0,0 -9.47018,-10.6066 -0.378807,-20.58186 0,0 -3.661803,19.69797 14.0158664,17.29886 0,0 -12.8794454,-9.72272 -1.5152289,-21.46574 0,0 -4.4194174,21.97082 16.1624405,17.67767 0,0 -15.6573642,-5.93465 -7.3236056,-21.97082 0,0 2.7779196,20.70813 16.0361716,14.52095 0,0 -11.364216,-7.82869 -7.954951,-21.33948 0,0 5.682108,-3.03045 4.293148,-16.41498 -1.38896,-13.38452 -3.030458,-32.57742 14.647212,-46.34074 0,0 46.810635,-0.14177 59.977808,-5.3033 15.783634,-6.18719 24.583494,-11.59419 24.583494,-11.59419 0,0 14.32378,-5.80403 24.80412,-7.31926 10.48033,-1.51522 16.44258,-14.75443 14.65687,-26.00443 -1.78572,-11.25 -24.10715,-32.85715 -59.46429,-33.21429 -35.357141,-0.35714 -52.56244,24.59408 -52.56244,24.59408 z"
           id="path3880"
           inkscape:connector-curvature="0"
           sodipodi:nodetypes="csssscccccsscssscsccccsssscsssssscsssssscssscscccccccscscsccccsccccccccccczscccccccscsscccccccsccsccscccccccccccscscsssc" />
        <path
           sodipodi:nodetypes="cccccccc"
           inkscape:connector-curvature="0"
           id="path3882"
           d="m -76.745442,504.03689 c 0,0 -0.708486,-7.33838 3.193709,-9.65772 0,0 5.180205,1.01518 4.939813,8.03023 m 21.247014,-1.65999 c -1.748802,-4.16121 -6.060954,-3.57329 -3.647798,-10.91593 0,0 4.671956,-0.75761 7.828682,2.39911 m -1.175263,-1.06431 c 0,0 -3.938634,-4.8072 -0.276831,-8.6584"
           style="color:#000000;fill:none;stroke:#000000;stroke-width:1.5;stroke-linecap:butt;stroke-linejoin:miter;stroke-miterlimit:4;stroke-opacity:1;stroke-dasharray:none;stroke-dashoffset:0;marker:none;visibility:visible;display:inline;overflow:visible;enable-background:accumulate" />
        <path
           sodipodi:nodetypes="cccccccccccccccccccccccccccccccccccc"
           inkscape:connector-curvature="0"
           id="path3884"
           d="m -52.84375,484.96875 c 3.313985,0.21165 5.117199,2.22031 6.03125,5.15625 l 1.46875,-0.3125 c -1.044097,-3.55711 -4.288536,-6.31577 -7.5,-6.34375 -5.240886,0.0595 -8.015625,-2.65625 -8.015625,-2.65625 0,0 2.144833,4.22293 8.015625,4.15625 z m -13.5625,6.625 c 2.823501,2.46018 3.041805,5.82778 2.40625,9.25 l 1.46875,0.34375 c 0.635352,-3.83726 -0.0896,-8.76523 -3.03125,-10.84375 -3.622667,-2.11735 -5.039809,-5.31405 -6.09375,-8.71875 -0.597653,4.68818 2.069323,7.81404 5.25,9.96875 z m -18.21875,8.9375 1.4375,-0.40625 c -0.803381,-3.95842 1.528474,-7.54155 -0.07813,-11.23438 -0.269002,4.51686 -2.276079,8.20461 -1.35937,11.64063 z m 4.758928,-63.07979 c 0,0 7.857143,1.5625 13.392857,-2.99107 -3.035715,5.08928 -13.571429,6.07143 -13.571429,6.07143 z m 6.428572,15.98215 c 0,0 2.232142,-3.66072 2.589285,-6.29465 0,0 1.651786,1.47322 -0.223214,8.125 z m 15.446428,-80.3125 c 0,0 2.5,-5 2.8125,-8.52679 0,0 2.142857,2.94643 0.357143,8.48214 z m 11.071429,-2.27679 c 0,0 1.785714,-3.34821 1.294643,-8.34821 0,0 3.125,2.36606 1.875,9.59821 z M -33.125,368.43361 c 0,0 0.669643,-6.38393 -0.848215,-10.04464 0,0 3.794644,2.36607 3.973215,10.62499 z"
           style="font-size:medium;font-style:normal;font-variant:normal;font-weight:normal;font-stretch:normal;text-indent:0;text-align:start;text-decoration:none;line-height:normal;letter-spacing:normal;word-spacing:normal;text-transform:none;direction:ltr;block-progression:tb;writing-mode:lr-tb;text-anchor:start;baseline-shift:baseline;color:#000000;fill:#000000;fill-opacity:1;stroke:none;stroke-width:1.5;marker:none;visibility:visible;display:inline;overflow:visible;enable-background:accumulate;font-family:Sans;-inkscape-font-specification:Sans" />
      </g>
      <g
         id="g3875">
        <path
           style="color:#000000;display:inline;overflow:visible;visibility:visible;fill:#fcdd09;fill-opacity:1;stroke:#000000;stroke-width:2;stroke-linecap:butt;stroke-linejoin:miter;stroke-miterlimit:4;stroke-dasharray:none;stroke-dashoffset:0;stroke-opacity:1;marker:none;enable-background:accumulate"
           d="m 146.21958,327.83027 c 0,0 4.16688,5.05076 5.68211,12.12183 12.03854,4.09823 16.70923,13.45783 34.34519,28.53681 l 9.4719,0.57605 c 0,0 3.74551,-4.64921 2.94194,-10.18492 -0.80358,-5.53572 4.64285,-10.17858 8.57142,-7.76786 0,0 9.10715,-6.78572 14.64286,4.375 0,0 -5.35714,-0.625 -7.85714,1.96428 0,0 1.60714,6.33929 -6.25,6.16072 0,0 -1.96429,3.57143 -2.76786,5.26786 h 1.875 c 0,0 2.85714,-3.30358 7.14286,-1.33929 4.28571,1.96429 3.48214,7.76786 3.48214,7.76786 0,0 8.48214,4.46428 4.82143,13.57143 0,0 -3.48214,-4.28572 -8.57143,-4.64286 0,0 -0.89286,2.58928 -5,3.03571 0,0 2.76786,6.16071 -1.07143,9.91072 0,0 1.16072,9.375 -7.05357,9.73214 0,0 0.98214,-5.17857 -1.60714,-8.92857 0,0 -6.63737,0.1747 -5.98214,-4.82143 0.71428,-5.44642 -1.42858,-7.41071 -1.42858,-7.41071 0,0 -4.55357,0.98214 -8.66071,0.0893 -0.1825,1.27748 -2.26656,10.50879 -15.625,9.37498 0,0 5.53571,-4.46428 5.35714,-9.82143 -0.59366,0.59366 -5.52278,9.1835 -15.625,6.96429 0.26382,-0.35176 7.7622,-4.96269 6.16072,-11.60715 -0.98723,3.13516 -6.94652,9.96446 -16.25,8.125 0.0893,-0.28626 8.12499,-4.12956 7.14285,-10.08928 -0.84644,0.7618 -7.8344,10.45276 -16.07143,6.07143 0,0 8.57143,-5.58035 6.78572,-11.16071 -3.39286,5.13393 -11.42857,9.91071 -17.94643,6.51785 5.94376,-4.05129 8.54585,-6.09372 8.66072,-10.44643 -2.57123,2.37485 -15.0771,9.05335 -21.42858,1.78571 5.72184,-1.42857 11.11736,-4.19642 11.51786,-8.48214 0,0 -3.38839,-5.31249 -13.03125,-8.43749 0,0 -2.77232,-7.63393 -1.43304,-19.77679"
           id="path3858"
           inkscape:connector-curvature="0"
           sodipodi:nodetypes="ccccsccccccscccccccscccccccccccccccc" />
        <path
           id="path3864"
           style="color:#000000;fill:none;stroke:#000000;stroke-width:1.5;stroke-linecap:butt;stroke-linejoin:miter;stroke-miterlimit:4;stroke-opacity:1;stroke-dasharray:none;stroke-dashoffset:0;marker:none;visibility:visible;display:inline;overflow:visible;enable-background:accumulate"
           d="m 207.20755,369.12025 c 0,0 -9.849,0.94702 -13.5108,-0.0631 m 20.13992,-11.80619 c 0,0 -4.04061,-0.56821 -7.38674,0.63134 0,0 -1.57837,-2.33597 0.94702,-6.81853 m 6.06091,32.95623 c 0,0 -2.71478,-3.28299 -2.58852,-6.81853 0,0 2.65166,-1.95717 6.62913,-1.57836 m -18.21275,22.36407 c 0,0 0.98214,-3.21429 3.03571,-5.17857 0,0 3.88076,0.31567 5.22004,4.69067"
           inkscape:connector-curvature="0"
           sodipodi:nodetypes="ccccccccccc" />
        <path
           style="font-size:medium;font-style:normal;font-variant:normal;font-weight:normal;font-stretch:normal;text-indent:0;text-align:start;text-decoration:none;line-height:normal;letter-spacing:normal;word-spacing:normal;text-transform:none;direction:ltr;block-progression:tb;writing-mode:lr-tb;text-anchor:start;baseline-shift:baseline;color:#000000;fill:#000000;fill-opacity:1;stroke:none;stroke-width:1.5;marker:none;visibility:visible;display:inline;overflow:visible;enable-background:accumulate;font-family:Sans;-inkscape-font-specification:Sans"
           d="m 198.3125,381.5 c 7.44947,0.30707 9.71875,6.46875 9.71875,6.46875 l 1.375,-0.5625 c 0,0 -2.74762,-6.80956 -10.96875,-7.40625 -7.46031,-0.54148 -11.3125,-5.89063 -11.3125,-5.89063 0,0 1.34893,6.98507 11.1875,7.39063 z"
           id="path3860"
           inkscape:connector-curvature="0"
           sodipodi:nodetypes="sccscs" />
      </g>
      <g
         id="g4144">
        <path
           inkscape:connector-curvature="0"
           id="path3836"
           d="m 80.922861,213.2787 c 0,0 0.904268,4.06654 6.332345,5.78131 l -0.822102,-6.46829 z"
           style="color:#000000;fill:#ffffff;stroke:#000000;stroke-width:1;stroke-linecap:butt;stroke-linejoin:miter;stroke-miterlimit:4;stroke-opacity:1;stroke-dasharray:none;stroke-dashoffset:0;marker:none;visibility:visible;display:inline;overflow:visible;enable-background:accumulate" />
        <path
           style="color:#000000;fill:#da121a;fill-opacity:1;stroke:#000000;stroke-width:2;stroke-linecap:butt;stroke-linejoin:miter;stroke-miterlimit:4;stroke-opacity:1;stroke-dasharray:none;stroke-dashoffset:0;marker:none;visibility:visible;display:inline;overflow:visible;enable-background:accumulate"
           d="m 94.553572,206.20146 c 2.393536,2.36265 5.725078,6.59996 4.732142,13.66072 0,0 -5.267857,-3.83929 -13.928571,0.0893 -8.660714,3.92858 -9.318062,12.46929 -15.535714,13.83928 -6.217652,1.36999 -9.464286,-2.5 -7.589286,-7.94643 1.875,-5.44643 -1.696429,-10 -4.732143,-11.51785 0,0 -8.387901,1.24914 -6.428571,12.67857 1.95933,11.42943 20.625,17.41071 27.232143,7.14285 6.607143,-10.26785 13.928571,-14.28571 20.267857,-6.69642 0,0 -0.625,5.71429 -3.303571,9.37499 0,0 6.250002,2.23215 6.785712,1.96429 0.53572,-0.26786 6.42857,-7.41071 6.42857,-7.76786 0,-0.35714 0,-24.46428 0,-24.46428 z"
           id="path4111"
           inkscape:connector-curvature="0"
           sodipodi:nodetypes="cczzsczsccsscc" />
        <path
           style="color:#000000;fill:#ffffff;stroke:#000000;stroke-width:1;stroke-linecap:butt;stroke-linejoin:miter;stroke-miterlimit:4;stroke-opacity:1;stroke-dasharray:none;stroke-dashoffset:0;marker:none;visibility:visible;display:inline;overflow:visible;enable-background:accumulate"
           d="m 86.420973,212.12009 c 0,0 0.752111,4.09381 6.108256,6.00719 l -0.581024,-6.48883 z"
           id="path3856"
           inkscape:connector-curvature="0" />
        <path
           style="color:#000000;display:inline;overflow:visible;visibility:visible;fill:#fcdd09;fill-opacity:1;stroke:#000000;stroke-width:2;stroke-linecap:butt;stroke-linejoin:miter;stroke-miterlimit:4;stroke-dasharray:none;stroke-dashoffset:0;stroke-opacity:1;marker:none;enable-background:accumulate"
           d="m 159.46429,300.57647 c 0,0 16.96428,12.67857 11.07142,31.60714 -5.89285,18.92857 -25.71428,8.57143 -25.71428,8.57143 0,0 10.89286,-0.89286 11.78571,-14.46429 0.77138,-11.72514 -10.89285,-15.89285 -10.89285,-15.89285 0,0 6.25,9.28571 1.25,20.17857 -5,10.89285 -16.96429,6.96428 -18.21429,6.42857 17.5,-17.14286 -1.42857,-28.92858 -1.42857,-28.92858 5.71429,39.82143 -32.857144,34.46429 -32.857144,34.46429 0,0 5.981264,-4.92536 8.214284,-10.35714 -11.607142,8.57143 -26.964284,2.67857 -26.964284,2.67857 6.428571,-3.03571 11.428571,-10.17857 11.428571,-10.17857 -15.714285,6.78571 -23.928571,0 -23.928571,0 7.857143,-0.53571 12.142857,-6.78571 12.321428,-8.75 -15,6.60714 -24.821428,-0.17857 -24.821428,-0.17857 13.214286,-1.42857 14.642857,-11.60714 14.642857,-11.60714 0,0 -6.607143,6.60714 -16.964286,6.25 -10.357143,-0.35715 -12.5,-8.92858 -12.5,-8.92858 9.464286,1.25 15,-5.71428 15,-5.71428 -4.464285,-1.96429 -12.5,-1.07143 -12.5,-1.07143 0.892857,-7.5 12.5,-10 12.5,-10 -3.392857,-2.5 -7.835105,-2.05767 -7.835105,-2.05767 3.661803,-9.59645 23.599625,-9.39621 23.599625,-9.39621 -4.798224,-3.40927 -13.498099,-3.73577 -13.498099,-3.73577 6.439722,-7.57615 20.455589,-8.96511 32.324881,-8.08122 11.869293,0.88388 8.965104,-6.56599 8.965104,-6.56599 -4.798224,2.0203 -8.965104,-0.88389 -8.965104,-0.88389 5.808377,-1.13642 6.270125,-7.30457 6.270125,-7.30457 0,0 -3.266608,-0.0164 -4.920776,-2.14657 3.406635,-2.80221 4.711567,-7.0901 4.711567,-7.0901 -4.419418,-2.02031 -7.702413,-7.19734 -2.272843,-8.33376 5.42957,-1.13642 7.449874,5.93464 7.449874,5.93464 4.924494,-0.75761 10.732874,-9.09137 8.207494,-19.5717 -2.52539,-10.48034 -13.384525,-7.82868 -13.384525,-7.82868 2.020305,6.69226 -4.590866,8.58656 -9.963655,6.6986 -5.372788,-1.88796 -5.062365,-11.24429 -5.062365,-11.24429 -3.788072,-4.29315 -5.555839,-11.61676 -5.555839,-11.61676 0,0 4.924494,-4.41941 13.384522,-8.20748 v -5.93465 c 0,0 7.394632,-7.28099 21.284232,-11.82668 0,0 2.45435,-6.35607 -4.23791,-11.78564 0,0 4.79823,-3.53553 10.10153,0.88389 0,0 -0.12627,-5.42957 -2.77792,-8.46003 0,0 11.36421,-4.54569 16.41498,9.34391 0,0 2.39911,-4.41942 -0.50508,-11.86929 0,0 14.26841,-1.89404 13.51079,16.03617 0,0 3.6618,-0.63135 2.39911,-10.73287 0,0 14.01587,1.6415 8.46003,15.65736 0,0 6.81853,-0.12627 6.81853,-10.10152 0,0 7.95495,0.63134 7.70241,8.33376 -0.25253,7.70241 -5.17703,9.47018 -5.17703,9.47018 0,0 12.37437,2.90418 11.99556,-9.97526 6.84338,0.69962 10.31125,16.34901 -1.26269,19.1929 0,0 14.77348,4.16688 17.93021,-8.08122 0,0 9.97526,9.72272 -0.50508,15.15229 0,0 17.80394,3.40926 13.63706,21.46574 0,0 -3.91434,-6.56599 -13.51079,-6.43972 0,0 11.36422,7.3236 5.68211,16.66751 0,0 -2.27284,-7.95495 -11.11168,-7.57614 0,0 1.26269,16.28871 15.40483,16.28871 0,0 -10.35406,13.51079 -25.63262,-3.78807 0,0 1.01015,14.2684 14.39467,13.76332 0,0 -3.15672,11.36422 -17.67767,2.77792 0,0 1.76777,11.49049 14.39468,10.98541 0,0 -6.69226,10.35407 -18.18275,2.27285 0,0 -2.65165,9.59645 6.56599,15.40482 0,0 -1.76776,5.68211 -10.48033,3.91434 0,0 2.65165,9.59645 14.2684,8.33376 0,0 -1.01015,9.34391 -11.99556,5.05076 0,0 2.1096,5.73813 9.68574,6.74828 0,0 -1.40708,7.78004 -12.4772,6.15149 z"
           id="path4054"
           inkscape:connector-curvature="0"
           sodipodi:nodetypes="ccccccccccccccscccccccccccscccsccczcscccscccccccsccccccccccscscsccccccc" />
        <path
           style="color:#000000;display:inline;overflow:visible;visibility:visible;fill:none;stroke:#000000;stroke-width:1.5;stroke-linecap:butt;stroke-linejoin:miter;stroke-miterlimit:4;stroke-dasharray:none;stroke-dashoffset:0;stroke-opacity:1;marker:none;enable-background:accumulate"
           d="m 105.68721,165.44825 c 0,0 14.77348,1.51523 16.03617,12.2481 0,0 4.54569,-9.34392 11.86929,-6.31346 7.32361,3.03046 1.6415,11.61676 1.6415,11.61676 3.47892,27.98774 -9.32625,29.39162 -25.12754,42.0476 0,0 3.15672,13.13198 0.50507,19.95051 0,0 7.95496,-0.37881 9.09138,-9.97526 2.75547,2.07315 2.40204,6.562 2.39911,7.95495 6.43679,-0.12227 11.36422,-5.6821 10.73287,-19.31916 0,0 6.9448,1.51523 4.04061,17.04632 3.99337,-0.44371 17.93985,-7.66139 5.80838,-31.56727 0,0 10.6066,3.40927 10.73287,14.26841 4.73222,-0.91876 11.95134,-16.03322 -2.39911,-26.76904 0,0 8.08122,-1.13643 11.61675,5.17703 0,0 5.31345,-16.26335 -8.33376,-21.08694 -13.64721,-4.82358 -19.06663,2.27285 -19.06663,2.27285 m -75.904357,87.35492 c 0,0 6.546637,1.01916 13.501159,5.75025 -3.196031,4.93819 -12.0274,8.75736 -12.0274,8.75736 15.803571,9.82143 32.5,-2.14286 32.5,-2.14286 -1.964286,7.85715 -13.125,12.85715 -13.125,12.85715 5.803571,3.21428 14.732143,0 14.732143,0 -0.07727,3.12199 -2.703104,5.72041 -6.160715,7.41071 16.42857,4.375 22.94643,-11.07143 22.94643,-11.07143 2.05608,2.95188 1.52122,9.75473 -0.80357,14.10714 10.80357,-1.25 14.375,-16.25 14.375,-16.25 2.05357,4.46429 0.80357,12.32143 0.80357,12.32143 12.32143,-3.03571 10.89286,-18.66071 10.89286,-18.66071 5.80357,4.46428 5.26785,15.35715 5.26785,15.35715 4.2857,-2.23215 4.375,-10.00001 4.375,-10.00001 6.25893,11.16964 14.01786,12.23214 14.01786,12.23214 M 92.410715,255.21932 c 0,0 9.642855,-2.32143 12.410715,-8.75 0,0 2.32143,13.21429 -3.57143,17.58929 0,0 9.55357,2.76786 13.75,-7.76786 0,0 1.51786,10 -3.21429,14.375 0.625,0 15.17858,0.80357 16.78572,-12.05357 0,0 2.14286,5.26786 -0.625,12.5 0,0 10.89286,0.53571 11.33928,-11.60714 0,0 3.75,6.07143 1.25,13.39285 0,0 10.35715,-2.32142 8.57143,-18.39285 0,0 3.83929,3.21428 3.75,13.48214 3.57143,-0.44643 7.45761,-2.67857 8.03572,-17.94642 0,0 2.76786,5.35714 7.32143,7.05356"
           id="path4056"
           inkscape:connector-curvature="0"
           sodipodi:nodetypes="ccscccccccccccsccccccccccccccccccccccccccccc" />
        <path
           style="font-size:medium;font-style:normal;font-variant:normal;font-weight:normal;font-stretch:normal;text-indent:0;text-align:start;text-decoration:none;line-height:normal;letter-spacing:normal;word-spacing:normal;text-transform:none;direction:ltr;block-progression:tb;writing-mode:lr-tb;text-anchor:start;baseline-shift:baseline;color:#000000;fill:#000000;fill-opacity:1;stroke:none;stroke-width:1.5;marker:none;visibility:visible;display:inline;overflow:visible;enable-background:accumulate;font-family:Sans;-inkscape-font-specification:Sans"
           d="m 105.78506,180.61802 c -1.62474,-0.97238 -4.19025,-2.6742 -7.441945,-1.24683 -2.761453,1.21218 -4.644322,-0.0224 -5.95598,-1.43488 -0.0087,3.07519 1.800021,4.56379 5.273579,3.76012 3.473556,-0.80367 5.642596,0.10631 6.964286,0.89732 1.32169,0.79101 2.08505,1.86684 3.40625,2.89062 -0.0181,-1.83335 -0.62145,-3.89397 -2.24619,-4.86635 z m 30.50065,-1.39927 c -0.8782,2.48323 -2.90853,3.73945 -4.97321,3.3125 -2.24392,-0.46401 -3.85456,-0.1452 -4.78125,0.8125 -0.92669,0.9577 -0.95006,2.35844 0.17188,3.3125 -0.0388,-1.32272 0.13561,-1.83777 0.56473,-2.28125 0.42912,-0.44348 1.75643,-0.78355 3.73214,-0.375 2.53671,0.52456 4.32321,-0.48646 5.28125,-1.625 z m -55.966865,19.18687 c -0.05921,0.32989 -0.559917,1.44876 1.024109,1.751 1.584026,0.30224 1.87132,-2.34029 0.782046,-3.15667 -1.089274,-0.81638 -2.772265,-0.51176 -3.71875,0.68755 -0.946485,1.19931 -0.440072,2.583 0.609375,3.78125 -0.42678,-1.96398 0.005,-3.26676 1.30322,-3.06313 z"
           id="path4069"
           inkscape:connector-curvature="0"
           sodipodi:nodetypes="ssczscscsscssccczzzcc" />
        <path
           style="color:#000000;fill:#000000;stroke:none;stroke-width:2;marker:none;visibility:visible;display:inline;overflow:visible;enable-background:accumulate"
           d="m 104.20355,181.01091 c -0.44194,-2.27284 -6.060916,-0.47351 -6.060916,-0.47351 0,0 -1.104856,4.54569 1.862466,5.80838 1.55607,0.66216 4.42849,1.01812 6.38702,-1.23659 -1.65198,0.64212 -3.20324,0.42636 -3.61152,-1.31562 -0.40827,-1.74197 0.20272,-2.03458 1.42295,-2.78266 z"
           id="path4091"
           inkscape:connector-curvature="0"
           sodipodi:nodetypes="ccsczc" />
      </g>
    </g>
    <g
       id="g3953"
       transform="matrix(-1,0,0,1,637.10441,0)">
      <g
         id="g3955">
        <path
           sodipodi:nodetypes="ccscssccccccccccccccccccccc"
           inkscape:connector-curvature="0"
           id="path3957"
           d="m 164.02352,256.48824 c 0,0 5.68211,4.33911 8.46003,11.15764 0,0 5.4322,3.97671 13.89223,-4.9884 8.46002,-8.9651 20.95803,-24.85706 20.95803,-24.85706 0,0 0.63135,-9.97525 10.35407,-12.87944 9.72272,-2.90419 9.905,2.3991 18.49129,-0.12627 7.91117,-2.32681 12.69004,5.55583 10.2278,11.36421 0,0 2.34303,5.57826 -2.56769,9.59612 0,0 -1.69643,-5.08929 -4.64285,-6.875 0,0 -0.75313,0.68179 -1.96429,0.98214 0,0 0.89286,5.17857 -1.33929,8.30357 0,0 -4.01785,-5.35714 -6.07142,-6.25 0,0 -0.98214,1.25 -2.94643,1.60714 0,0 -0.17857,4.55357 0.17857,7.32143 0,0 -4.6875,0.35714 -7.8125,-3.92857 0,0 -5.66964,2.14286 -8.16964,-1.51786 l 0,27.5 c 0,0 -2.58929,4.28572 -7.58929,5.80357 0,0 5.35715,7.58929 0.53572,17.58929 0,0 -3.03572,-6.33929 -8.03572,-7.58929 0,0 6.96429,13.125 -2.14285,21.42858 0,0 -1.69643,-8.92858 -7.05357,-13.48215 0,0 3.48213,13.03572 -3.92858,20.08929 0,0 -0.625,-8.03572 -2.32142,-10.44643 -2.84904,3.825 -6.17057,6.15974 -13.03572,6.25 -3.75,-1.16071 -11.96428,-15.44643 -11.96428,-15.44643 0,0 -4.45297,-29.51573 8.4878,-40.60608 z"
           style="color:#000000;fill:#fcdd09;fill-opacity:1;stroke:#000000;stroke-width:2;stroke-linecap:butt;stroke-linejoin:miter;stroke-miterlimit:4;stroke-opacity:1;stroke-dasharray:none;stroke-dashoffset:0;marker:none;visibility:visible;display:inline;overflow:visible;enable-background:accumulate" />
        <path
           sodipodi:nodetypes="ccccccccc"
           inkscape:connector-curvature="0"
           id="path3959"
           d="m 219.32434,246.77187 c 0,0 -2.14154,-5.56219 4.55072,-6.38293 0,0 2.25435,0.66067 2.77251,4.69493 m 3.2884,-3.55851 c 0,0 -0.3788,-4.7351 4.23002,-5.99778 0,0 2.43068,0.94702 3.03046,4.79822 m 2.07632,-1.89403 c 0,0 0.0631,-2.36755 1.26268,-4.38785 0,0 4.98764,-0.94702 6.06092,2.96732"
           style="color:#000000;fill:none;stroke:#000000;stroke-width:1.5;stroke-linecap:butt;stroke-linejoin:miter;stroke-miterlimit:4;stroke-opacity:1;stroke-dasharray:none;stroke-dashoffset:0;marker:none;visibility:visible;display:inline;overflow:visible;enable-background:accumulate" />
        <path
           sodipodi:nodetypes="cccccccccccc"
           inkscape:connector-curvature="0"
           id="path3961"
           d="m 234.30799,235.99361 1.54655,0.39027 c -0.65043,-5.9329 -5.40677,-8.3068 -10.01079,-5.91513 4.41364,-1.13295 7.75303,1.14034 8.46424,5.52486 z m -10.95978,4.50639 1.53123,0.35141 c -0.6217,-6.13438 -4.79947,-7.89743 -9.20757,-6.71081 4.35626,0.0563 6.80915,2.4415 7.67634,6.3594 z m -13.05357,5.29464 2.04911,-0.39732 c 0,0 -2.37667,-3.05711 -2.9375,-6.58482 -1.0596,4.06377 0.88839,6.98214 0.88839,6.98214 z"
           style="font-size:medium;font-style:normal;font-variant:normal;font-weight:normal;font-stretch:normal;text-indent:0;text-align:start;text-decoration:none;line-height:normal;letter-spacing:normal;word-spacing:normal;text-transform:none;direction:ltr;block-progression:tb;writing-mode:lr-tb;text-anchor:start;baseline-shift:baseline;color:#000000;fill:#000000;fill-opacity:1;stroke:none;stroke-width:1;marker:none;visibility:visible;display:inline;overflow:visible;enable-background:accumulate;font-family:Sans;-inkscape-font-specification:Sans" />
      </g>
      <g
         id="g3963">
        <path
           sodipodi:nodetypes="cscsscssccccccccccscccccccccscccccccccccsc"
           inkscape:connector-curvature="0"
           id="path3965"
           d="m 37.123106,367.35248 c 0,0 5.42957,17.04633 20.708127,18.56156 15.278558,1.51523 29.92577,2.65165 40.532372,17.17259 0,0 10.297105,-0.0102 11.011395,-5.90302 0.71429,-5.89286 -3.66071,-7.32143 -5.53571,-6.875 -1.875,0.44643 -0.71429,3.30357 -0.71429,3.30357 0,0 -6.607142,0.26786 -5.803571,-5.80357 0.803572,-6.07143 9.642861,-6.69643 14.553571,-1.51786 4.91071,5.17857 6.07143,19.28571 -11.42857,22.23214 0,0 9.55357,4.82143 16.25,-3.83928 0.68493,0.5137 4.49361,10.62467 -11.78572,11.25 0,0 6.16072,4.19643 13.21429,-0.89286 0,0 1.16071,10.26786 -14.19643,9.10715 0,0 3.75,3.92857 12.41072,2.49999 0,0 -3.125,8.39286 -12.00894,5.71428 0,0 -5.937492,26.16072 24.24108,27.14287 0,0 1.78571,-2.58929 6.07143,-1.07143 0,0 3.03571,-5.98214 10.625,-1.51786 0,0 6.78571,-1.875 9.64286,3.30357 2.85714,5.17857 -1.69643,9.375 -1.69643,9.375 0,0 -1.07143,-7.76785 -7.41072,-5.71428 0,0 0.625,3.30357 -1.69643,4.375 0,0 3.66072,10 -3.92857,13.39285 0,0 -0.26785,-4.64285 -4.28571,-7.67857 0,0 -8.30357,4.19643 -16.69643,-0.625 0,0 -1.69643,1.78572 -3.66072,1.78572 0,0 -0.89285,6.51785 -4.55357,8.75 0,0 -1.07143,-5.625 -4.55357,-8.48215 0,0 -5.71428,2.5 -8.571427,-0.89285 -2.857142,-3.39286 -1.428571,-8.48215 -1.428571,-8.48215 l -3.571429,-0.625 c 0,0 -4.464285,4.55358 -4.642857,10.26786 0,0 -7.678571,-3.92857 -3.660714,-13.57143 0,0 -1.875,-2.58928 0.357143,-5.71428 0,0 -4.732143,-6.25 -8.571429,-9.375 0,0 -9.464286,7.76785 -10,18.30357 0,0 -10.803571,-7.14286 -0.267857,-22.58929 0,0 -10.535714,1.78572 -11.785714,14.73215 0,0 -11.696429,-10.00001 5.803571,-24.46429 0,0 -13.392857,0.625 -15.535714,14.55357 0,0 -4.821429,-10.53571 2.321428,-19.28571 2.638502,-3.23217 6.604949,-5.3435 10.558258,-6.72102 0,0 1.138171,-6.76113 -6.451115,-8.1897 -7.589286,-1.42857 -24.732143,-5.89286 -30.178571,-13.03571 -5.446429,-7.14286 0.674783,-30.19797 16.319534,-32.95613 z"
           style="color:#000000;fill:#fcdd09;fill-opacity:1;stroke:#000000;stroke-width:2;stroke-linecap:butt;stroke-linejoin:miter;stroke-miterlimit:4;stroke-opacity:1;stroke-dasharray:none;stroke-dashoffset:0;marker:none;visibility:visible;display:inline;overflow:visible;enable-background:accumulate" />
        <path
           sodipodi:nodetypes="cccccccccccc"
           inkscape:connector-curvature="0"
           id="path3967"
           d="m 106.44483,474.99687 c 0,0 -1.19957,-2.58852 0.31567,-6.25032 0,0 7.44987,-1.8309 8.58629,6.12405 m 20.89753,-0.75761 c 0,0 -5.17703,-4.9245 -1.64149,-10.79601 0,0 8.08122,-0.18941 9.40704,5.36643 m 1.8309,-5.05076 c 0,0 -2.96732,-2.90419 -1.19955,-6.7554 m -59.788406,5.36644 c 0,0 5.808377,-2.08344 7.765548,2.96732 m 41.163718,-6.94479 c 0,0 4.98763,1.70462 5.4927,5.80837"
           style="color:#000000;fill:none;stroke:#000000;stroke-width:1.5;stroke-linecap:butt;stroke-linejoin:miter;stroke-miterlimit:4;stroke-opacity:1;stroke-dasharray:none;stroke-dashoffset:0;marker:none;visibility:visible;display:inline;overflow:visible;enable-background:accumulate" />
        <path
           sodipodi:nodetypes="cccccc"
           inkscape:connector-curvature="0"
           id="path3969"
           d="m 112.5,463.40625 c 4.53493,1.49297 5.85254,5.55878 6,9.875 l 1.5,0.0312 c 1.06722,-6.193 -2.89752,-10.41298 -7.21875,-11.375 -5.64117,-0.9222 -9.12523,-4.49024 -11.51562,-8.84373 1.24649,6.20692 6.03256,9.25826 11.23437,10.31253 z"
           style="font-size:medium;font-style:normal;font-variant:normal;font-weight:normal;font-stretch:normal;text-indent:0;text-align:start;text-decoration:none;line-height:normal;letter-spacing:normal;word-spacing:normal;text-transform:none;direction:ltr;block-progression:tb;writing-mode:lr-tb;text-anchor:start;baseline-shift:baseline;color:#000000;fill:#000000;fill-opacity:1;stroke:none;stroke-width:1.5;marker:none;visibility:visible;display:inline;overflow:visible;enable-background:accumulate;font-family:Sans;-inkscape-font-specification:Sans" />
      </g>
      <g
         id="g3971">
        <path
           sodipodi:nodetypes="csssscccccsscssscsccccsssscsssssscsssssscssscscccccccscscsccccsccccccccccczscccccccscsscccccccsccsccscccccccccccscscsssc"
           inkscape:connector-curvature="0"
           id="path3973"
           d="m 48.86613,308.38483 c 0,0 -34.044701,30.40592 -70.294702,40.04878 -36.25,9.64285 -51.545867,0.66569 -51.724439,-15.22716 -0.178571,-15.89286 18.904289,-20.0991 36.903011,-16.9157 19.825145,3.50644 53.43182,-8.72314 57.918419,-35.14421 4.821428,-28.39286 -6.516131,-39.81059 -6.516131,-39.81059 0,0 3.535534,-4.67195 7.954951,-5.6821 -0.442178,-3.36438 -5.89575,-5.2562 -9.975256,-3.66181 0,0 5.808377,-9.21764 -1.515229,-15.27855 0,0 -1.7677666,10.85914 -10.2277942,9.84898 0,0 7.323606,-5.3033 2.0203051,-14.01586 -5.3033009,-8.71257 -0.2525382,-15.65737 4.6719555,-13.25826 4.9244936,2.39912 3.3506176,6.57234 -1.5395215,7.55448 1.3697901,4.46874 8.2328991,4.98945 10.4179671,-0.93509 2.615906,-7.09271 -5.047225,-18.229 -15.3054774,-13.9303 -10.2582526,4.2987 -5.1129924,13.63062 -5.8057489,21.02566 -0.6146164,6.56091 -6.5723367,8.1821 -6.5723367,8.1821 0.125244,-0.25669 2.718509,-8.42481 0.45604,-16.68017 -2.517461,-9.18577 -10.501465,-10.45553 -13.839286,-9.01785 0,0 4.107143,5 3.482143,9.46428 0,0 -8.214286,-13.39285 -22.946429,-4.55357 0,0 15.625,4.19643 13.482143,20.80357 0,0 -7.946428,-0.71428 -11.339286,4.82143 -3.392857,5.53572 -10.803571,2.58929 -8.571428,-3.125 2.232143,-5.71428 1.428571,-11.875 -4.910715,-12.85714 -6.339285,-0.98214 -6.160714,5.35714 -9.821428,7.5 -3.660715,2.14286 -7.142857,-1.16071 -5.178572,-6.07143 0,0 -7.142857,2.58929 -6.160714,9.55357 0.982143,6.96429 10.535714,7.94643 13.303572,3.21429 2.767857,-4.73214 5.625,-0.98214 4.285714,1.33928 -1.339286,2.32143 -7.232143,5.08929 -4.285714,10.26786 2.946428,5.17857 10.648149,6.67857 13.125,2.85715 2.476851,-3.82143 6.982776,-3.00777 7.589285,0.17856 0.589183,3.09531 -1.498639,5.41175 -6.696429,3.39286 0,0 -1.098831,7.36569 8.660715,4.73215 5.625001,-1.51787 6.785714,-9.01786 12.321429,-12.5 5.535714,-3.48215 8.303571,2.32142 7.5,5.08928 -0.803572,2.76786 -4.954395,3.22353 -9.017857,3.75 -7.841887,1.01602 -13.375529,8.30757 -13.303572,15.98214 0.07199,7.67824 4.196429,15.53572 13.571429,13.83929 9.375,-1.69643 9.464285,-12.23214 2.946428,-15.26786 0,0 -0.357143,8.03572 -5.357143,6.07143 -5,-1.96428 -2.767857,-11.96428 2.946429,-12.94643 5.714286,-0.98214 17.678572,0.53572 22.232143,-4.28571 4.5535714,-4.82143 1.154369,-9.63651 1.154369,-9.63651 7.0555151,-0.95421 16.627251,12.49482 16.176034,29.96936 -0.451748,17.49508 -16.2589745,42.79215 -46.437546,36.18501 0,0 6.062719,-8.00219 1.643302,-17.3461 0,0 -3.282996,4.16687 -6.81853,5.55583 0,0 3.030458,-12.12183 -5.050763,-15.78363 0,0 -0.378807,9.09137 -2.65165,12.37437 0,0 -0.757615,-15.40483 -8.333759,-15.9099 0.200436,3.55055 0.993352,10.06359 -2.777919,14.14214 0,0 1.136421,-8.96511 -7.702413,-11.8693 -8.838835,-2.90419 -10.606602,-3.15673 -14.773482,-8.46003 0,0 -3.030457,7.07107 0.505077,11.23795 3.535534,4.16688 16.920055,3.40927 13.131983,17.5514 0,0 -2.525381,-8.33376 -11.364216,-9.34391 -8.838835,-1.01015 -10.606602,7.07107 -10.606602,7.07107 0,0 10.85914,-3.40927 13.258252,7.82868 0,0 -10.85914,-6.06092 -16.414979,4.67195 0,0 11.616755,1.13643 14.015867,9.34392 0,0 -11.278351,7.08485 -9.810168,22.32841 1.379931,14.32727 11.607143,21.25 17.678571,23.21429 0,0 -0.292259,7.23776 -9.257363,11.53091 0,0 8.20749,5.42957 15.026019,-0.88388 0,0 -0.857942,4.71011 -4.072227,7.47797 0,0 10,2.76786 14.107143,-7.85714 0,0 0.178571,4.73214 -2.142857,8.92857 0,0 9.285714,0.80357 12.946429,-11.16072 0,0 0.892856,6.42858 -2.142858,12.85715 3.118304,0.36686 15.469649,-0.8271 15,-17.32143 0,0 2.589286,7.85714 0,12.76785 2.502791,0.38505 13.174964,-4.22928 13.571429,-17.41071 0,0 6.160242,1.08211 -0.988489,18.00879 -7.14873,16.92667 -12.827419,26.52416 -24.434021,34.74712 -9.399245,6.6591 -16.288709,4.54568 -21.086934,1.01015 0,0 -3.156727,9.21764 3.788072,11.36422 0,0 -17.189343,9.51258 -26.921486,-1.82671 0,0 -6.071428,14.55357 10.714286,16.78572 0,0 -13.125,4.28571 -19.642857,-2.67858 0,0 -3.839284,16.25001 14.732143,13.83929 0,0 -5.535714,6.78572 -18.839287,7.58929 0,0 1.339287,6.51785 12.589287,5.35714 11.25,-1.16072 16.785714,-10.53571 16.785714,-10.53571 0,0 -1.875,19.01785 -6.160714,24.73214 -4.285715,5.71428 -12.857143,8.30357 -12.767858,15.625 0.08929,7.32143 6.250001,6.875 6.250001,6.875 0,0 1.428571,3.66071 7.321428,3.39286 l 0.446429,5.17857 c 0,0 7.053571,-0.53572 8.035714,-5.98215 0,0 4.553572,0.98215 5.535714,-1.60714 0,0 10.892858,2.41072 15,-0.625 0,0 3.125,4.10714 3.125,8.125 0,0 5.892858,-2.58928 5.178572,-8.48214 -0.714286,-5.89286 -3.839286,-8.125 -3.839286,-8.125 0,0 5.803572,-0.98214 7.5,5.71428 0,0 2.946429,-3.48214 1.428572,-9.19642 -1.517857,-5.71429 -10,-5.44643 -10,-5.44643 0,0 -2.232143,-6.16072 -9.107143,-2.5 0,0 -5.714286,-0.98215 -4.732143,-10.44643 0.982143,-9.46429 14.821428,-16.51786 21.428571,-17.94643 0,0 -5.246566,17.00937 12.557373,15.36787 0,0 -9.848988,-8.9651 -0.126269,-18.94036 0,0 -3.788072,18.56155 13.51079,17.67767 0,0 -9.47018,-10.6066 -0.378807,-20.58186 0,0 -3.661803,19.69797 14.0158664,17.29886 0,0 -12.8794454,-9.72272 -1.5152289,-21.46574 0,0 -4.4194174,21.97082 16.1624405,17.67767 0,0 -15.6573642,-5.93465 -7.3236056,-21.97082 0,0 2.7779196,20.70813 16.0361716,14.52095 0,0 -11.364216,-7.82869 -7.954951,-21.33948 0,0 5.682108,-3.03045 4.293148,-16.41498 -1.38896,-13.38452 -3.030458,-32.57742 14.647212,-46.34074 0,0 46.810635,-0.14177 59.977808,-5.3033 15.783634,-6.18719 24.583494,-11.59419 24.583494,-11.59419 0,0 14.32378,-5.80403 24.80412,-7.31926 10.48033,-1.51522 16.44258,-14.75443 14.65687,-26.00443 -1.78572,-11.25 -24.10715,-32.85715 -59.46429,-33.21429 -35.357141,-0.35714 -52.56244,24.59408 -52.56244,24.59408 z"
           style="color:#000000;display:inline;overflow:visible;visibility:visible;fill:#fcdd09;fill-opacity:1;stroke:#000000;stroke-width:2;stroke-linecap:butt;stroke-linejoin:miter;stroke-miterlimit:4;stroke-dasharray:none;stroke-dashoffset:0;stroke-opacity:1;marker:none;enable-background:accumulate" />
        <path
           style="color:#000000;fill:none;stroke:#000000;stroke-width:1.5;stroke-linecap:butt;stroke-linejoin:miter;stroke-miterlimit:4;stroke-opacity:1;stroke-dasharray:none;stroke-dashoffset:0;marker:none;visibility:visible;display:inline;overflow:visible;enable-background:accumulate"
           d="m -76.745442,504.03689 c 0,0 -0.708486,-7.33838 3.193709,-9.65772 0,0 5.180205,1.01518 4.939813,8.03023 m 21.247014,-1.65999 c -1.748802,-4.16121 -6.060954,-3.57329 -3.647798,-10.91593 0,0 4.671956,-0.75761 7.828682,2.39911 m -1.175263,-1.06431 c 0,0 -3.938634,-4.8072 -0.276831,-8.6584"
           id="path3975"
           inkscape:connector-curvature="0"
           sodipodi:nodetypes="cccccccc" />
        <path
           style="font-size:medium;font-style:normal;font-variant:normal;font-weight:normal;font-stretch:normal;text-indent:0;text-align:start;text-decoration:none;line-height:normal;letter-spacing:normal;word-spacing:normal;text-transform:none;direction:ltr;block-progression:tb;writing-mode:lr-tb;text-anchor:start;baseline-shift:baseline;color:#000000;fill:#000000;fill-opacity:1;stroke:none;stroke-width:1.5;marker:none;visibility:visible;display:inline;overflow:visible;enable-background:accumulate;font-family:Sans;-inkscape-font-specification:Sans"
           d="m -52.84375,484.96875 c 3.313985,0.21165 5.117199,2.22031 6.03125,5.15625 l 1.46875,-0.3125 c -1.044097,-3.55711 -4.288536,-6.31577 -7.5,-6.34375 -5.240886,0.0595 -8.015625,-2.65625 -8.015625,-2.65625 0,0 2.144833,4.22293 8.015625,4.15625 z m -13.5625,6.625 c 2.823501,2.46018 3.041805,5.82778 2.40625,9.25 l 1.46875,0.34375 c 0.635352,-3.83726 -0.0896,-8.76523 -3.03125,-10.84375 -3.622667,-2.11735 -5.039809,-5.31405 -6.09375,-8.71875 -0.597653,4.68818 2.069323,7.81404 5.25,9.96875 z m -18.21875,8.9375 1.4375,-0.40625 c -0.803381,-3.95842 1.528474,-7.54155 -0.07813,-11.23438 -0.269002,4.51686 -2.276079,8.20461 -1.35937,11.64063 z m 4.758928,-63.07979 c 0,0 7.857143,1.5625 13.392857,-2.99107 -3.035715,5.08928 -13.571429,6.07143 -13.571429,6.07143 z m 6.428572,15.98215 c 0,0 2.232142,-3.66072 2.589285,-6.29465 0,0 1.651786,1.47322 -0.223214,8.125 z m 15.446428,-80.3125 c 0,0 2.5,-5 2.8125,-8.52679 0,0 2.142857,2.94643 0.357143,8.48214 z m 11.071429,-2.27679 c 0,0 1.785714,-3.34821 1.294643,-8.34821 0,0 3.125,2.36606 1.875,9.59821 z M -33.125,368.43361 c 0,0 0.669643,-6.38393 -0.848215,-10.04464 0,0 3.794644,2.36607 3.973215,10.62499 z"
           id="path3977"
           inkscape:connector-curvature="0"
           sodipodi:nodetypes="cccccccccccccccccccccccccccccccccccc" />
      </g>
      <g
         id="g3979">
        <path
           sodipodi:nodetypes="ccccsccccccscccccccscccccccccccccccc"
           inkscape:connector-curvature="0"
           id="path3981"
           d="m 146.21958,327.83027 c 0,0 4.16688,5.05076 5.68211,12.12183 12.03854,4.09823 16.70923,13.45783 34.34519,28.53681 l 9.4719,0.57605 c 0,0 3.74551,-4.64921 2.94194,-10.18492 -0.80358,-5.53572 4.64285,-10.17858 8.57142,-7.76786 0,0 9.10715,-6.78572 14.64286,4.375 0,0 -5.35714,-0.625 -7.85714,1.96428 0,0 1.60714,6.33929 -6.25,6.16072 0,0 -1.96429,3.57143 -2.76786,5.26786 h 1.875 c 0,0 2.85714,-3.30358 7.14286,-1.33929 4.28571,1.96429 3.48214,7.76786 3.48214,7.76786 0,0 8.48214,4.46428 4.82143,13.57143 0,0 -3.48214,-4.28572 -8.57143,-4.64286 0,0 -0.89286,2.58928 -5,3.03571 0,0 2.76786,6.16071 -1.07143,9.91072 0,0 1.16072,9.375 -7.05357,9.73214 0,0 0.98214,-5.17857 -1.60714,-8.92857 0,0 -6.63737,0.1747 -5.98214,-4.82143 0.71428,-5.44642 -1.42858,-7.41071 -1.42858,-7.41071 0,0 -4.55357,0.98214 -8.66071,0.0893 -0.1825,1.27748 -2.26656,10.50879 -15.625,9.37498 0,0 5.53571,-4.46428 5.35714,-9.82143 -0.59366,0.59366 -5.52278,9.1835 -15.625,6.96429 0.26382,-0.35176 7.7622,-4.96269 6.16072,-11.60715 -0.98723,3.13516 -6.94652,9.96446 -16.25,8.125 0.0893,-0.28626 8.12499,-4.12956 7.14285,-10.08928 -0.84644,0.7618 -7.8344,10.45276 -16.07143,6.07143 0,0 8.57143,-5.58035 6.78572,-11.16071 -3.39286,5.13393 -11.42857,9.91071 -17.94643,6.51785 5.94376,-4.05129 8.54585,-6.09372 8.66072,-10.44643 -2.57123,2.37485 -15.0771,9.05335 -21.42858,1.78571 5.72184,-1.42857 11.11736,-4.19642 11.51786,-8.48214 0,0 -2.95181,-5.47031 -12.59467,-8.59531 0,0 -3.2089,-7.47611 -1.86962,-19.61897"
           style="color:#000000;display:inline;overflow:visible;visibility:visible;fill:#fcdd09;fill-opacity:1;stroke:#000000;stroke-width:2;stroke-linecap:butt;stroke-linejoin:miter;stroke-miterlimit:4;stroke-dasharray:none;stroke-dashoffset:0;stroke-opacity:1;marker:none;enable-background:accumulate" />
        <path
           sodipodi:nodetypes="ccccccccccc"
           inkscape:connector-curvature="0"
           d="m 207.20755,369.12025 c 0,0 -9.849,0.94702 -13.5108,-0.0631 m 20.13992,-11.80619 c 0,0 -4.04061,-0.56821 -7.38674,0.63134 0,0 -1.57837,-2.33597 0.94702,-6.81853 m 6.06091,32.95623 c 0,0 -2.71478,-3.28299 -2.58852,-6.81853 0,0 2.65166,-1.95717 6.62913,-1.57836 m -18.21275,22.36407 c 0,0 0.98214,-3.21429 3.03571,-5.17857 0,0 3.88076,0.31567 5.22004,4.69067"
           style="color:#000000;fill:none;stroke:#000000;stroke-width:1.5;stroke-linecap:butt;stroke-linejoin:miter;stroke-miterlimit:4;stroke-opacity:1;stroke-dasharray:none;stroke-dashoffset:0;marker:none;visibility:visible;display:inline;overflow:visible;enable-background:accumulate"
           id="path3983" />
        <path
           sodipodi:nodetypes="sccscs"
           inkscape:connector-curvature="0"
           id="path3985"
           d="m 198.3125,381.5 c 7.44947,0.30707 9.71875,6.46875 9.71875,6.46875 l 1.375,-0.5625 c 0,0 -2.74762,-6.80956 -10.96875,-7.40625 -7.46031,-0.54148 -11.3125,-5.89063 -11.3125,-5.89063 0,0 1.34893,6.98507 11.1875,7.39063 z"
           style="font-size:medium;font-style:normal;font-variant:normal;font-weight:normal;font-stretch:normal;text-indent:0;text-align:start;text-decoration:none;line-height:normal;letter-spacing:normal;word-spacing:normal;text-transform:none;direction:ltr;block-progression:tb;writing-mode:lr-tb;text-anchor:start;baseline-shift:baseline;color:#000000;fill:#000000;fill-opacity:1;stroke:none;stroke-width:1.5;marker:none;visibility:visible;display:inline;overflow:visible;enable-background:accumulate;font-family:Sans;-inkscape-font-specification:Sans" />
      </g>
      <g
         id="g3987">
        <path
           style="color:#000000;fill:#ffffff;stroke:#000000;stroke-width:1;stroke-linecap:butt;stroke-linejoin:miter;stroke-miterlimit:4;stroke-opacity:1;stroke-dasharray:none;stroke-dashoffset:0;marker:none;visibility:visible;display:inline;overflow:visible;enable-background:accumulate"
           d="m 80.922861,213.2787 c 0,0 0.904268,4.06654 6.332345,5.78131 l -0.822102,-6.46829 z"
           id="path3989"
           inkscape:connector-curvature="0" />
        <path
           sodipodi:nodetypes="cczzsczsccsscc"
           inkscape:connector-curvature="0"
           id="path3991"
           d="m 94.553572,206.20146 c 2.393536,2.36265 5.725078,6.59996 4.732142,13.66072 0,0 -5.267857,-3.83929 -13.928571,0.0893 -8.660714,3.92858 -9.318062,12.46929 -15.535714,13.83928 -6.217652,1.36999 -9.464286,-2.5 -7.589286,-7.94643 1.875,-5.44643 -1.696429,-10 -4.732143,-11.51785 0,0 -8.387901,1.24914 -6.428571,12.67857 1.95933,11.42943 20.625,17.41071 27.232143,7.14285 6.607143,-10.26785 13.928571,-14.28571 20.267857,-6.69642 0,0 -0.625,5.71429 -3.303571,9.37499 0,0 6.250002,2.23215 6.785712,1.96429 0.53572,-0.26786 6.42857,-7.41071 6.42857,-7.76786 0,-0.35714 0,-24.46428 0,-24.46428 z"
           style="color:#000000;fill:#da121a;fill-opacity:1;stroke:#000000;stroke-width:2;stroke-linecap:butt;stroke-linejoin:miter;stroke-miterlimit:4;stroke-opacity:1;stroke-dasharray:none;stroke-dashoffset:0;marker:none;visibility:visible;display:inline;overflow:visible;enable-background:accumulate" />
        <path
           inkscape:connector-curvature="0"
           id="path3993"
           d="m 86.420973,212.12009 c 0,0 0.752111,4.09381 6.108256,6.00719 l -0.581024,-6.48883 z"
           style="color:#000000;fill:#ffffff;stroke:#000000;stroke-width:1;stroke-linecap:butt;stroke-linejoin:miter;stroke-miterlimit:4;stroke-opacity:1;stroke-dasharray:none;stroke-dashoffset:0;marker:none;visibility:visible;display:inline;overflow:visible;enable-background:accumulate" />
        <path
           sodipodi:nodetypes="ccccccccccccccscccccccccccscccsccczcscccscccccccsccccccccccscscsccccccc"
           inkscape:connector-curvature="0"
           id="path3995"
           d="m 159.46429,300.57647 c 0,0 16.96428,12.67857 11.07142,31.60714 -5.89285,18.92857 -25.71428,8.57143 -25.71428,8.57143 0,0 10.89286,-0.89286 11.78571,-14.46429 0.77138,-11.72514 -10.89285,-15.89285 -10.89285,-15.89285 0,0 6.25,9.28571 1.25,20.17857 -5,10.89285 -16.96429,6.96428 -18.21429,6.42857 17.5,-17.14286 -1.42857,-28.92858 -1.42857,-28.92858 5.71429,39.82143 -32.857144,34.46429 -32.857144,34.46429 0,0 5.981264,-4.92536 8.214284,-10.35714 -11.607142,8.57143 -26.964284,2.67857 -26.964284,2.67857 6.428571,-3.03571 11.428571,-10.17857 11.428571,-10.17857 -15.714285,6.78571 -23.928571,0 -23.928571,0 7.857143,-0.53571 12.142857,-6.78571 12.321428,-8.75 -15,6.60714 -24.821428,-0.17857 -24.821428,-0.17857 13.214286,-1.42857 14.642857,-11.60714 14.642857,-11.60714 0,0 -6.607143,6.60714 -16.964286,6.25 -10.357143,-0.35715 -12.5,-8.92858 -12.5,-8.92858 9.464286,1.25 15,-5.71428 15,-5.71428 -4.464285,-1.96429 -12.5,-1.07143 -12.5,-1.07143 0.892857,-7.5 12.5,-10 12.5,-10 -3.392857,-2.5 -7.835105,-2.05767 -7.835105,-2.05767 3.661803,-9.59645 23.599625,-9.39621 23.599625,-9.39621 -4.798224,-3.40927 -13.498099,-3.73577 -13.498099,-3.73577 6.439722,-7.57615 20.455589,-8.96511 32.324881,-8.08122 11.869293,0.88388 8.965104,-6.56599 8.965104,-6.56599 -4.798224,2.0203 -8.965104,-0.88389 -8.965104,-0.88389 5.808377,-1.13642 6.270125,-7.30457 6.270125,-7.30457 0,0 -3.266608,-0.0164 -4.920776,-2.14657 3.406635,-2.80221 4.711567,-7.0901 4.711567,-7.0901 -4.419418,-2.02031 -7.702413,-7.19734 -2.272843,-8.33376 5.42957,-1.13642 7.449874,5.93464 7.449874,5.93464 4.924494,-0.75761 10.732874,-9.09137 8.207494,-19.5717 -2.52539,-10.48034 -13.384525,-7.82868 -13.384525,-7.82868 2.020305,6.69226 -4.590866,8.58656 -9.963655,6.6986 -5.372788,-1.88796 -5.062365,-11.24429 -5.062365,-11.24429 -3.788072,-4.29315 -5.555839,-11.61676 -5.555839,-11.61676 0,0 4.924494,-4.41941 13.384522,-8.20748 v -5.93465 c 0,0 7.481125,-7.25076 21.370722,-11.79645 0,0 2.36786,-6.3863 -4.3244,-11.81587 0,0 4.79823,-3.53553 10.10153,0.88389 0,0 -0.12627,-5.42957 -2.77792,-8.46003 0,0 11.36421,-4.54569 16.41498,9.34391 0,0 2.39911,-4.41942 -0.50508,-11.86929 0,0 14.26841,-1.89404 13.51079,16.03617 0,0 3.6618,-0.63135 2.39911,-10.73287 0,0 14.01587,1.6415 8.46003,15.65736 0,0 6.81853,-0.12627 6.81853,-10.10152 0,0 7.95495,0.63134 7.70241,8.33376 -0.25253,7.70241 -5.17703,9.47018 -5.17703,9.47018 0,0 12.37437,2.90418 11.99556,-9.97526 6.84338,0.69962 10.31125,16.34901 -1.26269,19.1929 0,0 14.77348,4.16688 17.93021,-8.08122 0,0 9.97526,9.72272 -0.50508,15.15229 0,0 17.80394,3.40926 13.63706,21.46574 0,0 -3.91434,-6.56599 -13.51079,-6.43972 0,0 11.36422,7.3236 5.68211,16.66751 0,0 -2.27284,-7.95495 -11.11168,-7.57614 0,0 1.26269,16.28871 15.40483,16.28871 0,0 -10.35406,13.51079 -25.63262,-3.78807 0,0 1.01015,14.2684 14.39467,13.76332 0,0 -3.15672,11.36422 -17.67767,2.77792 0,0 1.76777,11.49049 14.39468,10.98541 0,0 -6.69226,10.35407 -18.18275,2.27285 0,0 -2.65165,9.59645 6.56599,15.40482 0,0 -1.76776,5.68211 -10.48033,3.91434 0,0 2.65165,9.59645 14.2684,8.33376 0,0 -1.01015,9.34391 -11.99556,5.05076 0,0 2.1096,5.73813 9.68574,6.74828 0,0 -1.40708,7.78004 -12.4772,6.15149 z"
           style="color:#000000;display:inline;overflow:visible;visibility:visible;fill:#fcdd09;fill-opacity:1;stroke:#000000;stroke-width:2;stroke-linecap:butt;stroke-linejoin:miter;stroke-miterlimit:4;stroke-dasharray:none;stroke-dashoffset:0;stroke-opacity:1;marker:none;enable-background:accumulate" />
        <path
           sodipodi:nodetypes="ccscccccccccccsccccccccccccccccccccccccccccc"
           inkscape:connector-curvature="0"
           id="path3997"
           d="m 105.68721,165.44825 c 0,0 14.77348,1.51523 16.03617,12.2481 0,0 4.54569,-9.34392 11.86929,-6.31346 7.32361,3.03046 1.6415,11.61676 1.6415,11.61676 3.47892,27.98774 -9.32625,29.39162 -25.12754,42.0476 0,0 3.15672,13.13198 0.50507,19.95051 0,0 7.95496,-0.37881 9.09138,-9.97526 2.75547,2.07315 2.40204,6.562 2.39911,7.95495 6.43679,-0.12227 11.36422,-5.6821 10.73287,-19.31916 0,0 6.9448,1.51523 4.04061,17.04632 3.99337,-0.44371 17.93985,-7.66139 5.80838,-31.56727 0,0 10.6066,3.40927 10.73287,14.26841 4.73222,-0.91876 11.95134,-16.03322 -2.39911,-26.76904 0,0 8.08122,-1.13643 11.61675,5.17703 0,0 5.31345,-16.26335 -8.33376,-21.08694 -13.64721,-4.82358 -19.06663,2.27285 -19.06663,2.27285 m -75.904357,87.35492 c 0,0 6.546637,1.01916 13.501159,5.75025 -3.196031,4.93819 -12.0274,8.75736 -12.0274,8.75736 15.803571,9.82143 32.5,-2.14286 32.5,-2.14286 -1.964286,7.85715 -13.125,12.85715 -13.125,12.85715 5.803571,3.21428 14.732143,0 14.732143,0 -0.07727,3.12199 -2.703104,5.72041 -6.160715,7.41071 16.42857,4.375 22.94643,-11.07143 22.94643,-11.07143 2.05608,2.95188 1.52122,9.75473 -0.80357,14.10714 10.80357,-1.25 14.375,-16.25 14.375,-16.25 2.05357,4.46429 0.80357,12.32143 0.80357,12.32143 12.32143,-3.03571 10.89286,-18.66071 10.89286,-18.66071 5.80357,4.46428 5.26785,15.35715 5.26785,15.35715 4.2857,-2.23215 4.375,-10.00001 4.375,-10.00001 6.38079,11.60714 14.01786,12.23214 14.01786,12.23214 M 92.410715,255.21932 c 0,0 9.642855,-2.32143 12.410715,-8.75 0,0 2.32143,13.21429 -3.57143,17.58929 0,0 9.55357,2.76786 13.75,-7.76786 0,0 1.51786,10 -3.21429,14.375 0.625,0 15.17858,0.80357 16.78572,-12.05357 0,0 2.14286,5.26786 -0.625,12.5 0,0 10.89286,0.53571 11.33928,-11.60714 0,0 3.75,6.07143 1.25,13.39285 0,0 10.35715,-2.32142 8.57143,-18.39285 0,0 3.83929,3.21428 3.75,13.48214 3.57143,-0.44643 7.59019,-2.98793 8.03572,-17.94642 0,0 2.76786,5.35714 7.32143,7.05356"
           style="color:#000000;display:inline;overflow:visible;visibility:visible;fill:none;stroke:#000000;stroke-width:1.5;stroke-linecap:butt;stroke-linejoin:miter;stroke-miterlimit:4;stroke-dasharray:none;stroke-dashoffset:0;stroke-opacity:1;marker:none;enable-background:accumulate" />
        <path
           sodipodi:nodetypes="ssczscscsscssccczzzcc"
           inkscape:connector-curvature="0"
           id="path3999"
           d="m 105.78506,180.61802 c -1.62474,-0.97238 -4.19025,-2.6742 -7.441945,-1.24683 -2.761453,1.21218 -4.644322,-0.0224 -5.95598,-1.43488 -0.0087,3.07519 1.800021,4.56379 5.273579,3.76012 3.473556,-0.80367 5.642596,0.10631 6.964286,0.89732 1.32169,0.79101 2.08505,1.86684 3.40625,2.89062 -0.0181,-1.83335 -0.62145,-3.89397 -2.24619,-4.86635 z m 30.50065,-1.39927 c -0.8782,2.48323 -2.90853,3.73945 -4.97321,3.3125 -2.24392,-0.46401 -3.85456,-0.1452 -4.78125,0.8125 -0.92669,0.9577 -0.95006,2.35844 0.17188,3.3125 -0.0388,-1.32272 0.13561,-1.83777 0.56473,-2.28125 0.42912,-0.44348 1.75643,-0.78355 3.73214,-0.375 2.53671,0.52456 4.32321,-0.48646 5.28125,-1.625 z m -55.966865,19.18687 c -0.05921,0.32989 -0.559917,1.44876 1.024109,1.751 1.584026,0.30224 1.87132,-2.34029 0.782046,-3.15667 -1.089274,-0.81638 -2.772265,-0.51176 -3.71875,0.68755 -0.946485,1.19931 -0.440072,2.583 0.609375,3.78125 -0.42678,-1.96398 0.005,-3.26676 1.30322,-3.06313 z"
           style="font-size:medium;font-style:normal;font-variant:normal;font-weight:normal;font-stretch:normal;text-indent:0;text-align:start;text-decoration:none;line-height:normal;letter-spacing:normal;word-spacing:normal;text-transform:none;direction:ltr;block-progression:tb;writing-mode:lr-tb;text-anchor:start;baseline-shift:baseline;color:#000000;fill:#000000;fill-opacity:1;stroke:none;stroke-width:1.5;marker:none;visibility:visible;display:inline;overflow:visible;enable-background:accumulate;font-family:Sans;-inkscape-font-specification:Sans" />
        <path
           sodipodi:nodetypes="ccsczc"
           inkscape:connector-curvature="0"
           id="path4001"
           d="m 104.20355,181.01091 c -0.44194,-2.27284 -6.060916,-0.47351 -6.060916,-0.47351 0,0 -1.104856,4.54569 1.862466,5.80838 1.55607,0.66216 4.42849,1.01812 6.38702,-1.23659 -1.65198,0.64212 -3.20324,0.42636 -3.61152,-1.31562 -0.40827,-1.74197 0.20272,-2.03458 1.42295,-2.78266 z"
           style="color:#000000;fill:#000000;stroke:none;stroke-width:2;marker:none;visibility:visible;display:inline;overflow:visible;enable-background:accumulate" />
      </g>
    </g>
  </g>
</svg>
