<?xml version="1.0" encoding="UTF-8" standalone="no"?>
<!DOCTYPE svg PUBLIC "-//W3C//DTD SVG 1.1//EN" "http://www.w3.org/Graphics/SVG/1.1/DTD/svg11.dtd">
<svg
  xmlns="http://www.w3.org/2000/svg" version="1.1"
  xmlns:xlink="http://www.w3.org/1999/xlink"
  width="527.9980469" height="617.0722656" viewBox="0 0 527.9980469 617.0722656">


		<path id="red_area" style="fill:#D5170F;" d="M263.9990234,20.1665039c0,0,0,564.0004883,0,588.1674805c17-18,46-39,125-41.5
			c115-4.5,120-98,120-98S521.9980469,16.1665039,521.9980469,6.8334961
			C414.6650391,20.8334961,263.9990234,20.1665039,263.9990234,20.1665039z"/>
		<path id="yellow_area" style="fill:#FFD600;" d="M263.9990234,20.1665039c0,0,0,564.0004883,0,588.1674805
			c-17-18-46-39-125-41.5c-115-4.5-120-98-120-98S6,16.1665039,6,6.8334961
			C113.3334961,20.8334961,263.9990234,20.1665039,263.9990234,20.1665039z"/>
		
			<line id="line_in_the_middle" style="fill:none;stroke:#000000;stroke-width:2;" x1="263.9990234" y1="18.8339844" x2="263.9990234" y2="607.8339844"/>
		<path id="coat" style="fill:none;stroke:#000000;stroke-width:12;" d="M263.9990234,20.1665039
			c0,0,150.6660156,0.6669922,257.9990234-13.3330078c0,9.3330078-12.9990234,462.0004883-12.9990234,462.0004883s-5,93.5-120,98
			c-79,2.5-108,23.5-125,41.5c-17-18-46-39-125-41.5c-115-4.5-120-98-120-98S6,16.1665039,6,6.8334961
			C113.3334961,20.8334961,263.9990234,20.1665039,263.9990234,20.1665039z"/>
		<polygon id="star" style="fill:#FFFFFF;stroke:#010101;stroke-width:1.25;" points="277.9990234,49.8339844 
			332.4990234,70.8339844 354.4990234,188.8339844 361.9990234,57.8339844 391.9990234,161.3339844 421.4990234,51.8339844 
			422.4990234,184.8339844 449.9990234,65.3339844 505.9990234,41.8339844 505.9990234,103.8339844 442.4990234,189.3339844 
			507.9990234,183.8339844 444.9990234,239.3339844 505.4990234,270.8339844 450.4990234,300.8339844 501.9990234,375.8339844 
			428.4990234,353.3339844 493.4990234,490.3339844 396.9990234,397.8339844 419.4990234,517.8339844 375.9990234,548.8339844 
			338.9990234,514.3339844 366.4990234,407.8339844 270.9990234,497.3339844 344.4990234,352.8339844 269.9990234,377.8339844 
			328.9990234,298.3339844 273.4990234,270.8339844 329.9990234,239.8339844 271.9990234,188.8339844 335.9990234,189.3339844 
			275.9990234,110.8339844 "/>
		<g id="lion">
			<path id="path868" style="fill:#24459C;stroke:#010101;" d="M203.9291992,182.4052734
				l26.7036133-30.4775391c0,0,3.7714844-4.6430664,4.3544922-8.9970703
				c0.5825195-4.3540039-9.2905273-11.3212891-9.8681641-15.3818359c0.2509766-2.0390625,0.5366211-4.1411133,2.0766602-7.7329102
				c2.8525391-0.2607422,4.7416992,0.1821289,6.0512695,0.4760742c4.6425781,4.934082,2.9003906,9.2880859,2.9003906,10.4511719
				c0,1.1621094,5.5136719-1.7402344,5.5136719-1.7402344s3.1943359-8.9970703,6.0966797-9.5820313
				c2.902832-0.5771484,4.6401367,2.0336914,5.2231445,4.6450195c0.5820313,2.6142578-2.6118164,7.2573242-9.8686523,11.8994141
				c-7.2539063,4.6430664,10.7397461-4.3540039,13.3535156,4.934082c1.1601563,6.3901367-11.9042969,8.1303711-11.9042969,8.1303711
				s1.4541016,5.2255859,5.5136719,5.5112305c4.0649414,0.2919922,1.3955078,2.5537109,2.2670898,4.8789063
				c0.8657227,2.3222656-7.4868164,6.1542969-13.2924805-1.1044922
				c-5.8056641-7.2592773-19.4472656,48.7651367-19.4472656,48.7651367s0.8710938,4.3540039-3.1914063,3.1938477
				C212.3457031,209.1118164,203.9291992,183.2792969,203.9291992,182.4052734z"/>
			
				<path id="path869" style="fill:#24459C;stroke:#010101;" d="
				M217.9990234,66.8339844c0,6.1523438-5.6665039,20.6669922-21.6665039,20.3334961
				c-18.6972656-0.5419922-18.9042969-16.1220703-29-16.6665039c-16.3334961-0.6669922-18.3334961,24.6665039-18.3334961,24.6665039
				s1.7382813,18.6733398-14.0947266,31.7885742c-13.5610352,9.503418-25.4658203,11.4814453-37.440918,7.4897461
				c-11.9853516-3.996582-59.4135742-9.9848633-57.4169922,7.9882813
				c1.9980469,17.9731445,27.9594727,23.9614258,27.9594727,23.9614258s31.949707,5.4936523,39.9384766,5.9926758
				c7.9882813,0.4985352,25.9619141-4.4936523,25.9619141-4.4936523s-3.9970703-4.9921875-6.4946289-8.9863281
				c-1.2460938-1.9980469,7.0317383-0.5546875,11.6108398-1.7426758c4.5844727-1.1879883,3.4345703-5.3012695,5.9799805-6.2231445
				c-8.6323242-1.9277344-15.199707-2.21875-15.7973633-10.050293c7.0234375,2.324707,8.7177734,1.3271484,10.71875,0.3266602
				c1.9960938-0.9980469,6.1499023-11.4741211,10.144043-14.9697266c3.9946289-3.4951172,0.375-12.6943359,2.2470703-14.1660156
				c1.8867188-1.0683594,4.5737305,2.9433594,6.8583984,4.4150391c0,0,15.1723633,2.4667969,11.6796875,9.4550781
				c-3.4931641,6.9882813,5.4936523-9.4853516,15.4755859-8.4873047c9.9868164,0.9975586,22.4663086,7.4916992,22.4663086,7.4916992
				s1.9980469,6.9882813-3.4926758,6.9882813c-5.4936523,0,1.9926758,10.9829102-0.5019531,11.9804688
				c-2.4970703,0.9951172-28.4589844,0.9951172-23.965332,7.9858398c4.4931641,6.9936523,16.9746094,9.9873047,20.4702148,9.4912109
				c3.4951172-0.4995117,4.4936523,7.9833984,0.5014648,8.9858398c-3.9941406,0.9956055-10.9848633,0.496582-7.9887695,2.9941406
				c2.9995117,2.4975586,9.4882813,10.9853516,10.9853516,9.9873047c1.496582-0.9985352,7.9863281,3.4956055,8.9838867,10.4833984
				c0.9980469,6.987793-0.9975586,12.980957-0.9975586,12.980957s-7.4873047-7.4873047-7.9892578-9.9868164
				c-0.5014648-2.4975586,0.5019531,18.4716797,3.9916992,18.9736328c3.4931641,0.4985352,2.4975586,8.9858398,6.4892578,7.9853516
				c3.9970703-0.9951172-8.9863281,1.9985352-9.984375,0c-0.9980469-1.9980469-7.4921875-2.9936523-7.4921875-6.4863281
				c0-3.4956055-3.9916992,8.9868164-3.9916992,8.9868164s43.4379883,32.9492188,43.4379883,32.453125
				c0-0.4990234,6.0585938-14.7661133,14.0449219-4.7841797c0.1293945,2.0107422-3.5634766,11.7724609-3.5634766,11.7724609
				s6.987793,5.9902344,4.9921875,7.9887695c-1.9931641,1.9931641-10.4833984,2.4946289-12.4794922,0.9956055
				c-1.9956055-1.4970703,4.9921875,6.4912109,1.5,10.984375c-3.4956055,4.4931641-5.9931641-1.0004883-8.4907227-0.4985352
				c-2.4975586,0.4985352-8.4848633-1.9960938-7.9858398-4.9951172c0.4990234-2.9960938,5.4941406-6.987793,4.4931641-7.9863281
				c-1.0004883-0.9951172-13.4799805,2.4956055-13.9790039,5.9926758
				c-0.5014648,3.4931641-7.4916992-11.9848633-6.4887695-12.4814453c0.9980469-0.4990234,6.4887695-2.4975586,7.4873047-1.4941406
				c1.0004883,0.9951172-41.934082-19.4726563-42.4355469-19.972168c-0.496582-0.5014648-8.4848633-1.0004883-10.4833984-4.4931641
				c-1.9960938-3.4951172-2.996582-10.9848633-4.9921875-13.9760742c-1.9960938-2.9990234-4.1899414-11.8154297-3.4956055-9.487793
				l3.4956055,7.9858398c0,0-8.9868164-0.4990234-13.9819336-2.9912109
				c-4.9916992-2.4951172-25.4604492-15.4785156-26.9594727-14.4804688
				c-1.4941406,1.0004883-12.4794922-7.9858398-12.4794922-7.9858398l2.4975586-5.4936523
				c0.1342773-1.8696289-12.4794922,17.4765625-14.4804688,18.4692383
				c-1.9956055,1.0004883-25.4604492,7.9912109-31.949707,13.9838867
				c-6.4887695,5.987793-13.980957,10.9799805-10.4829102,15.9746094c7.5048828-6.375,14.9765625,1.4941406,15.4780273,4.9921875
				c0.4990234,3.4931641-8.487793,11.4814453-11.4814453,7.9912109c-2.9960938-3.4980469,5.4941406,5.987793,3.9941406,7.9863281
				c-1.496582,1.9956055-9.487793,5.4936523-9.9863281,4.9921875c-0.4995117-0.4990234-3.9946289-13.4799805-3.9946289-13.4799805
				s-5.4916992,11.9829102-3.4926758,14.9790039c1.9980469,2.9941406-10.4838867,1.9985352-10.4838867-3.996582
				c0-5.987793,4.4936523-10.9824219,4.4936523-10.9824219s-3.9970703-6.9882813-6.9907227-6.4916992
				c-2.9936523,0.5019531-0.4990234-11.4814453,7.9887695-10.480957c8.4848633,0.9951172,1.9956055-22.4667969,8.9863281-23.9628906
				c6.9902344-1.5024414,6.4892578,3.4951172,9.984375,0c3.4951172-3.4956055,24.0522461-32.9223633,24.0522461-32.9223633
				s-26.050293-1.0283203-26.5498047-1.0283203c-0.5014648,0,1.5-3.4926758,1.5-3.4926758
				s-15.9775391-0.4990234-15.4785156,2.4946289c0.4985352,2.9960938,22.965332,13.9814453-1.0004883,20.4707031
				c1.8442383-5.949707-0.4990234-9.9873047-0.9980469-9.9873047c-0.5014648,0-10.4858398-6.4863281-9.984375-14.4775391
				c0.496582-7.9912109,19.4702148-6.9882813,19.4702148-6.9882813s-21.4663086-15.4780273-20.9672852-27.4584961
				c0.4990234-11.980957,24.9609375-22.4667969,24.9609375-22.4667969s7.9892578-4.9921875,8.4858398-9.9868164
				c0.5009766-4.9921875-5.4916992-22.965332,20.9716797-19.9692383c-6.1645508,4.6000977-6.9882813,9.4853516-6.9882813,9.4853516
				s-1,19.972168-8.4873047,21.9648438c-7.4873047,1.9990234,16.4736328,1.0004883,16.4736328,1.0004883
				s4.9946289,1.4951172,8.4873047-3.4970703c3.4926758-4.9926758-2.9960938-22.9633789,20.4682617-23.9638672
				c-4.878418,7.0263672-4.4931641,12.4794922-4.4931641,12.4794922s4.4931641,14.9794922-10.4814453,19.9716797
				c-14.9765625,4.9921875,36.9443359,7.4892578,38.4438477-16.4736328
				c1.4941406-23.9663086-7.4155273-30.3217773-13.7485352-30.3217773c-7.3334961,0-26.7163086,8.6455078-32.6835938,4.3574219
				c-19.3164063-11.3574219-7.6499023-29.690918-19.4672852-34.9458008
				c11.8173828-3.4116211,15.4838867,15.5883789,27.1508789,19.921875c7.4873047,3.4956055,36.921875-22.5292969,44,13
				c5.3422852-17.65625,36-21.6669922,36-21.6669922C197.3325195,58.5009766,205.3325195,85.5009766,217.9990234,66.8339844z"/>
			<path id="path870" style="fill:#D51F27;stroke:#000000;" d="M186.5136719,155.4130859
				c0.2910156,0,0.5820313-3.7714844,16.2553711-4.934082c15.6733398-1.1630859,12.1933594-11.3222656,13.6420898-15.0961914
				c1.4541016-3.7714844,6.6791992,6.6767578,6.3857422,11.0332031
				c-0.2919922,4.3540039-10.159668,11.8994141-20.6098633,12.4794922
				C191.7387695,159.4780273,186.2246094,155.1240234,186.5136719,155.4130859z"/>
			<path id="path871" style="fill:none;stroke:#010101;" d="M162.1318359,126.0952148
				c0,0-1.1601563,10.1591797-0.2880859,10.7392578"/>
			<path id="path872" style="fill:none;stroke:#010101;" d="M159.5180664,117.0986328c0,0-9.2856445,11.027832-7.2539063,16.546875
				c2.03125,5.5112305,9.2875977,14.5102539,9.5795898,16.8334961c0.2880859,2.3222656,3.190918-5.5117188,3.190918-5.5117188"/>
			<path id="path873" style="fill:none;stroke:#010101;" d="M165.3256836,156.5732422c0,0,0.2919922,4.934082-4.0649414,4.6396484
				c-4.3515625-0.2885742,7.5478516,0.2944336,6.965332,4.9365234c-0.5800781,4.6425781-7.8364258,3.1943359-7.8364258,3.1943359"/>
			<path id="path874" style="fill:none;stroke:#010101;" d="M170.5512695,174.8598633
				c-0.2915039,0-1.1625977,4.6430664,3.7739258,4.3540039"/>
			<path id="path875" style="fill:none;stroke:#010101;" d="M145.5874023,163.8266602c0,0-6.3852539,5.2250977-10.1616211,4.3540039
				"/>
			<path id="path876" style="fill:none;stroke:#010101;stroke-linejoin:round;" d="
				M141.5249023,166.1523438c0,0-2.902832,19.4467773-7.2568359,22.0605469
				c-4.3535156,2.6142578,10.7368164-0.293457,13.9331055-7.5449219c3.1914063-7.2592773,1.7373047,14.5107422-6.0991211,22.3476563
				c8.7084961-4.0629883,13.9360352,0.8710938,17.4160156-15.0961914
				c-0.2885742,27.2885742,13.0649414,35.4169922,13.0649414,35.4169922l1.7421875-8.9995117"/>
			<path id="path877" style="fill:none;stroke:#010101;" d="M169.96875,194.0161133
				c-0.2885742,0.2910156,2.3203125,17.418457,10.7392578,16.5444336
				c8.4165039-0.8686523-3.7739258-21.7700195-3.7739258-21.7700195"/>
			<path id="path878" style="fill:none;stroke:#010101;" d="M186.8071289,189.953125c0,0,0,13.6425781,4.0625,13.9335938
				c4.0629883,0.2910156-1.4511719-13.3505859-1.4511719-13.3505859"/>
			<path id="path879" style="fill:none;stroke:#010101;" d="M195.2211914,190.5307617c0,0,5.2255859,15.6757813,2.902832,25.5463867
				"/>
			<path id="path880" style="fill:none;stroke:#010101;" d="M185.0644531,215.7861328
				c1.1601563,1.7421875,6.0942383,10.7412109,8.996582,11.9013672"/>
			<path id="path883" style="fill:none;stroke:#010101;" d="M173.4541016,158.3154297
				c0,0-2.6142578,14.5131836,18.5756836,13.0620117"/>
			<path id="path884" style="fill:#24459C;stroke:#010101;" d="M93.6313477,212.5947266
				c0,0,4.3535156,4.6450195,2.8994141,11.0302734c-1.4511719,6.3852539-7.5473633,13.6396484-11.0302734,15.9648438
				c-3.4824219,2.3227539,23.5097656,17.1269531,30.4780273,15.675293c6.965332-1.4560547-10.4506836,1.1582031-8.4194336,5.5117188
				c2.03125,4.3540039,4.9365234,8.1279297,8.996582,6.9658203c4.0678711-1.1601563,5.5170898-7.2568359,5.5170898-7.2568359
				s-4.0678711,11.8994141-0.5854492,15.6733398c3.487793,3.7739258,14.2246094,0,14.2246094,0
				s-2.6162109-8.996582-5.2255859-10.4482422c-2.6113281-1.4511719,10.7373047,4.9365234,11.3173828,12.4819336
				c0.5849609,7.5454102,4.3261719-3.8144531,9.8701172-5.2250977c-0.2910156-0.5825195-4.3540039-7.5454102-5.8051758-7.2568359
				c-1.4511719,0.2890625,3.7714844-5.5166016,6.6762695-4.934082c2.9033203,0.5776367,0.5800781-8.9995117,0.8691406-8.9995117
				c0.2910156,0-14.5131836-0.5820313-15.3818359,4.6430664c-0.871582,5.2250977-21.7724609-11.6103516-23.2216797-17.1245117
				c-1.456543-5.5141602,8.9995117-8.421875,8.128418-16.5444336c-0.871582-8.1308594-3.4853516-13.355957-6.0942383-15.387207
				l-12.7758789-8.996582L93.6313477,212.5947266z"/>
			<path id="path885" style="fill:none;stroke:#010101;" d="M96.2426758,210.2744141
				c0.8710938-0.2915039,22.9326172-1.7426758,22.9326172-1.7426758"/>
			<path id="path886" style="fill:#ED2224;stroke:#010101;" d="M155.7998047,253.7456055
				c1.4287109-0.3569336,5.75,0.0634766,4.5898438,7.902832c-2.5888672-3.3535156-3.0146484-2.3754883-4.3237305-2.2573242
				L155.7998047,253.7456055z"/>
			<path id="path887" style="fill:#ED2224;stroke:#010101;" d="M151.4233398,276.0322266
				c1.3779297,0.5087891,4.7109375,3.2978516-0.6689453,9.1157227c-0.2480469-4.2319336-1.6259766-4.1362305-2.7758789-4.7763672
				C147.578125,277.855957,148.8447266,275.4570313,151.4233398,276.0322266z"/>
			<path id="path888" style="fill:#ED2224;stroke:#010101;" d="M129.7719727,279.4291992
				c0.6235352,1.3291016,2.1279297,7.0864258-5.7895508,7.4741211c1.1191406-3.5537109,0.668457-4.8505859,0.2988281-6.1118164
				L129.7719727,279.4291992z"/>
			<path id="path889" style="fill:#ED2224;stroke:#010101;" d="M105.7685547,262.5957031
				c-1.4033203,0.453125-4.8505859,3.0922852,0.2788086,9.1333008c0.4277344-4.2172852,1.3041992-3.6088867,2.4794922-4.1992188
				L105.7685547,262.5957031z"/>
			<path id="path890" style="fill:#ED2224;stroke:#010101;" d="M208.6606445,270.0600586
				c-1.4287109-0.3574219-5.7495117,0.1821289-4.5917969,8.0214844c2.5908203-3.3535156,5.5136719-2.4951172,6.8256836-2.3759766
				L208.6606445,270.0600586z"/>
			<path id="path891" style="fill:#ED2224;stroke:#010101;" d="M236.3320313,288.0126953
				c-0.1845703,1.4638672-2.3681641,6.0585938-9.2646484,2.152832c3.1098633-1.3271484,3.5375977-2.6694336,3.8999023-3.9360352
				L236.3320313,288.0126953z"/>
			<path id="path892" style="fill:#ED2224;stroke:#010101;" d="M254.515625,274.3935547
				c1.0180664,1.0688477,2.7832031,5.0356445-4.6049805,7.8974609c1.6362305-3.9106445,0.5776367-3.7939453-0.1723633-4.8730469
				L254.515625,274.3935547z"/>
			<path id="path893" style="fill:#ED2224;stroke:#010101;stroke-width:0.8258;" d="
				M226.6743164,117.574707c-0.3569336-2.4951172,0.0654297-10.0458984,7.902832-8.0195313
				c-3.3540039,4.5214844-2.3710938,5.2661133-2.2548828,7.5507813L226.6743164,117.574707z"/>
			<path id="path894" style="fill:#ED2224;stroke:#010101;" d="M252.8945313,254.9384766
				c1.4716797,0.0131836,5.5517578,1.5019531,2.472168,8.8022461c-1.671875-3.8959961-2.3276367-3.0498047-3.6274414-3.2626953
				L252.8945313,254.9384766z"/>
			<path id="path895" style="fill:#ED2224;stroke:#010101;" d="M69.5361328,247.1171875
				c1.402832,0.4536133,5.8027344,1.7832031,2.578125,8.3027344c-1.6157227-3.2670898-4.1635742-2.7763672-5.3339844-3.3686523
				L69.5361328,247.1171875z"/>
			<path id="path896" style="fill:#ED2224;stroke:#010101;stroke-width:0.7162;" d="
				M58.5283203,266.9975586c0.8256836,1.6518555,2.0214844,7.4389648-5.2226563,10.1186523
				c1.9907227-5.1186523,0.3847656-5.8554688-0.1923828-7.4794922L58.5283203,266.9975586z"/>
			<path id="path897" style="fill:#ED2224;stroke:#010101;" d="M39.7392578,273.7045898
				c-0.0195313,1.4716797-1.5297852,5.5473633-8.8139648,2.4316406c3.9052734-1.6542969,3.0644531-2.3149414,3.2822266-3.609375
				L39.7392578,273.7045898z"/>
			<path id="path898" style="fill:#ED2224;stroke:#010101;" d="M25.9326172,241.015625
				c-1.2587891-0.7597656-5.5214844-1.6157227-6.6938477,6.2236328c3.4545898-2.4599609,3.5761719-1.3959961,4.7944336-0.9047852
				L25.9326172,241.015625z"/>
			<path id="path899" style="fill:#ED2224;stroke:#010101;stroke-width:0.8258;" d="
				M249.7963867,118.4277344c1.9331055-1.628418,8.5454102-5.2807617,10.9946289,2.4423828
				c-5.6118164-0.4438477-5.7236328,0.7827148-7.5952148,2.0942383L249.7963867,118.4277344z"/>
			<path id="path900" style="fill:#ED2224;stroke:#010101;stroke-width:0.8258;" d="
				M256.2426758,142.2060547c2.4165039-0.71875,9.0981445-4.2573242,3.9790039-10.5336914
				c-2.7050781,4.9443359-3.7915039,4.3618164-5.9135742,5.2075195L256.2426758,142.2060547z"/>
			<path id="path901" style="fill:#ED2224;stroke:#010101;stroke-width:0.6218;" d="
				M254.2416992,160.546875c1.8945313,0.09375,7.5249023-0.7470703,5.4663086-6.484375
				c-3.1557617,2.8320313-3.784668,2.1455078-5.5068359,2.2167969L254.2416992,160.546875z"/>
			<circle style="fill:none;stroke:#010101;stroke-width:1.5;" cx="185.7492676" cy="129.0009766" r="4.416748"/> 
			<path style="fill:none;stroke:#010101;" d="M176.6660156,133.1674805c0,0,2.1669922-2.1669922,4-4.6669922
				s4.8330078-5.4995117,9.6665039-2.8330078c1.1665039,0.5,1.8334961,1.3330078,3.8334961,1.6665039"/>
		</g>
	<use
	transform="translate(9 240) scale(0.97)"
	xlink:href="#lion" />

</svg>
