<?xml version="1.0" encoding="utf-8"?>
<!-- Generator: Adobe Illustrator 26.0.1, SVG Export Plug-In . SVG Version: 6.00 Build 0)  -->
<svg version="1.1" id="Layer_1" xmlns="http://www.w3.org/2000/svg" xmlns:xlink="http://www.w3.org/1999/xlink" x="0px" y="0px"
	 viewBox="0 0 279.6 279.6" style="enable-background:new 0 0 279.6 279.6;" xml:space="preserve">
<style type="text/css">
	.st0{fill:#BD8D44;}
	.st1{fill-rule:evenodd;clip-rule:evenodd;fill:#BD8D44;}
</style>
<g>
	<path class="st0" d="M139.8,0C62.6,0,0,62.6,0,139.8C0,217,62.6,279.6,139.8,279.6S279.6,217,279.6,139.8l0,0l0,0
		C279.6,62.6,217,0,139.8,0 M139.8,277.8c-76.2,0-138-61.8-138-138s61.8-138,138-138s138,61.8,138,138l0,0
		C277.8,216,216,277.8,139.8,277.8z"/>
	<path class="st0" d="M260.8,110.2l-2.9,5.6c0.5,0.9,0.9,1.9,1,2.9l0.6,3.6c0.3,3.7,0.5,2.8-1.8,5.7c-1.5,1.9-3.2,3.8-4.4,5.8
		s-1.9,2.2-1.9,6.1v0.3l0,0c-0.3,34.5-16.5,67-44,88l0,0c-39.8,31.5-96,31.5-135.8,0.1l0,0c-26.5-20.3-42.6-51.3-43.9-84.7v-3.5
		c0.1-3.8,0.3-3.2-2-6.2l-0.9-1.2l-4.6,4.4c0.4,0.9,0.6,1.9,0.5,2.9v0.2l0,0v2.7l0,0c1.2,37.2,19.8,71.8,50.2,93.3v0.1
		c20,14.3,43.9,22.2,68.5,22.4l0,0c24.6-0.2,48.5-8,68.5-22.4l0,0c30.3-21.5,48.9-55.9,50.1-93l0,0c0-0.9,0.1-2.3,0.1-3.2
		c0-3.6,0.3-2.8,2.2-5.6c1.4-2,2.9-3.9,4.4-5.9c2.3-3,2.7-2.3,2-6c-0.7-4.2-0.5-3-1.1-6.6c-0.7-3.8-0.7-2.8-3.9-5l-1.2-0.8"/>
	<path class="st0" d="M88.4,249.3c-2-0.9-4-1.9-6-2.9l-1.8,3.2c-23.3-15-39-32.6-50.3-54.2c-8.5-15.9-13.2-33.5-13.6-51.6
		c-0.1-5.8,0.1-4.9,4.3-9l5.3-5.1c2.8-2.7,2.3-4,2.9-7.9v-0.1c0.7-3.7,1.3-4.2-0.4-7.6l-0.7-1.3l-5.3,3.5c0,0.6-0.2,1.3-0.4,3.2
		c-0.2,1.5-0.3,2-0.5,3.2c-0.7,3.5,0,2.8-2.6,5.3l-4,3.9c-2.7,2.7-4.8,3.6-5,7.4v2.3l0,0v2l0,0c0.4,19,4.3,35.6,14.4,55
		c12,23.1,35.8,47.7,60,58.8l3-6.1L88.4,249.3z"/>
	<polygon class="st0" points="86.8,259.5 90.7,261.1 92.3,257.3 88.5,255.7 	"/>
	<polygon class="st0" points="89.1,253.9 92.9,255.6 94.6,251.8 90.8,250.2 	"/>
	<path class="st0" d="M177.8,255.2l1.4,3.8c-8.6,2.6-17.5,4.3-26.4,5.2l-0.4-3.6c-2.2,0.2-4.4,0.4-6.7,0.5l0.7,8.7h0.6
		c11.1-0.6,22.1-2.6,32.8-5.8h0.2c2.1-0.6,4.1-1.3,6.2-2.1l0.6-0.2l-2.7-8.5c-2.1,0.8-4.2,1.6-6.3,2.2"/>
	<path class="st0" d="M129,264.3c-8.8-0.9-17.6-2.7-26.1-5.3l0.9-3.8c-2.1-0.7-4.2-1.4-6.3-2.2l-0.7,2l-2.1,6.6
		c10.7,3.9,21.9,6.5,33.3,7.6h0.3c2.3,0.2,4.6,0.4,7,0.5v-0.2l0,0l0.5-8.5c-2.2-0.1-4.4-0.3-6.7-0.5L129,264.3z"/>
	<rect x="138.8" y="260.9" class="st0" width="4.1" height="4.1"/>
	<path class="st0" d="M191.7,249.3c2-0.9,4-1.9,6-2.9l1.2,3.2c23.3-15,39.6-32,50.9-53.6c8.6-16.1,13.2-33.9,13.6-52.1
		c0-2.8-0.1-5.1-2.4-7.3l3.7-4.8c2.5,2.4,5,4,5.2,7.6v2.3l0,0v2l0,0c-0.4,19-4.3,35.6-14.4,55c-12,23.1-35.8,47.7-60,58.8l-3-6.1
		L191.7,249.3z"/>
	<polygon class="st0" points="193.6,259.5 189.8,261.1 188.1,257.3 191.9,255.7 	"/>
	<polygon class="st0" points="191.3,253.9 187.5,255.6 185.8,251.8 189.6,250.2 	"/>
	<path class="st0" d="M139.8,2.9C64.2,2.9,3,64.2,3,139.8c0,75.6,61.3,136.9,136.9,136.8c75.6,0,136.9-61.3,136.9-136.9v-0.1
		C276.7,64.1,215.4,2.9,139.8,2.9 M139.8,273.5C66,273.5,6.1,213.6,6.1,139.8C6,65.9,65.9,6,139.8,6c73.8,0,133.7,59.8,133.8,133.7
		l0,0C273.6,213.5,213.7,273.4,139.8,273.5C139.8,273.5,139.8,273.5,139.8,273.5L139.8,273.5z"/>
	<path class="st0" d="M139.8,68C100.2,68,68,100.1,68,139.8s32.2,71.8,71.8,71.8s71.8-32.2,71.8-71.8v-0.1
		C211.6,100.1,179.5,68,139.8,68 M139.8,208.5c-38,0-68.8-30.8-68.9-68.8s30.8-68.8,68.8-68.9c38,0,68.8,30.8,68.9,68.8c0,0,0,0,0,0
		l0,0C208.6,177.7,177.8,208.5,139.8,208.5L139.8,208.5z"/>
	<path class="st0" d="M26.1,87.6l5.7-2.6c0.1-1,0.5-2,1-2.9l1.8-3.2c2.1-3,1.4-2.5,4.9-3.4c2.4-0.6,4.8-1,7.1-1.8s2.7-0.7,5.2-3.8
		l0.1-0.1l0.1,0.1c3-3,4.8-4.2,5-8.5v-1.6l-6.3,0.5c-0.4,1.3-3.2,3.8-4.2,5.2c-2,3-1.9,2.1-5,3.2c-2.4,0.7-4.8,1.2-7.1,1.9
		c-3.7,1-3.5,0.2-5.3,3.5c-2.1,3.7-1.6,2.6-3.2,5.8s-1.2,2.6,0,6.3C25.8,86.7,25.9,87.2,26.1,87.6"/>
	<path class="st0" d="M36.9,68.5l6-1.4c0.1-1.6,3.1-4.5,4.3-5.7c2.6-2.6,1.8-2.2,5.4-2.5l7.3-0.5c3.9-0.3,4.3-1.6,7.3-4.2l0.1-0.1
		c2.9-2.4,3.7-2.3,4.6-6l0.3-1.4L65.8,46c-0.4,0.5-1,0.8-2.3,2.1c-1.1,1-1.5,1.3-2.5,2.1c-2.8,2.3-1.8,2.1-5.4,2.4l-7.3,0.6
		c-3.8,0.3-2.8-0.8-5.5,2c-1.5,1.6-3.5,4-4.8,5.7c-2.5,3.2-1.8,2.5-1.3,6.3L36.9,68.5z"/>
	<path class="st0" d="M51.3,51.6l6.3-0.5c0.2-0.6,0.7-1.1,2-2.4l2.8-2.4c3-2.2,2.1-1.9,5.8-1.5c2.4,0.3,4.8,0.7,7.3,0.8
		s2.8,0.3,5.9-1.6l0,0c3.8-1.8,5.9-2.3,7.7-6.2l0.6-1.4l-6.1-1.8c-0.7,0.8-4.3,2.4-5.5,3.3c-2.9,2.1-2.5,1.4-5.8,1.2
		c-2.4-0.1-4.9-0.5-7.3-0.7c-3.8-0.3-3.4-1.1-6.2,1.4c-3.2,2.8-2.3,2-5,4.4s-2.1,2.1-2.2,5.9v1.4"/>
	<path class="st0" d="M217,46.3l2.8,2.4c2.6,2.6,2.1,1.8,2.3,5.5c0.1,2.4,0,4.9,0.3,7.3s0.1,2.8,2.7,5.8c0.8,0.9,1.4,1.9,2.2,2.7
		l0,0c2.3,3,1.4,2.7,5,3.6l1.5,0.4l0.8-6.3c-1.5-1.5-2.9-3.1-4.2-4.8c-2.5-2.6-1.7-2.2-2.1-5.6c-0.2-2.5-0.3-4.9-0.4-7.4
		c-0.2-3.8,0.6-3.5-2.3-5.9c-3.2-2.8-2.3-2-5-4.3s-2.3-1.8-6.2-1.3l-1.4,0.2l1.4,6.2C215.3,45,216.2,45.5,217,46.3"/>
	<path class="st0" d="M199.2,33.9c1.2,0.6,2.3,1.2,3.4,2c3,2.1,2.4,1.4,3.2,5c0.5,2.4,1.1,4.8,1.6,7.1c0.8,3.8,2.2,4,5.2,6.6
		l0.1,0.1c2.9,2.5,2.9,3.3,6.6,3.6l1.5,0.1l-0.2-6.3c-0.5-0.3-1-0.8-2.4-2c-0.9-0.7-1.7-1.4-2.4-2.1c-2.7-2.4-2.3-1.5-3.2-5
		l-1.6-7.2c-0.9-3.7,0.3-2.9-2.8-5.1c-1.9-1.3-4.5-2.6-6.6-3.8c-3.4-2-2.7-1.4-6.4-0.2l-1.3,0.4l2.4,5.7
		C196.8,32.8,197.4,33.1,199.2,33.9"/>
	<path class="st0" d="M137.5,18.5h3.6c3.7,0.3,2.8,0,5.4,2.6c1.7,1.8,3.2,3.7,5,5.3s1.9,2,5.8,2.6h0.2v0.1c1.1,0.3,2.4,0.5,3.7,0.7
		c3.7,0.8,2.8,1.1,6.2-0.5l1.4-0.7l-3.5-5.3c-1.3,0.2-4.9-1-6.6-1.1c-3.6-0.3-2.8-0.6-5.2-2.9c-1.8-1.7-3.4-3.5-5.1-5.3
		c-2.6-2.7-1.8-3-5.6-3h-6.6c-3.9,0-2.9,0.2-5.6,3.1l-1,1l5.1,3.7C135.4,18.5,136.4,18.4,137.5,18.5"/>
	<path class="st0" d="M162.7,20.8c3.5,0.9,2.8,0.5,4.8,3.5c1.3,2,2.7,4,4,6.1c2.1,3.2,3.5,3,7.2,4.3h0.1c3.6,1.3,3.9,2.1,7.5,1
		l1.4-0.4l-2.4-5.8c-0.6-0.1-1.2-0.4-3-1c-1.4-0.5-1.9-0.6-3.1-1.1c-3.4-1.3-2.7-0.6-4.8-3.5c-1.4-2-2.7-4.1-4.1-6.1
		c-2.1-3.2-0.7-2.8-4.4-3.8c-2.2-0.6-5.1-1-7.3-1.4c-3.9-0.7-3-0.4-6.1,2l-1.1,0.9l3.9,4.3C157.7,19.9,160.2,20.3,162.7,20.8"/>
	<path class="st0" d="M116.4,20.8c1.1-0.3,2.3-0.6,3.5-0.7c3.6-0.3,2.8-0.5,5.7,1.7l5.9,4.4c3.2,2.3,4.3,1.6,8.2,1.6h0.2
		c3.8,0,4.3,0.6,7.4-1.6l1.2-0.9l-4.3-4.8c-1.1,0.1-2.1,0.1-3.2,0h-3.2c-3.6,0-2.8,0.4-5.7-1.7l-6-4.1c-3.1-2.2-1.6-2.4-5.4-2.1
		c-2.4,0.2-4.6,1-6.9,1.4c-3.9,0.7-3,0.7-5.1,4l-0.8,1.1l5.5,2.8C113.8,21.5,114.4,21.3,116.4,20.8"/>
	<path class="st0" d="M99.3,25.5c3.5-1,2.6-1,5.9,0.7c2.2,1.1,4.3,2.3,6.5,3.3s2.5,1.3,6.3,0.5c1.2-0.2,2.3-0.3,3.4-0.6l0,0
		c3.8-0.5,3,0.1,5.6-2.7l1.1-1.1l-5.1-3.8c-1.9,0.5-3.8,0.9-5.7,1.2V23l-0.5,0.1c-3.5,1-2.8,0.4-5.9-0.9c-2.2-1-4.4-2.2-6.6-3.2
		c-3.4-1.6-2.8-2.2-6.3-0.9c-4,1.5-2.8,1-6.2,2.3c-3.7,1.4-2.7,1.2-4.2,4.8c-0.2,0.4-0.4,0.9-0.5,1.3l6,1.8
		C94,27.3,97.9,26,99.3,25.5"/>
	<path class="st0" d="M179.7,25.3l3.4,1.2c3.3,1.6,2.7,0.9,4.1,4.3c1,2.2,1.8,4.6,2.9,6.7s1.1,2.6,4.6,4.5c1.1,0.6,2.2,1.3,3.2,1.9
		c3.2,2.1,2.2,2.1,6,1.7l1.6-0.1l-1.4-6.2c-0.9-0.2-4.3-2.5-5.9-3.2c-3.2-1.6-2.4-1.6-3.9-4.5c-1.1-2.2-2-4.5-3-6.7
		c-1.6-3.5-0.7-3.4-4.3-4.8c-4-1.4-2.8-1.1-6.3-2.3c-3.7-1.3-2.8-0.8-6.2,1l-1.3,0.7l3.5,5.2C177.6,24.7,178.7,24.9,179.7,25.3"/>
	<path class="st0" d="M76.6,36c1-0.7,2.1-1.2,3.2-1.7c3.3-1.6,2.4-1.4,5.9-0.4l7,2.1c3.7,1.1,4.6,0,8.3-1.3h0.1
		c3.6-1.3,4.3-0.9,6.3-4l0.8-1.2l-5.7-3c-0.5,0.3-1.2,0.4-2.9,1.1c-1.4,0.6-1.9,0.7-3.1,1.1c-3.4,1.2-2.4,1.3-5.9,0.3l-7.1-2
		c-3.6-1-2.4-1.7-5.8,0c-1.9,0.9-4.5,2.5-6.3,3.6c-3.4,2-2.6,1.7-3.4,5.5l-0.3,1.3l6.1,0.7c0.3-0.6,0.8-1,2.5-2.1"/>
	<path class="st0" d="M18.8,108.3l5.2-3.4c-0.2-0.6,0-1.2,0.6-3.2c0.3-1.2,0.6-2.3,1.1-3.4c1.5-3.3,0.9-2.7,4.3-4.2l6.7-2.9
		c3.5-1.6,3.5-3,5.4-6.4l0.1-0.1c1.9-3.3,2.7-3.5,2.2-7.2L44.1,76l-6.2,1.4c-0.2,0.6-0.7,1.1-1.5,2.8c-0.7,1.3-1,1.8-1.6,2.8
		c-1.8,3.2-1,2.6-4.3,4.1l-6.7,3.1c-3.4,1.6-2.9,0.3-4.5,3.7c-1,2.2-1.4,4.4-2.2,6.7c-1.3,3.8-0.9,2.9,1,6.3L18.8,108.3z"/>
	<path class="st0" d="M244.4,78.6l1.8,3.2c1.6,3.3,1.4,2.5,0.3,5.9c-0.7,2.3-1.6,4.6-2.2,7s-0.8,2.7,0.5,6.3v0.2h-0.1
		c1.1,4.1,1.1,6.3,4.6,8.7l1.3,0.9l2.9-5.7c-0.8-1-1.6-4.8-2.2-6.3c-1.5-3.3-0.8-2.7,0-5.9c0.6-2.4,1.4-4.8,2.1-7
		c1.1-3.6,1.7-3.1-0.2-6.3c-2.1-3.7-1.4-2.7-3.3-5.8c-1.9-3.4-1.6-2.4-5.4-3.4c-0.5-0.1-0.9-0.2-1.4-0.3l-0.8,6.2
		C243,76.5,243.4,77.1,244.4,78.6"/>
	<path class="st0" d="M252,95c1.3,1,2.2,5,2.6,6.6c0.9,3.5,1,2.7-0.7,5.9c-1.1,2.1-2.3,4.3-3.4,6.5c-1.8,3.5-0.9,4.5-0.2,8.4v0.2
		c0.6,3.7,0,4.4,2.8,7l1,1l4-5c-0.2-0.6-0.2-1.3-0.6-3.1c-0.3-1.5-0.4-2-0.5-3.2c-0.5-3.6-0.8-2.6,0.8-5.9l3.3-6.6
		c1.7-3.4,2.1-2,1.2-5.7c-0.5-2.1-1.6-5-2.3-7.1c-1.3-3.8-1.2-2.8-4.8-4.4l-1.3-0.6L252,95z"/>
	<path class="st0" d="M229.5,52.9l0.2,6.2c0.6,0.2,1.1,0.7,2.4,2.2c0.9,0.8,1.6,1.7,2.3,2.7c2.1,3,1.8,2.2,1.3,5.8
		c-0.3,2.4-0.6,4.8-1,7.2c-0.5,3.8,0.7,4.6,2.6,7.9V85c1.8,3.3,1.6,4.1,5,5.7l1.3,0.6l2-6.1c-0.4-0.5-0.6-1.1-1.6-2.7
		c-0.8-1.3-1-1.7-1.6-2.8c-1.7-3.2-1.7-2.2-1.2-5.8c0.3-2.4,0.6-4.9,0.9-7.3c0.5-3.8,1.3-2.6-0.9-5.8c-1.4-2-3-3.5-4.6-5.4
		c-2.5-3.2-2.1-2.3-5.9-2.5L229.5,52.9z"/>
	<path class="st0" d="M15.2,129.9l4.5-4.4c-0.2-1-0.2-2.1,0-3.2l0.6-3.6c0.9-3.6,0.4-2.8,3.5-4.8c2-1.3,4.1-2.6,6-4.1
		s2.3-1.6,3.5-5.3s2.8-5.5,1.6-9.5l-0.5-1.5l-5.8,2.6c0,0.3-1.6,5.2-1.8,6c-0.9,3.5-1,2.7-3.7,4.8c-2,1.5-4,2.8-6,4.2
		c-3.2,2.2-3.3,1.3-3.9,5.1c-0.7,4.2-0.5,3-1.1,6.6c-0.6,3.9-0.3,2.9,2.1,6C14.7,129.2,15,129.6,15.2,129.9"/>
	<path class="st0" d="M139.8,33.8c-58.6,0-106.1,47.5-106.1,106.1S81.2,246,139.8,246s106.1-47.5,106.1-106.1l0,0v-0.1
		C245.9,81.2,198.4,33.7,139.8,33.8 M139.8,243.4c-57.2,0-103.5-46.4-103.5-103.6S82.7,36.3,139.9,36.3
		c57.2,0,103.5,46.4,103.5,103.6C243.4,197,197.1,243.4,139.8,243.4L139.8,243.4z"/>
	<path class="st0" d="M227.9,169.6l-2.1,5.3c-0.2,0.5-0.6,1-1,1.4c-0.7,0.8-1.7,1.2-2.8,1.3c-0.5,0-1.1-0.1-1.6-0.3l-6.1-2.4
		c4.8-11.9,8.4-20.6,8.1-34.1h-0.6c-0.5,0-1.1-0.1-1.6-0.4c-1-0.4-1.9-1.2-2.3-2.2c-0.2-0.5-0.3-1-0.3-1.6v-2.5l3.2-0.1v2.5
		c0,0.2,0.1,0.4,0.2,0.6c0.2,0.2,0.4,0.2,0.6,0.2h0.6l-0.2-7.3l6.5-0.2c0.5,0,1.1,0.1,1.6,0.3c0.5,0.2,1,0.5,1.4,0.9
		c0.7,0.8,1.2,1.8,1.3,2.9v2.2c0,0.5-0.1,1.1-0.3,1.6c-0.2,0.5-0.5,1-0.9,1.4c-0.4,0.4-0.8,0.7-1.3,0.9c-0.5,0.3-1,0.4-1.6,0.4
		l-3.3,0.1c0.1,6.1-0.8,9.5-1.9,16l2.3,0.4c0.2,0,0.3,0,0.5,0c0.3-0.1,0.5-0.4,0.5-0.7l1.6-9.3l5.1,0.9c0.6,0.1,1.1,0.3,1.6,0.6
		c0.4,0.3,0.8,0.6,1.1,1c0.3,0.5,0.5,1,0.7,1.6c0.1,0.5,0.1,1.1,0,1.6l-2.5,11.9l-3.2-0.6l2.5-11.9c0-0.2,0-0.3,0-0.5
		c0-0.1-0.1-0.3-0.2-0.4c-0.1-0.1-0.3-0.2-0.4-0.2l-1.8-0.3l-1.1,6.1c-0.2,1-0.8,2-1.7,2.6c-0.5,0.3-1,0.5-1.6,0.7
		c-0.5,0.1-1.1,0.1-1.6,0l-2.3-0.4c-1.3,4.5-2.8,8.9-4.6,13.1l3,1.2c0.1,0,0.3,0,0.4,0l0.5-0.2c0.1-0.1,0.2-0.2,0.2-0.4l2.6-6.5
		L227.9,169.6z M228.6,123.8l-0.5-2.9c-0.1-0.3-0.3-0.6-0.5-0.8c-0.2,0-0.3,0-0.5,0l-3.2,0.6l0.7,3.9L228.6,123.8z M203.8,75
		l-2.2-2.1c-0.1-0.1-0.2-0.2-0.4-0.2c-0.3-0.1-0.7,0-0.9,0.2l-2.2,2.4l2.8,2.7L203.8,75z M206,88.8c-3.7-4.8-7.9-9.3-12.4-13.4
		l4.5-4.8c0.4-0.4,0.8-0.7,1.3-0.9c0.5-0.2,1-0.3,1.6-0.4c0.5,0,1.1,0.1,1.6,0.3c0.5,0.2,1,0.4,1.4,0.8l4.5,4.4l-5.1,5.4
		c1.8,1.9,3.5,4,4.9,6.2l0,0l0.3,0.4l0.1,0.2l0,0l3,4.2l0,0l2.5,3.9l0,0l0.2,0.4v0.1l0,0l2.1,4.1l0,0l2.1,4.8l0,0l0.2,0.6v0.1l0,0
		c1.4,3.6,3.4,9,4.3,12.4l3.2-0.6c0.5-0.1,1.1-0.1,1.6,0c0.6,0.1,1.1,0.4,1.6,0.7c0.4,0.3,0.8,0.7,1.1,1.1c0.3,0.5,0.6,1,0.7,1.6
		l1.1,6.2l-10.5,1.9c-0.9-6.2-2.4-12.2-4.4-18.1l0,0l-1.6-4l-2-4.4l0,0l-2.4-4.8l-3-4.8l0,0L206,88.8z M209.3,72.7l-2.1-2l2.1-2.2
		l2.1,2L209.3,72.7z M206.3,70l-2.1-2l2.1-2.2l2.1,2L206.3,70z M188.1,71.3l-2.7-1.9l9.1-12.8l2.7,1.9L188.1,71.3z M175.7,55.7
		l-2-0.9c-0.1-0.1-0.3-0.1-0.5-0.1c-0.3,0.1-0.5,0.3-0.6,0.5l-1.3,3l3.6,1.6l1.3-3c0.2-0.3,0.2-0.6,0-0.8
		C176,55.8,175.9,55.7,175.7,55.7L175.7,55.7z M184,68.4c-2.6-1.5-4.9-3.1-7.5-4.2l-0.2,0.5c-0.2,0.5-0.6,0.9-1,1.3
		c-0.8,0.8-1.9,1.2-2.9,1.1c-0.5,0-1.1-0.2-1.6-0.4l-2.3-1l1.3-3l2.4,1c0.2,0.1,0.4,0.1,0.6,0c0.2-0.1,0.4-0.3,0.5-0.5l0.2-0.5
		l-6.6-3l2.7-5.9c0.3-0.5,0.6-0.9,1-1.3c0.4-0.4,0.9-0.7,1.4-0.9c0.5-0.2,1-0.3,1.6-0.2c0.5,0,1.1,0.1,1.6,0.3l2,0.9
		c0.5,0.2,0.9,0.6,1.3,1c0.4,0.4,0.7,0.8,0.9,1.3c0.2,0.5,0.3,1,0.3,1.6c0,0.5-0.1,1.1-0.3,1.6l-1.3,3c1.7,0.8,3.3,1.6,4.9,2.6
		L189,53l2.9,1.7L184,68.4z M101.9,52.5l4.5-1.8c0.5-0.2,1.1-0.3,1.7-0.3c1.1,0,2.1,0.4,2.9,1.2c0.4,0.4,0.7,0.9,0.9,1.4l1.2,3
		c14.6-5.7,34.7-4.1,49.7-0.7l0.7-3.2c0-0.1,0-0.3,0-0.4c-0.1-0.2-0.2-0.3-0.3-0.5c-0.1-0.1-0.3-0.2-0.4-0.2l-6.8-1.6l2-2.9l5.5,1.3
		c0.6,0.1,1.1,0.4,1.6,0.7c0.9,0.6,1.5,1.5,1.7,2.6c0.1,0.5,0,1.1-0.1,1.6l-1.5,6.3c-24.1-5.6-37.1-5.6-60.2,3.5l-1.2-3l6.3-2.5
		l-1.2-3c-0.2-0.2-0.4-0.4-0.7-0.5c-0.2,0-0.3,0-0.5,0.1l-4.5,1.8L101.9,52.5z M103.2,63.3l-9.1,5.2l-3.3-5.7
		c-0.8-1.5-0.6-3.3,0.4-4.6c0.3-0.5,0.7-0.8,1.2-1.1l5.5-3.2L103.2,63.3z M96.7,58.6l-2.7,1.6c-0.3,0.1-0.5,0.4-0.5,0.7
		c-0.1,0.2-0.1,0.3,0,0.5l1.6,2.8l3.5-2L96.7,58.6z M95.8,52.8l-2.5,1.4l-1.5-2.6l2.5-1.4L95.8,52.8z M92.4,54.8l-2.5,1.4l-1.5-2.6
		l2.5-1.4L92.4,54.8z M88.6,72.5l-2.6,2l-9.7-12.4l2.6-2L88.6,72.5z M84.6,75.6c-2.8,2.7-7.7,6.9-9.6,9.6l0.4,0.3
		c0.5,0.3,0.8,0.7,1.1,1.2c0.6,0.9,0.8,2.1,0.5,3.2c-0.1,0.5-0.4,1-0.7,1.5l-1.5,2l-2.7-1.9l1.5-2c0.1-0.2,0.2-0.4,0.2-0.6
		c0-0.2-0.2-0.4-0.3-0.5L73,88.1l-4.2,5.7L63.5,90c-0.4-0.4-0.8-0.8-1.1-1.2c-0.3-0.5-0.5-1-0.6-1.6c-0.1-0.5-0.1-1.1,0-1.6
		c0.1-0.5,0.3-1.1,0.6-1.5l1.3-1.8c0.3-0.4,0.7-0.8,1.2-1.1c0.4-0.3,1-0.5,1.5-0.6c0.5-0.1,1.1-0.1,1.6,0c0.5,0.1,1.1,0.3,1.5,0.6
		l2.7,1.9c2.3-2.8,4.8-5.5,7.6-7.9l-8.6-9l2.4-2.3L84.6,75.6z M66.5,84.3l-1.3,1.8c-0.1,0.1-0.2,0.3-0.2,0.4c0,0.3,0.1,0.6,0.4,0.8
		l2.7,1.9l2.3-3.2l-2.7-1.9c-0.2-0.2-0.6-0.2-0.8-0.1C66.7,84.1,66.6,84.2,66.5,84.3z M59,95.9l-2,4.4c0,0.1,0,0.2,0,0.4
		c0,0.2,0.1,0.3,0.2,0.5l2.8,2.5l3.2-6.9l-3-1.3c-0.2-0.1-0.4-0.1-0.7,0C59.3,95.5,59.1,95.7,59,95.9L59,95.9z M46.3,113.7l-0.7,2.8
		l-2.8-0.7l0.7-2.8L46.3,113.7z M61.3,127.7l-0.2,2.8l-3-0.2l0.2-2.9L61.3,127.7z M61,131.3l-0.2,2.9l-3-0.2L58,131L61,131.3z
		 M63.8,174.7l-6,2.4c-0.5,0.2-1,0.3-1.6,0.3c-0.5,0-1.1-0.2-1.6-0.4c-0.5-0.2-0.9-0.5-1.3-0.9c-0.4-0.4-0.7-0.8-0.9-1.4l-2.3-5.9
		l6.9-2.7c-3.2-7.9-5.2-25.9-4.6-34.4l-6.9-0.6l0.2-3.4l6.9,0.6c1.1-4,1.4-5.9,2.2-9.6l-7.2-1.6l0.8-3.2l7.2,1.6
		c0.6-2.9,1.5-5.8,2.8-8.5L47.1,102l1.3-3l5.3,2.5c0-0.2,0-0.4,0-0.6c-0.1-0.6,0-1.2,0.3-1.8l2-4.4c0.2-0.5,0.6-1,0.9-1.4
		c0.8-0.7,1.8-1,2.9-1c0.5,0,1.1,0.1,1.6,0.3l5.9,2.7C53.6,125.6,51.6,143.7,63.8,174.7L63.8,174.7z M54.3,170.7l1.1,2.8
		c0,0.1,0.1,0.2,0.2,0.3c0.2,0.2,0.6,0.3,0.9,0.2l3-1.2l-1.4-3.6L54.3,170.7z M48.4,170.5l1.1,2.7l-2.8,1.1l-1.1-2.7L48.4,170.5z
		 M49.9,174.1l1.1,2.7l-2.8,1.1l-1.1-2.7L49.9,174.1z M229.7,136.3V134c0-0.2,0-0.3-0.1-0.5c-0.2-0.2-0.5-0.4-0.8-0.4l-3.2,0.1
		l0.1,3.9l3.3-0.1c0.3,0,0.6-0.1,0.8-0.4C229.8,136.6,229.8,136.5,229.7,136.3L229.7,136.3z"/>
	<path class="st0" d="M180.6,211.5l1.8-1.1c0.5-0.3,1-0.5,1.6-0.6c0.5-0.1,1.1-0.1,1.6,0c0.6,0.1,1.1,0.3,1.6,0.6
		c0.4,0.3,0.8,0.7,1.1,1.1l3.8,5.8c0.3,0.4,0.5,0.9,0.6,1.5c0.2,1-0.1,2.1-0.6,3c-0.3,0.4-0.7,0.8-1.1,1.1l-2.1,1.4l-1.8-2.7
		l2.1-1.4c0.2-0.1,0.3-0.3,0.3-0.5c0.1-0.2,0.1-0.4,0-0.6l-0.3-0.5l-6,3.9l-3.5-5.3c-0.3-0.4-0.5-1-0.5-1.5c-0.1-0.5-0.1-1.1,0-1.6
		c0.1-0.5,0.3-1,0.6-1.4c0.3-0.5,0.7-0.9,1.2-1.2 M184.4,213l-1.8,1.1c-0.3,0.1-0.4,0.4-0.4,0.7c0,0.2,0,0.3,0.1,0.5l1.8,2.7
		l3.3-2.1l-1.7-2.7c-0.1-0.1-0.2-0.2-0.4-0.3c-0.4-0.2-0.8-0.1-1.1,0.1L184.4,213z M187.2,207.4l3.6-3.1c0.4-0.4,0.9-0.6,1.5-0.8
		c1-0.4,2.1-0.3,3,0.2c0.5,0.2,0.9,0.5,1.3,0.9l4.1,4.9l-7.5,6.3l-2.1-2.4l5-4.3l-2.1-2.4c-0.2-0.2-0.5-0.3-0.8-0.3
		c-0.2,0-0.3,0.1-0.4,0.2l-3.6,3.1L187.2,207.4z"/>
	<path class="st0" d="M150.6,225.5l-3,0.4c-0.1,0-0.3,0.1-0.4,0.1c-0.3,0.2-0.4,0.5-0.4,0.8l0.4,3.2l3.8-0.5L150.6,225.5z
		 M154.3,229.1c6.2-0.8,17.1-4.7,22.6-7.4l-5.5-10.9l2.9-1.5l6.9,13.8c-14.1,7.1-21.7,8.5-36.7,10.4l-0.8-6.3
		c-0.1-0.5-0.1-1.1,0-1.6c0.2-0.5,0.4-1,0.7-1.5c0.3-0.4,0.7-0.7,1.2-1c0.5-0.3,1-0.5,1.5-0.6l6.2-0.7L154.3,229.1z"/>
	
		<rect x="149.3" y="217.2" transform="matrix(0.9925 -0.1219 0.1219 0.9925 -25.5209 19.999)" class="st0" width="2.8" height="2.9"/>
	
		<rect x="145.5" y="217.7" transform="matrix(0.9925 -0.1219 0.1219 0.9925 -25.6141 19.5378)" class="st0" width="2.8" height="2.9"/>
	<path class="st0" d="M120.1,236.3l-2.7-0.6l0.6-2.8l2.8,0.6L120.1,236.3z M116.7,235.5l-2.8-0.6l0.7-2.8l2.8,0.6L116.7,235.5z
		 M104.8,232.3l-2.6-1l1.1-2.7l2.6,1L104.8,232.3z M93.7,226.8l-2.4-1.4l1.5-2.5l2.4,1.4L93.7,226.8z M90.7,225l-2.4-1.3l1.5-2.5
		l2.4,1.4L90.7,225z M137.8,233.5c-25.1-0.8-42.6-8.7-60.3-24.1l10.1-11.6l2.4,2.1l-8,9.2c3.6,3.2,7.5,6,11.7,8.5l3.7-6.2l2.8,1.6
		l-3.6,6.2c2.8,1.6,5.7,3,8.6,4.2l2.7-6.7l3,1.2l-2.7,6.7c3,1.2,6.1,2.2,9.2,2.9l1.6-7l3.2,0.7l-1.6,7c4.6,1.1,9.4,1.7,14.1,1.8
		l0.4-12.1l3.3,0.1L137.8,233.5z"/>
	<path class="st1" d="M63.8,189.1l3.9-2.9c0.4-0.3,1-0.2,1.3,0.2l2.8,3.9c0.3,0.4,0.2,1-0.2,1.3l0,0l-3.9,2.8
		c-0.4,0.3-1,0.2-1.3-0.2l-2.8-4C63.3,190,63.4,189.4,63.8,189.1C63.8,189.1,63.8,189.1,63.8,189.1L63.8,189.1"/>
	<path class="st1" d="M214.9,189.1l-3.9-2.9c-0.4-0.3-1-0.2-1.3,0.2l-2.9,3.9c-0.3,0.4-0.2,1,0.2,1.3l3.9,2.8c0.4,0.3,1,0.2,1.3-0.2
		l2.9-3.9C215.4,190,215.3,189.4,214.9,189.1L214.9,189.1"/>
	<polygon class="st0" points="167.1,122.1 174.6,133.2 187.8,129 179.5,139.6 187.7,150.9 175,146.3 166.8,157.5 167.3,144 
		154.1,139.7 167,136 	"/>
	<path class="st0" d="M138.6,172.6c-18.1,0.1-32.9-14.6-32.9-32.7c-0.1-18.1,14.6-32.9,32.7-32.9c9.7,0,18.9,4.2,25.2,11.7
		c-11.7-18.1-35.9-23.3-54-11.6s-23.3,35.9-11.6,54s35.9,23.3,54,11.6c4.6-3,8.6-6.9,11.6-11.6C157.4,168.4,148.3,172.6,138.6,172.6
		"/>
</g>
</svg>
