<svg xmlns="http://www.w3.org/2000/svg" xmlns:xlink="http://www.w3.org/1999/xlink" width="2008" height="2008" viewBox="0 0 1854 1854" shape-rendering="geometricPrecision" image-rendering="optimizeQuality" fill-rule="evenodd" xmlns:v="https://vecta.io/nano"><style><![CDATA[.I{fill-rule:nonzero}.J{fill:#fefefe}.K{fill:#fbbc00}.L{fill:#00a0e3}]]></style><path d="M927 0c512 0 927 415 927 927s-415 927-927 927S0 1439 0 927 415 0 927 0z" fill="#005d9c"/><path d="M927 19c501 0 908 407 908 908s-407 908-908 908S19 1428 19 927 426 19 927 19z" class="J"/><path d="M927 38c491 0 889 398 889 889s-398 889-889 889S38 1418 38 927 436 38 927 38z" fill="#005d9c"/><g class="I J"><path d="M642 183l13 34c3 8 7 8 9 8s4-1 4-1v1c-5 8-12 9-15 9-4 0-6-1-6-1-4 7-12 10-17 10-3 0-4-1-4-1v-1c7-3 6-10 4-13 0-2-28-67-30-74-3-6-7-7-10-7-2 0-5 1-5 1h0s2-4 7-7c5-4 12-4 17-3 0 0 2-3 7-7 4-3 12-4 17-2h0s-2 1-4 3-4 6-2 11c2 4 10 27 10 27s3-1 5-6c2-4 3-10 3-13s1-14 3-19c1-6 4-12 10-16 6-3 13-2 16-1 4 2 8 5 9 11 1 4 0 9-1 10 0 0-2-2-5-2-4 0-7 1-9 4-3 4-5 9-7 13-1 5-2 8-5 12-3 5-5 7-5 7s5-1 10-1c6 0 14 1 19 4 4 2 8 5 12 12 5 7 8 13 10 17 3 4 7 9 13 7v1s-2 2-5 4c-3 3-6 4-10 4s-7-2-7-2-1 2-4 5c-2 2-5 3-7 3s-5-1-6-2h0s3-2 3-6c0-3-1-5-3-7-1-3-5-10-8-15-3-6-11-12-19-12-3 0-7 1-7 1zm54-74s5-1 8 1c4 2 5 5 5 7 1 2 20 75 21 77 1 4 1 11-7 13v1s4 1 7 1c8 0 13-4 15-8 0 0 5 3 12 3 6 0 14-2 21-6 7-3 14-9 17-18 2-9 1-19-1-27-3-8-8-13-13-16s-11-3-15-3c-4 1-9 3-13 8-3 4-2 6-2 6h4c2 0 6 1 9 5 4 3 5 8 6 13 1 4 2 10 1 14 0 4-1 8-3 10-2 3-5 3-6 3s-2 0-4-2c-2-1-2-3-3-6 0-3-15-69-16-73-1-3-2-6-1-8 1-3 4-6 8-7v-1s-3-1-8-1c-4 0-12 1-17 8 0 0-3-2-8-2-6 0-13 2-17 8h0zm89-20s3-4 10-5c5-2 9-1 11 0 3 1 5 2 5 2s1-2 4-4c3-1 7-2 11-2s8 1 10 2v1s-3 0-5 2c-2 1-4 4-4 8 0 3 1 12 1 12l8 69c0 2 1 4 2 6 2 3 5 4 8 4l1 1s-5 5-13 5c-6 0-10-3-10-3s-5 6-14 6c-5 0-9-3-9-3h0s3-1 6-3c2-3 2-6 2-7v-5c-1-2-11-72-12-75 0-3 0-6-3-8-3-3-8-2-9-2v-1zm258-1s5 0 7 3c2 4 2 7 2 9-1 2-12 76-13 79 0 3-3 10-11 9v1c1 1 4 3 7 4 7 3 12 1 16-1 0 0 4 4 10 7 7 2 14 4 22 3 9-1 17-4 22-11 6-7 8-16 9-25 1-8-1-15-5-19-3-5-8-7-12-8s-9-2-15 1c-4 3-5 5-5 5l4 2c2 1 5 3 7 8 1 4 1 9 0 14-1 4-3 10-5 13-2 4-3 6-6 8-2 2-5 2-6 1-1 0-4-1-5-3s-1-3 0-6 14-71 15-75c0-4 1-6 3-8s5-3 10-2v-1s-3-3-7-5-11-3-19 0c-1-1-3-3-6-5-6-2-13-3-19 1v1zm89 17s5-2 12-1c5 1 8 3 10 5l3 3s2-1 6-1c3-1 7 0 11 2 3 1 7 4 8 6v1s-3-1-6 0c-2 0-5 1-7 5l-4 12-20 66c-1 2-1 4-1 7 1 3 3 5 6 6v1s-6 3-14 0c-5-3-7-7-7-7s-7 4-15 0c-5-2-7-6-7-6v-1s3 2 6 0c3-1 5-4 5-5 1-1 1-2 1-5 1-2 20-70 21-73 0-3 1-6-1-9-1-4-6-5-7-5v-1zM852 82s3-1 6 1c3 1 5 4 6 8 0 5 5 78 5 80s0 6-3 9c-3 2-6 2-6 2v1s5 3 10 3c6 0 10-2 13-5 0 0 4 4 11 4 6 0 10-3 12-4v-1s-4 0-7-2c-3-3-3-6-3-10s-2-62-2-67c0-3-1-7 1-10s4-6 9-6c6 0 8 3 10 5 1 2 3 7 3 14 0 3-1 11-5 16-3 5-7 7-12 7 0 0 0 2 4 7 4 4 9 6 13 6 5 0 9-1 13-4s9-9 11-17 2-17-1-24a29.19 29.19 0 0 0-15-18c-8-4-16-5-20-5s-17 1-27 8c0 0-4-4-12-4-7 0-13 4-14 5v1zm140 6l-7 83c-1 5 0 8 3 10 2 2 5 2 5 2v1s-4 3-10 3c-8 0-13-5-13-5-1 1-4 4-11 4s-11-5-11-5v-1c4 1 7-1 8-4 1-2 2-5 2-7 0-6 4-78 4-80 0-1-1-5-4-7-3-3-7-3-7-3h0s5-4 12-4 13 4 14 5c0 0 5-4 16-4 5 0 9 1 13 2 6 3 12 5 16 5 6 0 8-3 8-3s6 3 6 11c0 7-6 14-16 14-6 0-11-3-15-8-5-5-8-8-13-9zm213 88l2-8c4 1 11 2 16 2 6-1 12-1 16-5s5-8 5-10-1-5-4-7c-2-2-6-4-9-3-2 0-5 0-10 2-6 3-9 3-11 3s-6 0-10-4c-4-3-5-8-5-10 0-3 1-8 5-11 4-2 7-2 7-2s1 2 3 4c3 2 7 3 13 4 9 1 14 2 20 4 5 3 15 9 19 17 4 7 4 13 1 18-2 4-6 8-13 10-8 3-17 1-20 0v1s7 4 12 10c5 7 7 13 7 20 0 3-1 12-7 18-6 7-15 13-30 12-15 0-28-7-33-11-6-5-13-14-13-25 0-7 4-15 9-18 3-3 7-3 10-3 7 0 12 3 15 7s3 8 3 10h-4c-1 0-5 0-9 4-3 3-4 7-4 9 0 1 1 6 5 10 3 3 6 4 8 4 5 0 9 0 13-4 4-3 6-7 8-13 2-5 3-12 1-18-3-6-8-13-16-17zm254 1275s-6 0-10 5c-5 5-5 9-6 11 0 0-2 0-5 1-3 2-7 4-9 8l-3 6 1 1s2-3 6-3 7 3 8 4c2 2 52 56 54 59 3 2 3 5 3 7s-1 5-3 8v1l6-2c4-2 8-5 10-10 3-4 3-6 3-6s4 0 8-3c5-3 8-7 9-11 1-2 1-4 1-4v-1s-3 4-8 4c-4 0-6-3-8-4l-55-56c-4-3-4-6-4-8s1-5 3-7h-1zm-59 54h1s-2 2-3 4c-1 3-1 6 0 7 1 2 2 3 3 5 2 2 47 59 48 61 2 1 4 2 6 2s4 0 6-3c2-2 2-5 2-6s0-5-2-9-3-6-5-8c-1-1-4-6-9-9-2-2-6-4-9-4-5 0-9 3-10 4 0 0-1-1-1-4 0-4 2-8 4-12 3-3 7-6 11-7 4-2 8-2 11-2 4 1 9 3 13 5 4 3 9 9 12 13 3 5 6 11 6 17s-2 10-3 13c-2 4-5 9-10 14s-12 10-19 12c-4 2-7 2-7 2-2 8-11 15-21 16v-1s5-3 5-9c0-3-2-5-4-7-1-2-44-61-47-64-2-2-5-4-8-4-2 0-5 2-5 2l-1-1s2-4 5-7 8-6 14-6c0 0 0-5 5-9 4-4 9-5 12-5zm-55 36s6-1 10 3c5 3 6 7 6 10 0 2-1 7-6 10s-10 1-14 1c-4-1-8-2-11 0-3 3-2 12 1 18 2 6 3 8 7 17 5 10 14 23 21 31 7 7 13 9 19 7 5-1 9-6 9-11s-4-11-11-10c0 0 0-5 2-9s7-8 14-8c6 0 11 4 13 8 3 3 3 8 3 13-1 4-2 8-6 13s-10 10-19 15-18 6-23 6c-6 0-14-1-23-6-9-6-16-13-21-23-6-11-8-18-10-30v-12c1-10 5-17 7-20 4-4 10-10 18-14 9-3 10-2 13-5 1-2 1-4 1-4zm-88 94l5 61c1 3 2 8 10 7v1s-1 3-3 5-6 3-12 1c0 0-1 2-3 5-3 3-9 5-15 3l-1-1s3 0 5-6c2-5 2-11 2-16s-4-71-4-74-1-6-5-8-8-1-8-1h-1c5-8 13-12 21-9 4-8 12-13 21-11v1s-3 2-5 5c-1 3-1 7 2 10s48 51 55 57 11 8 15 6l1 1s-2 3-6 7c-5 4-12 7-18 5 0 0-3 5-6 8-4 2-9 4-14 2v-1s4-2 3-6c0-3-1-4-3-7-3-3-36-45-36-45zm-130 13s2-4 7-6c5-3 10-3 15-1v1s-3 1-5 3c-2 3-2 7-1 11s8 27 8 27 3-2 5-5c2-4 3-9 3-16 1-8 2-12 3-18s3-10 7-13 8-3 9-3c2 0 6 0 10 3 3 3 5 7 6 10 1 4 0 7 0 8 0 0-2-1-5-1s-6 1-8 3-4 6-5 10c-1 3-3 9-5 13-2 3-3 6-7 9 0 0 5-1 10-1s13 1 20 6c7 4 11 10 14 14l9 13c2 3 7 8 13 5l1 1s-2 3-5 5c-4 3-8 5-13 5-4 0-7-1-7-1s-1 2-4 4c-2 3-5 4-9 4-3 0-6-1-6-1v-1s3-2 3-7c0-2 0-3-2-6-1-3-6-12-8-15s-4-5-6-7c-3-3-5-4-9-5-3-1-7-1-10 0l10 35c1 4 3 6 7 7 3 2 6 1 7 0v1s-1 2-4 4-8 4-13 4-8-1-8-1-1 2-4 4-8 4-13 4-8-1-8-1v-1s3 0 6-3c2-2 3-5 2-10l-20-75c-1-6-3-8-5-9-3-2-7-1-7-1v-1s2-3 7-5c4-2 10-3 15 0zm-57 14c2-3 6-7 14-7 5 0 8 1 8 1v1s-2 1-4 3-3 4-3 5 0 3 1 6c0 3 15 71 16 77 1 5 5 9 13 8h0s-2 3-6 5-11 4-19 0c0 0-2 3-7 5-5 3-12 3-19 0h0s3-1 6-3c2-2 4-5 3-11s-10-54-10-54c-7 20-15 41-25 64 0 0 2 7 11 6v1s-3 3-8 4c-5 2-11 2-17-2-7 7-18 8-26 4v-1s4 0 6-3c3-2 4-5 4-8 0-2-7-73-8-78 0-3 0-6-3-9-2-2-4-3-7-3l-1-1s5-5 13-5c6 0 10 4 10 4s3-3 7-5 11-2 16 1v1s-4 0-6 3c-3 3-3 7-2 10 0 4 7 53 7 53 9-22 17-43 24-63-3-4-6-6-10-5v-1c6-6 14-8 22-3zm-138 47l14 56c3 10-4 11-6 12v1c6 5 13 5 22-1 0 0 4 3 11 3 9 0 16-5 16-5v-1c-5 0-8-5-12-15-5-9-25-71-25-71-2-6 2-12 8-13h0c-7-6-17-4-22 1-6-5-15-6-23-1v1c5 0 12 4 9 12s-21 55-26 65-10 22-17 23v1s4 4 10 4 9-4 9-4 4 5 9 5 7-4 7-4v-1s-8-2-5-11c4-9 21-57 21-57zm-131-44c7-4 16-4 23 4 0 0 4-4 13-4 6 0 10 1 14 3 5 2 7 3 10 3s7-1 9-3c0 0 6 5 6 11s-5 14-15 14c-5 0-10-3-14-7-4-5-7-8-11-8l-9 73c-1 7-1 9 1 13 2 3 7 4 10 4s7-1 10-5c3-3 7-10 7-20 0-11-6-21-21-21 0 0 2-4 7-7 5-4 12-5 18-3 7 2 14 6 18 16 5 9 4 24-2 33-6 10-14 14-26 16-14 4-32-2-39-8-9 5-20 3-26-3v-1c5 1 11 0 13-10 2-11 11-70 12-78 1-7-3-11-8-12h0zm-3-1h0s-2-3-4-5c-7-3-12 0-13 2 0 0-2-3-4-5-2-1-6-2-10 1l-1 1s6 4 3 11l-20 33s-9-32-10-38 0-10 5-10v-1s-4-7-10-7c-5 0-8 2-8 2s-3-4-8-6c-4-2-10-3-15-1v1s3 1 5 9l19 78c-1 2-4 8-9 11s-10 1-12-2-2-8 1-11 6-3 10-4c0 0-1-3-4-6-2-3-6-5-12-5s-10 2-13 7c-4 5-4 12-3 16s4 8 9 12 15 7 21 7c7 0 12-2 20-9s43-60 48-68 11-13 15-13z"/><path d="M673 1631s4-3 12 0c9 3 12 8 12 8v1s-1-1-3-1c-3 0-7 1-10 8-2 7-23 69-25 74-2 7 0 12 7 15v1s-3 1-6 1c-6 0-14-3-18-10 0 0-3 1-7 1-8 0-18-10-18-10h0s5 2 10-1c3-2 4-5 6-9 2-5 22-58 24-64 1-3-1-9-7-12-8-4-14-2-16 3-4 7-25 59-28 65-2 7-1 12 6 15v1c-10 2-20-3-24-10-9 2-19-2-24-10l1-1c3 1 10 4 15-7l31-68c1-3 2-5 2-8s-2-6-5-8v-1c8-2 19 3 23 11 0 0 12-4 26 3 10 5 16 13 16 13zm620 29s-1 7-7 12c-7 6-14 10-27 9-12-1-14-2-20-1-4 2-6 6-7 8 0 0-2-1-5-3-3-3-4-7-4-12 0-4 1-8 5-11 4-4 10-5 16-3 5 1 10 3 16 5 7 2 15 4 22 1 6-2 11-5 11-5zm-699-69s3 3 3 8c0 6-3 10-6 11-3 2-7 3-12 1-5-3-6-7-7-9s-2-6-2-8c-1-2-3-5-6-5-4 0-7 3-9 5-4 3-9 9-13 16-4 5-7 10-10 15-1 2-6 12-8 17-3 6-3 10-3 14s0 8 4 11c4 4 8 4 9 4s3 0 6-2 5-5 5-8-2-5-2-6c0 0 4-3 9-3s9 3 12 6c3 4 3 7 3 10 0 2 0 6-4 10-3 4-9 8-18 8s-16-3-21-6c-6-2-13-7-18-13-4-6-6-10-8-15-2-4-3-10-3-14 0-5 1-9 3-15 1-6 3-9 7-15 3-6 8-12 11-15 2-3 9-9 18-13 8-5 15-6 20-6 6 0 12 2 17 5 6 3 9 5 12 9 4 3 5 3 8 3h3zm-273-68h-1s1 4 3 7c2 4 7 11 16 11 0 0 0 4 3 8 3 5 9 9 16 10h0s-2-2-3-5c-1-2-1-5 0-7s3-4 7-8c4-5 40-44 44-48s8-5 10-5c3 0 6 1 8 5 2 3 1 9-2 14-4 5-9 12-18 14-8 2-12-1-14-3 0 0-1 2-1 8 0 5 2 13 12 17 11 5 22-2 27-6 5-5 15-16 15-30 0-13-8-22-12-25-3-4-11-10-22-12 0-9-8-16-16-17v1c1 1 6 8-1 15-8 7-49 50-55 55-3 2-4 4-8 4-3 1-6 0-8-3zm162 16l-38 52c-5 8-7 12-7 17s4 12 12 12c9 0 11-7 11-10s-1-5-1-5 3-2 7-2c7 0 16 5 16 16s-10 18-20 18c-14 0-29-10-37-18s-10-13-10-13c-6 0-13-3-16-8-4-4-5-8-5-8h1c7 5 13 1 16-4l46-59c3-3 5-5 5-9s-4-7-4-7v-1s7 0 13 5c5 5 5 10 5 10s5-1 12 2c8 4 11 9 15 14s9 8 15 6c0 0 1 2 1 6 0 6-4 14-13 14s-14-7-15-12c-2-5-4-13-9-16z"/><path d="M451 1560s-2 5 2 10c5 5 8 0 15 8 5 6 6 13 14 14s11-9 8-13c0 0-2 2-9-4s-8-8-16-9c-6-1-10-1-14-6z"/></g><path d="M1333 287c-21-12-41-24-61-34l-20 7c18 9 36 18 53 28 3 2 18 11 26 16 18 12 33 19 47 17 11-1 16-6 20-11 3-6 2-12 0-16 0-2-1-3-2-4 10 9 16 18 25 28 10 6 21 11 30 17-2-1-4-2-5-2-8-2-14 0-20 1-9 2-16 5-28 5-10 0-22-3-22-3s13 10 21 17c5 3 13 10 21 15 8 4 16 8 23 9 14 2 23-5 27-11 2-5 2-12-2-18 9 10 15 21 23 31 9 8 20 14 27 20h-1c-7-4-13-5-25-3-13 2-17 2-29 1-11-2-19-5-19-5l16 16c8 9 18 18 23 21 5 4 16 12 29 12 12 0 18-8 20-11s3-9 0-14v-2c7 11 13 24 18 34 8 8 16 14 25 23-4-3-8-5-13-6-13-2-22 2-38-2s-22-8-22-8c9 11 14 18 23 29 5 7 11 12 14 15 11 9 16 12 28 13 8 1 18-5 21-13 1-4 0-8-1-11h0c4 8 9 21 14 35 8 9 14 14 22 26 0-1-1-2-2-2-6-5-13-6-23-8-10-1-18-1-29-6-12-5-16-8-16-8l18 30c7 11 17 23 28 30 10 6 22 5 29-1s6-13 5-17c4 9 7 23 11 37 5 8 13 18 18 28-1-2-3-4-4-5-7-5-17-7-23-8-6-2-15-4-26-10-9-5-14-9-14-9s5 9 8 16c4 8 13 29 21 39s19 18 32 15c12-3 15-11 14-19h0c3 10 5 23 6 37 5 10 11 20 16 31-5-8-13-12-24-16-10-3-23-8-39-24 0 0 6 19 9 27 3 9 6 19 12 30 7 11 16 20 29 20 12 0 17-7 18-14v-3h0c1 6 2 15 2 22v16c0 2 4 6 6 8s11 7 11 7c0-1 2-4 6-9 4-6 4-10 4-12-1-2-3-7-7-17-5-10-8-19-8-19h0c1 3 4 6 6 7 3 3 6 3 10 3s8-2 10-3c8-5 13-15 13-32s-5-32-8-43c-3-10-9-25-9-25s1 6-2 19c-2 7-4 12-8 18-3 6-8 12-11 17-5 7-6 13-6 18-2-12-2-24-4-34l-19-34 1 1c3 4 9 9 18 7 8-3 14-9 17-18 2-10 1-24-2-35-4-12-10-25-14-33-3-8-8-17-8-17s1 8 0 15-4 20-9 29-10 18-10 28v3c-3-12-5-25-8-34-4-7-15-19-23-32l2 2c5 5 13 7 20 3 7-3 11-9 12-16 2-6 2-12-1-23-2-11-8-22-12-30-5-8-19-30-20-31 1 1 2 11 2 16s0 13-3 23c-3 9-7 17-9 23-1 6-1 10 0 14-4-9-7-22-11-32-7-8-20-20-27-29 1 1 3 2 4 3 2 1 4 2 7 2 4 1 7 0 11-2 9-7 12-16 10-30-1-7-5-16-9-24-5-9-10-16-14-21-8-9-12-15-19-23 0 0 4 13 4 26 0 14-3 20-6 32-1 7-1 12 0 17 0 1 1 2 1 2-5-9-10-20-15-30-9-9-22-18-30-26h1c6 4 14 5 20 0 9-7 11-17 8-30-2-8-9-20-17-29-5-6-10-12-13-15l-20-20s4 8 7 23c1 9 1 16 0 22-1 5-2 9-2 15-1 7 1 13 3 17h0c-7-10-13-21-19-29-6-4-22-14-32-22 1 1 3 2 4 2 2 1 5 1 8 1 4-1 8-3 10-7 4-4 6-8 6-16s-5-19-12-28c-8-10-20-20-27-26l-21-16s4 6 9 21c3 9 3 18 3 27-1 6-1 12 0 18 1 3 2 6 4 9-8-9-17-21-21-26l-35-18c5 2 11 2 17-1 4-3 8-10 9-17 1-18-18-36-34-47-13-9-34-21-34-21-16-10-48-27-61-33 2 6 5 13 8 21 22 11 44 24 67 38 0 2 1 4 1 7 1 1 1 3 1 5-17-11-37-23-65-38l6 21c24 13 45 26 61 37h0c1 1 1 3 1 4 1 4 3 7 5 10-20-14-41-27-63-39l3 10-11 3c21 12 42 25 63 39h0c-2-1-4-1-6-1-3 0-7 0-10 1h0c-19-13-39-25-58-36l-21 7c22 11 42 23 61 35-4 1-7 3-11 3h0z" class="I K"/><path d="M1363 289c6-1 14 3 12 8-2 4-7 6-15 4-7-1-19-2-19-2s9 5 16 8c7 2 18 7 26 3 8-3 7-11 6-14-3-6-10-9-15-9s-11 2-11 2zm36-54c5 8 10 16 5 21s-12-5-12-8c0 3 0 6 1 10 1 3 3 7 7 9 10 6 20 2 20-8 0-7-7-16-13-22-5-6-16-14-16-14s4 7 8 12zm13 58l15 18 21 11c-6-6-11-13-15-18-6-3-13-7-21-11zm32 61c-4 4-10 3-19 0-8-2-13-3-14-3 3 2 9 6 15 9 5 4 12 6 16 7 3 1 7 1 11-1 3-1 6-5 6-8 0-4-1-8-5-11-3-3-7-4-11-4s-9 1-9 1 3 0 6 1c2 1 4 3 5 4 1 2 0 4-1 5zm24-37c1 6 6 11 12 13 6 1 12-2 14-8 1-6-4-16-10-24-5-7-10-13-15-17 1 1 7 15 10 21 3 7 2 12-1 14s-5 0-8-3c-2-2-3-5-3-7 0 1-1 5 1 11zm14 37l13 19 19 13-12-19zm66 28c-4 4-7 3-10-1-2-3-3-8-3-8-1 7-1 13 2 18 4 5 8 8 13 8s10-4 10-12-5-18-9-25c-5-7-10-13-10-13l5 16c1 2 5 13 2 17zm-42 36c-3 3-8 2-17-2-4-2-14-5-14-5 3 4 16 14 27 19 10 4 15-1 17-2 2-2 5-10-1-16s-11-6-14-6h-6c3 1 5 2 8 4s4 6 0 8zm39 4c4 7 7 14 10 21l18 15c-4-8-8-16-10-21l-18-15zm74 39c0-9-5-18-7-24-3-6-8-13-9-14 1 1 4 19 5 24s0 10-4 12c-4 1-6-3-8-6-1-4 0-6 0-6s-1 2-2 7c-1 4 0 9 2 13 3 4 7 7 12 7s11-3 11-13zm-57 27c-4 4-10 1-16-2-5-3-15-8-15-9 3 6 13 15 18 18 4 4 12 9 19 7 8-2 9-9 8-13s-4-8-9-11c-6-2-12-2-12-2s3 1 5 3 6 6 2 9zm37 9c3 7 6 14 8 21l16 18-8-22c-5-5-10-11-16-17zm59 22c1 7 2 13 0 18-2 4-7 4-9 2-2-3-3-8-2-12-1 1-4 7-4 13 0 5 3 12 8 15s12 2 15-4c3-5 2-13 1-20s-7-21-10-26c0 0 1 7 1 14zm-14 58l6 23 13 19c-2-8-3-16-5-23-4-6-9-12-14-19zm-36-22c3 3 5 7 0 10-5 2-11-2-15-5-5-3-14-10-14-10 3 5 10 15 15 19 5 5 11 10 17 10 7 0 11-5 11-11s-4-12-10-14c-5-2-9-2-9-2s2 0 5 3zm51 92c-1-6-5-10-9-12s-9-3-9-3 3 2 5 4c1 1 5 6 1 9-5 3-11-1-15-4-3-3-14-12-14-13 3 7 10 20 17 26 7 7 13 8 18 6 4-2 7-7 6-13zm47-37c-2-11-5-18-5-18s0 24-2 30c-2 5-8 7-11 2-2-6 0-11 0-11s-5 7-5 14c0 8 5 14 10 16s11-1 13-7 3-14 0-26zm-26 53l3 23 11 20-2-23zm53 68c6-6 5-22 5-29-1-7-3-18-3-18s-2 15-4 23c-1 7-4 12-10 10-5-1-3-12-2-14 0 0-4 5-6 10-1 5 0 12 3 16s10 8 17 2zm-57-8c2 3 1 6-2 8-3 1-8-1-11-4-3-4-15-17-15-17s2 7 5 14c5 9 9 16 16 20 6 4 13 2 16-4 3-5 1-13-3-17s-11-6-11-6c2 2 4 3 5 6zm99 197c3 5 3 9 4 11h0s0-2 1-4 3-3 5-4c1-1 2-3 2-6-1-2-3-6-7-10-3-4-9-7-15-8h-6s0-6-2-11c-1-5-3-10-9-15-6-6-14-9-23-9s-17 4-23 10c-7 5-10 12-11 18-1 5 0 9 0 9-5 0-12 2-18 7-7 5-9 11-9 11 0 2 0 2 2 4 1 2 2 2 4 4 2 1 2 3 2 3h0c0-2 2-7 6-11s9-4 12-4 8 0 11 3c4 3 4 7 4 9 0 4-1 6-3 8-2 3-5 4-5 4v-1c0-1 1-4 0-6s-4-4-7-4c-4 0-8 3-8 8 0 6 4 9 9 11 4 1 12 2 19-3 8-5 9-13 9-16 0-4-1-10-5-16-5-6-12-9-12-9 5-3 10-3 15-1-1-7 2-15 7-19 6 3 9 11 9 18 6-3 11-2 15 1-5 2-16 9-16 25 0 6 1 9 3 13 4 5 11 9 19 9 11 0 15-6 15-12s-4-9-8-9-8 2-8 7c0 2 1 4 1 4h0s-9-2-9-12 9-14 16-14c6 0 11 3 14 7zm-22 229c4-1 5-3 6-6 0 0 0-4-2-10-3-5-7-9-10-11s-7-3-10-4c0 0 2-5 2-10 0-6-2-13-7-20s-11-10-17-12-15-2-21 0c-6 3-12 6-17 12s-6 12-6 15c0 0-3-1-8-1s-11 1-16 4c-4 3-7 6-7 6v2c0 2 1 3 2 5l3 3v3 1s1-2 3-5c2-2 5-5 9-6s9-1 13 1c5 3 9 7 9 12s-4 9-7 11c-3 1-5 1-5 1h0s2-2 2-5-3-6-6-7-6 0-8 2-3 6-2 9c1 4 4 7 9 9 4 2 9 3 14 2 4-1 10-4 13-9s3-10 3-13 0-6-2-11c-3-5-6-7-9-10 5-2 10-1 15 3 1-7 5-14 12-16 5 6 6 13 4 19 7-1 11 2 14 5 0 0-7 1-14 7-7 5-8 12-9 14 0 2-1 7 1 12 1 4 4 9 10 12 5 3 11 4 15 3 4-2 6-4 8-8 1-5-1-9-4-11-3-1-6-1-8 1s-4 4-3 8h0s-6-4-6-11 6-13 15-13c4 0 8 2 10 4 2 1 4 3 4 4 2 3 4 8 3 14h0s1-3 5-5zm-87 209c4 0 6-1 8-4 0 0 0-4-1-10-1-7-3-11-6-14s-5-5-8-6c0 0 2-4 4-9 1-6 2-13-1-21s-8-13-14-17c-5-3-14-5-20-5-7 1-13 3-19 7-7 5-9 10-10 13 0 0-3-2-8-3-4-2-10-2-16 0-5 2-8 4-8 4l-1 1c-1 2 0 4 1 6 1 1 1 2 1 4 1 2 0 2 0 3h0s1-2 4-3c2-2 5-4 10-4 4 0 9 1 13 5 4 3 6 9 4 13-1 5-5 8-8 9h-6v-1s3-1 3-4c1-3-1-6-3-8-3-2-7-2-9 0s-4 5-4 8c0 4 2 8 6 11s8 5 13 5c5 1 11-1 15-5 4-3 6-9 7-11 0-3 1-7 0-12s-3-8-6-11c5-1 10 1 14 6 3-7 9-12 16-12 3 7 2 14-2 20 8 1 11 4 13 8 0 0-7-1-15 2-8 4-12 11-13 12-1 2-2 7-2 12 0 4 2 10 6 14 5 5 10 7 14 6 4 0 8-1 10-5 3-4 2-9-1-11-2-2-6-3-8-2-3 1-4 4-5 7h0s-4-4-3-11c2-7 10-12 18-10 4 2 7 4 9 7 2 2 2 4 3 5 1 3 1 8-1 14h0s1-3 6-3z" class="J I"/><path d="M1753 935c0-5 4-7 8-7s8 3 8 9-4 12-15 12c-8 0-15-4-19-9-2-4-3-7-3-13 0-16 11-23 16-25-4-3-9-4-15-1 0-7-3-15-9-18-5 4-8 12-7 19-5-2-10-2-15 1 0 0 7 3 12 9 4 6 5 12 5 16 0 3-1 11-9 16-7 5-15 4-19 3-5-2-9-5-9-11 0-5 4-8 8-8 3 0 6 2 7 4s0 5 0 6v1s3-1 5-4c2-2 3-4 3-8 0-2 0-6-4-9-3-3-8-3-11-3s-8 0-12 4-6 9-6 11h0s0-2-2-3c-2-2-3-2-4-4-2-2-2-2-2-4 0 0-2 3-2 6-1 3-1 8 0 12 2 4 4 9 7 12s8 8 15 9c4 1 5 1 9 1 3 0 15 1 17 1s6 1 7 4c2 2 1 5 0 7 0 2-1 3-2 4-2 2-4 3-4 6-1 2-1 4-1 6 1 2 2 4 5 8 3 3 6 7 7 8 0 0 2-2 5-4 3-3 6-5 8-8s2-6 2-7c0-2-1-4-3-7-2-2-3-5-3-8s1-5 1-5c1-1 3-3 7-3s11 1 18 1 8 0 13-2c6-2 9-6 11-8s6-8 7-13 1-8 1-10c0-1-1-8-2-12 0 3-1 5-2 6-2 1-4 2-5 4s-1 4-1 4h0c-1-2-1-6-4-11-3-4-8-7-14-7-7 0-16 4-16 14s9 12 9 12h0s-1-2-1-4zm6 208c-1 3-2 5-6 6-4 2-5 5-5 5h0c1-6-1-11-3-14 0-1-2-3-4-4-2-2-6-4-10-4-9 0-15 6-15 13s6 11 6 11h0c-1-4 1-6 3-8s5-2 8-1c3 2 5 6 4 11-2 4-4 6-8 8-4 1-10 0-15-3-6-3-9-8-10-12-2-5-1-10-1-12 1-2 2-9 9-14 7-6 14-7 14-7-3-3-7-6-14-5 2-6 1-13-4-19-7 2-11 9-12 16-5-4-10-5-15-3 3 3 6 5 9 10 2 5 2 8 2 11s0 8-3 13-9 8-13 9c-5 1-10 0-14-2-5-2-8-5-9-9-1-3 0-7 2-9s5-3 8-2 6 4 6 7-2 5-2 5h0s2 0 5-1c3-2 7-6 7-11s-4-9-9-12c-4-2-9-2-13-1s-7 4-9 6c-2 3-3 5-3 5v-1-3l-3-3c-1-2-2-3-2-5v-2s-6 7-6 17c0 11 6 18 9 22 3 3 6 5 11 7 4 1 14 4 17 5s9 3 9 8c0 4-2 6-4 8-1 1-4 2-5 3-3 2-4 5-4 8s1 7 3 11c3 5 4 8 4 8 4-2 10-4 14-7 4-2 5-5 6-8 0-2-1-5-2-7-1-3-1-4-1-7 1-4 2-6 5-7s5 0 7 1c3 1 15 4 18 5 4 2 9 2 14 1s8-3 13-7c4-3 7-9 9-12 1-4 2-8 2-12 1-3 0-6 0-6zm-168 184c3-1 7-4 8-9 2-4 0-10-4-13-4-4-9-5-13-5-5 0-8 2-10 4-3 1-4 3-4 3h0c0-1 1-1 0-3 0-2 0-3-1-4-1-2-2-4-1-6l1-1s-8 5-11 15 1 19 3 23c2 3 5 7 9 9 3 3 12 8 15 10s8 5 7 10c-1 3-3 5-6 7-2 1-4 1-6 1-3 2-5 4-6 7s0 7 1 12 1 8 1 8c4-1 11-1 15-3 5-1 7-4 8-6 1-3 1-5 0-8 0-3 0-4 1-7 2-3 4-5 7-5 2 0 4 1 7 3 2 1 12 8 15 10 4 2 8 4 13 4s9-1 14-3c6-3 10-7 13-10 2-3 4-7 5-10 1-4 2-6 2-6-2 3-4 4-8 4-5 0-6 3-6 3h0c2-6 2-11 1-14-1-1-1-3-3-5-2-3-5-5-9-7-8-2-16 3-18 10-1 7 3 11 3 11h0c1-3 2-6 5-7 2-1 6 0 8 2 3 2 4 7 1 11-2 4-6 5-10 5-4 1-9-1-14-6-4-4-6-10-6-14 0-5 1-10 2-12 1-1 5-8 13-12 8-3 15-2 15-2-2-4-5-7-13-8 4-6 5-13 2-20-7 0-13 5-16 12-4-5-9-7-14-6 3 3 5 6 6 11s0 9 0 12c-1 2-3 8-7 11-4 4-10 6-15 5-5 0-9-2-13-5s-6-7-6-11c0-3 2-6 4-8s6-2 9 0c2 2 4 5 3 8 0 3-3 4-3 4v1h6z" class="L I"/><path d="M1521 1364l-5 4c2 0 8 1 13 5 7 5 11 12 12 16 2 4 4 12 2 18-2 7-8 10-14 10s-10-2-13-7c-2-3-2-7-1-11 0-1 1-2 2-3 2-4 6-5 7-5-2-2-4-3-7-3-4-1-7-1-11 0-3 1-7 3-9 6-2 2-3 4-4 7-1 6 0 12 0 12-2 1-5 3-8 6s-4 6-5 10c-2 5 0 7 0 8 0 0 3-2 8-4 4-2 9-3 13-4h8c5 0 11 1 17 4 7 2 11 5 13 7s6 6 10 12c3 6 5 11 6 15 0 5 1 12-1 20-2 7-6 13-6 13 3 1 11 0 17-7 6-5 7-10 8-12 0 0 5 1 11-2 6-2 9-7 11-11 3-4 4-10 2-16s-5-9-5-9c0 4-3 10-7 12-4 3-11 4-17-1-5-6-5-12-4-17 1-4 4-8 10-10s15-2 20-1 11 3 17 7c5 5 5 10 5 10 5-7 7-14 3-21 7 0 12-4 15-11-5-4-11-6-17-4 3-6 3-14-4-19 0 0 0 4-3 8-4 5-9 9-17 11-8 1-13 0-19 1-7 0-11 2-11 2 1-7-2-15-3-19-2-4-5-13-2-22 2-8 9-12 9-12-1-1-5-3-10-2-6 1-9 4-9 4-1-6-5-10-11-14 0 0-2 3-4 8-1 5 1 9 1 9-5-1-10-1-13 2z" class="I K"/><path d="M1522 1366v1h2c2 1 4 2 7 4 3 3 5 5 7 8 3 3 5 7 5 9 1 2 2 5 3 9 1 3 1 7 0 11s-4 6-6 8c-3 3-7 4-11 4-3 0-6-1-9-2l-6-6c-1-2-2-5-2-7-1-2-1-4 0-6 0-1 1-2 1-3s1-1 1-2c2-1 3-3 4-3-1-1-1-1-2-1h-5-4c-1 1-3 2-4 3-2 0-3 1-4 3-1 1-2 1-2 2-1 1-1 2-1 4-2 5 0 10 0 10v3h-2l-3 3c-2 1-3 2-4 3s-2 3-3 4c-1 2-1 3-2 5v3c1 0 3-1 5-2s4-2 7-3c2 0 4-1 7-1h4c2-1 3-1 4-1h0c3 1 6 1 10 2 2 0 5 1 8 2 4 2 6 3 8 5 3 1 4 2 6 3 1 1 2 3 4 5s4 4 6 7 3 6 4 9 2 5 2 8c1 3 1 6 1 10s-1 7-2 10c-1 5-3 8-4 11 1 0 2-1 4-1 2-1 5-3 8-5 4-5 6-9 6-11l1-3 2 1s5 0 10-2c2-1 4-2 6-4s3-4 4-6 2-5 2-7c1-3 1-5 0-7s-1-3-2-4c0 1-1 1-1 2-1 3-3 5-6 7-2 1-6 2-10 2-3 0-7-2-9-4-3-3-5-6-5-9-1-4-1-7 0-10 0-3 2-5 3-7 2-2 5-4 8-5s7-2 10-2h12 0c2 1 5 1 8 3 3 1 6 3 9 6 2 1 4 3 5 5 1-1 1-3 1-5 1-3 0-6-1-8l-3-4h5c3 0 5-1 7-3 2-1 3-3 5-5l-6-3h-7l-5 2 2-5c1-3 2-6 1-9 0-2-1-3-2-4 0 1-1 3-2 5-2 2-4 5-7 7s-7 3-11 4c-6 1-9 1-13 1h-7c-6 1-10 2-10 2l-4 2 1-4c0-4 0-7-1-10s-2-6-3-8h0c0-2-2-6-2-10-1-4-1-9 0-13 1-6 4-9 7-12h0-5c-4 1-7 4-7 4l-4 4v-6l-3-6c-2-1-3-3-5-4-1 1-2 2-2 4-1 4 0 8 0 8l3 5-6-2h-6c-2 0-3 1-5 2zm-8 2s1-3 5-6c2-2 5-3 7-3h4c0-2 0-4 1-7 1-5 5-8 5-9l1-1 2 1c3 2 6 4 8 7 1 1 2 3 3 5 1-1 4-2 6-3h7c3 1 5 2 5 3l4 2-4 2s-6 3-8 11c-1 4-1 8 0 11 0 4 1 7 2 9s2 5 3 9c0 2 1 5 1 7 2 0 4-1 8-1h7c3 0 7 0 12-1 3-1 6-2 9-4 2-1 4-3 5-5 3-4 4-8 4-8v-4l4 3c3 3 5 6 6 10 1 2 1 5 0 8h6c3 1 6 3 9 5l1 2-1 2c-2 3-4 6-7 8-2 2-4 3-6 3 1 3 1 6 0 9 0 4-2 8-4 11l-4 5-1-6s-1-4-5-8c-3-2-5-3-8-4-2-2-5-2-7-3h-10c-4 0-7 1-9 2-3 1-4 2-6 3-1 2-2 3-2 5-1 2-1 5 0 8 0 2 1 4 3 6s4 3 6 3c3 0 6-1 8-2 1-1 2-2 3-4s2-4 2-6v-5l4 3s5 3 7 10c1 3 1 6 1 9-1 3-2 7-3 9-2 3-3 5-6 8-2 2-4 3-7 5-4 1-8 2-10 2-1 2-3 6-8 11-3 3-7 6-10 7-4 1-8 1-10 0l-3-1 2-3s3-5 5-12c1-3 1-6 2-9 0-3-1-7-1-9s-1-5-2-7c-1-3-2-5-3-8-2-3-4-5-6-7l-4-4c-1-1-2-2-4-3s-5-3-8-4c-2-1-5-2-7-2-4-1-6-1-9-1h-4-4c-2 0-4 1-6 1-2 1-4 2-6 2-5 3-7 4-7 4l-3 2-1-3c-1-1-2-4-1-10h0c1-2 1-4 2-5 1-2 3-4 4-6 2-1 3-2 4-4 1 0 2-1 3-1 0-3 0-7 1-12 0-1 1-3 1-4 1-1 2-3 3-4s3-3 5-4l6-3h0c1 0 3 0 5-1 2 0 4 1 6 1s3 1 5 2c1 0 2 1 3 2l5 3-6 1s-1 1-2 1l-3 3c-1 1-1 1-1 2-1 0-1 1-1 1h0v4c0 2 1 3 1 5 2 2 3 3 5 4s4 2 6 2c3 0 6-1 8-3 2-1 3-3 4-6v-8c-1-3-2-6-2-8-1-2-3-5-5-8-1-2-4-5-6-6-2-2-4-3-6-4-3-1-4-1-5-1h-4l1-3z" class="I J"/><path d="M1703 1251c2 4 0 10-3 13-3 4-10 7-16 3-7-4-9-10-9-15 0-4 2-8 7-12s15-6 20-7c4 0 11 0 17 3 6 4 8 8 8 8 3-7 3-15-3-21 7-1 10-6 12-14-6-3-12-3-17 0 1-7-1-14-9-17 0 0 0 4-1 9-2 5-6 10-14 14-7 4-12 4-18 6s-10 5-10 5c-1-7-5-14-8-17-3-4-8-12-8-21s6-14 6-14c-1-1-5-2-10 0-5 3-8 7-8 7-2-5-7-9-13-11 0 0-2 4-2 9s3 8 3 8c-5 0-10 2-13 6-2 4-3 5-3 5 2-1 7-1 14 2 7 2 13 8 15 12 3 3 7 9 7 17 0 7-5 11-10 13-6 1-11 0-15-4-4-3-6-9-4-14 2-4 6-6 6-6-4-2-12-2-17 2-6 3-10 9-10 15 0 7 4 12 4 12-4 3-9 14-9 19s2 8 2 8 2-2 7-6c3-3 8-5 12-7 3-1 5-2 7-2 5-1 11-2 18-1 6 1 11 2 14 4 3 1 7 3 12 8s8 9 10 14c2 4 4 11 4 19 0 7-2 14-2 14 4 0 10-3 15-11 4-7 4-11 4-14 0 0 5-1 10-4 5-4 8-10 9-14 0-5 0-11-3-16-3-6-8-7-8-7z" class="I K"/><path d="M1706 1256v2c-1 3-2 6-4 8s-6 4-10 5c-3 1-6 0-10-2-3-2-5-4-7-7s-2-7-2-10c0-2 0-5 2-7 1-3 3-5 6-7 2-2 6-4 9-5 4-1 8-2 11-2 3-1 6-1 9 0 3 0 7 1 10 3 3 1 5 3 6 4v-5c0-3-1-5-4-8l-3-3 4-1c3-1 5-2 7-4l3-6c-2-1-4-2-6-2s-5 1-7 2l-4 3v-5c1-3 0-7-1-9s-2-3-3-4c0 2 0 4-1 6-1 3-3 5-5 8s-5 5-9 7c-5 3-9 4-13 5-2 0-4 1-6 2-6 2-9 4-9 4l-4 3v-5c-1-3-2-6-4-9-1-3-3-5-4-7h0c-1-2-3-5-5-9-2-3-3-8-3-13s2-9 3-12h0c-1 0-3 0-4 1-5 2-6 5-6 5l-3 5-2-5c-1-2-2-4-4-6-2-1-4-2-6-2 0 1-1 3-1 5 0 4 3 6 3 6l3 5h-5c-3 0-5 0-6 1-2 1-4 2-5 3v1h2c2 0 5 1 8 2s7 3 9 6c4 2 6 5 8 7v2c3 4 7 9 7 17 0 4-1 7-4 9-2 3-5 5-9 6-3 1-6 1-9 1-3-1-5-2-8-5-2-2-4-5-5-8 0-3 0-6 1-9 1-1 2-3 3-4h-3c-3 1-6 1-8 3-2 1-4 4-6 6-1 2-2 5-2 7 0 6 3 11 3 11l1 2-2 1c-1 2-3 5-5 8s-3 7-3 9 0 3 1 4l4-4h0c2-1 4-3 6-4s5-3 7-3c1-1 3-2 4-2 2 0 3-1 4-1 2 0 5-1 8-1h10c3 1 6 1 8 2 3 1 5 2 7 2v1c3 1 8 3 13 8 3 3 5 5 6 8 2 2 3 4 4 7 2 2 3 6 4 10 0 3 1 6 1 10s-1 8-1 11c1-1 2-1 3-2 2-2 4-4 6-7 3-6 4-10 4-12v-1-2h2s4-1 9-4c2-2 3-4 4-6 2-2 3-5 3-7h0c0-2 1-5 0-8 0-2-1-4-2-6l-3-3zm-5 1v-5l-2-6 5 2s5 2 9 8c2 3 3 6 3 8 1 4 1 7 0 10 0 3-1 6-3 9-2 2-4 5-6 7-4 2-7 4-9 4 0 3-1 7-5 13-2 4-5 7-7 9-4 3-8 4-10 3h-3l1-3s2-6 2-13c0-4-1-7-1-9-1-4-2-7-3-9s-2-4-4-7c-1-2-3-4-6-6-4-4-8-6-11-8h0c-2-1-4-2-6-2-3-1-5-1-8-2h-9c-2 0-5 1-7 1-1 0-2 1-3 1-2 0-3 1-4 1l-6 3c-2 1-4 3-6 4l-6 6-1 2-2-2s-4-4-4-10c0-3 1-7 3-11 2-3 4-6 5-8-1-3-2-7-2-12 0-3 1-7 3-10s4-6 7-8 7-3 10-3c4 0 8 0 10 1l6 3-5 2s-4 2-5 5c-1 2-1 4-1 6 1 2 2 4 4 6 1 1 3 2 5 3 2 0 4 0 7-1 2 0 5-2 6-4 2-2 3-4 3-6 0-6-4-11-6-15l-1-1c-1-2-3-4-6-6-2-2-5-4-8-5-2-1-5-1-6-2h-6l-5 2 2-5s0-2 3-6c2-2 4-3 6-5 2 0 3-1 4-1 0-2-1-4-1-6 0-6 2-10 2-10l1-2 2 1c4 1 7 2 10 4l4 4c1-1 3-3 6-4 2-1 4-1 6-1 3-1 5 0 6 0l4 2-3 3s-5 4-5 12c0 4 1 8 3 11 1 4 3 6 4 8 2 2 3 5 5 8 1 2 2 4 3 7 2-1 4-2 7-3 2-1 5-2 7-2 3-1 7-2 11-4s6-4 8-6 3-5 4-7c2-4 1-8 1-8v-5l4 2c4 2 7 5 8 8 2 3 2 5 2 8 2 0 4-1 6-1 4 0 7 1 10 3l2 1v2c-1 4-3 7-5 10-2 2-3 3-6 5 2 2 3 5 3 8 1 4 0 8-1 12l-2 6-3-6s-2-3-7-6c-3-2-6-3-9-3h-7c-3 0-7 1-10 2s-6 2-8 4-4 3-5 5-1 4-1 5c0 3 0 5 2 8 1 2 2 3 5 5 2 1 4 1 6 1 3-1 6-2 7-4 1-1 2-3 3-5z" class="I J"/><path d="M1763 1043c0 2 0 6-5 10-4 4-11 5-16 2s-8-8-8-14 5-12 10-15c4-4 12-9 23-9 10 0 15 6 15 6 1-8-1-15-8-19 6-3 8-9 8-17-6-1-12-1-17 5-1-8-6-14-13-15 0 0 2 7 0 14-4 11-11 16-20 20-7 5-12 10-12 10-1-1-2-3-4-6l-9-9c-6-4-9-9-11-13s-2-7-2-9c0-5 1-8 2-10-6-1-13 4-15 11-3-4-8-6-16-6-1 7 1 12 5 16-7 2-11 7-12 14 3-1 8-2 11-2 5 0 14 1 21 8 5 4 9 8 10 12 1 2 2 4 2 6s-1 5-3 8c-3 3-7 6-13 6-4 0-8-2-10-4-3-3-4-6-4-9 0-4 3-8 4-9-3-1-9 0-13 3-5 4-9 10-9 16 0 3 1 6 2 8 2 4 4 6 5 7-2 3-4 9-4 15 0 7 2 11 5 13 2-4 6-12 16-19s24-10 36-8c13 2 21 9 25 13s9 11 11 19c3 8 2 15 2 15 6-1 11-9 12-17 1-5 1-10 0-12 0 0 2-1 7-5 4-4 6-10 6-16 0-5-1-12-6-16-5-5-10-5-10-5 2 2 2 5 2 7z" class="I K"/><path d="M1766 1043c0 1-1 3-1 5-1 2-2 5-5 7-2 3-6 4-9 5-3 0-7-1-10-3-3-1-5-4-7-7-1-2-2-6-3-9 0-3 1-7 3-9 2-4 5-7 8-9h1c5-3 13-8 24-8 5 0 10 1 13 3 0-2-1-4-1-5-2-3-4-5-6-7l-4-2 4-2c2-2 4-4 5-6s1-4 1-7h-5c-2 1-5 2-7 4l-4 4-1-5c0-4-1-7-3-9-1-1-2-2-4-2 1 3 1 7-1 11-2 6-5 10-8 14-4 3-8 5-13 8-7 4-11 9-11 9l-3 3-2-4s0-1-1-2c0-1-1-2-2-3s-2-2-3-4c-2-1-4-3-6-5-3-2-5-4-7-7-2-2-4-5-5-7s-1-4-1-6c-1-2-1-3-1-4 0-2 0-4 1-6v-1c-1 0-2 1-4 2s-4 4-4 7l-2 4-3-3c-1-2-3-3-6-4-1-1-3-1-6-2 0 2 0 4 1 6s2 4 4 6l4 3-5 1c-3 1-5 3-7 5-1 1-1 2-2 3h0c3-1 5-1 7-1 3 0 8 1 12 2 4 2 8 4 11 7 3 2 5 4 7 6 1 2 3 4 4 6 0 2 1 3 1 4v4c0 1 0 3-1 5 0 1-1 3-2 4h0c-2 2-4 4-7 6-2 1-5 2-8 2-2 0-4-1-6-2-3-1-4-2-6-4-2-1-3-3-3-4-1-2-1-4-1-6s0-4 1-6h0-1c-2 0-4 1-6 3-2 1-4 3-5 6-1 2-2 5-2 7h0v4c1 1 1 2 1 3h1c0 2 1 3 2 4s2 2 2 3l2 1-2 2c-1 1-2 3-3 6 0 2-1 5-1 7 0 3 1 5 1 7 1 1 1 1 1 2 1-2 3-4 4-6 3-4 6-7 12-11 5-4 11-6 18-8 6-1 13-2 20-1s12 4 16 6c5 3 8 6 10 8s5 6 7 10c2 3 4 6 5 10 1 5 2 9 2 12l3-3c2-3 3-7 4-10v-6-5l-1-2 2-1s2-1 6-5c2-1 3-3 4-6 1-2 2-5 2-8 0-2-1-5-2-8-1-2-2-5-4-6-1-2-3-3-4-3 0 1 1 2 1 3h0zm-6 4v-4-3c0-1-1-2-1-3l-3-4h5s6 1 12 6c2 2 4 5 5 8s2 7 2 10c0 4-1 7-2 10s-3 6-6 8c-2 2-4 3-5 4 0 2 1 3 1 5s-1 4-1 7c-1 4-3 9-5 12-3 3-6 6-9 6l-4 1 1-4s0-5-2-13c-1-4-3-7-4-10-2-3-5-6-7-8s-4-5-8-7-9-5-15-6-12 0-18 1-12 4-16 7c-5 4-8 7-11 10-2 3-3 6-4 8l-2 3-2-2c-2-1-4-3-5-6-1-2-2-5-2-9 0-3 1-6 1-8 1-3 2-5 3-6 0-1-1-1-1-2-1-1-2-3-3-5-1-1-1-2-2-4v-5c0-3 1-6 2-9 2-4 4-7 7-9 2-1 5-2 8-3s6-1 8-1l5 1-4 4c-1 0-2 1-2 3-1 1-1 3-1 4s0 2 1 4c0 1 1 2 2 3s2 2 4 3c1 0 3 1 4 1 2 0 4-1 6-2s4-2 5-4c1-1 1-2 1-3 1-1 1-2 1-3v-3c0-1-1-2-1-2h0c-1-2-2-4-3-5l-6-6c-3-3-6-5-9-6-4-1-8-2-11-2-2 0-4 1-6 1-1 0-2 1-3 1l-4 3v-5c0-4 2-8 4-11 2-2 3-3 6-4-2-2-3-4-3-5-1-4-1-7 0-11v-2h2c4 0 7 1 10 2 2 1 4 2 5 3 1-3 3-5 5-6 4-3 7-4 11-4h5l-3 4c0 1-1 2-1 4-1 1-1 3-1 4v1c0 1 0 2 1 3 0 2 0 3 1 5s2 4 4 6l6 6c3 2 5 4 6 6 2 1 3 3 4 4s2 2 2 3c3-2 6-5 11-8 4-2 8-4 11-7s6-7 8-11c2-7-1-13-1-13l-1-4h4c4 1 8 3 11 6 1 2 3 4 4 7l6-3h9l2 1v2c1 4 0 8-1 11-1 2-3 4-5 6 3 2 4 4 5 6 2 4 3 9 2 13l-1 6-3-4s-5-5-14-5c-10 0-17 4-21 7l-1 1c-2 1-5 4-6 6-2 2-2 5-2 7s1 5 2 7 3 4 5 5 4 2 6 1c3 0 5-1 7-2 2-2 2-4 3-5z" class="I J"/><path d="M1654 815c3-3 9-7 18-7 8 0 16 4 21 7 6 4 9 9 9 14s-3 10-6 13c-4 2-10 4-15 1s-7-7-7-11 1-7 1-7-7 1-11 6-7 12-4 19c2 8 10 12 10 12s-3 8 0 17c2 9 8 10 8 10 2-10 7-20 15-27 8-8 19-12 24-13s16-2 27 3c12 5 19 16 22 20 2 5 4 12 4 12 5-2 8-10 8-17-1-8-2-12-4-14 4-3 6-8 7-12 1-3 2-9-1-15s-7-10-12-12c-4-1-7-1-8-1 2 2 4 6 4 11 0 4-1 7-4 10-2 2-10 5-16 2-6-4-9-9-9-15 0-5 3-10 3-10 6-9 14-15 25-18 6-1 11 0 14 2-1-8-5-14-13-16 4-5 6-11 3-18-7 0-12 3-15 8 0 0-2-5-7-8s-9-2-9-2c3 4 5 13 2 21-2 7-5 11-12 17-7 7-9 13-9 13-3-2-6-5-9-7-5-3-10-4-14-7-3-2-5-4-7-6-8-9-6-18-6-20-5 1-11 8-11 15-4-3-10-4-18-2 1 7 4 12 10 14-6 3-7 8-8 12v6z" class="I K"/><path d="M1656 810c2-1 3-2 5-2 3-2 7-2 11-2s8 1 11 2c5 1 9 3 12 5s5 5 7 7c2 3 3 6 3 9s-1 6-2 8c-2 3-4 5-6 7-2 1-5 3-8 3s-6 0-9-2c-3-1-5-3-7-5-1-3-2-6-2-8v-3s-1 0-1 1c-2 0-3 2-4 3-2 2-4 5-4 8-1 3-1 6 0 9 2 6 9 10 9 10l2 1-1 2s-2 7 0 15c1 4 3 6 4 7 1-4 3-8 5-12 3-5 6-9 10-13s8-6 12-8c5-3 10-4 13-5h0c3-1 7-1 12-1s11 1 17 4c5 2 9 5 13 8 5 5 8 10 10 13s3 6 4 9c0-1 1-2 1-3 2-3 2-7 2-10 0-4 0-6-1-8s-1-4-2-5l-1-2 2-1c1-1 2-3 3-5 2-2 2-4 3-5 0-2 1-4 1-6-1-2-1-5-2-8-1-2-3-5-5-6-1-2-3-4-6-4 0-1-1-1-2-1l1 1c0 2 1 4 1 7 0 2-1 4-1 6-1 2-3 4-4 5-2 2-5 4-9 5-4 0-7 0-10-2-4-2-6-5-8-7-2-3-3-6-3-10 0-6 4-11 4-11 3-5 7-9 11-12 4-4 9-6 15-7h0c4-1 7-1 9-1 1 1 2 1 3 1-1-2-2-4-3-5-2-2-4-4-7-4l-5-1 3-4c2-2 3-4 4-6 0-3 0-5-1-8-2 1-4 1-5 2-2 2-4 3-6 6l-2 4c-1-1-2-3-2-5-1-1-2-5-6-7-2-1-3-1-4-2 1 3 2 5 2 8 1 4 0 8-1 12-2 4-3 6-5 9s-5 6-8 9c-7 6-9 12-9 12l-2 4-2-3-4-4c-1-1-3-2-4-3-2-1-5-2-7-3s-5-2-7-4c-2-1-3-2-4-3-2-1-3-2-4-3-5-5-6-10-7-14v-4l-3 3c-2 2-3 5-3 8v5l-4-3c-2-1-4-2-6-2h-7c1 2 1 4 2 6 1 1 3 3 6 4l4 2-4 3c-2 1-3 2-4 3-2 2-2 4-2 6l-1 1zm7 2c-3 1-6 3-7 4l-3 4-1-5s-1-3-1-7c1-2 2-5 3-7l3-3c-2-2-3-3-4-5-2-2-3-6-3-10v-2h2c4-1 8-1 11-1 1 0 3 1 5 1 0-2 1-5 3-7 3-3 6-6 10-6l4-1-1 4c-1 1-1 3-1 6 1 4 2 7 6 11h0l3 3 3 3c3 1 5 2 8 3 2 1 4 3 6 4h0c2 1 4 2 5 3l2 2c1-3 4-7 8-11 3-3 6-5 8-8 1-2 3-5 4-8s1-7 1-10c-1-3-2-7-3-9l-3-3 4-1s5-1 11 3c3 1 5 4 7 6 1-2 2-3 4-4 3-2 6-3 10-3h2l1 2c1 4 1 8 1 12-1 2-1 4-3 6 3 1 5 3 7 5 2 3 4 7 5 12l1 5-5-3c-1-1-3-1-5-1-3-1-5-1-8 0-5 1-9 3-13 6s-7 7-10 11c0 0-3 4-3 8 0 3 1 5 3 7 1 2 3 4 5 5 2 2 5 2 7 2 3-1 5-2 6-3s2-3 3-4c0-1 1-3 1-4 0-2-1-4-1-5-1-2-2-3-3-4l-5-4h7c1-1 4-1 9 1h0c3 1 6 3 8 5s4 5 5 8c2 4 3 7 3 10s-1 5-1 7c-1 2-2 5-3 7s-2 3-3 4c0 1 1 3 1 4 1 3 1 6 1 10 1 4 0 8-2 12-1 3-4 6-7 7l-2 1-1-3s-2-6-4-10c-2-3-5-8-10-12-3-3-7-5-11-7-5-3-11-4-15-4s-8 0-11 1-7 2-12 4c-3 2-7 4-10 7-4 4-7 8-9 12-3 5-4 9-5 14l-1 3-2-1s-8-1-11-12c-2-7-1-13 0-16-3-2-8-6-10-12-1-4-1-7 0-11s2-7 5-10c1-2 3-4 5-5 4-2 8-3 8-3h6l-3 4c-1 0-1 1-1 2-1 1-1 2-1 4 0 1 1 3 2 5 0 1 2 2 4 4 2 1 4 1 6 1 2-1 5-1 6-2 2-2 3-3 4-6 1-1 2-3 2-5s-1-4-2-6l-6-6c-3-1-6-3-10-4-3-1-7-2-10-2-4 0-7 1-9 1z" class="I J"/><path d="M521 287c20-12 41-24 61-34l19 7c-17 9-35 18-52 28-3 2-18 11-26 16-18 12-33 19-48 17-10-1-15-6-19-11-3-6-3-12-1-16 1-2 2-3 3-4-10 9-17 18-26 28-10 6-20 11-29 17 2-1 4-2 5-2 7-2 14 0 20 1 9 2 16 5 28 5 10 0 21-3 21-3l-21 17c-4 3-12 10-21 15-7 4-15 8-22 9-14 2-23-5-27-11-3-5-3-12 2-18-9 10-15 21-23 31-9 8-20 14-27 20h1c7-4 13-5 25-3s17 2 28 1c12-2 20-5 20-5l-16 16c-9 9-19 18-23 21-5 4-16 12-29 12s-18-8-20-11-3-9-1-14c1-1 1-1 1-2-7 11-13 24-18 34-8 8-17 14-25 23 3-3 8-5 13-6 13-2 22 2 38-2 15-4 21-8 21-8-9 11-13 18-22 29-6 7-11 12-14 15-11 9-17 12-28 13-8 1-18-5-21-13-1-4 0-8 1-11h0c-5 8-10 21-15 35-7 9-13 14-22 26 1-1 2-2 3-2 6-5 12-6 23-8 10-1 18-1 29-6 12-5 16-8 16-8s-12 18-19 30c-7 11-17 23-27 30-10 6-22 5-30-1-6-6-6-13-5-17-4 9-6 23-10 37-5 8-13 18-19 28 2-2 3-4 5-5 7-5 17-7 23-8 6-2 15-4 26-10 9-5 13-9 13-9l-7 16c-4 8-13 29-21 39-9 10-19 18-32 15-12-3-15-11-15-19h0c-2 10-4 23-6 37-4 10-11 20-15 31 5-8 13-12 23-16 11-3 24-8 40-24 0 0-6 19-9 27-3 9-6 19-13 30-6 11-16 20-28 20s-17-7-18-14c-1-1-1-2-1-3h0c-1 6-1 15-1 22v16c0 2-4 6-7 8-2 2-10 7-10 7 0-1-3-4-6-9-4-6-4-10-4-12 1-2 3-7 7-17 5-10 8-19 8-19h0c-1 3-4 6-6 7-3 3-7 3-10 3-4 0-8-2-10-3-9-5-14-15-14-32s5-32 9-43c3-10 8-25 8-25s0 6 3 19c2 7 4 12 7 18 4 6 8 12 12 17 4 7 6 13 6 18 2-12 2-24 4-34 5-11 13-23 19-34-1 0-1 1-1 1-3 4-9 9-18 7-9-3-15-9-17-18-3-10-1-24 2-35 4-12 10-25 13-33 4-8 9-17 9-17s-1 8 0 15 3 20 8 29c6 9 11 18 11 28v3c3-12 5-25 7-34 5-7 15-19 23-32 0 1-1 2-2 2-5 5-12 7-19 3-7-3-11-9-13-16-1-6-1-12 1-23 3-11 8-22 13-30l19-31c0 1-2 11-1 16 0 5 0 13 3 23 3 9 7 17 8 23s2 10 1 14c4-9 7-22 11-32 6-8 19-20 26-29l-3 3c-2 1-4 2-7 2-4 1-8 0-11-2-10-7-13-16-10-30 1-7 4-16 9-24 5-9 10-16 14-21 7-9 11-15 19-23-1 0-5 13-5 26 0 14 3 20 6 32 2 7 2 12 1 17-1 1-1 2-1 2 5-9 9-20 15-30 9-9 22-18 30-26h-1c-7 4-14 5-21 0-9-7-10-17-7-30 2-8 9-20 16-29 5-6 11-12 14-15l20-20s-4 8-7 23c-2 9-1 16 0 22 0 5 1 9 2 15 1 7-1 13-3 17h0c7-10 13-21 19-29 5-4 22-14 32-22-1 1-3 2-4 2-2 1-5 1-8 1-4-1-8-3-11-7s-5-8-5-16 5-19 12-28c8-10 19-20 27-26l21-16s-5 6-9 21c-3 9-3 18-3 27 0 6 1 12-1 18 0 3-2 6-3 9 8-9 17-21 21-26 9-5 27-14 35-18-6 2-12 2-17-1s-8-10-9-17c-1-18 18-36 33-47 14-9 35-21 35-21 15-10 48-27 61-33-3 6-5 13-8 21-22 11-45 24-67 38-1 2-1 4-2 7 0 1 0 3-1 5 18-11 38-23 66-38l-7 21c-23 13-45 26-61 37h0c0 1 0 3-1 4-1 4-2 7-5 10 21-14 42-27 64-39l-3 10 10 3c-21 12-41 25-62 39h0c2-1 4-1 6-1 3 0 6 0 10 1h0c19-13 39-25 58-36l20 7c-21 11-42 23-60 35 3 1 7 3 11 3h0z" class="I K"/><path d="M490 289c-5-1-13 3-11 8 2 4 6 6 14 4 7-1 20-2 20-2s-9 5-16 8c-7 2-18 7-26 3-8-3-7-11-6-14 2-6 10-9 15-9s10 2 10 2zm-35-54c-5 8-10 16-5 21s12-5 12-8c0 3 0 6-1 10-2 3-4 7-8 9-9 6-19 2-19-8 0-7 7-16 13-22 5-6 16-14 16-14s-5 7-8 12zm-13 58l-15 18-21 11c5-6 10-13 15-18 5-3 13-7 21-11zm-32 61c4 4 9 3 18 0l14-3c-2 2-8 6-14 9-6 4-12 6-16 7-3 1-8 1-11-1-4-1-6-5-6-8 0-4 1-8 4-11 4-3 8-4 12-4s8 1 8 1-2 0-6 1c-2 1-4 3-4 4-1 2-1 4 1 5zm-24-37c-1 6-7 11-13 13-5 1-12-2-13-8s3-16 9-24c6-7 11-13 15-17 0 1-7 15-9 21-3 7-3 12 1 14 3 2 5 0 7-3 3-2 3-5 4-7 0 1 0 5-1 11zm-14 37l-13 19-19 13 12-19zm-66 28c3 4 7 3 9-1 3-3 3-8 3-8 2 7 2 13-2 18-3 5-7 8-12 8s-11-4-11-12 6-18 10-25 10-13 10-13l-5 16c-1 2-5 13-2 17zm42 36c3 3 7 2 16-2 5-2 15-5 15-5-3 4-16 14-27 19-11 4-16-1-17-2-2-2-5-10 1-16 5-6 11-6 14-6h5c-2 1-5 2-7 4-3 2-4 6 0 8zm-39 4c-4 7-7 14-11 21l-17 15c4-8 8-16 10-21 6-6 12-11 18-15zm-74 39c0-9 4-18 7-24s8-13 8-14c0 1-4 19-4 24-1 5-1 10 4 12 4 1 6-3 8-6 1-4 0-6 0-6s1 2 2 7c1 4 0 9-3 13-2 4-6 7-11 7-6 0-11-3-11-13zm57 27c4 4 10 1 15-2 6-3 15-8 16-9-4 6-14 15-18 18-4 4-12 9-19 7-8-2-9-9-8-13s4-8 9-11c5-2 12-2 12-2s-3 1-6 3c-2 2-6 6-1 9zm-37 9c-3 7-6 14-8 21l-16 18 8-22c4-5 10-11 16-17zm-60 22c0 7-1 13 1 18 2 4 7 4 9 2 2-3 3-8 2-12 1 1 4 7 4 13 0 5-4 12-9 15s-11 2-14-4c-3-5-2-13-1-20s7-21 10-26l-2 14zm14 58c-2 8-3 16-5 23l-13 19c1-8 3-16 5-23l13-19zm37-22c-3 3-5 7 0 10 5 2 11-2 15-5 5-3 14-10 14-10-3 5-10 15-15 19-5 5-11 10-18 10-6 0-10-5-10-11s4-12 9-14c6-2 10-2 10-2s-3 0-5 3zm-51 92c1-6 5-10 9-12s8-3 8-3l-4 4c-2 1-5 6-1 9 5 3 10-1 14-4s14-12 15-13c-3 7-11 20-18 26-6 7-13 8-17 6-5-2-7-7-6-13zm-48-37c3-11 6-18 6-18s0 24 2 30c2 5 8 7 10 2 3-6 1-11 1-11s5 7 5 14c0 8-5 14-10 16s-11-1-13-7-3-14-1-26zm27 53l-3 23-11 20 2-23zm-53 68c-6-6-6-22-5-29 0-7 3-18 3-18s2 15 4 23c1 7 4 12 9 10 6-1 4-12 3-14 0 0 4 5 5 10 2 5 1 12-2 16s-10 8-17 2zm57-8c-2 3-1 6 2 8 3 1 7-1 11-4 3-4 15-17 15-17s-2 7-6 14c-5 9-8 16-15 20s-14 2-16-4c-3-5-1-13 3-17s11-6 11-6c-2 2-4 3-5 6zM79 920c-3 5-4 9-4 11h0s0-2-1-4c-2-2-4-3-5-4s-2-3-2-6c1-2 3-6 7-10 3-4 9-7 14-8h7s-1-6 1-11 4-10 10-15c5-6 13-9 22-9 10 0 18 4 24 10 6 5 9 12 10 18 2 5 1 9 1 9 5 0 11 2 18 7s9 11 9 11c0 2 0 2-2 4-1 2-3 2-4 4-2 1-2 3-2 3h0c-1-2-2-7-6-11s-10-4-13-4-7 0-10 3c-4 3-5 7-5 9 0 4 2 6 4 8 2 3 5 4 5 4v-1c0-1-1-4 0-6s3-4 7-4 8 3 8 8c0 6-4 9-9 11-5 1-12 2-20-3-7-5-8-13-8-16 0-4 0-10 5-16 4-6 12-9 12-9-5-3-10-3-15-1 1-7-2-15-7-19-6 3-10 11-9 18-6-3-11-2-15 1 5 2 16 9 16 25 0 6-1 9-4 13-3 5-10 9-18 9-11 0-15-6-15-12s4-9 8-9c3 0 8 2 8 7 0 2-1 4-1 4h0s8-2 8-12-9-14-15-14-11 3-14 7zm22 229c-4-1-6-3-7-6 0 0 1-4 3-10 3-5 7-9 10-11s6-3 9-4c0 0-1-5-1-10 0-6 1-13 6-20s12-10 18-12 14-2 21 0c6 3 12 6 16 12 5 6 6 12 7 15 0 0 3-1 8-1 4 0 10 1 15 4s8 6 8 6v2c0 2-1 3-2 5-2 1-2 2-3 3-1 2 0 3 0 3l-1 1s0-2-2-5c-2-2-5-5-9-6s-9-1-14 1c-4 3-8 7-8 12s3 9 6 11c3 1 6 1 6 1h0s-2-2-2-5 2-6 6-7c3-1 6 0 8 2s3 6 2 9c-1 4-5 7-9 9s-9 3-14 2-10-4-13-9-4-10-3-13c0-3 0-6 2-11s6-7 9-10c-5-2-10-1-15 3-1-7-6-14-12-16-5 6-6 13-4 19-7-1-11 2-14 5 0 0 7 1 14 7 6 5 8 12 8 14 1 2 2 7 0 12-2 4-4 9-10 12-5 3-11 4-15 3-4-2-7-4-8-8-2-5 1-9 4-11 2-1 6-1 8 1s3 4 3 8h0s5-4 5-11-6-13-14-13c-4 0-8 2-11 4-2 1-3 3-4 4-1 3-3 8-2 14h-1s0-3-4-5zm87 209c-4 0-6-1-8-4 0 0-1-4 0-10 1-7 4-11 7-14 2-3 5-5 8-6 0 0-3-4-4-9-2-6-2-13 1-21s8-13 14-17c5-3 13-5 20-5 6 1 13 3 19 7 7 5 9 10 10 13 0 0 3-2 7-3 5-2 11-2 17 0 5 2 8 4 8 4l1 1c0 2 0 4-1 6-1 1-1 2-2 4 0 2 1 2 1 3h0s-1-2-4-3c-2-2-6-4-10-4s-9 1-13 5c-4 3-6 9-5 13 2 5 6 8 9 9h6v-1s-3-1-4-4c0-3 1-6 4-8s6-2 9 0c2 2 4 5 4 8 0 4-3 8-6 11-4 3-8 5-13 5-5 1-11-1-15-5-4-3-6-9-7-11-1-3-1-7 0-12s3-8 5-11c-5-1-9 1-13 6-3-7-9-12-16-12-4 7-3 14 1 20-7 1-10 4-12 8 0 0 7-1 15 2 8 4 11 11 12 12 1 2 3 7 3 12-1 4-2 10-7 14-4 5-10 7-14 6-4 0-7-1-10-5-2-4-1-9 1-11 3-2 6-3 9-2 2 1 4 4 4 7h1s4-4 2-11c-1-7-9-12-17-10-4 2-8 4-10 7-1 2-2 4-2 5-1 3-1 8 1 14h-1s-1-3-5-3z" class="J I"/><path d="M101 935c0-5-5-7-8-7-4 0-8 3-8 9s4 12 15 12c8 0 15-4 18-9 3-4 4-7 4-13 0-16-11-23-16-25 4-3 9-4 15-1-1-7 3-15 9-18 5 4 8 12 7 19 5-2 10-2 15 1 0 0-8 3-12 9-5 6-5 12-5 16 0 3 1 11 8 16 8 5 15 4 20 3 5-2 9-5 9-11 0-5-4-8-8-8s-6 2-7 4 0 5 0 6v1s-3-1-5-4c-2-2-4-4-4-8 0-2 1-6 5-9 3-3 7-3 10-3s9 0 13 4 5 9 6 11h0s0-2 2-3c1-2 3-2 4-4 2-2 2-2 2-4l2 6c0 3 0 8-1 12s-3 9-6 12-8 8-15 9c-4 1-6 1-9 1s-15 1-17 1c-3 0-6 1-7 4-2 2-1 5-1 7 1 2 2 3 3 4 1 2 3 3 4 6 1 2 1 4 0 6 0 2-1 4-4 8-3 3-6 7-7 8 0 0-2-2-5-4-3-3-6-5-8-8s-2-6-2-7c0-2 1-4 3-7 2-2 3-5 3-8s-1-5-2-5c-1-1-2-3-6-3s-11 1-18 1-9 0-13-2c-6-2-9-6-11-8s-6-8-7-13-1-8-1-10c0-1 0-8 2-12 0 3 1 5 2 6s3 2 5 4c1 2 1 4 1 4h0c0-2 1-6 4-11 3-4 8-7 14-7s15 4 15 14-8 12-8 12h0s1-2 1-4zm-7 208c1 3 3 5 7 6 4 2 4 5 4 5h1c-1-6 1-11 2-14 1-1 2-3 4-4 3-2 7-4 11-4 8 0 14 6 14 13s-5 11-5 11h0c0-4-1-6-3-8s-6-2-8-1c-3 2-6 6-4 11 1 4 4 6 8 8 4 1 10 0 15-3 6-3 8-8 10-12 2-5 1-10 0-12 0-2-2-9-8-14-7-6-14-7-14-7 3-3 7-6 14-5-2-6-1-13 4-19 6 2 11 9 12 16 5-4 10-5 15-3-3 3-7 5-9 10s-2 8-2 11c-1 3 0 8 3 13s8 8 13 9 10 0 14-2 8-5 9-9c1-3 0-7-2-9s-5-3-8-2c-4 1-6 4-6 7s2 5 2 5h0s-3 0-6-1c-3-2-6-6-6-11s4-9 8-12c5-2 10-2 14-1s7 4 9 6c2 3 2 5 2 5l1-1s-1-1 0-3c1-1 1-2 3-3 1-2 2-3 2-5v-2s6 7 6 17c0 11-6 18-9 22-3 3-7 5-11 7-4 1-14 4-17 5s-9 3-9 8c0 4 1 6 4 8 1 1 3 2 4 3 3 2 5 5 5 8s-1 7-4 11c-2 5-3 8-3 8-4-2-10-4-14-7-4-2-5-5-6-8 0-2 0-5 2-7 1-3 1-4 1-7-1-4-3-6-5-7-3-1-5 0-8 1s-14 4-17 5c-4 2-9 2-14 1s-8-3-13-7c-4-3-7-9-9-12-2-4-2-8-3-12v-6zm169 184c-3-1-7-4-9-9-1-4 1-10 5-13 4-4 9-5 13-5s8 2 10 4c3 1 4 3 4 3h0c0-1-1-1-1-3 1-2 1-3 2-4 1-2 1-4 1-6l-1-1s8 5 10 15c3 10 0 19-2 23-2 3-5 7-9 9-4 3-12 8-15 10s-8 5-7 10c1 3 3 5 6 7 2 1 4 1 5 1 4 2 6 4 6 7 1 3 1 7 0 12s-1 8-1 8c-5-1-11-1-15-3-5-1-7-4-8-6-1-3-1-5-1-8 1-3 1-4-1-7-1-3-3-5-6-5s-5 1-7 3c-2 1-13 8-16 10s-7 4-13 4c-5 0-9-1-14-3-5-3-9-7-12-10-2-3-4-7-5-10-2-4-2-6-2-6 2 3 4 4 8 4s5 3 5 3h1c-2-6-2-11-1-14 0-1 1-3 2-5 2-3 6-5 10-7 8-2 16 3 17 10 2 7-2 11-2 11h-1c0-3-2-6-4-7-3-1-6 0-9 2-2 2-3 7-1 11 3 4 6 5 10 5 4 1 10-1 14-6 5-4 6-10 7-14 0-5-2-10-3-12-1-1-4-8-12-12-8-3-15-2-15-2 2-4 5-7 12-8-4-6-5-13-1-20 7 0 13 5 16 12 4-5 8-7 13-6-2 3-4 6-5 11s-1 9 0 12c1 2 3 8 7 11 4 4 10 6 15 5 5 0 9-2 13-5 3-3 6-7 6-11 0-3-2-6-4-8-3-2-6-2-9 0s-4 5-4 8c1 3 4 4 4 4v1h-6z" class="L I"/><path d="M333 1364c4 3 4 4 4 4-2 0-7 1-13 5-6 5-10 12-11 16-2 4-4 12-2 18 1 7 8 10 13 10 6 0 11-2 14-7 2-3 2-7 1-11 0-1-1-2-2-3-3-4-6-5-7-5 2-2 4-3 7-3 3-1 7-1 10 0 4 1 7 3 10 6 2 2 3 4 3 7 2 6 0 12 0 12 3 1 6 3 9 6 2 3 4 6 5 10 1 5 0 7-1 8 0 0-2-2-7-4-4-2-9-3-13-4h-9c-4 0-10 1-17 4-6 2-10 5-12 7-3 2-6 6-10 12s-5 11-6 15c-1 5-1 12 1 20 2 7 6 13 6 13-4 1-11 0-18-7-5-5-7-10-7-12 0 0-5 1-11-2-6-2-10-7-12-11s-3-10-2-16c2-6 6-9 6-9 0 4 3 10 7 12 4 3 11 4 16-1 6-6 6-12 4-17-1-4-3-8-9-10s-16-2-21-1-11 3-16 7c-5 5-6 10-6 10-4-7-6-14-2-21-7 0-12-4-15-11 4-4 10-6 16-4-2-6-2-14 5-19 0 0 0 4 3 8 3 5 8 9 16 11 9 1 13 0 20 1 6 0 11 2 11 2-1-7 1-15 3-19s4-13 2-22c-2-8-9-12-9-12 1-1 5-3 10-2s9 4 9 4c1-6 4-10 10-14 0 0 3 3 4 8 2 5 0 9 0 9 4-1 10-1 13 2z" class="I K"/><path d="M332 1366v1h-2c-2 1-5 2-7 4-3 3-6 5-8 8s-4 7-5 9-2 5-2 9c-1 3-1 7 0 11s3 6 6 8c3 3 7 4 10 4 4 0 7-1 9-2 3-2 5-4 7-6 1-2 2-5 2-7v-6c-1-1-1-2-1-3l-2-2c-1-1-2-3-3-3 0-1 1-1 2-1h4 5c1 1 3 2 4 3 2 0 3 1 4 3l2 2c0 1 1 2 1 4 1 5 0 10 0 10l-1 3h2c1 1 3 2 4 3s3 2 4 3 2 3 3 4c1 2 1 3 2 5v3c-1 0-3-1-5-2s-5-2-7-3c-2 0-5-1-7-1h-4c-2-1-4-1-5-1h0c-2 1-6 1-9 2-3 0-6 1-9 2-3 2-6 3-8 5-2 1-4 2-5 3l-5 5c-1 2-3 4-5 7s-3 6-4 9-2 5-2 8c-1 3-1 6-1 10s1 7 2 10c1 5 2 8 4 11-1 0-3-1-4-1-2-1-5-3-8-5-4-5-6-9-7-11l-1-3-2 1s-4 0-9-2c-2-1-4-2-6-4s-3-4-4-6-2-5-3-7c0-3 0-5 1-7 0-2 1-3 2-4 0 1 0 1 1 2 1 3 3 5 6 7 2 1 6 2 10 2 3 0 6-2 9-4 3-3 4-6 5-9 1-4 1-7 0-10s-2-5-4-7-4-4-7-5-7-2-11-2h-11 0c-3 1-6 1-9 3-3 1-6 3-9 6-2 1-3 3-4 5-1-1-1-3-2-5 0-3 0-6 2-8l2-4h-4c-3 0-5-1-7-3-2-1-4-3-5-5 2-1 3-2 5-3h8l5 2-2-5c-1-3-2-6-1-9 0-2 1-3 1-4 1 1 2 3 3 5 2 2 4 5 7 7s6 3 11 4 9 1 13 1h7c6 1 10 2 10 2l3 2v-4c0-4 0-7 1-10s2-6 2-8h0c1-2 2-6 3-10s1-9 0-13c-2-6-5-9-7-12h0 5c4 1 7 4 7 4l3 4 1-6 3-6c1-1 3-3 5-4 0 1 1 2 2 4 1 4-1 8-1 8l-2 5 5-2h7c1 0 3 1 5 2zm8 2s-1-3-5-6c-2-2-5-3-8-3h-4c1-2 1-4 0-7-2-5-5-8-5-9l-1-1-2 1c-3 2-6 4-8 7-1 1-2 3-3 5-2-1-4-2-7-3h-6c-3 1-5 2-6 3l-3 2 4 2s6 3 8 11c1 4 1 8 0 11-1 4-2 7-2 9-1 2-2 5-3 9-1 2-1 5-1 7-2 0-5-1-8-1h-7c-4 0-7 0-12-1-4-1-7-2-9-4-2-1-4-3-6-5-2-4-3-8-3-8v-4l-4 3c-4 3-6 6-6 10-1 2-1 5 0 8h-6c-3 1-6 3-9 5l-2 2 1 2a30.44 30.44 0 0 0 8 8c2 2 4 3 6 3-1 3-1 6-1 9 1 4 3 8 5 11l3 5 2-6s0-4 5-8c2-2 5-3 7-4 3-2 6-2 8-3h10c3 0 6 1 9 2 2 1 4 2 5 3 2 2 3 3 3 5 1 2 1 5 0 8 0 2-1 4-3 6s-4 3-6 3c-3 0-6-1-8-2-1-1-3-2-4-4s-1-4-1-6v-5l-4 3s-5 3-7 10c-1 3-1 6-1 9 1 3 2 7 3 9 1 3 3 5 6 8 2 2 4 3 7 5 4 1 8 2 10 2 1 2 3 6 8 11 3 3 6 6 9 7 5 1 8 1 11 0l2-1-1-3s-3-5-5-12c-1-3-2-6-2-9s0-7 1-9c0-2 1-5 1-7 1-3 2-5 4-8s4-5 5-7c2-1 3-3 4-4 2-1 3-2 5-3s4-3 7-4 6-2 8-2c3-1 6-1 8-1h5 3c2 0 5 1 7 1 2 1 4 2 6 2 5 3 7 4 7 4l2 2 2-3c0-1 2-4 1-10h0c-1-2-2-4-3-5l-3-6c-2-1-3-2-5-4-1 0-2-1-3-1 1-3 1-7 0-12 0-1-1-3-2-4 0-1-1-3-2-4-2-1-3-3-5-4l-6-3h0c-2 0-4 0-6-1-2 0-4 1-6 1-1 0-3 1-4 2-1 0-3 1-4 2l-4 3 5 1c1 0 2 1 3 1l3 3c1 1 1 1 1 2l1 1h0v4c0 2-1 3-2 5s-2 3-4 4-4 2-6 2c-3 0-6-1-8-3-2-1-3-3-4-6-1-2-1-6 0-8 0-3 1-6 2-8s2-5 4-8c2-2 4-5 7-6 2-2 4-3 6-4s4-1 5-1h4l-1-3z" class="I J"/><path d="M150 1251c-1 4 1 10 4 13 3 4 10 7 16 3 7-4 8-10 8-15 0-4-1-8-7-12-5-4-14-6-19-7-5 0-11 0-17 3-6 4-9 8-9 8-2-7-2-15 4-21-7-1-11-6-12-14 5-3 11-3 17 0-1-7 1-14 9-17 0 0-1 4 1 9s6 10 13 14c8 4 13 4 19 6s9 5 9 5c2-7 6-14 9-17 2-4 7-12 7-21s-5-14-5-14c1-1 5-2 10 0 5 3 7 7 7 7 3-5 7-9 14-11 0 0 2 4 2 9s-3 8-3 8c5 0 10 2 12 6 3 4 3 5 3 5-1-1-7-1-13 2-7 2-13 8-16 12-2 3-7 9-7 17 0 7 6 11 11 13 6 1 11 0 15-4 4-3 5-9 3-14-2-4-6-6-6-6 5-2 12-2 18 2 5 3 9 9 9 15 0 7-3 12-3 12 4 3 9 14 9 19s-3 8-3 8l-6-6c-4-3-8-5-12-7-3-1-6-2-8-2-4-1-10-2-17-1s-11 2-14 4c-3 1-7 3-12 8-6 5-8 9-10 14-2 4-4 11-4 19 0 7 1 14 1 14-3 0-10-3-14-11-5-7-4-11-5-14 0 0-4-1-9-4-6-4-8-10-9-14-1-5-1-11 2-16 4-6 8-7 8-7z" class="I K"/><path d="M147 1256c1 1 1 2 1 2 1 3 2 6 4 8s5 4 9 5 7 0 10-2c4-2 6-4 7-7 2-3 3-7 3-10 0-2-1-5-2-7-1-3-3-5-6-7s-6-4-9-5c-4-1-9-2-12-2-2-1-5-1-8 0-4 0-7 1-11 3-2 1-4 3-5 4-1-1-1-3-1-5 1-3 2-5 4-8l4-3-5-1c-2-1-5-2-6-4-2-2-3-4-3-6 2-1 4-2 6-2s4 1 7 2l4 3v-5c-1-3-1-7 1-9 1-2 1-3 2-4 1 2 1 4 2 6 1 3 2 5 5 8 2 3 5 5 9 7 5 3 9 4 12 5 3 0 5 1 7 2 6 2 9 4 9 4l3 3 1-5 3-9c2-3 3-5 5-7h0c1-2 3-5 5-9 2-3 3-8 3-13s-2-9-4-12h1c1 0 2 0 4 1 4 2 6 5 6 5l2 5 3-5c1-2 2-4 4-6 2-1 3-2 6-2 0 1 1 3 1 5 0 4-3 6-3 6l-3 5h5c2 0 4 0 6 1s3 2 4 3l1 1h-2c-3 0-5 1-8 2-4 1-7 3-10 6-3 2-5 5-7 7l-1 2c-2 4-6 9-6 17 0 4 1 7 3 9 3 3 6 5 10 6 3 1 6 1 9 1 3-1 5-2 8-5 2-2 4-5 4-8 1-3 1-6 0-9-1-1-2-3-3-4h3c3 1 5 1 8 3 2 1 4 4 6 6 1 2 2 5 2 7 0 6-3 11-3 11l-1 2 2 1c1 2 3 5 5 8 1 3 3 7 3 9s-1 3-1 4c-1-1-3-2-4-4h0c-2-1-4-3-6-4-3-1-5-3-7-3-2-1-3-2-4-2-2 0-3-1-4-1-2 0-5-1-8-1h-10c-3 1-6 1-8 2-3 1-5 2-7 2l-1 1c-3 1-7 3-12 8-3 3-5 5-7 8-1 2-2 4-4 7-1 2-2 6-3 10-1 3-1 6-1 10s1 8 1 11c-1-1-2-1-3-2-2-2-4-4-6-7-4-6-4-10-4-12v-1-2h-2s-4-1-9-4c-2-2-4-4-5-6s-2-5-2-7h0c-1-2-1-5-1-8 1-2 1-4 3-6 1-1 2-2 2-3zm6 1c-1-2-1-4 0-5l2-6-6 2s-5 2-9 8c-1 3-2 6-3 8 0 4 0 7 1 10 0 3 1 6 3 9 1 2 3 5 6 7 4 2 7 4 9 4 0 3 1 7 4 13 3 4 5 7 8 9 4 3 7 4 10 3h3l-1-3s-2-6-2-13c0-4 1-7 1-9 1-4 2-7 3-9s2-4 4-7c1-2 3-4 5-6 5-4 9-6 12-8h0c2-1 4-2 6-2 2-1 5-1 7-2h9c3 0 6 1 8 1 1 0 2 1 3 1s3 1 4 1l6 3c2 1 4 3 5 4 5 4 6 6 6 6l2 2 2-2s4-4 4-10c0-3-2-7-4-11-1-3-3-6-5-8 1-3 3-7 3-12 0-3-1-7-3-10a30.44 30.44 0 0 0-8-8c-3-2-6-3-9-3-4 0-8 0-11 1l-5 3 5 2s3 2 5 5c1 2 1 4 0 6 0 2-1 4-3 6l-6 3c-2 0-4 0-6-1-3 0-5-2-7-4-1-2-2-4-2-6 0-6 3-11 6-15v-1c2-2 4-4 7-6 2-2 5-4 7-5 3-1 5-1 7-2h6l4 2-1-5s0-2-3-6c-2-2-4-3-7-5-1 0-2-1-4-1 1-2 2-4 2-6 0-6-3-10-3-10l-1-2-2 1c-3 1-6 2-9 4-2 1-3 3-4 4-1-1-3-3-6-4-2-1-4-1-6-1-3-1-5 0-6 0l-4 2 3 3s5 4 5 12c0 4-1 8-3 11-1 4-3 6-4 8-2 2-4 5-5 8-1 2-2 4-3 7-2-1-4-2-7-3s-5-2-7-2c-4-1-7-2-12-4-3-2-5-4-7-6s-3-5-4-7c-2-4-1-8-1-8v-5l-4 2c-4 2-7 5-9 8-1 3-2 5-2 8-2 0-4-1-5-1-4 0-7 1-11 3l-1 1v2c1 4 3 7 5 10 1 2 3 3 5 5-1 2-2 5-3 8 0 4 1 8 2 12l2 6 3-6s1-3 7-6c3-2 6-3 8-3h8c3 0 6 1 10 2 3 1 6 2 8 4s4 3 5 5c0 2 1 4 1 5 0 3-1 5-2 8-1 2-3 3-5 5-2 1-5 1-7 1-3-1-5-2-6-4-2-1-3-3-3-5z" class="I J"/><path d="M91 1043c0 2 0 6 4 10 5 4 11 5 16 2s8-8 9-14c0-6-5-12-10-15-5-4-12-9-23-9s-16 6-16 6c-1-8 2-15 9-19-6-3-9-9-8-17 5-1 11-1 17 5 1-8 6-14 13-15 0 0-3 7 0 14 3 11 11 16 20 20 7 5 12 10 12 10 1-1 1-3 4-6 1-2 4-5 9-9 6-4 9-9 11-13s2-7 2-9c0-5-1-8-2-10 6-1 12 4 15 11 3-4 8-6 16-6 1 7-1 12-6 16 8 2 12 7 12 14-2-1-7-2-10-2-6 0-14 1-22 8-5 4-8 8-10 12 0 2-1 4-1 6s1 5 3 8c3 3 7 6 12 6s8-2 11-4c3-3 4-6 4-9 0-4-3-8-5-9 4-1 10 0 14 3 5 4 9 10 8 16 0 3 0 6-1 8-2 4-4 6-5 7 2 3 4 9 4 15 0 7-3 11-5 13-3-4-6-12-16-19s-24-10-37-8c-12 2-20 9-24 13s-9 11-12 19c-2 8-2 15-2 15-6-1-10-9-12-17-1-5 0-10 0-12 0 0-2-1-6-5s-6-10-6-16c0-5 1-12 6-16 4-5 10-5 10-5-2 2-2 5-2 7z" class="I K"/><path d="M88 1043c0 1 0 3 1 5s2 5 4 7c3 3 6 4 10 5 3 0 7-1 10-3 2-1 5-4 6-7 2-2 3-6 3-9s-1-7-3-9c-2-4-4-7-7-9h-1c-5-3-13-8-24-8-6 0-10 1-13 3 0-2 0-4 1-5 1-3 3-5 6-7l4-2-4-2c-2-2-4-4-5-6s-1-4-2-7h6c2 1 5 2 7 4l4 4v-5c1-4 2-7 4-9 1-1 2-2 3-2 0 3 0 7 1 11 2 6 5 10 9 14 4 3 8 5 13 8 7 4 11 9 11 9l3 3 1-4c1 0 1-1 1-2l3-3c0-1 2-2 3-4 2-1 3-3 6-5 2-2 5-4 7-7 2-2 3-5 4-7s2-4 2-6 1-3 1-4c0-2-1-4-1-6v-1c1 0 2 1 3 2 2 1 4 4 5 7l2 4 3-3c1-2 3-3 5-4s4-1 6-2c1 2 1 4 0 6s-2 4-4 6l-4 3 5 1c3 1 5 3 7 5 1 1 1 2 2 3h-1c-2-1-4-1-6-1-4 0-8 1-13 2-3 2-7 4-10 7-3 2-5 4-7 6s-3 4-4 6c0 2-1 3-1 4s-1 2-1 4c0 1 1 3 1 5 1 1 2 3 3 4h0l6 6c3 1 5 2 8 2s5-1 7-2 4-2 6-4c1-1 2-3 3-4 1-2 1-4 1-6s0-4-1-6h0 1c2 0 4 1 6 3 2 1 4 3 5 6 1 2 2 5 2 7h0c0 2 0 3-1 4 0 1 0 2-1 3h0c0 2-1 3-2 4s-2 2-2 3l-2 1 2 2c1 1 2 3 2 6 1 2 2 5 2 7 0 3-1 5-2 7 0 1 0 1-1 2l-3-6c-3-4-7-7-12-11s-12-6-18-8c-7-1-13-2-20-1s-12 4-17 6c-4 3-7 6-9 8-3 2-5 6-7 10-2 3-4 6-5 10-1 5-2 9-2 12l-3-3c-2-3-3-7-4-10-1-2-1-4-1-6s1-4 1-5v-2l-2-1-5-5c-2-1-3-3-4-6-1-2-2-5-2-8 0-2 1-5 2-8 0-2 2-5 4-6 1-2 2-3 3-3v3h0zm6 4c-1-2-1-3-1-4s0-2 1-3c0-1 0-2 1-3l2-4h-5s-6 1-11 6c-2 2-4 5-5 8s-2 7-2 10c0 4 1 7 2 10s3 6 5 8c3 2 4 3 5 4v5c0 2 0 4 1 7 1 4 2 9 5 12 2 3 6 6 9 6l3 1v-4s0-5 2-13c1-4 2-7 4-10s4-6 6-8 5-5 9-7 9-5 15-6 12 0 18 1 11 4 16 7c5 4 8 7 10 10 3 3 4 6 5 8l1 3 3-2c2-1 4-3 5-6 1-2 2-5 2-9 0-3-1-6-2-8 0-3-1-5-2-6 0-1 1-1 1-2 1-1 2-3 3-5 1-1 1-2 1-4 1-1 1-3 1-5 0-3-1-6-2-9-2-4-5-7-7-9-3-1-5-2-8-3s-6-1-8-1l-6 1 5 4s1 1 2 3c1 1 1 3 1 4s0 2-1 4c0 1-1 2-2 3s-2 2-4 3c-1 0-3 1-5 1s-4-1-5-2c-2-1-4-2-5-4-1-1-1-2-2-3v-3-3c0-1 0-2 1-2h0c1-2 2-4 3-5l6-6c3-3 6-5 9-6 4-1 8-2 11-2 1 0 3 1 5 1s3 1 4 1l4 3v-5c-1-4-2-8-4-11-2-2-4-3-6-4 1-2 2-4 3-5 1-4 1-7 0-11v-2h-2c-4 0-8 1-11 2-1 1-3 2-4 3-2-3-4-5-6-6-3-3-7-4-11-4h-4l2 4c1 1 1 2 2 4v4 1 3c0 2-1 3-1 5-1 2-3 4-4 6-2 2-4 4-7 6l-6 6c-1 1-2 3-3 4l-3 3c-2-2-5-5-10-8-4-2-8-4-11-7-4-3-6-7-8-11-2-7 0-13 0-13l2-4h-4c-4 1-8 3-11 6-2 2-3 4-4 7l-6-3h-9l-3 1v2c0 4 1 8 2 11 1 2 3 4 4 6-2 2-3 4-5 6-1 4-2 9-1 13v6l4-4s5-5 14-5c10 0 16 4 21 7l1 1c2 1 4 4 6 6 1 2 2 5 2 7s-1 5-2 7-3 4-5 5-4 2-7 1c-2 0-4-1-6-2-2-2-3-4-3-5z" class="I J"/><path d="M200 815c-3-3-9-7-18-7s-16 4-22 7c-5 4-9 9-9 14s4 10 7 13c3 2 10 4 15 1s7-7 7-11-1-7-2-7c1 0 8 1 12 6s6 12 4 19c-2 8-10 12-10 12s3 8 0 17-8 10-8 10c-2-10-7-20-15-27-9-8-19-12-24-13s-16-2-27 3c-12 5-19 16-22 20-3 5-5 12-5 12-5-2-7-10-7-17 0-8 2-12 3-14-3-3-6-8-7-12-1-3-1-9 2-15 2-6 7-10 11-12 5-1 8-1 9-1-2 2-5 6-5 11 0 4 2 7 5 10 2 2 10 5 16 2 6-4 9-9 9-15 0-5-3-10-3-10-6-9-14-15-25-18-6-1-11 0-15 2 2-8 6-14 14-16-5-5-6-11-4-18 7 0 12 3 15 8 1 0 2-5 8-8 5-3 9-2 9-2-3 4-6 13-3 21 3 7 6 11 13 17 7 7 9 13 9 13 2-2 5-5 9-7 4-3 10-4 14-7 2-2 5-4 7-6 8-9 6-18 6-20 5 1 11 8 11 15 4-3 10-4 17-2 0 7-3 12-9 14 5 3 7 8 8 12v6z" class="I K"/><path d="M197 810c-1-1-3-2-4-2-3-2-7-2-11-2s-8 1-12 2-8 3-11 5-6 5-8 7c-1 3-2 6-2 9s1 6 2 8c1 3 3 5 6 7 2 1 5 3 8 3s6 0 9-2c3-1 5-3 6-5 2-3 3-6 3-8v-3l1 1c1 0 3 2 4 3 2 2 3 5 4 8s0 6 0 9c-2 6-9 10-9 10l-2 1v2s3 7 1 15c-2 4-3 6-5 7-1-4-2-8-4-12-3-5-6-9-11-13-3-4-7-6-11-8-5-3-10-4-14-5h0c-2-1-6-1-11-1s-11 1-17 4c-5 2-10 5-13 8-5 5-9 10-10 13-2 3-3 6-4 9-1-1-1-2-2-3-1-3-2-7-1-10 0-4 0-6 1-8 0-2 1-4 2-5v-2l-1-1c-1-1-3-3-4-5s-2-4-2-5c-1-2-1-4-1-6s1-5 2-8c1-2 3-5 4-6 2-2 4-4 6-4 1-1 2-1 2-1v1c-1 2-1 4-1 7 0 2 0 4 1 6s2 4 4 5c1 2 5 4 9 5 3 0 7 0 10-2s6-5 8-7c1-3 2-6 2-10 0-6-3-11-3-11-3-5-7-9-11-12-5-4-10-6-15-7h-1c-3-1-6-1-9-1 0 1-1 1-2 1 1-2 2-4 3-5 2-2 4-4 7-4l4-1-3-4c-1-2-3-4-3-6v-8c2 1 4 1 6 2 2 2 4 3 5 6l3 4c0-1 1-3 2-5 0-1 2-5 6-7 1-1 3-1 4-2-1 3-2 5-2 8-1 4-1 8 1 12 1 4 3 6 5 9s5 6 8 9c7 6 9 12 9 12l1 4 3-3c1-1 2-3 4-4 1-1 3-2 4-3l6-3c3-1 6-2 8-4 2-1 3-2 4-3 2-1 3-2 4-3 4-5 6-10 7-14v-4l3 3c1 2 2 5 3 8v5l4-3c1-1 3-2 6-2h6c0 2 0 4-1 6-2 1-4 3-6 4l-4 2 4 3c2 1 3 2 4 3 1 2 2 4 2 6v1zm-6 2c3 1 5 3 7 4l3 4 1-5s1-3 0-7c0-2-1-5-3-7 0-1-1-2-2-3 1-2 3-3 4-5 2-2 3-6 3-10v-2h-2c-4-1-8-1-11-1-2 0-3 1-5 1 0-2-2-5-3-7-3-3-6-6-10-6l-4-1 1 4c0 1 1 3 0 6 0 4-1 7-5 11h0l-3 3c-1 1-2 2-4 3s-4 2-7 3c-2 1-4 3-7 4h0c-1 1-3 2-5 3 0 1-1 1-1 2-2-3-4-7-8-11-4-3-6-5-8-8-2-2-3-5-4-8s-2-7-1-10c0-3 2-7 3-9l3-3-4-1s-6-1-12 3c-3 1-5 4-6 6-1-2-3-3-4-4-3-2-7-3-10-3h-2l-1 2c-1 4-2 8-1 12 0 2 1 4 2 6-2 1-4 3-6 5-3 3-4 7-5 12l-1 5 5-3c1-1 3-1 5-1 2-1 5-1 8 0 5 1 9 3 12 6 4 3 8 7 10 11 0 0 3 4 3 8 0 3 0 5-2 7-1 2-3 4-6 5-2 2-4 2-6 2-3-1-5-2-6-3-2-1-3-3-3-4-1-1-1-3-1-4 0-2 0-4 1-5 1-2 1-3 2-4l5-4h-6c-2-1-5-1-9 1h0c-3 1-6 3-8 5s-4 5-6 8c-1 4-2 7-2 10s0 5 1 7 2 5 3 7 2 3 3 4c0 1-1 3-1 4-1 3-1 6-2 10 0 4 1 8 3 12 1 3 3 6 7 7l2 1 1-3s2-6 4-10c2-3 5-8 9-12 3-3 7-5 12-7 5-3 10-4 15-4 4 0 8 0 10 1 3 1 8 2 13 4 3 2 7 4 10 7 4 4 7 8 9 12 3 5 4 9 5 14v3l3-1s7-1 11-12c2-7 1-13 0-16 3-2 8-6 9-12 2-4 2-7 1-11s-3-7-5-10c-2-2-4-4-6-5-3-2-7-3-7-3h-6l3 4s1 1 1 2 1 2 1 4c0 1-1 3-2 5l-4 4c-2 1-4 1-6 1-3-1-5-1-6-2-2-2-4-3-5-6-1-1-1-3-1-5s1-4 2-6 3-4 6-6c3-1 6-3 10-4 3-1 6-2 10-2 3 0 7 1 9 1z" class="I J"/><path d="M1317 406l-207 96c-2-4-4-7-6-11l192-103 21 18zm-309-145l-32 129-12-3 24-128c7 1 13 1 20 2zm358 194l-246 74c-1-4-3-7-4-11l230-84c7 7 13 14 20 21zm34 43l-275 52-3-12 259-64c7 8 13 16 19 24zm32 50l-305 23c0-4-1-8-1-11l288-40c6 9 12 18 18 28zM775 716c-2-3-5-6-7-9L622 818l12 19 141-121zM348 856l17 34 386-208c-2-4-4-7-5-11L348 856zm894-508l-154 117c-2-3-5-6-8-9l141-121c7 5 14 9 21 13zm-113-56l-88 128c-3-2-6-5-10-7l78-128c7 2 13 4 20 7zm-86-25l-47 129c-3-1-7-2-11-3l39-129 19 3zm49 13l-69 128c-3-1-7-3-11-5l60-129 20 6zm112 46l-130 122-8-8 117-125c7 4 14 7 21 11zm-38-19l-108 126c-3-2-6-5-9-7l97-128c7 3 13 6 20 9zm114 68l-180 108c-2-4-4-7-6-10l165-113 21 15zm226 481l-398-185c-2 4-4 7-5 11l386 208 17-34zm-34 59l-374-225c-2 3-4 6-7 10l360 246 21-31zM762 700c-2-4-4-7-6-10L382 915l20 31 360-246zm-413 60l386-116c1 4 3 8 4 11L345 799c1-13 3-26 4-39zm13-67l368-69c1 4 2 7 3 11l-379 94c3-12 5-24 8-36zm47-121l317 9v4 8l-332 10c4-11 9-21 15-31zm563-315l-17 129c-4-1-8-1-12-1l10-129c6 1 13 1 19 1zm527 472l-378-94c1-4 2-7 3-11l367 68c3 13 6 25 8 37zm-17-66l-357-49c1-4 1-8 2-11l344 26c4 12 8 23 11 34zM439 520l289 40c-1 3-1 7-1 11l-305-23c5-10 11-19 17-28zm1021 83l-333-10c0-3 1-6 1-8s-1-3-1-4l318-9 15 31zm48 196l-393-144c1-3 2-7 4-11l385 116c2 13 3 26 4 39zM383 629l344-26c0 3 1 7 1 11l-357 50c3-12 7-23 12-35zm447-365l39 129-12 3-47-129 20-3zm-85 21l77 128c-3 2-6 5-10 7l-87-128c6-3 13-5 20-7zm120-26l25 128-12 3-32-129c6-1 13-1 19-2zm-84 15l60 129c-3 2-7 4-10 5l-70-129c7-1 13-3 20-5zm114-17c2-1 3-1 5-1h1l10 129c-4 0-8 0-12 1l-18-129h14zM472 474l260 64-3 12-276-52c6-8 13-16 19-24zm445-218h1 0 0 9 0 10l-4 128h-6-6l-4-128zM595 359l165 114c-2 3-4 6-6 10L574 375c7-6 14-11 21-16zm113-61l97 128c-4 2-7 5-10 7L687 307l21-9zM507 434l231 84c-2 4-3 7-4 11l-246-74c6-7 13-14 19-21zm50-46l192 103c-2 4-3 7-5 11l-207-97c6-6 13-12 20-17zm76-53l140 121c-2 3-5 6-7 9L612 348c7-4 13-9 21-13zm37-20l118 125a30.44 30.44 0 0 0-8 8L650 326c6-4 13-8 20-11zm102 270c0-86 69-156 155-156s155 70 155 156c0 85-69 155-155 155s-155-70-155-155z" class="K"/><path d="M509 959h820l-53 257H568z" class="L"/><g class="I J"><path d="M1021 980c-2 7-5 13-9 17-1-2-2-3-4-5 3-3 5-7 6-12h7z"/><use xlink:href="#B"/><use xlink:href="#C"/><path d="M1221 991c-1 3-3 6-5 8-7 7-17 11-28 11-10 0-20-4-27-11-5-5-8-12-10-19h7c1 6 4 10 8 14 6 6 14 10 22 10 9 0 17-4 23-10 4-4 7-8 8-14h3c-1 3-1 6-1 9v2z"/><use xlink:href="#D"/><path d="M1252 1049c0 1-1 1-1 1-7 7-16 11-27 11s-20-4-27-11c-5-5-9-11-11-18h7c2 5 4 10 8 14 6 5 14 9 23 9s17-4 23-9v-1c2 2 3 3 5 4zm-196-17c-1 7-5 13-10 18-7 7-16 11-27 11-9 0-17-3-24-8l6-3a34.53 34.53 0 0 0 18 5c9 0 17-4 23-9 3-4 6-9 8-14h6z"/><path d="M1193 1032c-2 7-5 13-10 18-7 7-17 11-27 11-11 0-21-4-28-11-5-5-8-11-10-18h7c1 5 4 10 8 14 6 5 14 9 23 9 8 0 17-4 22-9 4-4 7-9 8-14h7zm-172 51c-2 7-5 14-10 19-7 7-17 11-27 11-5 0-10-1-14-3 0-2-1-5-1-7 4 2 9 4 15 4 8 0 16-4 22-10 4-4 7-8 8-14h7z"/><use xlink:href="#B" y="103"/><path d="M1233 1104c-1 0-2-1-3-2-5-5-9-12-11-19h7c1 6 4 10 8 14l3 3-4 4z"/><use xlink:href="#C" y="103"/><path d="M1226 1083c-2 7-5 14-10 19-7 7-17 11-28 11-10 0-20-4-27-11-5-5-8-12-10-19h7c1 6 4 10 8 14 6 6 14 10 22 10 9 0 17-4 23-10 4-4 7-8 8-14h7z"/><use xlink:href="#D" y="103"/><path d="M1056 1135c-1 7-5 13-10 18-7 7-16 11-27 11s-20-4-27-11c-5-5-9-11-10-18h6c2 5 4 10 8 14 6 5 14 9 23 9s17-4 23-9c3-4 6-9 8-14h6zm89 28c-7-2-12-6-17-10-5-5-8-11-10-18h7c1 5 4 10 8 14 6 5 14 9 23 9h0c-4 2-8 3-11 5z"/><use xlink:href="#E"/><path d="M884 980c-1 7-5 14-10 19-7 7-16 11-27 11s-20-4-27-11c-5-5-9-12-11-19h7c2 6 4 10 8 14 6 6 14 10 23 10s17-4 23-10c3-4 6-8 8-14h6zm-205 0c-1 7-5 14-10 19-7 7-16 11-27 11-4 0-8-1-12-2 0-2 1-4 1-6 4 1 7 2 11 2 9 0 17-4 23-10 3-4 6-8 8-14h6z"/><use xlink:href="#F"/><path d="M897 1005l-9-6c-5-5-9-12-10-19h6c2 6 5 10 8 14 3 3 6 5 10 7-2 1-4 3-5 4zm-182 27c-2 7-5 13-10 18-7 7-17 11-28 11-10 0-20-4-27-11-5-5-8-11-10-18h7c1 5 4 10 8 14 5 5 14 9 22 9 9 0 17-4 23-9 4-4 7-9 8-14h7z"/><use xlink:href="#G"/><path d="M647 1032c-2 7-6 13-11 18-7 7-16 11-27 11-7 0-13-1-19-5 2-1 5-2 7-3 4 1 8 2 12 2 9 0 17-4 23-9 4-4 6-9 8-14h7z"/><use xlink:href="#H"/><path d="M866 1058c-4-2-8-5-11-8-5-5-8-11-10-18h6c2 5 5 10 9 14 2 2 5 4 8 6 0 2-1 4-2 6z"/><use xlink:href="#E" y="103"/><path d="M854 1112c-2 1-5 1-7 1-11 0-20-4-27-11-5-5-9-12-11-19h7c2 6 4 10 8 14 6 6 14 10 23 10 3 0 6-1 8-2l-1 7z"/><use xlink:href="#F" y="103"/><path d="M715 1135c-2 7-5 13-10 18-2 2-5 4-7 5-3-1-5-2-7-3 3-1 6-4 9-6 4-4 7-9 8-14h7z"/><use xlink:href="#H" y="103"/><path d="M679 1083c-1 7-5 14-10 19-7 7-16 11-27 11s-20-4-27-11c-5-5-9-12-10-19h6c2 6 4 10 8 14 6 6 14 10 23 10s17-4 23-10c3-4 6-8 8-14h6z"/><use xlink:href="#G" y="103"/></g><path d="M600 860l50 38 107-49 34 27 98-40 40 12 25-28 128 49 38-12 11 14 46-37 99 44 23-24 102 15 108-42-172-61-41 33-108-60-26 21-129-96-30 29-76-75-79 95-26-15-87 64-46-34-100 46-19-27-226 81 100 105 156-73z" class="L"/><path d="M589 774h0l-36 31-8-23-18-10 43-25zm707 25h0l-28 23-50-33 15-8-45-42zm-134-39h0l-30 24-27-13-13 18-31-57 6-11-21-20-13-37zm-159-67h0l2 79-76-87 15-19-17-48zm-181 5h0l26 15-20 24 25 55-56-21-11-34 19-4zm687 129v11 3h0l-103-38-39 5-30-42 172 61zm-820-99l46 34-9 55-23-1-16-20-25 7-11-26 17-15z" class="J"/><path d="M1507 887l-64 25c-76-27-97-18-124-35-10-5-8-20-20-23 70 5 139 17 209 26-1 2-1 5-1 7zm-228 31c-61-3-62-46-102-84 35 13 69 28 100 42-14 15-12 29 2 42zm-148-47c-26 13-42 58-97 54 47-14 52-50 86-68 3 2 9 10 11 14zm-46-3c-25 8-51 14-88 37 10-40 1-58-43-85 44 10 92 31 131 48zm-156-20c-20 21-34 34-52 51-2-9 18-22 22-35 4-15-8-24-10-28 11 2 30 8 40 12zm-134 26c-24 9 45 38 66 46-23-2-83-14-105-28-11-7-12-16-4-21 13-8 12-12 5-22 10 7 26 17 38 25zm-193 39c15-23 8-39-2-53 19 10 35 26 50 38-20 9-33 15-48 15z" class="I K"/><path d="M391 1217c13 14 27 29 41 42 26 21 59 22 82 12l30-12c16-7 39-6 57 7-27-1-45 13-66 26-13 7-28 12-46 12 11 7 23 14 35 21 26 14 57 10 79-5l18-12c14-10 33-13 51-6-11 1-25 8-35 19l-8 8c-12 13-27 22-43 25 10 4 21 8 32 11 24 7 49 0 65-18l10-11c10-12 26-19 43-15-7 3-17 10-23 20l-9 15c-7 11-17 19-26 24l27 3c24 2 44-12 55-29 10-14 25-28 42-25 10 1 14 10 14 19 1 25-31 74-37 95-8 27 15 32 23 25-9 24-3 56 20 64v1c-2 8-5 14-9 19-15 0-15-12-30-17-19-6-32 18-14 30-1-10 6-13 12-11 2 1 6 4 9 8-10 3-16 9-15 18 0 8 7 15 21 15-7-6-5-13-1-16s11-3 15-2c2 0 8 5 15 4 8 0 13-1 16-2 6 0 14 1 15 7 0 5-2 9-6 11 21 8 34-23 11-30-14-3-22-14-18-27 0-1 1-3 1-4 10 18 32 30 53 26 0 0 8 18 30 18 21 0 29-18 29-18 22 4 44-8 54-26 0 1 0 3 1 4 4 13-5 24-18 27-23 7-11 38 10 30-3-2-5-6-5-11 1-6 9-7 15-7 3 1 8 2 16 2 7 1 13-4 14-4 5-1 12-1 16 2s6 10-1 16c14 0 21-7 21-15 0-9-6-15-15-18 3-4 7-7 9-8 6-2 13 1 12 11 18-12 5-36-14-30-15 5-16 17-30 17-4-5-7-11-9-19v-1c23-8 28-40 20-64 8 7 30 2 23-25-6-21-38-70-38-95 1-9 5-18 15-19 17-3 32 11 41 25 12 17 32 31 55 29l28-3c-10-5-20-13-26-24l-10-15c-6-10-15-17-23-20 17-4 34 3 44 15l10 11c16 18 41 25 65 18 11-3 21-7 32-11-16-3-31-12-43-25l-8-8c-10-11-24-18-36-19 19-7 38-4 52 6l18 12c21 15 53 19 79 5l35-21c-18 0-33-5-46-12-21-13-39-27-66-26 18-13 41-14 57-7l30 12c23 10 56 9 81-12 15-13 29-28 41-42-20 6-40 6-59 1l-32-9c-15-4-32-4-48 0 15-14 38-25 65-23l27 3c43 5 81-16 102-50 10-18 19-36 27-55-19 15-41 24-67 24h-40c-17 1-32 5-46 14 10-19 29-34 50-39l40-11c66-17 94-72 94-136 0-10 0-20-1-29-13 24-36 44-63 55l-38 16c-13 5-25 13-35 23 4-32 20-51 46-70 16-11 29-20 41-31 52-49 54-128 25-190-46 131-181 170-260 207-38 19-55 41-55 72 1 30 22 53 47 60l-1 4-1 3v1c-16 38-45 71-83 95-35 22-78 37-119 42h-1l-2 1c-8 1-16 1-24 2h0c-28 1-57-10-74-32-16-21-21-49-24-77-2-20 3-37 22-44 7-3 16-2 22-9-20 1-24-6-36-6 9-4 17-17 31-17 4 0 8 2 10 5 5-16-16-24-36-17-11-9-31-6-45 3-23 15-37 42-45 72-8 31-8 52-17 80-11 36-39 43-71 41h0 0c-92-9-172-56-207-124h0l-2-4h0l-1-3-1-1-1-3v-1l-2-3h0l-1-3v-1l-2-4c26-7 47-30 47-60 1-31-16-53-55-72-79-37-213-76-259-207-29 62-28 141 25 190 12 11 25 20 41 31 26 19 42 38 46 70-10-10-22-18-35-23l-38-16c-28-11-50-31-63-55-1 9-1 19-1 29 0 64 28 119 93 136l41 11c21 5 40 20 49 39-13-9-28-13-45-14h-41c-25 0-47-9-66-24 8 19 16 37 27 55 20 34 59 55 102 50l27-3c27-2 50 9 64 23-16-4-32-4-47 0l-32 9c-19 5-39 5-60-1z" class="J"/><path d="M920 1021c12-7 13-13 23-18 6-2 13-2 17 3-2 0-4 0-4 3-1 5-4 8-8 9-3 1-6 0-9-2-5-4-10 6-19 5zm25 179c0 2 1 4 1 6 0 12-9 21-19 21-11 0-19-9-19-21v-6c3 8 10 14 19 14 8 0 15-6 18-14zm-41 0c0 2 1 4 1 6 0 12-9 21-19 21-11 0-19-9-19-21 0-2 0-4 1-6 2 8 9 14 18 14 8 0 15-6 18-14zm45 0v6c0 12 8 21 19 21 10 0 19-9 19-21 0-2-1-4-1-6-3 8-10 14-18 14-9 0-16-6-19-14zm-20 31c-1 2-1 5-1 7 0 11 9 20 19 20 11 0 19-9 19-20 0-2 0-5-1-7-2 9-9 15-18 15-8 0-16-6-18-15zm-41 0c0 2-1 5-1 7 0 11 9 20 19 20 11 0 19-9 19-20 0-2 0-5-1-7-2 9-9 15-18 15-8 0-15-6-18-15zm57 30c0 2 1 4 1 7 0 11-9 20-19 20-11 0-19-9-19-20v-7c3 9 10 15 19 15 8 0 15-6 18-15zM374 926c25 17 41 36 47 65 2 9 3 20 2 27-14-15-25-26-45-34l-38-15c-21-9-40-23-54-41v8c0 61 26 113 88 130l41 10c18 5 36 17 47 32 7 9 11 22 14 29-10-6-20-12-32-17-8-3-17-4-27-5h-41c-18 0-35-4-50-12 5 11 11 22 17 33 20 32 57 51 95 46l27-2c20-3 41 2 58 14 11 7 19 18 26 27-22-6-41-11-65-5l-32 9c-13 3-27 4-41 3 8 9 17 18 26 26 20 17 50 21 74 11l30-12c15-7 32-7 47-2 13 5 25 14 33 21-12-1-27-1-42 4-14 4-27 13-41 22-9 5-18 9-28 11 6 3 11 7 17 10 22 11 51 10 72-5l18-12c14-9 31-13 47-10 11 2 24 8 32 11-18 3-37 6-54 23l-8 7c-8 9-17 16-27 21 4 2 9 3 13 5 20 6 43-1 57-17l11-11c10-12 26-19 42-18 10 0 20 4 26 6-13 5-29 13-37 26l-9 15c-4 5-8 11-13 15l9 1c20 2 38-9 49-25 10-17 27-32 48-29 13 2 20 13 20 26 1 16-9 37-16 51-4 9-9 17-13 26-3 6-6 13-8 19s-2 14 3 18c7 4 18-3 23-7-3 10-7 25-7 37 1 15 6 28 19 33 6-20 9-32 11-42 3-13-1-32-2-48 0-25 16-88 20-114 25 4 37 54 63 58-17 16-22 63-25 87-1 18-8 34-23 26-2 16-9 22-17 32-1 1-2 3-3 4l1 2c7 18 28 28 47 25l6-1 2 5c4 9 13 14 23 14 9 0 19-5 23-14l2-5 6 1c18 3 39-7 47-25l1-2c-1-1-2-3-3-4-8-10-15-16-17-32-16 8-22-8-24-26-2-24-7-71-25-87 18-3 32-34 31-50 0-6-5-10-11-9-10 2-21 3-31 3-45 0-80-59-80-103-53 16-143-6-190-31-82-44-130-119-146-172 21 0 47-7 47-36 0-13-14-31-40-42-118-54-188-103-214-210-20 56-15 123 31 166 12 11 26 21 40 31zm631 306c-6 44-9 69 0 113 7 30 16 71 15 90 0 16-5 35-1 48 2 10 5 22 11 42 12-5 18-18 19-33 0-12-4-27-7-37 5 4 16 11 23 7 5-4 4-12 3-18-2-6-5-13-8-19-4-9-9-17-13-26-7-14-17-35-17-51 1-13 8-24 21-26 21-3 38 12 48 29 11 16 29 27 49 25l9-1c-5-4-10-10-13-15l-10-15c-7-13-23-21-36-26 5-2 16-6 25-6 16-1 32 6 43 18l10 11c14 16 37 23 58 17 4-2 9-3 13-5-10-5-19-12-27-21l-8-7c-17-17-37-20-54-23 7-3 21-9 31-11 17-3 34 1 48 10l18 12c20 15 49 16 72 5 5-3 11-7 17-10-10-2-20-6-28-11-14-9-27-18-42-22-14-5-29-5-41-4 8-7 20-16 33-21 15-5 32-5 47 2l29 12c25 10 54 6 75-11 9-8 18-17 26-26-14 1-28 0-42-3l-32-9c-23-6-42-1-65 5 8-9 16-20 27-27 17-12 37-17 58-14l27 2c38 5 75-14 95-46 6-11 12-22 17-33-15 8-32 12-50 12h-41c-10 1-19 2-28 5-12 5-21 11-31 17 2-7 7-20 13-29 12-15 30-27 48-32l41-10c62-17 88-69 88-130v-8c-14 18-33 32-54 41l-38 15c-20 8-31 19-45 34-1-7-1-18 1-27 7-29 23-48 48-65 14-10 28-20 40-31 46-43 51-110 30-166-26 107-96 156-214 210-25 11-40 29-40 42 1 29 26 36 48 36-16 53-64 128-146 172-43 22-138 48-192 31 0 4-1 8-1 12z" fill="#cacbcb"/><defs ><path id="B" d="M1158 980c-2 7-6 14-11 19-7 7-16 11-27 11-10 0-20-4-27-11-5-5-9-12-10-19h6c2 6 5 10 8 14 6 6 14 10 23 10s17-4 23-10c4-4 6-8 8-14h7z"/><path id="C" d="M1089 980c-1 7-5 14-10 19-7 7-17 11-27 11-11 0-20-4-27-11-5-5-9-12-11-19h7c2 6 4 10 8 14 6 6 14 10 23 10s17-4 23-10c3-4 6-8 8-14h6z"/><path id="D" d="M1125 1032c-2 7-6 13-10 18-7 7-17 11-28 11-10 0-20-4-27-11-5-5-8-11-10-18h6c2 5 5 10 9 14 5 5 13 9 22 9s17-4 23-9c4-4 7-9 8-14h7z"/><path id="E" d="M748 980c-2 7-6 14-10 19-7 7-17 11-28 11-10 0-20-4-27-11-5-5-8-12-10-19h6c2 6 5 10 9 14 5 6 13 10 22 10s17-4 23-10c4-4 7-8 8-14h7z"/><path id="F" d="M816 980c-2 7-5 14-10 19-7 7-17 11-27 11-11 0-21-4-28-11-5-5-8-12-10-19h7c1 6 4 10 8 14 6 6 14 10 23 10 8 0 17-4 22-10 4-4 7-8 8-14h7z"/><path id="G" d="M851 1032c-1 7-5 13-10 18-7 7-16 11-27 11s-20-4-27-11c-5-5-9-11-10-18h6c2 5 5 10 8 14 6 5 14 9 23 9s17-4 23-9c4-4 6-9 8-14h6z"/><path id="H" d="M783 1032c-2 7-5 13-10 18-7 7-17 11-27 11-11 0-21-4-28-11-4-5-8-11-10-18h7c1 5 4 10 8 14 6 5 14 9 23 9s17-4 22-9c4-4 7-9 9-14h6z"/></defs></svg>