<?xml version="1.0" encoding="UTF-8" standalone="no"?><svg height="660" viewBox="-300 -300 600 660" width="600" xmlns="http://www.w3.org/2000/svg" xmlns:xlink="http://www.w3.org/1999/xlink"><radialGradient id="a" cx="-80" cy="-80" gradientTransform="matrix(1 0 0 .99983257 0 -.049961)" gradientUnits="userSpaceOnUse" r="405"><stop offset="0" stop-color="#fff" stop-opacity=".31"/><stop offset=".19" stop-color="#fff" stop-opacity=".25"/><stop offset=".6" stop-color="#6b6b6b" stop-opacity=".125"/><stop offset="1" stop-opacity=".125"/></radialGradient><path d="m-298.5-298.50003h597v258.5433c0 286.24794-298.5 398.45673-298.5 398.45673s-298.5-112.20879-298.5-398.45673z"/><g transform="translate(-300 -300.00001)"><path d="m1.5 1.5h597v180h-597z" fill="#2b5df2" stroke="#313131" stroke-width="3"/><g id="b" stroke="#000" stroke-width="1.318526" transform="matrix(1.8965339 0 0 1.895581 42.681703 6.582107)"><path d="m58.4045 30.002563c10.623589.254887 17.913809 18.078823-4.381231 26.779783 7.368673-14.435091-6.304863-9.001593-8.107633 1.487765h-5.281032c2.918357-21.305635 10.964057-28.430837 17.769896-28.267548zm-28.670445 32.879624c-2.689943 6.351212-6.01068 8.985609-9.238913 12.10643 3.618431.01653 7.22029-.678341 10.95801-3.813952.06366 9.674934 1.472102 12.982213 4.833195 16.232778 3.322964-3.148966 4.844408-6.547148 4.833199-16.232778 3.737717 3.135614 7.339689 3.830473 10.95812 3.813952-3.227999-3.120593-6.549187-5.756246-9.239024-12.10643zm6.552292-60.4961189c-10.503711 11.1508859-14.159534 23.8009959-6.200019 40.0840649 2.303855 4.713079 3.408414 10.026686 3.100009 15.799979h6.20002c-.308405-5.773293.796154-11.0869 3.100009-15.799979 7.959518-16.283067 4.303695-28.933179-6.200019-40.0840649zm-22.118147 27.6164959c-10.6235893.254887-17.9138081 18.078824 4.38123 26.779783-7.368672-14.435091 6.304863-9.001593 8.107633 1.487765h5.281032c-2.918357-21.305636-10.964056-28.430837-17.769895-28.267548z" fill="#fcef3c" fill-rule="evenodd" stroke="#000" stroke-width="1.318526"/><path d="m21.701165 58.195878h29.170365v4.760697h-29.170365z" fill="#fcef3c" stroke="#000" stroke-width="1.318526"/></g><use height="100%" transform="translate(188.5)" width="100%" xlink:href="#b"/><use height="100%" transform="translate(377)" width="100%" xlink:href="#b"/></g><g fill="#5ab532" stroke="#313131" stroke-linecap="round" stroke-linejoin="round" stroke-width="1.301238" transform="matrix(1.1515727 0 0 1.1520828 252.00367 10.87303)"><path d="m-108.43035 107.23258c8.42752 5.3089 17.701754 9.1816 26.636053 13.57044 11.339412 5.18223 22.603547 10.64159 34.413651 14.68288.83687-1.58708 1.620499-3.3883 2.298479-4.6246-4.284966-3.52579-10.124201-4.49758-15.149273-6.67791-15.669985-5.70054-31.261829-11.6179-46.71746-17.87784-.70217-.53436-2.60284-.30939-1.48145.92703zm-26.11101-16.07755c2.8569 3.648325 7.87946 4.786038 11.98226 6.646552 26.646489 10.079108 53.688467 19.088128 80.299858 29.257088 2.096136.73587 4.058684 2.15825 1.27914-.34402-2.253858-4.09032-7.71537-5.1046-11.708838-7.12862-17.293393-6.64274-35.087899-11.87677-52.51048-18.16769-8.85375-3.052226-17.65524-6.279057-26.24052-10.006206-.86324-.07522-2.37156-1.047511-3.10142-.257104z"/><path d="m-315.94516-3.77054c2.08688 5.1012 9.49012 8.58825 19.42551 9.44656 6.72381.4772 3.63955-2.4225-5.75716-5.84677-4.41367-1.4111-9.55473-4.07378-11.73758-5.65846-3.84364-2.97911-3.84364-2.97911-1.93077 2.05867z"/><path d="m-409.53415-41.93937c5.37025 7.97246 11.48122 13.72005 23.3328 21.69251 8.70351 5.933 16.29593 10.56815 16.66629 10.19733.74073-.92703-42.59163-41.16014-45.55452-42.27257-1.11109-.37082 1.29626 4.26433 5.55543 10.38273z"/><path d="m-298.04524.51132c4.02063 1.87677 9.15444 3.35576 11.74346 3.44305 3.05977.10311 2.24753-.64977-3.46312-2.8737-4.47016-1.74681-9.81627-4.68393-12.18933-6.50515-4.25417-3.48071-4.25417-3.48071-3.80835-.41856.25476 1.74977 3.46131 4.46971 7.71734 6.35436z"/><path d="m-323.05513-35.66219c2.59254 10.38273 13.33304 29.47955 17.03666 30.22117 3.33325.55622 3.33325.37081.55554-2.78109-4.62953-5.37677-14.6293-25.0298-14.6293-28.73792 0-2.03947-.92591-3.52271-2.03699-3.52271-1.29627 0-1.66663 1.85406-.92591 4.82055z"/><path d="m-434.36234-48.68096c-.0643.36517 3.41169 3.04976 7.76737 6.07791 4.35569 3.02816 9.43027 7.31281 11.11475 9.49286 2.88617 3.89832 19.23584 13.5623 20.76967 12.32695 1.50167-1.05275-19.5583-18.13762-28.46261-23.09838-10.59935-6.01307-10.96409-6.07747-11.18918-4.79934z"/><path d="m-428.39652-34.41711c0 .37081 3.88881 2.41028 8.70351 4.63515 4.81471 2.22487 10.55532 5.56219 12.59231 7.41625 3.51844 3.33731 21.29582 10.01192 22.59208 8.52867 1.29627-1.29784-22.4069-14.46167-32.03631-17.79898-11.48122-4.07893-11.85159-4.07893-11.85159-2.78109z"/><path d="m-345.80579-27.87514c7.03688 12.97842 14.25894 21.50709 17.22183 20.58006 1.48144-.55622-1.85181-5.93299-9.07386-14.64707-6.48134-7.60164-12.03677-14.27626-12.59231-14.83247-.55555-.55622 1.48145 3.52271 4.44434 8.89948z"/><path d="m-336.70533-32.93386c0 2.03946 7.22207 16.13033 11.48122 22.06332 2.40735 3.33731 5.18506 5.19137 8.33314 5.19137 4.62953 0 4.62953 0-2.40735-7.97246-4.07398-4.26434-9.44422-10.75355-12.22194-14.27627-2.77771-3.52272-5.18507-5.74759-5.18507-5.00596z"/><path d="m-353.73109-26.94761c0 2.78109 13.53686 21.32169 15.63412 21.32169.9533 0-1.33462-4.44975-5.33848-9.82652-8.96102-12.2368-10.29564-13.53464-10.29564-11.49517z"/><path d="m-366.51922 24.14383c-12.22194 4.82055-14.81448 6.48921-14.81448 9.08489 0 1.11244 1.29627.92703 3.33326-.74162 1.66663-1.66866 7.7776-3.89353 13.33303-5.19137s12.22195-3.52271 14.81448-4.82056l4.62953-2.41027h-5.55543c-2.9629.1854-10.18496 2.03946-15.74039 4.07893z"/><path d="m-401.22305-7.35152c9.13121 8.31346 39.67052 24.01803 55.1449 28.63883 4.19294 1.23431 10.99609 1.51742 14.84038.70844l7.16654-1.42774-7.07313-3.73624c-11.40874-5.90505-30.14459-18.41336-36.87032-24.44653-7.32712-6.60325-7.08912-4.32231.36529 4.7995 2.91217 3.6741 11.5207 10.00766 19.06852 13.96552 7.61116 4.13207 12.92815 7.91632 12.05808 8.2334-2.26217.82435-23.1495-11.09722-39.03716-22.27579-17.26441-12.2553-17.97645-12.58773-11.55077-4.66947 3.14952 3.7849 8.9732 8.96297 13.19813 11.36943 4.11426 2.64413 6.9311 4.97181 6.06103 5.28887-1.74013.63415-12.56349-5.28694-26.69439-14.34343-3.94024-2.70754-9.30457-6.07993-11.63072-7.5999-2.5635-1.6308-.2687.88713 4.95362 5.49511z"/><path d="m-399.8784-9.94425-7.40724 2.41028 5.55543.92703c2.9629.74162 6.8517.37081 8.70351-.55622 1.66663-.92703 4.99988-1.66866 7.40724-1.85406 4.07398 0 4.07398-.18541.55554-1.66866-4.62952-2.03946-5.74061-2.03946-14.81448.74163z"/><path d="m-390.75133-4.91191c-3.14808 2.41028-2.96289 2.59569 3.8888 1.48325 4.07398-.55622 9.99978-1.66865 12.96267-2.41028 4.81471-1.29784 4.44435-1.48325-3.8888-1.66865-5.55543-.18541-10.7405.92703-12.96267 2.59568z"/><path d="m-436.75626-24.40568c30.55486 5.56218 91.84978 26.14225 88.14616 29.66496-.92591.92703-18.14774-3.33731-20.5551-5.00596-.9259-.92703-9.99977-.55622-19.99954.74162-18.70328 2.03947-21.85136 3.70812-21.481 11.30977.18518 3.70812.18518 3.70812 1.11109 0 1.66663-6.86002 4.44434-8.34327 14.99966-8.34327 11.48122 0 42.96199 4.63515 56.85056 8.34327 18.5181 5.19137 19.07365 5.19137 12.96267 1.85406-7.96278-4.44975-19.99954-12.60761-22.22172-15.01789-4.07398-4.63515-77.96119-25.02981-88.70169-24.659-4.99989.37082-5.18507.37082-1.11109 1.11244z"/><path d="m-422.7086-14.52639c-2.22217 1.66865-4.62953 5.56218-5.18507 8.71408-1.11109 5.37677-1.11109 5.37677 1.85181 1.85406 7.7776-9.82652 8.33314-10.19733 17.96255-10.38274 7.77761-.1854 8.88869-.55622 5.18507-1.66865-7.7776-2.41028-15.5552-1.85406-19.81436 1.48325z"/><path d="m-328.31899-3.08447c1.48145 2.59568 15.92557 9.82652 17.03665 8.71408.55555-.55622-1.11108-2.03947-3.33326-3.33731-2.40735-1.29784-5.55543-3.33731-6.85169-4.82055-2.9629-2.78109-8.51833-3.33731-6.8517-.55622z"/><path d="m-327.20485 14.53066c1.48145 2.59568 15.92557 9.82651 17.03665 8.71408.55555-.55622-1.11108-2.03947-3.33325-3.33731-2.40736-1.29784-5.55543-3.33731-6.8517-4.82056-2.9629-2.78109-8.51833-3.3373-6.8517-.55621z"/><path d="m-347.90764-7.54502c.26644-.25756 4.43308 1.1265 9.37618 3.04861 4.94311 1.9221 11.32851 3.73826 14.07563 3.91738 4.84188.21572 21.98659 8.38266 21.82136 10.34656-.032 1.83518-25.95536-6.09185-35.04222-10.70873-10.90621-5.43552-11.16349-5.7022-10.23095-6.60382z"/><path d="m-317.2353 6.00508c-3.45459 1.33672-6.92874 3.75438-8.00818 5.48393-1.2757 2.04403-.19609 2.06358 4.25951-.17727 3.49384-1.74945 8.53842-3.18457 11.30608-3.42068 5.18206-.25597 5.18206-.25597 1.88419-2.31923-1.88452-1.17901-5.88886-1.06071-9.4416.43325z"/><path d="m-338.56119 19.31095c-10.5543 9.47681-12.88828 16.08454-9.5076 25.90178l2.92287 8.40664-.81392-8.50787c-1.25836-11.67735 1.88564-16.989 14.66334-26.21438 6.00578-4.29314 10.77873-8.18523 10.66429-8.5379-.62945-1.93964-12.56159 3.8915-17.92898 8.95173z"/><path d="m-403.89919-56.48068c5.74061 10.93896 29.07342 36.15417 42.03609 45.79529 3.51844 2.59568 9.81459 5.19136 13.70339 5.74758l7.22206 1.11244-5.37025-5.93299c-8.7035-9.45571-22.03654-27.6255-26.2957-35.59796-4.62952-8.71408-5.18507-6.48921-1.29627 4.63515 1.48145 4.44975 7.40724 13.34924 13.14785 19.65304 5.74062 6.48921 9.44424 11.86598 8.51833 11.86598-2.40735 0-17.96256-18.35519-29.07342-34.30011-12.03676-17.42816-12.5923-17.98438-9.25905-8.34327 1.66663 4.63515 5.37025 11.49518 8.51833 15.2033 2.9629 3.89352 4.81471 7.04542 3.8888 7.04542-1.85181 0-9.99977-9.2703-20.18473-22.61953-2.77771-3.89352-6.66651-8.89949-8.33314-11.12436-1.85181-2.41028-.55555.74163 2.77771 6.86002z"/><path d="m-344.16576-4.56724c0 1.29784 2.77771 4.63515 6.11097 7.23084 9.8146 7.41624 35.92512 19.83844 39.25837 18.5406 2.037-.74163-1.11108-2.78109-9.99977-6.1184-15.5552-6.1184-29.81414-14.27626-29.81414-17.05735 0-1.48325 6.11097-1.66866 21.29581-.74163 22.77727 1.29784 29.62896-1.29784 8.88869-3.1519-21.85136-2.22487-35.73993-1.66865-35.73993 1.29784z"/><path d="m-393.05354 15.2712c-7.96279 1.85406-12.22195 4.63515-12.22195 7.97246 0 1.29784.74072 1.11244 1.66663-.37081 1.48145-2.41028 16.66629-6.86002 18.14774-5.37677.37036.37081-.18518 3.1519-1.29627 5.93299s-1.48145 5.56218-.92591 6.1184c.55555.74162 1.48145-.74163 2.037-2.78109 2.22217-7.97246 9.07386-10.38274 25.55497-8.89949 8.33315.74162 17.5922 1.66865 20.55509 1.85406 3.14808.1854 7.40724 1.29784 9.62942 2.59568 4.8147 2.59569 23.51798 2.78109 21.85135.18541-.55554-.92703-4.07398-2.22487-7.96278-2.78109-3.70362-.55622-11.48122-2.41028-17.22183-3.89353-11.48122-2.96649-48.14706-3.33731-59.81346-.55622z"/><path d="m-325.43118 36.67262c-13.95666-2.49248-20.59423-.26582-26.2396 8.44555l-4.81698 7.48169 6.19506-5.88012c8.41602-8.18209 14.53219-8.97175 29.65982-4.57028 7.0765 2.09526 13.07828 3.46476 13.28538 3.15734 1.13904-1.69079-10.79651-7.5148-18.08368-8.63418z"/><path d="m-343.50334 31.5073c-25.74016 7.04543-28.70306 9.64111-24.99944 21.32169 1.48145 4.44974 1.48145 4.26434 1.66663-1.48325.18518-3.1519 1.85181-7.60164 3.70362-9.4557 3.33326-3.33731 18.33292-7.60165 36.66584-10.56815 4.44435-.55621 7.40724-1.85406 6.8517-2.78109-1.48145-2.41027-7.40724-1.66865-23.88835 2.9665z"/><path d="m-321.62662 40.56581c-12.96267 5.74759-17.22183 11.30977-17.03665 21.6925l.18518 8.89949 1.85181-8.34327c2.40735-11.49517 7.03688-15.5741 22.03654-20.39466 7.03687-2.22487 12.77749-4.44974 12.77749-4.82055 0-2.03947-13.14786-.18541-19.81437 2.96649z"/><path d="m-324.08692 56.4836c-2.22217 2.9665-3.8888 6.86002-3.8888 8.89949 0 2.41028.92591 1.85406 3.51844-2.41028 2.03699-3.33731 5.55543-7.23083 7.7776-8.89949 4.25916-2.96649 4.25916-2.96649.37036-2.96649-2.22217 0-5.55543 2.22487-7.7776 5.37677z"/><path d="m-139.95095 102.99719c14.03778 8.08199 28.88318 14.66547 43.294973 22.0485 12.901599 6.30753 25.6828 13.11712 36.641042 22.54034 2.062472 1.77356 5.662739 5.06638 6.816094.93492 3.004291-3.15389-3.468775-4.06339-5.672433-5.43229-16.390199-10.1815-33.20275-19.71385-50.585326-28.13832-10.2516-5.09859-20.18158-10.91048-30.70875-15.415501-4.60231-1.368534-1.76317 2.470461.2144 3.462351zm3.98065-4.35827c14.44106 7.33537 29.61019 13.13191 44.388165 19.74966 13.369038 5.68856 26.60655 11.86262 38.56593 20.19527 2.374695 1.69279 5.5673 3.58332 6.416191-.30466 2.37856-3.25446-4.447849-3.86278-6.779813-5.09878-17.97126-9.52521-36.583739-17.79918-55.250913-25.89149-9.24636-4.01794-18.24679-8.679439-27.73465-12.096375-4.66736-1.125537-1.63186 2.559339.39509 3.446375zm3.52683-4.78263c14.688 6.82631 30.04988 12.08927 45.049532 18.18662 13.741082 5.27543 27.275177 11.15393 39.99128 18.60755 2.568591 1.78823 5.219683 2.30825 5.937671-1.23664 1.597784-3.18923-5.296786-3.65779-7.796926-4.81926-21.109149-9.8065-42.938235-17.98045-64.504717-26.736865-6.62025-2.521539-13.01556-5.808084-19.89548-7.546249-3.9992-.368217-.1692 3.060749 1.21864 3.544844zm3.74485-3.79662c15.02477 6.047332 30.640633 10.49809 45.93845 15.80111 14.158998 4.59852 28.058576 9.94174 41.716978 15.85456 2.81751 1.76326 4.768139.9365 5.392462-2.2003.592769-3.0134-6.514295-2.55975-8.908764-4.25674-27.209395-8.73428-54.11732-18.363663-81.144676-27.632447-2.07041-1.402574-8.89726-1.550985-4.46066 1.598717l.67775.414874zm8.63732-7.98725c15.49416 4.71328 31.437897 7.784402 47.13914 11.732333 15.253128 3.489452 30.237207 8.173757 45.626453 11.036757 2.626592 1.05171 2.20841-2.76561 3.195754-4.33225-3.667803-1.324438-8.615241-1.811703-12.788696-2.750171-20.005332-3.56228-39.873004-7.859491-59.497624-13.139186-8.213947-1.966716-16.320877-4.51443-24.661827-5.872792-4.79103-.297227-1.16413 2.803824.9868 3.325309zm-3.81466 4.62582c15.32037 5.251769 31.147401 8.878149 46.701459 13.37231 14.75484 3.9312 29.218471 8.86458 43.896647 13.041 3.041719 1.79835 3.465457-1.2313 4.28409-3.42923-1.538365-2.27407-7.606173-2.1501-10.875887-3.48481-23.804044-5.52937-47.340161-12.111892-70.736949-19.151991-5.12424-1.280299-10.1341-3.445688-15.43998-3.720449-3.2005.619784 1.20808 3.065726 2.17062 3.37317z"/></g><path d="m11.467936 175.82972 6.834853 4.86836c9.798485 6.80745 15.186786 16.26938 14.653147 26.03394l-.361972 8.06434 3.21648-7.93428c3.518564-8.30327 3.034163-20.87625-1.121844-30.18821l-2.424668-5.42978 7.699855 3.34334c11.002835 4.6281 18.247564 12.76413 19.760653 22.42913l1.326783 7.96349 1.491796-8.43068c1.710045-8.85272-1.382673-21.04614-7.391116-29.29231l-3.503925-4.81129 8.229503 1.67367c11.726775 2.24569 20.508548 8.70273 24.004491 17.84349l2.95831 7.51488-.299427-8.55677c-.171669-9.01331-5.740955-20.30023-13.33568-27.12094l-4.430144-3.97909 8.39851-.0677c11.93837-.23492 21.875253 4.25913 27.199669 12.47746l4.4581 6.73443-2.07468-8.3059c-2.04673-8.77709-9.846389-18.66375-18.697363-23.76038l-5.163399-2.97437 8.201556-1.80637c11.628296-2.70892 22.285136-.37031 29.205146 6.56191l5.76492 5.66335-3.7621-7.69406c-3.8313-8.16258-13.52199-16.21765-23.241956-19.36721l-5.670424-1.83426 7.64529-3.46943c10.80854-5.05946 21.71956-4.98247 29.93441.36103l6.82155 4.34674-5.28316-6.74774c-5.45087-7.19097-16.60806-13.057407-26.77251-14.12185l-5.92726-.619823 6.75501-4.979811c9.51768-7.188386 20.20646-9.379664 29.35552-5.85316l7.57875 2.834994-6.57401-5.50278c-6.83086-5.902267-18.96752-9.329218-29.13197-8.262095l-5.92726.619813 5.56795-6.271242c7.81165-9.005367 17.81107-13.362709 27.49512-11.809826l8.00326 1.199836-7.57874-4.0176c-7.91146-4.357342-20.49658-5.192166-30.21654-2.042627l-5.670432 1.835585 4.138702-7.286567c5.76358-10.429522 14.63585-16.764459 24.43168-17.256871l8.0791-.483114-8.25077-2.358522c-8.64736-2.62131-21.13137-.826876-29.982331 4.267098l-5.163401 2.973031 2.53113-7.987372c3.464003-11.395741 10.820512-19.4308817 20.300942-21.9433538l7.80232-2.14882201-8.56219-.59593892c-9.00533-.77244578-20.842569 3.56897013-28.437293 10.38968973l-4.430143 3.979092.81044-8.3364354c1.011388-11.8682411 6.532768-21.2518796 15.282603-25.6769226l7.183513-3.717608-8.499648 1.190527c-8.969413 1.112245-19.642215 7.814827-25.649327 16.0610185l-3.503925 4.8112722-.944851-8.3231775c-1.483812-11.8151372 1.958899-22.1437782 9.594877-28.2822842l6.250641-5.127156-8.065816 2.92658c-8.540904 2.94782-17.582177 11.716936-21.739514 21.028899l-2.424667 5.43374-2.660219-7.946234c-3.915135-11.249735-2.698806-22.065463 3.490619-29.653326l5.046294-6.31103-7.279332 4.533837c-7.739777 4.654655-14.756945 15.106721-16.88219 25.076989l-1.23895 5.817345-4.258476-7.2189c-6.174788-10.195915-7.239407-21.023597-2.768008-29.731687l3.619705-7.218842-6.17479 5.943372c-6.600635 6.159768-11.2849594 17.840866-11.2849594 28.032786v5.944746l-5.6704255-6.178329c-8.1629637-8.688155-11.4619514-19.063246-8.9042041-28.506571l2.0334213-7.813522-4.8000986 7.098141c-5.1727147 7.390072-7.3192527 19.786563-5.1940067 29.759487l1.237619 5.814668-6.833523-4.868337c-9.798485-6.807438-15.186785-16.269378-14.653146-26.03794l.36064-8.064337-3.216479 7.93829c-3.517234 8.303243-3.032832 20.872244 1.121842 30.184208l2.424669 5.433763-7.699855-3.344674c-11.002833-4.626774-18.247564-12.764113-19.760653-22.427797l-1.326781-7.963477-1.490466 8.429338c-1.710044 8.850075 1.381343 21.047471 7.391115 29.293649l3.502596 4.808626-8.228173-1.674991c-11.726775-2.244382-20.508547-8.70011-24.004488-17.842185l-2.95831-7.513531.299423 8.55542c.17167 9.013336 5.740957 20.300248 13.335681 27.1196382l4.430143 3.97908264-8.398509.0676556c-11.938368.23623921-21.875254-4.25915054-27.199675-12.47347744l-4.45942-6.73709 2.076 8.30456c2.04673 8.7810694 9.846395 18.6677324 18.697368 23.764362l5.16207 2.97302-8.200225 1.806389c-11.628303 2.706256-22.285123.371628-29.205153-6.560574l-5.76622-5.6646887 3.76207 7.6940347c3.83263 8.163902 13.52332 16.214982 23.243294 19.364542l5.670426 1.838241-7.6453 3.468088c-10.80986 5.060804-21.72088 4.982478-29.93574-.362334l-6.82154-4.345411 5.28316 6.745071c5.45085 7.191021 16.60805 13.057452 26.7725 14.123235l5.928593.622479-6.755003 4.977176c-9.51903 7.19101-20.20779 9.378315-29.35685 5.853161l-7.57876-2.83369 6.57402 5.501441c6.83086 5.904925 18.96751 9.32923 29.13196 8.263434l5.92859-.619823-5.56928 6.268586c-7.81165 9.008034-17.81108 13.362719-27.49511 11.812505l-8.00327-1.202492 7.57874 4.020232c7.91278 4.358685 20.49792 5.192195 30.21788 2.04264l5.670423-1.836914-4.140023 7.289229c-5.76358 10.42817-14.63586 16.76445-24.43168 17.25421l-8.0791.48177 8.25076 2.36119c8.64737 2.62131 21.13137.82688 29.982337-4.26841l5.163401-2.97439-2.5298 7.98739c-3.464003 11.3984-10.820518 19.43486-20.300948 21.94601l-7.80231 2.14882 8.56219.59727c9.00533.76979 20.842564-3.57296 28.437289-10.39367l4.430144-3.9791-.810441 8.34042c-1.011388 11.86425-6.532766 21.25054-15.282603 25.67291l-7.183519 3.72028 8.499654-1.18919c8.969413-1.11224 19.642216-7.81881 25.649327-16.065l3.503926-4.80861.94618 8.32448c1.483813 11.81514-1.96023 22.1398-9.596207 28.28098l-6.251973 5.12715 8.065817-2.92657c8.540903-2.94649 17.583509-11.71961 21.740844-21.03024l2.42334-5.43109 2.660215 7.94225c3.915134 11.25372 2.698809 22.06547-3.490619 29.65599l-5.046291 6.31238 7.279328-4.53652c7.739779-4.65333 14.756948-15.10804 16.882193-25.07833l1.23895-5.81466 4.258473 7.22023c6.174789 10.19324 7.239407 21.02358 2.76801 29.73031l-3.619703 7.22022 6.174787-5.94739c6.600637-6.15577 11.2849579-17.83686 11.2849579-28.03011v-5.94607l5.6704247 6.17965c8.1629641 8.6895 11.4619512 19.06324 8.9055355 28.50661l-2.0360832 7.8135 4.8000996-7.09812c5.1727155-7.39275 7.3192535-19.78659 5.1953395-29.75819l-1.238949-5.81467" fill="#fcef3c" stroke="#313131" stroke-linecap="round" stroke-linejoin="round" stroke-width="3"/><path d="m-298.5-298.5h597v258.5c0 286.2-298.5 398.39-298.5 398.39s-298.5-112.19-298.5-398.39z" fill="url(#a)" height="100%" stroke-width=".999916" transform="matrix(1 0 0 1.0001675 0 .04997)" width="100%"/><path d="m-298.5-298.50001h597v258.502973c0 286.203287-298.5 398.394577-298.5 398.394577s-298.5-112.19129-298.5-398.394577z" fill="none" stroke="#313131" stroke-width="3"/></svg>