<?xml version="1.0" encoding="UTF-8"?>
<!-- Created with Inkscape (http://www.inkscape.org/) -->
<svg id="svg2278" width="1e3" height="600" version="1.0" xmlns="http://www.w3.org/2000/svg" xmlns:cc="http://creativecommons.org/ns#" xmlns:dc="http://purl.org/dc/elements/1.1/" xmlns:rdf="http://www.w3.org/1999/02/22-rdf-syntax-ns#" xmlns:xlink="http://www.w3.org/1999/xlink">
 <metadata id="metadata183">
  <rdf:RDF>
   <cc:Work rdf:about="">
    <dc:format>image/svg+xml</dc:format>
    <dc:type rdf:resource="http://purl.org/dc/dcmitype/StillImage"/>
   </cc:Work>
  </rdf:RDF>
 </metadata>
 <defs id="defs2280">
  <clipPath id="XMLID_69_">
   <rect id="use2836" x="77.2" y="75.1" width="359.3" height="240.2"/>
  </clipPath>
  <clipPath id="XMLID_68_">
   <path id="use2674" d="m256.9 510.1c-99.2 0-179.7-80.4-179.7-179.6h359.3c0 99.1-80.4 179.6-179.6 179.6"/>
  </clipPath>
  <clipPath id="XMLID_67_">
   <path id="use2628" d="m256.9 510.1c-99.2 0-179.7-80.4-179.7-179.6v-255.4h359.3v255.2c0 99.3-80.4 179.8-179.6 179.8"/>
  </clipPath>
 </defs>
 <rect id="rect2376" width="1e3" height="300" fill="#fcd116"/>
 <rect id="rect2378" y="300" width="1e3" height="300" fill="#000000"/>
 <g id="g972">
  <g stroke-width="1.00538">
   <rect id="rect2610" x="376.206" y="150.013" width="247.725" height="165.61" fill="#fcd116"/>
   <rect id="rect2612" x="378.206" y="168.56" width="243.588" height="16.3403"/>
   <rect id="rect2614" x="378.206" y="201.241" width="243.588" height="16.3403"/>
   <rect id="rect2616" x="378.206" y="268.119" width="243.588" height="16.3403"/>
   <rect id="rect2618" x="378.206" y="234.197" width="243.588" height="16.3403"/>
   <rect id="rect2620" x="378.206" y="300.524" width="243.588" height="16.3403"/>
  </g>
  <g id="g2622" transform="matrix(.689466 0 0 .689466 322.98 98.2346)">
   <defs id="defs2624">
    <path id="XMLID_60_" d="m256.9 510.1c-99.2 0-179.7-80.4-179.7-179.6v-255.4h359.3v255.2c0 99.3-80.4 179.8-179.6 179.8"/>
   </defs>
   <clipPath id="clipPath2926">
    <use id="use2928" width="744.09448" height="1052.3622" xlink:href="#XMLID_60_"/>
   </clipPath>
   <rect id="rect2630" x="77.2" y="315.3" width="359.3" height="194.8" clip-path="url(#XMLID_67_)" fill="#ffffff"/>
  </g>
  <path id="path2632" d="m500.103 449.931c-68.395 0-123.897-55.433-123.897-123.828v-176.09h247.725v175.952c0 68.464-55.433 123.966-123.828 123.966z" fill="none" stroke="#ffffff" stroke-miterlimit="3.864" stroke-width=".0268891"/>
  <g stroke-width="1.00538">
   <rect id="rect2634" x="547.056" y="150.703" width="76.9444" height="84.1148"/>
   <rect id="rect2636" x="547.677" y="150.013" width="76.2549" height="84.1148" fill="#ffffff"/>
   <path id="path2638" d="m593.595 179.523c-4.41258 0.069-3.72312-3.51627-3.17155-6.20518 0.55157-2.68893 1.37893-4.20575 1.65472-6.41204 0.20685-1.37893-0.34473-1.9305-1.24103-2.27524-1.24105-0.48262-1.72367-0.48262-2.82682-0.75841-1.51683-0.41367-2.41312-1.30998-3.86101-1.10314-0.48262 0.069-0.68947 0.48262-0.96525 0.89631-0.48263-0.069-1.24104-0.1379-2.27523-0.069-1.24105 0-2.41314 0.34473-2.96471 1.10314s-0.68946 1.58577-0.82736 2.41313c-0.069 0.82736-0.27579 1.30999-0.41368 2.13734 0.68947-0.48262 1.93051-1.24103 2.75787-1.24103 0.68946 0 1.03419 0.069 1.65472 0.34473-0.62053 0.41368-2.27524 1.1721-3.86101 1.37894-1.10315 0.13788-1.72367 0.13788-2.82682 0-0.41367-0.069-0.8963 0-1.03419 0.41367-0.34474 0.89631 2.61996 1.99945 4.48153 1.86156 0.75841-0.069 1.17208-0.13789 1.9305-0.48263-0.1379 0.34474-0.41368 0.62052-0.75842 1.0342-0.13788 0.20685-0.20683 0.34473-0.41367 0.55157 0.89631-0.20684 1.86155 0.1379 3.65417-1.37893 0.68946-0.55156 1.10315-0.8963 1.65472-1.65471-0.1379 1.51682-0.27579 2.41313-0.82736 3.861-0.55157 1.51683-1.03421 2.75787-1.86157 3.79207-0.96524 1.10314-2.9647 1.7926-4.48152 1.72366-2.82681-0.069-5.51572-3.03365-5.44678-5.92941 0.069-3.03364 1.99945-6.54992 2.75786-8.41148 0.34473-0.96525 0.75842-2.89575 0-3.37838-1.58577-0.96525-4.96415-1.0342-7.17044-1.0342-4.27469 0-5.51573 0.13789-9.65253 0.20684-2.41312 0.069-3.79205 0.069-6.20518 0.13789 0.13789 3.51627 1.99945 5.58468 5.23994 6.2052 2.13734 0.41367 5.51572 0.34472 7.8599 0.48262 0.41369 0 3.03365-0.069 3.03365 0.41368 0 0.27578-0.8963 0.34473-1.17208 0.34473-2.48208 0.1379-4.1368 0.20684-7.03256 0.20684h-7.65307c0.069 1.44788 0.27579 2.55103 1.30999 3.86101 1.58577 1.86156 4.68836 2.20629 6.54992 2.20629 1.9305 0.069 3.37838-0.069 4.82626 0 1.0342 0.069 2.55103 0.20685 2.48208 0.48263 0 0.41368-1.10314 0.34473-1.99945 0.34473-4.41258 0.069-9.79041-0.069-13.7893-0.069 0 1.44787 0.27579 3.03365 1.51683 4.34363 1.37893 1.51682 4.06785 1.99945 5.99835 2.13734 2.82681 0.069 4.96416-0.13789 7.9978 0 0.20684 0 0.62053-0.069 0.62053 0.069 0 0.13789-0.34474 0.20684-0.62053 0.20684-2.89576 0.41368-4.96415 0.75841-8.1357 1.10314-2.89575 0.34474-4.48152 0.55158-7.37728 0.82736 0.55158 2.13734 1.44788 3.51627 3.37839 4.55048 1.51682 0.75841 3.24048 0.96525 5.51572 0.8963 3.30944-0.13789 6.0673-0.75841 9.65252-1.17209 0.34474-0.069 0.89631-0.20684 0.89631-0.069 0 0.069-0.34473 0.20683-0.62052 0.27578-2.75786 0.82736-5.51573 1.72367-9.032 2.68892-3.92996 1.10314-6.13625 1.65471-10.1352 2.61997 3.30943 3.44732 4.82626 4.41258 6.54993 4.55047 2.20629 0.1379 5.23994-1.30998 8.34253-2.75786 1.99945-0.96525 3.79207-1.79261 5.65362-2.68892 0.20684-0.069 0.48263-0.20683 0.48263-0.13789 0.069 0.069-0.27579 0.27579-0.48263 0.41368-2.9647 1.79262-5.58467 3.1026-9.032 5.23994-2.27524 1.44788-3.51628 2.20629-5.79151 3.72312 2.20629 0.82735 4.1368 1.79261 6.68781 1.79261 1.51683 0 2.75786-0.27579 3.99891-1.24104 1.24103-0.96526 2.34418-2.13735 3.86101-3.51628 1.44788-1.30998 2.06839-2.06839 3.65417-3.51627 0.20683-0.13789 0.55157-0.55158 0.62051-0.48263 0.069 0.13789-0.27579 0.41368-0.48263 0.62052-2.27523 2.89576-3.79205 4.61942-6.54992 7.92886 2.89575 0.069 4.41258 0 6.82571-0.96526 2.9647-1.24103 4.20575-2.61996 5.92941-4.82625 0.20684-0.27579 0.20684 0.34473 0.13789 0.62052-0.27579 0.8963-2.27524 2.68891-3.58522 3.72311-1.93051 1.44788-4.06785 2.68891-6.20519 3.92995 0.41368 0.069 0.62051 0.13789 1.0342 0.34473 0.34473 0.1379 0.48262 0.2758 0.75841 0.55158-1.0342 0.8963-1.86156 1.86156-2.89575 2.55102-1.03421 0.68947-2.06841 0.96526-3.2405 1.0342-0.96525 0.069-1.37893 0.069-2.34418 0-0.34473-0.069-0.75841-0.13789-1.17209-0.13789-0.20684 0-0.27579 0.20683-0.41368 0.41368-0.34473 0-0.55157 0.069-0.82736 0.20684-0.75842 0.34473-1.30998 0.82736-1.37893 1.72367-0.069 0.75841 0.20684 1.37893 0.82736 1.7926 0.069-0.48262 0.20684-0.82736 0.62051-1.10314 0.20685-0.13789 0.41369-0.20684 0.68947-0.27579 0 0.20684 0.34474 0.27579 0.62052 0.27579 0.27579 0 0.55158-0.13789 0.8963-0.20684 0.34474-0.069 0.55158-0.069 0.96526-0.1379-0.89631 0.55157-1.58577 0.96526-2.27524 1.44788-0.27579 0.20684-0.48262 0.27579-0.55157 0.62052-0.069 0.20684 0 0.34474 0.1379 0.62052-0.34474 0.62052-0.48264 1.30999-0.27579 2.0684 0.20684 0.75841 1.10314 1.37893 2.20629 1.65471-0.20685-0.55157-0.20685-0.82735-0.20685-1.30998 0-0.27578 0.069-0.41368 0.1379-0.68947 0.27579 0.069 0.48262 0 0.68946-0.20684 0.34474-0.41367 0.55157-0.62052 0.89631-1.03419 0.41368-0.48263 0.62052-0.75841 1.0342-1.1721-0.20684 0.75841-0.34473 1.1721-0.55158 1.93051-0.20683 0.62052-0.34472 0.75841-0.48262 1.65472 0 0.20683 0.1379 0.34473 0.34473 0.48262 0 1.24104 0.34474 1.86156 1.24104 2.41314 0.75842 0.41367 2.20629 0.55157 3.03365 0.34472-0.68946-0.27578-1.10315-0.62051-1.44787-1.30998-0.20685-0.34474-0.27579-0.55157-0.34474-0.96525 0.27579-0.069 0.48263-0.1379 0.55157-0.62052 0.13789-0.96526 0.20684-1.44788 0.34474-2.34419 0.069-0.55157 0.27579-1.51682 0.41367-1.44787 0.34474 0.41368 0.62053 0.82736 1.0342 1.44787 0.20685 0.34474 0.41368 0.48264 0.75842 0.41369 0.20684-0.069 0.27579-0.1379 0.41367-0.27579 0.20684 0.20684 0.27579 0.34474 0.34474 0.62052 0.069 0.41368 0 0.62051-0.20684 1.10314 0.96525 0.1379 1.93051-0.27578 2.20629-1.17209 0.34473-1.03419-0.20684-2.13734-0.68947-2.61997 0.20684-0.41368 0-0.75841-0.27578-1.0342-0.75841-0.75841-1.37894-0.96524-1.51682-1.17209-0.34474-0.41368-0.20685-0.68946 0-1.0342 0.48262-0.68946 0.68946-0.96525 1.24103-1.44788 0.55157-0.55157 0.89631-0.82736 1.51683-1.17208 0.34472 0.34472 0.55157 0.55157 0.82736 0.89629 0.34472 0.41369 0.48262 0.68948 0.75841 1.1721 0.41367-0.75841 0.68946-1.1721 1.24103-1.86156 0.62052-0.82735 0.96526-1.30998 1.65472-2.0684 0.68947-0.68946 1.58578-1.44787 1.72367-1.65472 0.20683-0.27578 0.55157 0.62053 0.75841 1.1721 0.20684 0.48262 0.069 0.82736 0 1.37893-0.55158 2.20629-2.13735 5.72256-3.51628 8.1357-1.99945 3.44732-4.48153 6.20519-7.17044 9.23884 1.0342 0.41368 2.41313 0.55157 3.99891 0.48262 1.51682-0.069 3.17153-0.27579 4.82625-0.68946 0.82736 0.96525 1.30998 1.44788 2.20629 2.27524 1.1721 1.0342 1.86156 1.51682 3.1026 2.34418 1.24103-0.82736 1.99945-1.37893 3.1026-2.34418 0.96525-0.82736 1.44787-1.30999 2.27523-2.27524 1.65472 0.34474 3.30943 0.55157 4.82626 0.68946 1.51682 0.069 2.9647-0.069 3.92996-0.48262-2.68892-3.1026-5.171-5.86046-7.17044-9.23884-1.37893-2.41314-2.96471-5.92941-3.51629-8.1357-0.13788-0.55157-0.20683-0.89631 0-1.37893 0.20685-0.55157 0.55158-1.51682 0.75842-1.1721 0.20684 0.20685 1.10315 0.96526 1.79261 1.65472 0.68947 0.75842 1.03421 1.24105 1.65472 2.0684 0.48262 0.68946 0.75841 1.10315 1.24104 1.86156 0.27579-0.48262 0.41368-0.75841 0.75841-1.1721 0.27579-0.34472 0.48262-0.55157 0.82736-0.89629 0.62052 0.41367 0.96525 0.68946 1.51682 1.17208 0.55157 0.55157 0.75842 0.75842 1.24104 1.44788 0.20684 0.34474 0.34474 0.55157 0 1.0342-0.1379 0.20685-0.82736 0.41368-1.51683 1.17209-0.27577 0.27579-0.41367 0.62052-0.27577 1.0342-0.48264 0.41368-1.03421 1.51683-0.68947 2.61997 0.27578 0.89631 1.24104 1.30999 2.20629 1.17209-0.20684-0.48263-0.27579-0.68946-0.20684-1.10314 0.069-0.27578 0.13789-0.41368 0.34472-0.62052 0.069 0.13789 0.20685 0.27579 0.41369 0.27579 0.34473 0.069 0.55157-0.1379 0.75841-0.41369 0.41368-0.62051 0.68947-1.03419 1.0342-1.44787 0.13789 0 0.34473 0.8963 0.41368 1.44787 0.1379 0.96526 0.20684 1.44788 0.34474 2.34419 0.069 0.41368 0.27578 0.55157 0.55157 0.62052-0.069 0.41368-0.1379 0.62051-0.34474 0.96525-0.34473 0.68947-0.75841 1.0342-1.44788 1.30998 0.82736 0.1379 2.27524 0 3.03365-0.34472 0.89631-0.48264 1.30998-1.1721 1.24104-2.41314 0.27579-0.069 0.41368-0.20684 0.34473-0.48262-0.13789-0.82736-0.27579-0.96525-0.48262-1.65472-0.20684-0.75841-0.34474-1.1721-0.55158-1.93051 0.41369 0.48263 0.62053 0.68947 1.0342 1.1721 0.34474 0.41367 0.55158 0.62052 0.82737 1.03419 0.20684 0.27579 0.41367 0.27579 0.68946 0.20684 0.069 0.27579 0.13789 0.41369 0.13789 0.68947 0 0.48263 0 0.82736-0.20684 1.30998 1.0342-0.27578 1.9305-0.8963 2.13734-1.65471 0.27579-0.75841 0.069-1.44788-0.27578-2.0684 0.13789-0.27578 0.20684-0.48263 0.13789-0.62052-0.069-0.34473-0.27578-0.41368-0.55157-0.62052-0.68947-0.48262-1.44788-0.89631-2.27524-1.44788 0.41369 0.069 0.62052 0.069 0.96526 0.1379 0.34472 0.069 0.62051 0.20684 0.8963 0.20684 0.27578 0 0.55157 0 0.62052-0.27579 0.27578 0 0.48262 0.069 0.68947 0.27579 0.41367 0.27578 0.62051 0.62052 0.62051 1.10314 0.62052-0.41367 0.89631-1.03419 0.82736-1.7926-0.069-0.82736-0.62051-1.31-1.37893-1.72367-0.34473-0.1379-0.48263-0.20684-0.82736-0.20684-0.069-0.20685-0.20684-0.48263-0.41368-0.41368-0.41368 0.069-0.7584 0.13789-1.17209 0.13789-0.89631 0.13789-1.37893 0.13789-2.34418 0-1.17209-0.069-2.20629-0.34473-3.30943-1.0342-1.10315-0.68946-1.86157-1.72366-2.89577-2.55102 0.27579-0.27578 0.41369-0.41368 0.75841-0.55158 0.34474-0.20684 0.62053-0.27578 1.03421-0.34473-2.13735-1.24104-4.27469-2.48207-6.2052-3.92995-1.30998-1.0342-3.30943-2.82681-3.58522-3.72311-0.069-0.27579-0.069-0.89631 0.1379-0.62052 1.72366 2.20629 2.9647 3.65417 5.9294 4.82625 2.41313 0.96526 3.92996 1.03421 6.82571 0.96526-2.75786-3.30944-4.27468-5.0331-6.54992-7.92886-0.20684-0.20684-0.55158-0.55158-0.48263-0.62052 0.069-0.069 0.41368 0.27579 0.62053 0.48263 1.65471 1.44788 2.27522 2.20629 3.72311 3.51627 1.44788 1.37893 2.61997 2.55102 3.861 3.51628 1.1721 0.96525 2.41313 1.24104 3.99891 1.24104 2.55102-0.069 4.48152-0.96526 6.68782-1.79261-2.2063-1.51683-3.51628-2.27524-5.79152-3.72312-3.44733-2.13734-5.99835-3.44732-9.032-5.23994-0.20684-0.13789-0.55157-0.27579-0.48262-0.41368 0-0.069 0.27578 0.069 0.48262 0.13789 1.86155 0.82736 3.65417 1.72367 5.72257 2.68892 3.10259 1.44788 6.06729 2.96471 8.34253 2.75786 1.72367-0.13789 3.24049-1.10315 6.54992-4.55047-3.99889-0.96526-6.20518-1.51683-10.1351-2.61997-3.51627-0.96525-6.27414-1.86156-9.032-2.68892-0.20684-0.069-0.62052-0.13789-0.62052-0.27578 0-0.069 0.55157 0 0.89631 0.069 3.58522 0.41368 6.34308 1.0342 9.65252 1.17209 2.20629 0.1379 3.9989-0.069 5.51572-0.8963 1.93051-0.96526 2.82682-2.41314 3.37839-4.55048-2.89576-0.27578-4.48153-0.48262-7.37729-0.82736-3.17154-0.41367-5.23994-0.75841-8.13569-1.10314-0.20684 0-0.62053-0.069-0.62053-0.20684 0-0.1379 0.34474-0.069 0.62053-0.069 2.9647-0.13789 5.17099 0.069 7.9978 0 1.9305-0.069 4.55048-0.55157 5.99835-2.13734 1.17209-1.30998 1.44788-2.82681 1.51683-4.34363-3.99891 0.069-9.37674 0.20684-13.7893 0.069-0.89631 0-1.9305 0.069-1.99945-0.34474 0-0.27578 1.51683-0.48263 2.48208-0.48263 1.51682-0.069 2.89575 0 4.8952 0 1.79262-0.069 4.96415-0.34473 6.48098-2.20629 1.0342-1.24104 1.24104-2.34418 1.37894-3.86101h-7.72202c-2.96471 0-4.55048-0.069-7.03256-0.20684-0.34473 0-1.24103-0.069-1.24103-0.34473 0-0.48263 2.61996-0.34473 3.03365-0.41368 2.41313-0.069 5.72256-0.069 7.92885-0.48262 3.17154-0.62052 5.03311-2.68892 5.17099-6.2052-2.41312-0.069-3.861-0.069-6.20518-0.13789-4.1368-0.069-5.30889-0.20684-9.58359-0.20684-2.20628 0-5.58466 0-7.17043 1.0342-0.82737 0.48263-0.41368 2.41313 0 3.37838 0.75841 1.9305 2.68891 5.37784 2.75786 8.41148-0.069 3.03365-2.75786 5.92942-5.58467 5.99835"/>
   <path id="path2640" d="m585.115 229.578c-0.96525-0.62052-1.51682-0.96525-2.41313-1.72366-1.17209-0.96526-1.7926-1.58577-2.68891-2.75787-1.72367 0.41368-2.68891 0.55158-4.48153 0.62053-1.44787 0.069-2.20629 0-3.65417-0.1379 2.34419-2.8268 4.1368-4.55047 6.13625-7.9978 1.99945-3.37838 3.37838-6.48098 4.06784-9.23884 0.1379-0.48263 0.1379-1.03421-0.069-1.51683-0.34473-0.62052-0.55157-1.9305-1.30999-1.37893-0.96525 0.68947-1.58577 1.37893-2.48208 2.34419-0.89629 0.96524-1.30998 1.58577-2.06839 2.68891-0.62052-0.96525-1.03419-1.44788-1.86155-2.20629-0.82736-0.82736-1.31-1.24103-2.27524-1.86156 1.79261-1.17209 3.17153-1.86155 5.10204-3.30943 1.44788-1.10315 3.17155-2.55103 3.79207-3.72312 0.27578-0.55157 0.20684-1.17209 0.069-1.65472-0.069-0.27579-0.41368-0.48262-0.8963 0.1379-0.75842 1.0342-2.0684 2.61996-3.58522 3.58522-2.27524 1.51682-5.30889 2.20629-7.85992 2.13734 1.51683-1.72366 2.34419-2.68891 3.79206-4.48153 1.10315-1.30998 1.72367-1.99945 2.75786-3.44732 0.1379-0.20685 0.34474-0.41369 0.34474-0.89631s-0.62052-0.27579-0.96525 0c-1.99945 1.72367-3.24049 3.1026-5.10205 4.82626-2.27523 2.0684-3.9989 4.06785-6.75676 4.06785-2.27524-0.069-3.9989-0.75841-5.79151-1.51683 3.10259-1.99944 4.82625-3.10259 7.92885-4.96415 2.75787-1.65472 4.89521-2.8268 7.17045-4.27468 0.34473-0.20684 0.34473-0.55158 0.20683-0.68947-0.20683-0.13789-0.62051-0.069-1.10314 0.069-1.72366 0.68948-3.51627 1.51683-5.72256 2.55103-3.03365 1.44788-5.99835 2.9647-8.54938 3.1026-2.0684 0.13789-4.48153-2.41314-5.86046-3.86101 4.06784-0.96526 6.34308-1.51683 10.342-2.61997 3.24049-0.89631 4.82626-1.44789 8.27359-2.48208 0.68946-0.20684 0.82736-0.48263 0.82736-0.68946-0.069-0.41369-0.34474-0.55158-1.10315-0.48264-2.55102 0.34474-8.54937 1.37894-10.4109 1.37894-3.72311-0.069-6.82571-0.82736-7.92885-4.55047 3.1026-0.27579 4.8952-0.48263 7.9978-0.96526 2.89576-0.34474 4.41258-0.68946 7.30834-1.10315 0.62052-0.069 0.62052-0.48262 0.62052-0.68946 0-0.27578 0-0.41368-0.75841-0.48262-3.72311-0.2758-6.0673 0.20684-9.37674-0.1379-3.17154-0.27578-5.72256-2.06839-5.9294-5.37783 3.03365 0.069 4.68837 0.13789 7.72202 0.13789 2.75786 0 3.51627-0.069 7.10149-0.069 0.48263 0 0.89631-0.34472 0.89631-0.62051s-0.069-0.68947-0.62052-0.82736c-1.99945-0.34473-2.48208-0.41368-4.1368-0.41368-2.48207 0-4.75731 0-6.41203-0.48263-2.27524-0.62052-3.65417-1.79261-3.92996-4.55047 2.89576 0 4.55048-0.069 7.44623-0.069 2.75787 0 5.171-0.069 7.44623-0.20685 0.20685 0 1.03421-0.13789 1.03421-0.8963 0-0.68947-1.24104-0.82736-1.58578-0.82736-3.03365 0-3.44732-0.069-5.79151-0.1379-2.48208-0.069-4.96416-0.27578-6.34309-1.30998-1.86155-1.30999-2.06839-2.27524-2.34418-4.13679 2.55103-0.069 4.89521-0.27579 7.44623-0.27579 5.72257 0 10.8936-0.62052 14.1341 0.48262 1.03419 0.34474 0.82735 1.30999 0.62051 2.06841-0.55158 2.13734-1.93051 4.13679-2.75787 7.30833-0.34472 1.17209-0.55157 2.9647 0.1379 4.61942 0.89631 2.20629 3.37839 4.13679 5.65362 4.13679 1.79261 0 3.92995-0.82736 5.171-2.48208 1.37893-1.7926 2.41312-6.20518 2.41312-8.06674 0-1.99945-1.03419-3.17155-0.96524-4.61943 0.069-0.75841 0.34472-1.72365 1.17208-1.65471 1.1721 0.069 2.13734 0.82736 3.58522 1.17209 1.1721 0.27579 2.13735 0.55157 2.9647 0.82736 0.68948 0.27579 0.68948 1.24104 0.55158 1.9305-0.48263 2.27524-1.24104 3.92996-1.72366 6.48099-0.27579 1.37893-0.55157 2.13734-0.34474 3.30943 0.13789 1.10315 0.48263 1.93051 1.51682 2.55102 0.68948 0.41368 1.79262 0.62052 2.48208 0.55157 2.27524 0 4.75732-1.9305 5.65363-4.13679 0.68946-1.65472 0.41367-3.44733 0.13788-4.61942-0.82736-3.1026-2.20629-5.17099-2.75785-7.30833-0.20685-0.75842-0.34473-1.72367 0.62051-2.06841 3.24049-1.10314 8.41149-0.55157 14.134-0.48262 2.55103 0 4.89521 0.20684 7.44623 0.27579-0.27578 1.86155-0.48262 2.8268-2.34419 4.13679-1.44787 1.0342-3.861 1.1721-6.34307 1.30998-2.34419 0.069-2.75787 0.1379-5.79152 0.1379-0.34473 0-1.58577 0.13789-1.58577 0.82736 0 0.75841 0.75841 0.8963 1.03419 0.8963 2.27524 0.1379 4.68837 0.20685 7.44623 0.20685 2.89577 0 4.55048 0.069 7.44625 0.069-0.2758 2.68892-1.72367 3.92995-3.92996 4.55047-1.65472 0.48263-3.92996 0.48263-6.41204 0.48263-1.65471 0-2.13734 0.069-4.13679 0.41368-0.62052 0.069-0.62052 0.48263-0.68947 0.82736 0 0.27579 0.41368 0.62051 0.89631 0.62051 3.58522 0 4.34363 0.069 7.10149 0.069 3.03366 0 4.75732-0.069 7.72203-0.13789-0.20685 3.30944-2.75787 5.10205-5.92941 5.37783-3.30944 0.34474-5.65362-0.1379-9.37674 0.1379-0.75841 0.069-0.75841 0.13789-0.75841 0.48262 0 0.20684 0 0.55158 0.62051 0.68946 2.96472 0.41369 4.48153 0.68948 7.30835 1.10315 3.1026 0.41368 4.8952 0.62052 7.9978 0.96526-1.10315 3.65417-4.27468 4.48153-7.92885 4.55047-1.79262 0-7.85992-1.0342-10.342-1.37894-0.75841-0.069-1.03419 0.069-1.10314 0.48264 0 0.20683 0.069 0.48262 0.82736 0.68946 3.44733 1.03419 5.0331 1.58577 8.27359 2.48208 3.9989 1.10314 6.27413 1.72366 10.342 2.61997-1.30999 1.44787-3.79207 3.92995-5.86046 3.86101-2.61998-0.1379-5.51573-1.65472-8.54938-3.1026-2.20629-1.0342-3.9989-1.9305-5.72256-2.55103-0.48264-0.20683-0.89631-0.20683-1.03421-0.069-0.20684 0.13789-0.13789 0.48263 0.1379 0.68947 2.27524 1.44788 4.41258 2.55101 7.17044 4.27468 3.1026 1.9305 4.89521 2.96471 7.99781 4.96415-1.79262 0.68947-3.44733 1.44788-5.79152 1.51683-2.75786 0.069-4.48153-1.99945-6.75676-4.06785-1.93051-1.72366-3.10259-3.10259-5.171-4.82626-0.34473-0.27579-0.8963-0.48262-0.96524 0 0 0.41368 0.20683 0.68946 0.34472 0.89631 1.03421 1.44787 1.65473 2.06839 2.75787 3.44732 1.44788 1.72367 2.27524 2.75787 3.72312 4.48153-2.55103 0.069-5.51573-0.62052-7.79097-2.13734-1.51682-1.03419-2.82681-2.61997-3.58522-3.58522-0.48263-0.62052-0.82736-0.34474-0.89631-0.1379-0.13789 0.48263-0.20684 1.10315 0.069 1.65472 0.62052 1.17209 2.34419 2.61997 3.79206 3.72312 1.9305 1.44788 3.30944 2.13734 5.10205 3.30943-0.96526 0.62053-1.44788 1.0342-2.27524 1.86156s-1.24103 1.30998-1.86155 2.20629c-0.68947-1.10314-1.1721-1.72367-2.0684-2.68891-0.8963-0.96526-1.51683-1.65472-2.48208-2.34419-0.68946-0.55157-0.96525 0.75841-1.30999 1.37893-0.27578 0.48262-0.20683 1.0342-0.069 1.51683 0.75841 2.75786 2.0684 5.86046 4.06785 9.23884 1.99944 3.37838 3.79206 5.171 6.20519 7.9978-1.37893 0.20685-2.20629 0.20685-3.65417 0.1379-1.79261-0.069-2.75787-0.20685-4.48152-0.62053-0.96526 1.1721-1.51683 1.79261-2.68893 2.75787-0.68946 0.75841-1.24103 1.17209-2.20629 1.72366"/>
  </g>
  <g fill="#ffffff" stroke-width="1.00538">
   <path id="path2642" d="m572.359 216.823c0.13789-0.20684 0.20684-0.34474 0.34473-0.62053 0.20685-0.27578 0.34473-0.41367 0.55157-0.62052 0.48263 0.41369 0.62052 0.89631 0.62052 1.44788 0 0.96526-0.34473 1.0342-0.89631 1.30999 0.069-0.34473 0.069-0.55158-0.069-0.8963-0.1379-0.20685-0.27579-0.41369-0.55158-0.62052"/>
   <path id="path2644" d="m567.947 220.201c-0.27578 0-0.41368 0-0.68947-0.069-0.20684-0.069-0.34473-0.069-0.62052-0.1379 0 0.41369 0.069 0.68947 0.34473 1.03421 0.41369 0.48262 0.82736 0.62052 1.65472 0.89631-0.20683-0.20685-0.34473-0.41369-0.48262-0.68947-0.1379-0.48263-0.20684-0.68946-0.20684-1.0342"/>
   <path id="path2646" d="m563.672 217.719c-0.20684-0.13789-0.27579-0.20684-0.41368-0.34473-0.20684-0.20684-0.27578-0.27579-0.48262-0.48263-0.1379 0.34474-0.20685 0.55158-0.20685 0.96525 0.069 0.68947 0.34474 1.1721 0.96526 1.51683-0.069-0.27578-0.069-0.48263-0.069-0.75841 0-0.41368 0.069-0.62052 0.20684-0.89631"/>
   <path id="path2648" d="m562.5 211.859c-0.48262 0.069-0.75841 0.20684-1.10314 0.55157-0.41368 0.48263-0.48262 1.0342-0.27579 1.58577 0.1379-0.34472 0.27579-0.48262 0.55158-0.68946 0.20684-0.1379 0.41368-0.20683 0.75842-0.20683v-0.62053c0.069-0.27578 0.069-0.41368 0.069-0.62052"/>
  </g>
  <path id="path2650" d="m573.118 207.86c0.27579 0.13789 0.41368 0.27579 0.62052 0.48263s0.34474 0.34472 0.55158 0.62051c-0.75842 0.48263-1.10315 0.82736-1.72367 1.44788-0.48262 0.55157-0.82736 0.82736-1.17209 1.51683-0.27579 0.48262-0.27579 1.10315 0.069 1.44787 0.41369 0.48264 0.68948 0.48264 1.10315 0.82736 0.27579 0.20685 0.48262 0.34474 0.75841 0.62052-0.34474 0.34474-0.55157 0.55157-0.82736 0.96526-0.34472 0.41367-0.55157 0.68946-0.82736 1.17208-0.62051-0.82736-0.8963-1.17208-1.24103-1.65471-0.27579-0.34473-0.75841-0.48263-1.0342 0.34473-0.20684 0.55157-0.27579 1.0342-0.41368 1.65472-0.1379 1.0342-0.20684 1.51683-0.34474 2.27524-0.41367 0.069-0.62051 0.069-1.03419 0s-0.68947-0.20684-1.0342-0.41369c0.20684-0.62051 0.34473-0.96524 0.48262-1.58576 0.20684-0.75841 0.27579-0.96525 0.48263-1.86156 0.069-0.27579 0.069-0.62052-0.13789-0.75841-0.34474-0.20685-0.62052 0-0.96526 0.41367-0.41367 0.55158-0.62051 0.82736-1.10314 1.30999-0.27579 0.34473-0.41368 0.55157-0.75841 0.89631-0.41369-0.20684-0.62052-0.34474-0.89631-0.68947-0.34474-0.34473-0.48262-0.55157-0.75841-1.03419 0.55157-0.41369 0.89631-0.62052 1.51682-1.03421 0.62052-0.41367 1.10315-0.68946 1.65472-1.10314 0.20684-0.13789 0.27578-0.34474 0.20684-0.55158-0.069-0.27578-0.48263-0.27578-0.75842-0.20683-0.48262 0.069-0.82735 0.13789-1.37893 0.20683-0.34472 0.069-0.62051 0.069-1.03419 0.1379 0-0.27578 0-0.48263 0.069-0.75842 0-0.41367 0.069-0.62051 0.13788-1.03419 0.68947 0.13789 1.10315 0.20683 1.86157 0.27578 1.10314 0.069 1.7926 0 2.9647-0.27578 0.89631-0.27579 1.44788-0.48263 2.20629-1.0342 0.68946-0.41368 0.96525-0.82736 1.58577-1.37893 0.34473-0.48262 0.68947-0.75841 1.17209-1.24104" fill="#ebbd00" stroke-width="1.00538"/>
  <g fill="#ffffff" stroke-width="1.00538">
   <path id="path2652" d="m597.939 216.823c-0.1379-0.20684-0.20684-0.34474-0.34474-0.62053-0.20683-0.27578-0.34472-0.41367-0.55157-0.62052-0.48262 0.41369-0.62051 0.89631-0.62051 1.44788 0 0.96526 0.34473 1.0342 0.8963 1.30999-0.069-0.34473-0.069-0.55158 0.069-0.8963 0.069-0.20685 0.20684-0.41369 0.55157-0.62052"/>
   <path id="path2654" d="m602.282 220.201c0.27579 0 0.41369 0 0.68947-0.069 0.20684-0.069 0.34473-0.069 0.62051-0.1379 0 0.41369-0.069 0.68947-0.34472 1.03421-0.41369 0.48262-0.82736 0.62052-1.65472 0.89631 0.20684-0.20685 0.34474-0.41369 0.48262-0.68947 0.13789-0.48263 0.20684-0.68946 0.20684-1.0342"/>
   <path id="path2656" d="m606.557 217.719c0.20683-0.13789 0.27578-0.20684 0.41367-0.34473l0.48263-0.48263c0.13789 0.34474 0.20684 0.55158 0.13789 0.96525-0.069 0.68947-0.34473 1.1721-0.96525 1.51683 0.069-0.27578 0.069-0.48263 0.069-0.75841 0.069-0.41368 0-0.62052-0.13788-0.89631"/>
   <path id="path2658" d="m607.729 211.859c0.48263 0.069 0.75842 0.20684 1.10314 0.55157 0.41369 0.48263 0.48264 1.0342 0.27579 1.58577-0.13789-0.34472-0.27579-0.48262-0.55157-0.68946-0.27579-0.1379-0.41368-0.20683-0.68946-0.20683v-0.62053c-0.069-0.27578-0.1379-0.41368-0.1379-0.62052"/>
  </g>
  <g stroke-width="1.00538">
   <path id="path2660" d="m597.18 207.86c-0.27579 0.13789-0.41368 0.27579-0.62052 0.48263s-0.34474 0.34472-0.55157 0.62051c0.75841 0.48263 1.17209 0.82736 1.7926 1.44788 0.48264 0.55157 0.82736 0.82736 1.1721 1.51683 0.27578 0.48262 0.27578 1.10315-0.069 1.44787-0.41368 0.48264-0.68946 0.48264-1.10315 0.82736-0.27578 0.20685-0.48262 0.34474-0.75841 0.62052 0.34474 0.34474 0.55157 0.55157 0.82736 0.96526 0.34474 0.41367 0.48262 0.68946 0.82736 1.17208 0.62052-0.82736 0.89631-1.17208 1.24104-1.65471 0.27579-0.34473 0.75841-0.48263 1.0342 0.34473 0.20684 0.55157 0.34474 1.0342 0.41367 1.65472 0.1379 1.0342 0.20685 1.51683 0.34474 2.27524 0.41368 0.069 0.62052 0.069 1.0342 0s0.68947-0.20684 1.0342-0.41369c-0.20685-0.62051-0.34473-0.96524-0.48263-1.58576-0.20684-0.75841-0.27579-0.96525-0.48263-1.86156-0.069-0.27579-0.069-0.62052 0.1379-0.75841 0.34473-0.20685 0.62051 0 0.96525 0.41367 0.41368 0.55158 0.62052 0.82736 1.0342 1.30999 0.27578 0.34473 0.41368 0.55157 0.75842 0.89631 0.41367-0.20684 0.62051-0.34474 0.89629-0.68947 0.34474-0.34473 0.55158-0.55157 0.75842-1.03419-0.55157-0.41369-0.8963-0.62052-1.51683-1.03421-0.62051-0.41367-1.10314-0.68946-1.65471-1.10314-0.20684-0.13789-0.27579-0.34474-0.20684-0.55158 0.069-0.27578 0.55157-0.27578 0.75841-0.20683 0.48263 0.069 0.82736 0.13789 1.37893 0.20683 0.41368 0.069 0.62052 0.069 1.0342 0.1379 0-0.27578 0-0.48263-0.069-0.75842 0-0.41367-0.069-0.62051-0.1379-1.03419-0.75841 0.13789-1.10315 0.20683-1.86156 0.27578-1.17209 0.069-1.86155 0-2.9647-0.27578-0.8963-0.27579-1.44788-0.48263-2.27524-1.0342-0.68947-0.41368-0.96524-0.82736-1.58576-1.37893-0.34474-0.48262-0.62053-0.75841-1.10315-1.24104" fill="#ebbd00"/>
   <path id="path2662" d="m574.083 170.422c1.0342 0.13789 2.06839 0.13789 2.9647 0 1.9305-0.20684 3.03365-0.75841 4.55047-1.86156l0.27579 0.13789c-0.96525 1.65472-2.2063 2.48209-4.06785 2.68892-1.44788 0.20684-3.44732-0.41368-3.72311-0.96525" fill="#e2001a"/>
   <path id="path2664" d="m579.944 172.421c0.55157-0.68947 0.82736-1.0342 1.30998-1.65472 0.68947-0.89631 1.03421-1.37893 1.65473-2.20629-0.20685-0.069-0.34473-0.1379-0.55158-0.20684-1.0342-0.41368-1.58577-0.96525-2.68892-0.8963-0.8963 0.069-1.37893 0.20683-2.13734 0.75841 0.20684-0.75841 0.13789-1.10315 0.34474-1.72367 0.13789-0.55157 0.20684-0.82736 0.62051-1.30998 0.41369-0.55158 1.30999-0.82736 2.20629-0.82736 0.89631 0 1.51683-0.069 2.27524 0.069-0.069 0.41367-0.13789 0.62052-0.13789 1.03419 0 0.96526 0.27579 1.51683 0.62051 2.41313 0.1379 0.48263 0.34474 1.03421 0.34474 1.58578-0.48262 0.62051-0.75841 0.96525-1.37893 1.51682-0.89631 0.55157-1.65472 1.10314-2.48208 1.44788" fill="#ebbd00"/>
   <path id="path2666" d="m586.011 165.251c-0.13789 0.13788-0.20684 0.20683-0.20684 0.41367 0 0.27579 0.069 0.55157 0.41368 0.62052 0.20684 0.069 0.41368 0 0.55157-0.20684 0.069-0.13789 0.069-0.27578 0-0.41367 0.27579 0 0.41368 0 0.68947 0.069 0.34474 0.069 0.48262 0.1379 0.82736 0.48262 0.20684 0.20685 0 0.55159-0.27579 0.62052-0.27578 0.1379-0.62052-0.20683-0.8963-0.13788-0.34474 0.069-0.27579 0.48262-1.0342 0.41367-0.62052-0.069-1.24104-0.48262-1.1721-1.10314 0.069-0.34473-0.41367-0.41368-0.27578-0.82736 0.069-0.27579 0.41368-0.34474 0.62052-0.27579 0.20684 0 0.55157 0.069 0.75841 0.34474" fill="#ffffff"/>
  </g>
  <g id="g2668" transform="matrix(.689466 0 0 .689466 322.98 98.2346)">
   <defs id="defs2670">
    <path id="XMLID_59_" d="m256.9 510.1c-99.2 0-179.7-80.4-179.7-179.6h359.3c0 99.1-80.4 179.6-179.6 179.6"/>
   </defs>
   <clipPath id="clipPath2952">
    <use id="use2954" width="744.09448" height="1052.3622" xlink:href="#XMLID_59_"/>
   </clipPath>
   <polyline id="polyline2676" points="77.2 430.7 126 430.7 126 417.4 151.5 417.4 151.5 430.7 173.2 430.7 173.2 417.4 198.7 417.4 198.7 430.7 220.5 430.7 220.5 417.4 246 417.4 246 430.7 267.8 430.7 267.8 417.4 293.3 417.4 293.3 430.7 315 430.7 315 417.4 340.6 417.4 340.6 430.7 362.3 430.7 362.3 417.4 387.9 417.4 387.9 430.7 436.5 430.7 436.5 519.5 77.2 519.5 77.2 430.7" clip-path="url(#XMLID_68_)"/>
   <g fill="#e2001a">
    <rect id="rect2678" x="234.2" y="432.6" width="21.7" height="11.3" clip-path="url(#XMLID_68_)"/>
    <rect id="rect2680" x="210.6" y="432.6" width="21.7" height="11.3" clip-path="url(#XMLID_68_)"/>
    <rect id="rect2682" x="186.9" y="432.6" width="21.7" height="11.3" clip-path="url(#XMLID_68_)"/>
    <rect id="rect2684" x="163.3" y="432.6" width="21.7" height="11.3" clip-path="url(#XMLID_68_)"/>
    <rect id="rect2686" x="139.6" y="432.6" width="21.7" height="11.3" clip-path="url(#XMLID_68_)"/>
    <rect id="rect2688" x="116" y="432.6" width="21.7" height="11.3" clip-path="url(#XMLID_68_)"/>
    <rect id="rect2690" x="92.4" y="432.6" width="21.7" height="11.3" clip-path="url(#XMLID_68_)"/>
    <rect id="rect2692" x="257.8" y="432.6" width="21.7" height="11.3" clip-path="url(#XMLID_68_)"/>
    <rect id="rect2694" x="281.5" y="432.6" width="21.7" height="11.3" clip-path="url(#XMLID_68_)"/>
    <rect id="rect2696" x="305.1" y="432.6" width="21.7" height="11.3" clip-path="url(#XMLID_68_)"/>
    <rect id="rect2698" x="328.8" y="432.6" width="21.7" height="11.3" clip-path="url(#XMLID_68_)"/>
    <rect id="rect2700" x="352.4" y="432.6" width="21.7" height="11.3" clip-path="url(#XMLID_68_)"/>
    <rect id="rect2702" x="376" y="432.6" width="21.7" height="11.3" clip-path="url(#XMLID_68_)"/>
    <rect id="rect2704" x="399.7" y="432.6" width="21.7" height="11.3" clip-path="url(#XMLID_68_)"/>
    <rect id="rect2706" x="222.4" y="445.8" width="21.7" height="11.4" clip-path="url(#XMLID_68_)"/>
    <rect id="rect2708" x="198.7" y="445.8" width="21.7" height="11.4" clip-path="url(#XMLID_68_)"/>
    <rect id="rect2710" x="175.1" y="445.8" width="21.7" height="11.4" clip-path="url(#XMLID_68_)"/>
    <rect id="rect2712" x="151.5" y="445.8" width="21.7" height="11.4" clip-path="url(#XMLID_68_)"/>
    <rect id="rect2714" x="127.8" y="445.8" width="21.7" height="11.4" clip-path="url(#XMLID_68_)"/>
    <rect id="rect2716" x="104.2" y="445.8" width="21.7" height="11.4" clip-path="url(#XMLID_68_)"/>
    <rect id="rect2718" x="269.7" y="445.8" width="21.7" height="11.4" clip-path="url(#XMLID_68_)"/>
    <rect id="rect2720" x="293.3" y="445.8" width="21.7" height="11.4" clip-path="url(#XMLID_68_)"/>
    <rect id="rect2722" x="316.9" y="445.8" width="21.7" height="11.4" clip-path="url(#XMLID_68_)"/>
    <rect id="rect2724" x="340.6" y="445.8" width="21.7" height="11.4" clip-path="url(#XMLID_68_)"/>
    <rect id="rect2726" x="364.2" y="445.8" width="21.7" height="11.4" clip-path="url(#XMLID_68_)"/>
    <rect id="rect2728" x="387.9" y="445.8" width="21.7" height="11.4" clip-path="url(#XMLID_68_)"/>
    <rect id="rect2730" x="210.6" y="459" width="21.7" height="11.4" clip-path="url(#XMLID_68_)"/>
    <rect id="rect2732" x="186.9" y="459" width="21.7" height="11.4" clip-path="url(#XMLID_68_)"/>
    <rect id="rect2734" x="163.3" y="459" width="21.7" height="11.4" clip-path="url(#XMLID_68_)"/>
    <rect id="rect2736" x="139.6" y="459" width="21.7" height="11.4" clip-path="url(#XMLID_68_)"/>
    <rect id="rect2738" x="116" y="459" width="21.7" height="11.4" clip-path="url(#XMLID_68_)"/>
    <rect id="rect2740" x="281.5" y="459" width="21.7" height="11.4" clip-path="url(#XMLID_68_)"/>
    <rect id="rect2742" x="305.1" y="459" width="21.7" height="11.4" clip-path="url(#XMLID_68_)"/>
    <rect id="rect2744" x="328.8" y="459" width="21.7" height="11.4" clip-path="url(#XMLID_68_)"/>
    <rect id="rect2746" x="352.4" y="459" width="21.7" height="11.4" clip-path="url(#XMLID_68_)"/>
    <rect id="rect2748" x="376" y="459" width="21.7" height="11.4" clip-path="url(#XMLID_68_)"/>
    <rect id="rect2750" x="222.4" y="472.3" width="21.7" height="11.4" clip-path="url(#XMLID_68_)"/>
    <rect id="rect2752" x="198.7" y="472.3" width="21.7" height="11.4" clip-path="url(#XMLID_68_)"/>
    <rect id="rect2754" x="175.1" y="472.3" width="21.7" height="11.4" clip-path="url(#XMLID_68_)"/>
    <rect id="rect2756" x="151.5" y="472.3" width="21.7" height="11.4" clip-path="url(#XMLID_68_)"/>
    <rect id="rect2758" x="127.8" y="472.3" width="21.7" height="11.4" clip-path="url(#XMLID_68_)"/>
    <rect id="rect2760" x="269.7" y="472.3" width="21.7" height="11.4" clip-path="url(#XMLID_68_)"/>
    <rect id="rect2762" x="293.3" y="472.3" width="21.7" height="11.4" clip-path="url(#XMLID_68_)"/>
    <rect id="rect2764" x="316.9" y="472.3" width="21.7" height="11.4" clip-path="url(#XMLID_68_)"/>
    <rect id="rect2766" x="340.6" y="472.3" width="21.7" height="11.4" clip-path="url(#XMLID_68_)"/>
    <rect id="rect2768" x="364.2" y="472.3" width="21.7" height="11.4" clip-path="url(#XMLID_68_)"/>
    <rect id="rect2770" x="210.6" y="485.5" width="21.7" height="11.3" clip-path="url(#XMLID_68_)"/>
    <rect id="rect2772" x="186.9" y="485.5" width="21.7" height="11.3" clip-path="url(#XMLID_68_)"/>
    <rect id="rect2774" x="163.3" y="485.5" width="21.7" height="11.3" clip-path="url(#XMLID_68_)"/>
    <rect id="rect2776" x="281.5" y="485.5" width="21.7" height="11.3" clip-path="url(#XMLID_68_)"/>
    <rect id="rect2778" x="305.1" y="485.5" width="21.7" height="11.3" clip-path="url(#XMLID_68_)"/>
    <rect id="rect2780" x="328.8" y="485.5" width="21.7" height="11.3" clip-path="url(#XMLID_68_)"/>
    <rect id="rect2782" x="222.4" y="498.7" width="21.7" height="11.4" clip-path="url(#XMLID_68_)"/>
    <rect id="rect2784" x="198.7" y="498.7" width="21.7" height="11.4" clip-path="url(#XMLID_68_)"/>
    <rect id="rect2786" x="269.7" y="498.7" width="21.7" height="11.4" clip-path="url(#XMLID_68_)"/>
    <rect id="rect2788" x="293.3" y="498.7" width="21.7" height="11.4" clip-path="url(#XMLID_68_)"/>
    <rect id="rect2790" x="222.4" y="419.3" width="21.7" height="11.4" clip-path="url(#XMLID_68_)"/>
    <rect id="rect2792" x="175.1" y="419.3" width="21.7" height="11.4" clip-path="url(#XMLID_68_)"/>
    <rect id="rect2794" x="127.8" y="419.3" width="21.7" height="11.4" clip-path="url(#XMLID_68_)"/>
    <rect id="rect2796" x="269.7" y="419.3" width="21.7" height="11.4" clip-path="url(#XMLID_68_)"/>
    <rect id="rect2798" x="316.9" y="419.3" width="21.7" height="11.4" clip-path="url(#XMLID_68_)"/>
    <rect id="rect2800" x="364.2" y="419.3" width="21.7" height="11.4" clip-path="url(#XMLID_68_)"/>
    <rect id="rect2802" x="246" y="445.8" width="21.7" height="11.4" clip-path="url(#XMLID_68_)"/>
   </g>
   <path id="path2804" d="m256.9 443.9c14.1 0 25.5 11.4 25.5 25.5v50.1h-51.1v-50.1c0.1-14.1 11.5-25.5 25.6-25.5" clip-path="url(#XMLID_68_)"/>
   <g fill="#e2001a">
    <rect id="rect2806" x="233.3" y="472.3" width="7.6" height="11.3" clip-path="url(#XMLID_68_)"/>
    <rect id="rect2808" x="233.3" y="485.5" width="7.6" height="11.3" clip-path="url(#XMLID_68_)"/>
    <rect id="rect2810" x="233.3" y="498.7" width="7.6" height="11.4" clip-path="url(#XMLID_68_)"/>
    <path id="path2812" d="m236.5 457.5c2.2-3.8 5.4-6.8 9.2-8.9l3.5 7.7c-2.3 1.3-4.3 3.1-5.7 5.3l-7-4.1" clip-path="url(#XMLID_68_)"/>
    <path id="path2814" d="m242.5 463.2-7-4c-1.5 3.1-2.3 6.6-2.3 10.2v0.9h7.6c0-2.5 0.6-5 1.7-7.1" clip-path="url(#XMLID_68_)"/>
    <rect id="rect2816" x="273" y="472.3" width="7.6" height="11.3" clip-path="url(#XMLID_68_)"/>
    <rect id="rect2818" x="273" y="485.5" width="7.6" height="11.3" clip-path="url(#XMLID_68_)"/>
    <rect id="rect2820" x="273" y="498.7" width="7.6" height="11.4" clip-path="url(#XMLID_68_)"/>
    <path id="path2822" d="m277.3 457.5c-2.2-3.8-5.4-6.8-9.2-8.9l-3.5 7.7c2.3 1.3 4.3 3.1 5.7 5.3l7-4.1" clip-path="url(#XMLID_68_)"/>
    <path id="path2824" d="m271.2 463.2 7-4c1.5 3.1 2.3 6.6 2.3 10.2v0.9h-7.5c0-2.5-0.6-5-1.8-7.1" clip-path="url(#XMLID_68_)"/>
   </g>
   <path id="path2826" d="m256.9 456.2c7.8 0 14.2 6.4 14.2 14.2v49.2h-28.3v-49.2c-0.1-7.9 6.3-14.2 14.1-14.2" clip-path="url(#XMLID_68_)" fill="#ffffff"/>
   <path id="path2828" d="m256.9 445.8c-3.4 0-6.6 0.7-9.5 2l3.5 7.7c1.8-0.7 3.9-1.2 6-1.2s4.1 0.4 6 1.2l3.5-7.7c-2.9-1.3-6.1-2-9.5-2" clip-path="url(#XMLID_68_)" fill="#e2001a"/>
  </g>
  <g id="g2830" transform="matrix(.689466 0 0 .689466 322.98 98.2346)">
   <defs id="defs2832">
    <rect id="XMLID_58_" x="77.2" y="75.1" width="359.3" height="240.2"/>
   </defs>
   <clipPath id="clipPath3036">
    <use id="use3038" width="744.09448" height="1052.3622" xlink:href="#XMLID_58_"/>
   </clipPath>
   <path id="path2838" d="m514.4 311.5c-4.3-2.9-10.2-1.8-13.1 2.6-2.3 3.3-2.1 7.6 0.1 10.7-0.6 1-1.2 2-1.7 2.8 1.5-4.1 0.1-8.6-3.6-11.2-4.3-2.9-10.2-1.8-13.1 2.6-2.9 4.3-1.8 10.2 2.5 13.1 3.1 2.1 6.9 2.1 9.9 0.4-7.5 7-16.1 6.1-21.9 2.2-5.7-3.9-9-9.3-8.4-16.7 3.9 1.3 8.4-0.1 10.8-3.7 2.9-4.3 1.8-10.2-2.6-13.1-4.3-2.9-10.2-1.8-13.1 2.5-2.4 3.5-2.1 8.2 0.6 11.3-6.7 3.3-13 2.4-18.7-1.5-5.8-3.9-9.8-11.8-6.1-21.3-0.5 3.6 1 7.2 4 9.3 4.3 2.9 10.2 1.8 13.1-2.5 2.9-4.4 1.8-10.2-2.6-13.1-3.7-2.5-8.7-2-11.8 1 0.6-1 1.3-1.9 2.1-2.9 3.7 0.9 7.7-0.5 10-3.9 2.9-4.3 1.8-10.2-2.5-13.1s-10.2-1.8-13.1 2.6c-2.2 3.3-2.1 7.6 0.1 10.7-0.5 1-1.1 2-1.7 2.8 1.5-4 0.1-8.6-3.6-11.2-4.3-2.9-10.2-1.8-13.1 2.6-2.9 4.3-1.8 10.2 2.6 13.1 3.1 2.1 6.9 2.1 9.9 0.4-7.5 7-16.1 6.1-21.8 2.2s-9-9.3-8.4-16.8c3.9 1.3 8.4-0.1 10.8-3.7 2.9-4.3 1.8-10.2-2.5-13.1s-10.2-1.8-13.1 2.6c-2.4 3.5-2 8.2 0.6 11.3-6.7 3.3-13 2.4-18.7-1.5-5.8-3.9-9.8-11.8-6.1-21.3-0.5 3.6 0.9 7.2 4 9.3 4.3 2.9 10.2 1.8 13.1-2.6 2.9-4.3 1.8-10.2-2.6-13.1-3.7-2.5-8.7-2-11.8 1 0.6-0.9 1.3-1.9 2.1-2.9 3.7 0.9 7.7-0.5 10-3.9 2.9-4.3 1.8-10.2-2.6-13.1-4.3-2.9-10.2-1.8-13.1 2.6-2.3 3.3-2.1 7.6 0.1 10.7-0.6 1-1.2 1.9-1.8 2.8 1.5-4 0.1-8.6-3.6-11.1-4.3-2.9-10.2-1.8-13.1 2.5s-1.8 10.2 2.6 13.1c3.1 2.1 6.9 2.1 9.9 0.4-7.5 7-16 6.1-21.8 2.2-5.7-3.9-9-9.3-8.4-16.8 3.9 1.3 8.4-0.1 10.8-3.7 2.9-4.3 1.8-10.2-2.5-13.1s-10.2-1.8-13.1 2.6c-2.4 3.6-2 8.2 0.6 11.3-6.7 3.3-13 2.4-18.7-1.5-5.8-3.9-9.7-11.8-6.1-21.3-0.5 3.6 0.9 7.2 4 9.3 4.3 2.9 10.2 1.8 13.1-2.6 2.9-4.3 1.8-10.2-2.5-13.1-3.8-2.5-8.7-2-11.8 1 0.6-0.9 1.3-1.9 2.1-2.9 3.7 0.9 7.7-0.5 10-3.9 2.9-4.3 1.8-10.2-2.6-13.1-4.3-2.9-10.2-1.8-13.1 2.5-2.3 3.4-2.1 7.6 0.1 10.7-0.6 1-1.2 1.9-1.8 2.8 1.5-4 0.1-8.6-3.6-11.1-4.3-2.9-10.2-1.8-13.1 2.5s-1.8 10.2 2.5 13.1c3.1 2.1 6.9 2.1 9.9 0.4-7.5 6.9-16 6.1-21.8 2.2-5.7-3.9-9-9.3-8.4-16.8 3.9 1.3 8.4-0.1 10.8-3.7 2.9-4.3 1.8-10.2-2.6-13.1-4.3-2.9-10.2-1.8-13.1 2.6-2.4 3.6-2 8.2 0.6 11.3-6.7 3.4-13 2.4-18.7-1.5-5.8-3.9-9.8-11.8-6.1-21.4-0.5 3.6 0.9 7.2 4 9.3 4.3 2.9 10.2 1.8 13.1-2.6 2.9-4.3 1.8-10.2-2.5-13.1-3.7-2.5-8.7-2-11.8 1 0.6-1 1.3-1.9 2.1-2.8 3.7 0.9 7.7-0.6 10-3.9 2.9-4.3 1.8-10.2-2.5-13.1s-10.2-1.8-13.1 2.5c-2.2 3.3-2.1 7.6 0.1 10.7-0.6 1-1.1 2-1.7 2.8 1.5-4 0.1-8.6-3.6-11.1-4.3-2.9-10.2-1.8-13.1 2.5s-1.8 10.2 2.6 13.1c3.1 2.1 6.9 2.1 9.9 0.4-7.5 7-16.1 6.1-21.8 2.2s-9-9.3-8.4-16.8c3.9 1.3 8.4-0.1 10.8-3.7 2.9-4.3 1.8-10.2-2.5-13.1s-10.2-1.8-13.1 2.5c-2.4 3.6-2 8.2 0.6 11.3-6.7 3.3-13 2.4-18.7-1.5-5.8-3.9-9.8-11.8-6.1-21.3-0.5 3.6 1 7.2 4 9.3 4.3 2.9 10.2 1.8 13.1-2.5s1.8-10.2-2.6-13.1c-3.7-2.5-8.7-2-11.8 1 0.6-1 1.3-1.9 2.1-2.9 3.7 0.9 7.7-0.5 10-3.9 2.9-4.3 1.8-10.2-2.6-13.1-4.3-2.9-10.2-1.8-13.1 2.6-2.2 3.3-2.1 7.6 0.1 10.7-0.5 1-1.1 2-1.7 2.8 1.5-4 0.1-8.6-3.6-11.2-4.3-2.9-10.2-1.8-13.1 2.6-2.9 4.3-1.8 10.2 2.6 13.1 3.1 2.1 6.9 2.1 9.9 0.4-7.5 6.9-16 6.1-21.8 2.2-5.7-3.9-9-9.3-8.4-16.7 3.9 1.3 8.4-0.1 10.8-3.7 2.9-4.3 1.8-10.2-2.5-13.1s-10.2-1.8-13.1 2.5c-2.4 3.6-2 8.2 0.6 11.3-6.7 3.4-13 2.4-18.7-1.5-5.8-3.9-9.8-11.8-6.1-21.3-0.5 3.6 0.9 7.2 4 9.3 4.3 2.9 10.2 1.8 13.1-2.5s1.8-10.2-2.6-13.1c-3.7-2.5-8.7-2-11.8 1 0.6-0.9 1.3-1.9 2.1-2.9 3.7 0.9 7.7-0.5 10-3.9 2.9-4.3 1.8-10.2-2.6-13.1-4.3-2.9-10.2-1.8-13.1 2.6-2.3 3.3-2.1 7.6 0.1 10.7-0.6 1-1.2 1.9-1.8 2.8 1.5-4 0.1-8.6-3.6-11.1-4.3-2.9-10.2-1.8-13.1 2.6-2.9 4.3-1.8 10.2 2.5 13.1 3.1 2.1 6.9 2.1 9.9 0.4-7.5 7-16.1 6.1-21.8 2.2s-9-9.3-8.4-16.8c3.9 1.3 8.4-0.1 10.8-3.7 2.9-4.3 1.8-10.2-2.6-13.1-4.3-2.9-10.2-1.8-13.1 2.6-2.4 3.6-2.1 8.2 0.6 11.3-6.7 3.3-13 2.4-18.7-1.5-5.8-3.9-9.8-11.8-6.1-21.3-0.5 3.6 0.9 7.2 4 9.3 4.3 2.9 10.2 1.8 13.1-2.6 2.9-4.3 1.8-10.2-2.5-13.1-3.7-2.5-8.7-2-11.8 1 0.6-0.9 1.3-1.9 2.1-2.9 3.7 0.9 7.7-0.5 10-3.9 2.9-3.7 1.8-9.6-2.6-12.5l-52.6 78 461.9 311.5 52.5-78" clip-path="url(#XMLID_69_)"/>
   <g fill="#1a962b">
    <path id="path2840" d="m496.6 338.8-33.9 50.3-461.7-311.5 33.9-50.3c-1.7 9 1.6 18.1 8.9 23 6.8 4.7 13.9 5.7 21.3 3.2 0.8 7.4 3.5 13.5 10.2 18 8.3 5.6 17.2 5.7 25.6 0.3-1.7 9 1.6 18.1 8.9 23 6.8 4.6 13.8 5.7 21.3 3.2 0.8 7.4 3.5 13.5 10.2 18 8.3 5.6 17.2 5.7 25.6 0.3-1.7 9 1.6 18.1 8.9 23 6.9 4.6 13.9 5.7 21.3 3.2 0.8 7.4 3.5 13.5 10.1 18 8.3 5.6 17.2 5.7 25.6 0.3-1.7 9 1.6 18 8.9 23 6.9 4.6 13.9 5.7 21.3 3.2 0.9 7.4 3.5 13.5 10.2 18 8.3 5.6 17.2 5.7 25.6 0.3-1.7 9 1.6 18 8.9 23 6.8 4.7 13.8 5.7 21.3 3.2 0.8 7.4 3.5 13.5 10.2 18 8.3 5.6 17.2 5.7 25.6 0.3-1.7 9 1.6 18.1 8.9 23 6.8 4.6 13.8 5.7 21.3 3.2 0.8 7.4 3.5 13.5 10.1 18 8.3 5.6 17.2 5.7 25.6 0.3-1.7 9 1.6 18.1 8.9 23 6.9 4.6 13.9 5.7 21.3 3.2 0.9 7.4 3.5 13.5 10.2 18 8.3 5.7 17.1 5.7 25.5 0.3" clip-path="url(#XMLID_69_)"/>
    <path id="path2842" d="m254.6 164.9c2.6-3.9 1.6-9.1-2.3-11.8-3.9-2.6-9.1-1.6-11.8 2.3-2.6 3.9-1.6 9.1 2.3 11.7 3.9 2.7 9.2 1.7 11.8-2.2" clip-path="url(#XMLID_69_)"/>
    <path id="path2844" d="m277.3 180.2c2.6-3.9 1.6-9.1-2.3-11.7s-9.1-1.6-11.7 2.3-1.6 9.1 2.3 11.7c3.8 2.6 9.1 1.6 11.7-2.3" clip-path="url(#XMLID_69_)"/>
    <path id="path2846" d="m285.9 186c2.6-3.9 7.9-4.9 11.7-2.3 3.9 2.6 4.9 7.9 2.3 11.8s-7.9 4.9-11.7 2.3c-3.9-2.6-4.9-7.9-2.3-11.8" clip-path="url(#XMLID_69_)"/>
    <path id="path2848" d="m320.5 209.4c2.6-3.9 1.6-9.1-2.3-11.7s-9.1-1.6-11.7 2.3-1.6 9.1 2.3 11.8c3.9 2.5 9.1 1.5 11.7-2.4" clip-path="url(#XMLID_69_)"/>
    <path id="path2850" d="m343.2 224.7c2.6-3.9 1.6-9.1-2.3-11.7s-9.1-1.6-11.7 2.3-1.6 9.1 2.3 11.7 9.1 1.6 11.7-2.3" clip-path="url(#XMLID_69_)"/>
    <path id="path2852" d="m351.9 230.5c2.6-3.9 7.9-4.9 11.7-2.3 3.9 2.6 4.9 7.9 2.3 11.7-2.6 3.9-7.9 4.9-11.7 2.3-3.9-2.5-4.9-7.8-2.3-11.7" clip-path="url(#XMLID_69_)"/>
    <path id="path2854" d="m386.5 253.9c2.6-3.9 1.6-9.1-2.3-11.7s-9.1-1.6-11.7 2.3-1.6 9.1 2.3 11.7c3.8 2.6 9.1 1.6 11.7-2.3" clip-path="url(#XMLID_69_)"/>
    <path id="path2856" d="m409.2 269.2c2.6-3.9 1.6-9.1-2.3-11.8-3.9-2.6-9.1-1.6-11.7 2.3s-1.6 9.1 2.3 11.7c3.8 2.7 9.1 1.7 11.7-2.2" clip-path="url(#XMLID_69_)"/>
    <path id="path2858" d="m417.8 275.1c2.6-3.9 7.9-4.9 11.8-2.3s4.9 7.9 2.3 11.7c-2.6 3.9-7.9 4.9-11.7 2.3-3.9-2.6-5-7.9-2.4-11.7" clip-path="url(#XMLID_69_)"/>
    <path id="path2860" d="m188.6 120.4c2.6-3.9 1.6-9.1-2.3-11.7s-9.1-1.6-11.7 2.3-1.6 9.1 2.3 11.7c3.8 2.6 9.1 1.6 11.7-2.3" clip-path="url(#XMLID_69_)"/>
    <path id="path2862" d="m211.3 135.7c2.6-3.9 1.6-9.1-2.3-11.7s-9.1-1.6-11.8 2.3c-2.6 3.9-1.6 9.1 2.3 11.8 3.9 2.5 9.2 1.5 11.8-2.4" clip-path="url(#XMLID_69_)"/>
    <path id="path2864" d="m219.9 141.6c2.6-3.9 7.9-4.9 11.8-2.3s4.9 7.9 2.3 11.7c-2.6 3.9-7.9 4.9-11.8 2.3s-4.9-7.9-2.3-11.7" clip-path="url(#XMLID_69_)"/>
    <path id="path2866" d="m122.6 75.9c2.6-3.9 1.6-9.1-2.3-11.7s-9.1-1.6-11.7 2.3-1.6 9.1 2.3 11.7c3.8 2.6 9.1 1.6 11.7-2.3" clip-path="url(#XMLID_69_)"/>
    <path id="path2868" d="m145.3 91.2c2.6-3.9 1.6-9.1-2.3-11.7s-9.1-1.6-11.7 2.3-1.6 9.1 2.3 11.7c3.8 2.6 9.1 1.6 11.7-2.3" clip-path="url(#XMLID_69_)"/>
    <path id="path2870" d="m153.9 97.1c2.6-3.9 7.9-4.9 11.7-2.3 3.9 2.6 4.9 7.9 2.3 11.7-2.6 3.9-7.9 4.9-11.7 2.3s-4.9-7.9-2.3-11.7" clip-path="url(#XMLID_69_)"/>
    <path id="path2872" d="m184 89.8c3.9 2.6 4.9 7.9 2.3 11.7-2.6 3.9-7.9 4.9-11.7 2.3-3.9-2.6-4.9-7.9-2.3-11.7 2.6-3.9 7.9-4.9 11.7-2.3" clip-path="url(#XMLID_69_)"/>
    <path id="path2874" d="m250 134.3c3.9 2.6 4.9 7.9 2.3 11.7-2.6 3.9-7.9 4.9-11.8 2.3s-4.9-7.9-2.3-11.8c2.7-3.8 7.9-4.8 11.8-2.2" clip-path="url(#XMLID_69_)"/>
    <path id="path2876" d="m316 178.8c-3.9-2.6-9.1-1.6-11.8 2.3-2.6 3.9-1.6 9.1 2.3 11.7s9.1 1.6 11.7-2.3c2.7-3.8 1.7-9.1-2.2-11.7" clip-path="url(#XMLID_69_)"/>
    <path id="path2878" d="m381.9 223.3c-3.9-2.6-9.1-1.6-11.7 2.3s-1.6 9.1 2.3 11.7 9.1 1.6 11.7-2.3c2.6-3.8 1.6-9.1-2.3-11.7" clip-path="url(#XMLID_69_)"/>
    <path id="path2880" d="m447.9 267.8c-3.9-2.6-9.1-1.6-11.7 2.3s-1.6 9.1 2.3 11.7 9.1 1.6 11.7-2.3c2.6-3.8 1.6-9.1-2.3-11.7" clip-path="url(#XMLID_69_)"/>
    <path id="path2882" d="m503.9 327.2c-0.7-0.5-1.3-1-1.8-1.6-8.3 14.8-20.9 15.4-28.9 9.9-6-4-9.6-9.9-8.8-17.9-0.5-0.2-1-0.5-1.4-0.8-0.5-0.3-0.9-0.7-1.3-1.1-7.1 3.7-13.9 2.6-19.9-1.5-8.1-5.4-12.2-17.4-1.6-30.6-0.7-0.2-1.5-0.6-2.2-1.1-0.7-0.4-1.3-1-1.8-1.6-8.3 14.8-20.8 15.4-28.9 9.9-6-4.1-9.6-9.9-8.8-17.9-0.5-0.2-1-0.5-1.4-0.8-0.5-0.3-0.9-0.7-1.3-1.1-7.1 3.7-13.9 2.6-19.9-1.5-8.1-5.5-12.2-17.4-1.6-30.6-0.7-0.3-1.5-0.6-2.2-1.1s-1.3-1-1.8-1.6c-8.2 14.8-20.8 15.4-28.9 10-6-4.1-9.5-9.9-8.8-17.9-0.5-0.2-1-0.5-1.4-0.8-0.5-0.3-0.9-0.7-1.3-1.1-7.1 3.7-13.9 2.6-19.9-1.5-8.1-5.5-12.2-17.4-1.6-30.5-0.7-0.3-1.5-0.6-2.2-1.1s-1.3-1-1.8-1.6c-8.3 14.8-20.9 15.4-28.9 10-6-4.1-9.6-9.9-8.8-17.9-0.5-0.2-1-0.5-1.4-0.8-0.5-0.3-0.9-0.7-1.3-1-7.1 3.6-13.9 2.6-19.9-1.5-8.1-5.5-12.2-17.4-1.6-30.6-0.7-0.3-1.5-0.6-2.2-1.1s-1.3-1-1.8-1.6c-8.3 14.8-20.9 15.4-28.9 10-6-4.1-9.6-9.9-8.8-17.9-0.5-0.2-1-0.5-1.4-0.8-0.5-0.3-0.9-0.7-1.3-1-7.1 3.7-13.9 2.6-19.9-1.5-8.1-5.5-12.2-17.4-1.6-30.6-0.7-0.2-1.5-0.6-2.2-1.1s-1.3-1-1.8-1.6c-8.2 14.8-20.8 15.4-28.9 10-6-4-9.5-9.9-8.8-17.9-0.5-0.2-1-0.5-1.4-0.8-0.5-0.3-0.9-0.7-1.3-1.1-7.1 3.7-13.9 2.6-19.9-1.5-8.1-5.4-12.2-17.4-1.6-30.6-0.7-0.2-1.5-0.6-2.2-1.1s-1.3-1-1.8-1.6c-8.7 15.2-21.4 15.9-29.4 10.4-6-4.1-9.6-9.9-8.8-17.9-0.5-0.2-1-0.5-1.4-0.8-0.5-0.3-0.9-0.7-1.3-1.1-7.1 3.7-13.9 2.6-19.9-1.5-8.1-5.5-12.2-17.4-1.6-30.5-0.7-0.3-1.5-0.6-2.2-1.1l-5.2 7.8c-4.1 9.8-0.6 20.8 7.5 26.2 6.8 4.6 13.7 5.4 21.2 2.5 0.4 7.8 3.4 14.1 10.2 18.8 8.1 5.4 19.6 4.5 27.1-3-4.1 9.8-0.7 20.8 7.4 26.2 6.8 4.6 13.7 5.4 21.2 2.4 0.4 7.8 3.4 14.2 10.2 18.8 8.1 5.5 19.6 4.5 27.1-2.9-4.1 9.8-0.7 20.8 7.4 26.2 6.8 4.6 13.7 5.4 21.2 2.4 0.4 7.8 3.4 14.2 10.2 18.8 8.1 5.5 19.5 4.5 27.1-2.9-4.1 9.8-0.7 20.8 7.4 26.2 6.8 4.6 13.7 5.4 21.2 2.4 0.4 7.8 3.4 14.2 10.2 18.8 8.1 5.5 19.5 4.5 27.1-2.9-4.1 9.8-0.7 20.8 7.4 26.2 6.8 4.6 13.7 5.4 21.2 2.5 0.4 7.8 3.4 14.1 10.2 18.7 8.1 5.5 19.5 4.5 27.1-2.9-4.1 9.8-0.7 20.8 7.4 26.2 6.8 4.6 13.7 5.4 21.2 2.4 0.4 7.8 3.4 14.2 10.2 18.8 8.1 5.4 19.5 4.5 27.1-3-4 9.8-0.6 20.8 7.5 26.3 6.8 4.6 13.7 5.4 21.2 2.4 0.4 7.8 3.4 14.2 10.2 18.8 8.1 5.5 19.5 4.5 27.1-2.9 0.3 0.1 5.7-7.6 5.5-7.7" clip-path="url(#XMLID_69_)"/>
   </g>
   <polygon id="polygon2884" points="21.7 47.1 483.2 358.4 482.8 359 21.3 47.7" clip-path="url(#XMLID_69_)"/>
   <polygon id="polygon2886" points="21.7 47.1 483.2 358.4 482.8 359 21.3 47.7" clip-path="url(#XMLID_69_)" fill="none" stroke="#000000" stroke-miterlimit="3.864" stroke-width=".112"/>
   <polygon id="polygon2888" points="5.2 71.5 466.8 382.9 466.3 383.5 4.8 72.1" clip-path="url(#XMLID_69_)"/>
   <polygon id="polygon2890" points="5.2 71.5 466.8 382.9 466.3 383.5 4.8 72.1" clip-path="url(#XMLID_69_)" fill="none" stroke="#000000" stroke-miterlimit="3.864" stroke-width=".112"/>
  </g>
  <line id="line2892" x1="376.206" x2="623.932" y1="314.658" y2="314.658" fill="none" stroke="#000000" stroke-miterlimit="3.864" stroke-width=".11583"/>
  <g stroke-width="1.00538">
   <path id="path2894" d="m500.103 449.931c-68.395 0-123.897-55.433-123.897-123.828v-176.09h247.725v176.021c0 68.395-55.433 123.897-123.828 123.897m0-1.99946c-67.3608 0-121.898-54.6057-121.898-121.898v-174.021h243.795v174.021c0 67.3608-54.6057 121.898-121.898 121.898z" fill-rule="evenodd"/>
   <path id="path2896" d="m475.421 323.69c2.55103-1.17209 3.86101-1.79261 6.41203-2.68892 0.41369-0.13789 0.68948-0.34473 1.10315-0.34473 2.89575-0.34473 4.41258-0.41368 7.23939-0.48263 1.86156-0.069 2.89575-0.069 4.82626-0.069 0.62052 0 1.03419 0 1.58577 0.34474 1.65472 1.24104 2.89576 2.27524 4.68836 3.79207 1.79262 1.51682 2.82682 2.34418 4.68837 3.86101-0.13789 1.10314-0.34472 1.72365-0.82735 2.68891-0.55157 1.10315-0.89631 1.72367-1.72366 2.61997 1.17209-0.8963 1.86155-1.93051 2.68891-3.37838 0.48262-0.82736 0.68946-1.30999 1.0342-2.27524 0.13789-0.41368 0.41368-0.62052 1.03419-0.41368 3.86102 1.30998 7.51518 2.61997 12.4793 3.03365 0.82736 0.069 1.24105 0.13789 2.2063 0.13789 0.48262 0 0.8963 0.069 1.30998 0.27579 2.27524 1.0342 3.51628 1.65472 5.65362 2.9647 2.41313 1.51682 4.68837 2.68891 6.89466 5.10204 1.9305 2.0684 3.17154 3.03365 5.65361 4.2747 1.72367 0.82735 2.55103 0.7584 4.68838 1.51681 0.34473 0.1379 0.48262 0.27579 0.62051 0.82736 0.68947 2.61998 0.96526 4.2747 1.51683 6.96361 0.62051 2.68891 0.8963 4.20574 1.51682 6.89466 1.58577 1.79261 2.61998 2.68891 4.61942 3.9989 1.58578 1.0342 2.61998 1.51682 4.41258 2.2063 0.75842 4.27468 1.03421 6.75675 1.1721 11.0314 0.069 2.68891 0.069 4.20573-0.069 6.89466-0.27579 1.10314-0.62052 1.58576-1.72366 2.34417-0.68947 0.48263-1.72367 0.55158-2.20629 0.55158h-14.9614c-1.0342-0.89631-1.44788-1.99946-1.10315-3.37839 0.34474-1.17208 0.96525-1.9305 2.20629-2.27523 1.24104-0.41368 2.41313-0.41368 3.86101-0.41368 0-1.1721-0.20683-2.82681-0.68947-3.72311-0.34472-0.62052-0.75841-0.89631-1.37893-1.31-3.24049-2.27522-4.96415-3.51627-7.58412-5.65361-1.58577-1.24104-2.27524-1.99945-3.58522-3.37838-0.069-0.48263-0.1379-0.68946-0.27579-1.1721-0.069-0.27577-0.069-0.41367-0.13789-0.68946 0.34473-0.48262 0.48263-0.75841 0.68947-1.30998 0.34473-0.75841 0.41367-1.1721 0.55157-1.99945-0.27579 0.96525-0.48262 1.44788-0.96526 2.27523-0.20684 0.34474-0.27578 0.48263-0.55157 0.82736 0.55157 2.34418 0.82736 3.72311 1.10315 6.13625 0.27578 1.93051 0.34473 3.03365 0.41368 5.03309-1.24104 2.41314-2.27524 3.86101-3.92996 6.48099-0.82736 1.30998-2.06839 2.75786-3.17154 3.92995-0.62052 0.62052-1.51683 0.55157-2.41312 0.55157h-15.1683c-0.82736-0.68946-1.24103-1.37892-1.24103-2.41313 0-1.65472 0.96524-3.17154 2.9647-3.72311 0.8963-0.27579 2.13735-0.27579 3.10259-0.20684 0.13789-0.82736 0.20684-1.24104 0.27579-2.13735 0.069-0.82736 0-1.17208 0.069-2.20629 0-0.41367-0.069-0.75841-0.34473-1.10314-1.0342-1.30999-2.13735-2.61997-3.03365-4.55047-0.41369-0.82736-0.55158-1.37894-0.82736-2.27524-2.48208-0.27579-3.86101-0.48263-6.34309-0.89631-2.13734-0.34474-3.30943-0.55157-5.44678-0.89631-1.79261-1.37893-3.58522-2.48208-5.17099-2.89575-0.27578-0.069-0.55158-0.069-0.8963-0.069-0.27579-0.55157-0.48263-0.89631-0.68948-1.44788-0.20683-0.55157-0.41367-1.30998-0.68946-3.30944 0.069 2.34419 0.48263 3.99891 1.17209 5.86047 0.68947 1.99945 0.82737 2.48207 1.51683 4.96415 0.13789 0.55157 0.13789 0.89631 0 1.44788-0.62052 3.03365-0.96526 4.34363-1.79262 7.10149-0.8963 2.89577-1.51682 5.10206-2.61996 7.30835-0.27579 0.62051-0.75841 1.44787-1.44788 1.44787h-16.0646c-0.55157-0.75841-0.8963-1.93051-0.82736-2.89575 0.069-0.75841 0.41369-1.58577 0.96526-2.13735 0.55157-0.55157 2.34418-1.79261 5.0331-2.20629 0-2.96471-0.1379-4.34364-0.1379-7.1015v-7.37728c-0.82735-1.1721-0.96524-1.58577-1.37893-2.68892-0.41367-1.17209-0.62052-1.86155-0.75841-3.03365-0.069 1.0342 0 1.65472 0.20684 2.68892 0.27579 1.17209 0.68947 2.0684 1.24104 2.96471-2.20629 2.06839-3.58522 3.10259-6.0673 4.82625-2.13735 1.44788-3.37838 2.20629-5.65362 3.44733-0.13789 1.0342-0.20684 1.37893-0.55157 1.99945-0.55157 0.89631-1.51682 1.51683-2.13734 1.51683h-13.1688c-0.89631 0-2.0684-3.30943-1.03419-4.41258 2.06839-2.20629 3.24048-3.51628 5.03309-5.99836 1.44788-1.9305 2.41314-3.37837 3.51628-5.10204 0.96525-1.51682 3.10259-2.13734 5.30888-3.24049 1.93051-0.96526 3.03365-1.44788 5.0331-2.13734 0 0 0.27579-1.72367-0.20683-1.72367-0.48264 0.069-1.86156 0.069-3.03365-0.13789-1.65472-0.27579-2.82682-0.68947-4.55048-1.30999-1.72367-0.62052-2.68892-1.03419-4.34363-1.9305-1.37894 0-2.20629-0.069-3.58523-0.20684-1.30998-0.1379-1.99945-0.20684-3.30943-0.41368 0 0-0.62052-2.0684 0.069-2.13734 0.48262-0.069 0.68946-0.069 1.17209-0.1379 0.48263-0.069 1.30998 0.1379 1.30998-0.27579-1.0342 0.069-1.58576 0.069-2.75786 0.1379h-2.13734c-0.2758 0-1.10315-0.82736-1.93051-1.65472-0.8963-0.89631-1.93051-1.72367-1.93051-2.13734v-2.27524c-0.34472-0.48262 0-1.0342 0.48263-1.0342 0.8963-0.20684 2.41313-0.55157 2.41313-0.55157 1.10315-1.03419 1.99946-1.79261 3.17154-2.68892 1.30999-1.10315 2.0684-1.58577 3.51628-2.55102 0.48263-2.20629 0.55158-3.92996 1.99946-4.20574 1.93049-0.41369 3.92994-0.75841 7.03254-0.82736 0.34474-1.17209 0.82736-1.99945 1.86156-2.61998 1.37893-0.82735 3.44733-0.82735 4.82626-0.82735 1.24104 1.44788 2.27523 3.10259 2.55102 5.51572 0.20685 1.51683-0.13789 2.55103-0.55157 3.86102 0.34473-0.48263 0.55157-0.75842 0.68947-1.30999 0.68946-2.55102-0.27579-5.79151-0.96526-7.72202-0.069-0.34472 3.30944-1.0342 6.68782-2.55101"/>
   <path id="path2898" d="m467.423 352.716c0.34473-0.069 0.34473 0.96525 0.34473 1.58578 0.069 0.62051 0 1.03419-0.1379 1.6547-1.65471 0.62053-2.61996 1.03421-4.27468 1.79262-2.0684 0.96526-3.65417 1.72367-5.23994 2.68891-0.62052 0.34474-0.82736 0.75842-1.17209 1.30999-1.30999 2.0684-2.06839 3.10259-3.51628 5.0331-1.65471 2.13735-3.10259 3.79206-4.55046 5.30889-0.41369 0.41368-0.62053 0.82736-0.48264 1.37893 0.20684 1.10314 0.55157 1.86155 0.96526 1.86155h11.7899c0.68946 0 1.37893-0.13788 1.72367-0.41367 0.68946-0.55157 1.17208-1.37893 1.03419-2.68892 2.61997-1.30999 3.99891-2.20628 6.41204-3.86101 2.06839-1.44787 3.24048-2.41313 5.10204-4.1368-0.48262-0.96524-0.68946-1.58577-0.8963-2.68891-0.27578-1.1721-0.41368-1.86156-0.27578-3.03365 0.20683-1.24103 0.41367-1.9305 1.17208-2.9647 0.1379 1.17209 0.20685 1.79261 0.48263 2.9647 0.34473 1.44788 0.41368 2.34419 1.0342 3.65417 0.34473 0.75841 0.62051 1.17209 1.10315 1.79262 0 2.61996 0.069 4.06784 0.069 6.61887 0.069 3.30943 0.069 5.03309 0.13789 8.41148 0 0.41368-0.20683 0.68947-0.62052 0.75841-0.75841 0.069-2.20629 0.55157-2.61996 0.68947-1.31 0.62052-2.41314 1.30998-2.68893 2.61996-0.13789 0.89631 0.1379 2.20629 0.62052 2.20629h15.0993c0.96526 0 2.41314-4.20573 3.44734-7.58412 0.82735-2.82681 1.37893-4.68836 1.86155-7.10149 0.1379-0.55157 0.1379-1.10315 0-1.65472-0.27579-0.89631-1.10314-3.51628-1.79261-5.51573-0.68947-2.0684-0.82735-3.65417-0.96525-5.65362-0.069-1.58577 0.20683-2.61997 1.30998-3.58522-0.069 1.44788 0 2.27524 0.20685 3.72312 0.27578 1.65472 0.48262 2.55101 1.10314 4.06784 0.68946 0.13789 1.10315 0.27579 1.65472 0.48263 1.51682 0.55157 2.68891 1.37893 4.34363 2.61997 1.79261 0.34473 2.75786 0.48263 4.61942 0.82736 2.9647 0.48262 4.61942 0.68946 7.58413 0.96525 0.20684 1.10314 0.41367 1.72366 0.89631 2.75786 0.75841 1.79262 2.13734 3.30944 3.17153 4.55048 0.27579 0.34473 0.34474 0.62051 0.34474 1.0342 0 1.03419-0.069 1.65471-0.069 2.55102-0.069 1.58577-0.34474 3.10259-0.75841 3.10259-0.89631-0.27579-1.72367-0.13789-2.34419-0.13789-1.37893 0.069-2.9647 0.82736-3.17154 3.1026-0.069 0.68946 0.48263 1.51682 1.10315 1.51682h14.6856c0.41368 0 1.30999 0.069 1.72366-0.41367 1.44788-1.58578 2.41314-2.96471 3.72312-5.03311 1.24103-1.86155 1.86156-2.96471 2.9647-4.96415-0.069-1.79262-0.1379-2.82681-0.34474-4.61942-0.27578-2.55102-0.55157-3.92996-1.10314-6.41203 0.55157-0.82736 0.82736-1.24105 1.24104-2.13735 0.68946-1.44787 0.96525-2.27523 1.17209-3.79206 0.48263 0.96525 0.62052 1.58577 0.62052 2.68891 0 1.58578-0.55157 2.68892-1.30998 3.92996-0.27579 0.48262 1.86155 2.41313 3.30943 3.65417 1.51683 1.37893 3.30944 2.75786 5.58468 4.41258 1.10314 0.75841 1.99945 1.30998 2.75786 1.86156 1.0342 0.68947 1.51682 1.37893 1.79261 2.61997 0.27578 0.96525 0.34473 1.99944 0.34473 3.92995h-2.13734c-1.79262 0.069-3.58522 0.34473-3.86101 2.41314-0.069 0.75841 0.27579 1.86155 0.96525 1.86155h14.203c0.55157 0 0.8963-0.069 1.37893-0.34473 0.82736-0.41368 1.58577-1.1721 1.65472-1.79261 0.20684-2.82681 0.13789-4.61943 0.069-7.58413-0.13789-3.79206-0.41368-5.9294-1.0342-9.65252-1.86155-0.68946-2.8268-1.17209-4.48153-2.27524-1.72366-1.17208-3.17154-2.48208-4.34363-3.92995-0.27579-0.27578-0.34474-0.82736-0.48262-1.17209-0.82736-3.79206-1.10315-4.89521-1.72367-8.06675-0.41367-1.99946-0.68946-3.17154-1.0342-5.17099-1.65471-0.55158-2.55102-0.68948-3.861-1.24105-1.93051-0.75841-3.37839-1.72365-4.75732-2.8268-1.24103-0.89631-1.93051-1.9305-2.9647-2.96471-1.72367-1.65472-3.1026-2.41313-5.23994-3.72311-2.34419-1.44788-4.82627-2.61998-6.2052-3.30944-0.41367-0.20683-0.68946-0.27578-1.17208-0.27578-1.1721 0.069-3.03365-0.069-4.96416-0.41369-3.03365-0.55157-6.75677-1.65471-9.85936-2.75786-0.48263 1.17209-0.82736 1.99945-1.37894 3.1026-1.30998 2.34419-2.8268 3.37838-5.03309 3.58522-0.069-0.20684 1.44787-1.44788 2.13734-2.61996 0.82736-1.31 1.1721-2.13736 1.58577-3.65418-1.51682-1.24104-2.41313-1.9305-3.92996-3.17154-2.06839-1.65472-3.24048-2.61997-5.30887-4.27469-1.93051-0.069-2.96472-0.069-4.89522 0-3.10259 0.069-4.82625 0.20684-7.8599 0.48263-1.72367 0.68947-2.68892 1.10314-4.41258 1.79261-1.86156 0.75841-2.89576 1.30999-4.75732 1.99945-1.58577 0.62052-2.48208 0.8963-4.06785 1.44788 0.41368 1.37893 0.89631 3.1026 0.89631 5.44677 0 1.44789-0.20685 2.75787-1.10314 3.92996-0.55158 0.68947-1.51683 1.30998-2.41314 1.93051 0.55158-1.24104 0.75842-1.99946 1.10314-3.30944 0.20685-1.0342 0.55159-1.65472 0.41369-2.75786-0.27579-2.61997-1.30998-4.06785-2.13734-5.23994-0.89631 0-2.48208 0.1379-3.30944 0.41368-1.44788 0.55157-2.0684 1.65472-2.41314 3.17154-1.37893 0-2.20628 0-3.58522 0.1379-1.51682 0.13789-2.68891 0.34472-3.79206 0.62051-0.34472 0.069-0.55157 0.27579-0.62052 0.62052-0.27579 1.0342-0.55157 2.20629-0.75841 3.37839-1.37893 0.82735-2.13734 1.37893-3.44732 2.34417-1.44788 1.10315-3.17155 2.82682-3.58523 2.96471s-0.68947 0.20684-1.10314 0.34473c-0.48262 0.1379-0.82736 0.20685-1.30999 0.27579v2.27524c0.55158 0.55157 0.8963 0.82735 1.44788 1.37893l1.65472 1.65472c1.37893-0.069 2.20629-0.13789 3.58522-0.069 1.51683 0.069 3.79207 0 3.86101 0.34473-0.55158 0.55157-1.0342 0.96526-1.72367 1.1721-1.10315 0.34473-1.72366 0.27578-2.9647 0.48262l0.069 0.62052c0.89631 0.13789 1.30998 0.20684 2.20629 0.34474 1.65472 0.20683 2.61996 0.20683 4.27468 0.20683 1.37893 0.68946 2.13735 1.0342 3.51628 1.58577 1.79261 0.68947 2.89575 1.1721 4.82626 1.51683 0.68947 0.13789 1.0342 0.13789 1.72367 0.20684 0.68946 0.27579 1.24103 0.27579 2.13734 0.20684"/>
  </g>
  <g fill="#ffffff" stroke-width="1.00538">
   <path id="path2900" d="m542.575 382.846c0 0.68947 0.20684 1.44788 0.96525 1.44788 0.27578 0 0.34473-0.069 0.48262-0.20684 0.20685-0.20684 0.069-0.48263 0.20685-0.75841 0.20684-0.48263 0.48262-0.62051 0.75841-1.17209 0.069-0.20684-0.069-0.55158-0.34474-0.55158-0.34473 0-0.48262 0-0.8963-0.069-0.68947-0.1379-1.10314 0.62051-1.17209 1.30998"/>
   <path id="path2902" d="m544.988 382.846c0 0.68947 0.20684 1.44788 0.96525 1.44788 0.27578 0 0.27578-0.069 0.48263-0.20684 0.20684-0.20684 0.069-0.48263 0.20684-0.75841 0.20683-0.48263 0.48262-0.62051 0.68947-1.17209 0.13789-0.20684-0.069-0.55158-0.34474-0.55158-0.34473 0-0.48263 0-0.89631-0.069-0.62052-0.1379-1.10314 0.62051-1.10314 1.30998"/>
   <path id="path2904" d="m510.583 382.846c0 0.68947 0.20684 1.44788 0.96525 1.44788 0.27578 0 0.34473-0.069 0.48262-0.20684 0.20685-0.20684 0.069-0.48263 0.20685-0.75841 0.20683-0.48263 0.48262-0.62051 0.75841-1.17209 0.069-0.20684-0.069-0.55158-0.34474-0.55158-0.34472 0-0.48262 0-0.8963-0.069-0.68947-0.1379-1.10315 0.62051-1.17209 1.30998"/>
   <path id="path2906" d="m512.996 382.846c-0.069 0.68947 0.20683 1.44788 0.96524 1.44788 0.27579 0 0.27579-0.069 0.48264-0.20684 0.20684-0.20684 0.069-0.48263 0.20684-0.75841 0.20683-0.48263 0.48262-0.62051 0.7584-1.17209 0.069-0.20684-0.069-0.55158-0.34473-0.55158-0.34473 0-0.48262 0-0.8963-0.069-0.68947-0.1379-1.17209 0.62051-1.17209 1.30998"/>
   <path id="path2908" d="m473.214 382.846c0 0.68947 0.20685 1.44788 0.96526 1.44788 0.27578 0 0.27578-0.069 0.48262-0.20684 0.20684-0.20684 0.069-0.48263 0.20684-0.75841 0.20683-0.48263 0.48262-0.62051 0.75842-1.17209 0.069-0.20684-0.1379-0.55158-0.34474-0.55158-0.34473 0-0.48263 0-0.89631-0.069-0.68947-0.1379-1.10314 0.62051-1.17209 1.30998"/>
   <path id="path2910" d="m475.627 382.846c0 0.68947 0.20683 1.44788 0.96524 1.44788 0.27579 0 0.27579-0.069 0.48263-0.20684 0.20684-0.20684 0.069-0.48263 0.20684-0.75841 0.20684-0.48263 0.48263-0.62051 0.75842-1.17209 0.069-0.20684-0.1379-0.55158-0.34474-0.55158-0.34474 0-0.48262 0-0.89631-0.069-0.75841-0.1379-1.17208 0.62051-1.17208 1.30998"/>
   <path id="path2912" d="m449.428 373.4c0 0.68947 0.20685 1.44788 0.96526 1.44788 0.27578 0 0.27578-0.069 0.48262-0.27579 0.20685-0.20683 0.069-0.48262 0.20685-0.75841 0.20683-0.55157 0.48262-0.62052 0.75841-1.24104 0.069-0.20684-0.1379-0.55157-0.34474-0.55157-0.34474 0-0.48262 0-0.89631-0.069-0.68946 0-1.17209 0.75842-1.17209 1.44788"/>
   <path id="path2914" d="m451.772 373.4c0 0.68947 0.20683 1.44788 0.96524 1.44788 0.27579 0 0.27579-0.069 0.48264-0.27579 0.20683-0.20683 0.069-0.48262 0.20683-0.75841 0.20684-0.55157 0.48263-0.62052 0.75841-1.24104 0.069-0.20684-0.13788-0.55157-0.34473-0.55157-0.34473 0-0.48262 0-0.8963-0.069-0.68947 0-1.10314 0.75842-1.17209 1.44788"/>
   <g fill-rule="evenodd">
    <path id="path2916" d="m450.324 374.366c0.069-0.34474 0.13789-0.62052 0.27578-0.89631 0.20684-0.34474 0.27579-0.55157 0.55157-0.82736 0 0-0.62052 0-0.96524-0.069-0.27579 0.20684-0.41369 0.41369-0.41369 0.75842 0.069 0.41368 0.1379 0.8963 0.55158 1.0342"/>
    <path id="path2918" d="m452.737 374.366c0.069-0.34474 0.1379-0.62052 0.27579-0.89631 0.1379-0.34474 0.2758-0.55157 0.55157-0.82736 0 0-0.55157 0-0.96524-0.069-0.27579 0.20684-0.41369 0.41369-0.41369 0.75842 0 0.41368 0.069 0.8963 0.55157 1.0342"/>
    <path id="path2920" d="m474.18 383.811c0.069-0.34472 0.13788-0.55156 0.27578-0.8963 0.13789-0.34473 0.27579-0.55157 0.55158-0.82736 0 0-0.62053 0-0.96526-0.069-0.27579 0.20684-0.41368 0.41368-0.41368 0.82736 0 0.34474 0.069 0.82736 0.55158 0.96525"/>
    <path id="path2922" d="m476.524 383.811c0.069-0.34472 0.13789-0.55156 0.27578-0.8963 0.1379-0.34473 0.27579-0.55157 0.55157-0.82736 0 0-0.55157 0-0.8963-0.069-0.27579 0.20684-0.41368 0.41368-0.41368 0.82736-0.069 0.34474 0.069 0.82736 0.48263 0.96525"/>
    <path id="path2924" d="m511.549 383.811c0.069-0.34472 0.13789-0.55156 0.27578-0.8963 0.20684-0.34473 0.27579-0.55157 0.55158-0.82736 0 0-0.55158 0-0.96525-0.069-0.27579 0.20684-0.41369 0.41368-0.41369 0.82736 0 0.34474 0.1379 0.82736 0.55158 0.96525"/>
    <path id="path2926" d="m513.893 383.811c0.069-0.34472 0.13788-0.55156 0.27578-0.8963 0.20684-0.34473 0.27579-0.55157 0.55157-0.82736 0 0-0.55157 0-0.96525-0.069-0.27579 0.20684-0.41368 0.41368-0.41368 0.82736 0.069 0.34474 0.13789 0.82736 0.55158 0.96525"/>
    <path id="path2928" d="m543.54 383.811c0.069-0.34472 0.1379-0.55156 0.27578-0.8963 0.20684-0.34473 0.27579-0.55157 0.55158-0.82736 0 0-0.55158 0-0.89631-0.069-0.27579 0.20684-0.41368 0.41368-0.41368 0.82736-0.069 0.34474 0 0.82736 0.48263 0.96525"/>
    <path id="path2930" d="m545.884 383.811c0.069-0.34472 0.13789-0.55156 0.27578-0.8963 0.20684-0.34473 0.27579-0.55157 0.55158-0.82736 0 0-0.55158 0-0.96526-0.069-0.27579 0.20684-0.41368 0.41368-0.41368 0.82736 0 0.34474 0.13789 0.82736 0.55158 0.96525"/>
   </g>
   <path id="path2932" d="m455.771 333.963c-0.41367 0.68947-0.55157 1.24104-0.48262 2.0684 0.069 1.10315 0.55157 1.79261 1.37893 2.41313v-0.89631h0.62052c0.41369-0.069 0.62052-0.069 1.0342-0.20684-0.62051-0.34473-0.96525-0.62052-1.37893-1.17209-0.62052-0.68946-0.89631-1.24104-1.17209-2.20629"/>
   <path id="path2934" d="m455.84 335.273c0.1379 0.34473 0.27579 0.55156 0.48263 0.8963 0.27578 0.41368 0.55157 0.62052 0.96525 0.89631-0.20683 0.069-0.34473 0.069-0.62052 0-0.20684 0-0.34473 0-0.55157-0.069-0.069-0.20684-0.13789-0.27579-0.20684-0.48263-0.069-0.48262-0.1379-0.75841-0.069-1.24103"/>
  </g>
  <path id="path2936" d="m499.897 450c-68.395 0-123.897-55.433-123.897-123.828v-176.021h247.725v176.021c0.06896 68.395-55.4331 123.828-123.828 123.828m0-1.9305c-67.3608 0-121.898-54.6057-121.898-121.898v-174.021h243.795v174.021c0 67.3608-54.6057 121.898-121.898 121.898z" fill-rule="evenodd" stroke-width="1.00538"/>
 </g>
</svg>
